<svg xmlns="http://www.w3.org/2000/svg" viewBox="0 0 491.65 119.24"><defs><style>.cls-1{fill:#00ac72;}.cls-2{fill:#231f20;}.cls-3{fill:#00aa71;}.cls-4{fill:#005730;}</style></defs><g id="Layer_2" data-name="Layer 2"><g id="Layer_1-2" data-name="Layer 1"><g id="hj4vgT.tif"><path class="cls-1" d="M57.71,84.62c-6,4.16-12,8.29-17.94,12.5A187.68,187.68,0,0,1,21.52,109c2.14-6.63,4.26-13.26,6.41-19.87s4.41-13.47,6.79-20.71L0,43.39l.27-1c9.21,0,18.43.07,27.65,0,5.11-.05,11.44,1.36,15-1.1,3.3-2.29,3.69-8.82,5.25-13.52C51.12,18.84,54,9.9,57.26,0c4.36,13.13,8.6,25.28,12.34,37.57,1.21,4,3.06,5,7,4.94,12.47-.26,25-.1,37.93.78L79.66,68.81,59.45,83.66Z"/><path class="cls-2" d="M339.5,97.94v21.3h-9.61V59.16h8.64c.32,1.39.64,2.8,1.07,4.65,4.56-5.14,10.27-6.79,16.6-5.84,10.05,1.51,16.64,8.58,17.26,18.82a41.73,41.73,0,0,1-1,13.72c-4,14.14-19.46,18.58-30.82,9.23Zm-.12-16.07a31.66,31.66,0,0,0,.32,4.28c1,5.19,5,9.5,9.51,10.36a11.5,11.5,0,0,0,12.42-5.24c3.76-5.89,3.44-16.4-1.3-21.38a14.17,14.17,0,0,0-8-4.09C344.16,64.88,339.34,70.91,339.38,81.87Z"/><path class="cls-2" d="M462.71,81.33c0,14.06-9.18,23.34-22.83,23.21-13.27-.13-22.32-9.57-22.35-23.31,0-14,9.16-23.47,22.71-23.45S462.77,67.15,462.71,81.33Zm-9.87.54c.35-9.13-4.45-15.81-11.68-16.23s-12.64,4.51-13.58,12.75c-1,9.12,3.28,16.86,10.13,18.14C446.12,98.1,452.45,92,452.84,81.87Z"/><path class="cls-2" d="M254.25,89c4.86.25,9.25-1.48,11.89,4.64,1.8,4.14,13,4.1,16.39.77,2.41-2.34,1.83-6.23-1.67-7.71s-7.29-2.06-10.93-3.1c-2.7-.77-5.42-1.49-8-2.52-4.49-1.78-6.61-5.4-6.82-10.07A10.35,10.35,0,0,1,261,60.87c8-4.08,16.27-4.43,24.32-.33a12.5,12.5,0,0,1,7.07,10.9c-4.65,0-9.29,1.75-12.56-3.83-1.73-2.94-10.18-2.7-13.05-.55s-2.2,5.89,1.73,7.28c4.49,1.59,9.3,2.28,13.91,3.58,8.11,2.29,11.4,6,11.44,12.31,0,5.43-2.7,9.16-7.36,11.45a27.55,27.55,0,0,1-23.61.73C257.38,100.11,254.37,95.86,254.25,89Z"/><path class="cls-2" d="M158.42,51.54V103H147.76V51.66H127.91v-9.2h49.51v9.08Z"/><path class="cls-2" d="M208.58,59.13h9.19c0,9.29-.12,18.38,0,27.47.14,8.26,5.34,12.06,12.77,9.61,4.32-1.43,6.82-5.5,6.87-11.55.07-8.3,0-16.6,0-25.23h9.64v43.63h-9.28c-.12-1.64-.23-3.26-.38-5.26-5.17,5.67-11.1,8-18.67,6-5.89-1.54-9.79-5-10.05-10.77C208.23,82,208.58,70.84,208.58,59.13Z"/><path class="cls-2" d="M473.42,66.61H466V59.27l7.28-.79V45.9H483V58.66l8.5.39v7.29h-8.24c0,8.84-.19,17.25.06,25.64.17,5.74,5,3.28,8.37,4.08v7.44c-3.7,0-7.18.32-10.57-.07-4.94-.57-7.52-3.58-7.61-8.81C473.31,85.51,473.42,76.39,473.42,66.61Z"/><path class="cls-2" d="M304.51,66.54h-7.69v-7.4l6.76-.44V46.11h10V58.63l8.8.47v7.09l-8.6.43c0,8.39-.18,16.66.08,24.91.13,4,1.23,4.41,8.51,4.47v7.3c-3.74,0-7.7.44-11.5-.13s-6.31-3-6.34-7.15C304.46,86.41,304.51,76.8,304.51,66.54Z"/><path class="cls-2" d="M409.74,103.09h-9.28V42.36h9.28Z"/><path class="cls-2" d="M185.6,103.13H176V59.18h8.61c.24,1.85.49,3.74.81,6.22,4.62-4.87,9.16-8.92,16.32-7.23V67c-11.72.17-16,4.56-16.08,16.25C185.58,89.73,185.6,96.18,185.6,103.13Z"/><path class="cls-3" d="M57.71,84.62l1.75-1,23.22-5.31,10.61,30.57-1.16.75Z"/><path class="cls-2" d="M391.21,103.1h-9.37V59.21h9.37Z"/><path class="cls-4" d="M82.68,78.35,59.46,83.66l20.2-14.85Q81.16,73.58,82.68,78.35Z"/><path class="cls-2" d="M391.28,42.45v8.88h-9.41V42.45Z"/></g></g></g></svg>