<svg xmlns="http://www.w3.org/2000/svg" xmlns:xlink="http://www.w3.org/1999/xlink" viewBox="0 0 222.67 202.57"><defs><style>.cls-1,.cls-4,.cls-5,.cls-6{stroke:#5d5c76;stroke-miterlimit:10;}.cls-1,.cls-4,.cls-5,.cls-6,.cls-8{stroke-width:3px;}.cls-1{fill:url(#linear-gradient);}.cls-2,.cls-5{fill:#d8d6ff;}.cls-3{fill:#fff;}.cls-4,.cls-7,.cls-8{fill:none;}.cls-6{fill:#aba3ff;}.cls-7,.cls-8{stroke:#bebaff;stroke-linecap:round;stroke-linejoin:round;}.cls-7{stroke-width:4px;}.cls-9{fill:url(#linear-gradient-2);}.cls-10{fill:url(#linear-gradient-3);}.cls-11{fill:url(#linear-gradient-4);}.cls-12{fill:url(#linear-gradient-5);}.cls-13{fill:url(#linear-gradient-6);}.cls-14{fill:url(#linear-gradient-7);}.cls-15{fill:url(#linear-gradient-8);}.cls-16{fill:url(#linear-gradient-9);}.cls-17{fill:url(#linear-gradient-10);}</style><linearGradient id="linear-gradient" x1="113.8" y1="51.23" x2="113.8" y2="138.22" gradientUnits="userSpaceOnUse"><stop offset="0" stop-color="#ddddfc"/><stop offset="0.08" stop-color="#e8e7fd"/><stop offset="0.14" stop-color="#f5f4fe"/><stop offset="0.14" stop-color="#f5f4fe"/><stop offset="0.35" stop-color="#d5d1fe"/><stop offset="0.56" stop-color="#beb8ff"/><stop offset="0.74" stop-color="#b0a8ff"/><stop offset="0.89" stop-color="#aba3ff"/></linearGradient><linearGradient id="linear-gradient-2" x1="230.17" y1="524.39" x2="230.17" y2="486.63" gradientTransform="translate(-28.18 45.89) scale(0.98 0.21)" gradientUnits="userSpaceOnUse"><stop offset="0" stop-color="#e6e5fd"/><stop offset="0.44" stop-color="#fff"/><stop offset="0.44" stop-color="#faf9ff"/><stop offset="0.8" stop-color="#bdbbfa"/></linearGradient><linearGradient id="linear-gradient-3" x1="215.38" y1="-93.03" x2="215.38" y2="-130.79" gradientTransform="translate(31.8 57.76) scale(0.86 0.2)" xlink:href="#linear-gradient-2"/><linearGradient id="linear-gradient-4" x1="143.08" y1="206.15" x2="143.08" y2="168.39" gradientTransform="translate(30.4 -3.46) scale(0.77 0.14)" xlink:href="#linear-gradient-2"/><linearGradient id="linear-gradient-5" x1="170.9" y1="270.01" x2="170.9" y2="232.25" gradientTransform="translate(-124.49 86.82) scale(0.83 0.21)" xlink:href="#linear-gradient-2"/><linearGradient id="linear-gradient-6" x1="92.57" y1="16.57" x2="92.57" y2="-21.19" gradientTransform="translate(-0.25 5.17) scale(0.98 0.21)" xlink:href="#linear-gradient-2"/><linearGradient id="linear-gradient-7" x1="-68.33" y1="313.7" x2="-68.33" y2="275.94" gradientTransform="translate(58.4 44.53) scale(0.75 0.14)" xlink:href="#linear-gradient-2"/><linearGradient id="linear-gradient-8" x1="18.67" y1="117.95" x2="18.67" y2="95.47" gradientTransform="translate(13.4 2.12) scale(0.91 0.26)" xlink:href="#linear-gradient-2"/><linearGradient id="linear-gradient-9" x1="72.32" y1="170.51" x2="8.09" y2="207.6" gradientUnits="userSpaceOnUse"><stop offset="0.02" stop-color="#5d5c76"/><stop offset="0.59" stop-color="#e0e0e5"/><stop offset="0.64" stop-color="#e7e7eb"/><stop offset="0.8" stop-color="#f9f9fa"/><stop offset="0.91" stop-color="#fff"/></linearGradient><linearGradient id="linear-gradient-10" x1="217.71" y1="734.32" x2="217.71" y2="696.56" gradientTransform="translate(41.72 -13.66) scale(0.77 0.14)" xlink:href="#linear-gradient-2"/></defs><title>Asset 5</title><g id="Layer_2" data-name="Layer 2"><g id="Layer_1-2" data-name="Layer 1"><path class="cls-1" d="M46.92,78l44.37,26.37,78.82-11.17,10.07-1.44a.58.58,0,0,0,.19-1.09l-49.2-25.53Z"/><polygon class="cls-2" points="202.51 63.44 178.81 89.76 130.48 64.68 128.99 62.46 154.33 38.38 202.51 63.44"/><path class="cls-3" d="M180.34,92.33l.48,96.55-89.62,12v-.25h0a.61.61,0,0,0,.11-.35l-1.63-95Z"/><polygon class="cls-2" points="130.48 64.68 130.75 65.09 46.51 77.95 20.78 48.37 112.11 37.43 128.99 62.46 128.01 63.4 130.48 64.68"/><polygon class="cls-2" points="130.48 64.68 128.01 63.4 128.99 62.46 130.48 64.68"/><path class="cls-3" d="M91.3,200.25a.61.61,0,0,1-.11.35l-1.52-95.4Z"/><path class="cls-2" d="M89.67,105.2l1.52,95.4h0a.6.6,0,0,1-.8.16L44.21,172.33l1.08-93.5Z"/><polyline class="cls-4" points="130.48 64.68 130.75 65.09 46.51 77.95 20.78 48.37 112.11 37.43 128.99 62.46"/><polygon class="cls-4" points="128.99 62.46 154.33 38.38 202.51 63.44 178.81 89.76 130.48 64.68 128.01 63.4 128.99 62.46"/><path class="cls-4" d="M91.19,200.61a.6.6,0,0,1-.8.16L44.21,172.33l1.08-93.5L89.67,105.2"/><polygon class="cls-4" points="89.67 105.2 180.34 92.33 180.82 188.88 91.2 200.86 91.19 200.6 91.19 200.6 89.67 105.2"/><polygon class="cls-5" points="88.5 103.9 179.18 91.04 201.69 118.05 112.94 133.49 88.5 103.9"/><polygon class="cls-6" points="44.44 76.74 88.81 103.11 65.72 131.24 19.54 103.01 44.44 76.74"/><path class="cls-7" d="M124.29,180.07s16.59-19.91,36.29-4.57"/><line class="cls-8" x1="111.75" y1="145.77" x2="125.67" y2="154.3"/><line class="cls-8" x1="123.49" y1="143.28" x2="114.16" y2="156.24"/><line class="cls-8" x1="146.72" y1="139.52" x2="160.65" y2="148.05"/><line class="cls-8" x1="158.46" y1="137.03" x2="149.13" y2="149.99"/><rect class="cls-9" x="193.11" y="145.83" width="6.45" height="7.75" transform="translate(49.79 -49) rotate(16.27)"/><rect class="cls-10" x="215.12" y="31.98" width="5.71" height="7.44" transform="translate(111.86 -158.02) rotate(51.99)"/><rect class="cls-11" x="137.6" y="20.43" width="5.07" height="5.36" transform="translate(-1.89 22.87) rotate(-9.27)"/><rect class="cls-12" x="14.96" y="135.09" width="5.5" height="7.85" transform="translate(157.42 150) rotate(101.75)"/><rect class="cls-13" x="86.82" y="0.82" width="6.45" height="7.75" transform="translate(3.08 28.5) rotate(-18.29)"/><rect class="cls-14" x="4.76" y="81.96" width="4.95" height="5.12" transform="translate(-51.52 23.33) rotate(-38.94)"/><rect class="cls-15" x="27.72" y="27.34" width="5.49" height="5.94"/><polygon class="cls-16" points="42.84 173.27 90.81 202.53 1.61 196.37 0 169.59 42.84 173.27"/><rect class="cls-17" x="206.16" y="85.16" width="5.07" height="5.36" transform="translate(-11.42 34.76) rotate(-9.27)"/></g></g></svg>