<svg xmlns="http://www.w3.org/2000/svg" xmlns:xlink="http://www.w3.org/1999/xlink" width="107" height="54" viewBox="0 0 107 54">
    <defs>
        <path id="a" d="M34.298 8.637l6.681 5.63-40.596-.274L24.27.135z"/>
        <path id="c" d="M0 14.289l40.595.274-6.68-5.63L23.888.431z"/>
        <path id="e" d="M0 64.207h125.591V.114H0z"/>
    </defs>
    <g fill="none" fill-rule="evenodd">
        <g transform="translate(59 36)">
            <mask id="b" fill="#fff">
                <use xlink:href="#a"/>
            </mask>
            <path d="M34.298 8.637l6.681 5.63-40.596-.274L24.27.135z" mask="url(#b)"/>
        </g>
        <g transform="translate(-19 36)">
            <mask id="d" fill="#fff">
                <use xlink:href="#c"/>
            </mask>
            <path d="M0 14.289l40.595.274-6.68-5.63L23.888.431z" mask="url(#d)"/>
        </g>
        <g transform="translate(-19)">
            <path fill="#D39755" d="M108.892 53.03l.053-21.183c.509 1.874 1.12 3.677 1.496 5.64.373 1.945.911 2.728 2.044 2.691 3.632-.117 7.267-.038 10.9-.034.012.776.021 1.552.032 2.328l-.004 2.376v3.51l-.001 1.772c0 .994-.006 1.854-.006 2.9h-14.514z"/>
            <path fill="#DCB282" d="M123.386 40.144c-3.634-.003-7.269-.083-10.901.034-1.133.037-1.67-.745-2.044-2.691-.375-1.963-.987-3.766-1.496-5.64l-.388-1.58c4.58-.03 9.16-.12 13.737-.009.515.012 1.242.937 1.491 1.817.692 2.453 1.185 5.104 1.805 7.902"/>
            <path fill="#DCB383" d="M89.584 37.64l2.679-7.35c.104 2.927.207 6.275.311 9.203"/>
            <path fill="#C8802D" d="M92.244 30.754l.018-.465c.21 0 .512-.046.89-.046l1.422-.043h9.068l4.933.022.62 1.58c-.029 7.06-.072 14.17-.1 21.23-2.493.003-4.973-.043-7.466-.04-.007-1.06.145-2.168-.08-3.157-.136-.597-.807-1.216-1.344-1.407-.236-.084-.97.82-1.071 1.378-.183 1.015-.062 2.105-.068 3.164h-6.529V40.15l-.31-7.694"/>
            <path fill="#C8802D" d="M102.024 52.99l-2.97-.026c.008-1.227-.134-2.49.079-3.667.116-.646.967-1.695 1.24-1.598.624.221 1.402.94 1.559 1.63.261 1.148.085 2.433.092 3.66"/>
            <path fill="#DCB383" d="M49.684.832c.679-.239 1.358-.682 2.038-.686C62.374.103 73.026.116 84.397.116c-2.03 5.285-3.865 10.063-5.702 14.84l-.832.065h-2.166l-2.163-.003H47.547c-2.596-.815-1.118-2.505-.71-3.968.951-3.406 1.898-6.813 2.847-10.218"/>
            <path fill="#D19A5B" d="M47.55.17c.712.003 1.423.431 2.134.662-.87 3.406-1.738 6.812-2.61 10.217-.375 1.464-1.73 3.154.65 3.969l-1.962 1.585-.684.01c-.946-.532-1.881-1.5-2.836-1.526-6.2-.175-12.403-.145-18.606-.182L18.976.668"/>
            <path fill="#DCB282" d="M23.637 14.905c6.202.037 12.405.007 18.606.181.954.027 2.32.116 3.375.116-1.02 2.753-2.749 6.848-3.543 9.69-.645 2.304-1.723 2.978-3.637 2.91-3.828-.14-7.67-.197-11.49.069-.964.066-1.864 1.477-2.794 2.27l-4.7-3.747 4.183-11.49"/>
            <path fill="#D19A5B" d="M78.815 53.39c0-1.937-.005-2.767-.005-4.263-.085-11.378-.028-22.793-.115-34.17l-.832.064c0 7.659.12 15.322-.073 22.975-.058 2.34-1.289 4.636-1.406 6.987-.109 2.152.562 4.35 1.005 7.287H45.442l-.17 1.12h33.543z"/>
            <path fill="#D19A5B" d="M76.383 44.984c.118-2.351 1.348-4.648 1.407-6.988.193-7.654.073-15.316.073-22.975h-2.166l-2.163-.003H47.546c-.712.528-1.425 1.057-2.14 1.585l-.041 12.689v22.996l.076-.018H77.39c-.443-2.937-1.114-5.135-1.006-7.286"/>
            <path fill="#BD7C32" d="M27.86 52.317a462.169 462.169 0 0 1 .04.002l-.04-.002zm17.863-.03h-.358V29.292c-2.994.002-5.988-.014-8.98-.009 3.112-.007 5.867.011 8.98.009.013-4.229.24-9.86.253-14.09-.18.483-.355 1.032-.54 1.411-1.02 2.753-2.21 5.437-3.004 8.28-.644 2.304-1.722 2.977-3.636 2.908-3.828-.14-7.67-.196-11.49.07-.964.067-1.864 1.476-2.794 2.27-.077 6.588-.156 13.177-.235 19.765-.011 1.29-.027 2.227-.027 3.433 7.11 0 14.858.05 21.746.05l.157-1.12-.072.019z"/>
            <mask id="f" fill="#fff">
                <use xlink:href="#e"/>
            </mask>
            <path fill="#C8802B" d="M45.365 53.389h33.45v-22.22h-33.45z" mask="url(#f)"/>
            <path fill="#0FF" d="M64.711 31.266l-1.814.004-1.263 15.309 2.474 1.42 1.934-1.477z" mask="url(#f)"/>
            <path stroke="#666" stroke-width=".25" d="M64.711 31.266l-1.814.004-1.263 15.309 2.474 1.42 1.934-1.477z" mask="url(#f)"/>
            <path fill="#4D4D4D" d="M70.644 26.513c-.035.12-.065.241-.109.357-.382 1.007-1.047 1.754-2.034 2.182-.796.345-1.595.227-2.38-.057-.742-.27-1.372-.716-1.925-1.28-.161-.164-.199-.162-.356.002-.713.743-1.543 1.285-2.558 1.516-1.073.243-1.997-.041-2.795-.78-.49-.456-.867-.99-1.06-1.64-.021-.072-.034-.147-.05-.22l.031-.019c.046.044.095.086.14.132.19.195.372.401.572.587.466.433 1.076.384 1.48.142.212-.128.407-.289.589-.458.273-.254.525-.533.795-.794a3.59 3.59 0 0 1 1.207-.79c.428-.166.86-.17 1.288-.001.225.09.413.226.483.478.004.016.022.027.017.021.114-.135.201-.307.34-.389.198-.116.428-.193.654-.234.35-.065.69.02 1.018.167.47.212.867.525 1.235.882.265.257.525.52.8.766.282.25.603.424.993.437.305.01.586-.062.81-.271.233-.22.445-.463.67-.692.036-.036.096-.05.145-.074v.03zM58.65 17.972c-.26.004-.519-.002-.777.015-.739.05-1.465.153-2.13.486-.516.258-.842.64-.87 1.19-.041.849.084 1.677.43 2.468.422.96 1.202 1.532 2.284 1.769.505.11 1.012.097 1.523.033 1.604-.2 2.67-1.09 3.04-2.544.156-.616.164-1.237.118-1.863a1.217 1.217 0 0 0-.604-.99 3.677 3.677 0 0 0-.828-.373c-.709-.217-1.446-.235-2.186-.191m10.986-.198c-1.025.025-2.034.16-3.029.385-.802.183-1.261.706-1.275 1.466-.007.352.023.71.077 1.06.214 1.37.93 2.393 2.403 2.87.733.238 1.492.268 2.254.173 1.476-.184 2.376-.933 2.742-2.261a4.91 4.91 0 0 0 .107-2.226c-.048-.26-.175-.552-.372-.732-.25-.228-.59-.4-.926-.52-.632-.223-1.31-.228-1.981-.215m4.598.007c.008.455.018.91.016 1.363 0 .046-.076.118-.13.133-.303.08-.42.274-.453.547-.061.513-.082 1.037-.219 1.533-.374 1.369-1.226 2.377-2.768 2.73a5.774 5.774 0 0 1-3.655-.328c-1.279-.558-1.925-1.577-2.266-2.792-.07-.254-.097-.517-.153-.774-.1-.458-.377-.742-.723-.753-.355-.013-.668.268-.79.727-.105.397-.188.799-.291 1.198-.046.179-.11.356-.178.53-.635 1.636-1.944 2.48-3.936 2.54-1.97.06-3.404-.786-4.108-2.494-.232-.564-.34-1.173-.479-1.767-.06-.26-.149-.47-.439-.568-.046-.016-.1-.086-.101-.133-.014-.446-.02-.892-.027-1.367.701-.141 1.438-.316 2.186-.435 2.1-.337 4.198-.304 6.246.251a7.152 7.152 0 0 0 3.223.118c.531-.098 1.035-.313 1.563-.432 2.166-.49 4.332-.44 6.498.004.317.065.639.11.984.169" mask="url(#f)"/>
            <path fill="#FFF" d="M96.461 38.02l-.65-.002.002-.7.65.001z" mask="url(#f)"/>
            <path fill="#4D4D4D" d="M96.374 37.834l.016-.102c-.134-.078-.265-.167-.408-.227-.03-.013-.105.08-.16.123.125.1.243.21.377.293.029.018.116-.055.175-.087m1.01-1.217a.428.428 0 0 0-.427-.449.42.42 0 0 0-.438.41c-.012.256.161.451.41.46a.426.426 0 0 0 .455-.42m.439.388c-.017.527-.113 1.016-.616 1.315-.628.374-1.443.136-1.698-.549a2.302 2.302 0 0 1-.124-1.015c.073-.679.665-1.094 1.358-1.025.636.064 1.101.613 1.08 1.274" mask="url(#f)"/>
            <path fill="#FFF" d="M97.384 36.617a.426.426 0 0 1-.454.421c-.25-.008-.423-.203-.411-.461a.42.42 0 0 1 .438-.408c.247.003.434.2.427.448" mask="url(#f)"/>
            <path fill="#4D4D4D" d="M102.747 37.71c-.093.11-.138.16-.182.212.123.102.243.208.375.295.016.01.1-.083.154-.128l-.347-.378m.93-.377a.43.43 0 0 0 .448-.429.43.43 0 0 0-.41-.439.43.43 0 0 0-.462.416.43.43 0 0 0 .424.452m-1.595-.001c-.013-.77.556-1.349 1.308-1.314.743.035 1.262.663 1.157 1.427-.033.252-.084.515-.194.74-.221.457-.678.648-1.244.578-.43-.054-.817-.402-.93-.853-.045-.19-.065-.385-.097-.578" mask="url(#f)"/>
            <path fill="#FFF" d="M103.677 37.334a.43.43 0 0 1-.424-.452.43.43 0 0 1 .46-.416.43.43 0 0 1 .411.44.429.429 0 0 1-.447.428M102.747 37.71l.347.379c-.053.045-.138.139-.154.128-.132-.087-.252-.193-.375-.295l.182-.211" mask="url(#f)"/>
            <path stroke="#4D4D4D" stroke-linecap="round" d="M97.43 42.371s2.694 4.485 5.6.056" mask="url(#f)"/>
            <path fill="#4D4D4D" d="M69.408 19.353l.8.002-.002.767-.8-.003z" mask="url(#f)"/>
            <path fill="#4D4D4D" d="M69.515 19.557l-.02.11c.167.087.327.184.502.249.037.014.128-.086.195-.133-.152-.11-.298-.23-.463-.322-.035-.02-.14.062-.214.096m-1.24 1.33c-.01.272.22.486.525.49.298.002.524-.185.537-.447.016-.28-.198-.493-.505-.504-.309-.01-.55.188-.558.46m-.54-.425c.02-.576.14-1.11.757-1.437.772-.408 1.772-.147 2.088.601.142.342.196.747.152 1.11-.089.741-.817 1.195-1.668 1.12-.782-.07-1.354-.672-1.33-1.394" mask="url(#f)"/>
            <path fill="#4D4D4D" d="M68.274 20.886c.008-.271.249-.47.558-.46.307.01.52.223.505.504-.014.263-.24.45-.538.447-.304-.004-.534-.218-.525-.491M59.849 19.997l.224-.231c-.151-.11-.299-.227-.461-.323-.02-.01-.124.092-.189.141l.426.413m-1.141.412c-.306-.007-.548.198-.552.467-.004.26.216.468.506.482.306.014.553-.184.566-.454.014-.269-.218-.489-.52-.495m1.957.001c.02.842-.681 1.474-1.605 1.436-.913-.038-1.552-.725-1.424-1.56.043-.275.104-.563.239-.81.272-.498.833-.707 1.528-.63.528.059 1.006.44 1.142.933.058.206.081.42.12.631" mask="url(#f)"/>
            <path fill="#4D4D4D" d="M58.707 20.408c.303.008.535.228.521.496-.013.27-.26.468-.567.453-.289-.013-.508-.222-.504-.48.004-.27.244-.476.55-.469M59.849 19.997l-.426-.413c.065-.049.17-.152.189-.14.162.095.31.212.461.322l-.224.231" mask="url(#f)"/>
            <path fill="#FFF" d="M68.686 20.231c.008-.27.25-.47.558-.46.308.01.52.224.506.505-.015.262-.24.449-.538.446-.304-.003-.534-.218-.526-.49M58.647 20.175c.009-.271.25-.47.559-.46.307.01.52.223.505.504-.014.262-.24.45-.538.446-.304-.003-.534-.218-.526-.49" mask="url(#f)"/>
            <path fill="#0FF" d="M112.108 29.663c-.398-.056-.784.015-1.15.154-.52.196-1.028.428-1.555.65-.031-.113-.147-.138-.282-.122-.158.018-.298.007-.361-.176-.012-.035-.063-.077-.095-.078-.136-.002-.15-.104-.182-.197a3.768 3.768 0 0 0-1.642-2.046c-.457-.281-.847-.22-1.191.19-.537.634-.935 1.347-1.14 2.154a3.86 3.86 0 0 0-.115.972c.003.41.237.694.62.848.43.174.88.205 1.334.159.633-.064 1.206-.277 1.634-.676l.35.066c.094.072.176.175.278.203.098.028.217-.02.357-.039.06.134.119.292.196.44.306.585.69 1.104 1.244 1.48.534.364 1.043.341 1.416-.11a4.692 4.692 0 0 0 1.108-2.94c.014-.518-.308-.86-.824-.932" mask="url(#f)"/>
            <path fill="#666" d="M108.873 30.577l-.05.015c-.032-.086-.057-.175-.099-.257-.027-.055-.078-.137-.118-.137-.06 0-.157.049-.175.1-.107.315-.21.633-.287.957-.04.177.048.225.23.175.084-.023.173-.023.258-.032l.007.06-.15.048c.136.214.301.236.414.028.157-.285.276-.594.394-.897.047-.12-.015-.205-.157-.204l-.261-.003-.006.147m.435.47c.292-.131.573-.228.88-.139-.391.063-.816.044-1.06.477.2.044.375.061.531.124.152.06.284.168.424.255l-.036.06c-.05-.031-.1-.072-.154-.09-.231-.08-.461-.17-.699-.223-.146-.032-.194.049-.13.187.09.198.183.395.289.584.303.535.677 1.01 1.215 1.333.5.3.92.222 1.27-.246a4.898 4.898 0 0 0 .852-1.805 4.59 4.59 0 0 0 .12-.975c.009-.478-.28-.784-.757-.824-.2-.017-.41 0-.608.036-.64.12-1.23.377-1.809.673-.244.124-.295.318-.328.573m-1.117-.507c.03-.065.055-.133.09-.196.038-.07.092-.133.126-.205.015-.034.01-.086-.004-.124-.309-.931-.855-1.673-1.733-2.143-.328-.175-.623-.125-.878.146a4.012 4.012 0 0 0-.35.433c-.517.738-.88 1.541-.961 2.448-.053.607.263.987.856 1.117.949.209 1.787-.053 2.574-.575.13-.087.146-.206.127-.319-.01-.07-.104-.151-.177-.182-.15-.058-.311-.084-.466-.124-.059-.015-.118-.032-.175-.048.004-.017.01-.033.015-.05.3-.006.584.066.86.232.122-.47-.272-.66-.45-.952l.048-.038.498.58m1.212-.073c.527-.223 1.035-.453 1.555-.65.366-.14.752-.21 1.15-.154.516.072.838.414.824.933a4.692 4.692 0 0 1-1.108 2.938c-.373.452-.882.475-1.416.112-.554-.377-.938-.897-1.244-1.482-.077-.147-.137-.305-.196-.439-.14.02-.259.067-.357.04-.102-.03-.184-.13-.279-.204l-.349-.066c-.428.4-1.001.612-1.634.676-.454.046-.904.015-1.334-.159-.383-.154-.617-.439-.62-.848a3.865 3.865 0 0 1 .114-.973c.206-.806.604-1.52 1.14-2.153.345-.41.735-.471 1.192-.19a3.768 3.768 0 0 1 1.642 2.046c.032.093.046.195.182.197.032 0 .083.043.095.077.063.184.203.195.361.176.135-.015.25.01.282.123" mask="url(#f)"/>
            <path fill="#0FF" d="M108.873 30.577l.006-.147c.088 0 .174.003.26.003.143 0 .205.083.158.204-.118.303-.237.612-.394.897-.113.208-.278.186-.413-.028l.149-.049-.007-.06c-.085.01-.174.01-.257.033-.183.05-.272.002-.23-.175.075-.324.18-.642.286-.957.018-.051.114-.1.175-.1.04 0 .09.082.118.137.042.082.067.171.1.257l.049-.015" mask="url(#f)"/>
            <path fill="#ED1E79" d="M91.395 18.36c1.016-.072 2.215.85 1.868 2.297-.153.644-.535 1.164-1.073 1.563-.459.338-.946.639-1.409.971-.656.471-1.302.957-1.892 1.392-.722-.923-1.491-1.889-2.24-2.87-.428-.56-.674-1.19-.623-1.93.065-.898.66-1.638 1.535-1.838.896-.203 1.721.18 2.122.986.039.078.075.157.134.279.435-.513.93-.804 1.578-.85z" mask="url(#f)"/>
        </g>
    </g>
</svg>
