<svg xmlns="http://www.w3.org/2000/svg" xmlns:xlink="http://www.w3.org/1999/xlink" width="19" height="12" viewBox="0 0 19 12">
    <defs>
        <path id="a" d="M.038.023H16.76v7.582H.038z"/>
        <path id="c" d="M0 .033h6.67V9.81H0z"/>
    </defs>
    <g fill="none" fill-rule="evenodd">
        <g transform="translate(1.118)">
            <mask id="b" fill="#fff">
                <use xlink:href="#a"/>
            </mask>
            <path fill="#8192A7" d="M.05.086c.163-.02.325-.06.487-.06C4.05.022 7.56.023 11.072.023c1.704 0 3.409-.001 5.113.003.175 0 .35.037.576.062-.378.375-.711.705-1.046 1.035L12.64 4.15c-.988.973-1.97 1.95-2.963 2.917-.762.744-1.879.706-2.649-.056C5.523 5.52 4.01 4.039 2.5 2.552 1.726 1.793.953 1.03.18.27.133.223.084.182.037.139L.05.085" mask="url(#b)"/>
        </g>
        <path fill="#8192A7" d="M7.58 7.636a3.3 3.3 0 0 0 3.85.002l6.452 4.248v.053c-.188.02-.377.055-.565.057-.878.006-1.756.003-2.634.003-4.311 0-8.623 0-12.935-.003-.207 0-.414-.032-.62-.049a13.583 13.583 0 0 0-.01-.054L7.58 7.636"/>
        <g transform="translate(0 1.09)">
            <mask id="d" fill="#fff">
                <use xlink:href="#c"/>
            </mask>
            <path fill="#8192A7" d="M.094.033L6.67 5.518.168 9.809c-.062-.237-.16-.44-.162-.643C-.004 6.287 0 3.408.005.53c0-.152.053-.304.09-.496" mask="url(#d)"/>
        </g>
        <path fill="#8192A7" d="M18.79 10.91c-2.167-1.434-4.321-2.857-6.496-4.294L18.91 1.09c.034.228.085.409.085.59.005 2.8.002 5.602.006 8.402 0 .283-.04.55-.21.826"/>
    </g>
</svg>
