<svg xmlns="http://www.w3.org/2000/svg" xmlns:xlink="http://www.w3.org/1999/xlink" width="50" height="54" viewBox="0 0 50 54">
    <defs>
        <path id="a" d="M.166.33H29.98V30.7H.166z"/>
        <path id="c" d="M0 .064h20.748V22.59H0z"/>
    </defs>
    <g fill="none" fill-rule="evenodd">
        <path fill="#F00" d="M4.726 52.924s20.208-10.117 23.921-32.2L25.173 20s-.896 17.793-20.447 32.924"/>
        <path fill="#FFF" d="M4.68 52.544s23.94-9.715 29.118-32.022l-5.42-.683S26.292 38.641 4.68 52.544"/>
        <path fill="#F00" d="M4.361 52.951s26.514-9.864 32.514-30.805l-3.382-.162s-3 18.06-29.132 30.967"/>
        <g transform="scale(-1 1) rotate(-76 -8.492 47.646)">
            <mask id="b" fill="#fff">
                <use xlink:href="#a"/>
            </mask>
            <path fill="#243684" d="M8.778 10.08L10.38.33l8.611 5.067L28.75 3.44l-3.98 8.91 5.21 10.312-9.611-.514-7.64 8.552-3.298-10.346-9.265-4.295z" mask="url(#b)"/>
        </g>
        <path fill="#FFF" d="M44.94 17.1l1.065-.752-1.116-.714-.348-1.255-.823.98-1.537-.013.633 1.095-.563 1.387 1.427-.212 1.063.836zM38.94 17.099l1.065-.75-1.116-.715-.348-1.254-.823.98-1.538-.014.634 1.094-.563 1.388 1.427-.211 1.063.835zM38.94 11.1l1.065-.752-1.116-.714-.348-1.255-.823.98-1.537-.013.633 1.094-.563 1.388 1.427-.211 1.063.835zM32.94 11.099l1.065-.75-1.116-.716-.348-1.254-.823.98-1.538-.013.634 1.094-.563 1.388 1.428-.211 1.062.835zM27.94 8.099l1.065-.75-1.116-.715-.348-1.254-.823.98-1.538-.014.634 1.094-.563 1.388 1.427-.211 1.063.835zM40.94 6.099l1.065-.75-1.116-.715-.348-1.254-.823.98-1.538-.014.634 1.094-.563 1.388 1.427-.211 1.063.835zM31.94 18.099l1.065-.75-1.116-.715-.348-1.254-.823.98-1.538-.014.634 1.094-.563 1.388 1.427-.211 1.063.835zM26.94 20.1l1.065-.752-1.116-.714-.348-1.254-.823.98-1.538-.014.634 1.095-.563 1.387 1.427-.211 1.063.835zM37.94 25.099l1.065-.75-1.116-.715-.348-1.255-.823.98-1.537-.013.633 1.094-.563 1.388 1.427-.211 1.063.835z"/>
        <path fill="#F00" d="M4.627 52.807s15.472 2.153 26.73-8.527l-1.633-1.72s-7.905 9.404-25.097 10.247"/>
        <path fill="#FFF" d="M5.242 52.388s17.293 3.933 29.329-6.375l-2.731-2.481s-8.88 9.573-26.598 8.856"/>
        <path fill="#F00" d="M5.235 51.914s19.125 6.658 30.833-4.473l-1.88-1.808s-8.847 10.692-28.953 6.281"/>
        <g transform="scale(-1 1) rotate(-76 6.067 57.506)">
            <mask id="d" fill="#fff">
                <use xlink:href="#c"/>
            </mask>
            <path fill="#243684" d="M3.073 12.421L0 6.128l7.161-.767L12.104.064 13.43 6.89l7.318 3.704-5.874 3.813-.977 8.184-6.206-4.54-7.228 1.49z" mask="url(#d)"/>
        </g>
        <path fill="#FFF" d="M43.868 48.95l.941.002-.344-.933.334-.932-.898.247-.89-.683-.099.958-.921.614.92.495.262.985zM39.868 45.95l.941.002-.344-.933.334-.932-.898.247-.89-.683-.099.958-.921.614.92.495.262.985zM41.868 41.95l.94.002-.343-.933.334-.932-.898.247-.89-.683-.1.958-.92.614.92.495.262.985zM38.868 39.951h.941l-.344-.932.335-.931-.9.247-.888-.684-.1.958-.921.614.922.495.26.985zM36.868 36.95l.941.002-.344-.933.334-.932-.898.247-.89-.683-.099.958-.921.614.92.495.262.985zM44.868 40.95l.941.002-.344-.933.334-.932-.898.247-.889-.683-.1.958-.921.614.92.495.262.985zM35.868 43.951h.94l-.343-.932.334-.932-.898.248-.89-.684-.1.958-.92.614.92.495.262.985zM31.868 41.95l.941.002-.344-.933.334-.932-.898.247-.89-.683-.099.958-.921.614.92.495.262.985zM35.868 49.95l.94.002-.343-.933.335-.931-.9.246-.888-.683-.1.958-.921.614.92.495.262.985z"/>
        <path fill="#F00" d="M4.43 51.944S13.434 40.21 8.395 27.25l-2.364.702s5.342 9.785-1.6 23.99"/>
        <path fill="#FFF" d="M4.46 52.185s10.083-12.063 6.05-25.212l-3.168 1.228s4.642 10.418-2.882 23.984"/>
        <path fill="#F00" d="M4.49 51.427s11.532-12.834 8.015-25.702l-1.936.88s4.244 10.477-6.079 24.822"/>
        <path fill="#243684" d="M15.455 25.586l3.653-4.689-5.995-1.776-3.36-5.15-2.247 5.407-6.86 1.88 4.399 4.077-.5 6.893 6.045-2.746 5.934 2.382z"/>
        <path fill="#FFF" d="M15.65 21.726l.272-.586-.679-.057-.482-.478-.106.633-.68.356.565.34.116.753.573-.432.688.123zM12.65 23.726l.272-.586-.68-.056-.482-.48-.105.634-.68.356.565.34.116.753.573-.432.688.123zM11.65 20.726l.272-.587-.679-.056-.482-.478-.106.632-.68.357.565.34.116.753.573-.432.688.123zM7.65 21.726l.272-.587-.68-.056-.482-.478-.105.632-.681.357.566.34.116.753.573-.432.688.123zM3.65 21.726l.272-.587-.68-.056-.482-.478-.105.632-.68.357.565.34.116.753.573-.432.688.123zM10.65 16.726l.272-.587-.679-.056-.482-.478-.106.632-.681.357.566.34.116.753.573-.432.688.122zM9.65 25.726l.272-.586-.679-.057-.482-.478-.106.632-.68.357.565.34.116.753.574-.432.687.122zM6.65 28.726l.272-.586-.68-.057-.482-.478-.105.633-.68.356.565.34.116.753.573-.432.688.123zM14.65 27.726l.272-.587-.679-.056-.482-.478-.106.632-.681.357.566.34.116.753.573-.432.688.123z"/>
    </g>
</svg>
