<svg xmlns="http://www.w3.org/2000/svg" viewBox="0 0 459.65 143.5"><defs><style>.cls-1{fill:#5e5b78;}.cls-12,.cls-2,.cls-5{fill:none;}.cls-2{stroke:#887fff;stroke-width:4px;opacity:0.5;}.cls-2,.cls-5{stroke-linecap:round;isolation:isolate;}.cls-3,.cls-7{fill:#bebaff;}.cls-4{fill:#aba3ff;}.cls-5{stroke:#fff;stroke-width:2px;opacity:0.9;}.cls-6{fill:#fff;}.cls-10,.cls-12,.cls-6,.cls-8{stroke:#5e5c78;}.cls-10,.cls-12,.cls-6{stroke-width:2.71px;}.cls-10,.cls-11,.cls-13,.cls-6,.cls-7{fill-rule:evenodd;}.cls-8{fill:#9592c2;stroke-width:1.81px;}.cls-11,.cls-9{fill:#f5f4ff;}.cls-10{fill:#dedcff;}.cls-13{fill-opacity:0.2;}</style></defs><title>Asset 6</title><g id="Layer_2" data-name="Layer 2"><g id="Layer_1-2" data-name="Layer 1"><path class="cls-1" d="M268.86,106s90.51,22.84,115.88-.84a101.29,101.29,0,0,1,24-16.5,38.11,38.11,0,0,1,49,13.75h0a11.83,11.83,0,0,1-7.48,17.94c-13.42,2.86-26.17,13.25-38.18,19.27-20.14,10.1-142-2.57-142-2.57l-132.31-.6-64.28.85s-67.67.84-72.74-7.61c-3.29-5.49,5.14-17.36,11.48-25a16.87,16.87,0,0,1,15.13-6c21.94,2.79,77.25,9.7,80,9C110.69,106.82,268.86,106,268.86,106Z"/><line class="cls-2" x1="140.5" y1="57.27" x2="104.28" y2="57.27"/><line class="cls-2" x1="126.88" y1="73.75" x2="87.8" y2="73.75"/><line class="cls-2" x1="170.78" y1="91.18" x2="109.27" y2="91.18"/><polygon class="cls-1" points="26.77 64.61 26.77 110.87 32.01 110.87 31.47 67.39 26.77 64.61"/><path class="cls-3" d="M28.75,0V76.52S6.42,66.76,6.42,38,28.75,0,28.75,0Z"/><path class="cls-4" d="M28.34.13V76.65S50.67,66.9,50.67,38.1,28.34.13,28.34.13Z"/><polygon class="cls-1" points="388.38 66.9 388.38 113.16 393.62 113.16 393.08 69.68 388.38 66.9"/><path class="cls-3" d="M390.36,2.29V78.81S368,69.05,368,40.26,390.36,2.29,390.36,2.29Z"/><path class="cls-4" d="M389.94,2.42V78.94s22.34-9.75,22.34-38.55S389.94,2.42,389.94,2.42Z"/><polygon class="cls-1" points="368.12 84.12 368.12 114.23 371.67 114.23 371.3 85.93 368.12 84.12"/><path class="cls-3" d="M369.46,42.07v49.8s-15.1-6.35-15.1-25.09S369.46,42.07,369.46,42.07Z"/><path class="cls-4" d="M369.18,42.15V92s15.1-6.35,15.1-25.1S369.18,42.15,369.18,42.15Z"/><polygon class="cls-1" points="45.93 73.16 45.93 103.27 49.48 103.27 49.12 74.97 45.93 73.16"/><path class="cls-3" d="M47.27,31.11v49.8S32.18,74.56,32.18,55.82,47.27,31.11,47.27,31.11Z"/><path class="cls-4" d="M47,31.19V81s15.1-6.35,15.1-25.09S47,31.19,47,31.19Z"/><line class="cls-5" x1="238.23" y1="121.17" x2="216.35" y2="121.17"/><line class="cls-5" x1="311.96" y1="127.02" x2="290.15" y2="125.36"/><line class="cls-5" x1="165.9" y1="121.99" x2="144.03" y2="121.99"/><line class="cls-5" x1="106.2" y1="121.56" x2="84.34" y2="120.56"/><line class="cls-5" x1="46.73" y1="117.66" x2="24.93" y2="115.78"/><line class="cls-5" x1="372.65" y1="128.83" x2="350.78" y2="129.69"/><line class="cls-5" x1="421.79" y1="108.74" x2="402.49" y2="119.04"/><g id="Version-2"><g id="v3.0---Meal-Kit"><g id="Truck"><path id="Rectangle-5" class="cls-6" d="M244.19,105V51.21a14,14,0,0,0-14-14h-77a.46.46,0,0,0-.46.45v66.91a.47.47,0,0,0,.46.46Z"/><path id="Combined-Shape" class="cls-6" d="M244.19,49V105h60.4a.46.46,0,0,0,.45-.46v-27a.46.46,0,0,0-.36-.45l-18.62-4-6.25-13.31A19,19,0,0,0,262.62,49Z"/><rect id="Rectangle-6" class="cls-3" x="154.11" y="92.81" width="88.72" height="10.85"/><polygon class="cls-7" points="245.55 92.81 303.68 92.81 303.68 103.66 245.55 103.66 245.55 92.81"/><ellipse id="Oval-3" class="cls-8" cx="182.63" cy="106.82" rx="14.03" ry="14.02"/><ellipse id="Oval-4" class="cls-9" cx="182.63" cy="107.28" rx="6.79" ry="7.23"/><ellipse class="cls-8" cx="276.97" cy="106.82" rx="14.03" ry="14.02"/><ellipse class="cls-9" cx="276.97" cy="106.82" rx="6.79" ry="6.78"/><path id="Rectangle-7" class="cls-10" d="M285.94,73.37l-7.87-16.28H261.94a.46.46,0,0,0-.42.48L262.59,73a.46.46,0,0,0,.45.42Z"/><polygon class="cls-11" points="271.81 56.64 278.97 56.64 286.29 73.82 279.18 73.82 271.81 56.64"/><path class="cls-12" d="M285.94,73.37l-7.87-16.28H261.94a.46.46,0,0,0-.42.48L262.59,73a.46.46,0,0,0,.45.42Z"/><polygon id="Rectangle-2" class="cls-13" points="245.55 50.31 250.08 50.31 250.08 103.66 245.55 103.66 245.55 50.31"/></g></g></g></g></g></svg>