<svg id="Layer_2" xmlns="http://www.w3.org/2000/svg" viewBox="0 0 91.56 91.56"><defs><style>.cls-4{fill:#fafaf9}.cls-5{fill:#bb3530}</style></defs><g id="Layer_1-2"><circle class="cls-4" cx="45.78" cy="45.78" r="45.78"/><path class="cls-4" d="M25.23 15.14c.42 3.09 1.46 5.55 5.14 5.79-1.51.16-2.83.58-3.75 1.82-.88 1.18-1.16 2.55-1.29 3.98h-.11l-.12-.86c-.24-1.54-.74-2.94-2.02-3.94-.76-.59-1.65-.8-2.59-.86-.09 0-.18-.08-.27-.12.08-.05.16-.15.24-.15 2.83-.1 4.04-2.04 4.49-3.99.11-.46.16-.94.24-1.41.01-.09.04-.17.06-.26Zm-5.06 51.94c.25 1.82.86 3.27 3.03 3.41-.89.09-1.67.34-2.21 1.07-.52.69-.69 1.5-.76 2.34h-.06c-.02-.17-.04-.34-.07-.51-.14-.91-.44-1.73-1.19-2.32-.45-.35-.97-.47-1.53-.51-.05 0-.11-.05-.16-.07.05-.03.09-.09.14-.09 1.67-.06 2.38-1.2 2.64-2.35.06-.27.09-.55.14-.83 0-.05.02-.1.03-.15Zm47.26-44.95c.22 1.63.77 2.93 2.72 3.06-.8.09-1.5.31-1.98.96-.46.62-.62 1.35-.68 2.1h-.06l-.06-.45c-.13-.81-.39-1.56-1.07-2.08-.4-.31-.87-.42-1.37-.46-.05 0-.1-.04-.14-.06.04-.03.08-.08.13-.08 1.5-.05 2.14-1.08 2.37-2.11.06-.24.08-.5.13-.75 0-.05.02-.09.03-.14Zm3.91 40.61c.35 2.61 1.24 4.7 4.36 4.91-1.28.14-2.4.49-3.18 1.54-.74 1-.99 2.16-1.09 3.37h-.09c-.03-.24-.06-.49-.1-.73-.2-1.3-.63-2.49-1.71-3.34-.64-.5-1.4-.68-2.2-.73-.08 0-.15-.07-.23-.1.07-.04.13-.13.2-.13 2.4-.09 3.42-1.73 3.8-3.38.09-.39.13-.8.2-1.19.01-.07.03-.15.05-.22Zm-16.76 3.93c-1.29.63-2.65 1.08-4.06 1.36-8.23 1.61-15.26-.61-20.96-6.77-2.92-3.16-4.68-6.95-5.24-11.23-1.01-7.67 1.36-14.17 7.05-19.38 3.31-3.03 7.27-4.82 11.74-5.3 7.48-.82 13.81 1.58 18.87 7.13 3.02 3.32 4.76 7.27 5.31 11.74.27 2.14.2 4.27-.15 6.39 0 .05-.03.11-.05.16-.38-.34-.76-.68-1.13-1.03-.83-.8-1.66-1.61-2.49-2.42-1.16-1.14-2.32-2.29-3.48-3.44-1.37-1.35-2.76-2.69-4.14-4.03-.09-.09-.22-.14-.33-.2l-.12-.17c-.07-.09-.14-.17-.22-.26-1.36-1.6-3.05-2.33-5.14-1.89-1.55.32-2.71 1.27-3.69 2.47-.11.14-.24.26-.36.39l-.92-.55c-.54-.48-1.03-1.03-1.62-1.44-2.34-1.62-5.27-1.23-7.02.96-1.57 1.97-1.94 4.19-1.07 6.57.61 1.67 1.65 3.08 2.84 4.37.85.93 1.77 1.79 2.66 2.68l.12.11.14.13.08.07.08.07.08.06c.08.12.14.27.25.37 3.41 3.42 6.82 6.83 10.23 10.24.75.75 1.48 1.52 2.22 2.28.18.18.35.37.53.56Z"/><path class="cls-4" d="M55.52 39.64c.11.07.24.12.33.2 1.38 1.34 2.76 2.68 4.14 4.03 1.16 1.14 2.32 2.29 3.48 3.44.83.81 1.65 1.62 2.49 2.42.37.35.75.69 1.13 1.03-.18 1.31-.56 2.57-1.04 3.8-2.13 5.45-5.86 9.44-11.13 11.97-.11.05-.23.09-.35.13-.18-.19-.35-.38-.53-.56-.74-.76-1.47-1.53-2.22-2.28-3.41-3.42-6.82-6.83-10.23-10.24-.1-.1-.17-.25-.25-.38l.24.18c1.3.99 2.61 1.98 3.91 2.97.2.15.33.14.53 0 1.9-1.3 3.71-2.72 5.39-4.29 1.6-1.5 3.07-3.1 4.16-5.03.79-1.41 1.23-2.9.99-4.54-.15-1.03-.51-1.97-1.04-2.86Z"/><path class="cls-4" d="M55.52 39.64c.53.89.89 1.83 1.04 2.86.24 1.64-.19 3.13-.99 4.54-1.08 1.93-2.56 3.53-4.16 5.03a45.488 45.488 0 0 1-5.39 4.29c-.2.14-.34.15-.53 0-1.3-1-2.6-1.98-3.91-2.97l-.24-.18-.08-.07-.08-.06-.08-.06-.14-.13-.12-.11c-.89-.89-1.81-1.75-2.66-2.68-1.19-1.29-2.24-2.7-2.84-4.37-.86-2.38-.49-4.6 1.07-6.57 1.74-2.19 4.68-2.58 7.02-.96.59.41 1.09.96 1.62 1.44l.73.98.2-.43c.12-.13.25-.25.36-.39.98-1.2 2.14-2.15 3.69-2.47 2.09-.44 3.79.29 5.14 1.89.07.09.14.17.22.26l.12.16Z"/><path class="cls-4" d="m45.99 40.18-.2.43-.73-.98.92.55Zm9.53-.54-.12-.16.12.16ZM40.99 52.88l.14.13-.14-.13Zm-.13-.11.12.11-.12-.11Zm.27.23.08.07-.08-.07Zm.07.07.08.07-.08-.07Zm.07.06.08.07-.08-.07Z"/><circle cx="45.78" cy="45.78" r="45.78" style="fill:#f5eece"/><path d="M25.23 15.14c.42 3.09 1.46 5.55 5.14 5.79-1.51.16-2.83.58-3.75 1.82-.88 1.18-1.16 2.55-1.29 3.98h-.11l-.12-.86c-.24-1.54-.74-2.94-2.02-3.94-.76-.59-1.65-.8-2.59-.86-.09 0-.18-.08-.27-.12.08-.05.16-.15.24-.15 2.83-.1 4.04-2.04 4.49-3.99.11-.46.16-.94.24-1.41.01-.09.04-.17.06-.26Zm-5.06 51.94c.25 1.82.86 3.27 3.03 3.41-.89.09-1.67.34-2.21 1.07-.52.69-.69 1.5-.76 2.34h-.06c-.02-.17-.04-.34-.07-.51-.14-.91-.44-1.73-1.19-2.32-.45-.35-.97-.47-1.53-.51-.05 0-.11-.05-.16-.07.05-.03.09-.09.14-.09 1.67-.06 2.38-1.2 2.64-2.35.06-.27.09-.55.14-.83 0-.05.02-.1.03-.15Zm47.26-44.95c.22 1.63.77 2.93 2.72 3.06-.8.09-1.5.31-1.98.96-.46.62-.62 1.35-.68 2.1h-.06l-.06-.45c-.13-.81-.39-1.56-1.07-2.08-.4-.31-.87-.42-1.37-.46-.05 0-.1-.04-.14-.06.04-.03.08-.08.13-.08 1.5-.05 2.14-1.08 2.37-2.11.06-.24.08-.5.13-.75 0-.05.02-.09.03-.14Zm3.91 40.61c.35 2.61 1.24 4.7 4.36 4.91-1.28.14-2.4.49-3.18 1.54-.74 1-.99 2.16-1.09 3.37h-.09c-.03-.24-.06-.49-.1-.73-.2-1.3-.63-2.49-1.71-3.34-.64-.5-1.4-.68-2.2-.73-.08 0-.15-.07-.23-.1.07-.04.13-.13.2-.13 2.4-.09 3.42-1.73 3.8-3.38.09-.39.13-.8.2-1.19.01-.07.03-.15.05-.22Z" style="fill:#fff"/><path d="M54.58 66.67c-1.29.63-2.65 1.08-4.06 1.36-8.23 1.61-15.26-.61-20.96-6.77-2.92-3.16-4.68-6.95-5.24-11.23-1.01-7.67 1.36-14.17 7.05-19.38 3.31-3.03 7.27-4.82 11.74-5.3 7.48-.82 13.81 1.58 18.87 7.13 3.02 3.32 4.76 7.27 5.31 11.74.27 2.14.2 4.27-.15 6.39 0 .05-.03.11-.05.16-.38-.34-.76-.68-1.13-1.03-.83-.8-1.66-1.61-2.49-2.42-1.16-1.14-2.32-2.29-3.48-3.44-1.37-1.35-2.76-2.69-4.14-4.03-.09-.09-.22-.14-.33-.2l-.12-.17c-.07-.09-.14-.17-.22-.26-1.36-1.6-3.05-2.33-5.14-1.89-1.55.32-2.71 1.27-3.69 2.47-.11.14-.24.26-.36.39l-.92-.55c-.54-.48-1.03-1.03-1.62-1.44-2.34-1.62-5.27-1.23-7.02.96-1.57 1.97-1.94 4.19-1.07 6.57.61 1.67 1.65 3.08 2.84 4.37.85.93 1.77 1.79 2.66 2.68l.12.11.14.13.08.07.08.07.08.06c.08.12.14.27.25.37 3.41 3.42 6.82 6.83 10.23 10.24.75.75 1.48 1.52 2.22 2.28.18.18.35.37.53.56Z" style="fill:#da3a33"/><path class="cls-5" d="M55.52 39.64c.11.07.24.12.33.2 1.38 1.34 2.76 2.68 4.14 4.03 1.16 1.14 2.32 2.29 3.48 3.44.83.81 1.65 1.62 2.49 2.42.37.35.75.69 1.13 1.03-.18 1.31-.56 2.57-1.04 3.8-2.13 5.45-5.86 9.44-11.13 11.97-.11.05-.23.09-.35.13-.18-.19-.35-.38-.53-.56-.74-.76-1.47-1.53-2.22-2.28-3.41-3.42-6.82-6.83-10.23-10.24-.1-.1-.17-.25-.25-.38l.24.18c1.3.99 2.61 1.98 3.91 2.97.2.15.33.14.53 0 1.9-1.3 3.71-2.72 5.39-4.29 1.6-1.5 3.07-3.1 4.16-5.03.79-1.41 1.23-2.9.99-4.54-.15-1.03-.51-1.97-1.04-2.86Z"/><path d="M55.52 39.64c.53.89.89 1.83 1.04 2.86.24 1.64-.19 3.13-.99 4.54-1.08 1.93-2.56 3.53-4.16 5.03a45.488 45.488 0 0 1-5.39 4.29c-.2.14-.34.15-.53 0-1.3-1-2.6-1.98-3.91-2.97l-.24-.18-.08-.07-.08-.06-.08-.06-.14-.13-.12-.11c-.89-.89-1.81-1.75-2.66-2.68-1.19-1.29-2.24-2.7-2.84-4.37-.86-2.38-.49-4.6 1.07-6.57 1.74-2.19 4.68-2.58 7.02-.96.59.41 1.09.96 1.62 1.44l.73.98.2-.43c.12-.13.25-.25.36-.39.98-1.2 2.14-2.15 3.69-2.47 2.09-.44 3.79.29 5.14 1.89.07.09.14.17.22.26l.12.16Z" style="fill:#fefefe"/><path d="m45.99 40.18-.2.43-.73-.98.92.55Z" style="fill:#bb3d36"/><path class="cls-5" d="m55.52 39.64-.12-.16.12.16ZM40.99 52.88l.14.13-.14-.13Zm-.13-.11.12.11-.12-.11Zm.27.23.08.07-.08-.07Zm.07.07.08.07-.08-.07Zm.07.06.08.07-.08-.07Z"/></g></svg>
