<svg id="Layer_2" xmlns="http://www.w3.org/2000/svg" viewBox="0 0 91.56 91.56"><defs><style>.cls-2{fill:#f9f9fa}.cls-4{fill:#fffbf9}.cls-5{fill:#fafaf9}.cls-7{fill:#e6a824}</style></defs><g id="Layer_1-2"><circle class="cls-5" cx="45.78" cy="45.78" r="45.78"/><circle class="cls-5" cx="45.78" cy="45.78" r="45.78"/><rect class="cls-5" x="57.8" y="72.85" width="1.02" height="4.16" rx=".51" ry=".51" transform="rotate(-45 58.315 74.925)"/><rect class="cls-5" x="56.23" y="74.42" width="4.16" height="1.02" rx=".51" ry=".51" transform="rotate(-45 58.315 74.925)"/><rect class="cls-5" x="56.23" y="74.42" width="4.16" height="1.02" rx=".51" ry=".51" transform="rotate(-45 58.315 74.925)"/><rect class="cls-5" x="56.23" y="74.42" width="4.16" height="1.02" rx=".51" ry=".51" transform="rotate(-45 58.315 74.925)"/><rect class="cls-5" x="57.8" y="72.85" width="1.02" height="4.16" rx=".51" ry=".51" transform="rotate(-45 58.315 74.925)"/><rect class="cls-5" x="56.23" y="74.42" width="4.16" height="1.02" rx=".51" ry=".51" transform="rotate(-45 58.315 74.925)"/><rect class="cls-5" x="56.23" y="74.42" width="4.16" height="1.02" rx=".51" ry=".51" transform="rotate(-45 58.315 74.925)"/><rect class="cls-5" x="56.23" y="74.42" width="4.16" height="1.02" rx=".51" ry=".51" transform="rotate(-45 58.315 74.925)"/><rect class="cls-5" x="57.8" y="72.85" width="1.02" height="4.16" rx=".51" ry=".51" transform="rotate(-45 58.315 74.925)"/><rect class="cls-5" x="56.23" y="74.42" width="4.16" height="1.02" rx=".51" ry=".51" transform="rotate(-45 58.315 74.925)"/><rect class="cls-5" x="56.23" y="74.42" width="4.16" height="1.02" rx=".51" ry=".51" transform="rotate(-45 58.315 74.925)"/><rect class="cls-5" x="56.23" y="74.42" width="4.16" height="1.02" rx=".51" ry=".51" transform="rotate(-45 58.315 74.925)"/><rect class="cls-5" x="22.25" y="16.16" width="1.02" height="4.16" rx=".51" ry=".51" transform="rotate(-45 22.765 18.24)"/><rect class="cls-5" x="20.68" y="17.73" width="4.16" height="1.02" rx=".51" ry=".51" transform="rotate(-45 22.765 18.24)"/><rect class="cls-5" x="20.68" y="17.73" width="4.16" height="1.02" rx=".51" ry=".51" transform="rotate(-45 22.765 18.24)"/><rect class="cls-5" x="20.68" y="17.73" width="4.16" height="1.02" rx=".51" ry=".51" transform="rotate(-45 22.765 18.24)"/><rect class="cls-5" x="22.25" y="16.16" width="1.02" height="4.16" rx=".51" ry=".51" transform="rotate(-45 22.765 18.24)"/><rect class="cls-5" x="20.68" y="17.73" width="4.16" height="1.02" rx=".51" ry=".51" transform="rotate(-45 22.765 18.24)"/><rect class="cls-5" x="20.68" y="17.73" width="4.16" height="1.02" rx=".51" ry=".51" transform="rotate(-45 22.765 18.24)"/><rect class="cls-5" x="20.68" y="17.73" width="4.16" height="1.02" rx=".51" ry=".51" transform="rotate(-45 22.765 18.24)"/><rect class="cls-5" x="22.25" y="16.16" width="1.02" height="4.16" rx=".51" ry=".51" transform="rotate(-45 22.765 18.24)"/><rect class="cls-5" x="20.68" y="17.73" width="4.16" height="1.02" rx=".51" ry=".51" transform="rotate(-45 22.765 18.24)"/><rect class="cls-5" x="20.68" y="17.73" width="4.16" height="1.02" rx=".51" ry=".51" transform="rotate(-45 22.765 18.24)"/><rect class="cls-5" x="20.68" y="17.73" width="4.16" height="1.02" rx=".51" ry=".51" transform="rotate(-45 22.765 18.24)"/><rect class="cls-5" x="74.67" y="30.5" width="1.37" height="5.59" rx=".51" ry=".51" transform="rotate(-45 75.361 33.294)"/><rect class="cls-5" x="72.56" y="32.62" width="5.59" height="1.37" rx=".51" ry=".51" transform="rotate(-45 75.361 33.294)"/><rect class="cls-5" x="72.56" y="32.62" width="5.59" height="1.37" rx=".51" ry=".51" transform="rotate(-45 75.361 33.294)"/><rect class="cls-5" x="72.56" y="32.62" width="5.59" height="1.37" rx=".51" ry=".51" transform="rotate(-45 75.361 33.294)"/><rect class="cls-5" x="74.67" y="30.5" width="1.37" height="5.59" rx=".51" ry=".51" transform="rotate(-45 75.361 33.294)"/><rect class="cls-5" x="72.56" y="32.62" width="5.59" height="1.37" rx=".51" ry=".51" transform="rotate(-45 75.361 33.294)"/><rect class="cls-5" x="72.56" y="32.62" width="5.59" height="1.37" rx=".51" ry=".51" transform="rotate(-45 75.361 33.294)"/><rect class="cls-5" x="72.56" y="32.62" width="5.59" height="1.37" rx=".51" ry=".51" transform="rotate(-45 75.361 33.294)"/><rect class="cls-5" x="74.67" y="30.5" width="1.37" height="5.59" rx=".51" ry=".51" transform="rotate(-45 75.361 33.294)"/><rect class="cls-5" x="72.56" y="32.62" width="5.59" height="1.37" rx=".51" ry=".51" transform="rotate(-45 75.361 33.294)"/><rect class="cls-5" x="72.56" y="32.62" width="5.59" height="1.37" rx=".51" ry=".51" transform="rotate(-45 75.361 33.294)"/><rect class="cls-5" x="72.56" y="32.62" width="5.59" height="1.37" rx=".51" ry=".51" transform="rotate(-45 75.361 33.294)"/><rect class="cls-5" x="19.1" y="63.13" width="1.74" height="7.1" rx=".51" ry=".51" transform="rotate(-45 19.957 66.674)"/><rect class="cls-5" x="16.41" y="65.81" width="7.1" height="1.74" rx=".51" ry=".51" transform="rotate(-45 19.957 66.674)"/><rect class="cls-5" x="16.41" y="65.81" width="7.1" height="1.74" rx=".51" ry=".51" transform="rotate(-45 19.957 66.674)"/><rect class="cls-5" x="16.41" y="65.81" width="7.1" height="1.74" rx=".51" ry=".51" transform="rotate(-45 19.957 66.674)"/><rect class="cls-5" x="19.1" y="63.13" width="1.74" height="7.1" rx=".51" ry=".51" transform="rotate(-45 19.957 66.674)"/><rect class="cls-5" x="16.41" y="65.81" width="7.1" height="1.74" rx=".51" ry=".51" transform="rotate(-45 19.957 66.674)"/><rect class="cls-5" x="16.41" y="65.81" width="7.1" height="1.74" rx=".51" ry=".51" transform="rotate(-45 19.957 66.674)"/><rect class="cls-5" x="16.41" y="65.81" width="7.1" height="1.74" rx=".51" ry=".51" transform="rotate(-45 19.957 66.674)"/><rect class="cls-5" x="19.1" y="63.13" width="1.74" height="7.1" rx=".51" ry=".51" transform="rotate(-45 19.957 66.674)"/><rect class="cls-5" x="16.41" y="65.81" width="7.1" height="1.74" rx=".51" ry=".51" transform="rotate(-45 19.957 66.674)"/><rect class="cls-5" x="16.41" y="65.81" width="7.1" height="1.74" rx=".51" ry=".51" transform="rotate(-45 19.957 66.674)"/><rect class="cls-5" x="16.41" y="65.81" width="7.1" height="1.74" rx=".51" ry=".51" transform="rotate(-45 19.957 66.674)"/><g id="_xuUeO"><path class="cls-5" d="M30.36 41.42c0-5.71.02-11.42.02-17.13 0-.94.12-1.79 1.15-2.17.53.01 1.05.03 1.58.03 7.23 0 14.45.01 21.68.02v.03c-.05 1.9-.2 3.81-.13 5.71.05 1.34.91 2.01 2.28 2.04 1.34.03 2.69.07 4.03-.01 1.16-.07 1.45.4 1.44 1.48-.04 3.66 0 7.32.02 10.98.15.95-.5 1.36-1.18 1.78-4.65 2.84-9.29 5.7-13.95 8.53-.4.24-.89.34-1.34.51l-.11-.02c-.15-.13-.28-.29-.45-.4-4.56-2.81-9.13-5.61-13.69-8.42-.47-.29-.87-.7-1.31-1.05l-.04-1.9Zm16.26-11.45c-4.14.21-7.55 3.12-8.14 7.12-.58 3.95 1.94 7.84 5.79 8.93 3.89 1.1 8-.81 9.62-4.52 1.02-2.34.96-4.68-.24-6.94-.12-.23-.54-.3-.82-.45-.01.29-.08.59-.02.86.07.31.26.6.37.9 1.06 2.94.07 6.18-2.44 8.06a7.07 7.07 0 0 1-8.33.13 7.116 7.116 0 0 1-2.67-8.01c1.34-4.12 5.68-5.94 9.93-4.18.28.12.64.03.97.04-.18-.3-.3-.77-.56-.87-1.13-.42-2.3-.73-3.45-1.07Zm-.77 8.17-2.61 2.82c1.85.14 2.21-1.41 3.43-1.98.58.63 1.2 1.33 1.86 1.97.15.15.49.11.74.16-.03-.28.04-.65-.11-.82-.63-.68-1.32-1.3-2.14-2.08.72-.64 1.33-1.11 1.85-1.68.25-.28.32-.73.47-1.1-.37.13-.82.17-1.08.41-.59.54-1.08 1.19-1.77 1.97-.8-.89-1.37-1.59-2-2.21-.17-.17-.54-.14-.82-.2.06.28.02.66.18.84.61.65 1.29 1.23 2 1.89Z"/><path class="cls-5" d="M30.4 43.32c.43.35.83.76 1.31 1.05 4.56 2.82 9.13 5.61 13.69 8.42.17.1.3.26.45.39-.34.32-.63.73-1.03.95-5.04 2.78-10.09 5.53-15.13 8.3-.62.34-1.17.79-1.76 1.19l-.48-.07c-.14-.58-.4-1.16-.4-1.74-.03-6.12-.02-12.24 0-18.36 0-.5.21-1.01.32-1.51.43.19.86.39 1.29.58.58.26 1.17.51 1.75.77Zm32.02-.92c-.01-3.66-.06-7.32-.02-10.98.01-1.09-.28-1.56-1.44-1.48-1.34.09-2.68.04-4.03.01-1.37-.03-2.23-.7-2.28-2.04-.07-1.9.08-3.81.14-5.71 2.62 2.59 5.24 5.19 7.86 7.78 0 3.82 0 7.63-.01 11.45l-.04.91c-.06.03-.12.05-.18.06Z"/><path class="cls-5" d="M30.4 43.32c-.58-.26-1.17-.51-1.75-.77-.43-.19-.86-.39-1.29-.58 1-.18 2-.37 2.99-.55l.04 1.9Zm-2.95 20.25.48.07.02.29h-.07c-.15-.14-.28-.22-.43-.36ZM62.42 42.4c.06-.01.13-.03.18-.06.04.61.27.9.88.51.46-.3.9-.62 1.35-.93.23.29.47.57.7.86 0 6.6 0 13.21-.01 19.81-.22.3-.44.6-.67.91-1.48-.83-2.96-1.68-4.45-2.49-4.81-2.61-9.63-5.2-14.45-7.79.45-.16.94-.26 1.34-.51 4.66-2.83 9.3-5.69 13.95-8.53.68-.41 1.33-.82 1.18-1.78Z"/><path class="cls-5" d="M45.95 53.21c4.82 2.6 9.64 5.19 14.45 7.79 1.49.81 2.97 1.66 4.45 2.49-.56.14-1.13.4-1.69.4-11.74.03-23.48.03-35.22.03l-.02-.29c.58-.4 1.14-.85 1.76-1.19 5.04-2.78 10.1-5.52 15.13-8.3.4-.22.69-.63 1.03-.95l.11.02Zm18.88-11.3c-.45.31-.89.63-1.35.93-.61.4-.84.1-.88-.51l.04-.91c.73.16 1.46.33 2.19.49ZM46.62 29.97c1.15.35 2.32.66 3.45 1.07.26.1.38.57.56.87-.32 0-.69.08-.97-.04-4.24-1.76-8.58.06-9.93 4.18-.96 2.95.12 6.21 2.67 8.01a7.07 7.07 0 0 0 8.33-.13c2.51-1.88 3.5-5.12 2.44-8.06-.11-.31-.3-.59-.37-.9-.06-.27 0-.57.02-.86.28.15.7.22.82.45 1.2 2.26 1.26 4.6.24 6.94-1.62 3.72-5.72 5.63-9.62 4.52-3.85-1.09-6.37-4.98-5.79-8.93.59-4 3.99-6.91 8.14-7.12Z"/><path class="cls-5" d="M45.85 38.14c-.7-.65-1.39-1.24-2-1.89-.17-.18-.13-.55-.18-.84.28.06.65.03.82.2.64.63 1.21 1.32 2 2.21.69-.78 1.18-1.43 1.77-1.97.26-.24.72-.28 1.08-.41-.15.37-.22.82-.47 1.1-.52.57-1.13 1.04-1.85 1.68.82.78 1.52 1.4 2.14 2.08.15.17.08.54.11.82-.25-.05-.59 0-.74-.16-.67-.64-1.28-1.34-1.86-1.97-1.22.57-1.58 2.12-3.43 1.98l2.61-2.82Z"/></g><path class="cls-5" d="M46.16 29.76c3.4.01 6.08 2.71 6.03 6.15-.05 3.34-2.79 5.94-6.09 5.92a6.017 6.017 0 0 1-5.98-6.13c.05-3.46 2.89-5.96 6.04-5.94Zm3.13 4.91-4.25 4.24c1.02.46 2.53.22 3.52-.79.96-.98 1.19-2.48.73-3.45Zm-6.26 2.25 4.27-4.26c-.97-.48-2.49-.19-3.4.66-1.01.96-1.37 2.43-.87 3.6Z"/><circle cx="45.78" cy="45.78" r="45.78" style="fill:#fbe0dd"/><rect class="cls-2" x="57.8" y="72.85" width="1.02" height="4.16" rx=".51" ry=".51" transform="rotate(-45 58.315 74.925)"/><rect class="cls-2" x="56.23" y="74.42" width="4.16" height="1.02" rx=".51" ry=".51" transform="rotate(-45 58.315 74.925)"/><rect class="cls-2" x="22.25" y="16.16" width="1.02" height="4.16" rx=".51" ry=".51" transform="rotate(-45 22.765 18.24)"/><rect class="cls-2" x="20.68" y="17.73" width="4.16" height="1.02" rx=".51" ry=".51" transform="rotate(-45 22.765 18.24)"/><rect class="cls-2" x="74.67" y="30.5" width="1.37" height="5.59" rx=".51" ry=".51" transform="rotate(-45 75.361 33.294)"/><rect class="cls-2" x="72.56" y="32.62" width="5.59" height="1.37" rx=".51" ry=".51" transform="rotate(-45 75.361 33.294)"/><rect class="cls-2" x="19.1" y="63.13" width="1.74" height="7.1" rx=".51" ry=".51" transform="rotate(-45 19.957 66.674)"/><rect class="cls-2" x="16.41" y="65.81" width="7.1" height="1.74" rx=".51" ry=".51" transform="rotate(-45 19.957 66.674)"/><g id="_xuUeO-2"><path class="cls-4" d="M30.36 41.42c0-5.71.02-11.42.02-17.13 0-.94.12-1.79 1.15-2.17.53.01 1.05.03 1.58.03 7.23 0 14.45.01 21.68.02v.03c-.05 1.9-.2 3.81-.13 5.71.05 1.34.91 2.01 2.28 2.04 1.34.03 2.69.07 4.03-.01 1.16-.07 1.45.4 1.44 1.48-.04 3.66 0 7.32.02 10.98.15.95-.5 1.36-1.18 1.78-4.65 2.84-9.29 5.7-13.95 8.53-.4.24-.89.34-1.34.51l-.11-.02c-.15-.13-.28-.29-.45-.4-4.56-2.81-9.13-5.61-13.69-8.42-.47-.29-.87-.7-1.31-1.05l-.04-1.9Zm16.26-11.45c-4.14.21-7.55 3.12-8.14 7.12-.58 3.95 1.94 7.84 5.79 8.93 3.89 1.1 8-.81 9.62-4.52 1.02-2.34.96-4.68-.24-6.94-.12-.23-.54-.3-.82-.45-.01.29-.08.59-.02.86.07.31.26.6.37.9 1.06 2.94.07 6.18-2.44 8.06a7.07 7.07 0 0 1-8.33.13 7.116 7.116 0 0 1-2.67-8.01c1.34-4.12 5.68-5.94 9.93-4.18.28.12.64.03.97.04-.18-.3-.3-.77-.56-.87-1.13-.42-2.3-.73-3.45-1.07Zm-.77 8.17-2.61 2.82c1.85.14 2.21-1.41 3.43-1.98.58.63 1.2 1.33 1.86 1.97.15.15.49.11.74.16-.03-.28.04-.65-.11-.82-.63-.68-1.32-1.3-2.14-2.08.72-.64 1.33-1.11 1.85-1.68.25-.28.32-.73.47-1.1-.37.13-.82.17-1.08.41-.59.54-1.08 1.19-1.77 1.97-.8-.89-1.37-1.59-2-2.21-.17-.17-.54-.14-.82-.2.06.28.02.66.18.84.61.65 1.29 1.23 2 1.89Z"/><path d="M30.4 43.32c.43.35.83.76 1.31 1.05 4.56 2.82 9.13 5.61 13.69 8.42.17.1.3.26.45.39-.34.32-.63.73-1.03.95-5.04 2.78-10.09 5.53-15.13 8.3-.62.34-1.17.79-1.76 1.19l-.48-.07c-.14-.58-.4-1.16-.4-1.74-.03-6.12-.02-12.24 0-18.36 0-.5.21-1.01.32-1.51.43.19.86.39 1.29.58.58.26 1.17.51 1.75.77Z" style="fill:#f3cc18"/><path d="M62.42 42.4c-.01-3.66-.06-7.32-.02-10.98.01-1.09-.28-1.56-1.44-1.48-1.34.09-2.68.04-4.03.01-1.37-.03-2.23-.7-2.28-2.04-.07-1.9.08-3.81.14-5.71 2.62 2.59 5.24 5.19 7.86 7.78 0 3.82 0 7.63-.01 11.45l-.04.91c-.06.03-.12.05-.18.06Z" style="fill:#e3d7d6"/><path d="M30.4 43.32c-.58-.26-1.17-.51-1.75-.77-.43-.19-.86-.39-1.29-.58 1-.18 2-.37 2.99-.55l.04 1.9Z" style="fill:#d5a62a"/><path class="cls-7" d="m27.45 63.57.48.07.02.29h-.07c-.15-.14-.28-.22-.43-.36Z"/><path d="M62.42 42.4c.06-.01.13-.03.18-.06.04.61.27.9.88.51.46-.3.9-.62 1.35-.93.23.29.47.57.7.86 0 6.6 0 13.21-.01 19.81-.22.3-.44.6-.67.91-1.48-.83-2.96-1.68-4.45-2.49-4.81-2.61-9.63-5.2-14.45-7.79.45-.16.94-.26 1.34-.51 4.66-2.83 9.3-5.69 13.95-8.53.68-.41 1.33-.82 1.18-1.78Z" style="fill:#fed639"/><path class="cls-7" d="M45.95 53.21c4.82 2.6 9.64 5.19 14.45 7.79 1.49.81 2.97 1.66 4.45 2.49-.56.14-1.13.4-1.69.4-11.74.03-23.48.03-35.22.03l-.02-.29c.58-.4 1.14-.85 1.76-1.19 5.04-2.78 10.1-5.52 15.13-8.3.4-.22.69-.63 1.03-.95l.11.02Z"/><path d="M64.83 41.91c-.45.31-.89.63-1.35.93-.61.4-.84.1-.88-.51l.04-.91c.73.16 1.46.33 2.19.49Z" style="fill:#d7a42a"/><path class="cls-4" d="M46.62 29.97c1.15.35 2.32.66 3.45 1.07.26.1.38.57.56.87-.32 0-.69.08-.97-.04-4.24-1.76-8.58.06-9.93 4.18-.96 2.95.12 6.21 2.67 8.01a7.07 7.07 0 0 0 8.33-.13c2.51-1.88 3.5-5.12 2.44-8.06-.11-.31-.3-.59-.37-.9-.06-.27 0-.57.02-.86.28.15.7.22.82.45 1.2 2.26 1.26 4.6.24 6.94-1.62 3.72-5.72 5.63-9.62 4.52-3.85-1.09-6.37-4.98-5.79-8.93.59-4 3.99-6.91 8.14-7.12Z"/><path class="cls-4" d="M45.85 38.14c-.7-.65-1.39-1.24-2-1.89-.17-.18-.13-.55-.18-.84.28.06.65.03.82.2.64.63 1.21 1.32 2 2.21.69-.78 1.18-1.43 1.77-1.97.26-.24.72-.28 1.08-.41-.15.37-.22.82-.47 1.1-.52.57-1.13 1.04-1.85 1.68.82.78 1.52 1.4 2.14 2.08.15.17.08.54.11.82-.25-.05-.59 0-.74-.16-.67-.64-1.28-1.34-1.86-1.97-1.22.57-1.58 2.12-3.43 1.98l2.61-2.82Z"/></g><path d="M46.16 29.76c3.4.01 6.08 2.71 6.03 6.15-.05 3.34-2.79 5.94-6.09 5.92a6.017 6.017 0 0 1-5.98-6.13c.05-3.46 2.89-5.96 6.04-5.94Zm3.13 4.91-4.25 4.24c1.02.46 2.53.22 3.52-.79.96-.98 1.19-2.48.73-3.45Zm-6.26 2.25 4.27-4.26c-.97-.48-2.49-.19-3.4.66-1.01.96-1.37 2.43-.87 3.6Z" style="fill:#e12928"/></g></svg>
