<svg id="Layer_2" xmlns="http://www.w3.org/2000/svg" viewBox="0 0 91.56 91.56"><defs><style>.cls-2{fill:#fafaf9}.cls-6{fill:#1e1f1f}</style></defs><g id="Layer_1-2"><circle class="cls-2" cx="45.78" cy="45.78" r="45.78"/><circle class="cls-2" cx="45.78" cy="45.78" r="45.78"/><circle class="cls-2" cx="46.17" cy="45.39" r="27.84"/><circle class="cls-2" cx="46.17" cy="45.17" r="22.48"/><rect class="cls-2" x="45.64" y="24.07" width="1.07" height="3.71" rx=".44" ry=".44"/><rect class="cls-2" x="45.64" y="62.22" width="1.07" height="3.71" rx=".44" ry=".44"/><rect class="cls-2" x="32.14" y="58.63" width="3.71" height="1.07" rx=".44" ry=".44" transform="rotate(-45 33.986 59.163)"/><rect class="cls-2" x="58.49" y="32.28" width="3.71" height="1.07" rx=".44" ry=".44" transform="rotate(-45 60.343 32.815)"/><rect class="cls-2" x="30.77" y="30.96" width="1.07" height="3.71" rx=".44" ry=".44" transform="rotate(-45 31.31 32.81)"/><rect class="cls-2" x="58.29" y="58.47" width="1.07" height="3.71" rx=".44" ry=".44" transform="rotate(-45 58.818 60.327)"/><rect class="cls-2" x="24.91" y="44.64" width="3.71" height="1.07" rx=".44" ry=".44"/><rect class="cls-2" x="63.87" y="44.64" width="3.71" height="1.07" rx=".44" ry=".44"/><rect class="cls-2" x="45.72" y="32.62" width="1.43" height="13.94" rx=".59" ry=".59"/><rect class="cls-2" x="48.81" y="43.89" width="1.43" height="10.18" rx=".59" ry=".59" transform="rotate(-45 49.53 48.984)"/><circle cx="45.78" cy="45.78" r="45.78" style="fill:#e0dce7"/><circle cx="46.17" cy="45.39" r="27.84" style="fill:#dd5366"/><circle cx="46.17" cy="45.17" r="22.48" style="fill:#ded1cf"/><circle cx="47.3" cy="46.04" r="21.35" style="fill:#f2f2f2"/><rect class="cls-6" x="45.64" y="24.07" width="1.07" height="3.71" rx=".44" ry=".44"/><rect class="cls-6" x="45.64" y="62.22" width="1.07" height="3.71" rx=".44" ry=".44"/><rect class="cls-6" x="32.14" y="58.63" width="3.71" height="1.07" rx=".44" ry=".44" transform="rotate(-45 33.986 59.163)"/><rect class="cls-6" x="58.49" y="32.28" width="3.71" height="1.07" rx=".44" ry=".44" transform="rotate(-45 60.343 32.815)"/><rect class="cls-6" x="30.77" y="30.96" width="1.07" height="3.71" rx=".44" ry=".44" transform="rotate(-45 31.31 32.81)"/><rect class="cls-6" x="58.29" y="58.47" width="1.07" height="3.71" rx=".44" ry=".44" transform="rotate(-45 58.818 60.327)"/><rect class="cls-6" x="24.91" y="44.64" width="3.71" height="1.07" rx=".44" ry=".44"/><rect class="cls-6" x="63.87" y="44.64" width="3.71" height="1.07" rx=".44" ry=".44"/><rect class="cls-6" x="45.72" y="32.62" width="1.43" height="13.94" rx=".59" ry=".59"/><rect class="cls-6" x="48.81" y="43.89" width="1.43" height="10.18" rx=".59" ry=".59" transform="rotate(-45 49.53 48.984)"/></g></svg>
