<svg id="Layer_2" xmlns="http://www.w3.org/2000/svg" viewBox="0 0 91.56 91.56"><defs><style>.cls-3{fill:#ecce8d}.cls-5{fill:#fafaf9}.cls-10{fill:#97c0cf}.cls-12{fill:#b98461}.cls-14{fill:#9e5626}.cls-15{fill:#9f5727}.cls-16{fill:#bb825d}.cls-17{fill:#b88569}.cls-19{fill:#aa673a}.cls-20{fill:#a95225}.cls-25{fill:#b38a5c}.cls-26{fill:#a55125}.cls-27{fill:#bf8266}.cls-28{fill:#ad8b6c}.cls-29{fill:#c68052}.cls-31{fill:#965925}.cls-34{fill:#733316}</style></defs><g id="Layer_1-2"><circle class="cls-5" cx="45.78" cy="45.78" r="45.78"/><circle class="cls-5" cx="45.78" cy="45.78" r="45.78"/><g id="cYiHX8"><path class="cls-5" d="M56.78 72.27c-.26 0-.51.03-.77.03H31.15c-.01-.19-.03-.33-.03-.48V20.97c0-.12.01-.24.02-.36h25.64v51.66ZM31.74 21.02l-.21-.1h-.2c-.03.18-.1.35-.1.53v49.84c0 .18.06.35.1.53h.41c.03-.18.1-.35.1-.53V21.55c0-.18-.06-.35-.1-.53Zm1.33 1.03c-.49 0-.3.38-.3.6v46.1c0 .17 0 .34.01.51v1.13l.4.19h21.45c.29 0 .57.02.5-.41V22.55c.07-.42-.11-.58-.52-.52-.1.01-.2 0-.3 0H33.07Zm-2.12-1.96v-.82c.22-.03.43-.09.65-.09h24.33c.18 0 .37-.13.55-.2-.18-.03-.35-.1-.53-.1h-24.9c0-.02-.01-.05-.02-.07.13-.01.27-.04.4-.04h25.2c.12 0 .24.01.36.02l-.1 1.43c-.27.03-.54.09-.81.09H32.31c-.4 0-.8 0-1.2.01l-.16-.22Zm8.32-2.54v-4.89h10.18v4.89H39.27Zm9.52-4.22c-.13-.07-.26-.2-.39-.2-2.75-.01-5.5 0-8.26-.01-.28 0-.4.09-.39.38.01.99 0 1.98.02 2.97 0 .12.19.23.3.34.16.07.33.2.49.2 1.64.02 3.27 0 4.91 0h3.02c.21 0 .41 0 .41-.3.02-.88.08-1.76.08-2.65 0-.25-.12-.5-.19-.74Z"/><path class="cls-5" d="m56.9 20.2.1-1.43h.79v1.47l-.56.09v51.36c0 .18-.03.37-.05.55a.114.114 0 0 0-.08-.03c-.03-.33-.08-.66-.08-.99V21.3c0-.12.02-.25 0-.36-.03-.1-.12-.17-.19-.25v-.09l.11-.41Z"/><path class="cls-5" d="M56.79 20.7c.07.08.16.16.19.25.03.11 0 .24 0 .36v49.92c0 .33.05.66.08.99-.03 0-.04.02-.05.05h-.24V20.7Zm.11-.5-.11.41H31.15l-.03-.3c.4 0 .8-.01 1.2-.01h23.77c.27 0 .54-.06.81-.09Zm-.42-1.24c-.18.07-.37.2-.55.2-3.26.01-6.52 0-9.78 0H31.6c-.22 0-.43.06-.65.09l.08-.48s.01.05.02.07c.19.03.38.1.58.1h24.85Zm-25.53 1.13.16.23-.16-.23Zm26.07 52.18s.03-.04.05-.05c.03 0 .05.02.08.03-.04 0-.09 0-.13.01Zm-1.88-2.09c.07.43-.21.41-.5.41H33.19c-.13-.06-.26-.13-.39-.19v-1.13c.06-.21.18-.41.18-.62 0-15.02 0-30.05.01-45.07 0-.51.06-1.02.1-1.52h.41c.18.07.37.2.55.2 6.49.01 12.99 0 19.48 0 .22 0 .44 0 .66-.04.05 0 .1-.11.14-.17h.3c.41-.06.6.1.52.52-.07.2-.19.4-.2.6v46.41c0 .14-.02.28.01.41.02.08.12.13.19.2Zm-.44-47.67H33.32v47.54H54.7V22.5ZM31.54 71.82h-.21v-50.9h.2v50.9Zm0 0v-50.9l.21.1v50.8h-.21Z"/><path class="cls-5" d="M55.14 70.18c-.07-.06-.17-.12-.19-.2-.03-.13-.01-.27-.01-.41V23.16c0-.2.13-.4.2-.6v47.62ZM33.08 22.04c-.03.51-.1 1.02-.1 1.52 0 15.02 0 30.05-.01 45.07 0 .21-.12.41-.18.62 0-.17-.01-.34-.01-.51v-46.1c0-.22-.2-.6.3-.6Zm-1.75-1.13v50.9c-.03-.18-.1-.35-.1-.53V21.44c0-.18.06-.35.1-.53Zm.41 50.91v-50.8c.03.18.1.35.1.53v49.74c0 .18-.06.35-.1.53Zm22.58-49.78c-.05.06-.09.16-.14.17-.22.03-.44.04-.66.04H34.04c-.18 0-.37-.13-.55-.2h20.83ZM32.79 70.38c.13.06.26.13.39.19-.13-.06-.26-.13-.39-.19Zm23.69-51.42H31.63c-.19 0-.39-.06-.58-.1h24.9c.18 0 .35.06.53.1Zm-16.43-2.15c-.1-.11-.29-.23-.3-.34-.02-.99 0-1.98-.02-2.97 0-.29.11-.38.39-.38 2.75 0 5.5 0 8.26.01.13 0 .26.13.39.2l-.3.3h-8.23l-.07.13v2.82l-.14.23Z"/><path class="cls-5" d="m40.05 16.81.14-.23c1.12 0 2.25.02 3.37.03h4.5c.27 0 .51.01.5-.39-.04-.87-.05-1.73-.07-2.6l.3-.3c.07.25.19.5.19.74 0 .88-.06 1.76-.08 2.65 0 .31-.2.3-.41.3h-7.93c-.17 0-.33-.13-.49-.2ZM54.7 22.5v47.54H33.32V22.5H54.7ZM35.78 48.8l-.14-.16s-.04-.04-.06-.04l-.75-.25-.52.15-.59.64-.06.8.22.45.1.11c.39.52.96.61 1.55.24.57-.36.76-1 .46-1.55l-.05-.15-.17-.24Zm.38 18.6c.13.07.26.19.4.19 4.95.01 9.91 0 14.86.02.32 0 .45-.08.45-.43 0-5.16 0-10.32-.01-15.48 0-.13-.12-.26-.18-.4-.14-.04-.28-.12-.42-.12-4.96 0-9.91 0-14.87-.01-.34 0-.43.12-.43.45 0 5.13 0 10.25.01 15.38 0 .13.13.26.2.4Zm0-19.4c.18.07.37.19.55.19 4.79.01 9.57 0 14.36 0q.8 0 .8-.78c.01-7.67.03-15.35.03-23.02 0-.07-.15-.13-.23-.2-.18-.07-.36-.21-.55-.21-4.86-.01-9.71 0-14.57-.02-.46 0-.61.1-.61.59.02 4.53.01 9.06.01 13.6v9.29c0 .18.13.37.2.55Z"/><path class="cls-5" d="M48.49 13.62c.02.87.04 1.73.07 2.6.02.4-.23.39-.5.39h-4.5c-1.12 0-2.25-.02-3.37-.03v-2.83l.07-.13h8.23Zm-8.3 2.66Zm0-2.26Zm.07-.39-.07.13.07-.13Zm-4.1 34.38c-.07-.18-.2-.37-.2-.55-.01-3.1 0-6.19 0-9.29 0-4.53 0-9.07-.01-13.6 0-.49.15-.59.61-.59 4.86.02 9.71 0 14.57.02.18 0 .36.14.55.21-.15.18-.31.36-.46.54h-.15c-.12-.03-.24-.05-.35-.05H37.15c-.12 0-.23.03-.35.04l-.09.06s-.04.04-.03.07l.02 6.29c0 2.73-.01 5.46-.01 8.19 0 1.89.01 3.79.02 5.68v2.44l-.04.12-.49.42Zm.31-16.42v-6.44h-.07v21.92h.07v-2.35c.03-.18.1-.35.1-.53V32.12c0-.18-.06-.35-.1-.53Zm7.01-7.08-.02.05h7.32v-.05h-7.3Zm-7.32 42.9c-.07-.13-.2-.26-.2-.4 0-5.13 0-10.25-.01-15.38 0-.33.09-.45.43-.45 4.96 0 9.91 0 14.87.01.14 0 .28.08.42.12-.17.2-.35.4-.52.61H37.36q-.68 0-.69.68v14.31l-.51.51Z"/><path class="cls-5" d="M51.15 51.92c.17-.2.35-.4.52-.61.06.13.18.26.18.4 0 5.16 0 10.32.01 15.48 0 .35-.13.43-.45.43-4.95 0-9.91 0-14.86-.02-.13 0-.26-.13-.4-.19l.51-.51h14.57c-.04-5.05.1-10.01-.09-14.98Zm.05-27.17c.15-.18.31-.36.46-.54.08.07.23.13.23.2 0 7.67-.02 15.35-.03 23.02q0 .78-.8.78H36.7c-.18 0-.37-.13-.55-.19.16-.14.33-.28.49-.42h.13v.11c.12.07.23.19.35.19 1.1.01 2.21.01 3.31 0 .12 0 .23-.12.35-.19h.93c.13.06.26.19.4.19 1.96.01 3.91.01 5.87 0 .13 0 .27-.12.4-.19h.73c.08.06.16.18.24.18.38.02.77.02 1.15 0 .08 0 .16-.12.24-.19v-.11l.2-.07c.1-.13.29-.26.29-.4.02-.8-.01-1.6-.02-2.41h.33c.02-.02.02-.06.02-.09v-6.19c0-.09-.06-.18-.1-.27l-.21-.41-.05-.11v-.31s.03 0 .05.01l.2-.82c.03-.18.1-.35.1-.53V25.56c0-.18-.06-.35-.1-.53h-.19l-.05-.27ZM35.57 48.61s.05.02.06.04l.14.16.17.23.05.15c-.26.96-.84 1.68-2.01 1.31s-.07-.08-.1-.11c-.07-.15-.14-.3-.22-.44l.06-.8c.2-.21.39-.43.59-.64l.52-.15c.25.08.5.17.75.25Z"/><path class="cls-5" d="M33.98 50.5c1.17.37 1.75-.36 2.01-1.31.3.56.11 1.19-.46 1.55-.58.37-1.16.28-1.55-.24Zm.32-2c-.2.21-.39.43-.59.64.2-.21.39-.43.59-.64Zm1.27.11c-.25-.08-.5-.17-.75-.25l.75.25Zm-1.91 1.34c.07.15.14.3.22.45-.07-.15-.14-.3-.22-.45Zm2.28-.91c-.06-.08-.11-.16-.17-.24.06.08.11.16.17.24Zm-.16-.23-.14-.16.14.16Z"/><path class="cls-5" d="M33.88 50.39s.07.07.1.11c-.03-.04-.07-.07-.1-.11Zm2.81-5.36c0-1.89-.02-3.79-.02-5.68 0-2.73 0-5.46.01-8.19.9-.96 1.79-1.93 2.7-2.89 1.11-1.17 2.23-2.32 3.35-3.47.73 0 1.47-.01 2.2-.01 2.03 0 4.07.02 6.1.03v4.64c0 .16.1.33.15.49v.3l-.16.31c-.12.07-.27.12-.37.22-1.75 1.81-3.5 3.64-5.25 5.45-1.03 1.07-2.06 2.13-3.09 3.19-1.37 1.41-2.73 2.82-4.11 4.21-.49.49-1.02.94-1.53 1.4Z"/><path class="cls-5" d="M36.69 45.03c.51-.47 1.04-.91 1.53-1.4 1.38-1.39 2.75-2.8 4.11-4.21 1.03-1.06 2.06-2.12 3.09-3.19 1.75-1.82 3.5-3.64 5.25-5.45.1-.1.24-.15.37-.22l.16.22.05.09v5.55l-.05.09v.63l.05.2s-.03-.01-.05-.01c-.02 0-.05 0-.07.01-.12.07-.27.12-.36.22-1 1.02-1.99 2.06-2.98 3.08-1.25 1.3-2.51 2.59-3.77 3.88-.94.98-1.88 1.96-2.83 2.94h-4.5v-2.43Zm6.05-20.22c-1.12 1.16-2.24 2.31-3.35 3.47-.91.95-1.8 1.92-2.7 2.89 0-2.1-.02-4.19-.02-6.29h.03v-.07l.09-.06c.2.01.4.04.61.04 1.78 0 3.57.02 5.35.02Zm-6.27 19.91v2.35h-.07V25.15h.07v19.57Z"/><path class="cls-5" d="M42.74 24.81c-1.78 0-3.57-.01-5.35-.02-.2 0-.4-.02-.61-.04.12-.02.23-.04.35-.04H50.7c.12 0 .24.02.35.04 0 .03 0 .06-.01.09-2.03 0-4.07-.02-6.1-.03-.73 0-1.47 0-2.2.01Zm-6.27 19.91V31.59c.03.18.1.35.1.53v12.07c0 .18-.06.35-.1.53Zm.22 2.75h4.81c.41.02.82.03 1.23.03l5.54.03c-.2.03-.4.07-.6.07H36.64l.04-.13Z"/><path class="cls-5" d="M51.04 24.82s.01-.06.01-.09h.15l.05.28c0 .29-.02.58-.03.86-.01 1.36-.02 2.71-.04 4.07-.05-.16-.15-.33-.15-.49-.01-1.55 0-3.09 0-4.64Zm-7.56-.31h7.3v.05h-7.32l.02-.05Zm-6.79.3v.06h-.03s0-.05.03-.06Zm14.46 27.11c.19 4.96.05 9.93.09 14.98H36.67V52.59q0-.68.69-.68h13.79Zm-9.65-4.45h-.31c.94-.99 1.88-1.97 2.83-2.95 1.25-1.3 2.51-2.59 3.77-3.88.99-1.03 1.98-2.06 2.98-3.08.1-.1.24-.15.36-.22.02.1.04.2.07.3l.05.11-.05.1s-.02.02-.02.03c0 .02.01.04.02.07 0 .2.02.41.02.61 0 2.05.02 4.11.02 6.16h-.04c-.67.68-1.35 1.35-2.01 2.05-.2.21-.35.47-.52.71h-.19c-.13-.03-.26-.08-.39-.08h-6.25c-.11 0-.23.05-.34.07Z"/><path class="cls-5" d="M48.67 47.48c.17-.24.32-.5.52-.71.66-.69 1.34-1.37 2.01-2.05.01.8.04 1.61.02 2.41 0 .13-.19.27-.29.4h-1.84l-.42-.05Z"/><path class="cls-5" d="M48.67 47.48c.14.02.28.03.42.05.55.02 1.09.05 1.64.07v.11H36.76v-.1h10.9c.2 0 .4-.05.6-.07l.2-.04h.19Zm2.57-2.76c0-2.05-.01-4.11-.02-6.16 0-.2-.01-.41-.02-.61v-.1l.05-.1.21.41v6.56h-.21Z"/><path class="cls-5" d="M41.7 47.7h6.67c-.13.07-.27.19-.4.19-1.96.01-3.91.01-5.87 0-.13 0-.26-.13-.4-.19Zm9.5-17.75c.01-1.36.02-2.71.04-4.07 0-.29.02-.58.03-.86h.19v5.75l-.2.1-.05-.09v-.83ZM36.77 47.7h4c-.12.07-.23.19-.35.19-1.1.01-2.21.01-3.31 0-.12 0-.23-.12-.35-.19Zm14.68-2.98v-6.56c.03.09.1.18.1.27v6.19c0 .03 0 .07-.02.09-.01.02-.05 0-.08.01Z"/><path class="cls-5" d="M51.55 30.77v5.22c0 .18-.06.35-.1.53v-5.75h.1Zm0 0h-.1v-5.75c.03.18.1.35.1.53v5.21Zm-2.46 16.94h1.64c-.08.07-.16.18-.24.19-.38.02-.77.02-1.15 0-.08 0-.16-.12-.24-.19Zm1.64-.11c-.55-.02-1.09-.05-1.64-.07h1.84l-.2.07Zm.52-10.27-.06-.2v-.63l.05-.09.2.1-.2.82Zm-.05.3c-.02-.1-.04-.2-.07-.3.02 0 .04-.01.07-.01v.31Zm-.01-7.39v.53l-.16-.22c.05-.1.11-.21.16-.31Z"/><path class="cls-5" d="m51.45 36.51-.2-.1v-5.55l.2-.1v5.75Zm-.25 0v.63-.63Zm-2.73 10.97-.2.04c-1.85 0-3.69-.02-5.54-.03-.41 0-.82-.01-1.23-.02.11-.03.23-.07.34-.07h6.25c.13 0 .26.05.39.08Zm2.73-9.63v.1s-.02-.04-.02-.07c0 0 .01-.02.02-.03Z"/></g><g id="fIuL8l"><path class="cls-5" d="M57.44 76.58c-.99.06-1.96-.07-2.9-.37a8.516 8.516 0 0 1-4.26-2.95 8.485 8.485 0 0 1-1.73-4.17c-.17-1.37-.04-2.7.43-4 .58-1.61 1.56-2.93 2.92-3.97a8.373 8.373 0 0 1 3.93-1.65 8.56 8.56 0 0 1 4.28.46c1.59.6 2.89 1.59 3.9 2.95a8.35 8.35 0 0 1 1.64 4.35c.04.46 0 .93 0 1.4-.03-.13.04-.27-.1-.4-.37-.33-.71-.69-1.06-1.04-.32-.32-.63-.64-.94-.95L62.31 65c-.19-.18-.38-.35-.57-.53-.08-.1-.16-.2-.25-.3l-.88-.91-3.56 3.58-3.48-3.49-1.16 1.14L55.94 68l-3.54 3.52c.37.37.72.72 1.07 1.06.02.02.06.03.09.05.04.06.07.13.12.17.4.4.81.79 1.21 1.19.51.51 1.01 1.02 1.51 1.53.34.35.68.7 1.03 1.05Z"/><path class="cls-5" d="M57.44 76.58c-.34-.35-.68-.7-1.03-1.05-.5-.51-1.01-1.02-1.51-1.53-.4-.4-.81-.79-1.21-1.19-.05-.05-.08-.12-.12-.17.46-.46.92-.93 1.39-1.39.54-.53 1.07-1.06 1.61-1.6.1 0 .25.09.24-.13 0-.02.05-.04.08-.06.08-.04.16-.08.27-.13l.27.27c.09.08.14.22.3.19.03.02.06.04.08.07l1.8 1.8c.33.33.65.67.97.99l1.14-1.14L58.2 68l3.51-3.53c.19.18.39.35.57.53.42.41.83.82 1.24 1.24.32.32.63.64.94.95.35.35.69.71 1.06 1.04.14.13.07.26.1.4a8.084 8.084 0 0 1-1.27 3.9c-1.5 2.34-3.65 3.68-6.41 4.01-.18.02-.36.02-.53.03Z"/><path class="cls-5" d="M56.57 69.66c-.54.53-1.07 1.06-1.61 1.6-.46.46-.92.93-1.39 1.39-.03-.01-.07-.02-.09-.05-.35-.35-.7-.69-1.07-1.06l3.54-3.52-3.53-3.51 1.16-1.14 3.48 3.49 3.56-3.58.88.91c.09.09.17.2.25.3l-3.51 3.53 3.52 3.51-1.14 1.14c-.32-.33-.64-.66-.97-.99l-1.8-1.8c-.03-.03-.06-.04-.08-.07l-.67-.62-.5.47Z"/><path class="cls-5" d="m56.57 69.66.5-.47.67.62c-.16.03-.21-.11-.3-.19-.1-.09-.19-.19-.27-.27-.11.05-.19.09-.27.13-.03.02-.08.04-.08.06 0 .22-.14.12-.24.13Z"/></g><circle cx="45.78" cy="45.78" r="45.78" style="fill:#fae6d5"/><g id="cYiHX8-2"><path class="cls-14" d="M56.78 72.27c-.26 0-.51.03-.77.03H31.15c-.01-.19-.03-.33-.03-.48V20.97c0-.12.01-.24.02-.36h25.64v51.66ZM31.74 21.02l-.21-.1h-.2c-.03.18-.1.35-.1.53v49.84c0 .18.06.35.1.53h.41c.03-.18.1-.35.1-.53V21.55c0-.18-.06-.35-.1-.53Zm1.33 1.03c-.49 0-.3.38-.3.6v46.1c0 .17 0 .34.01.51v1.13l.4.19h21.45c.29 0 .57.02.5-.41V22.55c.07-.42-.11-.58-.52-.52-.1.01-.2 0-.3 0H33.07Z"/><path d="M30.95 20.09v-.82c.22-.03.43-.09.65-.09h24.33c.18 0 .37-.13.55-.2-.18-.03-.35-.1-.53-.1h-24.9c0-.02-.01-.05-.02-.07.13-.01.27-.04.4-.04h25.2c.12 0 .24.01.36.02l-.1 1.43c-.27.03-.54.09-.81.09H32.31c-.4 0-.8 0-1.2.01l-.16-.22Z" style="fill:#9e5526"/><path d="M39.27 17.55v-4.89h10.18v4.89H39.27Zm9.52-4.22c-.13-.07-.26-.2-.39-.2-2.75-.01-5.5 0-8.26-.01-.28 0-.4.09-.39.38.01.99 0 1.98.02 2.97 0 .12.19.23.3.34.16.07.33.2.49.2 1.64.02 3.27 0 4.91 0h3.02c.21 0 .41 0 .41-.3.02-.88.08-1.76.08-2.65 0-.25-.12-.5-.19-.74Z" style="fill:#ac6e43"/><path d="m56.9 20.2.1-1.43h.79v1.47l-.56.09v51.36c0 .18-.03.37-.05.55a.114.114 0 0 0-.08-.03c-.03-.33-.08-.66-.08-.99V21.3c0-.12.02-.25 0-.36-.03-.1-.12-.17-.19-.25v-.09l.11-.41Z" style="fill:#6f442e"/><path d="M56.79 20.7c.07.08.16.16.19.25.03.11 0 .24 0 .36v49.92c0 .33.05.66.08.99-.03 0-.04.02-.05.05h-.24V20.7Z" style="fill:#7f461e"/><path d="m56.9 20.2-.11.41H31.15l-.03-.3c.4 0 .8-.01 1.2-.01h23.77c.27 0 .54-.06.81-.09Z" style="fill:#833b1c"/><path class="cls-31" d="M56.48 18.96c-.18.07-.37.2-.55.2-3.26.01-6.52 0-9.78 0H31.6c-.22 0-.43.06-.65.09l.08-.48s.01.05.02.07c.19.03.38.1.58.1h24.85Zm-25.53 1.13.16.23-.16-.23Z"/><path class="cls-14" d="M57.02 72.27s.03-.04.05-.05c.03 0 .05.02.08.03-.04 0-.09 0-.13.01Z"/><path d="M55.14 70.18c.07.43-.21.41-.5.41H33.19c-.13-.06-.26-.13-.39-.19v-1.13c.06-.21.18-.41.18-.62 0-15.02 0-30.05.01-45.07 0-.51.06-1.02.1-1.52h.41c.18.07.37.2.55.2 6.49.01 12.99 0 19.48 0 .22 0 .44 0 .66-.04.05 0 .1-.11.14-.17h.3c.41-.06.6.1.52.52-.07.2-.19.4-.2.6v46.41c0 .14-.02.28.01.41.02.08.12.13.19.2Zm-.44-47.67H33.32v47.54H54.7V22.5Z" style="fill:#6b2f13"/><path class="cls-31" d="M31.54 71.82h-.21v-50.9h.2v50.9Z"/><path class="cls-26" d="M31.54 71.82v-50.9l.21.1v50.8h-.21Z"/><path class="cls-34" d="M55.14 70.18c-.07-.06-.17-.12-.19-.2-.03-.13-.01-.27-.01-.41V23.16c0-.2.13-.4.2-.6v47.62ZM33.08 22.04c-.03.51-.1 1.02-.1 1.52 0 15.02 0 30.05-.01 45.07 0 .21-.12.41-.18.62 0-.17-.01-.34-.01-.51v-46.1c0-.22-.2-.6.3-.6Z"/><path class="cls-20" d="M31.33 20.91v50.9c-.03-.18-.1-.35-.1-.53V21.44c0-.18.06-.35.1-.53Z"/><path class="cls-31" d="M31.74 71.82v-50.8c.03.18.1.35.1.53v49.74c0 .18-.06.35-.1.53Z"/><path class="cls-34" d="M54.32 22.04c-.05.06-.09.16-.14.17-.22.03-.44.04-.66.04H34.04c-.18 0-.37-.13-.55-.2h20.83ZM32.79 70.38c.13.06.26.13.39.19-.13-.06-.26-.13-.39-.19Z"/><path class="cls-26" d="M56.48 18.96H31.63c-.19 0-.39-.06-.58-.1h24.9c.18 0 .35.06.53.1Z"/><path class="cls-15" d="M40.05 16.81c-.1-.11-.29-.23-.3-.34-.02-.99 0-1.98-.02-2.97 0-.29.11-.38.39-.38 2.75 0 5.5 0 8.26.01.13 0 .26.13.39.2l-.3.3h-8.23l-.07.13v2.82l-.14.23Z"/><path class="cls-16" d="m40.05 16.81.14-.23c1.12 0 2.25.02 3.37.03h4.5c.27 0 .51.01.5-.39-.04-.87-.05-1.73-.07-2.6l.3-.3c.07.25.19.5.19.74 0 .88-.06 1.76-.08 2.65 0 .31-.2.3-.41.3h-7.93c-.17 0-.33-.13-.49-.2Z"/><path class="cls-19" d="M54.7 22.5v47.54H33.32V22.5H54.7ZM35.78 48.8l-.14-.16s-.04-.04-.06-.04l-.75-.25-.52.15-.59.64-.06.8.22.45.1.11c.39.52.96.61 1.55.24.57-.36.76-1 .46-1.55l-.05-.15-.17-.24Zm.38 18.6c.13.07.26.19.4.19 4.95.01 9.91 0 14.86.02.32 0 .45-.08.45-.43 0-5.16 0-10.32-.01-15.48 0-.13-.12-.26-.18-.4-.14-.04-.28-.12-.42-.12-4.96 0-9.91 0-14.87-.01-.34 0-.43.12-.43.45 0 5.13 0 10.25.01 15.38 0 .13.13.26.2.4Zm0-19.4c.18.07.37.19.55.19 4.79.01 9.57 0 14.36 0q.8 0 .8-.78c.01-7.67.03-15.35.03-23.02 0-.07-.15-.13-.23-.2-.18-.07-.36-.21-.55-.21-4.86-.01-9.71 0-14.57-.02-.46 0-.61.1-.61.59.02 4.53.01 9.06.01 13.6v9.29c0 .18.13.37.2.55Z"/><path d="M48.49 13.62c.02.87.04 1.73.07 2.6.02.4-.23.39-.5.39h-4.5c-1.12 0-2.25-.02-3.37-.03v-2.83l.07-.13h8.23Z" style="fill:#fce1aa"/><path class="cls-16" d="M40.19 16.28Zm0-2.26Zm.07-.39-.07.13.07-.13Z"/><path class="cls-15" d="M36.16 48.01c-.07-.18-.2-.37-.2-.55-.01-3.1 0-6.19 0-9.29 0-4.53 0-9.07-.01-13.6 0-.49.15-.59.61-.59 4.86.02 9.71 0 14.57.02.18 0 .36.14.55.21-.15.18-.31.36-.46.54h-.15c-.12-.03-.24-.05-.35-.05H37.15c-.12 0-.23.03-.35.04l-.09.06s-.04.04-.03.07l.02 6.29c0 2.73-.01 5.46-.01 8.19 0 1.89.01 3.79.02 5.68v2.44l-.04.12-.49.42Zm.31-16.42v-6.44h-.07v21.92h.07v-2.35c.03-.18.1-.35.1-.53V32.12c0-.18-.06-.35-.1-.53Zm7.01-7.08-.02.05h7.32v-.05h-7.3Z"/><path class="cls-14" d="M36.16 67.41c-.07-.13-.2-.26-.2-.4 0-5.13 0-10.25-.01-15.38 0-.33.09-.45.43-.45 4.96 0 9.91 0 14.87.01.14 0 .28.08.42.12-.17.2-.35.4-.52.61H37.36q-.68 0-.69.68v14.31l-.51.51Z"/><path class="cls-16" d="M51.15 51.92c.17-.2.35-.4.52-.61.06.13.18.26.18.4 0 5.16 0 10.32.01 15.48 0 .35-.13.43-.45.43-4.95 0-9.91 0-14.86-.02-.13 0-.26-.13-.4-.19l.51-.51h14.57c-.04-5.05.1-10.01-.09-14.98Z"/><path class="cls-12" d="M51.2 24.75c.15-.18.31-.36.46-.54.08.07.23.13.23.2 0 7.67-.02 15.35-.03 23.02q0 .78-.8.78H36.7c-.18 0-.37-.13-.55-.19.16-.14.33-.28.49-.42h.13v.11c.12.07.23.19.35.19 1.1.01 2.21.01 3.31 0 .12 0 .23-.12.35-.19h.93c.13.06.26.19.4.19 1.96.01 3.91.01 5.87 0 .13 0 .27-.12.4-.19h.73c.08.06.16.18.24.18.38.02.77.02 1.15 0 .08 0 .16-.12.24-.19v-.11l.2-.07c.1-.13.29-.26.29-.4.02-.8-.01-1.6-.02-2.41h.33c.02-.02.02-.06.02-.09v-6.19c0-.09-.06-.18-.1-.27l-.21-.41-.05-.11v-.31s.03 0 .05.01l.2-.82c.03-.18.1-.35.1-.53V25.56c0-.18-.06-.35-.1-.53h-.19l-.05-.27Z"/><path d="M35.57 48.61s.05.02.06.04l.14.16.17.23.05.15c-.26.96-.84 1.68-2.01 1.31s-.07-.08-.1-.11c-.07-.15-.14-.3-.22-.44l.06-.8c.2-.21.39-.43.59-.64l.52-.15c.25.08.5.17.75.25Z" style="fill:#fae8b0"/><path class="cls-3" d="M33.98 50.5c1.17.37 1.75-.36 2.01-1.31.3.56.11 1.19-.46 1.55-.58.37-1.16.28-1.55-.24Zm.32-2c-.2.21-.39.43-.59.64.2-.21.39-.43.59-.64Zm1.27.11c-.25-.08-.5-.17-.75-.25l.75.25Zm-1.91 1.34c.07.15.14.3.22.45-.07-.15-.14-.3-.22-.45Zm2.28-.91c-.06-.08-.11-.16-.17-.24.06.08.11.16.17.24Zm-.16-.23-.14-.16.14.16Z"/><path class="cls-3" d="M33.88 50.39s.07.07.1.11c-.03-.04-.07-.07-.1-.11Z"/><path d="M36.69 45.03c0-1.89-.02-3.79-.02-5.68 0-2.73 0-5.46.01-8.19.9-.96 1.79-1.93 2.7-2.89 1.11-1.17 2.23-2.32 3.35-3.47.73 0 1.47-.01 2.2-.01 2.03 0 4.07.02 6.1.03v4.64c0 .16.1.33.15.49v.3l-.16.31c-.12.07-.27.12-.37.22-1.75 1.81-3.5 3.64-5.25 5.45-1.03 1.07-2.06 2.13-3.09 3.19-1.37 1.41-2.73 2.82-4.11 4.21-.49.49-1.02.94-1.53 1.4Z" style="fill:#b2d9ef"/><path d="M36.69 45.03c.51-.47 1.04-.91 1.53-1.4 1.38-1.39 2.75-2.8 4.11-4.21 1.03-1.06 2.06-2.12 3.09-3.19 1.75-1.82 3.5-3.64 5.25-5.45.1-.1.24-.15.37-.22l.16.22.05.09v5.55l-.05.09v.63l.05.2s-.03-.01-.05-.01c-.02 0-.05 0-.07.01-.12.07-.27.12-.36.22-1 1.02-1.99 2.06-2.98 3.08-1.25 1.3-2.51 2.59-3.77 3.88-.94.98-1.88 1.96-2.83 2.94h-4.5v-2.43Zm6.05-20.22c-1.12 1.16-2.24 2.31-3.35 3.47-.91.95-1.8 1.92-2.7 2.89 0-2.1-.02-4.19-.02-6.29h.03v-.07l.09-.06c.2.01.4.04.61.04 1.78 0 3.57.02 5.35.02Z" style="fill:#87c7e7"/><path d="M36.47 44.72v2.35h-.07V25.15h.07v19.57Z" style="fill:#985731"/><path class="cls-12" d="M42.74 24.81c-1.78 0-3.57-.01-5.35-.02-.2 0-.4-.02-.61-.04.12-.02.23-.04.35-.04H50.7c.12 0 .24.02.35.04 0 .03 0 .06-.01.09-2.03 0-4.07-.02-6.1-.03-.73 0-1.47 0-2.2.01Z"/><path class="cls-20" d="M36.47 44.72V31.59c.03.18.1.35.1.53v12.07c0 .18-.06.35-.1.53Z"/><path class="cls-28" d="M36.69 47.47h4.81c.41.02.82.03 1.23.03l5.54.03c-.2.03-.4.07-.6.07H36.64l.04-.13Z"/><path class="cls-10" d="M51.04 24.82s.01-.06.01-.09h.15l.05.28c0 .29-.02.58-.03.86-.01 1.36-.02 2.71-.04 4.07-.05-.16-.15-.33-.15-.49-.01-1.55 0-3.09 0-4.64Z"/><path class="cls-20" d="M43.48 24.51h7.3v.05h-7.32l.02-.05Z"/><path class="cls-12" d="M36.69 24.81v.06h-.03s0-.05.03-.06Z"/><path class="cls-19" d="M51.15 51.92c.19 4.96.05 9.93.09 14.98H36.67V52.59q0-.68.69-.68h13.79Z"/><path d="M41.5 47.47h-.31c.94-.99 1.88-1.97 2.83-2.95 1.25-1.3 2.51-2.59 3.77-3.88.99-1.03 1.98-2.06 2.98-3.08.1-.1.24-.15.36-.22.02.1.04.2.07.3l.05.11-.05.1s-.02.02-.02.03c0 .02.01.04.02.07 0 .2.02.41.02.61 0 2.05.02 4.11.02 6.16h-.04c-.67.68-1.35 1.35-2.01 2.05-.2.21-.35.47-.52.71h-.19c-.13-.03-.26-.08-.39-.08h-6.25c-.11 0-.23.05-.34.07Z" style="fill:#b1d9ee"/><path class="cls-10" d="M48.67 47.48c.17-.24.32-.5.52-.71.66-.69 1.34-1.37 2.01-2.05.01.8.04 1.61.02 2.41 0 .13-.19.27-.29.4h-1.84l-.42-.05Z"/><path class="cls-29" d="M48.67 47.48c.14.02.28.03.42.05.55.02 1.09.05 1.64.07v.11H36.76v-.1h10.9c.2 0 .4-.05.6-.07l.2-.04h.19Z"/><path class="cls-27" d="M51.24 44.72c0-2.05-.01-4.11-.02-6.16 0-.2-.01-.41-.02-.61v-.1l.05-.1.21.41v6.56h-.21Z"/><path class="cls-17" d="M41.7 47.7h6.67c-.13.07-.27.19-.4.19-1.96.01-3.91.01-5.87 0-.13 0-.26-.13-.4-.19Z"/><path class="cls-27" d="M51.2 29.95c.01-1.36.02-2.71.04-4.07 0-.29.02-.58.03-.86h.19v5.75l-.2.1-.05-.09v-.83Z"/><path class="cls-17" d="M36.77 47.7h4c-.12.07-.23.19-.35.19-1.1.01-2.21.01-3.31 0-.12 0-.23-.12-.35-.19Z"/><path class="cls-25" d="M51.45 44.72v-6.56c.03.09.1.18.1.27v6.19c0 .03 0 .07-.02.09-.01.02-.05 0-.08.01Z"/><path class="cls-17" d="M51.55 30.77v5.22c0 .18-.06.35-.1.53v-5.75h.1Z"/><path class="cls-25" d="M51.55 30.77h-.1v-5.75c.03.18.1.35.1.53v5.21Z"/><path class="cls-17" d="M49.09 47.71h1.64c-.08.07-.16.18-.24.19-.38.02-.77.02-1.15 0-.08 0-.16-.12-.24-.19Z"/><path class="cls-28" d="M50.73 47.6c-.55-.02-1.09-.05-1.64-.07h1.84l-.2.07Z"/><path class="cls-27" d="m51.25 37.33-.06-.2v-.63l.05-.09.2.1-.2.82Z"/><path class="cls-10" d="M51.2 37.63c-.02-.1-.04-.2-.07-.3.02 0 .04-.01.07-.01v.31Zm-.01-7.39v.53l-.16-.22c.05-.1.11-.21.16-.31Z"/><path class="cls-29" d="m51.45 36.51-.2-.1v-5.55l.2-.1v5.75Z"/><path class="cls-10" d="M51.2 36.51v.63-.63Zm-2.73 10.97-.2.04c-1.85 0-3.69-.02-5.54-.03-.41 0-.82-.01-1.23-.02.11-.03.23-.07.34-.07h6.25c.13 0 .26.05.39.08Zm2.73-9.63v.1s-.02-.04-.02-.07c0 0 .01-.02.02-.03Z"/></g><g id="fIuL8l-2"><path d="M57.44 76.58c-.99.06-1.96-.07-2.9-.37a8.516 8.516 0 0 1-4.26-2.95 8.485 8.485 0 0 1-1.73-4.17c-.17-1.37-.04-2.7.43-4 .58-1.61 1.56-2.93 2.92-3.97a8.373 8.373 0 0 1 3.93-1.65 8.56 8.56 0 0 1 4.28.46c1.59.6 2.89 1.59 3.9 2.95a8.35 8.35 0 0 1 1.64 4.35c.04.46 0 .93 0 1.4-.03-.13.04-.27-.1-.4-.37-.33-.71-.69-1.06-1.04-.32-.32-.63-.64-.94-.95L62.31 65c-.19-.18-.38-.35-.57-.53-.08-.1-.16-.2-.25-.3l-.88-.91-3.56 3.58-3.48-3.49-1.16 1.14L55.94 68l-3.54 3.52c.37.37.72.72 1.07 1.06.02.02.06.03.09.05.04.06.07.13.12.17.4.4.81.79 1.21 1.19.51.51 1.01 1.02 1.51 1.53.34.35.68.7 1.03 1.05Z" style="fill:#ee413e"/><path d="M57.44 76.58c-.34-.35-.68-.7-1.03-1.05-.5-.51-1.01-1.02-1.51-1.53-.4-.4-.81-.79-1.21-1.19-.05-.05-.08-.12-.12-.17.46-.46.92-.93 1.39-1.39.54-.53 1.07-1.06 1.61-1.6.1 0 .25.09.24-.13 0-.02.05-.04.08-.06.08-.04.16-.08.27-.13l.27.27c.09.08.14.22.3.19.03.02.06.04.08.07l1.8 1.8c.33.33.65.67.97.99l1.14-1.14L58.2 68l3.51-3.53c.19.18.39.35.57.53.42.41.83.82 1.24 1.24.32.32.63.64.94.95.35.35.69.71 1.06 1.04.14.13.07.26.1.4a8.084 8.084 0 0 1-1.27 3.9c-1.5 2.34-3.65 3.68-6.41 4.01-.18.02-.36.02-.53.03Z" style="fill:#b32a27"/><path d="M56.57 69.66c-.54.53-1.07 1.06-1.61 1.6-.46.46-.92.93-1.39 1.39-.03-.01-.07-.02-.09-.05-.35-.35-.7-.69-1.07-1.06l3.54-3.52-3.53-3.51 1.16-1.14 3.48 3.49 3.56-3.58.88.91c.09.09.17.2.25.3l-3.51 3.53 3.52 3.51-1.14 1.14c-.32-.33-.64-.66-.97-.99l-1.8-1.8c-.03-.03-.06-.04-.08-.07l-.67-.62-.5.47Z" style="fill:#fdf8f6"/><path d="m56.57 69.66.5-.47.67.62c-.16.03-.21-.11-.3-.19-.1-.09-.19-.19-.27-.27-.11.05-.19.09-.27.13-.03.02-.08.04-.08.06 0 .22-.14.12-.24.13Z" style="fill:#a63235"/></g></g></svg>
