<svg id="Layer_2" xmlns="http://www.w3.org/2000/svg" viewBox="0 0 91.56 91.56"><defs><style>.cls-7{fill:#fafaf9}.cls-9{fill:#92553f}.cls-13{fill:#8c4f3b}.cls-15{fill:#914e37}.cls-17{fill:#915038}.cls-18{fill:#b83644}.cls-19{fill:#8e5040}.cls-23{fill:#adcfda}.cls-24{fill:#afd8e6}.cls-29{fill:#dbcdc6}.cls-32{fill:#e1d4ce}.cls-33{fill:#afd2de}.cls-34{fill:#d5ebf4}.cls-39{fill:#8a4c37}</style></defs><g id="Layer_1-2"><circle class="cls-7" cx="45.78" cy="45.78" r="45.78"/><circle class="cls-7" cx="45.78" cy="45.78" r="45.78"/><g id="_ouQk4"><path class="cls-7" d="M26.67 59.73c0-4.58 0-9.16-.01-13.75.25-.15.53-.27.75-.46 1.35-1.2 2.7-2.41 4.04-3.63 4.25-3.9 8.49-7.81 12.73-11.72.84-.78 1.3-.78 2.14 0 1.81 1.69 3.63 3.38 5.47 5.06 3.74 3.42 7.48 6.82 11.23 10.22.24.22.54.35.82.53v13.74c-2 0-4 0-6-.01-.01-.5-.03-1-.03-1.5-.02-3.81-.03-7.62-.04-11.43l.06-.6-.03-.61h-9.09l-1.19-.11s.03-.08.03-.12l.06-.05-.04-.03s-.03.04-.05.06l-.23.21-.02.02s-.08.03-.08.05c0 .05.02.11.03.16l.07 1.21v12.32l-.09.4c-6.83 0-13.67.01-20.5.02ZM43 45.34l-.09-.04.06.05c-.01.05-.01.1 0 .15l.03.06H32.91l-.18 1.22v9.28h10.29l.21-.18v-10.3l-.23-.23Z"/><path class="cls-7" d="M26.47 43.75c-.2.17-.43.33-.6.53-.64.71-1.2.64-1.87-.03-1.77-1.77-1.77-1.74.02-3.46 6.62-6.37 13.24-12.75 19.86-19.12 1.36-1.31 1.39-1.31 2.75 0 1.89 1.82 3.78 3.64 5.68 5.46.23.22.47.44.78.72.09-.77.16-1.41.24-2.05.02.45.03.9.05 1.35v.68s-.01.1 0 .14c2.21 2.17 4.42 4.33 6.63 6.5.05-.01.11-.01.15-.03.02 0 .02-.06.02-.09.01-2.84.02-5.68.04-8.52.03 2.61.1 5.22.07 7.83 0 .84.22 1.43.85 2.01 2.07 1.91 4.09 3.88 6.12 5.83.88.84.87 1.12.03 1.97l-.14.14c-1.51 1.5-1.39 1.67-3.09.15-.29-.27-.59-.54-.88-.81-5.66-5.17-11.32-10.34-16.96-15.52-.63-.58-1.13-.69-1.81-.07-5.96 5.48-11.94 10.94-17.91 16.41Z"/><path class="cls-7" d="M26.47 43.75c5.97-5.47 11.95-10.93 17.91-16.41.68-.62 1.18-.51 1.81.07 5.64 5.19 11.3 10.35 16.96 15.52.29.27.59.54.88.81-.07.75-.13 1.49-.2 2.24-.27-.17-.58-.31-.82-.53-3.75-3.4-7.49-6.81-11.23-10.22-1.83-1.67-3.65-3.36-5.47-5.06-.84-.78-1.29-.78-2.14 0-4.24 3.91-8.48 7.82-12.73 11.72-1.33 1.22-2.68 2.43-4.04 3.63-.22.19-.5.31-.75.46-.07-.75-.13-1.49-.2-2.24Zm-1.01 19.37c-.24-.33-.72-.74-.65-.97.11-.33.6-.58.97-.76.25-.12.58-.05.88-.07 1.27.02 2.54.05 3.82.05 5.46 0 10.92-.03 16.38-.04l.19-.03.09.02h16.68c.3.02.63-.05.88.07.38.18.86.43.97.76.07.23-.41.64-.65.97h-.19c-.37.02-.74.04-1.11.04H26.74c-.37 0-.74-.02-1.11-.04h-.19Z"/><path class="cls-7" d="M46.86 61.33c-5.46.02-10.92.03-16.38.04-1.27 0-2.54-.03-3.82-.05 0-.53 0-1.07.01-1.6 6.83 0 13.67-.01 20.5-.02l.09.82v.6c-.02.06-.04.12-.04.19h-.17l-.19.02Zm16.97 0h-6.05c0-.07-.01-.13-.03-.19l.08-1.43c2 0 4 0 6 .01v1.6ZM53.36 27.15c-.02-.45-.03-.9-.05-1.35l6.88.03c-.01 2.84-.02 5.68-.04 8.52 0 .03 0 .08-.02.09-.05.02-.1.02-.15.03 0-2.55.02-5.1-.01-7.65 0-.28-.28-.79-.44-.8-1.97-.06-3.94-.04-5.87-.04l-.3 1.16Zm-27.9 35.97h.19l-.1.03-.09-.03Zm39.38.01h.19l-.09.02-.1-.02Z"/><path class="cls-7" d="m57.82 59.71-.08 1.43-.18.19c-3.44 0-6.89 0-10.33-.01 0-.07.01-.13.04-.19v-.6l-.1-.82.09-.4V46.99l.33-1.09 1.09-.34h8.27l.8 1.22c.01 3.81.03 7.62.04 11.43 0 .5.02 1 .03 1.5Zm-1.89-12.44.02-.08h-4.24l-1.63-.02h-.8l-.42.22c-.06.15-.18.29-.19.44-.01 1.97-.01 3.93 0 5.9 0 .17.14.35.21.52h.09l.09-.02.4.04h6.59c.61-.6.3-1.22.05-1.85v-1.41l-.13-.16v-.68s.06-.05.06-.06c-.01-.05-.04-.1-.06-.14l.12-1.55v-.65l-.13-.38.05-.05-.1-.08Zm-12.7-.28v8.88l-.2.18h-9.1l-.88-.3-.3-.88v-8.1l.19-1 .61-.23h8.27l1.22.22.2 1.21Zm-1.63.27-2.41-.09h-4.44c-.09.19-.27.38-.27.57-.01.97.02 1.93.04 2.9l-.06 1.84v1.55c.1.09.22.26.34.26 1.12 0 2.25-.02 3.37-.04.94.02 1.88.08 2.82.02.22-.01.42-.41.64-.63v-6.26l-.1.02s.05-.1.08-.15Z"/><path class="cls-7" d="m48.69 45.56-1.09.34-.33 1.09-.07-1.21.04-.21.02-.02.24-.07 1.19.09Zm-15.95 9.32.3.88.88.3h-1.18v-1.18Zm25.01-8.1-.8-1.22h.82l.03.62-.06.6Zm-14.52.21c-.07-.4-.14-.81-.2-1.21v-.22l-.04-.06.24.07v1.42Z"/><path class="cls-7" d="M43.02 45.56v.22c-.4-.07-.81-.15-1.21-.22h1.21Zm-10.09.22-.19 1 .18-1.22v.22ZM47.26 58.3ZM57.8 46.18l-.03-.61.03.61Zm-15.78 9.88Zm-9.09-10.28v-.22h.61l-.61.22Zm10.3 9.09Zm0 .6Zm4.01-9.91-.04.21c-.01-.05-.03-.11-.03-.16 0-.02.05-.03.08-.05Zm-4.21 10.5.21-.18-.21.18Zm4.46-10.59-.24.07.23-.21.03.02s0 .08-.03.12Zm-4.26.1-.24-.07a.379.379 0 0 1 0-.15h.02l.22.22Zm4.26-.24s.03-.04.05-.06l.04.03-.06.05-.03-.02Zm-4.51.02-.06-.05.09.04h-.02Zm10.38-18.2.3-1.16c1.93 0 3.9-.02 5.87.04.16 0 .44.52.44.8.03 2.55.02 5.1.01 7.65-2.21-2.17-4.42-4.33-6.63-6.5l.06-.03c-.01-.04-.03-.07-.05-.11v-.68Z"/><path class="cls-7" d="M53.37 27.83s.04.07.05.11l-.06.03c0-.05 0-.1.01-.14Zm-6.51 33.5.19-.03-.19.03Zm10.7 0 .18-.19c.02.06.03.13.03.19h-.21Zm-10.29-.81Zm2.22-6.25-.4-.04c2.28-2.28 4.56-4.57 6.83-6.85h.06l.13.39s-.08.02-.11.04v.24l.11.36-.12 1.55v.88c-.89.9-1.73 1.84-2.68 2.66-.43.37-1.07.51-1.61.75h-2.21Z"/><path class="cls-7" d="M55.92 47.38c-2.28 2.28-4.56 4.57-6.83 6.85l-.09.02h-.09c.02-.61.03-1.22.05-1.82 1.73-1.73 3.46-3.47 5.18-5.2l1.81-.05-.02.08v.11Zm-4.22 6.9c.54-.24 1.18-.38 1.61-.75.95-.82 1.79-1.77 2.67-2.66l.14.16v1.41c-.02.61-.03 1.23-.05 1.84H51.7Zm-2.82-6.88.42-.22h2.42l.65.07-3.42 3.56-.07-3.41Z"/><path class="cls-7" d="M48.88 47.4c.02 1.14.05 2.27.07 3.41v1.64l-.04 1.82c-.07-.17-.21-.35-.21-.52-.01-1.97-.01-3.93 0-5.9 0-.15.12-.29.19-.44Zm3.48-.16-.65-.07h4.24l-1.81.07h-1.77Zm3.71 7.03c.02-.61.03-1.23.05-1.84.25.62.57 1.24-.05 1.84Zm.04-5.85a4.94 4.94 0 0 1-.11-.36c.02-.03.05-.05.05-.08 0-.06-.03-.11-.05-.17.04-.02.07-.03.11-.04v.65Zm-6.02-1.25Zm6.03 4.48ZM56 50.18v-.2s.04.09.05.14c0 .02-.03.04-.05.06Zm-6.51 4.09Zm6.43-6.89s.01-.08 0-.11l.1.08-.05.05h-.06Zm-17.75 6.88c-1.12.02-2.25.04-3.37.04-.12 0-.23-.17-.35-.26.12-.05.27-.07.36-.16 2.07-2.09 4.14-4.19 6.21-6.28l.51-.18.09-.02-.07.82v1.82s-.05.04-.05.05c.01.04.04.09.06.13v.61c-1.13 1.15-2.25 2.3-3.37 3.44Z"/><path class="cls-7" d="M41.01 47.6c-2.07 2.1-4.14 4.19-6.21 6.28-.09.09-.24.11-.36.16 0-.52 0-1.03.01-1.55 1.72-1.7 3.44-3.39 5.16-5.09l1.4.2Z"/><path class="cls-7" d="M39.62 47.4c-1.72 1.7-3.44 3.39-5.16 5.09l.06-1.84c1.15-1.14 2.31-2.27 3.46-3.41l.8-.06h.41l.42.06v.16Zm-1.45 6.86c1.12-1.15 2.25-2.3 3.37-3.44l.08.41v2.42c-.21.22-.41.62-.63.63-.94.05-1.88 0-2.82-.02Z"/><path class="cls-7" d="M37.98 47.24c-1.15 1.14-2.31 2.27-3.46 3.41-.02-.97-.05-1.93-.04-2.9 0-.19.18-.38.27-.58h1.62l1.61.07Zm3.64 3.99-.08-.41v-.61c.05-.06.05-.12 0-.18v-1.82l.07-.82v3.83Zm-2-3.83c0-.05-.01-.11 0-.16l1.99.03s-.05.1-.08.15l-.51.18-1.4-.2Zm1.98-.14-1.99-.03-.42-.06 2.41.09Zm-3.62-.02-1.61-.07h2.41l-.8.07Zm3.64 6.41Zm-5.67-6.48Zm20.05.65c.02.06.04.11.05.17 0 .02-.03.05-.05.08v-.24Zm-3.64-.58h1.77c-1.73 1.73-3.46 3.46-5.18 5.2V50.8c1.13-1.19 2.27-2.37 3.41-3.56Zm-10.82.97Z"/><path class="cls-7" d="M41.54 50.03c.04.06.04.12 0 .18-.02-.04-.04-.08-.06-.13 0-.01.04-.03.06-.05Z"/></g><path class="cls-7" d="M22.54 58.56c-.02-.09-.02-.21-.08-.27-1.81-1.66-2.38-3.88-2.71-6.17-.43-3.08-.15-6.1 1.18-8.95.57-1.22 1.32-2.31 2.75-2.67.18-.05.37-.03.56-.05v17.61c0 .3.09.6.13.9-.23 0-.46.02-.69.03l-1.15-.43Z"/><path class="cls-7" d="M23.67 62.67c0-1.28 0-2.56.01-3.84.25 0 .5-.02.75-.03.16 0 .31 0 .47-.01v3.9l-1.23-.02Zm40.16.46V43.58c1.59.46 1.69.64 1.6 2.85 2.77.57 3.56 1.92 2.59 4.45 2.9 1.59 3.22 3.25.97 5.41 1.5 1.33 2.16 2.89 1.19 4.83l-.26.39c-.04.07-.08.15-.13.22h.01l-.6.54-.28.25c-.27.12-.54.23-.81.35l-1.63.27h-2.66Zm6.15.33v.86H20.74v-1h48.41c.28 0 .55.09.83.14Z"/><path class="cls-7" d="M69.98 63.46c-.28-.05-.55-.14-.83-.14H20.74v-.6l.09-.37.17-.04c.18 0 .37 0 .55-.01h.43c.05 0 .09-.01.13-.04l1.59-.09 1.14.02h1.85l.25.09c.31-.01.61-.04.92-.04h16.66c.28 0 .57-.03.85-.04h.59l.29.07.05.02.04-.02.6-.08h18.65c.6.03 1.19.06 1.79.08h2.4s.08.03.1.07l.07.12v1Z"/><path class="cls-7" d="m23.7 62.18-1.59.09v-.29c-.9-1.33-.76-2.59.45-4.08.38.14.77.29 1.15.43 0 1.28 0 2.56-.01 3.84Zm1.14.01v-3.9c.43-.26.86-.52 1.3-.76.16-.09.34-.14.5-.2 0 1.62.01 3.24.02 4.86h-1.83Z"/><path class="cls-7" d="M24.38 58.96c-.05-.3-.13-.6-.13-.9V40.45c.87-.1 1.49.39 2.12.87.1.33.27.65.28.98.03 1.78.02 3.56.01 5.35 0 3.45-.02 6.89-.03 10.34-.17.07-.35.12-.5.2-.44.25-.87.51-1.3.76h-.44Z"/><g id="fIuL8l"><path class="cls-7" d="M65.99 71.92c-.99.06-1.96-.07-2.9-.37a8.516 8.516 0 0 1-4.26-2.95 8.485 8.485 0 0 1-1.73-4.17c-.17-1.37-.04-2.7.43-4 .58-1.61 1.56-2.93 2.92-3.97a8.373 8.373 0 0 1 3.93-1.65 8.56 8.56 0 0 1 4.28.46c1.59.6 2.89 1.59 3.9 2.95a8.35 8.35 0 0 1 1.64 4.35c.04.46 0 .93 0 1.4-.03-.13.04-.27-.1-.4-.37-.33-.71-.69-1.06-1.04-.32-.32-.63-.64-.94-.95l-1.24-1.24c-.19-.18-.38-.35-.57-.53-.08-.1-.16-.2-.25-.3l-.88-.91-3.56 3.58-3.48-3.49-1.16 1.14 3.53 3.51-3.54 3.52c.37.37.72.72 1.07 1.06.02.02.06.03.09.05.04.06.07.13.12.17.4.4.81.79 1.21 1.19.51.51 1.01 1.02 1.51 1.53.34.35.68.7 1.03 1.05Z"/><path class="cls-7" d="M65.99 71.92c-.34-.35-.68-.7-1.03-1.05-.5-.51-1.01-1.02-1.51-1.53-.4-.4-.81-.79-1.21-1.19-.05-.05-.08-.12-.12-.17.46-.46.92-.93 1.39-1.39.54-.53 1.07-1.06 1.61-1.6.1 0 .25.09.24-.13 0-.02.05-.04.08-.06.08-.04.16-.08.27-.13l.27.27c.09.08.14.22.3.19.03.02.06.04.08.07l1.8 1.8c.33.33.65.67.97.99l1.14-1.14-3.52-3.51 3.51-3.53c.19.18.39.35.57.53.42.41.83.82 1.24 1.24.32.32.63.64.94.95.35.35.69.71 1.06 1.04.14.13.07.26.1.4a8.084 8.084 0 0 1-1.27 3.9c-1.5 2.34-3.65 3.68-6.41 4.01-.18.02-.36.02-.53.03Z"/><path class="cls-7" d="M65.12 64.99c-.54.53-1.07 1.06-1.61 1.6-.46.46-.92.93-1.39 1.39-.03-.01-.07-.02-.09-.05-.35-.35-.7-.69-1.07-1.06l3.54-3.52-3.53-3.51 1.16-1.14 3.48 3.49 3.56-3.58.88.91c.09.09.17.2.25.3l-3.51 3.53 3.52 3.51L69.17 68c-.32-.33-.64-.66-.97-.99l-1.8-1.8c-.03-.03-.06-.04-.08-.07l-.67-.62-.5.47Z"/><path class="cls-7" d="m65.12 64.99.5-.47.67.62c-.16.03-.21-.11-.3-.19-.1-.09-.19-.19-.27-.27-.11.05-.19.09-.27.13-.03.02-.08.04-.08.06 0 .22-.14.12-.24.13Z"/></g><circle cx="45.78" cy="45.78" r="45.78" style="fill:#f6e7d7"/><g id="_ouQk4-2"><path d="M26.67 59.73c0-4.58 0-9.16-.01-13.75.25-.15.53-.27.75-.46 1.35-1.2 2.7-2.41 4.04-3.63 4.25-3.9 8.49-7.81 12.73-11.72.84-.78 1.3-.78 2.14 0 1.81 1.69 3.63 3.38 5.47 5.06 3.74 3.42 7.48 6.82 11.23 10.22.24.22.54.35.82.53v13.74c-2 0-4 0-6-.01-.01-.5-.03-1-.03-1.5-.02-3.81-.03-7.62-.04-11.43l.06-.6-.03-.61h-9.09l-1.19-.11s.03-.08.03-.12l.06-.05-.04-.03s-.03.04-.05.06l-.23.21-.02.02s-.08.03-.08.05c0 .05.02.11.03.16l.07 1.21v12.32l-.09.4c-6.83 0-13.67.01-20.5.02ZM43 45.34l-.09-.04.06.05c-.01.05-.01.1 0 .15l.03.06H32.91l-.18 1.22v9.28h10.29l.21-.18v-10.3l-.23-.23Z" style="fill:#f0e9e4"/><path d="M26.47 43.75c-.2.17-.43.33-.6.53-.64.71-1.2.64-1.87-.03-1.77-1.77-1.77-1.74.02-3.46 6.62-6.37 13.24-12.75 19.86-19.12 1.36-1.31 1.39-1.31 2.75 0 1.89 1.82 3.78 3.64 5.68 5.46.23.22.47.44.78.72.09-.77.16-1.41.24-2.05.02.45.03.9.05 1.35v.68s-.01.1 0 .14c2.21 2.17 4.42 4.33 6.63 6.5.05-.01.11-.01.15-.03.02 0 .02-.06.02-.09.01-2.84.02-5.68.04-8.52.03 2.61.1 5.22.07 7.83 0 .84.22 1.43.85 2.01 2.07 1.91 4.09 3.88 6.12 5.83.88.84.87 1.12.03 1.97l-.14.14c-1.51 1.5-1.39 1.67-3.09.15-.29-.27-.59-.54-.88-.81-5.66-5.17-11.32-10.34-16.96-15.52-.63-.58-1.13-.69-1.81-.07-5.96 5.48-11.94 10.94-17.91 16.41Z" style="fill:#dd5366"/><path d="M26.47 43.75c5.97-5.47 11.95-10.93 17.91-16.41.68-.62 1.18-.51 1.81.07 5.64 5.19 11.3 10.35 16.96 15.52.29.27.59.54.88.81-.07.75-.13 1.49-.2 2.24-.27-.17-.58-.31-.82-.53-3.75-3.4-7.49-6.81-11.23-10.22-1.83-1.67-3.65-3.36-5.47-5.06-.84-.78-1.29-.78-2.14 0-4.24 3.91-8.48 7.82-12.73 11.72-1.33 1.22-2.68 2.43-4.04 3.63-.22.19-.5.31-.75.46-.07-.75-.13-1.49-.2-2.24Z" style="fill:#ded2cb"/><path d="M25.46 63.12c-.24-.33-.72-.74-.65-.97.11-.33.6-.58.97-.76.25-.12.58-.05.88-.07 1.27.02 2.54.05 3.82.05 5.46 0 10.92-.03 16.38-.04l.19-.03.09.02h16.68c.3.02.63-.05.88.07.38.18.86.43.97.76.07.23-.41.64-.65.97h-.19c-.37.02-.74.04-1.11.04H26.74c-.37 0-.74-.02-1.11-.04h-.19Z" style="fill:#6f483a"/><path class="cls-29" d="M46.86 61.33c-5.46.02-10.92.03-16.38.04-1.27 0-2.54-.03-3.82-.05 0-.53 0-1.07.01-1.6 6.83 0 13.67-.01 20.5-.02l.09.82v.6c-.02.06-.04.12-.04.19h-.17l-.19.02Z"/><path class="cls-32" d="M63.83 61.33h-6.05c0-.07-.01-.13-.03-.19l.08-1.43c2 0 4 0 6 .01v1.6Z"/><path class="cls-18" d="M53.36 27.15c-.02-.45-.03-.9-.05-1.35l6.88.03c-.01 2.84-.02 5.68-.04 8.52 0 .03 0 .08-.02.09-.05.02-.1.02-.15.03 0-2.55.02-5.1-.01-7.65 0-.28-.28-.79-.44-.8-1.97-.06-3.94-.04-5.87-.04l-.3 1.16Z"/><path d="M25.46 63.12h.19l-.1.03-.09-.03Zm39.38.01h.19l-.09.02-.1-.02Z" style="fill:#592b1d"/><path d="m57.82 59.71-.08 1.43-.18.19c-3.44 0-6.89 0-10.33-.01 0-.07.01-.13.04-.19v-.6l-.1-.82.09-.4V46.99l.33-1.09 1.09-.34h8.27l.8 1.22c.01 3.81.03 7.62.04 11.43 0 .5.02 1 .03 1.5Zm-1.89-12.44.02-.08h-4.24l-1.63-.02h-.8l-.42.22c-.06.15-.18.29-.19.44-.01 1.97-.01 3.93 0 5.9 0 .17.14.35.21.52h.09l.09-.02.4.04h6.59c.61-.6.3-1.22.05-1.85v-1.41l-.13-.16v-.68s.06-.05.06-.06c-.01-.05-.04-.1-.06-.14l.12-1.55v-.65l-.13-.38.05-.05-.1-.08Z" style="fill:#955e4a"/><path d="M43.23 46.99v8.88l-.2.18h-9.1l-.88-.3-.3-.88v-8.1l.19-1 .61-.23h8.27l1.22.22.2 1.21Zm-1.63.27-2.41-.09h-4.44c-.09.19-.27.38-.27.57-.01.97.02 1.93.04 2.9l-.06 1.84v1.55c.1.09.22.26.34.26 1.12 0 2.25-.02 3.37-.04.94.02 1.88.08 2.82.02.22-.01.42-.41.64-.63v-6.26l-.1.02s.05-.1.08-.15Z" style="fill:#955f4c"/><path class="cls-13" d="m48.69 45.56-1.09.34-.33 1.09-.07-1.21.04-.21.02-.02.24-.07 1.19.09Z"/><path class="cls-39" d="m32.74 54.88.3.88.88.3h-1.18v-1.18Z"/><path class="cls-13" d="m57.75 46.78-.8-1.22h.82l.03.62-.06.6Z"/><path class="cls-39" d="M43.23 46.99c-.07-.4-.14-.81-.2-1.21v-.22l-.04-.06.24.07v1.42Z"/><path class="cls-19" d="M43.02 45.56v.22c-.4-.07-.81-.15-1.21-.22h1.21Z"/><path class="cls-39" d="m32.93 45.78-.19 1 .18-1.22v.22Z"/><path class="cls-13" d="M47.26 58.3Z"/><path class="cls-32" d="m57.8 46.18-.03-.61.03.61Z"/><path class="cls-39" d="M42.02 56.06Z"/><path class="cls-19" d="M32.93 45.78v-.22h.61l-.61.22Z"/><path class="cls-39" d="M43.23 54.87Zm0 .6Z"/><path class="cls-29" d="m47.24 45.56-.04.21c-.01-.05-.03-.11-.03-.16 0-.02.05-.03.08-.05Z"/><path class="cls-39" d="m43.03 56.06.21-.18-.21.18Z"/><path class="cls-29" d="m47.49 45.47-.24.07.23-.21.03.02s0 .08-.03.12Z"/><path d="m43.23 45.57-.24-.07a.379.379 0 0 1 0-.15h.02l.22.22Z" style="fill:#c3a799"/><path d="M47.49 45.33s.03-.04.05-.06l.04.03-.06.05-.03-.02Zm-4.51.02-.06-.05.09.04h-.02Z" style="fill:#f8f5f1"/><path d="m53.36 27.15.3-1.16c1.93 0 3.9-.02 5.87.04.16 0 .44.52.44.8.03 2.55.02 5.1.01 7.65-2.21-2.17-4.42-4.33-6.63-6.5l.06-.03c-.01-.04-.03-.07-.05-.11v-.68Z" style="fill:#bb4351"/><path class="cls-18" d="M53.37 27.83s.04.07.05.11l-.06.03c0-.05 0-.1.01-.14Z"/><path d="m46.86 61.33.19-.03-.19.03Z" style="fill:#ebe0da"/><path class="cls-13" d="m57.56 61.33.18-.19c.02.06.03.13.03.19h-.21Zm-10.29-.81Z"/><path class="cls-34" d="m49.49 54.27-.4-.04c2.28-2.28 4.56-4.57 6.83-6.85h.06l.13.39s-.08.02-.11.04v.24l.11.36-.12 1.55v.88c-.89.9-1.73 1.84-2.68 2.66-.43.37-1.07.51-1.61.75h-2.21Z"/><path class="cls-24" d="M55.92 47.38c-2.28 2.28-4.56 4.57-6.83 6.85l-.09.02h-.09c.02-.61.03-1.22.05-1.82 1.73-1.73 3.46-3.47 5.18-5.2l1.81-.05-.02.08v.11Z"/><path class="cls-23" d="M51.7 54.28c.54-.24 1.18-.38 1.61-.75.95-.82 1.79-1.77 2.67-2.66l.14.16v1.41c-.02.61-.03 1.23-.05 1.84H51.7Z"/><path d="m48.88 47.4.42-.22h2.42l.65.07-3.42 3.56-.07-3.41Z" style="fill:#afd4e0"/><path class="cls-17" d="M48.88 47.4c.02 1.14.05 2.27.07 3.41v1.64l-.04 1.82c-.07-.17-.21-.35-.21-.52-.01-1.97-.01-3.93 0-5.9 0-.15.12-.29.19-.44Z"/><path class="cls-15" d="m52.36 47.24-.65-.07h4.24l-1.81.07h-1.77Z"/><path class="cls-9" d="M56.07 54.27c.02-.61.03-1.23.05-1.84.25.62.57 1.24-.05 1.84Zm.04-5.85a4.94 4.94 0 0 1-.11-.36c.02-.03.05-.05.05-.08 0-.06-.03-.11-.05-.17.04-.02.07-.03.11-.04v.65Z"/><path class="cls-15" d="M50.09 47.17Z"/><path class="cls-9" d="M56.12 51.65Z"/><path class="cls-23" d="M56 50.18v-.2s.04.09.05.14c0 .02-.03.04-.05.06Zm-6.51 4.09Zm6.43-6.89s.01-.08 0-.11l.1.08-.05.05h-.06Z"/><path class="cls-34" d="M38.17 54.26c-1.12.02-2.25.04-3.37.04-.12 0-.23-.17-.35-.26.12-.05.27-.07.36-.16 2.07-2.09 4.14-4.19 6.21-6.28l.51-.18.09-.02-.07.82v1.82s-.05.04-.05.05c.01.04.04.09.06.13v.61c-1.13 1.15-2.25 2.3-3.37 3.44Z"/><path d="M41.01 47.6c-2.07 2.1-4.14 4.19-6.21 6.28-.09.09-.24.11-.36.16 0-.52 0-1.03.01-1.55 1.72-1.7 3.44-3.39 5.16-5.09l1.4.2Z" style="fill:#add8e7"/><path d="M39.62 47.4c-1.72 1.7-3.44 3.39-5.16 5.09l.06-1.84c1.15-1.14 2.31-2.27 3.46-3.41l.8-.06h.41l.42.06v.16Z" style="fill:#f9fafa"/><path class="cls-33" d="M38.17 54.26c1.12-1.15 2.25-2.3 3.37-3.44l.08.41v2.42c-.21.22-.41.62-.63.63-.94.05-1.88 0-2.82-.02Z"/><path class="cls-24" d="M37.98 47.24c-1.15 1.14-2.31 2.27-3.46 3.41-.02-.97-.05-1.93-.04-2.9 0-.19.18-.38.27-.58h1.62l1.61.07Z"/><path class="cls-17" d="m41.62 51.23-.08-.41v-.61c.05-.06.05-.12 0-.18v-1.82l.07-.82v3.83Z"/><path class="cls-33" d="M39.62 47.4c0-.05-.01-.11 0-.16l1.99.03s-.05.1-.08.15l-.51.18-1.4-.2Z"/><path class="cls-15" d="m41.6 47.26-1.99-.03-.42-.06 2.41.09Zm-3.62-.02-1.61-.07h2.41l-.8.07Z"/><path class="cls-17" d="M41.62 53.65Z"/><path class="cls-15" d="M35.95 47.17Z"/><path class="cls-23" d="M56 47.82c.02.06.04.11.05.17 0 .02-.03.05-.05.08v-.24Z"/><path d="M52.36 47.24h1.77c-1.73 1.73-3.46 3.46-5.18 5.2V50.8c1.13-1.19 2.27-2.37 3.41-3.56Z" style="fill:#f9f7f6"/><path class="cls-33" d="M41.54 48.21Zm0 1.82c.04.06.04.12 0 .18-.02-.04-.04-.08-.06-.13 0-.01.04-.03.06-.05Z"/></g><path d="M22.54 58.56c-.02-.09-.02-.21-.08-.27-1.81-1.66-2.38-3.88-2.71-6.17-.43-3.08-.15-6.1 1.18-8.95.57-1.22 1.32-2.31 2.75-2.67.18-.05.37-.03.56-.05v17.61c0 .3.09.6.13.9-.23 0-.46.02-.69.03l-1.15-.43Z" style="fill:#b8d375"/><path d="M23.67 62.67c0-1.28 0-2.56.01-3.84.25 0 .5-.02.75-.03.16 0 .31 0 .47-.01v3.9l-1.23-.02Z" style="fill:#786148"/><path d="M63.83 63.13V43.58c1.59.46 1.69.64 1.6 2.85 2.77.57 3.56 1.92 2.59 4.45 2.9 1.59 3.22 3.25.97 5.41 1.5 1.33 2.16 2.89 1.19 4.83l-.26.39c-.04.07-.08.15-.13.22h.01l-.6.54-.28.25c-.27.12-.54.23-.81.35l-1.63.27h-2.66Z" style="fill:#acc456"/><path d="M69.98 63.46v.86H20.74v-1h48.41c.28 0 .55.09.83.14Z" style="fill:#80934d"/><path d="M69.98 63.46c-.28-.05-.55-.14-.83-.14H20.74v-.6l.09-.37.17-.04c.18 0 .37 0 .55-.01h.43c.05 0 .09-.01.13-.04l1.59-.09 1.14.02h1.85l.25.09c.31-.01.61-.04.92-.04h16.66c.28 0 .57-.03.85-.04h.59l.29.07.05.02.04-.02.6-.08h18.65c.6.03 1.19.06 1.79.08h2.4s.08.03.1.07l.07.12v1Z" style="fill:#8cb052"/><path d="m23.7 62.18-1.59.09v-.29c-.9-1.33-.76-2.59.45-4.08.38.14.77.29 1.15.43 0 1.28 0 2.56-.01 3.84Zm1.14.01v-3.9c.43-.26.86-.52 1.3-.76.16-.09.34-.14.5-.2 0 1.62.01 3.24.02 4.86h-1.83Z" style="fill:#90a34d"/><path d="M24.38 58.96c-.05-.3-.13-.6-.13-.9V40.45c.87-.1 1.49.39 2.12.87.1.33.27.65.28.98.03 1.78.02 3.56.01 5.35 0 3.45-.02 6.89-.03 10.34-.17.07-.35.12-.5.2-.44.25-.87.51-1.3.76h-.44Z" style="fill:#a8c858"/><g id="fIuL8l-2"><path d="M65.99 71.92c-.99.06-1.96-.07-2.9-.37a8.516 8.516 0 0 1-4.26-2.95 8.485 8.485 0 0 1-1.73-4.17c-.17-1.37-.04-2.7.43-4 .58-1.61 1.56-2.93 2.92-3.97a8.373 8.373 0 0 1 3.93-1.65 8.56 8.56 0 0 1 4.28.46c1.59.6 2.89 1.59 3.9 2.95a8.35 8.35 0 0 1 1.64 4.35c.04.46 0 .93 0 1.4-.03-.13.04-.27-.1-.4-.37-.33-.71-.69-1.06-1.04-.32-.32-.63-.64-.94-.95l-1.24-1.24c-.19-.18-.38-.35-.57-.53-.08-.1-.16-.2-.25-.3l-.88-.91-3.56 3.58-3.48-3.49-1.16 1.14 3.53 3.51-3.54 3.52c.37.37.72.72 1.07 1.06.02.02.06.03.09.05.04.06.07.13.12.17.4.4.81.79 1.21 1.19.51.51 1.01 1.02 1.51 1.53.34.35.68.7 1.03 1.05Z" style="fill:#dc4f47"/><path d="M65.99 71.92c-.34-.35-.68-.7-1.03-1.05-.5-.51-1.01-1.02-1.51-1.53-.4-.4-.81-.79-1.21-1.19-.05-.05-.08-.12-.12-.17.46-.46.92-.93 1.39-1.39.54-.53 1.07-1.06 1.61-1.6.1 0 .25.09.24-.13 0-.02.05-.04.08-.06.08-.04.16-.08.27-.13l.27.27c.09.08.14.22.3.19.03.02.06.04.08.07l1.8 1.8c.33.33.65.67.97.99l1.14-1.14-3.52-3.51 3.51-3.53c.19.18.39.35.57.53.42.41.83.82 1.24 1.24.32.32.63.64.94.95.35.35.69.71 1.06 1.04.14.13.07.26.1.4a8.084 8.084 0 0 1-1.27 3.9c-1.5 2.34-3.65 3.68-6.41 4.01-.18.02-.36.02-.53.03Z" style="fill:#a4372e"/><path d="M65.12 64.99c-.54.53-1.07 1.06-1.61 1.6-.46.46-.92.93-1.39 1.39-.03-.01-.07-.02-.09-.05-.35-.35-.7-.69-1.07-1.06l3.54-3.52-3.53-3.51 1.16-1.14 3.48 3.49 3.56-3.58.88.91c.09.09.17.2.25.3l-3.51 3.53 3.52 3.51L69.17 68c-.32-.33-.64-.66-.97-.99l-1.8-1.8c-.03-.03-.06-.04-.08-.07l-.67-.62-.5.47Z" style="fill:#fcf8f6"/><path d="m65.12 64.99.5-.47.67.62c-.16.03-.21-.11-.3-.19-.1-.09-.19-.19-.27-.27-.11.05-.19.09-.27.13-.03.02-.08.04-.08.06 0 .22-.14.12-.24.13Z" style="fill:#9a3b39"/></g></g></svg>
