<svg id="Layer_2" xmlns="http://www.w3.org/2000/svg" viewBox="0 0 91.56 91.56"><defs><style>.cls-3{fill:#f3c5a7}.cls-6{fill:#fff}.cls-7{fill:#fafaf9}</style></defs><g id="Layer_1-2"><circle class="cls-7" cx="45.78" cy="45.78" r="45.78"/><circle class="cls-7" cx="45.78" cy="45.78" r="45.78"/><path class="cls-7" d="m48.55 57.31-19.92-6.22V26.01l19.92 6.1v25.2zm18.87-6.22-18.87 6.17V32.19l18.87-6.18v25.08z"/><path class="cls-7" d="m48.55 32.19-19.92-6.23 19.92-6.8 18.87 6.85-18.87 6.18z"/><path class="cls-7" d="m60.62 33.31-4.2 1.2.06-5.11 4.14-1.19v5.1z"/><path class="cls-7" d="m56.27 29.63-18.39-6.86 4.24-1.45 18.5 6.88-4.35 1.43z"/><g id="Etl7W6"><path class="cls-7" d="M48.2 65.54h2.29c1.34 0 2.67.03 4.01-.01 1.43-.05 2.43-.94 2.49-2.15.07-1.26-.9-2.36-2.38-2.38-4.17-.06-8.35-.12-12.52.05-1.1.04-2.35.71-3.2 1.46-1.93 1.72-3.64 3.68-5.47 5.51-.54.54-.53.93 0 1.45 2 1.96 3.95 3.96 5.96 5.91.23.22.9.39 1.01.27 1.52-1.72 3.65-1.49 5.58-1.78 4.41-.66 8.85-1.13 13.26-1.84 1.03-.17 2.18-.77 2.88-1.54 2.64-2.9 5.14-5.93 7.64-8.95.3-.36.55-1.07.38-1.42-.17-.37-.84-.63-1.32-.7-1.34-.19-2.54.15-3.59 1.08-1.84 1.63-3.69 3.27-5.61 4.8-.6.47-1.47.82-2.22.84-2.79.1-5.59.04-8.39.03-.27 0-.53-.1-.8-.15v-.48Zm-22.46 5.92c1.14-1.16 2.29-2.31 3.45-3.45.63-.61 1.25-.51 1.85.09 3.12 3.13 6.24 6.26 9.37 9.38.77.76.68 1.42-.06 2.13-.99.95-1.99 1.91-2.91 2.93-.63.7-1.07.66-1.72 0-3.22-3.27-6.47-6.5-9.71-9.75-.23-.23-.41-.5-.64-.79.14-.21.23-.4.37-.54Zm11.3 8.36c.28-.02.64-.45.75-.77.05-.16-.39-.67-.63-.68-.31-.01-.63.31-1.19.61.5.41.8.85 1.07.83Z"/><path class="cls-7" d="M57.09 65.56c.57-.1 1.12-.03 1.4-.27 2.44-2.05 4.83-4.16 7.33-6.34-1.1-1.03-2.34-.93-3.26-.33-1.66 1.07-3.26 2.32-4.61 3.75-.61.65-.55 1.92-.87 3.19Zm3.28-6.4c-1.29-.4-3.2.37-3.61 1.39-.08.2.03.61.19.72.21.14.56.11.84.08.14-.01.26-.18.39-.29.68-.59 1.36-1.19 2.18-1.9ZM35.98 78.99c.5.41.8.85 1.07.83.28-.02.64-.45.75-.77.05-.16-.39-.67-.63-.68-.31-.01-.63.31-1.19.61Z"/></g><circle class="cls-7" cx="36.88" cy="79.1" r="1.07"/><path class="cls-7" d="M22.78 17.28c.35 2.61 1.24 4.7 4.36 4.91-1.28.14-2.4.49-3.18 1.54-.74 1-.99 2.16-1.09 3.37h-.09c-.03-.24-.06-.49-.1-.73-.2-1.3-.63-2.49-1.71-3.34-.64-.5-1.4-.68-2.2-.73-.08 0-.15-.07-.23-.1.07-.04.13-.13.2-.13 2.4-.09 3.42-1.73 3.8-3.38.09-.39.13-.8.2-1.19.01-.07.03-.15.05-.22Zm-3.34 36.26c.21 1.55.73 2.79 2.59 2.91-.76.08-1.42.29-1.89.91-.44.59-.59 1.28-.65 2h-.05l-.06-.43c-.12-.77-.37-1.48-1.02-1.98-.38-.3-.83-.4-1.3-.43-.05 0-.09-.04-.14-.06.04-.03.08-.07.12-.08 1.42-.05 2.03-1.02 2.26-2 .05-.23.08-.47.12-.71 0-.04.02-.09.03-.13Zm48.71-41.08c.21 1.55.73 2.79 2.59 2.91-.76.08-1.42.29-1.89.91-.44.59-.59 1.28-.65 2h-.05l-.06-.43c-.12-.77-.37-1.48-1.02-1.98-.38-.3-.83-.4-1.3-.43-.05 0-.09-.04-.14-.06.04-.03.08-.07.12-.08 1.42-.05 2.03-1.02 2.26-2 .05-.23.08-.47.12-.71 0-.04.02-.09.03-.13Zm5.23 35.03c.35 2.61 1.24 4.7 4.36 4.91-1.28.14-2.4.49-3.18 1.54-.74 1-.99 2.16-1.09 3.37h-.09c-.03-.24-.06-.49-.1-.73-.2-1.3-.63-2.49-1.71-3.34-.64-.5-1.4-.68-2.2-.73-.08 0-.15-.07-.23-.1.07-.04.13-.13.2-.13 2.4-.09 3.42-1.73 3.8-3.38.09-.39.13-.8.2-1.19.01-.07.03-.15.05-.22Z"/><circle cx="45.78" cy="45.78" r="45.78" style="fill:#f7e1de"/><path style="fill:#deb36c" d="m48.55 57.31-19.92-6.22V26.01l19.92 6.1v25.2z"/><path style="fill:#d4913f" d="m67.42 51.09-18.87 6.17V32.19l18.87-6.18v25.08z"/><path style="fill:#ebc892" d="m48.55 32.19-19.92-6.23 19.92-6.8 18.87 6.85-18.87 6.18z"/><path style="fill:#f3d5a4" d="m60.62 33.31-4.2 1.2.06-5.11 4.14-1.19v5.1z"/><path style="fill:#f9f1e3" d="m56.27 29.63-18.39-6.86 4.24-1.45 18.5 6.88-4.35 1.43z"/><g id="Etl7W6-2"><path class="cls-3" d="M48.2 65.54h2.29c1.34 0 2.67.03 4.01-.01 1.43-.05 2.43-.94 2.49-2.15.07-1.26-.9-2.36-2.38-2.38-4.17-.06-8.35-.12-12.52.05-1.1.04-2.35.71-3.2 1.46-1.93 1.72-3.64 3.68-5.47 5.51-.54.54-.53.93 0 1.45 2 1.96 3.95 3.96 5.96 5.91.23.22.9.39 1.01.27 1.52-1.72 3.65-1.49 5.58-1.78 4.41-.66 8.85-1.13 13.26-1.84 1.03-.17 2.18-.77 2.88-1.54 2.64-2.9 5.14-5.93 7.64-8.95.3-.36.55-1.07.38-1.42-.17-.37-.84-.63-1.32-.7-1.34-.19-2.54.15-3.59 1.08-1.84 1.63-3.69 3.27-5.61 4.8-.6.47-1.47.82-2.22.84-2.79.1-5.59.04-8.39.03-.27 0-.53-.1-.8-.15v-.48Z"/><path d="M25.74 71.46c1.14-1.16 2.29-2.31 3.45-3.45.63-.61 1.25-.51 1.85.09 3.12 3.13 6.24 6.26 9.37 9.38.77.76.68 1.42-.06 2.13-.99.95-1.99 1.91-2.91 2.93-.63.7-1.07.66-1.72 0-3.22-3.27-6.47-6.5-9.71-9.75-.23-.23-.41-.5-.64-.79.14-.21.23-.4.37-.54Zm11.3 8.36c.28-.02.64-.45.75-.77.05-.16-.39-.67-.63-.68-.31-.01-.63.31-1.19.61.5.41.8.85 1.07.83Z" style="fill:#655d58"/><path class="cls-3" d="M57.09 65.56c.57-.1 1.12-.03 1.4-.27 2.44-2.05 4.83-4.16 7.33-6.34-1.1-1.03-2.34-.93-3.26-.33-1.66 1.07-3.26 2.32-4.61 3.75-.61.65-.55 1.92-.87 3.19Zm3.28-6.4c-1.29-.4-3.2.37-3.61 1.39-.08.2.03.61.19.72.21.14.56.11.84.08.14-.01.26-.18.39-.29.68-.59 1.36-1.19 2.18-1.9Z"/><path class="cls-6" d="M35.98 78.99c.5.41.8.85 1.07.83.28-.02.64-.45.75-.77.05-.16-.39-.67-.63-.68-.31-.01-.63.31-1.19.61Z"/></g><circle class="cls-6" cx="36.88" cy="79.1" r="1.07"/><path class="cls-6" d="M22.78 17.28c.35 2.61 1.24 4.7 4.36 4.91-1.28.14-2.4.49-3.18 1.54-.74 1-.99 2.16-1.09 3.37h-.09c-.03-.24-.06-.49-.1-.73-.2-1.3-.63-2.49-1.71-3.34-.64-.5-1.4-.68-2.2-.73-.08 0-.15-.07-.23-.1.07-.04.13-.13.2-.13 2.4-.09 3.42-1.73 3.8-3.38.09-.39.13-.8.2-1.19.01-.07.03-.15.05-.22Zm-3.34 36.26c.21 1.55.73 2.79 2.59 2.91-.76.08-1.42.29-1.89.91-.44.59-.59 1.28-.65 2h-.05l-.06-.43c-.12-.77-.37-1.48-1.02-1.98-.38-.3-.83-.4-1.3-.43-.05 0-.09-.04-.14-.06.04-.03.08-.07.12-.08 1.42-.05 2.03-1.02 2.26-2 .05-.23.08-.47.12-.71 0-.04.02-.09.03-.13Zm48.71-41.08c.21 1.55.73 2.79 2.59 2.91-.76.08-1.42.29-1.89.91-.44.59-.59 1.28-.65 2h-.05l-.06-.43c-.12-.77-.37-1.48-1.02-1.98-.38-.3-.83-.4-1.3-.43-.05 0-.09-.04-.14-.06.04-.03.08-.07.12-.08 1.42-.05 2.03-1.02 2.26-2 .05-.23.08-.47.12-.71 0-.04.02-.09.03-.13Zm5.23 35.03c.35 2.61 1.24 4.7 4.36 4.91-1.28.14-2.4.49-3.18 1.54-.74 1-.99 2.16-1.09 3.37h-.09c-.03-.24-.06-.49-.1-.73-.2-1.3-.63-2.49-1.71-3.34-.64-.5-1.4-.68-2.2-.73-.08 0-.15-.07-.23-.1.07-.04.13-.13.2-.13 2.4-.09 3.42-1.73 3.8-3.38.09-.39.13-.8.2-1.19.01-.07.03-.15.05-.22Z"/></g></svg>
