<svg id="Layer_2" xmlns="http://www.w3.org/2000/svg" viewBox="0 0 91.56 91.56"><defs><style>.cls-3{fill:#efba9c}.cls-6{fill:#fafaf9}</style></defs><g id="Layer_1-2"><circle class="cls-6" cx="45.78" cy="45.78" r="45.78"/><circle class="cls-6" cx="45.78" cy="45.78" r="45.78"/><g id="gWei2z"><path class="cls-6" d="M58.15 30.69c.95 1.06.92 2.34.68 3.61-.25 1.38-.9 2.47-2.44 2.75-.12.02-.27.17-.31.29-.73 2.04-1.78 3.9-3.19 5.55-.04.05-.04.12-.06.19-.68.5-1.33 1.05-2.04 1.5-2.51 1.57-5.11 1.66-7.69.24-.9-.5-1.67-1.23-2.5-1.86-.49-.69-1.04-1.35-1.46-2.09-.62-1.1-1.13-2.27-1.71-3.39-.09-.18-.29-.39-.47-.43-1.04-.2-1.64-.93-2.01-1.81-.63-1.5-.69-3.02.24-4.46.06-.09.09-.2.14-.3.03.08.07.15.09.23.45 1.44.89 2.88 1.36 4.31.12.37.41.52.85.38.46-.14.45-.44.43-.82-.1-1.9-.22-3.81-.24-5.71 0-1.02.25-2.02.73-3 5.33 3.4 11.09 3.63 17.08 2.54.05.56.14 1.02.12 1.47-.07 1.62-.2 3.24-.26 4.86 0 .2.16.54.31.58.24.07.61.02.8-.13.22-.18.35-.5.44-.79.39-1.23.75-2.47 1.12-3.71Z"/><path class="cls-6" d="M58.15 30.69c-.37 1.24-.73 2.48-1.12 3.71-.09.29-.22.61-.44.79-.19.15-.55.2-.8.13-.15-.04-.32-.38-.31-.58.07-1.62.19-3.24.26-4.86.02-.45-.07-.91-.12-1.47-5.98 1.09-11.75.86-17.08-2.54-.48.98-.73 1.98-.73 3 .01 1.9.14 3.81.24 5.71.02.38.03.67-.43.82-.43.14-.73-.02-.85-.38-.47-1.43-.91-2.87-1.36-4.31-.03-.08-.06-.16-.09-.23-.38-2.17-.4-4.32.16-6.46 1.15-4.42 4.83-7.64 9.36-8.22 3.56-.46 6.82.26 9.62 2.59 2.57 2.13 3.74 4.99 3.9 8.26.07 1.35-.14 2.71-.22 4.06Zm.67 36.99c-.48-.06-.99-.26-1.43-.16-1.67.38-2.99 1.24-3.47 3.02-.14.53-.54.8-1.07.81-4.08.01-8.17.01-12.25.01-.56 0-.91-.34-1.04-.85-.52-1.96-2.04-2.7-3.8-3.08-.34-.07-.75.22-1.13.34.06-.22.1-.46.19-.67.77-1.84 1.51-3.69.92-5.75.3.02.61.1.9.07 1.48-.16 2.96-.38 4.45-.53 4.3-.43 8.6-.32 12.88.22 1.26.16 2.52.3 3.78.45-.05.39-.13.78-.13 1.16-.02 1.54.5 2.95 1.11 4.33.08.19.07.42.1.63Zm-8.61-1.22c.3-1.69-1.76-3.41-3.37-3.45-1.98-.05-3.68 1.7-3.63 3.55.05 1.96 1.57 3.59 3.86 3.59 1.36 0 3.41-1.82 3.14-3.7Zm3.06-20.65c.13-.08.28-.15.38-.26.68-.76 1.51-.87 2.45-.59 1.87.54 3.76.99 5.6 1.62 1.28.44 2.07 1.35 2.3 2.84.54 3.51 1.23 6.99 1.85 10.48.03.16-.01.34-.02.51-.6-.53-1.19-1.06-1.79-1.6-.81-.73-1.6-1.47-2.42-2.19-.64-.57-.78-.55-1.31.08-1.64-2.35-3.69-4.27-6.32-5.42-1.59-.7-3.33-1.08-5-1.6l1.1-1.04 3.66.93-.47-3.77ZM27.65 60.29c.24-1.49.46-2.99.72-4.48.4-2.29.87-4.57 1.22-6.87.16-1.06.83-1.61 1.64-2.07 1.94-1.11 4.11-1.49 6.26-1.92.87-.17 1.64-.16 2.26.55.32.4.45.81.33 1.37-.18.86-.22 1.75-.32 2.72 1.26-.32 2.42-.62 3.57-.91.36.34.73.68 1.09 1.02-.12.04-.24.1-.37.12-2.38.35-4.55 1.25-6.54 2.58-1.71 1.14-3.1 2.62-4.33 4.26-.3-.47-.66-.54-1.08-.15-.84.76-1.67 1.53-2.51 2.29-.22.14-.46.26-.66.42-.44.35-.85.72-1.28 1.09Z"/><path class="cls-6" d="M27.65 60.29c.43-.36.84-.74 1.28-1.09.2-.16.44-.28.66-.42.57.55 1.1 1.17 1.97 1.24l3.6.72.57.62c.59 2.06-.15 3.91-.92 5.75-.09.21-.13.44-.19.67l-.26.27c-.11.13-.23.26-.34.4-.63.86-1.42 1.29-2.51.93-.14-.05-.3-.04-.46-.06-.56-.18-1.12-.37-1.69-.53-1.76-.48-2.37-1.85-2.65-3.46-.28-1.61-.06-3.13.77-4.55.09-.15.11-.33.16-.5Zm36.39-1.47c.6.53 1.19 1.06 1.79 1.6 1.16 1.77 1.4 3.69.84 5.71-.42 1.53-1.42 2.46-2.96 2.84-.42.1-.83.27-1.24.4-.11 0-.23-.04-.33 0-1.17.37-2.04-.06-2.71-1.03-.04-.06-.19-.04-.29-.05-.11-.2-.22-.4-.33-.61-.03-.21-.02-.44-.1-.63-.6-1.39-1.12-2.79-1.11-4.33 0-.39.09-.78.13-1.16l.69-.82 3.38-.64c.09.02.2.08.25.04.66-.44 1.32-.88 1.97-1.33ZM43.33 48.67l-3.57.91c.11-.96.15-1.85.32-2.72.11-.55 0-.96-.33-1.37.34.01.56-.06.59-.49.04-.69.17-1.37.26-2.06.83.63 1.6 1.36 2.5 1.86 2.58 1.43 5.18 1.33 7.69-.24.71-.45 1.36-1 2.04-1.5.15.91.3 1.83.45 2.75.15 1.21.3 2.42.47 3.77-1.25-.32-2.45-.63-3.66-.93-1.06-.31-2.13-.88-3.19-.86-1.19.02-2.38.56-3.57.88Z"/><path class="cls-6" d="M31.06 69.32c.15.02.31.01.46.06 1.09.36 1.88-.07 2.51-.93.1-.14.23-.27.34-.4.05.45.08.91.17 1.35.16.86-.32 1.48-1.2 1.45-.31 0-.61-.04-.91-.09-.97-.16-1.22-.43-1.36-1.45Zm28.09-1.03c.1.02.25 0 .29.05.67.97 1.53 1.39 2.71 1.03.1-.03.22 0 .33 0-.35 1.15-1.62 1.8-2.76 1.42-.57-.19-.89-.82-.75-1.43.08-.36.13-.72.19-1.08Zm-.71-7.55-.69.82c-1.26-.15-2.52-.29-3.78-.45-4.29-.54-8.58-.66-12.88-.22-1.48.15-2.96.37-4.45.53-.29.03-.6-.04-.9-.07l-.57-.62c.1-.44.1-.93.31-1.3 4.65-8.36 16.81-8.82 22.06-.83.42.64.61 1.42.91 2.13Zm-8.23 5.72c.27 1.88-1.78 3.7-3.14 3.7-2.29 0-3.81-1.63-3.86-3.59-.05-1.86 1.66-3.6 3.63-3.55 1.61.04 3.67 1.75 3.37 3.45Z"/><path class="cls-6" d="M58.44 60.74c-.3-.71-.49-1.5-.91-2.13-5.25-7.99-17.41-7.53-22.06.83-.21.38-.21.87-.31 1.3l-3.6-.72c.07-.25.09-.52.21-.74.45-.88.94-1.75 1.41-2.63 1.23-1.64 2.62-3.12 4.33-4.26 1.99-1.32 4.16-2.23 6.54-2.58.13-.02.25-.08.37-.12h4.57c1.67.52 3.4.9 5 1.6 2.63 1.15 4.68 3.07 6.32 5.42.49.92 1 1.83 1.46 2.75.09.18.03.42.04.64l-3.38.64Zm-9.45-11.05h-4.57c-.36-.34-.73-.68-1.09-1.02 1.19-.32 2.37-.86 3.57-.88 1.06-.02 2.12.55 3.19.86l-1.1 1.04Z"/><path class="cls-6" d="M61.81 60.1c-.01-.21.04-.46-.04-.64-.47-.93-.97-1.84-1.46-2.75.53-.63.67-.65 1.31-.08.82.72 1.61 1.46 2.42 2.19-.66.45-1.31.89-1.97 1.33-.05.03-.17-.03-.25-.04Zm-28.63-3.46c-.47.88-.95 1.75-1.41 2.63-.12.22-.14.49-.21.74-.87-.07-1.4-.69-1.97-1.24.84-.76 1.67-1.53 2.51-2.29.42-.38.78-.32 1.08.15Z"/></g><circle cx="45.78" cy="45.78" r="45.78" style="fill:#e0dfdd"/><g id="gWei2z-2"><path class="cls-3" d="M58.15 30.69c.95 1.06.92 2.34.68 3.61-.25 1.38-.9 2.47-2.44 2.75-.12.02-.27.17-.31.29-.73 2.04-1.78 3.9-3.19 5.55-.04.05-.04.12-.06.19-.68.5-1.33 1.05-2.04 1.5-2.51 1.57-5.11 1.66-7.69.24-.9-.5-1.67-1.23-2.5-1.86-.49-.69-1.04-1.35-1.46-2.09-.62-1.1-1.13-2.27-1.71-3.39-.09-.18-.29-.39-.47-.43-1.04-.2-1.64-.93-2.01-1.81-.63-1.5-.69-3.02.24-4.46.06-.09.09-.2.14-.3.03.08.07.15.09.23.45 1.44.89 2.88 1.36 4.31.12.37.41.52.85.38.46-.14.45-.44.43-.82-.1-1.9-.22-3.81-.24-5.71 0-1.02.25-2.02.73-3 5.33 3.4 11.09 3.63 17.08 2.54.05.56.14 1.02.12 1.47-.07 1.62-.2 3.24-.26 4.86 0 .2.16.54.31.58.24.07.61.02.8-.13.22-.18.35-.5.44-.79.39-1.23.75-2.47 1.12-3.71Z"/><path d="M58.15 30.69c-.37 1.24-.73 2.48-1.12 3.71-.09.29-.22.61-.44.79-.19.15-.55.2-.8.13-.15-.04-.32-.38-.31-.58.07-1.62.19-3.24.26-4.86.02-.45-.07-.91-.12-1.47-5.98 1.09-11.75.86-17.08-2.54-.48.98-.73 1.98-.73 3 .01 1.9.14 3.81.24 5.71.02.38.03.67-.43.82-.43.14-.73-.02-.85-.38-.47-1.43-.91-2.87-1.36-4.31-.03-.08-.06-.16-.09-.23-.38-2.17-.4-4.32.16-6.46 1.15-4.42 4.83-7.64 9.36-8.22 3.56-.46 6.82.26 9.62 2.59 2.57 2.13 3.74 4.99 3.9 8.26.07 1.35-.14 2.71-.22 4.06Z" style="fill:#282121"/><path d="M58.82 67.68c-.48-.06-.99-.26-1.43-.16-1.67.38-2.99 1.24-3.47 3.02-.14.53-.54.8-1.07.81-4.08.01-8.17.01-12.25.01-.56 0-.91-.34-1.04-.85-.52-1.96-2.04-2.7-3.8-3.08-.34-.07-.75.22-1.13.34.06-.22.1-.46.19-.67.77-1.84 1.51-3.69.92-5.75.3.02.61.1.9.07 1.48-.16 2.96-.38 4.45-.53 4.3-.43 8.6-.32 12.88.22 1.26.16 2.52.3 3.78.45-.05.39-.13.78-.13 1.16-.02 1.54.5 2.95 1.11 4.33.08.19.07.42.1.63Zm-8.61-1.22c.3-1.69-1.76-3.41-3.37-3.45-1.98-.05-3.68 1.7-3.63 3.55.05 1.96 1.57 3.59 3.86 3.59 1.36 0 3.41-1.82 3.14-3.7Z" style="fill:#272122"/><path d="M53.27 45.81c.13-.08.28-.15.38-.26.68-.76 1.51-.87 2.45-.59 1.87.54 3.76.99 5.6 1.62 1.28.44 2.07 1.35 2.3 2.84.54 3.51 1.23 6.99 1.85 10.48.03.16-.01.34-.02.51-.6-.53-1.19-1.06-1.79-1.6-.81-.73-1.6-1.47-2.42-2.19-.64-.57-.78-.55-1.31.08-1.64-2.35-3.69-4.27-6.32-5.42-1.59-.7-3.33-1.08-5-1.6l1.1-1.04 3.66.93-.47-3.77Z" style="fill:#6bbfea"/><path d="M27.65 60.29c.24-1.49.46-2.99.72-4.48.4-2.29.87-4.57 1.22-6.87.16-1.06.83-1.61 1.64-2.07 1.94-1.11 4.11-1.49 6.26-1.92.87-.17 1.64-.16 2.26.55.32.4.45.81.33 1.37-.18.86-.22 1.75-.32 2.72 1.26-.32 2.42-.62 3.57-.91.36.34.73.68 1.09 1.02-.12.04-.24.1-.37.12-2.38.35-4.55 1.25-6.54 2.58-1.71 1.14-3.1 2.62-4.33 4.26-.3-.47-.66-.54-1.08-.15-.84.76-1.67 1.53-2.51 2.29-.22.14-.46.26-.66.42-.44.35-.85.72-1.28 1.09Z" style="fill:#6bbfe9"/><path class="cls-3" d="M27.65 60.29c.43-.36.84-.74 1.28-1.09.2-.16.44-.28.66-.42.57.55 1.1 1.17 1.97 1.24l3.6.72.57.62c.59 2.06-.15 3.91-.92 5.75-.09.21-.13.44-.19.67l-.26.27c-.11.13-.23.26-.34.4-.63.86-1.42 1.29-2.51.93-.14-.05-.3-.04-.46-.06-.56-.18-1.12-.37-1.69-.53-1.76-.48-2.37-1.85-2.65-3.46-.28-1.61-.06-3.13.77-4.55.09-.15.11-.33.16-.5Zm36.39-1.47c.6.53 1.19 1.06 1.79 1.6 1.16 1.77 1.4 3.69.84 5.71-.42 1.53-1.42 2.46-2.96 2.84-.42.1-.83.27-1.24.4-.11 0-.23-.04-.33 0-1.17.37-2.04-.06-2.71-1.03-.04-.06-.19-.04-.29-.05-.11-.2-.22-.4-.33-.61-.03-.21-.02-.44-.1-.63-.6-1.39-1.12-2.79-1.11-4.33 0-.39.09-.78.13-1.16l.69-.82 3.38-.64c.09.02.2.08.25.04.66-.44 1.32-.88 1.97-1.33Z"/><path d="m43.33 48.67-3.57.91c.11-.96.15-1.85.32-2.72.11-.55 0-.96-.33-1.37.34.01.56-.06.59-.49.04-.69.17-1.37.26-2.06.83.63 1.6 1.36 2.5 1.86 2.58 1.43 5.18 1.33 7.69-.24.71-.45 1.36-1 2.04-1.5.15.91.3 1.83.45 2.75.15 1.21.3 2.42.47 3.77-1.25-.32-2.45-.63-3.66-.93-1.06-.31-2.13-.88-3.19-.86-1.19.02-2.38.56-3.57.88Z" style="fill:#e7e6e6"/><path d="M31.06 69.32c.15.02.31.01.46.06 1.09.36 1.88-.07 2.51-.93.1-.14.23-.27.34-.4.05.45.08.91.17 1.35.16.86-.32 1.48-1.2 1.45-.31 0-.61-.04-.91-.09-.97-.16-1.22-.43-1.36-1.45Zm28.09-1.03c.1.02.25 0 .29.05.67.97 1.53 1.39 2.71 1.03.1-.03.22 0 .33 0-.35 1.15-1.62 1.8-2.76 1.42-.57-.19-.89-.82-.75-1.43.08-.36.13-.72.19-1.08Z" style="fill:#322a29"/><path d="m58.44 60.74-.69.82c-1.26-.15-2.52-.29-3.78-.45-4.29-.54-8.58-.66-12.88-.22-1.48.15-2.96.37-4.45.53-.29.03-.6-.04-.9-.07l-.57-.62c.1-.44.1-.93.31-1.3 4.65-8.36 16.81-8.82 22.06-.83.42.64.61 1.42.91 2.13Z" style="fill:#69bde8"/><path d="M50.21 66.46c.27 1.88-1.78 3.7-3.14 3.7-2.29 0-3.81-1.63-3.86-3.59-.05-1.86 1.66-3.6 3.63-3.55 1.61.04 3.67 1.75 3.37 3.45Z" style="fill:#302929"/><path d="M58.44 60.74c-.3-.71-.49-1.5-.91-2.13-5.25-7.99-17.41-7.53-22.06.83-.21.38-.21.87-.31 1.3l-3.6-.72c.07-.25.09-.52.21-.74.45-.88.94-1.75 1.41-2.63 1.23-1.64 2.62-3.12 4.33-4.26 1.99-1.32 4.16-2.23 6.54-2.58.13-.02.25-.08.37-.12h4.57c1.67.52 3.4.9 5 1.6 2.63 1.15 4.68 3.07 6.32 5.42.49.92 1 1.83 1.46 2.75.09.18.03.42.04.64l-3.38.64Z" style="fill:#272324"/><path d="M48.99 49.69h-4.57c-.36-.34-.73-.68-1.09-1.02 1.19-.32 2.37-.86 3.57-.88 1.06-.02 2.12.55 3.19.86l-1.1 1.04Z" style="fill:#f9f9fa"/><path d="M61.81 60.1c-.01-.21.04-.46-.04-.64-.47-.93-.97-1.84-1.46-2.75.53-.63.67-.65 1.31-.08.82.72 1.61 1.46 2.42 2.19-.66.45-1.31.89-1.97 1.33-.05.03-.17-.03-.25-.04Z" style="fill:#e49f7d"/><path d="M33.18 56.64c-.47.88-.95 1.75-1.41 2.63-.12.22-.14.49-.21.74-.87-.07-1.4-.69-1.97-1.24.84-.76 1.67-1.53 2.51-2.29.42-.38.78-.32 1.08.15Z" style="fill:#e39f7d"/></g></g></svg>
