<svg id="Layer_2" xmlns="http://www.w3.org/2000/svg" viewBox="0 0 91.56 91.56"><defs><style>.cls-2{fill:#fafaf9}</style></defs><g id="Layer_1-2"><circle class="cls-2" cx="45.78" cy="45.78" r="45.78"/><circle class="cls-2" cx="45.78" cy="45.78" r="45.78"/><g id="sLSh6U"><path class="cls-2" d="M68.47 51.11v17.92c-.07 1.06-.97 1.54-1.86.95-1.23-.82-2.42-1.7-3.63-2.54-2.14-1.49-4.25-3.02-6.43-4.45-2.14-1.4-4.55-2-7.09-2-7.86-.01-15.72 0-23.58 0-4.02 0-7.11-3.07-7.11-7.09-.01-6.79-.01-13.58 0-20.37 0-3.64 2.72-6.64 6.31-6.99.6-.06 1.2-.09 1.8-.09h34.03c1.52 0 2.97.27 4.28 1.13 2.19 1.43 3.25 3.49 3.27 6.04.04 5.84.01 11.68.01 17.51Zm-16.73-8.49c-1.1 0-2.02.87-2.02 1.91 0 1.11.91 2.05 1.98 2.05 1.09 0 2.02-.92 2.03-2 0-1.04-.92-1.95-1.99-1.96Zm-13.02 1.97c.01-1.12-.82-1.97-1.93-1.97-1.16 0-2.04.83-2.04 1.94 0 1.05.9 1.99 1.95 2.02 1.08.03 2.02-.89 2.03-1.98Zm3.48 0c0 1.09.89 1.99 1.95 2 1.06 0 2.02-.95 2.02-2.02 0-1.11-.88-1.96-2.03-1.95-1.12 0-1.94.84-1.93 1.96Z"/><path class="cls-2" d="M51.74 42.63c1.07 0 2 .91 1.99 1.96-.01 1.08-.94 2-2.03 2-1.06 0-1.98-.94-1.98-2.05 0-1.04.92-1.91 2.02-1.91Z"/><path class="cls-2" d="M51.74 42.63c1.07 0 2 .91 1.99 1.96-.01 1.08-.94 2-2.03 2-1.06 0-1.98-.94-1.98-2.05 0-1.04.92-1.91 2.02-1.91ZM38.72 44.6c-.01 1.1-.95 2.01-2.03 1.98-1.05-.03-1.96-.96-1.95-2.02 0-1.12.89-1.95 2.04-1.94 1.11 0 1.94.86 1.93 1.97Z"/><path class="cls-2" d="M38.72 44.6c-.01 1.1-.95 2.01-2.03 1.98-1.05-.03-1.96-.96-1.95-2.02 0-1.12.89-1.95 2.04-1.94 1.11 0 1.94.86 1.93 1.97Zm3.48-.01c0-1.12.82-1.96 1.93-1.96 1.15 0 2.04.84 2.03 1.95 0 1.06-.96 2.02-2.02 2.02s-1.94-.91-1.95-2Z"/><path class="cls-2" d="M42.2 44.59c0-1.12.82-1.96 1.93-1.96 1.15 0 2.04.84 2.03 1.95 0 1.06-.96 2.02-2.02 2.02s-1.94-.91-1.95-2Z"/></g><path class="cls-2" d="M77.56 31.08c.73 1.52.66 1.85-.46 3.01-.18.19-.27.51-.32.79-.26 1.49-.56 1.94-2.07 2.02-2.22.12-4.46.1-6.69.04-1.44-.04-2.87-.27-4.31-.41-.69-.07-.85-.2-.85-.86-.01-2.87 0-5.74-.02-8.61 0-.39.15-.57.5-.76.37-.21.76-.54.94-.91.87-1.82 2.17-3.26 3.8-4.39 1.26-.88 1.9-2.01 1.9-3.54 0-.64.15-1.22.87-1.46.79-.26 1.36-.04 1.71.71.55 1.17.6 2.36.09 3.56-.34.8-.72 1.58-1.06 2.38-.52 1.21-.36 1.43.93 1.43 1.03 0 2.06-.03 3.08 0 .45.01.9.11 1.34.23 1.27.35 1.86 1.46 1.35 2.66-.3.69-.34 1.24.06 1.9.42.69.26 1.24-.31 1.82-.15.15-.32.29-.47.42Zm-15.3.38c0 1.46-.02 2.92 0 4.39 0 .55-.18.8-.75.78-.83-.03-1.66-.02-2.49 0-.45 0-.65-.2-.65-.64v-9.01c0-.44.18-.66.64-.65.85.01 1.7.02 2.55 0 .5-.01.71.18.7.7-.02 1.48 0 2.96 0 4.44Z"/><circle cx="45.78" cy="45.78" r="45.78" style="fill:#dbece0"/><g id="sLSh6U-2"><path d="M68.47 51.11v17.92c-.07 1.06-.97 1.54-1.86.95-1.23-.82-2.42-1.7-3.63-2.54-2.14-1.49-4.25-3.02-6.43-4.45-2.14-1.4-4.55-2-7.09-2-7.86-.01-15.72 0-23.58 0-4.02 0-7.11-3.07-7.11-7.09-.01-6.79-.01-13.58 0-20.37 0-3.64 2.72-6.64 6.31-6.99.6-.06 1.2-.09 1.8-.09h34.03c1.52 0 2.97.27 4.28 1.13 2.19 1.43 3.25 3.49 3.27 6.04.04 5.84.01 11.68.01 17.51Zm-16.73-8.49c-1.1 0-2.02.87-2.02 1.91 0 1.11.91 2.05 1.98 2.05 1.09 0 2.02-.92 2.03-2 0-1.04-.92-1.95-1.99-1.96Zm-13.02 1.97c.01-1.12-.82-1.97-1.93-1.97-1.16 0-2.04.83-2.04 1.94 0 1.05.9 1.99 1.95 2.02 1.08.03 2.02-.89 2.03-1.98Zm3.48 0c0 1.09.89 1.99 1.95 2 1.06 0 2.02-.95 2.02-2.02 0-1.11-.88-1.96-2.03-1.95-1.12 0-1.94.84-1.93 1.96Z" style="fill:#fff"/><path d="M51.74 42.63c1.07 0 2 .91 1.99 1.96-.01 1.08-.94 2-2.03 2-1.06 0-1.98-.94-1.98-2.05 0-1.04.92-1.91 2.02-1.91ZM38.72 44.6c-.01 1.1-.95 2.01-2.03 1.98-1.05-.03-1.96-.96-1.95-2.02 0-1.12.89-1.95 2.04-1.94 1.11 0 1.94.86 1.93 1.97Zm3.48-.01c0-1.12.82-1.96 1.93-1.96 1.15 0 2.04.84 2.03 1.95 0 1.06-.96 2.02-2.02 2.02s-1.94-.91-1.95-2Z" style="fill:#71a0ad"/></g><path d="M77.56 31.08c.73 1.52.66 1.85-.46 3.01-.18.19-.27.51-.32.79-.26 1.49-.56 1.94-2.07 2.02-2.22.12-4.46.1-6.69.04-1.44-.04-2.87-.27-4.31-.41-.69-.07-.85-.2-.85-.86-.01-2.87 0-5.74-.02-8.61 0-.39.15-.57.5-.76.37-.21.76-.54.94-.91.87-1.82 2.17-3.26 3.8-4.39 1.26-.88 1.9-2.01 1.9-3.54 0-.64.15-1.22.87-1.46.79-.26 1.36-.04 1.71.71.55 1.17.6 2.36.09 3.56-.34.8-.72 1.58-1.06 2.38-.52 1.21-.36 1.43.93 1.43 1.03 0 2.06-.03 3.08 0 .45.01.9.11 1.34.23 1.27.35 1.86 1.46 1.35 2.66-.3.69-.34 1.24.06 1.9.42.69.26 1.24-.31 1.82-.15.15-.32.29-.47.42Zm-15.3.38c0 1.46-.02 2.92 0 4.39 0 .55-.18.8-.75.78-.83-.03-1.66-.02-2.49 0-.45 0-.65-.2-.65-.64v-9.01c0-.44.18-.66.64-.65.85.01 1.7.02 2.55 0 .5-.01.71.18.7.7-.02 1.48 0 2.96 0 4.44Z" style="fill:#359953"/></g></svg>
