<svg id="Layer_2" xmlns="http://www.w3.org/2000/svg" viewBox="0 0 91.56 91.56"><defs><style>.cls-1{fill:#f9f9fa}.cls-3{fill:#fff}.cls-4{fill:#fafaf9}.cls-5{fill:#ebd0ad}.cls-12{fill:#ddc6a5}.cls-13{fill:#deb36c}.cls-14{fill:#d4913f}</style></defs><g id="Layer_1-2"><circle class="cls-4" cx="45.78" cy="45.78" r="45.78"/><circle class="cls-4" cx="45.78" cy="45.78" r="45.78"/><rect class="cls-4" x="60.59" y="72.14" width="1.02" height="4.16" rx=".51" ry=".51" transform="rotate(-45 61.1 74.212)"/><rect class="cls-4" x="59.02" y="73.71" width="4.16" height="1.02" rx=".51" ry=".51" transform="rotate(-45 61.1 74.212)"/><rect class="cls-4" x="59.02" y="73.71" width="4.16" height="1.02" rx=".51" ry=".51" transform="rotate(-45 61.1 74.212)"/><rect class="cls-4" x="59.02" y="73.71" width="4.16" height="1.02" rx=".51" ry=".51" transform="rotate(-45 61.1 74.212)"/><rect class="cls-4" x="60.59" y="72.14" width="1.02" height="4.16" rx=".51" ry=".51" transform="rotate(-45 61.1 74.212)"/><rect class="cls-4" x="59.02" y="73.71" width="4.16" height="1.02" rx=".51" ry=".51" transform="rotate(-45 61.1 74.212)"/><rect class="cls-4" x="59.02" y="73.71" width="4.16" height="1.02" rx=".51" ry=".51" transform="rotate(-45 61.1 74.212)"/><rect class="cls-4" x="59.02" y="73.71" width="4.16" height="1.02" rx=".51" ry=".51" transform="rotate(-45 61.1 74.212)"/><rect class="cls-4" x="60.59" y="72.14" width="1.02" height="4.16" rx=".51" ry=".51" transform="rotate(-45 61.1 74.212)"/><rect class="cls-4" x="59.02" y="73.71" width="4.16" height="1.02" rx=".51" ry=".51" transform="rotate(-45 61.1 74.212)"/><rect class="cls-4" x="59.02" y="73.71" width="4.16" height="1.02" rx=".51" ry=".51" transform="rotate(-45 61.1 74.212)"/><rect class="cls-4" x="59.02" y="73.71" width="4.16" height="1.02" rx=".51" ry=".51" transform="rotate(-45 61.1 74.212)"/><rect class="cls-4" x="25.04" y="15.45" width="1.02" height="4.16" rx=".51" ry=".51" transform="rotate(-45 25.55 17.527)"/><rect class="cls-4" x="23.47" y="17.02" width="4.16" height="1.02" rx=".51" ry=".51" transform="rotate(-45 25.55 17.527)"/><rect class="cls-4" x="23.47" y="17.02" width="4.16" height="1.02" rx=".51" ry=".51" transform="rotate(-45 25.55 17.527)"/><rect class="cls-4" x="23.47" y="17.02" width="4.16" height="1.02" rx=".51" ry=".51" transform="rotate(-45 25.55 17.527)"/><rect class="cls-4" x="25.04" y="15.45" width="1.02" height="4.16" rx=".51" ry=".51" transform="rotate(-45 25.55 17.527)"/><rect class="cls-4" x="23.47" y="17.02" width="4.16" height="1.02" rx=".51" ry=".51" transform="rotate(-45 25.55 17.527)"/><rect class="cls-4" x="23.47" y="17.02" width="4.16" height="1.02" rx=".51" ry=".51" transform="rotate(-45 25.55 17.527)"/><rect class="cls-4" x="23.47" y="17.02" width="4.16" height="1.02" rx=".51" ry=".51" transform="rotate(-45 25.55 17.527)"/><rect class="cls-4" x="25.04" y="15.45" width="1.02" height="4.16" rx=".51" ry=".51" transform="rotate(-45 25.55 17.527)"/><rect class="cls-4" x="23.47" y="17.02" width="4.16" height="1.02" rx=".51" ry=".51" transform="rotate(-45 25.55 17.527)"/><rect class="cls-4" x="23.47" y="17.02" width="4.16" height="1.02" rx=".51" ry=".51" transform="rotate(-45 25.55 17.527)"/><rect class="cls-4" x="23.47" y="17.02" width="4.16" height="1.02" rx=".51" ry=".51" transform="rotate(-45 25.55 17.527)"/><rect class="cls-4" x="77.47" y="29.79" width="1.37" height="5.59" rx=".51" ry=".51" transform="rotate(-45 78.153 32.598)"/><rect class="cls-4" x="75.35" y="31.91" width="5.59" height="1.37" rx=".51" ry=".51" transform="rotate(-45 78.153 32.598)"/><rect class="cls-4" x="75.35" y="31.91" width="5.59" height="1.37" rx=".51" ry=".51" transform="rotate(-45 78.153 32.598)"/><rect class="cls-4" x="75.35" y="31.91" width="5.59" height="1.37" rx=".51" ry=".51" transform="rotate(-45 78.153 32.598)"/><rect class="cls-4" x="77.47" y="29.79" width="1.37" height="5.59" rx=".51" ry=".51" transform="rotate(-45 78.153 32.598)"/><rect class="cls-4" x="75.35" y="31.91" width="5.59" height="1.37" rx=".51" ry=".51" transform="rotate(-45 78.153 32.598)"/><rect class="cls-4" x="75.35" y="31.91" width="5.59" height="1.37" rx=".51" ry=".51" transform="rotate(-45 78.153 32.598)"/><rect class="cls-4" x="75.35" y="31.91" width="5.59" height="1.37" rx=".51" ry=".51" transform="rotate(-45 78.153 32.598)"/><rect class="cls-4" x="77.47" y="29.79" width="1.37" height="5.59" rx=".51" ry=".51" transform="rotate(-45 78.153 32.598)"/><rect class="cls-4" x="75.35" y="31.91" width="5.59" height="1.37" rx=".51" ry=".51" transform="rotate(-45 78.153 32.598)"/><rect class="cls-4" x="75.35" y="31.91" width="5.59" height="1.37" rx=".51" ry=".51" transform="rotate(-45 78.153 32.598)"/><rect class="cls-4" x="75.35" y="31.91" width="5.59" height="1.37" rx=".51" ry=".51" transform="rotate(-45 78.153 32.598)"/><rect class="cls-4" x="21.89" y="62.42" width="1.74" height="7.1" rx=".51" ry=".51" transform="rotate(-45 22.754 65.965)"/><rect class="cls-4" x="19.21" y="65.1" width="7.1" height="1.74" rx=".51" ry=".51" transform="rotate(-45 22.754 65.965)"/><rect class="cls-4" x="19.21" y="65.1" width="7.1" height="1.74" rx=".51" ry=".51" transform="rotate(-45 22.754 65.965)"/><rect class="cls-4" x="19.21" y="65.1" width="7.1" height="1.74" rx=".51" ry=".51" transform="rotate(-45 22.754 65.965)"/><rect class="cls-4" x="21.89" y="62.42" width="1.74" height="7.1" rx=".51" ry=".51" transform="rotate(-45 22.754 65.965)"/><rect class="cls-4" x="19.21" y="65.1" width="7.1" height="1.74" rx=".51" ry=".51" transform="rotate(-45 22.754 65.965)"/><rect class="cls-4" x="19.21" y="65.1" width="7.1" height="1.74" rx=".51" ry=".51" transform="rotate(-45 22.754 65.965)"/><rect class="cls-4" x="19.21" y="65.1" width="7.1" height="1.74" rx=".51" ry=".51" transform="rotate(-45 22.754 65.965)"/><rect class="cls-4" x="21.89" y="62.42" width="1.74" height="7.1" rx=".51" ry=".51" transform="rotate(-45 22.754 65.965)"/><rect class="cls-4" x="19.21" y="65.1" width="7.1" height="1.74" rx=".51" ry=".51" transform="rotate(-45 22.754 65.965)"/><rect class="cls-4" x="19.21" y="65.1" width="7.1" height="1.74" rx=".51" ry=".51" transform="rotate(-45 22.754 65.965)"/><rect class="cls-4" x="19.21" y="65.1" width="7.1" height="1.74" rx=".51" ry=".51" transform="rotate(-45 22.754 65.965)"/><path class="cls-4" d="M18.75 44.66c1.75-2.42 3.5-4.85 5.23-7.27.25-.34.44-.73.66-1.09.03-.02.07-.03.09-.05.01-.01 0-.05.01-.08l-.11.12c-.55-.09-.97.25-1.43.45-.54.23-1.02.63-1.65.6l-.02-.03c.18-.17.34-.39.55-.51 1.43-.86 2.87-1.7 4.32-2.54 1.96-1.14 3.92-2.28 5.89-3.4 3.27-1.87 6.49-3.84 9.93-5.39.23-.1.48-.17.72-.25v.25c-1.36.81-2.71 1.63-4.08 2.42-3.52 2.04-7.06 4.06-10.59 6.09-.92.53-1.82 1.09-2.76 1.66.14.15.21.26.31.32 2.22 1.29 4.45 2.58 6.68 3.86 2.63 1.52 5.26 3.06 7.91 4.56.74.42 1.4 1.01 2.27 1.18.18.17.33.39.54.52.57.36 1.16.7 1.76 1.02.33.18.54.41.54.79-.31.46-.61.92-.93 1.38-1.78 2.51-3.56 5.02-5.35 7.53-.17.23-.41.41-.66.65-.52-.29-1.01-.56-1.49-.83-.52-.29-1-.66-1.63-.73-.74-.65-1.53-1.22-2.56-1.3-.03-.28-.18-.46-.42-.59-.63-.35-1.25-.72-1.88-1.08-1.47-.85-2.94-1.72-4.41-2.56-.29-.16-.63-.24-.94-.36-.29-.52-.84-.72-1.31-1-1.47-.87-2.97-1.69-4.46-2.53m47.67-10.16c0 .52.4.85.68 1.2 1.15 1.48 2.35 2.92 3.52 4.39.74.93 1.48 1.87 2.25 2.85-.37.42-.81.66-1.24.91-1.82 1.04-3.63 2.08-5.44 3.12-.22.13-.47.22-.5.53-.01.05-.03.09-.04.14-.52-.17-.9.18-1.29.4-1.26.71-2.51 1.44-3.75 2.18-.98.58-1.96 1.18-2.93 1.78-.93.38-1.8.88-2.58 1.53-.39.18-.78.34-1.15.54-.49.25-.97.53-1.43.78-.54-.29-.82-.73-1.15-1.13-.6-.73-1.18-1.47-1.76-2.21-1.43-1.82-2.86-3.63-4.29-5.45.01-.27.09-.51.33-.64.29-.17.61-.3.9-.47.57-.34 1.22-.59 1.6-1.18.39-.17.79-.31 1.16-.52 1.26-.72 2.51-1.47 3.77-2.19 1.49-.85 2.99-1.66 4.48-2.52 2.44-1.41 4.88-2.85 7.31-4.28.17-.1.41-.16.33-.5-2.75-1.59-5.52-3.2-8.3-4.81-2.89-1.67-5.79-3.33-8.67-5.01-.16-.09-.24-.33-.36-.49.17.03.35.03.49.09 2.76 1.25 5.48 2.58 8.07 4.17 1.45.89 2.95 1.72 4.43 2.57 2.03 1.17 4.06 2.35 6.1 3.52.81.47 1.64.92 2.44 1.4.25.15.45.37.68.55l-.03.04c-.46.05-.82-.2-1.21-.36-.79-.33-1.58-.64-2.37-.96-.05-.06-.1-.14-.16-.16-.05-.02-.12.05-.19.07.03.03.05.07.09.08.07.02.15.03.23.04Z"/><path class="cls-4" d="M48.59 25.25c.12.17.2.4.36.49 2.89 1.68 5.78 3.34 8.67 5.01 2.78 1.6 5.55 3.22 8.3 4.81.08.34-.16.4-.33.5-2.44 1.43-4.87 2.87-7.31 4.28-1.48.86-2.99 1.67-4.48 2.52-1.26.72-2.51 1.47-3.77 2.19-.37.21-.77.35-1.16.52-.92-.81-2.03-1.31-3.12-1.83 0-.17.02-.34.02-.51V25.28c0-.21 0-.43-.02-.64-.01-.33-.25-.41-.51-.46.28-.37.63-.31.97-.13.21.11.4.27.6.4l.53.23.24.27h.3c.07 0 .14.02.2.04.1.07.21.14.31.21.07 0 .13.02.19.05Z"/><path class="cls-4" d="M45.24 24.18c.26.05.5.13.51.46 0 .21.02.43.02.64v17.95c0 .17-.01.34-.02.51-1.02.61-2.04 1.22-3.07 1.82-.87-.17-1.53-.76-2.27-1.18-2.65-1.5-5.28-3.03-7.91-4.56-2.23-1.29-4.45-2.57-6.68-3.86-.1-.06-.17-.18-.31-.32.94-.57 1.84-1.13 2.76-1.66 3.53-2.04 7.06-4.06 10.59-6.09 1.37-.79 2.72-1.62 4.08-2.42l.51-.27c.34-.04.62-.18.77-.51l.52-.27.5-.25ZM57.03 69.2c-2.7-.42-5.41-.82-8.11-1.25-.97-.15-1.93-.36-2.9-.54.1-.08.19-.17.3-.23 2.49-1.46 4.99-2.91 7.47-4.37.69-.41 1.36-.85 2.04-1.27.87-.33 1.65-.83 2.44-1.32.07-.04.1-.14.14-.21.43-.18.88-.33 1.28-.56 1.99-1.14 3.96-2.33 5.96-3.45.57-.32.76-.7.75-1.32-.03-1.75-.02-3.49-.02-5.24.02-.04.03-.09.04-.14 1.86.29 3.46 1.16 5.05 2.12 2.17 1.3 4.39 2.5 6.68 3.8-.2.22-.34.42-.53.55-3.98 2.69-7.96 5.37-11.94 8.06-2.27 1.53-4.55 3.07-6.82 4.61-.28.19-.58.37-.85.58-.3.23-.62.24-.98.18"/><path class="cls-4" d="M55.83 61.55c-.68.43-1.35.87-2.04 1.27-2.49 1.46-4.98 2.91-7.47 4.37-.11.06-.2.15-.3.23h-.11l-.1-.03c-.01-.34-.04-.68-.04-1.03V47.88l.27-.02c1.43 1.82 2.86 3.64 4.29 5.45.58.74 1.16 1.48 1.76 2.21.32.39.6.83 1.15 1.13.46-.25.93-.53 1.43-.78.38-.19.77-.36 1.15-.54v6.21Z"/><path class="cls-4" d="M45.78 47.89v18.48c0 .34.02.68.04 1.03-1.23-.68-2.47-1.34-3.69-2.03a496.99 496.99 0 0 1-5.87-3.42c-.29-.17-.55-.4-.82-.6.01-1.82.03-3.64.04-5.46.62.07 1.11.44 1.63.73.48.27.96.54 1.49.83.25-.24.5-.42.66-.65 1.79-2.5 3.57-5.02 5.35-7.53.32-.45.62-.92.93-1.38h.26Zm-20.53 2.09c.32.12.65.19.94.36 1.48.84 2.94 1.71 4.41 2.56.62.36 1.25.73 1.88 1.08.24.14.4.31.42.59 0 1.39 0 2.77-.02 4.16 0 .37.08.77-.28 1.04-.16-.06-.33-.11-.47-.19-2.21-1.28-4.42-2.56-6.62-3.84a.656.656 0 0 1-.17-.16c-.17-.96-.21-3.64-.09-5.61Z"/><path class="cls-4" d="M32.6 59.78c.36-.28.28-.67.28-1.04.01-1.39.01-2.77.02-4.16 1.03.08 1.82.65 2.56 1.3-.01 1.82-.03 3.64-.04 5.46-1.03-.36-1.91-.99-2.82-1.56Zm11.62-35.09c-.15.34-.42.47-.77.51v-.23c.2-.25.47-.3.76-.28Z"/><path class="cls-4" d="M43.46 24.97v.23l-.51.27v-.25l.52-.25ZM21.03 37.58c.1-.23.29-.27.51-.27l.02.03c-.17.08-.35.17-.52.25Z"/><path class="cls-4" d="m21.04 37.59-.24.2-.08-.13.32-.08Zm50.25.25c-.22.02-.42-.02-.53-.24l.03-.04c.17.09.33.18.5.27ZM47.34 24.68l-.53-.23.53.23Zm-2.6-.25-.52.27.52-.27ZM71.3 37.84l.12.13s-.07 0-.09-.02c-.02-.03-.03-.07-.04-.11ZM48.39 25.2c-.1-.07-.21-.14-.31-.21.1.07.21.14.31.21Zm-.51-.27c-.1 0-.2 0-.3.01v-.25l.3.23Zm-.3-.23v.25l-.24-.27c.08 0 .16 0 .24.02Zm-1.8 23.19h-.26c0-.38-.22-.61-.54-.79-.6-.32-1.18-.66-1.76-1.02-.21-.13-.36-.34-.54-.52 1.02-.61 2.04-1.22 3.07-1.82 1.1.51 2.2 1.01 3.12 1.83-.38.59-1.03.84-1.6 1.18-.29.17-.6.3-.9.47-.24.14-.32.38-.33.64l-.27.02Zm-21.14-11.6.11-.12s0 .06-.01.08c-.02.02-.06.03-.09.05Zm41.74 13.16c0 1.75-.01 3.49.02 5.24.01.62-.19 1.01-.75 1.32-2 1.12-3.97 2.31-5.96 3.45-.4.23-.85.37-1.28.56v-6.21c.98-.59 1.95-1.19 2.93-1.78 1.24-.74 2.49-1.47 3.75-2.18.39-.22.77-.57 1.29-.4ZM58.4 53.8v6.21c-.05.07-.08.17-.14.21-.78.49-1.56 1-2.44 1.32v-6.21c.78-.65 1.64-1.15 2.58-1.53Zm8.75-17.49c-.08-.01-.16-.02-.23-.04-.03-.01-.06-.05-.09-.08.06-.03.14-.09.19-.07.06.02.11.1.16.16l-.03.03Z"/><g id="fIuL8l"><path class="cls-4" d="M46.25 35.29c-1.14.07-2.26-.09-3.34-.42a9.8 9.8 0 0 1-4.91-3.4 9.697 9.697 0 0 1-1.99-4.8 9.77 9.77 0 0 1 .5-4.61 9.77 9.77 0 0 1 3.36-4.57 9.699 9.699 0 0 1 4.53-1.9c1.68-.24 3.33-.07 4.93.53 1.83.69 3.33 1.83 4.49 3.4 1.1 1.49 1.74 3.16 1.88 5.01.04.54 0 1.08 0 1.61-.03-.15.04-.31-.12-.46-.42-.38-.81-.8-1.22-1.2-.36-.36-.72-.73-1.09-1.1-.48-.48-.95-.96-1.43-1.43-.21-.21-.44-.41-.66-.61-.1-.11-.19-.23-.29-.34-.32-.34-.64-.67-1.01-1.05l-4.1 4.12-4-4.02-1.33 1.32 4.06 4.04-4.07 4.05c.43.42.83.82 1.24 1.22.03.03.07.04.11.05.04.07.08.14.14.2.46.46.93.91 1.39 1.37.58.58 1.16 1.17 1.74 1.76.4.4.79.81 1.18 1.21Z"/><path class="cls-4" d="m46.25 35.29-1.18-1.21c-.58-.59-1.16-1.18-1.74-1.76-.46-.46-.93-.91-1.39-1.37-.06-.06-.09-.13-.14-.2.53-.53 1.06-1.07 1.6-1.6.62-.61 1.24-1.23 1.85-1.84.11 0 .29.1.28-.14 0-.02.06-.05.1-.06.09-.05.19-.09.32-.15.1.09.2.2.31.31.1.09.16.25.34.22.03.03.07.05.1.08l2.07 2.07c.38.38.75.77 1.12 1.14l1.32-1.31-4.05-4.04 4.05-4.06c.22.2.45.4.66.61.48.47.96.95 1.43 1.43.36.36.72.73 1.09 1.1.4.4.8.82 1.22 1.2.16.15.09.3.12.46-.1 1.62-.59 3.13-1.46 4.49-1.73 2.7-4.2 4.24-7.39 4.62-.2.02-.41.03-.62.04Z"/><path class="cls-4" d="M45.25 27.31c-.62.61-1.24 1.22-1.85 1.84-.53.53-1.06 1.07-1.6 1.6-.04-.02-.08-.03-.11-.05-.41-.4-.81-.8-1.24-1.22l4.07-4.05-4.06-4.04 1.33-1.32 4 4.02 4.1-4.12c.37.39.69.72 1.01 1.05.1.11.19.23.29.34l-4.05 4.06 4.05 4.04-1.32 1.31c-.37-.38-.74-.76-1.12-1.14l-2.07-2.07c-.03-.03-.06-.05-.1-.08l-.77-.71-.58.55Z"/><path class="cls-4" d="m45.25 27.31.58-.55.77.71c-.18.03-.24-.12-.34-.22-.11-.11-.22-.21-.31-.31-.13.06-.22.11-.32.15-.04.02-.1.04-.1.06 0 .25-.17.14-.28.14Z"/></g><circle cx="45.78" cy="45.78" r="45.78" style="fill:#e0dce7"/><rect class="cls-1" x="60.59" y="72.14" width="1.02" height="4.16" rx=".51" ry=".51" transform="rotate(-45 61.1 74.212)"/><rect class="cls-1" x="59.02" y="73.71" width="4.16" height="1.02" rx=".51" ry=".51" transform="rotate(-45 61.1 74.212)"/><rect class="cls-1" x="25.04" y="15.45" width="1.02" height="4.16" rx=".51" ry=".51" transform="rotate(-45 25.55 17.527)"/><rect class="cls-1" x="23.47" y="17.02" width="4.16" height="1.02" rx=".51" ry=".51" transform="rotate(-45 25.55 17.527)"/><rect class="cls-1" x="77.47" y="29.79" width="1.37" height="5.59" rx=".51" ry=".51" transform="rotate(-45 78.153 32.598)"/><rect class="cls-1" x="75.35" y="31.91" width="5.59" height="1.37" rx=".51" ry=".51" transform="rotate(-45 78.153 32.598)"/><rect class="cls-1" x="21.89" y="62.42" width="1.74" height="7.1" rx=".51" ry=".51" transform="rotate(-45 22.754 65.965)"/><rect class="cls-1" x="19.21" y="65.1" width="7.1" height="1.74" rx=".51" ry=".51" transform="rotate(-45 22.754 65.965)"/><path d="M18.75 44.66c1.75-2.42 3.5-4.85 5.23-7.27.25-.34.44-.73.66-1.09.03-.02.07-.03.09-.05.01-.01 0-.05.01-.08l-.11.12c-.55-.09-.97.25-1.43.45-.54.23-1.02.63-1.65.6l-.02-.03c.18-.17.34-.39.55-.51 1.43-.86 2.87-1.7 4.32-2.54 1.96-1.14 3.92-2.28 5.89-3.4 3.27-1.87 6.49-3.84 9.93-5.39.23-.1.48-.17.72-.25v.25c-1.36.81-2.71 1.63-4.08 2.42-3.52 2.04-7.06 4.06-10.59 6.09-.92.53-1.82 1.09-2.76 1.66.14.15.21.26.31.32 2.22 1.29 4.45 2.58 6.68 3.86 2.63 1.52 5.26 3.06 7.91 4.56.74.42 1.4 1.01 2.27 1.18.18.17.33.39.54.52.57.36 1.16.7 1.76 1.02.33.18.54.41.54.79-.31.46-.61.92-.93 1.38-1.78 2.51-3.56 5.02-5.35 7.53-.17.23-.41.41-.66.65-.52-.29-1.01-.56-1.49-.83-.52-.29-1-.66-1.63-.73-.74-.65-1.53-1.22-2.56-1.3-.03-.28-.18-.46-.42-.59-.63-.35-1.25-.72-1.88-1.08-1.47-.85-2.94-1.72-4.41-2.56-.29-.16-.63-.24-.94-.36-.29-.52-.84-.72-1.31-1-1.47-.87-2.97-1.69-4.46-2.53m47.67-10.16c0 .52.4.85.68 1.2 1.15 1.48 2.35 2.92 3.52 4.39.74.93 1.48 1.87 2.25 2.85-.37.42-.81.66-1.24.91-1.82 1.04-3.63 2.08-5.44 3.12-.22.13-.47.22-.5.53-.01.05-.03.09-.04.14-.52-.17-.9.18-1.29.4-1.26.71-2.51 1.44-3.75 2.18-.98.58-1.96 1.18-2.93 1.78-.93.38-1.8.88-2.58 1.53-.39.18-.78.34-1.15.54-.49.25-.97.53-1.43.78-.54-.29-.82-.73-1.15-1.13-.6-.73-1.18-1.47-1.76-2.21-1.43-1.82-2.86-3.63-4.29-5.45.01-.27.09-.51.33-.64.29-.17.61-.3.9-.47.57-.34 1.22-.59 1.6-1.18.39-.17.79-.31 1.16-.52 1.26-.72 2.51-1.47 3.77-2.19 1.49-.85 2.99-1.66 4.48-2.52 2.44-1.41 4.88-2.85 7.31-4.28.17-.1.41-.16.33-.5-2.75-1.59-5.52-3.2-8.3-4.81-2.89-1.67-5.79-3.33-8.67-5.01-.16-.09-.24-.33-.36-.49.17.03.35.03.49.09 2.76 1.25 5.48 2.58 8.07 4.17 1.45.89 2.95 1.72 4.43 2.57 2.03 1.17 4.06 2.35 6.1 3.52.81.47 1.64.92 2.44 1.4.25.15.45.37.68.55l-.03.04c-.46.05-.82-.2-1.21-.36-.79-.33-1.58-.64-2.37-.96-.05-.06-.1-.14-.16-.16-.05-.02-.12.05-.19.07.03.03.05.07.09.08.07.02.15.03.23.04Z" style="fill:#ebc892"/><path d="M48.59 25.25c.12.17.2.4.36.49 2.89 1.68 5.78 3.34 8.67 5.01 2.78 1.6 5.55 3.22 8.3 4.81.08.34-.16.4-.33.5-2.44 1.43-4.87 2.87-7.31 4.28-1.48.86-2.99 1.67-4.48 2.52-1.26.72-2.51 1.47-3.77 2.19-.37.21-.77.35-1.16.52-.92-.81-2.03-1.31-3.12-1.83 0-.17.02-.34.02-.51V25.28c0-.21 0-.43-.02-.64-.01-.33-.25-.41-.51-.46.28-.37.63-.31.97-.13.21.11.4.27.6.4l.53.23.24.27h.3c.07 0 .14.02.2.04.1.07.21.14.31.21.07 0 .13.02.19.05Z" style="fill:#c9af90"/><path d="M45.24 24.18c.26.05.5.13.51.46 0 .21.02.43.02.64v17.95c0 .17-.01.34-.02.51-1.02.61-2.04 1.22-3.07 1.82-.87-.17-1.53-.76-2.27-1.18-2.65-1.5-5.28-3.03-7.91-4.56-2.23-1.29-4.45-2.57-6.68-3.86-.1-.06-.17-.18-.31-.32.94-.57 1.84-1.13 2.76-1.66 3.53-2.04 7.06-4.06 10.59-6.09 1.37-.79 2.72-1.62 4.08-2.42l.51-.27c.34-.04.62-.18.77-.51l.52-.27.5-.25Z" style="fill:#a0856a"/><path d="M57.03 69.2c-2.7-.42-5.41-.82-8.11-1.25-.97-.15-1.93-.36-2.9-.54.1-.08.19-.17.3-.23 2.49-1.46 4.99-2.91 7.47-4.37.69-.41 1.36-.85 2.04-1.27.87-.33 1.65-.83 2.44-1.32.07-.04.1-.14.14-.21.43-.18.88-.33 1.28-.56 1.99-1.14 3.96-2.33 5.96-3.45.57-.32.76-.7.75-1.32-.03-1.75-.02-3.49-.02-5.24.02-.04.03-.09.04-.14 1.86.29 3.46 1.16 5.05 2.12 2.17 1.3 4.39 2.5 6.68 3.8-.2.22-.34.42-.53.55-3.98 2.69-7.96 5.37-11.94 8.06-2.27 1.53-4.55 3.07-6.82 4.61-.28.19-.58.37-.85.58-.3.23-.62.24-.98.18" style="fill:#bda59f"/><path class="cls-14" d="M55.83 61.55c-.68.43-1.35.87-2.04 1.27-2.49 1.46-4.98 2.91-7.47 4.37-.11.06-.2.15-.3.23h-.11l-.1-.03c-.01-.34-.04-.68-.04-1.03V47.88l.27-.02c1.43 1.82 2.86 3.64 4.29 5.45.58.74 1.16 1.48 1.76 2.21.32.39.6.83 1.15 1.13.46-.25.93-.53 1.43-.78.38-.19.77-.36 1.15-.54v6.21Z"/><path class="cls-13" d="M45.78 47.89v18.48c0 .34.02.68.04 1.03-1.23-.68-2.47-1.34-3.69-2.03a496.99 496.99 0 0 1-5.87-3.42c-.29-.17-.55-.4-.82-.6.01-1.82.03-3.64.04-5.46.62.07 1.11.44 1.63.73.48.27.96.54 1.49.83.25-.24.5-.42.66-.65 1.79-2.5 3.57-5.02 5.35-7.53.32-.45.62-.92.93-1.38h.26Zm-20.53 2.09c.32.12.65.19.94.36 1.48.84 2.94 1.71 4.41 2.56.62.36 1.25.73 1.88 1.08.24.14.4.31.42.59 0 1.39 0 2.77-.02 4.16 0 .37.08.77-.28 1.04-.16-.06-.33-.11-.47-.19-2.21-1.28-4.42-2.56-6.62-3.84a.656.656 0 0 1-.17-.16c-.17-.96-.21-3.64-.09-5.61Z"/><path class="cls-13" d="M32.6 59.78c.36-.28.28-.67.28-1.04.01-1.39.01-2.77.02-4.16 1.03.08 1.82.65 2.56 1.3-.01 1.82-.03 3.64-.04 5.46-1.03-.36-1.91-.99-2.82-1.56Z"/><path class="cls-12" d="M44.22 24.69c-.15.34-.42.47-.77.51v-.23c.2-.25.47-.3.76-.28Z"/><path class="cls-5" d="M43.46 24.97v.23l-.51.27v-.25l.52-.25ZM21.03 37.58c.1-.23.29-.27.51-.27l.02.03c-.17.08-.35.17-.52.25Z"/><path class="cls-5" d="m21.04 37.59-.24.2-.08-.13.32-.08Zm50.25.25c-.22.02-.42-.02-.53-.24l.03-.04c.17.09.33.18.5.27ZM47.34 24.68l-.53-.23.53.23Z"/><path class="cls-12" d="m44.74 24.43-.52.27.52-.27Z"/><path class="cls-5" d="m71.3 37.84.12.13s-.07 0-.09-.02c-.02-.03-.03-.07-.04-.11ZM48.39 25.2c-.1-.07-.21-.14-.31-.21.1.07.21.14.31.21Zm-.51-.27c-.1 0-.2 0-.3.01v-.25l.3.23Zm-.3-.23v.25l-.24-.27c.08 0 .16 0 .24.02Z"/><path class="cls-12" d="M45.78 47.89h-.26c0-.38-.22-.61-.54-.79-.6-.32-1.18-.66-1.76-1.02-.21-.13-.36-.34-.54-.52 1.02-.61 2.04-1.22 3.07-1.82 1.1.51 2.2 1.01 3.12 1.83-.38.59-1.03.84-1.6 1.18-.29.17-.6.3-.9.47-.24.14-.32.38-.33.64l-.27.02Z"/><path class="cls-3" d="m24.64 36.29.11-.12s0 .06-.01.08c-.02.02-.06.03-.09.05Z"/><path class="cls-14" d="M66.38 49.45c0 1.75-.01 3.49.02 5.24.01.62-.19 1.01-.75 1.32-2 1.12-3.97 2.31-5.96 3.45-.4.23-.85.37-1.28.56v-6.21c.98-.59 1.95-1.19 2.93-1.78 1.24-.74 2.49-1.47 3.75-2.18.39-.22.77-.57 1.29-.4ZM58.4 53.8v6.21c-.05.07-.08.17-.14.21-.78.49-1.56 1-2.44 1.32v-6.21c.78-.65 1.64-1.15 2.58-1.53Z"/><path class="cls-3" d="M67.15 36.31c-.08-.01-.16-.02-.23-.04-.03-.01-.06-.05-.09-.08.06-.03.14-.09.19-.07.06.02.11.1.16.16l-.03.03Z"/><g id="fIuL8l-2"><path d="M46.25 35.29c-1.14.07-2.26-.09-3.34-.42a9.8 9.8 0 0 1-4.91-3.4 9.697 9.697 0 0 1-1.99-4.8 9.77 9.77 0 0 1 .5-4.61 9.77 9.77 0 0 1 3.36-4.57 9.699 9.699 0 0 1 4.53-1.9c1.68-.24 3.33-.07 4.93.53 1.83.69 3.33 1.83 4.49 3.4 1.1 1.49 1.74 3.16 1.88 5.01.04.54 0 1.08 0 1.61-.03-.15.04-.31-.12-.46-.42-.38-.81-.8-1.22-1.2-.36-.36-.72-.73-1.09-1.1-.48-.48-.95-.96-1.43-1.43-.21-.21-.44-.41-.66-.61-.1-.11-.19-.23-.29-.34-.32-.34-.64-.67-1.01-1.05l-4.1 4.12-4-4.02-1.33 1.32 4.06 4.04-4.07 4.05c.43.42.83.82 1.24 1.22.03.03.07.04.11.05.04.07.08.14.14.2.46.46.93.91 1.39 1.37.58.58 1.16 1.17 1.74 1.76.4.4.79.81 1.18 1.21Z" style="fill:#dc4f47"/><path d="m46.25 35.29-1.18-1.21c-.58-.59-1.16-1.18-1.74-1.76-.46-.46-.93-.91-1.39-1.37-.06-.06-.09-.13-.14-.2.53-.53 1.06-1.07 1.6-1.6.62-.61 1.24-1.23 1.85-1.84.11 0 .29.1.28-.14 0-.02.06-.05.1-.06.09-.05.19-.09.32-.15.1.09.2.2.31.31.1.09.16.25.34.22.03.03.07.05.1.08l2.07 2.07c.38.38.75.77 1.12 1.14l1.32-1.31-4.05-4.04 4.05-4.06c.22.2.45.4.66.61.48.47.96.95 1.43 1.43.36.36.72.73 1.09 1.1.4.4.8.82 1.22 1.2.16.15.09.3.12.46-.1 1.62-.59 3.13-1.46 4.49-1.73 2.7-4.2 4.24-7.39 4.62-.2.02-.41.03-.62.04Z" style="fill:#a4372e"/><path d="M45.25 27.31c-.62.61-1.24 1.22-1.85 1.84-.53.53-1.06 1.07-1.6 1.6-.04-.02-.08-.03-.11-.05-.41-.4-.81-.8-1.24-1.22l4.07-4.05-4.06-4.04 1.33-1.32 4 4.02 4.1-4.12c.37.39.69.72 1.01 1.05.1.11.19.23.29.34l-4.05 4.06 4.05 4.04-1.32 1.31c-.37-.38-.74-.76-1.12-1.14l-2.07-2.07c-.03-.03-.06-.05-.1-.08l-.77-.71-.58.55Z" style="fill:#fcf8f6"/><path d="m45.25 27.31.58-.55.77.71c-.18.03-.24-.12-.34-.22-.11-.11-.22-.21-.31-.31-.13.06-.22.11-.32.15-.04.02-.1.04-.1.06 0 .25-.17.14-.28.14Z" style="fill:#9a3b39"/></g></g></svg>
