 <svg id="Layer_2" xmlns="http://www.w3.org/2000/svg" viewBox="0 0 91.56 91.56"><defs><style>.cls-2{fill:#f9f9fa}.cls-6{fill:#fff}.cls-9{fill:#fafaf9}.cls-10{fill:#ebd0ad}.cls-16{fill:#ddc6a5}.cls-17{fill:#deb36c}.cls-19{fill:#d4913f}</style></defs><g id="Layer_1-2"><circle class="cls-9" cx="45.78" cy="45.78" r="45.78"/><circle class="cls-9" cx="45.78" cy="45.78" r="45.78"/><rect class="cls-9" x="25.04" y="15.45" width="1.02" height="4.16" rx=".51" ry=".51" transform="rotate(-45 25.55 17.527)"/><rect class="cls-9" x="23.47" y="17.02" width="4.16" height="1.02" rx=".51" ry=".51" transform="rotate(-45 25.55 17.527)"/><rect class="cls-9" x="23.47" y="17.02" width="4.16" height="1.02" rx=".51" ry=".51" transform="rotate(-45 25.55 17.527)"/><rect class="cls-9" x="23.47" y="17.02" width="4.16" height="1.02" rx=".51" ry=".51" transform="rotate(-45 25.55 17.527)"/><rect class="cls-9" x="25.04" y="15.45" width="1.02" height="4.16" rx=".51" ry=".51" transform="rotate(-45 25.55 17.527)"/><rect class="cls-9" x="23.47" y="17.02" width="4.16" height="1.02" rx=".51" ry=".51" transform="rotate(-45 25.55 17.527)"/><rect class="cls-9" x="23.47" y="17.02" width="4.16" height="1.02" rx=".51" ry=".51" transform="rotate(-45 25.55 17.527)"/><rect class="cls-9" x="23.47" y="17.02" width="4.16" height="1.02" rx=".51" ry=".51" transform="rotate(-45 25.55 17.527)"/><rect class="cls-9" x="25.04" y="15.45" width="1.02" height="4.16" rx=".51" ry=".51" transform="rotate(-45 25.55 17.527)"/><rect class="cls-9" x="23.47" y="17.02" width="4.16" height="1.02" rx=".51" ry=".51" transform="rotate(-45 25.55 17.527)"/><rect class="cls-9" x="23.47" y="17.02" width="4.16" height="1.02" rx=".51" ry=".51" transform="rotate(-45 25.55 17.527)"/><rect class="cls-9" x="23.47" y="17.02" width="4.16" height="1.02" rx=".51" ry=".51" transform="rotate(-45 25.55 17.527)"/><rect class="cls-9" x="77.47" y="29.79" width="1.37" height="5.59" rx=".51" ry=".51" transform="rotate(-45 78.153 32.598)"/><rect class="cls-9" x="75.35" y="31.91" width="5.59" height="1.37" rx=".51" ry=".51" transform="rotate(-45 78.153 32.598)"/><rect class="cls-9" x="75.35" y="31.91" width="5.59" height="1.37" rx=".51" ry=".51" transform="rotate(-45 78.153 32.598)"/><rect class="cls-9" x="75.35" y="31.91" width="5.59" height="1.37" rx=".51" ry=".51" transform="rotate(-45 78.153 32.598)"/><rect class="cls-9" x="77.47" y="29.79" width="1.37" height="5.59" rx=".51" ry=".51" transform="rotate(-45 78.153 32.598)"/><rect class="cls-9" x="75.35" y="31.91" width="5.59" height="1.37" rx=".51" ry=".51" transform="rotate(-45 78.153 32.598)"/><rect class="cls-9" x="75.35" y="31.91" width="5.59" height="1.37" rx=".51" ry=".51" transform="rotate(-45 78.153 32.598)"/><rect class="cls-9" x="75.35" y="31.91" width="5.59" height="1.37" rx=".51" ry=".51" transform="rotate(-45 78.153 32.598)"/><rect class="cls-9" x="77.47" y="29.79" width="1.37" height="5.59" rx=".51" ry=".51" transform="rotate(-45 78.153 32.598)"/><rect class="cls-9" x="75.35" y="31.91" width="5.59" height="1.37" rx=".51" ry=".51" transform="rotate(-45 78.153 32.598)"/><rect class="cls-9" x="75.35" y="31.91" width="5.59" height="1.37" rx=".51" ry=".51" transform="rotate(-45 78.153 32.598)"/><rect class="cls-9" x="75.35" y="31.91" width="5.59" height="1.37" rx=".51" ry=".51" transform="rotate(-45 78.153 32.598)"/><rect class="cls-9" x="21.89" y="62.42" width="1.74" height="7.1" rx=".51" ry=".51" transform="rotate(-45 22.754 65.965)"/><rect class="cls-9" x="19.21" y="65.1" width="7.1" height="1.74" rx=".51" ry=".51" transform="rotate(-45 22.754 65.965)"/><rect class="cls-9" x="19.21" y="65.1" width="7.1" height="1.74" rx=".51" ry=".51" transform="rotate(-45 22.754 65.965)"/><rect class="cls-9" x="19.21" y="65.1" width="7.1" height="1.74" rx=".51" ry=".51" transform="rotate(-45 22.754 65.965)"/><rect class="cls-9" x="21.89" y="62.42" width="1.74" height="7.1" rx=".51" ry=".51" transform="rotate(-45 22.754 65.965)"/><rect class="cls-9" x="19.21" y="65.1" width="7.1" height="1.74" rx=".51" ry=".51" transform="rotate(-45 22.754 65.965)"/><rect class="cls-9" x="19.21" y="65.1" width="7.1" height="1.74" rx=".51" ry=".51" transform="rotate(-45 22.754 65.965)"/><rect class="cls-9" x="19.21" y="65.1" width="7.1" height="1.74" rx=".51" ry=".51" transform="rotate(-45 22.754 65.965)"/><rect class="cls-9" x="21.89" y="62.42" width="1.74" height="7.1" rx=".51" ry=".51" transform="rotate(-45 22.754 65.965)"/><rect class="cls-9" x="19.21" y="65.1" width="7.1" height="1.74" rx=".51" ry=".51" transform="rotate(-45 22.754 65.965)"/><rect class="cls-9" x="19.21" y="65.1" width="7.1" height="1.74" rx=".51" ry=".51" transform="rotate(-45 22.754 65.965)"/><rect class="cls-9" x="19.21" y="65.1" width="7.1" height="1.74" rx=".51" ry=".51" transform="rotate(-45 22.754 65.965)"/><path class="cls-9" d="M18.75 44.66c1.75-2.42 3.5-4.85 5.23-7.27.25-.34.44-.73.66-1.09.03-.02.07-.03.09-.05.01-.01 0-.05.01-.08l-.11.12c-.55-.09-.97.25-1.43.45-.54.23-1.02.63-1.65.6l-.02-.03c.18-.17.34-.39.55-.51 1.43-.86 2.87-1.7 4.32-2.54 1.96-1.14 3.92-2.28 5.89-3.4 3.27-1.87 6.49-3.84 9.93-5.39.23-.1.48-.17.72-.25v.25c-1.36.81-2.71 1.63-4.08 2.42-3.52 2.04-7.06 4.06-10.59 6.09-.92.53-1.82 1.09-2.76 1.66.14.15.21.26.31.32 2.22 1.29 4.45 2.58 6.68 3.86 2.63 1.52 5.26 3.06 7.91 4.56.74.42 1.4 1.01 2.27 1.18.18.17.33.39.54.52.57.36 1.16.7 1.76 1.02.33.18.54.41.54.79-.31.46-.61.92-.93 1.38-1.78 2.51-3.56 5.02-5.35 7.53-.17.23-.41.41-.66.65-.52-.29-1.01-.56-1.49-.83-.52-.29-1-.66-1.63-.73-.74-.65-1.53-1.22-2.56-1.3-.03-.28-.18-.46-.42-.59-.63-.35-1.25-.72-1.88-1.08-1.47-.85-2.94-1.72-4.41-2.56-.29-.16-.63-.24-.94-.36-.29-.52-.84-.72-1.31-1-1.47-.87-2.97-1.69-4.46-2.53m47.67-10.16c0 .52.4.85.68 1.2 1.15 1.48 2.35 2.92 3.52 4.39.74.93 1.48 1.87 2.25 2.85-.37.42-.81.66-1.24.91-1.82 1.04-3.63 2.08-5.44 3.12-.22.13-.47.22-.5.53-.01.05-.03.09-.04.14-.52-.17-.9.18-1.29.4-1.26.71-2.51 1.44-3.75 2.18-.98.58-1.96 1.18-2.93 1.78-.93.38-1.8.88-2.58 1.53-.39.18-.78.34-1.15.54-.49.25-.97.53-1.43.78-.54-.29-.82-.73-1.15-1.13-.6-.73-1.18-1.47-1.76-2.21-1.43-1.82-2.86-3.63-4.29-5.45.01-.27.09-.51.33-.64.29-.17.61-.3.9-.47.57-.34 1.22-.59 1.6-1.18.39-.17.79-.31 1.16-.52 1.26-.72 2.51-1.47 3.77-2.19 1.49-.85 2.99-1.66 4.48-2.52 2.44-1.41 4.88-2.85 7.31-4.28.17-.1.41-.16.33-.5-2.75-1.59-5.52-3.2-8.3-4.81-2.89-1.67-5.79-3.33-8.67-5.01-.16-.09-.24-.33-.36-.49.17.03.35.03.49.09 2.76 1.25 5.48 2.58 8.07 4.17 1.45.89 2.95 1.72 4.43 2.57 2.03 1.17 4.06 2.35 6.1 3.52.81.47 1.64.92 2.44 1.4.25.15.45.37.68.55l-.03.04c-.46.05-.82-.2-1.21-.36-.79-.33-1.58-.64-2.37-.96-.05-.06-.1-.14-.16-.16-.05-.02-.12.05-.19.07.03.03.05.07.09.08.07.02.15.03.23.04Z"/><path class="cls-9" d="M48.59 25.25c.12.17.2.4.36.49 2.89 1.68 5.78 3.34 8.67 5.01 2.78 1.6 5.55 3.22 8.3 4.81.08.34-.16.4-.33.5-2.44 1.43-4.87 2.87-7.31 4.28-1.48.86-2.99 1.67-4.48 2.52-1.26.72-2.51 1.47-3.77 2.19-.37.21-.77.35-1.16.52-.92-.81-2.03-1.31-3.12-1.83 0-.17.02-.34.02-.51V25.28c0-.21 0-.43-.02-.64-.01-.33-.25-.41-.51-.46.28-.37.63-.31.97-.13.21.11.4.27.6.4l.53.23.24.27h.3c.07 0 .14.02.2.04.1.07.21.14.31.21.07 0 .13.02.19.05Z"/><path class="cls-9" d="M45.24 24.18c.26.05.5.13.51.46 0 .21.02.43.02.64v17.95c0 .17-.01.34-.02.51-1.02.61-2.04 1.22-3.07 1.82-.87-.17-1.53-.76-2.27-1.18-2.65-1.5-5.28-3.03-7.91-4.56-2.23-1.29-4.45-2.57-6.68-3.86-.1-.06-.17-.18-.31-.32.94-.57 1.84-1.13 2.76-1.66 3.53-2.04 7.06-4.06 10.59-6.09 1.37-.79 2.72-1.62 4.08-2.42l.51-.27c.34-.04.62-.18.77-.51l.52-.27.5-.25ZM57.03 69.2c-2.7-.42-5.41-.82-8.11-1.25-.97-.15-1.93-.36-2.9-.54.1-.08.19-.17.3-.23 2.49-1.46 4.99-2.91 7.47-4.37.69-.41 1.36-.85 2.04-1.27.87-.33 1.65-.83 2.44-1.32.07-.04.1-.14.14-.21.43-.18.88-.33 1.28-.56 1.99-1.14 3.96-2.33 5.96-3.45.57-.32.76-.7.75-1.32-.03-1.75-.02-3.49-.02-5.24.02-.04.03-.09.04-.14 1.86.29 3.46 1.16 5.05 2.12 2.17 1.3 4.39 2.5 6.68 3.8-.2.22-.34.42-.53.55-3.98 2.69-7.96 5.37-11.94 8.06-2.27 1.53-4.55 3.07-6.82 4.61-.28.19-.58.37-.85.58-.3.23-.62.24-.98.18"/><path class="cls-9" d="M55.83 61.55c-.68.43-1.35.87-2.04 1.27-2.49 1.46-4.98 2.91-7.47 4.37-.11.06-.2.15-.3.23h-.11l-.1-.03c-.01-.34-.04-.68-.04-1.03V47.88l.27-.02c1.43 1.82 2.86 3.64 4.29 5.45.58.74 1.16 1.48 1.76 2.21.32.39.6.83 1.15 1.13.46-.25.93-.53 1.43-.78.38-.19.77-.36 1.15-.54v6.21Z"/><path class="cls-9" d="M45.78 47.89v18.48c0 .34.02.68.04 1.03-1.23-.68-2.47-1.34-3.69-2.03a496.99 496.99 0 0 1-5.87-3.42c-.29-.17-.55-.4-.82-.6.01-1.82.03-3.64.04-5.46.62.07 1.11.44 1.63.73.48.27.96.54 1.49.83.25-.24.5-.42.66-.65 1.79-2.5 3.57-5.02 5.35-7.53.32-.45.62-.92.93-1.38h.26Zm-20.53 2.09c.32.12.65.19.94.36 1.48.84 2.94 1.71 4.41 2.56.62.36 1.25.73 1.88 1.08.24.14.4.31.42.59 0 1.39 0 2.77-.02 4.16 0 .37.08.77-.28 1.04-.16-.06-.33-.11-.47-.19-2.21-1.28-4.42-2.56-6.62-3.84a.656.656 0 0 1-.17-.16c-.17-.96-.21-3.64-.09-5.61Z"/><path class="cls-9" d="M32.6 59.78c.36-.28.28-.67.28-1.04.01-1.39.01-2.77.02-4.16 1.03.08 1.82.65 2.56 1.3-.01 1.82-.03 3.64-.04 5.46-1.03-.36-1.91-.99-2.82-1.56Zm11.62-35.09c-.15.34-.42.47-.77.51v-.23c.2-.25.47-.3.76-.28Z"/><path class="cls-9" d="M43.46 24.97v.23l-.51.27v-.25l.52-.25ZM21.03 37.58c.1-.23.29-.27.51-.27l.02.03c-.17.08-.35.17-.52.25Z"/><path class="cls-9" d="m21.04 37.59-.24.2-.08-.13.32-.08Zm50.25.25c-.22.02-.42-.02-.53-.24l.03-.04c.17.09.33.18.5.27ZM47.34 24.68l-.53-.23.53.23Zm-2.6-.25-.52.27.52-.27ZM71.3 37.84l.12.13s-.07 0-.09-.02c-.02-.03-.03-.07-.04-.11ZM48.39 25.2c-.1-.07-.21-.14-.31-.21.1.07.21.14.31.21Zm-.51-.27c-.1 0-.2 0-.3.01v-.25l.3.23Zm-.3-.23v.25l-.24-.27c.08 0 .16 0 .24.02Zm-1.8 23.19h-.26c0-.38-.22-.61-.54-.79-.6-.32-1.18-.66-1.76-1.02-.21-.13-.36-.34-.54-.52 1.02-.61 2.04-1.22 3.07-1.82 1.1.51 2.2 1.01 3.12 1.83-.38.59-1.03.84-1.6 1.18-.29.17-.6.3-.9.47-.24.14-.32.38-.33.64l-.27.02Zm-21.14-11.6.11-.12s0 .06-.01.08c-.02.02-.06.03-.09.05Zm41.74 13.16c0 1.75-.01 3.49.02 5.24.01.62-.19 1.01-.75 1.32-2 1.12-3.97 2.31-5.96 3.45-.4.23-.85.37-1.28.56v-6.21c.98-.59 1.95-1.19 2.93-1.78 1.24-.74 2.49-1.47 3.75-2.18.39-.22.77-.57 1.29-.4ZM58.4 53.8v6.21c-.05.07-.08.17-.14.21-.78.49-1.56 1-2.44 1.32v-6.21c.78-.65 1.64-1.15 2.58-1.53Zm8.75-17.49c-.08-.01-.16-.02-.23-.04-.03-.01-.06-.05-.09-.08.06-.03.14-.09.19-.07.06.02.11.1.16.16l-.03.03Z"/><path class="cls-9" d="M46.48 35.31h-6.45a3.276 3.276 0 0 1-2.69-1.57c-.2-.32-.34-.66-.43-1.03-.05-.2-.08-.39-.08-.6v-.24c0-.26.04-.52.1-.77.08-.28.18-.55.33-.81.17-.3.33-.6.5-.91.21-.39.43-.77.65-1.16.12-.21.23-.42.35-.63.17-.31.34-.61.51-.92l.33-.6c.18-.32.36-.64.53-.96.11-.21.23-.41.34-.62.17-.31.35-.62.52-.93.12-.21.23-.42.35-.63.17-.31.35-.62.52-.93l.33-.6c.18-.32.36-.64.53-.96.12-.21.24-.43.35-.64.18-.32.36-.65.54-.97.1-.17.22-.33.36-.47.16-.17.33-.32.51-.46.37-.27.77-.45 1.21-.56.34-.08.68-.11 1.03-.08.32.03.63.09.92.21.31.12.61.28.88.49.25.19.47.42.66.68.09.13.18.27.26.41.17.3.33.6.5.91.17.3.33.59.5.89.11.2.22.39.33.59.13.23.26.47.39.7.11.2.22.39.33.59.18.32.36.65.54.97.12.21.24.43.35.64l.51.9.33.6c.18.32.36.64.53.96.11.2.22.39.33.59.18.32.36.65.54.97.12.21.24.43.35.64.17.3.34.6.5.91.15.27.31.54.42.83.1.28.19.57.2.88 0 .09.02.17.02.26 0 .39-.06.76-.18 1.13-.2.59-.53 1.08-1 1.49-.44.38-.95.63-1.52.74-.23.05-.47.06-.7.06h-6.25Zm-7.83-3.35c0 .09 0 .18.03.27.12.57.46.96 1 1.17.19.07.38.09.58.09h12.53c.46-.01.85-.18 1.15-.54.33-.39.44-.83.34-1.33-.04-.19-.12-.36-.22-.53-1.67-3-3.34-6.01-5.01-9.01-.41-.73-.81-1.46-1.22-2.19-.36-.65-1.04-.88-1.58-.79-.45.07-.8.3-1.06.68-.04.06-.07.12-.11.19-1.89 3.41-3.79 6.82-5.68 10.23-.18.33-.37.66-.55.99-.12.22-.2.46-.2.71v.06Z"/><path class="cls-9" d="M38.66 31.9c0-.26.07-.49.2-.71.18-.33.37-.66.55-.99 1.89-3.41 3.79-6.82 5.68-10.23.03-.06.07-.13.11-.19.25-.38.61-.6 1.06-.68.54-.09 1.23.14 1.58.79.4.73.81 1.46 1.22 2.19 1.67 3 3.34 6.01 5.01 9.01.09.17.18.34.22.53.1.5-.01.94-.34 1.33-.3.35-.69.52-1.15.54H40.27c-.2 0-.39-.02-.58-.09-.55-.21-.88-.6-1-1.17-.02-.09-.02-.18-.03-.27.02-.02.02-.04 0-.06Zm8.64-.64.06-.02c.15-.05.2-.17.19-.31V30c-.02-.18-.13-.29-.31-.29h-1.61c-.19.08-.24.22-.23.39v.78c0 .05.01.1.02.16s0 .02.01.03c.02.08.08.12.13.17h.04l.06.02s.04.03.06.04h1.43c.05 0 .11.02.15-.03Zm.43-5.07v-.06l.03-.27c.02-.24.04-.49.07-.73.02-.24.05-.49.07-.73v-.1a.387.387 0 0 0-.22-.34.492.492 0 0 0-.21-.04h-2.03c-.2 0-.35.15-.37.35v.13c.02.2.03.4.05.6.02.26.05.53.07.79.02.26.04.53.07.79.03.37.07.74.1 1.1.03.37.06.74.1 1.1 0 .04 0 .09.02.13.03.12.09.21.21.25.03.01.05.02.08.03.03 0 .06.02.09.02h1.23c.03 0 .06-.02.09-.02.19-.06.29-.19.3-.38 0-.08.01-.16.02-.24.03-.28.05-.55.08-.83.02-.25.05-.5.07-.74.02-.27.05-.53.07-.8Z"/><path class="cls-9" d="M38.66 31.9s.02.04 0 .06v-.06Zm7.11-2.7s-.05-.02-.08-.03a.35.35 0 0 1-.21-.25c0-.04-.02-.08-.02-.13-.03-.37-.06-.74-.1-1.1-.03-.37-.07-.74-.1-1.1-.02-.26-.04-.53-.07-.79-.02-.26-.05-.53-.07-.79-.02-.2-.04-.4-.05-.6v-.13c.02-.2.17-.34.37-.35h2.03c.07 0 .14 0 .21.04.15.07.21.19.22.34v.1c-.02.24-.05.49-.07.73-.02.24-.04.49-.07.73 0 .09-.02.18-.03.27v.06c-.03.27-.05.53-.08.8-.02.25-.05.5-.07.74-.03.28-.05.55-.08.83 0 .08-.01.16-.02.24-.01.2-.12.32-.3.38h-1.42Zm-.17 2.04h-.04c-.05-.05-.11-.09-.13-.17s0-.02-.01-.03c0-.05-.02-.1-.02-.16v-.78c0-.17.04-.31.23-.39h1.61c.18 0 .3.11.31.29v.93c0 .15-.05.26-.19.31l-.06.02h-1.65l-.06-.03Zm.06.03h1.65c-.04.04-.1.03-.15.03h-1.43c-.02 0-.04-.02-.06-.03Zm.11-2.07h1.42c-.03 0-.06.02-.09.02h-1.23c-.03 0-.06-.02-.09-.02Zm1.96-3Zm-2.13 5.04.06.02-.06-.02Zm1.7.02.06-.02-.06.02Z"/><path class="cls-9" d="M45.42 31.04s0 .01.01.02 0 0-.01 0Z"/><rect class="cls-9" x="66.5" y="72.14" width="1.02" height="4.16" rx=".51" ry=".51" transform="rotate(-45 67.01 74.213)"/><rect class="cls-9" x="64.93" y="73.71" width="4.16" height="1.02" rx=".51" ry=".51" transform="rotate(-45 67.01 74.213)"/><rect class="cls-9" x="64.93" y="73.71" width="4.16" height="1.02" rx=".51" ry=".51" transform="rotate(-45 67.01 74.213)"/><rect class="cls-9" x="64.93" y="73.71" width="4.16" height="1.02" rx=".51" ry=".51" transform="rotate(-45 67.01 74.213)"/><rect class="cls-9" x="66.5" y="72.14" width="1.02" height="4.16" rx=".51" ry=".51" transform="rotate(-45 67.01 74.213)"/><rect class="cls-9" x="64.93" y="73.71" width="4.16" height="1.02" rx=".51" ry=".51" transform="rotate(-45 67.01 74.213)"/><rect class="cls-9" x="64.93" y="73.71" width="4.16" height="1.02" rx=".51" ry=".51" transform="rotate(-45 67.01 74.213)"/><rect class="cls-9" x="64.93" y="73.71" width="4.16" height="1.02" rx=".51" ry=".51" transform="rotate(-45 67.01 74.213)"/><rect class="cls-9" x="66.5" y="72.14" width="1.02" height="4.16" rx=".51" ry=".51" transform="rotate(-45 67.01 74.213)"/><rect class="cls-9" x="64.93" y="73.71" width="4.16" height="1.02" rx=".51" ry=".51" transform="rotate(-45 67.01 74.213)"/><rect class="cls-9" x="64.93" y="73.71" width="4.16" height="1.02" rx=".51" ry=".51" transform="rotate(-45 67.01 74.213)"/><rect class="cls-9" x="64.93" y="73.71" width="4.16" height="1.02" rx=".51" ry=".51" transform="rotate(-45 67.01 74.213)"/><circle cx="45.78" cy="45.78" r="45.78" style="fill:#f7e1de"/><rect class="cls-2" x="25.04" y="15.45" width="1.02" height="4.16" rx=".51" ry=".51" transform="rotate(-45 25.55 17.527)"/><rect class="cls-2" x="23.47" y="17.02" width="4.16" height="1.02" rx=".51" ry=".51" transform="rotate(-45 25.55 17.527)"/><rect class="cls-2" x="77.47" y="29.79" width="1.37" height="5.59" rx=".51" ry=".51" transform="rotate(-45 78.153 32.598)"/><rect class="cls-2" x="75.35" y="31.91" width="5.59" height="1.37" rx=".51" ry=".51" transform="rotate(-45 78.153 32.598)"/><rect class="cls-2" x="21.89" y="62.42" width="1.74" height="7.1" rx=".51" ry=".51" transform="rotate(-45 22.754 65.965)"/><rect class="cls-2" x="19.21" y="65.1" width="7.1" height="1.74" rx=".51" ry=".51" transform="rotate(-45 22.754 65.965)"/><path d="M18.75 44.66c1.75-2.42 3.5-4.85 5.23-7.27.25-.34.44-.73.66-1.09.03-.02.07-.03.09-.05.01-.01 0-.05.01-.08l-.11.12c-.55-.09-.97.25-1.43.45-.54.23-1.02.63-1.65.6l-.02-.03c.18-.17.34-.39.55-.51 1.43-.86 2.87-1.7 4.32-2.54 1.96-1.14 3.92-2.28 5.89-3.4 3.27-1.87 6.49-3.84 9.93-5.39.23-.1.48-.17.72-.25v.25c-1.36.81-2.71 1.63-4.08 2.42-3.52 2.04-7.06 4.06-10.59 6.09-.92.53-1.82 1.09-2.76 1.66.14.15.21.26.31.32 2.22 1.29 4.45 2.58 6.68 3.86 2.63 1.52 5.26 3.06 7.91 4.56.74.42 1.4 1.01 2.27 1.18.18.17.33.39.54.52.57.36 1.16.7 1.76 1.02.33.18.54.41.54.79-.31.46-.61.92-.93 1.38-1.78 2.51-3.56 5.02-5.35 7.53-.17.23-.41.41-.66.65-.52-.29-1.01-.56-1.49-.83-.52-.29-1-.66-1.63-.73-.74-.65-1.53-1.22-2.56-1.3-.03-.28-.18-.46-.42-.59-.63-.35-1.25-.72-1.88-1.08-1.47-.85-2.94-1.72-4.41-2.56-.29-.16-.63-.24-.94-.36-.29-.52-.84-.72-1.31-1-1.47-.87-2.97-1.69-4.46-2.53m47.67-10.16c0 .52.4.85.68 1.2 1.15 1.48 2.35 2.92 3.52 4.39.74.93 1.48 1.87 2.25 2.85-.37.42-.81.66-1.24.91-1.82 1.04-3.63 2.08-5.44 3.12-.22.13-.47.22-.5.53-.01.05-.03.09-.04.14-.52-.17-.9.18-1.29.4-1.26.71-2.51 1.44-3.75 2.18-.98.58-1.96 1.18-2.93 1.78-.93.38-1.8.88-2.58 1.53-.39.18-.78.34-1.15.54-.49.25-.97.53-1.43.78-.54-.29-.82-.73-1.15-1.13-.6-.73-1.18-1.47-1.76-2.21-1.43-1.82-2.86-3.63-4.29-5.45.01-.27.09-.51.33-.64.29-.17.61-.3.9-.47.57-.34 1.22-.59 1.6-1.18.39-.17.79-.31 1.16-.52 1.26-.72 2.51-1.47 3.77-2.19 1.49-.85 2.99-1.66 4.48-2.52 2.44-1.41 4.88-2.85 7.31-4.28.17-.1.41-.16.33-.5-2.75-1.59-5.52-3.2-8.3-4.81-2.89-1.67-5.79-3.33-8.67-5.01-.16-.09-.24-.33-.36-.49.17.03.35.03.49.09 2.76 1.25 5.48 2.58 8.07 4.17 1.45.89 2.95 1.72 4.43 2.57 2.03 1.17 4.06 2.35 6.1 3.52.81.47 1.64.92 2.44 1.4.25.15.45.37.68.55l-.03.04c-.46.05-.82-.2-1.21-.36-.79-.33-1.58-.64-2.37-.96-.05-.06-.1-.14-.16-.16-.05-.02-.12.05-.19.07.03.03.05.07.09.08.07.02.15.03.23.04Z" style="fill:#ebc892"/><path d="M48.59 25.25c.12.17.2.4.36.49 2.89 1.68 5.78 3.34 8.67 5.01 2.78 1.6 5.55 3.22 8.3 4.81.08.34-.16.4-.33.5-2.44 1.43-4.87 2.87-7.31 4.28-1.48.86-2.99 1.67-4.48 2.52-1.26.72-2.51 1.47-3.77 2.19-.37.21-.77.35-1.16.52-.92-.81-2.03-1.31-3.12-1.83 0-.17.02-.34.02-.51V25.28c0-.21 0-.43-.02-.64-.01-.33-.25-.41-.51-.46.28-.37.63-.31.97-.13.21.11.4.27.6.4l.53.23.24.27h.3c.07 0 .14.02.2.04.1.07.21.14.31.21.07 0 .13.02.19.05Z" style="fill:#c9af90"/><path d="M45.24 24.18c.26.05.5.13.51.46 0 .21.02.43.02.64v17.95c0 .17-.01.34-.02.51-1.02.61-2.04 1.22-3.07 1.82-.87-.17-1.53-.76-2.27-1.18-2.65-1.5-5.28-3.03-7.91-4.56-2.23-1.29-4.45-2.57-6.68-3.86-.1-.06-.17-.18-.31-.32.94-.57 1.84-1.13 2.76-1.66 3.53-2.04 7.06-4.06 10.59-6.09 1.37-.79 2.72-1.62 4.08-2.42l.51-.27c.34-.04.62-.18.77-.51l.52-.27.5-.25Z" style="fill:#a0856a"/><path d="M57.03 69.2c-2.7-.42-5.41-.82-8.11-1.25-.97-.15-1.93-.36-2.9-.54.1-.08.19-.17.3-.23 2.49-1.46 4.99-2.91 7.47-4.37.69-.41 1.36-.85 2.04-1.27.87-.33 1.65-.83 2.44-1.32.07-.04.1-.14.14-.21.43-.18.88-.33 1.28-.56 1.99-1.14 3.96-2.33 5.96-3.45.57-.32.76-.7.75-1.32-.03-1.75-.02-3.49-.02-5.24.02-.04.03-.09.04-.14 1.86.29 3.46 1.16 5.05 2.12 2.17 1.3 4.39 2.5 6.68 3.8-.2.22-.34.42-.53.55-3.98 2.69-7.96 5.37-11.94 8.06-2.27 1.53-4.55 3.07-6.82 4.61-.28.19-.58.37-.85.58-.3.23-.62.24-.98.18" style="fill:#bda59f"/><path class="cls-19" d="M55.83 61.55c-.68.43-1.35.87-2.04 1.27-2.49 1.46-4.98 2.91-7.47 4.37-.11.06-.2.15-.3.23h-.11l-.1-.03c-.01-.34-.04-.68-.04-1.03V47.88l.27-.02c1.43 1.82 2.86 3.64 4.29 5.45.58.74 1.16 1.48 1.76 2.21.32.39.6.83 1.15 1.13.46-.25.93-.53 1.43-.78.38-.19.77-.36 1.15-.54v6.21Z"/><path class="cls-17" d="M45.78 47.89v18.48c0 .34.02.68.04 1.03-1.23-.68-2.47-1.34-3.69-2.03a496.99 496.99 0 0 1-5.87-3.42c-.29-.17-.55-.4-.82-.6.01-1.82.03-3.64.04-5.46.62.07 1.11.44 1.63.73.48.27.96.54 1.49.83.25-.24.5-.42.66-.65 1.79-2.5 3.57-5.02 5.35-7.53.32-.45.62-.92.93-1.38h.26Zm-20.53 2.09c.32.12.65.19.94.36 1.48.84 2.94 1.71 4.41 2.56.62.36 1.25.73 1.88 1.08.24.14.4.31.42.59 0 1.39 0 2.77-.02 4.16 0 .37.08.77-.28 1.04-.16-.06-.33-.11-.47-.19-2.21-1.28-4.42-2.56-6.62-3.84a.656.656 0 0 1-.17-.16c-.17-.96-.21-3.64-.09-5.61Z"/><path class="cls-17" d="M32.6 59.78c.36-.28.28-.67.28-1.04.01-1.39.01-2.77.02-4.16 1.03.08 1.82.65 2.56 1.3-.01 1.82-.03 3.64-.04 5.46-1.03-.36-1.91-.99-2.82-1.56Z"/><path class="cls-16" d="M44.22 24.69c-.15.34-.42.47-.77.51v-.23c.2-.25.47-.3.76-.28Z"/><path class="cls-10" d="M43.46 24.97v.23l-.51.27v-.25l.52-.25ZM21.03 37.58c.1-.23.29-.27.51-.27l.02.03c-.17.08-.35.17-.52.25Z"/><path class="cls-10" d="m21.04 37.59-.24.2-.08-.13.32-.08Zm50.25.25c-.22.02-.42-.02-.53-.24l.03-.04c.17.09.33.18.5.27ZM47.34 24.68l-.53-.23.53.23Z"/><path class="cls-16" d="m44.74 24.43-.52.27.52-.27Z"/><path class="cls-10" d="m71.3 37.84.12.13s-.07 0-.09-.02c-.02-.03-.03-.07-.04-.11ZM48.39 25.2c-.1-.07-.21-.14-.31-.21.1.07.21.14.31.21Zm-.51-.27c-.1 0-.2 0-.3.01v-.25l.3.23Zm-.3-.23v.25l-.24-.27c.08 0 .16 0 .24.02Z"/><path class="cls-16" d="M45.78 47.89h-.26c0-.38-.22-.61-.54-.79-.6-.32-1.18-.66-1.76-1.02-.21-.13-.36-.34-.54-.52 1.02-.61 2.04-1.22 3.07-1.82 1.1.51 2.2 1.01 3.12 1.83-.38.59-1.03.84-1.6 1.18-.29.17-.6.3-.9.47-.24.14-.32.38-.33.64l-.27.02Z"/><path class="cls-6" d="m24.64 36.29.11-.12s0 .06-.01.08c-.02.02-.06.03-.09.05Z"/><path class="cls-19" d="M66.38 49.45c0 1.75-.01 3.49.02 5.24.01.62-.19 1.01-.75 1.32-2 1.12-3.97 2.31-5.96 3.45-.4.23-.85.37-1.28.56v-6.21c.98-.59 1.95-1.19 2.93-1.78 1.24-.74 2.49-1.47 3.75-2.18.39-.22.77-.57 1.29-.4ZM58.4 53.8v6.21c-.05.07-.08.17-.14.21-.78.49-1.56 1-2.44 1.32v-6.21c.78-.65 1.64-1.15 2.58-1.53Z"/><path class="cls-6" d="M67.15 36.31c-.08-.01-.16-.02-.23-.04-.03-.01-.06-.05-.09-.08.06-.03.14-.09.19-.07.06.02.11.1.16.16l-.03.03Z"/><path d="M46.48 35.31h-6.45a3.276 3.276 0 0 1-2.69-1.57c-.2-.32-.34-.66-.43-1.03-.05-.2-.08-.39-.08-.6v-.24c0-.26.04-.52.1-.77.08-.28.18-.55.33-.81.17-.3.33-.6.5-.91.21-.39.43-.77.65-1.16.12-.21.23-.42.35-.63.17-.31.34-.61.51-.92l.33-.6c.18-.32.36-.64.53-.96.11-.21.23-.41.34-.62.17-.31.35-.62.52-.93.12-.21.23-.42.35-.63.17-.31.35-.62.52-.93l.33-.6c.18-.32.36-.64.53-.96.12-.21.24-.43.35-.64.18-.32.36-.65.54-.97.1-.17.22-.33.36-.47.16-.17.33-.32.51-.46.37-.27.77-.45 1.21-.56.34-.08.68-.11 1.03-.08.32.03.63.09.92.21.31.12.61.28.88.49.25.19.47.42.66.68.09.13.18.27.26.41.17.3.33.6.5.91.17.3.33.59.5.89.11.2.22.39.33.59.13.23.26.47.39.7.11.2.22.39.33.59.18.32.36.65.54.97.12.21.24.43.35.64l.51.9.33.6c.18.32.36.64.53.96.11.2.22.39.33.59.18.32.36.65.54.97.12.21.24.43.35.64.17.3.34.6.5.91.15.27.31.54.42.83.1.28.19.57.2.88 0 .09.02.17.02.26 0 .39-.06.76-.18 1.13-.2.59-.53 1.08-1 1.49-.44.38-.95.63-1.52.74-.23.05-.47.06-.7.06h-6.25Zm-7.83-3.35c0 .09 0 .18.03.27.12.57.46.96 1 1.17.19.07.38.09.58.09h12.53c.46-.01.85-.18 1.15-.54.33-.39.44-.83.34-1.33-.04-.19-.12-.36-.22-.53-1.67-3-3.34-6.01-5.01-9.01-.41-.73-.81-1.46-1.22-2.19-.36-.65-1.04-.88-1.58-.79-.45.07-.8.3-1.06.68-.04.06-.07.12-.11.19-1.89 3.41-3.79 6.82-5.68 10.23-.18.33-.37.66-.55.99-.12.22-.2.46-.2.71v.06Z" style="fill:#db443a"/><path d="M38.66 31.9c0-.26.07-.49.2-.71.18-.33.37-.66.55-.99 1.89-3.41 3.79-6.82 5.68-10.23.03-.06.07-.13.11-.19.25-.38.61-.6 1.06-.68.54-.09 1.23.14 1.58.79.4.73.81 1.46 1.22 2.19 1.67 3 3.34 6.01 5.01 9.01.09.17.18.34.22.53.1.5-.01.94-.34 1.33-.3.35-.69.52-1.15.54H40.27c-.2 0-.39-.02-.58-.09-.55-.21-.88-.6-1-1.17-.02-.09-.02-.18-.03-.27.02-.02.02-.04 0-.06Zm8.64-.64.06-.02c.15-.05.2-.17.19-.31V30c-.02-.18-.13-.29-.31-.29h-1.61c-.19.08-.24.22-.23.39v.78c0 .05.01.1.02.16s0 .02.01.03c.02.08.08.12.13.17h.04l.06.02s.04.03.06.04h1.43c.05 0 .11.02.15-.03Zm.43-5.07v-.06l.03-.27c.02-.24.04-.49.07-.73.02-.24.05-.49.07-.73v-.1a.387.387 0 0 0-.22-.34.492.492 0 0 0-.21-.04h-2.03c-.2 0-.35.15-.37.35v.13c.02.2.03.4.05.6.02.26.05.53.07.79.02.26.04.53.07.79.03.37.07.74.1 1.1.03.37.06.74.1 1.1 0 .04 0 .09.02.13.03.12.09.21.21.25.03.01.05.02.08.03.03 0 .06.02.09.02h1.23c.03 0 .06-.02.09-.02.19-.06.29-.19.3-.38 0-.08.01-.16.02-.24.03-.28.05-.55.08-.83.02-.25.05-.5.07-.74.02-.27.05-.53.07-.8Z" style="fill:#fafafa"/><path d="M38.66 31.9s.02.04 0 .06v-.06Z" style="fill:#f2c7b8"/><path d="M45.77 29.2s-.05-.02-.08-.03a.35.35 0 0 1-.21-.25c0-.04-.02-.08-.02-.13-.03-.37-.06-.74-.1-1.1-.03-.37-.07-.74-.1-1.1-.02-.26-.04-.53-.07-.79-.02-.26-.05-.53-.07-.79-.02-.2-.04-.4-.05-.6v-.13c.02-.2.17-.34.37-.35h2.03c.07 0 .14 0 .21.04.15.07.21.19.22.34v.1c-.02.24-.05.49-.07.73-.02.24-.04.49-.07.73 0 .09-.02.18-.03.27v.06c-.03.27-.05.53-.08.8-.02.25-.05.5-.07.74-.03.28-.05.55-.08.83 0 .08-.01.16-.02.24-.01.2-.12.32-.3.38h-1.42Z" style="fill:#010101"/><path d="M45.6 31.24h-.04c-.05-.05-.11-.09-.13-.17s0-.02-.01-.03c0-.05-.02-.1-.02-.16v-.78c0-.17.04-.31.23-.39h1.61c.18 0 .3.11.31.29v.93c0 .15-.05.26-.19.31l-.06.02h-1.65l-.06-.03Z" style="fill:#030201"/><path d="M45.66 31.27h1.65c-.04.04-.1.03-.15.03h-1.43c-.02 0-.04-.02-.06-.03Z" style="fill:#cbe2f1"/><path d="M45.77 29.2h1.42c-.03 0-.06.02-.09.02h-1.23c-.03 0-.06-.02-.09-.02Z" style="fill:#aed2e5"/><path d="M47.73 26.2Z" style="fill:#7f7f80"/><path d="m45.6 31.24.06.02-.06-.02Zm1.7.02.06-.02-.06.02Z" style="fill:#283032"/><path d="M45.42 31.04s0 .01.01.02 0 0-.01 0Z" style="fill:#5f5f5f"/><rect class="cls-2" x="66.5" y="72.14" width="1.02" height="4.16" rx=".51" ry=".51" transform="rotate(-45 67.01 74.213)"/><rect class="cls-2" x="64.93" y="73.71" width="4.16" height="1.02" rx=".51" ry=".51" transform="rotate(-45 67.01 74.213)"/></g></svg>
