<svg id="Layer_2" xmlns="http://www.w3.org/2000/svg" viewBox="0 0 91.56 91.56"><defs><style>.cls-5{fill:#fafaf9}.cls-7{fill:#997046}.cls-14{fill:#c09460}.cls-16{fill:#b1814c}.cls-18{fill:#bc905c}.cls-19{fill:#d7bc91}.cls-23{fill:#c5a476}</style></defs><g id="Layer_1-2"><circle class="cls-5" cx="45.78" cy="45.78" r="45.78"/><circle class="cls-5" cx="45.78" cy="45.78" r="45.78"/><g id="_IoPys"><path class="cls-5" d="M69.94 31.01c.1.15.28.3.28.45.01 4.27.01 8.55 0 12.82 0 .17-.07.33-.1.5-.03-.16-.06-.33-.1-.52-1.02.41-2.01.82-2.99 1.21-1.73.69-3.46 1.4-5.2 2.07-1.33.51-2.68.97-4.01 1.48-.09.04-.12.24-.18.37.74.09 1.47.23 2.21.26 3.17.11 6.33.2 9.5.25.59.01.76.15.76.76-.03 4.65-.02 9.29 0 13.94 0 .25.07.5.1.75.1.44-.25.44-.51.48-1.58.23-3.16.45-4.73.67l-10.56 1.47c-2.98.42-5.97.85-8.95 1.26-2.35.33-4.69.65-7.04.96-.15.02-.31-.03-.47-.05l.24-.64-.11-.14c.04-1.53.1-3.06.11-4.59.01-2.74 0-5.49 0-8.23.14-.66.26-1.33.42-1.98.32-1.32.67-2.64 1-3.96.13-.52.2-1.05.3-1.57.03-.24.14-.52.06-.73-.56-1.5-1.17-2.98-1.76-4.47v-8.17l3.26-.51c.07.07.13.18.22.21 1.17.43 2.34.85 3.51 1.25.14.05.35.04.48-.03 1.58-.86 3.15-1.73 4.72-2.6l1.17-.27h.14V46.5l2.05-.26c.14.02.27-.17.41-.17.65-.05 1.32-.18 1.93-.2.75-.02.65-.32.65-.75V33.06l.64-.12.67-.14c.58-.06 1.16-.1 1.73-.18 2.98-.41 5.96-.83 8.94-1.26.42-.06.82-.23 1.22-.35ZM51.3 65.35l.51.63c2.04-.26 4.08-.5 6.11-.81.24-.04.41-.48.62-.73v-6.48c-.07-.6-.5-.69-.99-.62-1.7.23-3.4.49-5.1.73-.74-.27-1.05-.14-1.13.69v.25l-.05 3.11c-.12.21-.31.4-.35.63-.06.36-.03.74-.01 1.11.03.48-.17 1.02.36 1.38l.04.13Zm-.82.35c0-2.08.03-4.16 0-6.24 0-.29-.31-.58-.47-.88-.21-.03-.42-.12-.62-.09-1.68.23-3.37.47-5.05.73-1.04.16-1.22.4-1.22 1.45v5.32c0 1.03.33 1.28 1.35 1.13 1.58-.23 3.16-.42 4.74-.63.36.24.61.12.79-.24.06 0 .13-.02.19-.03h.72l-.42-.54Zm8.96-4.65v2.98c0 .57.26.85.83.81.45-.03.9-.08 1.35-.14 1.34-.18 2.69-.35 4.03-.56.53-.08 1.05-.28 1.07-.94.05-2.05.08-4.1.08-6.15 0-.65-.41-.96-1.02-.88-1.75.25-3.5.49-5.25.76-.79.12-1.08.46-1.08 1.26v2.85Z"/><path class="cls-5" d="M38.17 56.55c0 2.74.02 5.49 0 8.23 0 1.53-.07 3.06-.11 4.59l.11.14-.24.64-.4-.25-.23-.15h-.01l-.15-.11c-.05-.09-.07-.2-.14-.27-1.24-1.38-2.49-2.75-3.73-4.14-1.17-1.3-2.32-2.62-3.48-3.93-1.58-1.78-3.15-3.56-4.74-5.33-1.36-1.5-2.77-2.96-4.11-4.47-.27-.3-.36-.75-.54-1.13l-.3-7.55c-.06-1.48-.12-2.97-.17-4.45.08.78.19 1.56.24 2.35.07 1.08.11 2.16.16 3.4 1.35-1.08 2.56-2.07 3.8-3.03.52-.4 1.09-.73 1.61-1.13.7-.55 1.35-1.15 2.05-1.7 1.77-1.41 3.55-2.79 5.32-4.2.15-.12.21-.34.31-.51.18.06.37.1.54.18 1.42.64 2.83 1.29 4.24 1.93v8.17c-.06-.05-.13-.1-.11-.09-.34.53-.68 1.05-1 1.59-.66 1.08-1.31 2.17-1.94 3.27-.14.25-.21.54-.31.82.21.62.37 1.25.64 1.84.54 1.2 1.13 2.39 1.73 3.56.3.59.65 1.16.98 1.73Z"/><path class="cls-5" d="M38.18 35.66c-1.41-.64-2.83-1.29-4.24-1.93-.17-.08-.36-.12-.54-.18-.25-.13-.49-.27-.74-.39-3.3-1.48-6.59-2.96-9.9-4.43-1.12-.5-2.26-.94-3.39-1.4.31-.14.61-.33.94-.42 1.25-.37 2.5-.71 3.75-1.05.09.11.17.28.29.32.81.29 1.63.53 2.43.82 1.34.48 2.66 1.01 4 1.49.86.31 1.74.59 2.61.87.23.08.48.11.88.2-.15-.24-.18-.33-.24-.37-.65-.52-1.32-1.01-1.96-1.54-.96-.8-1.87-1.64-2.84-2.41-.3-.24-.71-.34-1.07-.5.79-.14 1.59-.3 2.38-.42 1.12-.17 2.24-.3 3.36-.45.13.16.23.38.4.47.92.5 1.85.97 2.77 1.46 1.7.91 3.4 1.82 5.08 2.75 1.43.79 2.84 1.61 4.27 2.39 1.7.93 3.41 1.85 5.11 2.77l-1.17.27c-.62.06-1.24.09-1.85.18-2.36.32-4.72.66-7.08.99l-3.26.51Zm19.2-2.73-.64.12s-.08 0-.12-.02c-.03-.06-.04-.14-.09-.17-2.35-1.3-4.7-2.6-7.05-3.88-2.33-1.27-4.67-2.51-7-3.77-1.22-.66-2.43-1.35-3.65-2.03.96-.12 1.91-.27 2.87-.37 1.89-.19 3.78-.3 5.66-.56 1.49-.21 2.95-.61 4.43-.89.27-.05.6 0 .84.13 2.58 1.39 5.14 2.81 7.71 4.21 3 1.64 6.01 3.26 9.02 4.9.14.08.24.22.37.33-1.28-.21-2.57-.43-3.85-.64-.97-.16-1.94-.32-2.91-.49-1.25-.76-2.5-1.53-3.76-2.28-1.55-.93-3.11-1.85-4.74-2.81-.02.21-.06.34-.03.45.19.52.41 1.03.62 1.54.76 1.83 1.53 3.65 2.27 5.48.09.21.04.48.06.73Z"/><path class="cls-5" d="M19.37 27.33c1.13.47 2.27.91 3.39 1.4 3.3 1.46 6.6 2.95 9.9 4.43.25.11.49.26.74.39-.1.17-.16.4-.31.51-1.77 1.41-3.55 2.8-5.32 4.2-.69.55-1.35 1.16-2.05 1.7-.52.4-1.09.73-1.61 1.13-1.24.96-2.45 1.95-3.8 3.03-.06-1.24-.09-2.32-.16-3.4-.05-.79-.16-1.57-.24-2.35v-.27l-.14-2.72v-.26l-.1-1.17c-.1-2.12-.2-4.23-.31-6.35v-.29Zm1.03 23.05c.17.38.27.83.54 1.13 1.35 1.51 2.76 2.97 4.11 4.47 1.6 1.76 3.17 3.55 4.74 5.33 1.16 1.31 2.31 2.62 3.48 3.93 1.24 1.38 2.49 2.76 3.73 4.14.07.07.09.18.14.27-1.48-.83-2.97-1.65-4.44-2.5-4.26-2.45-8.51-4.91-12.77-7.36-.39-.22-.63-.43-.56-.94.33-2.76.63-5.52.95-8.29 0-.06.05-.12.07-.18ZM38.83 23.2c1.22.68 2.43 1.36 3.65 2.03 2.33 1.26 4.67 2.5 7 3.77 2.36 1.28 4.7 2.58 7.05 3.88.05.03.06.11.09.17-1.64.23-3.29.45-4.93.68h-.14c-1.71-.93-3.42-1.84-5.11-2.78-1.43-.79-2.84-1.61-4.27-2.39-1.69-.93-3.39-1.84-5.08-2.75-.92-.49-1.86-.96-2.77-1.46-.17-.09-.27-.31-.4-.47 1.64-.22 3.28-.44 4.92-.67Zm18.81 26.19c.06-.13.09-.34.18-.37 1.33-.5 2.68-.97 4.01-1.48 1.74-.67 3.47-1.38 5.2-2.07.99-.39 1.97-.8 2.99-1.21.04.2.07.36.1.52-.02.16-.04.32-.07.47l-.07.3c-.1.68-.2 1.35-.31 2.03-.3.03-.6.03-.89.08-1.86.28-3.72.55-5.58.84-1.86.29-3.71.59-5.57.89Z"/><path class="cls-5" d="M57.64 49.39c1.86-.3 3.71-.6 5.57-.89 1.86-.29 3.72-.57 5.58-.84.3-.04.6-.05.89-.08.34 1.25.58 2.5.57 3.81-.04 4.4-.02 8.79-.02 13.19 0 .26-.02.52-.03.77-.04-.25-.1-.5-.1-.75 0-4.65-.02-9.29 0-13.94 0-.6-.17-.75-.76-.76-3.17-.05-6.33-.15-9.5-.25-.74-.03-1.47-.17-2.21-.26ZM28.17 24.73c.36.16.77.26 1.07.5.97.78 1.89 1.62 2.84 2.41.64.53 1.31 1.03 1.96 1.54.06.05.09.13.24.37-.4-.09-.65-.12-.88-.2-.87-.28-1.75-.55-2.61-.87-1.34-.48-2.66-1-4-1.49-.8-.29-1.63-.54-2.43-.82-.12-.04-.19-.21-.29-.32 1.37-.37 2.73-.75 4.1-1.12Zm34.79 5.08c.97.16 1.94.32 2.91.49 1.28.21 2.57.43 3.85.64l.22.06c-.41.12-.81.29-1.22.35-2.98.44-5.96.85-8.94 1.26-.57.08-1.15.12-1.73.18.31-.2.61-.4.92-.59 1.33-.8 2.66-1.59 3.99-2.39ZM19.78 35.4l.13 2.72-.13-2.72Zm-.11-1.43.09 1.17-.09-1.17Zm50.31 11.58.07-.3-.07.3ZM37.3 69.75l.23.15-.23-.15ZM19.36 27.47v.15s-.03-.07-.04-.11c0-.01.02-.03.04-.05Zm17.78 42.17.15.1-.15-.1Zm14.55-35.93c1.64-.23 3.29-.45 4.93-.68.04 0 .08.02.12.02v12.06c0 .43.09.73-.65.75-.61.02-1.28.15-1.93.2-.14 0-.26.19-.41.17l-2.05.26V33.7Z"/><path class="cls-5" d="M62.96 29.81c-1.33.8-2.66 1.59-3.99 2.39-.31.19-.61.39-.92.59l-.67.14c-.02-.24.03-.51-.06-.73-.74-1.83-1.51-3.66-2.27-5.48-.21-.51-.43-1.02-.62-1.54-.04-.1.01-.23.03-.45 1.63.96 3.19 1.88 4.74 2.81 1.26.75 2.51 1.52 3.76 2.28ZM38.17 56.55c-.33-.58-.69-1.14-.98-1.73-.59-1.18-1.18-2.36-1.73-3.56-.27-.59-.43-1.23-.64-1.84 1.69-.13 3.38-.25 5.06-.38-.1.52-.17 1.05-.3 1.57-.32 1.32-.67 2.64-1 3.96-.16.66-.28 1.32-.42 1.98Zm1.71-7.52c-1.69.13-3.38.25-5.06.38.1-.27.16-.57.31-.82.63-1.1 1.29-2.18 1.94-3.27.32-.53.67-1.06 1-1.59-.01 0 .05.04.12.09.59 1.49 1.19 2.97 1.76 4.47.08.21-.04.48-.06.73Zm1.56-13.89c2.36-.33 4.72-.67 7.08-.99.61-.08 1.23-.12 1.85-.18-1.57.87-3.14 1.74-4.72 2.6-.13.07-.34.08-.48.03-1.17-.4-2.34-.82-3.51-1.25-.09-.03-.15-.14-.22-.21Zm18 25.91V58.2c0-.8.29-1.14 1.08-1.26 1.75-.26 3.5-.51 5.25-.76.6-.08 1.02.23 1.02.88 0 2.05-.03 4.1-.08 6.15-.01.66-.54.85-1.07.94-1.34.21-2.69.38-4.03.56-.45.06-.9.11-1.35.14-.57.04-.84-.24-.83-.81v-2.98Zm7.04-.96v-2.92c0-.61-.25-.78-.86-.69-1.66.24-3.32.48-4.99.69-.63.08-.93.34-.93.99-.01 1.9 0 3.8 0 5.7 0 .52.23.79.75.72 1.75-.23 3.5-.47 5.24-.72.55-.08.82-.41.8-.99-.02-.93 0-1.86 0-2.79Zm-16.3 6.14-.19.03-.79.24c-1.58.21-3.16.4-4.74.63-1.02.15-1.35-.1-1.35-1.13v-5.32c0-1.05.18-1.29 1.22-1.45 1.68-.26 3.36-.5 5.05-.73.2-.03.41.06.62.09l-.14.16c-1.83.25-3.66.49-5.49.76-.83.12-1 .34-1 1.19V66c0 .83.23 1.01 1.07.88 1.15-.18 2.31-.28 3.44-.51.8-.16 1.77.07 2.34-.8l.03.31-.07.36ZM51.3 59c0-.08 0-.17.01-.25.38-.23.75-.46 1.13-.69 1.7-.25 3.4-.5 5.1-.73.49-.07.92.02 1 .62h-.15c-.26-.12-.53-.37-.77-.34-1.73.21-3.45.48-5.17.72-.44.06-.78.23-.95.66h-.2Zm7.24 5.44c-.2.25-.38.69-.62.73-2.03.31-4.07.55-6.11.81v-.24l4.86-.6c.64-.08 1.3-.09 1.72-.7h.15Z"/><path class="cls-5" d="M50.25 65.87c0-.1-.02-.21-.03-.31 0-1.97.03-3.95 0-5.92 0-.3-.23-.6-.36-.9l.14-.16c.16.29.46.58.47.88.04 2.08.01 4.16 0 6.24-.08.06-.15.12-.23.18ZM51.3 59h.2c0 2.12 0 4.23.01 6.35h-.22l-.04-.13v-3.11l.04-3.11Z"/><path class="cls-5" d="M51.26 62.11v3.11c-.52-.35-.33-.9-.36-1.38-.02-.37-.05-.75.01-1.11.04-.22.23-.42.35-.63Zm7.28 2.33h-.15v-6.48h.15c0 2.16 0 4.32-.01 6.48Zm-6.1-6.38c-.38.23-.75.46-1.13.69.08-.83.39-.96 1.13-.69Zm-2.19 7.81c.08-.06.15-.12.23-.18l.42.54h-.72c.02-.12.05-.24.07-.36Zm1.05-.52h.22c.09.13.19.26.28.39v.24l-.51-.63Zm-2.1 1.15.79-.24c-.18.36-.43.48-.79.24Zm-11.03 3-.11-.14.11.14Zm28.31-9.41c0 .93-.02 1.86 0 2.79.01.58-.26.91-.8.99-1.75.25-3.49.49-5.24.72-.52.07-.75-.2-.75-.72v-5.7c0-.64.3-.91.93-.99 1.66-.22 3.32-.46 4.99-.69.61-.09.86.08.86.69.01.97 0 1.94 0 2.92ZM63.2 62.9v-1.98c.28-.48.66-.63 1.18-.34.09.05.25.06.35.02.38-.16.75-.34 1.15-.53-.28-1.03-1.52-1.75-2.83-1.56-1.37.2-2.7 1.44-2.69 2.47.68-.21 1.47.17 2.13-.31.08-.06.31.1.47.15l.02 2.07c0 .15-.06.33 0 .45.1.18.27.42.42.43.15 0 .32-.24.47-.38.02-.02-.03-.1-.05-.16l-.55.39-.06-.72Zm-13.34-4.17c.12.3.35.6.36.9.03 1.97 0 3.95 0 5.92-.57.88-1.53.64-2.34.8-1.13.23-2.29.33-3.44.51-.84.13-1.07-.05-1.07-.88v-5.3c0-.85.17-1.07 1-1.19 1.83-.27 3.66-.51 5.49-.76Zm-5.57 6.94c.88-.12 1.77-.23 2.66-.35.68-.09 1.36-.19 2.04-.29.38-.05.49-.29.44-.65-.05-.41-.3-.29-.57-.25-1.34.2-2.68.38-4.02.55-.75.09-.81.18-.56.98Zm3.91-5.61-1.01 1.21c.72.78.1 1.75.42 2.55 1.19.02 1.17.02 1.2-1.11.02-.56-.27-1.19.28-1.55l-.89-1.1Zm-2.73.39c-.34.41-.59.69-.82 1-.06.08-.07.23-.05.34.05.28.18.54.2.82.03.53 0 1.05 0 1.58 1.25.05 1.26.04 1.26-1.07 0-.24-.02-.47 0-.71.04-.33.11-.67.19-1.09l-.79-.87Z"/><path class="cls-5" d="M51.8 65.74c-.09-.13-.19-.26-.28-.39 0-2.12 0-4.23-.01-6.35.17-.43.51-.6.95-.66 1.72-.24 3.44-.51 5.17-.72.24-.03.51.22.77.34v6.48c-.43.6-1.09.62-1.73.7l-4.86.6Zm4.36-1.41.02-.22c-.14-.07-.29-.13-.43-.2-.2-.12-.56-.25-.56-.37 0-.47-.04-1.13.23-1.36 1.11-.94 1.07-2.16 1.06-3.46-.31.14-.75.49-.72.53.37.55-.16.7-.29.89l-.57-.56.33-.74-1.89.25c0 .39-.04.74 0 1.07.11.85.21 1.71 1.15 2.16.48.23.34 1.44-.14 1.7-.24.13-.45.29-.67.44l.1.19 2.37-.33Zm6.79-3.5c-.16-.06-.39-.21-.47-.15-.66.49-1.44.1-2.13.31-.01-1.03 1.32-2.27 2.69-2.47 1.3-.19 2.55.52 2.83 1.56-.39.18-.76.37-1.15.53-.1.04-.25.03-.35-.02-.52-.29-.89-.14-1.18.34l-.25-.09Z"/><path class="cls-5" d="m62.95 60.83.25.09v1.98h-.24l-.02-2.06Z"/><path class="cls-5" d="M62.97 62.89h.24c.02.2.03.41.06.72l.55-.39c.02.06.07.15.05.16-.15.14-.32.39-.47.38-.15 0-.32-.25-.42-.43-.06-.12 0-.3 0-.45Zm-18.68 2.79c-.26-.8-.19-.89.56-.98 1.34-.17 2.68-.36 4.02-.55.27-.04.52-.16.57.25.04.35-.06.59-.44.65-.68.09-1.36.19-2.04.29-.89.12-1.78.23-2.66.35Zm3.91-5.61.89 1.1c-.55.35-.26.99-.28 1.55-.03 1.13 0 1.13-1.2 1.11-.32-.8.3-1.77-.42-2.55l1.01-1.21Zm-2.73.39.79.87c-.08.42-.15.75-.19 1.09-.03.23 0 .47 0 .71 0 1.11-.01 1.12-1.26 1.07 0-.52.02-1.05 0-1.58-.02-.28-.15-.54-.2-.82-.02-.11-.01-.26.05-.34.23-.31.48-.6.82-1Zm10.69 3.86-2.37.33-.1-.19c.22-.15.44-.32.67-.44.48-.26.62-1.47.14-1.7-.94-.46-1.03-1.31-1.15-2.16-.04-.34 0-.68 0-1.07l1.89-.25-.33.74.57.56c.13-.19.65-.34.29-.89-.03-.04.41-.39.72-.53 0 1.3.05 2.52-1.06 3.46-.27.23-.23.9-.23 1.36 0 .12.36.25.56.37.14.08.29.14.43.2l-.02.22Z"/></g><path class="cls-5" d="M65.23 69.68h-5.68c-.3 0-.59-.07-.88-.17-.34-.12-.65-.3-.92-.54a2.93 2.93 0 0 1-.56-.66 2.927 2.927 0 0 1-.45-1.44v-.22c0-.23.03-.45.09-.67.07-.25.16-.49.29-.71.15-.26.29-.53.44-.8l.57-1.02c.1-.18.2-.37.31-.55l.45-.81c.1-.18.2-.35.29-.53.16-.28.31-.56.47-.84l.3-.54c.15-.27.3-.55.46-.82.1-.18.2-.37.31-.55.15-.27.3-.55.46-.82.1-.18.2-.35.29-.53.16-.28.31-.56.47-.84.1-.19.21-.38.31-.57.16-.28.31-.57.48-.85.09-.15.19-.29.31-.41.14-.15.29-.29.45-.41.32-.24.68-.4 1.06-.49.3-.07.6-.1.9-.07.28.02.55.08.81.18.28.11.54.25.77.43.22.17.42.37.58.6.08.12.16.24.23.36.15.26.29.53.44.8.15.26.29.52.44.78.1.17.19.35.29.52.11.21.23.41.35.62.1.17.19.35.29.52.16.28.32.57.47.85.1.19.21.38.31.57.15.27.3.53.44.8.1.18.2.35.29.53.16.28.31.56.47.84.1.17.19.35.29.52.16.28.32.57.47.85.1.19.21.38.31.57.15.27.3.53.44.8.13.24.28.47.37.73.09.25.16.51.18.77 0 .08.02.15.02.23a3.02 3.02 0 0 1-1.04 2.3c-.39.33-.84.55-1.34.65-.2.04-.41.05-.62.05h-5.5Zm-6.89-2.94c0 .08 0 .16.02.24.11.5.4.85.88 1.03.16.06.34.08.51.08h11.02c.41-.01.75-.16 1.01-.47.29-.34.39-.73.3-1.17-.03-.17-.11-.32-.19-.47-1.47-2.64-2.94-5.28-4.4-7.92-.36-.64-.72-1.28-1.07-1.93-.31-.57-.92-.77-1.39-.69-.4.07-.71.26-.93.59-.04.05-.07.11-.1.16-1.67 3-3.33 6-5 9-.16.29-.32.58-.49.87-.11.2-.17.4-.17.63v.05Z"/><path class="cls-5" d="M58.35 66.68c0-.23.06-.43.17-.63.16-.29.32-.58.49-.87 1.67-3 3.33-6 5-9 .03-.06.06-.11.1-.16.22-.33.53-.53.93-.59.48-.08 1.08.12 1.39.69.35.64.71 1.28 1.07 1.93 1.47 2.64 2.94 5.28 4.4 7.92.08.15.16.3.19.47.09.44-.01.83-.3 1.17-.26.31-.61.46-1.01.47H59.76c-.17 0-.35-.02-.51-.08-.48-.18-.77-.53-.88-1.03-.02-.08-.02-.16-.02-.24.02-.02.02-.03 0-.05Zm7.6-.56.05-.02c.13-.05.17-.15.17-.28V65a.258.258 0 0 0-.27-.25h-1.41c-.17.07-.21.19-.2.34v.68c0 .05 0 .09.01.14v.02c.03.07.08.11.13.15h.04l.05.02s.04.03.06.03h1.26c.04 0 .09.01.13-.02Zm.38-4.46v-.05l.03-.24.06-.64.06-.64V60a.338.338 0 0 0-.2-.3.392.392 0 0 0-.18-.04h-1.79a.32.32 0 0 0-.32.31v.11c.01.18.03.35.04.53l.06.69.06.69.09.97c.03.32.06.65.08.97 0 .04 0 .08.02.11.02.1.08.18.18.22.02 0 .05.02.07.03.03 0 .05.02.08.02h1.08c.03 0 .05-.01.08-.02.16-.05.26-.16.27-.34 0-.07.01-.14.02-.21.02-.24.05-.49.07-.73l.06-.65c.02-.23.04-.47.07-.7Z"/><path class="cls-5" d="M58.35 66.68s.02.03 0 .05v-.05Zm6.26-2.38s-.05-.02-.07-.03a.288.288 0 0 1-.18-.22c0-.04-.01-.07-.02-.11-.03-.32-.06-.65-.08-.97l-.09-.97-.06-.69-.06-.69c-.02-.18-.03-.35-.04-.53v-.11c.02-.17.15-.3.32-.31h1.79c.06 0 .12 0 .18.04.13.06.18.17.2.3v.09l-.06.64-.06.64c0 .08-.02.16-.02.24v.05c-.02.23-.05.47-.07.7l-.06.65c-.02.24-.05.49-.07.73 0 .07-.01.14-.02.21-.01.17-.1.28-.27.34h-1.25Zm-.15 1.8h-.04c-.05-.04-.1-.08-.12-.15v-.02s-.02-.09-.02-.14v-.68c0-.15.04-.27.2-.34h1.41c.16 0 .26.1.27.25v.82c0 .13-.04.23-.17.28l-.05.02h-1.45l-.05-.03Z"/><path class="cls-5" d="M64.51 66.13h1.45c-.04.04-.09.02-.13.02h-1.26c-.02 0-.04-.01-.06-.02Zm.1-1.83h1.25c-.03 0-.05.02-.08.02H64.7c-.03 0-.05-.01-.08-.02Zm1.72-2.63Zm-1.87 4.43.05.02-.05-.02Zm1.49.02.05-.02-.05.02Zm-1.65-.2v.02-.02Z"/><circle cx="45.78" cy="45.78" r="45.78" style="fill:#cae6f0"/><g id="_IoPys-2"><path class="cls-23" d="M69.94 31.01c.1.15.28.3.28.45.01 4.27.01 8.55 0 12.82 0 .17-.07.33-.1.5-.03-.16-.06-.33-.1-.52-1.02.41-2.01.82-2.99 1.21-1.73.69-3.46 1.4-5.2 2.07-1.33.51-2.68.97-4.01 1.48-.09.04-.12.24-.18.37.74.09 1.47.23 2.21.26 3.17.11 6.33.2 9.5.25.59.01.76.15.76.76-.03 4.65-.02 9.29 0 13.94 0 .25.07.5.1.75.1.44-.25.44-.51.48-1.58.23-3.16.45-4.73.67l-10.56 1.47c-2.98.42-5.97.85-8.95 1.26-2.35.33-4.69.65-7.04.96-.15.02-.31-.03-.47-.05l.24-.64-.11-.14c.04-1.53.1-3.06.11-4.59.01-2.74 0-5.49 0-8.23.14-.66.26-1.33.42-1.98.32-1.32.67-2.64 1-3.96.13-.52.2-1.05.3-1.57.03-.24.14-.52.06-.73-.56-1.5-1.17-2.98-1.76-4.47v-8.17l3.26-.51c.07.07.13.18.22.21 1.17.43 2.34.85 3.51 1.25.14.05.35.04.48-.03 1.58-.86 3.15-1.73 4.72-2.6l1.17-.27h.14V46.5l2.05-.26c.14.02.27-.17.41-.17.65-.05 1.32-.18 1.93-.2.75-.02.65-.32.65-.75V33.06l.64-.12.67-.14c.58-.06 1.16-.1 1.73-.18 2.98-.41 5.96-.83 8.94-1.26.42-.06.82-.23 1.22-.35ZM51.3 65.35l.51.63c2.04-.26 4.08-.5 6.11-.81.24-.04.41-.48.62-.73v-6.48c-.07-.6-.5-.69-.99-.62-1.7.23-3.4.49-5.1.73-.74-.27-1.05-.14-1.13.69v.25l-.05 3.11c-.12.21-.31.4-.35.63-.06.36-.03.74-.01 1.11.03.48-.17 1.02.36 1.38l.04.13Zm-.82.35c0-2.08.03-4.16 0-6.24 0-.29-.31-.58-.47-.88-.21-.03-.42-.12-.62-.09-1.68.23-3.37.47-5.05.73-1.04.16-1.22.4-1.22 1.45v5.32c0 1.03.33 1.28 1.35 1.13 1.58-.23 3.16-.42 4.74-.63.36.24.61.12.79-.24.06 0 .13-.02.19-.03h.72l-.42-.54Zm8.96-4.65v2.98c0 .57.26.85.83.81.45-.03.9-.08 1.35-.14 1.34-.18 2.69-.35 4.03-.56.53-.08 1.05-.28 1.07-.94.05-2.05.08-4.1.08-6.15 0-.65-.41-.96-1.02-.88-1.75.25-3.5.49-5.25.76-.79.12-1.08.46-1.08 1.26v2.85Z"/><path class="cls-16" d="M38.17 56.55c0 2.74.02 5.49 0 8.23 0 1.53-.07 3.06-.11 4.59l.11.14-.24.64-.4-.25-.23-.15h-.01l-.15-.11c-.05-.09-.07-.2-.14-.27-1.24-1.38-2.49-2.75-3.73-4.14-1.17-1.3-2.32-2.62-3.48-3.93-1.58-1.78-3.15-3.56-4.74-5.33-1.36-1.5-2.77-2.96-4.11-4.47-.27-.3-.36-.75-.54-1.13l-.3-7.55c-.06-1.48-.12-2.97-.17-4.45.08.78.19 1.56.24 2.35.07 1.08.11 2.16.16 3.4 1.35-1.08 2.56-2.07 3.8-3.03.52-.4 1.09-.73 1.61-1.13.7-.55 1.35-1.15 2.05-1.7 1.77-1.41 3.55-2.79 5.32-4.2.15-.12.21-.34.31-.51.18.06.37.1.54.18 1.42.64 2.83 1.29 4.24 1.93v8.17c-.06-.05-.13-.1-.11-.09-.34.53-.68 1.05-1 1.59-.66 1.08-1.31 2.17-1.94 3.27-.14.25-.21.54-.31.82.21.62.37 1.25.64 1.84.54 1.2 1.13 2.39 1.73 3.56.3.59.65 1.16.98 1.73Z"/><path class="cls-19" d="M38.18 35.66c-1.41-.64-2.83-1.29-4.24-1.93-.17-.08-.36-.12-.54-.18-.25-.13-.49-.27-.74-.39-3.3-1.48-6.59-2.96-9.9-4.43-1.12-.5-2.26-.94-3.39-1.4.31-.14.61-.33.94-.42 1.25-.37 2.5-.71 3.75-1.05.09.11.17.28.29.32.81.29 1.63.53 2.43.82 1.34.48 2.66 1.01 4 1.49.86.31 1.74.59 2.61.87.23.08.48.11.88.2-.15-.24-.18-.33-.24-.37-.65-.52-1.32-1.01-1.96-1.54-.96-.8-1.87-1.64-2.84-2.41-.3-.24-.71-.34-1.07-.5.79-.14 1.59-.3 2.38-.42 1.12-.17 2.24-.3 3.36-.45.13.16.23.38.4.47.92.5 1.85.97 2.77 1.46 1.7.91 3.4 1.82 5.08 2.75 1.43.79 2.84 1.61 4.27 2.39 1.7.93 3.41 1.85 5.11 2.77l-1.17.27c-.62.06-1.24.09-1.85.18-2.36.32-4.72.66-7.08.99l-3.26.51Z"/><path d="m57.38 32.93-.64.12s-.08 0-.12-.02c-.03-.06-.04-.14-.09-.17-2.35-1.3-4.7-2.6-7.05-3.88-2.33-1.27-4.67-2.51-7-3.77-1.22-.66-2.43-1.35-3.65-2.03.96-.12 1.91-.27 2.87-.37 1.89-.19 3.78-.3 5.66-.56 1.49-.21 2.95-.61 4.43-.89.27-.05.6 0 .84.13 2.58 1.39 5.14 2.81 7.71 4.21 3 1.64 6.01 3.26 9.02 4.9.14.08.24.22.37.33-1.28-.21-2.57-.43-3.85-.64-.97-.16-1.94-.32-2.91-.49-1.25-.76-2.5-1.53-3.76-2.28-1.55-.93-3.11-1.85-4.74-2.81-.02.21-.06.34-.03.45.19.52.41 1.03.62 1.54.76 1.83 1.53 3.65 2.27 5.48.09.21.04.48.06.73Z" style="fill:#d8bc92"/><path d="M19.37 27.33c1.13.47 2.27.91 3.39 1.4 3.3 1.46 6.6 2.95 9.9 4.43.25.11.49.26.74.39-.1.17-.16.4-.31.51-1.77 1.41-3.55 2.8-5.32 4.2-.69.55-1.35 1.16-2.05 1.7-.52.4-1.09.73-1.61 1.13-1.24.96-2.45 1.95-3.8 3.03-.06-1.24-.09-2.32-.16-3.4-.05-.79-.16-1.57-.24-2.35v-.27l-.14-2.72v-.26l-.1-1.17c-.1-2.12-.2-4.23-.31-6.35v-.29Z" style="fill:#ac7a46"/><path class="cls-18" d="M20.4 50.38c.17.38.27.83.54 1.13 1.35 1.51 2.76 2.97 4.11 4.47 1.6 1.76 3.17 3.55 4.74 5.33 1.16 1.31 2.31 2.62 3.48 3.93 1.24 1.38 2.49 2.76 3.73 4.14.07.07.09.18.14.27-1.48-.83-2.97-1.65-4.44-2.5-4.26-2.45-8.51-4.91-12.77-7.36-.39-.22-.63-.43-.56-.94.33-2.76.63-5.52.95-8.29 0-.06.05-.12.07-.18Z"/><path d="M38.83 23.2c1.22.68 2.43 1.36 3.65 2.03 2.33 1.26 4.67 2.5 7 3.77 2.36 1.28 4.7 2.58 7.05 3.88.05.03.06.11.09.17-1.64.23-3.29.45-4.93.68h-.14c-1.71-.93-3.42-1.84-5.11-2.78-1.43-.79-2.84-1.61-4.27-2.39-1.69-.93-3.39-1.84-5.08-2.75-.92-.49-1.86-.96-2.77-1.46-.17-.09-.27-.31-.4-.47 1.64-.22 3.28-.44 4.92-.67Z" style="fill:#c39a6a"/><path d="M57.64 49.39c.06-.13.09-.34.18-.37 1.33-.5 2.68-.97 4.01-1.48 1.74-.67 3.47-1.38 5.2-2.07.99-.39 1.97-.8 2.99-1.21.04.2.07.36.1.52-.02.16-.04.32-.07.47l-.07.3c-.1.68-.2 1.35-.31 2.03-.3.03-.6.03-.89.08-1.86.28-3.72.55-5.58.84-1.86.29-3.71.59-5.57.89Z" style="fill:#b69162"/><path d="M57.64 49.39c1.86-.3 3.71-.6 5.57-.89 1.86-.29 3.72-.57 5.58-.84.3-.04.6-.05.89-.08.34 1.25.58 2.5.57 3.81-.04 4.4-.02 8.79-.02 13.19 0 .26-.02.52-.03.77-.04-.25-.1-.5-.1-.75 0-4.65-.02-9.29 0-13.94 0-.6-.17-.75-.76-.76-3.17-.05-6.33-.15-9.5-.25-.74-.03-1.47-.17-2.21-.26Z" style="fill:#cfb185"/><path d="M28.17 24.73c.36.16.77.26 1.07.5.97.78 1.89 1.62 2.84 2.41.64.53 1.31 1.03 1.96 1.54.06.05.09.13.24.37-.4-.09-.65-.12-.88-.2-.87-.28-1.75-.55-2.61-.87-1.34-.48-2.66-1-4-1.49-.8-.29-1.63-.54-2.43-.82-.12-.04-.19-.21-.29-.32 1.37-.37 2.73-.75 4.1-1.12Z" style="fill:#caaa7c"/><path class="cls-7" d="M62.96 29.81c.97.16 1.94.32 2.91.49 1.28.21 2.57.43 3.85.64l.22.06c-.41.12-.81.29-1.22.35-2.98.44-5.96.85-8.94 1.26-.57.08-1.15.12-1.73.18.31-.2.61-.4.92-.59 1.33-.8 2.66-1.59 3.99-2.39Z"/><path class="cls-16" d="m19.78 35.4.13 2.72-.13-2.72Zm-.11-1.43.09 1.17-.09-1.17Z"/><path class="cls-23" d="m69.98 45.55.07-.3-.07.3Z"/><path class="cls-18" d="m37.3 69.75.23.15-.23-.15Z"/><path class="cls-19" d="M19.36 27.47v.15s-.03-.07-.04-.11c0-.01.02-.03.04-.05Z"/><path class="cls-18" d="m37.14 69.64.15.1-.15-.1Z"/><path d="M51.69 33.71c1.64-.23 3.29-.45 4.93-.68.04 0 .08.02.12.02v12.06c0 .43.09.73-.65.75-.61.02-1.28.15-1.93.2-.14 0-.26.19-.41.17l-2.05.26V33.7Z" style="fill:#ae7e4e"/><path d="M62.96 29.81c-1.33.8-2.66 1.59-3.99 2.39-.31.19-.61.39-.92.59l-.67.14c-.02-.24.03-.51-.06-.73-.74-1.83-1.51-3.66-2.27-5.48-.21-.51-.43-1.02-.62-1.54-.04-.1.01-.23.03-.45 1.63.96 3.19 1.88 4.74 2.81 1.26.75 2.51 1.52 3.76 2.28Z" style="fill:#caa87b"/><path class="cls-14" d="M38.17 56.55c-.33-.58-.69-1.14-.98-1.73-.59-1.18-1.18-2.36-1.73-3.56-.27-.59-.43-1.23-.64-1.84 1.69-.13 3.38-.25 5.06-.38-.1.52-.17 1.05-.3 1.57-.32 1.32-.67 2.64-1 3.96-.16.66-.28 1.32-.42 1.98Z"/><path d="M39.88 49.03c-1.69.13-3.38.25-5.06.38.1-.27.16-.57.31-.82.63-1.1 1.29-2.18 1.94-3.27.32-.53.67-1.06 1-1.59-.01 0 .05.04.12.09.59 1.49 1.19 2.97 1.76 4.47.08.21-.04.48-.06.73Z" style="fill:#aa7948"/><path class="cls-7" d="M41.44 35.14c2.36-.33 4.72-.67 7.08-.99.61-.08 1.23-.12 1.85-.18-1.57.87-3.14 1.74-4.72 2.6-.13.07-.34.08-.48.03-1.17-.4-2.34-.82-3.51-1.25-.09-.03-.15-.14-.22-.21Z"/><path class="cls-23" d="M59.44 61.05V58.2c0-.8.29-1.14 1.08-1.26 1.75-.26 3.5-.51 5.25-.76.6-.08 1.02.23 1.02.88 0 2.05-.03 4.1-.08 6.15-.01.66-.54.85-1.07.94-1.34.21-2.69.38-4.03.56-.45.06-.9.11-1.35.14-.57.04-.84-.24-.83-.81v-2.98Zm7.04-.96v-2.92c0-.61-.25-.78-.86-.69-1.66.24-3.32.48-4.99.69-.63.08-.93.34-.93.99-.01 1.9 0 3.8 0 5.7 0 .52.23.79.75.72 1.75-.23 3.5-.47 5.24-.72.55-.08.82-.41.8-.99-.02-.93 0-1.86 0-2.79Zm-16.3 6.14-.19.03-.79.24c-1.58.21-3.16.4-4.74.63-1.02.15-1.35-.1-1.35-1.13v-5.32c0-1.05.18-1.29 1.22-1.45 1.68-.26 3.36-.5 5.05-.73.2-.03.41.06.62.09l-.14.16c-1.83.25-3.66.49-5.49.76-.83.12-1 .34-1 1.19V66c0 .83.23 1.01 1.07.88 1.15-.18 2.31-.28 3.44-.51.8-.16 1.77.07 2.34-.8l.03.31-.07.36ZM51.3 59c0-.08 0-.17.01-.25.38-.23.75-.46 1.13-.69 1.7-.25 3.4-.5 5.1-.73.49-.07.92.02 1 .62h-.15c-.26-.12-.53-.37-.77-.34-1.73.21-3.45.48-5.17.72-.44.06-.78.23-.95.66h-.2Zm7.24 5.44c-.2.25-.38.69-.62.73-2.03.31-4.07.55-6.11.81v-.24l4.86-.6c.64-.08 1.3-.09 1.72-.7h.15Z"/><path class="cls-23" d="M50.25 65.87c0-.1-.02-.21-.03-.31 0-1.97.03-3.95 0-5.92 0-.3-.23-.6-.36-.9l.14-.16c.16.29.46.58.47.88.04 2.08.01 4.16 0 6.24-.08.06-.15.12-.23.18ZM51.3 59h.2c0 2.12 0 4.23.01 6.35h-.22l-.04-.13v-3.11l.04-3.11Z"/><path class="cls-23" d="M51.26 62.11v3.11c-.52-.35-.33-.9-.36-1.38-.02-.37-.05-.75.01-1.11.04-.22.23-.42.35-.63Zm7.28 2.33h-.15v-6.48h.15c0 2.16 0 4.32-.01 6.48Z"/><path d="M52.44 58.06c-.38.23-.75.46-1.13.69.08-.83.39-.96 1.13-.69Z" style="fill:#c2a175"/><path class="cls-23" d="M50.25 65.87c.08-.06.15-.12.23-.18l.42.54h-.72c.02-.12.05-.24.07-.36Zm1.05-.52h.22c.09.13.19.26.28.39v.24l-.51-.63Zm-2.1 1.15.79-.24c-.18.36-.43.48-.79.24Z"/><path class="cls-14" d="m38.17 69.5-.11-.14.11.14Z"/><path class="cls-23" d="M66.48 60.09c0 .93-.02 1.86 0 2.79.01.58-.26.91-.8.99-1.75.25-3.49.49-5.24.72-.52.07-.75-.2-.75-.72v-5.7c0-.64.3-.91.93-.99 1.66-.22 3.32-.46 4.99-.69.61-.09.86.08.86.69.01.97 0 1.94 0 2.92ZM63.2 62.9v-1.98c.28-.48.66-.63 1.18-.34.09.05.25.06.35.02.38-.16.75-.34 1.15-.53-.28-1.03-1.52-1.75-2.83-1.56-1.37.2-2.7 1.44-2.69 2.47.68-.21 1.47.17 2.13-.31.08-.06.31.1.47.15l.02 2.07c0 .15-.06.33 0 .45.1.18.27.42.42.43.15 0 .32-.24.47-.38.02-.02-.03-.1-.05-.16l-.55.39-.06-.72Zm-13.34-4.17c.12.3.35.6.36.9.03 1.97 0 3.95 0 5.92-.57.88-1.53.64-2.34.8-1.13.23-2.29.33-3.44.51-.84.13-1.07-.05-1.07-.88v-5.3c0-.85.17-1.07 1-1.19 1.83-.27 3.66-.51 5.49-.76Zm-5.57 6.94c.88-.12 1.77-.23 2.66-.35.68-.09 1.36-.19 2.04-.29.38-.05.49-.29.44-.65-.05-.41-.3-.29-.57-.25-1.34.2-2.68.38-4.02.55-.75.09-.81.18-.56.98Zm3.91-5.61-1.01 1.21c.72.78.1 1.75.42 2.55 1.19.02 1.17.02 1.2-1.11.02-.56-.27-1.19.28-1.55l-.89-1.1Zm-2.73.39c-.34.41-.59.69-.82 1-.06.08-.07.23-.05.34.05.28.18.54.2.82.03.53 0 1.05 0 1.58 1.25.05 1.26.04 1.26-1.07 0-.24-.02-.47 0-.71.04-.33.11-.67.19-1.09l-.79-.87Zm6.33 5.29c-.09-.13-.19-.26-.28-.39 0-2.12 0-4.23-.01-6.35.17-.43.51-.6.95-.66 1.72-.24 3.44-.51 5.17-.72.24-.03.51.22.77.34v6.48c-.43.6-1.09.62-1.73.7l-4.86.6Zm4.36-1.41.02-.22c-.14-.07-.29-.13-.43-.2-.2-.12-.56-.25-.56-.37 0-.47-.04-1.13.23-1.36 1.11-.94 1.07-2.16 1.06-3.46-.31.14-.75.49-.72.53.37.55-.16.7-.29.89l-.57-.56.33-.74-1.89.25c0 .39-.04.74 0 1.07.11.85.21 1.71 1.15 2.16.48.23.34 1.44-.14 1.7-.24.13-.45.29-.67.44l.1.19 2.37-.33Z"/><path class="cls-23" d="M62.95 60.83c-.16-.06-.39-.21-.47-.15-.66.49-1.44.1-2.13.31-.01-1.03 1.32-2.27 2.69-2.47 1.3-.19 2.55.52 2.83 1.56-.39.18-.76.37-1.15.53-.1.04-.25.03-.35-.02-.52-.29-.89-.14-1.18.34l-.25-.09Z"/><path class="cls-23" d="m62.95 60.83.25.09v1.98h-.24l-.02-2.06Z"/><path class="cls-23" d="M62.97 62.89h.24c.02.2.03.41.06.72l.55-.39c.02.06.07.15.05.16-.15.14-.32.39-.47.38-.15 0-.32-.25-.42-.43-.06-.12 0-.3 0-.45Zm-18.68 2.79c-.26-.8-.19-.89.56-.98 1.34-.17 2.68-.36 4.02-.55.27-.04.52-.16.57.25.04.35-.06.59-.44.65-.68.09-1.36.19-2.04.29-.89.12-1.78.23-2.66.35Zm3.91-5.61.89 1.1c-.55.35-.26.99-.28 1.55-.03 1.13 0 1.13-1.2 1.11-.32-.8.3-1.77-.42-2.55l1.01-1.21Zm-2.73.39.79.87c-.08.42-.15.75-.19 1.09-.03.23 0 .47 0 .71 0 1.11-.01 1.12-1.26 1.07 0-.52.02-1.05 0-1.58-.02-.28-.15-.54-.2-.82-.02-.11-.01-.26.05-.34.23-.31.48-.6.82-1Zm10.69 3.86-2.37.33-.1-.19c.22-.15.44-.32.67-.44.48-.26.62-1.47.14-1.7-.94-.46-1.03-1.31-1.15-2.16-.04-.34 0-.68 0-1.07l1.89-.25-.33.74.57.56c.13-.19.65-.34.29-.89-.03-.04.41-.39.72-.53 0 1.3.05 2.52-1.06 3.46-.27.23-.23.9-.23 1.36 0 .12.36.25.56.37.14.08.29.14.43.2l-.02.22Z"/></g><path d="M65.23 69.68h-5.68c-.3 0-.59-.07-.88-.17-.34-.12-.65-.3-.92-.54a2.93 2.93 0 0 1-.56-.66 2.927 2.927 0 0 1-.45-1.44v-.22c0-.23.03-.45.09-.67.07-.25.16-.49.29-.71.15-.26.29-.53.44-.8l.57-1.02c.1-.18.2-.37.31-.55l.45-.81c.1-.18.2-.35.29-.53.16-.28.31-.56.47-.84l.3-.54c.15-.27.3-.55.46-.82.1-.18.2-.37.31-.55.15-.27.3-.55.46-.82.1-.18.2-.35.29-.53.16-.28.31-.56.47-.84.1-.19.21-.38.31-.57.16-.28.31-.57.48-.85.09-.15.19-.29.31-.41.14-.15.29-.29.45-.41.32-.24.68-.4 1.06-.49.3-.07.6-.1.9-.07.28.02.55.08.81.18.28.11.54.25.77.43.22.17.42.37.58.6.08.12.16.24.23.36.15.26.29.53.44.8.15.26.29.52.44.78.1.17.19.35.29.52.11.21.23.41.35.62.1.17.19.35.29.52.16.28.32.57.47.85.1.19.21.38.31.57.15.27.3.53.44.8.1.18.2.35.29.53.16.28.31.56.47.84.1.17.19.35.29.52.16.28.32.57.47.85.1.19.21.38.31.57.15.27.3.53.44.8.13.24.28.47.37.73.09.25.16.51.18.77 0 .08.02.15.02.23a3.02 3.02 0 0 1-1.04 2.3c-.39.33-.84.55-1.34.65-.2.04-.41.05-.62.05h-5.5Zm-6.89-2.94c0 .08 0 .16.02.24.11.5.4.85.88 1.03.16.06.34.08.51.08h11.02c.41-.01.75-.16 1.01-.47.29-.34.39-.73.3-1.17-.03-.17-.11-.32-.19-.47-1.47-2.64-2.94-5.28-4.4-7.92-.36-.64-.72-1.28-1.07-1.93-.31-.57-.92-.77-1.39-.69-.4.07-.71.26-.93.59-.04.05-.07.11-.1.16-1.67 3-3.33 6-5 9-.16.29-.32.58-.49.87-.11.2-.17.4-.17.63v.05Z" style="fill:#db443a"/><path d="M58.35 66.68c0-.23.06-.43.17-.63.16-.29.32-.58.49-.87 1.67-3 3.33-6 5-9 .03-.06.06-.11.1-.16.22-.33.53-.53.93-.59.48-.08 1.08.12 1.39.69.35.64.71 1.28 1.07 1.93 1.47 2.64 2.94 5.28 4.4 7.92.08.15.16.3.19.47.09.44-.01.83-.3 1.17-.26.31-.61.46-1.01.47H59.76c-.17 0-.35-.02-.51-.08-.48-.18-.77-.53-.88-1.03-.02-.08-.02-.16-.02-.24.02-.02.02-.03 0-.05Zm7.6-.56.05-.02c.13-.05.17-.15.17-.28V65a.258.258 0 0 0-.27-.25h-1.41c-.17.07-.21.19-.2.34v.68c0 .05 0 .09.01.14v.02c.03.07.08.11.13.15h.04l.05.02s.04.03.06.03h1.26c.04 0 .09.01.13-.02Zm.38-4.46v-.05l.03-.24.06-.64.06-.64V60a.338.338 0 0 0-.2-.3.392.392 0 0 0-.18-.04h-1.79a.32.32 0 0 0-.32.31v.11c.01.18.03.35.04.53l.06.69.06.69.09.97c.03.32.06.65.08.97 0 .04 0 .08.02.11.02.1.08.18.18.22.02 0 .05.02.07.03.03 0 .05.02.08.02h1.08c.03 0 .05-.01.08-.02.16-.05.26-.16.27-.34 0-.07.01-.14.02-.21.02-.24.05-.49.07-.73l.06-.65c.02-.23.04-.47.07-.7Z" style="fill:#fafafa"/><path d="M58.35 66.68s.02.03 0 .05v-.05Z" style="fill:#f2c7b8"/><path d="M64.61 64.3s-.05-.02-.07-.03a.288.288 0 0 1-.18-.22c0-.04-.01-.07-.02-.11-.03-.32-.06-.65-.08-.97l-.09-.97-.06-.69-.06-.69c-.02-.18-.03-.35-.04-.53v-.11c.02-.17.15-.3.32-.31h1.79c.06 0 .12 0 .18.04.13.06.18.17.2.3v.09l-.06.64-.06.64c0 .08-.02.16-.02.24v.05c-.02.23-.05.47-.07.7l-.06.65c-.02.24-.05.49-.07.73 0 .07-.01.14-.02.21-.01.17-.1.28-.27.34h-1.25Z" style="fill:#010101"/><path d="M64.46 66.1h-.04c-.05-.04-.1-.08-.12-.15v-.02s-.02-.09-.02-.14v-.68c0-.15.04-.27.2-.34h1.41c.16 0 .26.1.27.25v.82c0 .13-.04.23-.17.28l-.05.02h-1.45l-.05-.03Z" style="fill:#030201"/><path d="M64.51 66.13h1.45c-.04.04-.09.02-.13.02h-1.26c-.02 0-.04-.01-.06-.02Z" style="fill:#cbe2f1"/><path d="M64.61 64.3h1.25c-.03 0-.05.02-.08.02H64.7c-.03 0-.05-.01-.08-.02Z" style="fill:#aed2e5"/><path d="M66.33 61.67Z" style="fill:#7f7f80"/><path d="m64.46 66.1.05.02-.05-.02Zm1.49.02.05-.02-.05.02Z" style="fill:#283032"/><path d="M64.3 65.92v.02-.02Z" style="fill:#5f5f5f"/></g></svg>
