<svg id="Layer_2" xmlns="http://www.w3.org/2000/svg" viewBox="0 0 91.56 91.56"><defs><linearGradient id="linear-gradient" x1="49.91" y1="42.72" x2="64.89" y2="57.7" gradientUnits="userSpaceOnUse"><stop offset=".08" stop-color="#fff"/><stop offset=".49" stop-color="#fefdfc"/><stop offset=".76" stop-color="#fcf9f3"/><stop offset=".98" stop-color="#f9f2e5"/><stop offset="1" stop-color="#f9f1e3"/></linearGradient><style>.cls-4{fill:#f9f9fa}.cls-7{fill:#fafaf9}.cls-8{fill:#655d58}</style></defs><g id="Layer_1-2"><circle class="cls-7" cx="45.78" cy="45.78" r="45.78"/><circle class="cls-7" cx="45.78" cy="45.78" r="45.78"/><path class="cls-7" d="m42.26 63.16-22.3-6.96V28.14l22.3 6.81v28.21zm21.12-6.95-21.12 6.9V35.04l21.12-6.9v28.07z"/><path class="cls-7" d="m42.26 35.04-22.3-6.96 22.3-7.62 21.12 7.68-21.12 6.9z"/><path class="cls-7" d="m55.77 36.3-4.7 1.35.06-5.72 4.64-1.34v5.71z"/><path class="cls-7" d="m50.9 32.18-20.58-7.67 4.75-1.62 20.7 7.69-4.87 1.6z"/><g id="oWWwqu.tif"><path class="cls-7" d="m76.81 67.28-2.33 2.33s-.09-.08-.14-.13c-2.24-2.24-4.49-4.48-6.72-6.73-.72-.72-1.42-1.45-2.12-2.19-.12-.12-.19-.13-.33-.03a12.774 12.774 0 0 1-6.57 2.54c-6.42.59-12.31-3.65-13.77-9.91-1.62-6.96 2.66-13.95 9.64-15.52 4.91-1.11 9.15.28 12.57 3.97 1.89 2.04 2.95 4.5 3.22 7.27.33 3.33-.51 6.35-2.5 9.05-.12.16-.11.24.03.38 2.95 2.94 5.9 5.89 8.85 8.84.05.05.12.09.18.14ZM67.89 50.2c0-5.8-4.69-10.49-10.49-10.49S46.91 44.4 46.91 50.2c0 5.81 4.7 10.51 10.5 10.51 5.79 0 10.48-4.71 10.48-10.5Z"/><path class="cls-7" d="m76.81 67.28-2.33 2.33s-.09-.08-.14-.13c-2.24-2.24-4.49-4.48-6.72-6.73-.72-.72-1.42-1.45-2.12-2.19-.12-.12-.19-.13-.33-.03a12.774 12.774 0 0 1-6.57 2.54c-6.42.59-12.31-3.65-13.77-9.91-1.62-6.96 2.66-13.95 9.64-15.52 4.91-1.11 9.15.28 12.57 3.97 1.89 2.04 2.95 4.5 3.22 7.27.33 3.33-.51 6.35-2.5 9.05-.12.16-.11.24.03.38 2.95 2.94 5.9 5.89 8.85 8.84.05.05.12.09.18.14ZM67.89 50.2c0-5.8-4.69-10.49-10.49-10.49S46.91 44.4 46.91 50.2c0 5.81 4.7 10.51 10.5 10.51 5.79 0 10.48-4.71 10.48-10.5Z"/><path class="cls-7" d="m76.81 67.28-2.33 2.33s-.09-.08-.14-.13c-2.24-2.24-4.49-4.48-6.72-6.73-.72-.72-1.42-1.45-2.12-2.19-.12-.12-.19-.13-.33-.03a12.774 12.774 0 0 1-6.57 2.54c-6.42.59-12.31-3.65-13.77-9.91-1.62-6.96 2.66-13.95 9.64-15.52 4.91-1.11 9.15.28 12.57 3.97 1.89 2.04 2.95 4.5 3.22 7.27.33 3.33-.51 6.35-2.5 9.05-.12.16-.11.24.03.38 2.95 2.94 5.9 5.89 8.85 8.84.05.05.12.09.18.14ZM67.89 50.2c0-5.8-4.69-10.49-10.49-10.49S46.91 44.4 46.91 50.2c0 5.81 4.7 10.51 10.5 10.51 5.79 0 10.48-4.71 10.48-10.5Z"/></g><circle class="cls-7" cx="57.4" cy="50.21" r="10.59"/><rect class="cls-7" x="52.09" y="44.51" width="1.35" height="4.79" rx=".45" ry=".45" transform="rotate(-45 52.768 46.903)"/><rect class="cls-7" x="50.38" y="46.23" width="4.79" height="1.35" rx=".45" ry=".45" transform="rotate(-45 52.768 46.903)"/><rect class="cls-7" x="52.09" y="44.51" width="1.35" height="4.79" rx=".45" ry=".45" transform="rotate(-45 52.768 46.903)"/><rect class="cls-7" x="50.38" y="46.23" width="4.79" height="1.35" rx=".45" ry=".45" transform="rotate(-45 52.768 46.903)"/><rect class="cls-7" x="52.09" y="44.51" width="1.35" height="4.79" rx=".45" ry=".45" transform="rotate(-45 52.768 46.903)"/><rect class="cls-7" x="50.38" y="46.23" width="4.79" height="1.35" rx=".45" ry=".45" transform="rotate(-45 52.768 46.903)"/><rect class="cls-7" x="61.36" y="44.51" width="1.35" height="4.79" rx=".45" ry=".45" transform="rotate(-45 62.034 46.895)"/><rect class="cls-7" x="59.64" y="46.23" width="4.79" height="1.35" rx=".45" ry=".45" transform="rotate(-45 62.034 46.895)"/><rect class="cls-7" x="61.36" y="44.51" width="1.35" height="4.79" rx=".45" ry=".45" transform="rotate(-45 62.034 46.895)"/><rect class="cls-7" x="59.64" y="46.23" width="4.79" height="1.35" rx=".45" ry=".45" transform="rotate(-45 62.034 46.895)"/><rect class="cls-7" x="61.36" y="44.51" width="1.35" height="4.79" rx=".45" ry=".45" transform="rotate(-45 62.034 46.895)"/><rect class="cls-7" x="59.64" y="46.23" width="4.79" height="1.35" rx=".45" ry=".45" transform="rotate(-45 62.034 46.895)"/><path class="cls-7" d="M57.74 52.36c1.4.02 2.58.53 3.58 1.48.53.5.45 1.1-.18 1.46-.27.15-.52.09-.75-.06-.29-.19-.56-.42-.85-.61a3.469 3.469 0 0 0-4.22.41c-.15.14-.33.27-.52.33a.778.778 0 0 1-.91-.33c-.2-.31-.17-.78.1-1.07.76-.8 1.69-1.3 2.77-1.5.32-.06.65-.07.97-.1Z"/><path class="cls-7" d="M57.74 52.36c1.4.02 2.58.53 3.58 1.48.53.5.45 1.1-.18 1.46-.27.15-.52.09-.75-.06-.29-.19-.56-.42-.85-.61a3.469 3.469 0 0 0-4.22.41c-.15.14-.33.27-.52.33a.778.778 0 0 1-.91-.33c-.2-.31-.17-.78.1-1.07.76-.8 1.69-1.3 2.77-1.5.32-.06.65-.07.97-.1Z"/><rect class="cls-7" x="57.8" y="72.85" width="1.02" height="4.16" rx=".51" ry=".51" transform="rotate(-45 58.315 74.925)"/><rect class="cls-7" x="56.23" y="74.42" width="4.16" height="1.02" rx=".51" ry=".51" transform="rotate(-45 58.315 74.925)"/><rect class="cls-7" x="56.23" y="74.42" width="4.16" height="1.02" rx=".51" ry=".51" transform="rotate(-45 58.315 74.925)"/><rect class="cls-7" x="56.23" y="74.42" width="4.16" height="1.02" rx=".51" ry=".51" transform="rotate(-45 58.315 74.925)"/><rect class="cls-7" x="57.8" y="72.85" width="1.02" height="4.16" rx=".51" ry=".51" transform="rotate(-45 58.315 74.925)"/><rect class="cls-7" x="56.23" y="74.42" width="4.16" height="1.02" rx=".51" ry=".51" transform="rotate(-45 58.315 74.925)"/><rect class="cls-7" x="56.23" y="74.42" width="4.16" height="1.02" rx=".51" ry=".51" transform="rotate(-45 58.315 74.925)"/><rect class="cls-7" x="56.23" y="74.42" width="4.16" height="1.02" rx=".51" ry=".51" transform="rotate(-45 58.315 74.925)"/><rect class="cls-7" x="57.8" y="72.85" width="1.02" height="4.16" rx=".51" ry=".51" transform="rotate(-45 58.315 74.925)"/><rect class="cls-7" x="56.23" y="74.42" width="4.16" height="1.02" rx=".51" ry=".51" transform="rotate(-45 58.315 74.925)"/><rect class="cls-7" x="56.23" y="74.42" width="4.16" height="1.02" rx=".51" ry=".51" transform="rotate(-45 58.315 74.925)"/><rect class="cls-7" x="56.23" y="74.42" width="4.16" height="1.02" rx=".51" ry=".51" transform="rotate(-45 58.315 74.925)"/><rect class="cls-7" x="22.25" y="16.16" width="1.02" height="4.16" rx=".51" ry=".51" transform="rotate(-45 22.765 18.24)"/><rect class="cls-7" x="20.68" y="17.73" width="4.16" height="1.02" rx=".51" ry=".51" transform="rotate(-45 22.765 18.24)"/><rect class="cls-7" x="20.68" y="17.73" width="4.16" height="1.02" rx=".51" ry=".51" transform="rotate(-45 22.765 18.24)"/><rect class="cls-7" x="20.68" y="17.73" width="4.16" height="1.02" rx=".51" ry=".51" transform="rotate(-45 22.765 18.24)"/><rect class="cls-7" x="22.25" y="16.16" width="1.02" height="4.16" rx=".51" ry=".51" transform="rotate(-45 22.765 18.24)"/><rect class="cls-7" x="20.68" y="17.73" width="4.16" height="1.02" rx=".51" ry=".51" transform="rotate(-45 22.765 18.24)"/><rect class="cls-7" x="20.68" y="17.73" width="4.16" height="1.02" rx=".51" ry=".51" transform="rotate(-45 22.765 18.24)"/><rect class="cls-7" x="20.68" y="17.73" width="4.16" height="1.02" rx=".51" ry=".51" transform="rotate(-45 22.765 18.24)"/><rect class="cls-7" x="22.25" y="16.16" width="1.02" height="4.16" rx=".51" ry=".51" transform="rotate(-45 22.765 18.24)"/><rect class="cls-7" x="20.68" y="17.73" width="4.16" height="1.02" rx=".51" ry=".51" transform="rotate(-45 22.765 18.24)"/><rect class="cls-7" x="20.68" y="17.73" width="4.16" height="1.02" rx=".51" ry=".51" transform="rotate(-45 22.765 18.24)"/><rect class="cls-7" x="20.68" y="17.73" width="4.16" height="1.02" rx=".51" ry=".51" transform="rotate(-45 22.765 18.24)"/><rect class="cls-7" x="74.67" y="30.5" width="1.37" height="5.59" rx=".51" ry=".51" transform="rotate(-45 75.361 33.294)"/><rect class="cls-7" x="72.56" y="32.62" width="5.59" height="1.37" rx=".51" ry=".51" transform="rotate(-45 75.361 33.294)"/><rect class="cls-7" x="72.56" y="32.62" width="5.59" height="1.37" rx=".51" ry=".51" transform="rotate(-45 75.361 33.294)"/><rect class="cls-7" x="72.56" y="32.62" width="5.59" height="1.37" rx=".51" ry=".51" transform="rotate(-45 75.361 33.294)"/><rect class="cls-7" x="74.67" y="30.5" width="1.37" height="5.59" rx=".51" ry=".51" transform="rotate(-45 75.361 33.294)"/><rect class="cls-7" x="72.56" y="32.62" width="5.59" height="1.37" rx=".51" ry=".51" transform="rotate(-45 75.361 33.294)"/><rect class="cls-7" x="72.56" y="32.62" width="5.59" height="1.37" rx=".51" ry=".51" transform="rotate(-45 75.361 33.294)"/><rect class="cls-7" x="72.56" y="32.62" width="5.59" height="1.37" rx=".51" ry=".51" transform="rotate(-45 75.361 33.294)"/><rect class="cls-7" x="74.67" y="30.5" width="1.37" height="5.59" rx=".51" ry=".51" transform="rotate(-45 75.361 33.294)"/><rect class="cls-7" x="72.56" y="32.62" width="5.59" height="1.37" rx=".51" ry=".51" transform="rotate(-45 75.361 33.294)"/><rect class="cls-7" x="72.56" y="32.62" width="5.59" height="1.37" rx=".51" ry=".51" transform="rotate(-45 75.361 33.294)"/><rect class="cls-7" x="72.56" y="32.62" width="5.59" height="1.37" rx=".51" ry=".51" transform="rotate(-45 75.361 33.294)"/><rect class="cls-7" x="19.1" y="63.13" width="1.74" height="7.1" rx=".51" ry=".51" transform="rotate(-45 19.957 66.674)"/><rect class="cls-7" x="16.41" y="65.81" width="7.1" height="1.74" rx=".51" ry=".51" transform="rotate(-45 19.957 66.674)"/><rect class="cls-7" x="16.41" y="65.81" width="7.1" height="1.74" rx=".51" ry=".51" transform="rotate(-45 19.957 66.674)"/><rect class="cls-7" x="16.41" y="65.81" width="7.1" height="1.74" rx=".51" ry=".51" transform="rotate(-45 19.957 66.674)"/><rect class="cls-7" x="19.1" y="63.13" width="1.74" height="7.1" rx=".51" ry=".51" transform="rotate(-45 19.957 66.674)"/><rect class="cls-7" x="16.41" y="65.81" width="7.1" height="1.74" rx=".51" ry=".51" transform="rotate(-45 19.957 66.674)"/><rect class="cls-7" x="16.41" y="65.81" width="7.1" height="1.74" rx=".51" ry=".51" transform="rotate(-45 19.957 66.674)"/><rect class="cls-7" x="16.41" y="65.81" width="7.1" height="1.74" rx=".51" ry=".51" transform="rotate(-45 19.957 66.674)"/><rect class="cls-7" x="19.1" y="63.13" width="1.74" height="7.1" rx=".51" ry=".51" transform="rotate(-45 19.957 66.674)"/><rect class="cls-7" x="16.41" y="65.81" width="7.1" height="1.74" rx=".51" ry=".51" transform="rotate(-45 19.957 66.674)"/><rect class="cls-7" x="16.41" y="65.81" width="7.1" height="1.74" rx=".51" ry=".51" transform="rotate(-45 19.957 66.674)"/><rect class="cls-7" x="16.41" y="65.81" width="7.1" height="1.74" rx=".51" ry=".51" transform="rotate(-45 19.957 66.674)"/><circle cx="45.78" cy="45.78" r="45.78" style="fill:#f7e1de"/><path style="fill:#deb36c" d="m42.26 63.16-22.3-6.96V28.14l22.3 6.81v28.21z"/><path style="fill:#d4913f" d="m63.38 56.21-21.12 6.9V35.04l21.12-6.9v28.07z"/><path style="fill:#ebc892" d="m42.26 35.04-22.3-6.96 22.3-7.62 21.12 7.68-21.12 6.9z"/><path style="fill:#f3d5a4" d="m55.77 36.3-4.7 1.35.06-5.72 4.64-1.34v5.71z"/><path style="fill:#f9f1e3" d="m50.9 32.18-20.58-7.67 4.75-1.62 20.7 7.69-4.87 1.6z"/><path class="cls-8" d="m76.81 67.28-2.33 2.33s-.09-.08-.14-.13c-2.24-2.24-4.49-4.48-6.72-6.73-.72-.72-1.42-1.45-2.12-2.19-.12-.12-.19-.13-.33-.03a12.774 12.774 0 0 1-6.57 2.54c-6.42.59-12.31-3.65-13.77-9.91-1.62-6.96 2.66-13.95 9.64-15.52 4.91-1.11 9.15.28 12.57 3.97 1.89 2.04 2.95 4.5 3.22 7.27.33 3.33-.51 6.35-2.5 9.05-.12.16-.11.24.03.38 2.95 2.94 5.9 5.89 8.85 8.84.05.05.12.09.18.14ZM67.89 50.2c0-5.8-4.69-10.49-10.49-10.49S46.91 44.4 46.91 50.2c0 5.81 4.7 10.51 10.5 10.51 5.79 0 10.48-4.71 10.48-10.5Z" id="oWWwqu.tif-2"/><circle cx="57.4" cy="50.21" r="10.59" style="fill:url(#linear-gradient)"/><rect class="cls-8" x="52.09" y="44.51" width="1.35" height="4.79" rx=".45" ry=".45" transform="rotate(-45 52.768 46.903)"/><rect class="cls-8" x="50.38" y="46.23" width="4.79" height="1.35" rx=".45" ry=".45" transform="rotate(-45 52.768 46.903)"/><rect class="cls-8" x="61.36" y="44.51" width="1.35" height="4.79" rx=".45" ry=".45" transform="rotate(-45 62.034 46.895)"/><rect class="cls-8" x="59.64" y="46.23" width="4.79" height="1.35" rx=".45" ry=".45" transform="rotate(-45 62.034 46.895)"/><path class="cls-8" d="M57.74 52.36c1.4.02 2.58.53 3.58 1.48.53.5.45 1.1-.18 1.46-.27.15-.52.09-.75-.06-.29-.19-.56-.42-.85-.61a3.469 3.469 0 0 0-4.22.41c-.15.14-.33.27-.52.33a.778.778 0 0 1-.91-.33c-.2-.31-.17-.78.1-1.07.76-.8 1.69-1.3 2.77-1.5.32-.06.65-.07.97-.1Z"/><rect class="cls-4" x="57.8" y="72.85" width="1.02" height="4.16" rx=".51" ry=".51" transform="rotate(-45 58.315 74.925)"/><rect class="cls-4" x="56.23" y="74.42" width="4.16" height="1.02" rx=".51" ry=".51" transform="rotate(-45 58.315 74.925)"/><rect class="cls-4" x="22.25" y="16.16" width="1.02" height="4.16" rx=".51" ry=".51" transform="rotate(-45 22.765 18.24)"/><rect class="cls-4" x="20.68" y="17.73" width="4.16" height="1.02" rx=".51" ry=".51" transform="rotate(-45 22.765 18.24)"/><rect class="cls-4" x="74.67" y="30.5" width="1.37" height="5.59" rx=".51" ry=".51" transform="rotate(-45 75.361 33.294)"/><rect class="cls-4" x="72.56" y="32.62" width="5.59" height="1.37" rx=".51" ry=".51" transform="rotate(-45 75.361 33.294)"/><rect class="cls-4" x="19.1" y="63.13" width="1.74" height="7.1" rx=".51" ry=".51" transform="rotate(-45 19.957 66.674)"/><rect class="cls-4" x="16.41" y="65.81" width="7.1" height="1.74" rx=".51" ry=".51" transform="rotate(-45 19.957 66.674)"/></g></svg>
