<svg id="Layer_2" xmlns="http://www.w3.org/2000/svg" viewBox="0 0 91.56 91.56"><defs><style>.cls-2{fill:#fafaf9}</style></defs><g id="Layer_1-2"><circle class="cls-2" cx="45.78" cy="45.78" r="45.78"/><circle class="cls-2" cx="45.78" cy="45.78" r="45.78"/><path class="cls-2" d="M25.23 15.14c.42 3.09 1.46 5.55 5.14 5.79-1.51.16-2.83.58-3.75 1.82-.88 1.18-1.16 2.55-1.29 3.98h-.11l-.12-.86c-.24-1.54-.74-2.94-2.02-3.94-.76-.59-1.65-.8-2.59-.86-.09 0-.18-.08-.27-.12.08-.05.16-.15.24-.15 2.83-.1 4.04-2.04 4.49-3.99.11-.46.16-.94.24-1.41.01-.09.04-.17.06-.26Zm-5.06 51.94c.25 1.82.86 3.27 3.03 3.41-.89.09-1.67.34-2.21 1.07-.52.69-.69 1.5-.76 2.34h-.06c-.02-.17-.04-.34-.07-.51-.14-.91-.44-1.73-1.19-2.32-.45-.35-.97-.47-1.53-.51-.05 0-.11-.05-.16-.07.05-.03.09-.09.14-.09 1.67-.06 2.38-1.2 2.64-2.35.06-.27.09-.55.14-.83 0-.05.02-.1.03-.15Zm47.26-44.95c.22 1.63.77 2.93 2.72 3.06-.8.09-1.5.31-1.98.96-.46.62-.62 1.35-.68 2.1h-.06l-.06-.45c-.13-.81-.39-1.56-1.07-2.08-.4-.31-.87-.42-1.37-.46-.05 0-.1-.04-.14-.06.04-.03.08-.08.13-.08 1.5-.05 2.14-1.08 2.37-2.11.06-.24.08-.5.13-.75 0-.05.02-.09.03-.14Zm3.91 40.61c.35 2.61 1.24 4.7 4.36 4.91-1.28.14-2.4.49-3.18 1.54-.74 1-.99 2.16-1.09 3.37h-.09c-.03-.24-.06-.49-.1-.73-.2-1.3-.63-2.49-1.71-3.34-.64-.5-1.4-.68-2.2-.73-.08 0-.15-.07-.23-.1.07-.04.13-.13.2-.13 2.4-.09 3.42-1.73 3.8-3.38.09-.39.13-.8.2-1.19.01-.07.03-.15.05-.22ZM33.4 42.4v6.68c0 2.86-1.34 4.08-3.86 4.08s-3.62-1.26-3.62-4.05v-6.78c0-2.78 1.53-3.99 3.75-3.99s3.73 1.19 3.73 4.07Zm-4.68-.31v7.36c0 .89.31 1.35.92 1.35s.94-.42.94-1.37v-7.37c0-.9-.25-1.36-.95-1.36-.59 0-.92.43-.92 1.38ZM36.11 41h-2.1v-2.45h6.97V41h-2.11v11.95h-2.76V41Zm5.86-2.45h2.77v5.54h1.81v-5.54h2.79v14.4h-2.79v-6.41h-1.81v6.41h-2.77v-14.4Zm14.81 8.04h-2.97v3.92h3.48l-.33 2.43h-5.92v-14.4h5.9v2.45h-3.13v3.16h2.97v2.43Zm4.27.1v6.26h-2.76v-14.4h3.59c2.41 0 3.61 1.06 3.61 3.58v.52c0 2.05-.82 2.66-1.44 2.95.9.43 1.32 1.09 1.32 3.1 0 1.39-.02 3.49.1 4.25h-2.68c-.18-.65-.17-2.53-.17-4.36 0-1.62-.18-1.9-1.24-1.9h-.33Zm0-2.18h.34c.92 0 1.3-.29 1.3-1.63v-.7c0-.97-.19-1.45-1.21-1.45h-.43v3.78Z"/><path class="cls-2" d="M33.4 42.4v6.68c0 2.86-1.34 4.08-3.86 4.08s-3.62-1.26-3.62-4.05v-6.78c0-2.78 1.53-3.99 3.75-3.99s3.73 1.19 3.73 4.07Zm-4.68-.31v7.36c0 .89.31 1.35.92 1.35s.94-.42.94-1.37v-7.37c0-.9-.25-1.36-.95-1.36-.59 0-.92.43-.92 1.38ZM36.11 41h-2.1v-2.45h6.97V41h-2.11v11.95h-2.76V41Zm5.86-2.45h2.77v5.54h1.81v-5.54h2.79v14.4h-2.79v-6.41h-1.81v6.41h-2.77v-14.4Zm14.81 8.04h-2.97v3.92h3.48l-.33 2.43h-5.92v-14.4h5.9v2.45h-3.13v3.16h2.97v2.43Zm4.27.1v6.26h-2.76v-14.4h3.59c2.41 0 3.61 1.06 3.61 3.58v.52c0 2.05-.82 2.66-1.44 2.95.9.43 1.32 1.09 1.32 3.1 0 1.39-.02 3.49.1 4.25h-2.68c-.18-.65-.17-2.53-.17-4.36 0-1.62-.18-1.9-1.24-1.9h-.33Zm0-2.18h.34c.92 0 1.3-.29 1.3-1.63v-.7c0-.97-.19-1.45-1.21-1.45h-.43v3.78Z"/><path class="cls-2" d="M33.4 42.4v6.68c0 2.86-1.34 4.08-3.86 4.08s-3.62-1.26-3.62-4.05v-6.78c0-2.78 1.53-3.99 3.75-3.99s3.73 1.19 3.73 4.07Zm-4.68-.31v7.36c0 .89.31 1.35.92 1.35s.94-.42.94-1.37v-7.37c0-.9-.25-1.36-.95-1.36-.59 0-.92.43-.92 1.38ZM36.11 41h-2.1v-2.45h6.97V41h-2.11v11.95h-2.76V41Zm5.86-2.45h2.77v5.54h1.81v-5.54h2.79v14.4h-2.79v-6.41h-1.81v6.41h-2.77v-14.4Zm14.81 8.04h-2.97v3.92h3.48l-.33 2.43h-5.92v-14.4h5.9v2.45h-3.13v3.16h2.97v2.43Zm4.27.1v6.26h-2.76v-14.4h3.59c2.41 0 3.61 1.06 3.61 3.58v.52c0 2.05-.82 2.66-1.44 2.95.9.43 1.32 1.09 1.32 3.1 0 1.39-.02 3.49.1 4.25h-2.68c-.18-.65-.17-2.53-.17-4.36 0-1.62-.18-1.9-1.24-1.9h-.33Zm0-2.18h.34c.92 0 1.3-.29 1.3-1.63v-.7c0-.97-.19-1.45-1.21-1.45h-.43v3.78Z"/><circle cx="45.78" cy="45.78" r="45.78" style="fill:#e0dfdd"/><path d="M25.23 15.14c.42 3.09 1.46 5.55 5.14 5.79-1.51.16-2.83.58-3.75 1.82-.88 1.18-1.16 2.55-1.29 3.98h-.11l-.12-.86c-.24-1.54-.74-2.94-2.02-3.94-.76-.59-1.65-.8-2.59-.86-.09 0-.18-.08-.27-.12.08-.05.16-.15.24-.15 2.83-.1 4.04-2.04 4.49-3.99.11-.46.16-.94.24-1.41.01-.09.04-.17.06-.26Zm-5.06 51.94c.25 1.82.86 3.27 3.03 3.41-.89.09-1.67.34-2.21 1.07-.52.69-.69 1.5-.76 2.34h-.06c-.02-.17-.04-.34-.07-.51-.14-.91-.44-1.73-1.19-2.32-.45-.35-.97-.47-1.53-.51-.05 0-.11-.05-.16-.07.05-.03.09-.09.14-.09 1.67-.06 2.38-1.2 2.64-2.35.06-.27.09-.55.14-.83 0-.05.02-.1.03-.15Zm47.26-44.95c.22 1.63.77 2.93 2.72 3.06-.8.09-1.5.31-1.98.96-.46.62-.62 1.35-.68 2.1h-.06l-.06-.45c-.13-.81-.39-1.56-1.07-2.08-.4-.31-.87-.42-1.37-.46-.05 0-.1-.04-.14-.06.04-.03.08-.08.13-.08 1.5-.05 2.14-1.08 2.37-2.11.06-.24.08-.5.13-.75 0-.05.02-.09.03-.14Zm3.91 40.61c.35 2.61 1.24 4.7 4.36 4.91-1.28.14-2.4.49-3.18 1.54-.74 1-.99 2.16-1.09 3.37h-.09c-.03-.24-.06-.49-.1-.73-.2-1.3-.63-2.49-1.71-3.34-.64-.5-1.4-.68-2.2-.73-.08 0-.15-.07-.23-.1.07-.04.13-.13.2-.13 2.4-.09 3.42-1.73 3.8-3.38.09-.39.13-.8.2-1.19.01-.07.03-.15.05-.22ZM33.4 42.4v6.68c0 2.86-1.34 4.08-3.86 4.08s-3.62-1.26-3.62-4.05v-6.78c0-2.78 1.53-3.99 3.75-3.99s3.73 1.19 3.73 4.07Zm-4.68-.31v7.36c0 .89.31 1.35.92 1.35s.94-.42.94-1.37v-7.37c0-.9-.25-1.36-.95-1.36-.59 0-.92.43-.92 1.38ZM36.11 41h-2.1v-2.45h6.97V41h-2.11v11.95h-2.76V41Zm5.86-2.45h2.77v5.54h1.81v-5.54h2.79v14.4h-2.79v-6.41h-1.81v6.41h-2.77v-14.4Zm14.81 8.04h-2.97v3.92h3.48l-.33 2.43h-5.92v-14.4h5.9v2.45h-3.13v3.16h2.97v2.43Zm4.27.1v6.26h-2.76v-14.4h3.59c2.41 0 3.61 1.06 3.61 3.58v.52c0 2.05-.82 2.66-1.44 2.95.9.43 1.32 1.09 1.32 3.1 0 1.39-.02 3.49.1 4.25h-2.68c-.18-.65-.17-2.53-.17-4.36 0-1.62-.18-1.9-1.24-1.9h-.33Zm0-2.18h.34c.92 0 1.3-.29 1.3-1.63v-.7c0-.97-.19-1.45-1.21-1.45h-.43v3.78Z" style="fill:#fff"/></g></svg>
