<svg id="Layer_2" xmlns="http://www.w3.org/2000/svg" viewBox="0 0 91.56 91.56"><defs><style>.cls-2{fill:#f9f9fa}.cls-6{fill:#fafaf9}</style></defs><g id="Layer_1-2"><circle class="cls-6" cx="45.78" cy="45.78" r="45.78"/><circle class="cls-6" cx="45.78" cy="45.78" r="45.78"/><path class="cls-6" d="m42.26 63.16-22.3-6.96V28.14l22.3 6.81v28.21zm21.12-6.95-21.12 6.9V35.04l21.12-6.9v28.07z"/><path class="cls-6" d="m42.26 35.04-22.3-6.96 22.3-7.62 21.12 7.68-21.12 6.9z"/><path class="cls-6" d="m55.77 36.3-4.7 1.35.06-5.72 4.64-1.34v5.71z"/><path class="cls-6" d="m50.9 32.18-20.58-7.67 4.75-1.62 20.7 7.69-4.87 1.6z"/><rect class="cls-6" x="57.8" y="72.85" width="1.02" height="4.16" rx=".51" ry=".51" transform="rotate(-45 58.315 74.925)"/><rect class="cls-6" x="56.23" y="74.42" width="4.16" height="1.02" rx=".51" ry=".51" transform="rotate(-45 58.315 74.925)"/><rect class="cls-6" x="56.23" y="74.42" width="4.16" height="1.02" rx=".51" ry=".51" transform="rotate(-45 58.315 74.925)"/><rect class="cls-6" x="56.23" y="74.42" width="4.16" height="1.02" rx=".51" ry=".51" transform="rotate(-45 58.315 74.925)"/><rect class="cls-6" x="57.8" y="72.85" width="1.02" height="4.16" rx=".51" ry=".51" transform="rotate(-45 58.315 74.925)"/><rect class="cls-6" x="56.23" y="74.42" width="4.16" height="1.02" rx=".51" ry=".51" transform="rotate(-45 58.315 74.925)"/><rect class="cls-6" x="56.23" y="74.42" width="4.16" height="1.02" rx=".51" ry=".51" transform="rotate(-45 58.315 74.925)"/><rect class="cls-6" x="56.23" y="74.42" width="4.16" height="1.02" rx=".51" ry=".51" transform="rotate(-45 58.315 74.925)"/><rect class="cls-6" x="57.8" y="72.85" width="1.02" height="4.16" rx=".51" ry=".51" transform="rotate(-45 58.315 74.925)"/><rect class="cls-6" x="56.23" y="74.42" width="4.16" height="1.02" rx=".51" ry=".51" transform="rotate(-45 58.315 74.925)"/><rect class="cls-6" x="56.23" y="74.42" width="4.16" height="1.02" rx=".51" ry=".51" transform="rotate(-45 58.315 74.925)"/><rect class="cls-6" x="56.23" y="74.42" width="4.16" height="1.02" rx=".51" ry=".51" transform="rotate(-45 58.315 74.925)"/><rect class="cls-6" x="22.25" y="16.16" width="1.02" height="4.16" rx=".51" ry=".51" transform="rotate(-45 22.765 18.24)"/><rect class="cls-6" x="20.68" y="17.73" width="4.16" height="1.02" rx=".51" ry=".51" transform="rotate(-45 22.765 18.24)"/><rect class="cls-6" x="20.68" y="17.73" width="4.16" height="1.02" rx=".51" ry=".51" transform="rotate(-45 22.765 18.24)"/><rect class="cls-6" x="20.68" y="17.73" width="4.16" height="1.02" rx=".51" ry=".51" transform="rotate(-45 22.765 18.24)"/><rect class="cls-6" x="22.25" y="16.16" width="1.02" height="4.16" rx=".51" ry=".51" transform="rotate(-45 22.765 18.24)"/><rect class="cls-6" x="20.68" y="17.73" width="4.16" height="1.02" rx=".51" ry=".51" transform="rotate(-45 22.765 18.24)"/><rect class="cls-6" x="20.68" y="17.73" width="4.16" height="1.02" rx=".51" ry=".51" transform="rotate(-45 22.765 18.24)"/><rect class="cls-6" x="20.68" y="17.73" width="4.16" height="1.02" rx=".51" ry=".51" transform="rotate(-45 22.765 18.24)"/><rect class="cls-6" x="22.25" y="16.16" width="1.02" height="4.16" rx=".51" ry=".51" transform="rotate(-45 22.765 18.24)"/><rect class="cls-6" x="20.68" y="17.73" width="4.16" height="1.02" rx=".51" ry=".51" transform="rotate(-45 22.765 18.24)"/><rect class="cls-6" x="20.68" y="17.73" width="4.16" height="1.02" rx=".51" ry=".51" transform="rotate(-45 22.765 18.24)"/><rect class="cls-6" x="20.68" y="17.73" width="4.16" height="1.02" rx=".51" ry=".51" transform="rotate(-45 22.765 18.24)"/><rect class="cls-6" x="74.67" y="30.5" width="1.37" height="5.59" rx=".51" ry=".51" transform="rotate(-45 75.361 33.294)"/><rect class="cls-6" x="72.56" y="32.62" width="5.59" height="1.37" rx=".51" ry=".51" transform="rotate(-45 75.361 33.294)"/><rect class="cls-6" x="72.56" y="32.62" width="5.59" height="1.37" rx=".51" ry=".51" transform="rotate(-45 75.361 33.294)"/><rect class="cls-6" x="72.56" y="32.62" width="5.59" height="1.37" rx=".51" ry=".51" transform="rotate(-45 75.361 33.294)"/><rect class="cls-6" x="74.67" y="30.5" width="1.37" height="5.59" rx=".51" ry=".51" transform="rotate(-45 75.361 33.294)"/><rect class="cls-6" x="72.56" y="32.62" width="5.59" height="1.37" rx=".51" ry=".51" transform="rotate(-45 75.361 33.294)"/><rect class="cls-6" x="72.56" y="32.62" width="5.59" height="1.37" rx=".51" ry=".51" transform="rotate(-45 75.361 33.294)"/><rect class="cls-6" x="72.56" y="32.62" width="5.59" height="1.37" rx=".51" ry=".51" transform="rotate(-45 75.361 33.294)"/><rect class="cls-6" x="74.67" y="30.5" width="1.37" height="5.59" rx=".51" ry=".51" transform="rotate(-45 75.361 33.294)"/><rect class="cls-6" x="72.56" y="32.62" width="5.59" height="1.37" rx=".51" ry=".51" transform="rotate(-45 75.361 33.294)"/><rect class="cls-6" x="72.56" y="32.62" width="5.59" height="1.37" rx=".51" ry=".51" transform="rotate(-45 75.361 33.294)"/><rect class="cls-6" x="72.56" y="32.62" width="5.59" height="1.37" rx=".51" ry=".51" transform="rotate(-45 75.361 33.294)"/><rect class="cls-6" x="19.1" y="63.13" width="1.74" height="7.1" rx=".51" ry=".51" transform="rotate(-45 19.957 66.674)"/><rect class="cls-6" x="16.41" y="65.81" width="7.1" height="1.74" rx=".51" ry=".51" transform="rotate(-45 19.957 66.674)"/><rect class="cls-6" x="16.41" y="65.81" width="7.1" height="1.74" rx=".51" ry=".51" transform="rotate(-45 19.957 66.674)"/><rect class="cls-6" x="16.41" y="65.81" width="7.1" height="1.74" rx=".51" ry=".51" transform="rotate(-45 19.957 66.674)"/><rect class="cls-6" x="19.1" y="63.13" width="1.74" height="7.1" rx=".51" ry=".51" transform="rotate(-45 19.957 66.674)"/><rect class="cls-6" x="16.41" y="65.81" width="7.1" height="1.74" rx=".51" ry=".51" transform="rotate(-45 19.957 66.674)"/><rect class="cls-6" x="16.41" y="65.81" width="7.1" height="1.74" rx=".51" ry=".51" transform="rotate(-45 19.957 66.674)"/><rect class="cls-6" x="16.41" y="65.81" width="7.1" height="1.74" rx=".51" ry=".51" transform="rotate(-45 19.957 66.674)"/><rect class="cls-6" x="19.1" y="63.13" width="1.74" height="7.1" rx=".51" ry=".51" transform="rotate(-45 19.957 66.674)"/><rect class="cls-6" x="16.41" y="65.81" width="7.1" height="1.74" rx=".51" ry=".51" transform="rotate(-45 19.957 66.674)"/><rect class="cls-6" x="16.41" y="65.81" width="7.1" height="1.74" rx=".51" ry=".51" transform="rotate(-45 19.957 66.674)"/><rect class="cls-6" x="16.41" y="65.81" width="7.1" height="1.74" rx=".51" ry=".51" transform="rotate(-45 19.957 66.674)"/><circle class="cls-6" cx="60.73" cy="56.22" r="10.41"/><circle class="cls-6" cx="60.73" cy="56.22" r="8.51"/><g id="BUuG4a"><path class="cls-6" d="M57.58 57.34c.22-.21.44-.42.66-.64.23-.24.45-.49.67-.73l.05.03s-.07-.08-.1-.12c-.57-.6-1.14-1.19-1.71-1.79-.4-.42-.39-.97.02-1.37.12-.12.24-.23.36-.34.38-.35.94-.34 1.3.03.59.61 1.18 1.22 1.76 1.84.03.03.05.07.09.11.11-.1.19-.18.28-.27l1.74-1.68c.43-.42.98-.41 1.4.02.1.11.21.21.31.32.37.39.37.95-.02 1.33-.65.63-1.3 1.26-1.95 1.88-.03.03-.07.06-.11.09l.21.25-.06.03c-.43.12-.86.24-1.29.35-.6.15-1.19.3-1.79.43-.48.1-.96.17-1.44.25-.11.02-.23 0-.34 0Z"/><path class="cls-6" d="M57.58 57.34c.12 0 .23.02.34 0 .48-.08.96-.14 1.44-.25.6-.13 1.2-.28 1.79-.43.43-.11.86-.23 1.29-.35.02 0 .04-.02.06-.03h.02s.05.07.09.1c.63.66 1.25 1.31 1.88 1.96.43.44.42.99-.03 1.41-.1.09-.2.18-.29.28-.42.4-.97.39-1.37-.03-.72-.74-1.43-1.49-2.14-2.24-.02-.02-.03-.04-.06-.08-.18.18-.36.35-.53.51-.55.53-1.09 1.06-1.64 1.59-.42.41-.97.4-1.38-.03-.11-.11-.21-.22-.32-.33a.903.903 0 0 1 .02-1.31c.25-.25.5-.49.76-.74l.06-.05Z"/></g><circle cx="45.78" cy="45.78" r="45.78" style="fill:#fbe0dd"/><path style="fill:#e6b15f" d="m42.26 63.16-22.3-6.96V28.14l22.3 6.81v28.21z"/><path style="fill:#e08e26" d="m63.38 56.21-21.12 6.9V35.04l21.12-6.9v28.07z"/><path style="fill:#f2c68a" d="m42.26 35.04-22.3-6.96 22.3-7.62 21.12 7.68-21.12 6.9z"/><path style="fill:#f9d49d" d="m55.77 36.3-4.7 1.35.06-5.72 4.64-1.34v5.71z"/><path style="fill:#faf0e1" d="m50.9 32.18-20.58-7.67 4.75-1.62 20.7 7.69-4.87 1.6z"/><rect class="cls-2" x="57.8" y="72.85" width="1.02" height="4.16" rx=".51" ry=".51" transform="rotate(-45 58.315 74.925)"/><rect class="cls-2" x="56.23" y="74.42" width="4.16" height="1.02" rx=".51" ry=".51" transform="rotate(-45 58.315 74.925)"/><rect class="cls-2" x="22.25" y="16.16" width="1.02" height="4.16" rx=".51" ry=".51" transform="rotate(-45 22.765 18.24)"/><rect class="cls-2" x="20.68" y="17.73" width="4.16" height="1.02" rx=".51" ry=".51" transform="rotate(-45 22.765 18.24)"/><rect class="cls-2" x="74.67" y="30.5" width="1.37" height="5.59" rx=".51" ry=".51" transform="rotate(-45 75.361 33.294)"/><rect class="cls-2" x="72.56" y="32.62" width="5.59" height="1.37" rx=".51" ry=".51" transform="rotate(-45 75.361 33.294)"/><rect class="cls-2" x="19.1" y="63.13" width="1.74" height="7.1" rx=".51" ry=".51" transform="rotate(-45 19.957 66.674)"/><rect class="cls-2" x="16.41" y="65.81" width="7.1" height="1.74" rx=".51" ry=".51" transform="rotate(-45 19.957 66.674)"/><circle cx="60.73" cy="56.22" r="10.41" style="fill:#e12928"/><circle cx="60.73" cy="56.22" r="8.51" style="fill:#fff"/><g id="BUuG4a-2"><path d="M57.58 57.34c.22-.21.44-.42.66-.64.23-.24.45-.49.67-.73l.05.03s-.07-.08-.1-.12c-.57-.6-1.14-1.19-1.71-1.79-.4-.42-.39-.97.02-1.37.12-.12.24-.23.36-.34.38-.35.94-.34 1.3.03.59.61 1.18 1.22 1.76 1.84.03.03.05.07.09.11.11-.1.19-.18.28-.27l1.74-1.68c.43-.42.98-.41 1.4.02.1.11.21.21.31.32.37.39.37.95-.02 1.33-.65.63-1.3 1.26-1.95 1.88-.03.03-.07.06-.11.09l.21.25-.06.03c-.43.12-.86.24-1.29.35-.6.15-1.19.3-1.79.43-.48.1-.96.17-1.44.25-.11.02-.23 0-.34 0Z" style="fill:#020202"/><path d="M57.58 57.34c.12 0 .23.02.34 0 .48-.08.96-.14 1.44-.25.6-.13 1.2-.28 1.79-.43.43-.11.86-.23 1.29-.35.02 0 .04-.02.06-.03h.02s.05.07.09.1c.63.66 1.25 1.31 1.88 1.96.43.44.42.99-.03 1.41-.1.09-.2.18-.29.28-.42.4-.97.39-1.37-.03-.72-.74-1.43-1.49-2.14-2.24-.02-.02-.03-.04-.06-.08-.18.18-.36.35-.53.51-.55.53-1.09 1.06-1.64 1.59-.42.41-.97.4-1.38-.03-.11-.11-.21-.22-.32-.33a.903.903 0 0 1 .02-1.31c.25-.25.5-.49.76-.74l.06-.05Z" style="fill:#070808"/></g></g></svg>
