<?xml version="1.0" encoding="UTF-8"?>
<svg width="195px" height="242px" viewBox="0 0 195 242" version="1.1" xmlns="http://www.w3.org/2000/svg"
    xmlns:xlink="http://www.w3.org/1999/xlink">
    <title>Icon/Pin/Entrance/Selected Copy</title>
    <defs>
        <filter x="-6.8%" y="-5.4%" width="113.6%" height="110.7%" filterUnits="objectBoundingBox" id="filter-1">
            <feOffset dx="0" dy="2" in="SourceAlpha" result="shadowOffsetOuter1"></feOffset>
            <feGaussianBlur stdDeviation="2" in="shadowOffsetOuter1" result="shadowBlurOuter1"></feGaussianBlur>
            <feColorMatrix values="0 0 0 0 0   0 0 0 0 0   0 0 0 0 0  0 0 0 0.5 0" type="matrix" in="shadowBlurOuter1"
                result="shadowMatrixOuter1"></feColorMatrix>
            <feMerge>
                <feMergeNode in="shadowMatrixOuter1"></feMergeNode>
                <feMergeNode in="SourceGraphic"></feMergeNode>
            </feMerge>
        </filter>
        <polygon id="path-2" points="0 0 25.0909091 0 25.0909091 62.8571429 0 62.8571429"></polygon>
        <polygon id="path-4" points="0 0 25.0909091 0 25.0909091 9.42857143 0 9.42857143"></polygon>
    </defs>
    <g id="v-2.0-" stroke="none" stroke-width="1" fill="none" fill-rule="evenodd">
        <g id="Icon/Pin/Entrance/Selected-Copy" filter="url(#filter-1)" transform="translate(9.000000, 9.000000)">
            <g id="Group-10">
                <path
                    d="M88.5,0 C137.3772,0 177,38.6653363 177,86.3614458 C177,108.827637 168.209003,129.290196 153.800675,144.652146 L89.8828125,224 L85.734375,224 L23.7614202,145.245875 C9.01995961,129.819384 0,109.118323 0,86.3614458 C0,38.6653363 39.6227996,0 88.5,0 Z"
                    id="Combined-Shape" fill="#4DBA78"></path>
                <ellipse id="Oval" fill="#FFFFFF" cx="88.9392361" cy="83.7" rx="62.9947917" ry="61.5"></ellipse>
            </g>
            <g id="Group-13" transform="translate(45.000000, 53.000000)">
                <g id="Group-3" transform="translate(43.909091, 0.000000)">
                    <mask id="mask-3" fill="white">
                        <use xlink:href="#path-2"></use>
                    </mask>
                    <g id="Clip-2"></g>
                    <path
                        d="M11.4183301,31.3791462 C11.3901078,29.7387021 9.8209475,28.2835573 8.13889798,28.3380571 C6.39475939,28.3871069 4.99493295,29.8422517 5.06266649,31.5371956 C5.12475556,33.1721897 6.54715985,34.5074349 8.22356491,34.5020015 C9.92254781,34.4965349 11.4465524,33.0086903 11.4183301,31.3791462 L11.4183301,31.3791462 Z M1.326033,62.8582329 C0.885765006,61.6755871 0.0616736325,60.4929414 0.056029171,59.3102956 C-0.0229932895,40.7258625 -0.000415443617,22.1414294 0.0165179408,3.55699631 C0.0165179408,2.8375989 0.112473786,2.09095159 0.343896706,1.40970404 C0.733364546,0.248858219 1.59696715,-0.219840094 2.8782599,0.0962587682 C9.58388012,1.7530528 16.3007893,3.34444708 22.9725427,5.12114068 C23.8135675,5.34458988 24.394947,6.49453574 25.0948602,7.21938313 L25.0948602,55.6261089 C24.5473475,57.1848033 23.3507216,57.822451 21.7364056,58.1276499 C19.4616877,58.5636483 17.215192,59.1631462 14.9686964,59.7408441 C10.9611287,60.7599904 6.95920554,61.8172866 2.95728236,62.8582329 L1.326033,62.8582329 Z"
                        id="Fill-1" fill="#27D07C" mask="url(#mask-3)"></path>
                </g>
                <g id="Group-6" transform="translate(43.909091, 56.571429)">
                    <mask id="mask-5" fill="white">
                        <use xlink:href="#path-4"></use>
                    </mask>
                    <g id="Clip-5"></g>
                    <path
                        d="M0,9.42857143 C4.53627462,8.0714824 9.07254924,6.69307783 13.6216201,5.36440952 C16.161678,4.61836581 18.708134,3.82969103 21.2865806,3.26838196 C23.116446,2.8633868 24.4792478,2.03208096 25.0934683,0 L25.0934683,9.42857143 L0,9.42857143 Z"
                        id="Fill-4" fill="#27D07C" mask="url(#mask-5)"></path>
                </g>
                <path
                    d="M28.6350591,28.5154521 C25.1039095,24.7299567 21.8983668,21.3104126 18.7265075,17.8608724 C18.2493251,17.3449412 17.7440732,16.7270235 17.5644281,16.0551131 C17.2388213,14.8612723 17.5756559,13.7574194 18.6254571,13.0495138 C19.7987644,12.2636186 20.9159325,12.4735906 21.8646833,13.4814562 C26.8442217,18.7547532 31.8237601,24.0400487 36.7640011,29.3553401 C37.9429222,30.6211714 37.9204666,32.0549802 36.7359315,33.3448083 C31.8125323,38.6840965 26.8666773,43.999388 21.9039807,49.2966818 C20.6913761,50.592509 19.0577282,50.592509 18.0359965,49.4286642 C16.9637397,48.2228249 17.0591762,46.6990281 18.3503755,45.3012144 C21.3425897,42.0556471 24.3572595,38.8400757 27.3607014,35.6005076 C27.7199917,35.2165588 28.0512124,34.7966147 28.6575147,34.0827099 C27.6975361,34.0827099 27.1249172,34.0827099 26.5579123,34.0827099 C19.0015891,34.0827099 11.4452659,34.0827099 3.89455668,34.0767107 C3.29948219,34.0767107 2.6987938,34.0887091 2.12056104,33.9927219 C0.913570343,33.7887491 0.194989833,32.9788571 0.0321864362,31.7010274 C-0.141844781,30.3452082 0.391476691,29.2953481 1.59285348,28.8154121 C2.22722534,28.5634457 2.96264758,28.5274505 3.65315854,28.5274505 C11.2600069,28.5094529 18.8668553,28.5154521 26.4737036,28.5154521 C27.0519364,28.5154521 27.6301691,28.5154521 28.6350591,28.5154521"
                    id="Fill-7" fill="#27D07C"></path>
                <path
                    d="M33.4325953,44 L33.4325953,58.2259383 L37.6363636,58.2259383 L37.6363636,62.8007545 C35.5401911,62.8007545 33.5125583,62.9542718 31.524907,62.7546993 C29.5886604,62.560244 28.2806944,61.0046018 28.2578479,59.1982147 C28.2064431,55.953882 28.2292897,52.7044321 28.2578479,49.4600994 C28.2578479,49.096775 28.3492341,48.6259886 28.606258,48.3854781 C30.0912849,46.9731188 31.6391398,45.6170491 33.4325953,44"
                    id="Fill-9" fill="#27D07C"></path>
                <path
                    d="M37.6363636,3.15060346 L37.6363636,7.76834765 L33.5436559,7.76834765 L33.5436559,22 C31.6056048,20.2562007 29.9981625,18.8499109 28.459122,17.3873696 C28.2197157,17.1572495 28.2482164,16.6509851 28.2482164,16.2725653 C28.231116,13.2298657 28.2140155,10.187166 28.2425163,7.14446637 C28.2653169,4.73587555 29.9753619,3.19662749 32.6430321,3.15571724 C34.2732751,3.13014834 35.8978179,3.15060346 37.6363636,3.15060346"
                    id="Fill-11" fill="#27D07C"></path>
            </g>
        </g>
    </g>
</svg>
