<svg xmlns="http://www.w3.org/2000/svg" width="168" height="224" viewBox="0 0 21 28">
    <g fill="none" fill-rule="evenodd">
        <path fill="#4DBA78" d="M21 10.36C21 4.637 16.299 0 10.5 0 4.7 0 0 4.638 0 10.36c0 2.297.626 4.42 1.91 6.138L10.548 28l8.12-11.136A10.227 10.227 0 0 0 21 10.36"/>
        <path fill="#FEFEFE" d="M18 10.5a7.5 7.5 0 1 1-15 0 7.5 7.5 0 0 1 15 0"/>
        <path fill="#4DBA78" d="M7 13.66V11.08c0-.089.034-.174.096-.236l2.683-2.745a.321.321 0 0 1 .461 0l2.664 2.725a.339.339 0 0 1 .096.237v2.606a.33.33 0 0 1-.327.334h-1.366a.33.33 0 0 1-.326-.334v-1.65a.33.33 0 0 0-.326-.335h-1.08a.33.33 0 0 0-.327.334l.002 1.642a.33.33 0 0 1-.326.334l-1.597.003A.33.33 0 0 1 7 13.66"/>
        <path fill="#4DBA78" d="M10.138 6.843a.096.096 0 0 0-.13-.002c-2.19 2.114-3.308 3.17-3.352 3.17-.068 0-.327.028-.516-.132s-.099-.531-.099-.531l3.552-3.302A.177.177 0 0 1 9.713 6h.651c.022 0 .044.008.062.022l1.358 1.334.034-.924c0-.05.042-.09.095-.09h.724c.051 0 .07.04.07.09v1.623c0 .023.017.115.034.131l1.195 1.315s.08.197-.078.378c-.157.181-.599.11-.599.11l-3.121-3.146z"/>
    </g>
</svg>
