<svg xmlns="http://www.w3.org/2000/svg" width="24" height="24" viewBox="0 0 24 24">
    <g fill="#FFF" fill-rule="evenodd">
        <path d="M.5 6c.276 0 .5-.224.5-.5V1h4.5c.276 0 .5-.224.5-.5S5.776 0 5.5 0h-5C.224 0 0 .224 0 .5v5c0 .276.224.5.5.5zM23.5 0h-5c-.276 0-.5.224-.5.5s.224.5.5.5H23v4.5c0 .276.224.5.5.5s.5-.224.5-.5v-5c0-.276-.224-.5-.5-.5zM23.5 18c-.276 0-.5.224-.5.5V23h-4.5c-.276 0-.5.224-.5.5s.224.5.5.5h5c.276 0 .5-.224.5-.5v-5c0-.276-.224-.5-.5-.5zM.5 24h5c.276 0 .5-.224.5-.5s-.224-.5-.5-.5H1v-4.5c0-.276-.224-.5-.5-.5s-.5.224-.5.5v5c0 .276.224.5.5.5zM19.875 6H4.125C3.505 6 3 6.505 3 7.125v9.75C3 17.495 3.505 18 4.125 18h15.75c.62 0 1.125-.505 1.125-1.125v-9.75C21 6.505 20.495 6 19.875 6zM3.75 9h16.5v1.5H3.75V9zm.375-2.25h15.75c.207 0 .375.168.375.375V8.25H3.75V7.125c0-.207.168-.375.375-.375zm15.75 10.5H4.125c-.207 0-.375-.168-.375-.375V11.25h16.5v5.625c0 .207-.168.375-.375.375z"/>
        <path d="M18.667 15h-1.334c-.184 0-.333.224-.333.5s.15.5.333.5h1.334c.184 0 .333-.224.333-.5s-.15-.5-.333-.5zM15.667 15h-1.334c-.184 0-.333.224-.333.5s.15.5.333.5h1.334c.184 0 .333-.224.333-.5s-.15-.5-.333-.5zM12.667 15h-1.334c-.184 0-.333.224-.333.5s.15.5.333.5h1.334c.184 0 .333-.224.333-.5s-.15-.5-.333-.5zM9.667 15H8.333c-.184 0-.333.224-.333.5s.15.5.333.5h1.334c.184 0 .333-.224.333-.5s-.15-.5-.333-.5z"/>
    </g>
</svg>
