<?xml version="1.0" encoding="iso-8859-1"?>
<!-- Generator: Adobe Illustrator 19.0.0, SVG Export Plug-In . SVG Version: 6.00 Build 0)  -->
<svg version="1.1" width="800px" height="800px" xmlns="http://www.w3.org/2000/svg" xmlns:xlink="http://www.w3.org/1999/xlink" x="0px" y="0px"
	 viewBox="0 0 1600 1600" xml:space="preserve">
	<style>
    .huge { font: bold 52px sans-serif; text-align: 'center'; }
  	.big { font: bold 160px sans-serif; text-align: 'center'; }
    .small { font: bold 45px sans-serif; text-align: 'center'; }
	</style>
	<g transform="translate(0 0)">
		<circle cx='160' cy='160' fill='#3be235' r='156' stroke='#082B33' stroke-width='8' />
		<path style="fill:#082B33;" d="M160,420 L32.5 258.5 L288 258.5 Z "/>
		<path style="fill:#3be235;" d="M160,405 L39.5 255 L280.5 255 Z "/>
		<circle cx='160' cy='160' fill='#fff' r='126' stroke='#082B33' stroke-width='8' />
	</g>
	<g transform="translate(320 0)">
		<circle cx='160' cy='160' fill='#eb3223' r='156' stroke='#082B33' stroke-width='8' />
		<path style="fill:#082B33;" d="M160,420 L32.5 258.5 L288 258.5 Z "/>
		<path style="fill:#eb3223;" d="M160,405 L39.5 255 L280.5 255 Z "/>
		<circle cx='160' cy='160' fill='#fff' r='126' stroke='#082B33' stroke-width='8' />
	</g>
	<g transform="translate(640 0)">
		<circle cx='160' cy='160' fill='#fdbd39' r='156' stroke='#082B33' stroke-width='8' />
		<path style="fill:#082B33;" d="M160,420 L32.5 258.5 L288 258.5 Z "/>
		<path style="fill:#fdbd39;" d="M160,405 L39.5 255 L280.5 255 Z "/>
		<circle cx='160' cy='160' fill='#fff' r='126' stroke='#082B33' stroke-width='8' />
	</g>
	<g transform="translate(960 0)">
		<circle cx='160' cy='160' fill='#a5ccec' r='156' stroke='#082B33' stroke-width='8' />
		<path style="fill:#082B33;" d="M160,420 L32.5 258.5 L288 258.5 Z "/>
		<path style="fill:#a5ccec;" d="M160,405 L39.5 255 L280.5 255 Z "/>
		<circle cx='160' cy='160' fill='#fff' r='126' stroke='#082B33' stroke-width='8' />
	</g>
	<g transform="translate(1280 0)">
		<circle cx='160' cy='160' fill='#8447f6' r='156' stroke='#082B33' stroke-width='8' />
		<path style="fill:#082B33;" d="M160,420 L32.5 258.5 L288 258.5 Z "/>
		<path style="fill:#8447f6;" d="M160,405 L39.5 255 L280.5 255 Z "/>
		<circle cx='160' cy='160' fill='#fff' r='126' stroke='#082B33' stroke-width='8' />
	</g>

	<g transform="translate(960 350)">
		<circle cx='160' cy='160' fill='#4ab9ff' r='45' stroke='#082B33' stroke-width='4' />
	</g>

	<g transform="translate(1280 350)">
		<circle cx='160' cy='160' fill='#fdbd39' r='45' stroke='#082B33' stroke-width='4' />
	</g>

	<g transform="translate(-40 500)">
		<text x="80" y="20" text-anchor="middle" class="huge">0</text>
		<text x="160" y="20" text-anchor="middle" class="huge">1</text>
		<text x="240" y="20" text-anchor="middle" class="huge">2</text>
		<text x="320" y="20" text-anchor="middle" class="huge">3</text>
		<text x="400" y="20" text-anchor="middle" class="huge">4</text>
		<text x="480" y="20" text-anchor="middle" class="huge">5</text>
		<text x="560" y="20" text-anchor="middle" class="huge">6</text>
		<text x="640" y="20" text-anchor="middle" class="huge">7</text>
		<text x="720" y="20" text-anchor="middle" class="huge">8</text>
		<text x="800" y="20" text-anchor="middle" class="huge">9</text>

		<text x="80"  y="100" text-anchor="middle" class="huge">10</text>
		<text x="160" y="100" text-anchor="middle" class="huge">11</text>
		<text x="240" y="100" text-anchor="middle" class="huge">12</text>
		<text x="320" y="100" text-anchor="middle" class="huge">13</text>
		<text x="400" y="100" text-anchor="middle" class="huge">14</text>
		<text x="480" y="100" text-anchor="middle" class="huge">15</text>
		<text x="560" y="100" text-anchor="middle" class="huge">16</text>
		<text x="640" y="100" text-anchor="middle" class="huge">17</text>
		<text x="720" y="100" text-anchor="middle" class="huge">18</text>
		<text x="800" y="100" text-anchor="middle" class="huge">19</text>

		<text x="80"  y="180" text-anchor="middle" class="huge">20</text>
		<text x="160" y="180" text-anchor="middle" class="huge">21</text>
		<text x="240" y="180" text-anchor="middle" class="huge">22</text>
		<text x="320" y="180" text-anchor="middle" class="huge">23</text>
		<text x="400" y="180" text-anchor="middle" class="huge">24</text>
		<text x="480" y="180" text-anchor="middle" class="huge">25</text>
		<text x="560" y="180" text-anchor="middle" class="huge">26</text>
		<text x="640" y="180" text-anchor="middle" class="huge">27</text>
		<text x="720" y="180" text-anchor="middle" class="huge">28</text>
		<text x="800" y="180" text-anchor="middle" class="huge">29</text>

		<text x="80"  y="260" text-anchor="middle" class="huge">30</text>
		<text x="160" y="260" text-anchor="middle" class="huge">31</text>
		<text x="240" y="260" text-anchor="middle" class="huge">32</text>
		<text x="320" y="260" text-anchor="middle" class="huge">33</text>
		<text x="400" y="260" text-anchor="middle" class="huge">34</text>
		<text x="480" y="260" text-anchor="middle" class="huge">35</text>
		<text x="560" y="260" text-anchor="middle" class="huge">36</text>
		<text x="640" y="260" text-anchor="middle" class="huge">37</text>
		<text x="720" y="260" text-anchor="middle" class="huge">38</text>
		<text x="800" y="260" text-anchor="middle" class="huge">39</text>

		<text x="80"  y="340" text-anchor="middle" class="huge">40</text>
		<text x="160" y="340" text-anchor="middle" class="huge">41</text>
		<text x="240" y="340" text-anchor="middle" class="huge">42</text>
		<text x="320" y="340" text-anchor="middle" class="huge">43</text>
		<text x="400" y="340" text-anchor="middle" class="huge">44</text>
		<text x="480" y="340" text-anchor="middle" class="huge">45</text>
		<text x="560" y="340" text-anchor="middle" class="huge">46</text>
		<text x="640" y="340" text-anchor="middle" class="huge">47</text>
		<text x="720" y="340" text-anchor="middle" class="huge">48</text>
		<text x="800" y="340" text-anchor="middle" class="huge">49</text>

		<text x="80"  y="420" text-anchor="middle" class="huge">50</text>
		<text x="160" y="420" text-anchor="middle" class="huge">51</text>
		<text x="240" y="420" text-anchor="middle" class="huge">52</text>
		<text x="320" y="420" text-anchor="middle" class="huge">53</text>
		<text x="400" y="420" text-anchor="middle" class="huge">54</text>
		<text x="480" y="420" text-anchor="middle" class="huge">55</text>
		<text x="560" y="420" text-anchor="middle" class="huge">56</text>
		<text x="640" y="420" text-anchor="middle" class="huge">57</text>
		<text x="720" y="420" text-anchor="middle" class="huge">58</text>
		<text x="800" y="420" text-anchor="middle" class="huge">59</text>

		<text x="80"  y="500" text-anchor="middle" class="huge">60</text>
		<text x="160" y="500" text-anchor="middle" class="huge">61</text>
		<text x="240" y="500" text-anchor="middle" class="huge">62</text>
		<text x="320" y="500" text-anchor="middle" class="huge">63</text>
		<text x="400" y="500" text-anchor="middle" class="huge">64</text>
		<text x="480" y="500" text-anchor="middle" class="huge">65</text>
		<text x="560" y="500" text-anchor="middle" class="huge">66</text>
		<text x="640" y="500" text-anchor="middle" class="huge">67</text>
		<text x="720" y="500" text-anchor="middle" class="huge">68</text>
		<text x="800" y="500" text-anchor="middle" class="huge">69</text>

		<text x="80"  y="580" text-anchor="middle" class="huge">70</text>
		<text x="160" y="580" text-anchor="middle" class="huge">71</text>
		<text x="240" y="580" text-anchor="middle" class="huge">72</text>
		<text x="320" y="580" text-anchor="middle" class="huge">73</text>
		<text x="400" y="580" text-anchor="middle" class="huge">74</text>
		<text x="480" y="580" text-anchor="middle" class="huge">75</text>
		<text x="560" y="580" text-anchor="middle" class="huge">76</text>
		<text x="640" y="580" text-anchor="middle" class="huge">77</text>
		<text x="720" y="580" text-anchor="middle" class="huge">78</text>
		<text x="800" y="580" text-anchor="middle" class="huge">79</text>

		<text x="80"  y="660" text-anchor="middle" class="huge">80</text>
		<text x="160" y="660" text-anchor="middle" class="huge">81</text>
		<text x="240" y="660" text-anchor="middle" class="huge">82</text>
		<text x="320" y="660" text-anchor="middle" class="huge">83</text>
		<text x="400" y="660" text-anchor="middle" class="huge">84</text>
		<text x="480" y="660" text-anchor="middle" class="huge">85</text>
		<text x="560" y="660" text-anchor="middle" class="huge">86</text>
		<text x="640" y="660" text-anchor="middle" class="huge">87</text>
		<text x="720" y="660" text-anchor="middle" class="huge">88</text>
		<text x="800" y="660" text-anchor="middle" class="huge">89</text>

		<text x="80"  y="740" text-anchor="middle" class="huge">90</text>
		<text x="160" y="740" text-anchor="middle" class="huge">91</text>
		<text x="240" y="740" text-anchor="middle" class="huge">92</text>
		<text x="320" y="740" text-anchor="middle" class="huge">93</text>
		<text x="400" y="740" text-anchor="middle" class="huge">94</text>
		<text x="480" y="740" text-anchor="middle" class="huge">95</text>
		<text x="560" y="740" text-anchor="middle" class="huge">96</text>
		<text x="640" y="740" text-anchor="middle" class="huge">97</text>
		<text x="720" y="740" text-anchor="middle" class="huge">98</text>
		<text x="800" y="740" text-anchor="middle" class="huge">99</text>

		<text x="80"  y="820" text-anchor="middle" class="small">100</text>
		<text x="160" y="820" text-anchor="middle" class="small">101</text>
		<text x="240" y="820" text-anchor="middle" class="small">102</text>
		<text x="320" y="820" text-anchor="middle" class="small">103</text>
		<text x="400" y="820" text-anchor="middle" class="small">104</text>
		<text x="480" y="820" text-anchor="middle" class="small">105</text>
		<text x="560" y="820" text-anchor="middle" class="small">106</text>
		<text x="640" y="820" text-anchor="middle" class="small">107</text>
		<text x="720" y="820" text-anchor="middle" class="small">108</text>
		<text x="800" y="820" text-anchor="middle" class="small">109</text>

		<text x="80"  y="900" text-anchor="middle" class="small">110</text>
		<text x="160" y="900" text-anchor="middle" class="small">111</text>
		<text x="240" y="900" text-anchor="middle" class="small">112</text>
		<text x="320" y="900" text-anchor="middle" class="small">113</text>
		<text x="400" y="900" text-anchor="middle" class="small">114</text>
		<text x="480" y="900" text-anchor="middle" class="small">115</text>
		<text x="560" y="900" text-anchor="middle" class="small">116</text>
		<text x="640" y="900" text-anchor="middle" class="small">117</text>
		<text x="720" y="900" text-anchor="middle" class="small">118</text>
		<text x="800" y="900" text-anchor="middle" class="small">119</text>

		<text x="80"  y="980" text-anchor="middle" class="small">120</text>
		<text x="160" y="980" text-anchor="middle" class="small">121</text>
		<text x="240" y="980" text-anchor="middle" class="small">122</text>
		<text x="320" y="980" text-anchor="middle" class="small">123</text>
		<text x="400" y="980" text-anchor="middle" class="small">124</text>
		<text x="480" y="980" text-anchor="middle" class="small">125</text>
		<text x="560" y="980" text-anchor="middle" class="small">126</text>
		<text x="640" y="980" text-anchor="middle" class="small">127</text>
		<text x="720" y="980" text-anchor="middle" class="small">128</text>
		<text x="800" y="980" text-anchor="middle" class="small">129</text>
	</g>
</svg>
