<?xml version="1.0" encoding="UTF-8"?>
<svg width="47px" height="61px" viewBox="0 0 47 61" version="1.1" xmlns="http://www.w3.org/2000/svg" xmlns:xlink="http://www.w3.org/1999/xlink">
    <title>Group 11</title>
    <defs>
        <polygon id="path-1" points="2.45367508e-16 0 17 0 17 17 2.45367508e-16 17"></polygon>
    </defs>
    <g id="v-2.0-" stroke="none" stroke-width="1" fill="none" fill-rule="evenodd">
        <g id="3.-POD-shown" transform="translate(-947.000000, -961.000000)">
            <g id="Group-11" transform="translate(947.000000, 961.000000)">
                <g id="Group-10-Copy">
                    <path d="M23.5,0 C36.4786916,0 47,10.5293996 47,23.5180723 C47,29.6379427 44.6642591,35.2118521 40.8362652,39.3956639 L23.8671875,61 L22.765625,61 L6.31069901,39.5548192 C2.39560753,35.3537229 0,29.7158748 0,23.5180723 C0,10.5293996 10.5213084,0 23.5,0 Z" id="Combined-Shape" fill="#27D07C"></path>
                    <circle id="Oval" fill="#FFFFFF" cx="23.5" cy="23.5" r="17.5"></circle>
                </g>
                <g id="Group-10" transform="translate(15.000000, 15.000000)">
                    <polygon id="Fill-1" fill="#FEFEFE" points="0 17 17 17 17 0 0 0"></polygon>
                    <g id="Group-9">
                        <g id="Group-4">
                            <mask id="mask-2" fill="white">
                                <use xlink:href="#path-1"></use>
                            </mask>
                            <g id="Clip-3"></g>
                            <path d="M0.981272873,0.990121528 L0.981272873,13.5036439 C1.38184879,13.5036439 1.76750671,13.4879543 2.15095456,13.5092473 C2.41726848,13.5243765 2.55981825,13.4240755 2.69131766,13.1892929 C3.5642969,11.6304258 4.4538517,10.0810846 5.33843384,8.52894158 C5.41854902,8.38829614 5.50474191,8.25157307 5.61248302,8.07226414 C6.17770945,9.06126498 6.701497,9.97742158 7.25898818,10.9524139 C8.53972608,8.70432814 9.78620784,6.5178798 11.060868,4.28100083 C12.7521272,7.24856372 14.4107878,10.1600926 16.12028,13.1595948 L16.12028,0.990121528 L0.981272873,0.990121528 Z M2.45367508e-16,17.0001681 L17.000442,17.0001681 L17.000442,0 L2.45367508e-16,0 L2.45367508e-16,17.0001681 Z" id="Fill-2" fill="#27D07C" mask="url(#mask-2)"></path>
                        </g>
                        <path d="M4.04255693,5.28375967 C4.93100669,5.28877309 5.58739868,4.649985 5.59623897,3.7724919 C5.60507927,2.88939539 4.95255491,2.20634042 4.09283611,2.19849565 C3.21156909,2.19065088 2.55849221,2.83616305 2.55020443,3.72206126 C2.54191665,4.63261445 3.15963235,5.27868696 4.04255693,5.28375967 L4.04255693,5.28375967 Z M0.981051865,0.990401698 L16.120059,0.990401698 L16.120059,13.1593147 C14.4111193,10.1598124 12.7519062,7.24884389 11.0611996,4.281281 C9.78598683,6.51815997 8.54005759,8.70460831 7.25876717,10.9526941 C6.70127599,9.97714141 6.17748845,9.06098481 5.61226201,8.07198397 C5.5045209,8.2512929 5.41888053,8.38857631 5.33876535,8.52866141 C4.4536307,10.0808044 3.5640759,11.6301457 2.69109665,13.1890127 C2.55959725,13.4237954 2.41704747,13.5240963 2.15128607,13.5095274 C1.7672857,13.4876742 1.38162778,13.503924 0.981051865,13.503924 L0.981051865,0.990401698 Z" id="Fill-5" fill="#FEFEFE"></path>
                        <path d="M4.04255693,5.28375967 C3.15963235,5.27868696 2.54191665,4.63261445 2.55020443,3.72206126 C2.55849221,2.83616305 3.21156909,2.19065088 4.09283611,2.19849565 C4.95255491,2.20634042 5.60507927,2.88939539 5.59623897,3.7724919 C5.58739868,4.649985 4.93100669,5.28877309 4.04255693,5.28375967" id="Fill-7" fill="#27D07C"></path>
                    </g>
                </g>
            </g>
        </g>
    </g>
</svg>