<?xml version="1.0" standalone="no"?>
<!DOCTYPE svg PUBLIC "-//W3C//DTD SVG 1.1//EN" "http://www.w3.org/Graphics/SVG/1.1/DTD/svg11.dtd" >
<svg xmlns="http://www.w3.org/2000/svg" xmlns:xlink="http://www.w3.org/1999/xlink" version="1.1">
<metadata>
Created by FontForge 20190801 at Fri Jan  4 20:26:09 2013
 By Jimmy Wärting
Copyright (c) 2012 by Rui Abreu, Portugal. All rights reserved.
</metadata>
<defs>
<font id="AzoSans-Medium" horiz-adv-x="518" >
  <font-face 
    font-family="Azo Sans Md"
    font-weight="500"
    font-stretch="normal"
    units-per-em="1000"
    panose-1="2 0 0 0 0 0 0 0 0 0"
    ascent="772"
    descent="-228"
    x-height="492"
    cap-height="724"
    bbox="-102 -272 1300 1016"
    underline-thickness="50"
    underline-position="-120"
    stemh="113"
    stemv="121"
    unicode-range="U+000D-FB02"
  />
<missing-glyph horiz-adv-x="646" 
d="M151 604l131 131l213 -212l-101 -101l101 -100l-101 -101l101 -100l-132 -132l-212 213l100 100l-100 101l100 100z" />
    <glyph glyph-name="fi" unicode="fi" horiz-adv-x="621" 
d="M97 0v389h-74v103h74v84c0 66 12 121 48 156c33 32 82 43 127 43c28 0 57 -4 79 -12v-102c-19 5 -50 9 -68 9c-54 0 -65 -36 -65 -83v-95h120v-103h-120v-389h-121zM429 0v492h121v-492h-121zM414 655c0 41 34 75 76 75c41 0 75 -34 75 -75s-34 -75 -76 -75
c-41 0 -75 34 -75 75z" />
    <glyph glyph-name="fl" unicode="fl" horiz-adv-x="621" 
d="M97 0v389h-74v103h74v84c0 66 12 121 48 156c33 32 82 43 127 43c28 0 57 -4 79 -12v-102c-19 5 -50 9 -68 9c-54 0 -65 -36 -65 -83v-95h120v-103h-120v-389h-121zM429 0v764h121v-764h-121z" />
    <glyph glyph-name=".notdef" horiz-adv-x="646" 
d="M151 604l131 131l213 -212l-101 -101l101 -100l-101 -101l101 -100l-132 -132l-212 213l100 100l-100 101l100 100z" />
    <glyph glyph-name=".null" horiz-adv-x="1" 
 />
    <glyph glyph-name=".null" horiz-adv-x="1" 
 />
    <glyph glyph-name="CR" unicode="&#xd;" horiz-adv-x="353" 
 />
    <glyph glyph-name="space" unicode=" " horiz-adv-x="240" 
 />
    <glyph glyph-name="a" unicode="a" horiz-adv-x="533" 
d="M206 -11c-40 0 -81 9 -114 33c-34 25 -55 64 -55 113c0 54 26 94 63 119s87 34 138 34c34 0 65 -4 95 -11v29c0 30 -8 52 -24 67c-18 16 -46 24 -83 24c-59 0 -110 -20 -148 -44v110c39 22 96 40 166 40c64 0 121 -15 158 -46c33 -28 52 -70 52 -131v-189
c0 -27 10 -46 34 -46c9 0 19 3 27 7v-95c-15 -7 -36 -12 -60 -12c-40 0 -78 14 -101 45h-2c-30 -24 -81 -47 -146 -47zM236 85c37 0 73 13 97 30v83c-22 6 -52 10 -76 10c-50 0 -99 -16 -99 -64c0 -40 35 -59 78 -59z" />
    <glyph glyph-name="b" unicode="b" horiz-adv-x="600" 
d="M71 -3v767h121v-297l2 -1c31 20 77 37 130 37c128 0 236 -98 236 -249c0 -154 -111 -265 -263 -265c-47 0 -87 11 -123 26zM192 116c26 -15 66 -26 101 -26c91 0 145 71 145 158c0 86 -53 151 -140 151c-42 0 -78 -15 -106 -35v-248z" />
    <glyph glyph-name="c" unicode="c" horiz-adv-x="512" 
d="M465 144v-118c-45 -25 -102 -37 -154 -37c-158 0 -272 108 -272 255c0 154 124 259 278 259c53 0 102 -13 140 -32v-118c-43 28 -91 45 -138 45c-95 0 -158 -67 -158 -153c0 -88 66 -150 160 -150c52 0 105 18 144 49z" />
    <glyph glyph-name="d" unicode="d" horiz-adv-x="602" 
d="M42 237c0 153 109 266 260 266c43 0 77 -9 106 -22l2 1v282h121v-764h-120v28l-2 1c-33 -23 -78 -40 -131 -40c-129 0 -236 97 -236 248zM164 243c0 -85 51 -152 139 -152c41 0 78 15 107 34v250c-28 14 -63 25 -100 25c-92 0 -146 -69 -146 -157z" />
    <glyph glyph-name="e" unicode="e" horiz-adv-x="566" 
d="M518 213h-355c15 -82 80 -124 163 -124c62 0 120 23 168 57v-111c-46 -29 -116 -46 -180 -46c-158 0 -274 102 -274 256c0 156 117 258 251 258c122 0 230 -83 230 -241c0 -16 -1 -36 -3 -49zM290 405c-56 0 -112 -34 -127 -108h245c-9 74 -63 108 -118 108z" />
    <glyph glyph-name="f" unicode="f" horiz-adv-x="358" 
d="M97 0v389h-74v103h74v84c0 66 12 121 48 156c33 32 82 43 127 43c28 0 57 -4 79 -12v-102c-19 5 -50 9 -68 9c-54 0 -65 -36 -65 -83v-95h120v-103h-120v-389h-121z" />
    <glyph glyph-name="g" unicode="g" horiz-adv-x="597" 
d="M107 -195v120c48 -31 104 -50 158 -50c84 0 139 47 139 130v31l-2 2c-32 -23 -79 -36 -125 -36c-127 0 -235 97 -235 243c0 142 99 258 255 258c49 0 90 -11 124 -28l104 18v-487c0 -149 -102 -237 -256 -237c-62 0 -120 15 -162 36zM164 251c0 -85 55 -148 139 -148
c36 0 75 12 101 31v238c-26 15 -64 26 -101 26c-88 0 -139 -67 -139 -147z" />
    <glyph glyph-name="h" unicode="h" horiz-adv-x="596" 
d="M71 0v764h121v-325l2 -1c40 37 96 65 161 65c53 0 99 -18 130 -52c29 -31 42 -72 42 -145v-306h-121v285c0 46 -6 68 -20 84c-16 19 -38 27 -64 27c-49 0 -98 -28 -130 -62v-334h-121z" />
    <glyph glyph-name="i" unicode="i" horiz-adv-x="263" 
d="M71 0v492h121v-492h-121zM56 655c0 41 34 75 76 75c41 0 75 -34 75 -75s-34 -75 -76 -75c-41 0 -75 34 -75 75z" />
    <glyph glyph-name="j" unicode="j" horiz-adv-x="265" 
d="M73 -40v532h121v-525c0 -82 -15 -122 -39 -148c-34 -37 -87 -50 -135 -50c-26 0 -49 3 -65 8v103c18 -4 38 -6 54 -6c55 0 64 33 64 86zM58 655c0 41 34 75 76 75c41 0 75 -34 75 -75s-34 -75 -76 -75c-41 0 -75 34 -75 75z" />
    <glyph glyph-name="k" unicode="k" horiz-adv-x="555" 
d="M71 0v764h121v-484l2 -1l196 213h144l-206 -220l225 -272h-149l-210 259l-2 -1v-258h-121z" />
    <glyph glyph-name="l" unicode="l" horiz-adv-x="263" 
d="M71 0v764h121v-764h-121z" />
    <glyph glyph-name="m" unicode="m" horiz-adv-x="917" 
d="M727 0v288c0 42 -7 65 -22 82c-16 18 -37 26 -63 26c-46 0 -93 -27 -123 -58c1 -9 1 -19 1 -30v-308h-121v288c0 43 -5 65 -20 82c-17 19 -40 26 -64 26c-46 0 -93 -28 -123 -59v-337h-121v492h120v-52l2 -1c40 37 94 64 157 64c58 0 118 -23 147 -77
c55 51 116 77 180 77c54 0 98 -18 128 -50c30 -33 43 -76 43 -145v-308h-121z" />
    <glyph glyph-name="n" unicode="n" horiz-adv-x="596" 
d="M71 0v492h120v-53l2 -1c41 37 97 65 162 65c53 0 99 -18 130 -52c29 -31 42 -72 42 -145v-306h-121v285c0 44 -6 68 -20 84c-15 18 -37 27 -65 27c-48 0 -98 -28 -129 -62v-334h-121z" />
    <glyph glyph-name="p" unicode="p" horiz-adv-x="600" 
d="M192 11v-231h-121v712h120v-28l2 -1c33 23 77 40 131 40c129 0 235 -101 235 -254c0 -158 -114 -260 -257 -260c-44 0 -81 10 -108 23zM192 117c25 -14 62 -27 102 -27c88 0 143 65 143 152s-54 157 -140 157c-38 0 -76 -13 -105 -36v-246z" />
    <glyph glyph-name="q" unicode="q" horiz-adv-x="602" 
d="M42 241c0 155 112 262 260 262c47 0 89 -11 128 -30l101 18v-711h-121v243l-2 1c-31 -19 -73 -35 -126 -35c-132 0 -240 100 -240 252zM164 245c0 -85 53 -155 141 -155c36 0 76 12 105 34v249c-27 14 -64 27 -103 27c-89 0 -143 -69 -143 -155z" />
    <glyph glyph-name="r" unicode="r" horiz-adv-x="384" 
d="M71 0v492h120v-69l2 -1c34 48 85 75 143 75c11 0 22 -1 33 -4v-116c-12 3 -24 5 -40 5c-57 0 -103 -25 -137 -73v-309h-121z" />
    <glyph glyph-name="s" unicode="s" horiz-adv-x="503" 
d="M61 27v115c60 -36 135 -54 189 -54c55 0 90 17 90 52c0 50 -63 48 -138 63c-94 20 -159 54 -159 143c1 103 91 157 209 157c59 0 129 -13 182 -39v-111c-60 35 -132 51 -183 51s-85 -15 -85 -48c0 -47 61 -45 135 -61c94 -19 162 -51 162 -145
c-1 -106 -93 -161 -215 -161c-61 0 -133 13 -187 38z" />
    <glyph glyph-name="t" unicode="t" horiz-adv-x="400" 
d="M149 37c-25 27 -40 68 -40 141v211h-86v103h86v131l121 21v-152h139v-103h-139v-194c0 -55 10 -101 65 -101c26 0 54 10 74 21v-103c-22 -13 -62 -23 -100 -23c-43 0 -89 13 -120 48z" />
    <glyph glyph-name="u" unicode="u" horiz-adv-x="599" 
d="M114 41c-30 33 -44 78 -44 149v302h121v-282c0 -44 7 -70 22 -87c18 -21 42 -27 65 -27c48 0 95 27 128 64v332h121v-492h-120v54l-2 1c-41 -38 -94 -66 -160 -66c-54 0 -101 19 -131 52z" />
    <glyph glyph-name="v" unicode="v" horiz-adv-x="552" 
d="M217 0l-203 492h128l70 -180c21 -54 42 -109 63 -167h2c22 58 42 109 65 166l73 181h123l-202 -492h-119z" />
    <glyph glyph-name="w" unicode="w" horiz-adv-x="825" 
d="M186 0l-169 492h128l62 -188c16 -48 31 -96 46 -147h2c15 46 34 102 50 147l66 188h88l67 -188c18 -51 35 -100 50 -147h2c14 48 30 98 46 147l62 188h122l-169 -492h-119l-61 171c-16 45 -32 93 -46 137h-2c-14 -44 -29 -89 -46 -137l-60 -171h-119z" />
    <glyph glyph-name="x" unicode="x" horiz-adv-x="523" 
d="M-6 0l194 262l-171 230h137l41 -58c21 -30 46 -66 67 -97h2c21 31 47 68 67 96l42 59h131l-169 -228l194 -264h-139l-66 93c-22 31 -44 62 -64 92h-2c-20 -30 -45 -65 -64 -92l-66 -93h-134z" />
    <glyph glyph-name="y" unicode="y" horiz-adv-x="553" 
d="M212 -220h-126l131 274l-203 438h131l67 -152c25 -57 45 -103 66 -155h2c23 55 48 111 72 165l64 142h123z" />
    <glyph glyph-name="z" unicode="z" horiz-adv-x="483" 
d="M454 0h-436l-1 2l245 385l-1 2h-223v103h421l1 -2l-245 -385l1 -2h238v-103z" />
    <glyph glyph-name="dotlessi" unicode="&#x131;" horiz-adv-x="263" 
d="M71 0v492h121v-492h-121z" />
    <glyph glyph-name="eth" unicode="&#xf0;" horiz-adv-x="582" 
d="M133 506l-16 77l102 38c-28 19 -59 37 -92 53l74 76c49 -25 93 -54 132 -86l114 43l16 -77l-66 -25c101 -107 151 -234 151 -349c0 -174 -113 -267 -259 -267c-156 0 -257 105 -257 246c0 138 98 246 236 246c44 0 83 -14 109 -35l2 2c-20 40 -50 80 -89 117zM153 240
c0 -82 54 -145 137 -145c85 0 136 66 136 146c0 88 -60 142 -138 142c-81 0 -135 -60 -135 -143z" />
    <glyph glyph-name="grave" unicode="`" 
d="M243 563l-113 164h118l81 -164h-86z" />
    <glyph glyph-name="acute" unicode="&#xb4;" 
d="M389 727l-113 -164h-86l81 164h118z" />
    <glyph glyph-name="circumflex" unicode="&#x2c6;" 
d="M90 563l115 164h108l115 -164h-88l-81 98l-81 -98h-88z" />
    <glyph glyph-name="caron" unicode="&#x2c7;" 
d="M428 727l-115 -164h-108l-115 164h88l81 -98l81 98h88z" />
    <glyph glyph-name="commaaccent" unicode="&#xf6c3;" 
d="M229 -54h110l-78 -218h-84z" />
    <glyph glyph-name="commaaccent.alt" 
d="M178 556l78 218h84l-52 -218h-110z" />
    <glyph glyph-name="tilde" unicode="&#x2dc;" 
d="M251 603c-27 13 -44 23 -68 23c-37 0 -62 -24 -83 -47l-2 1v92c19 25 48 42 85 42c27 0 53 -9 84 -24c27 -13 44 -23 68 -23c37 0 62 24 83 47l2 -1v-92c-19 -25 -48 -42 -85 -42c-27 0 -53 9 -84 24z" />
    <glyph glyph-name="dieresis" unicode="&#xa8;" 
d="M298 647c0 36 30 66 66 66s66 -30 66 -66s-30 -66 -66 -66s-66 30 -66 66zM88 647c0 36 30 66 66 66s66 -30 66 -66s-30 -66 -66 -66s-66 30 -66 66z" />
    <glyph glyph-name="macron" unicode="&#xaf;" 
d="M114 603v84h290v-84h-290z" />
    <glyph glyph-name="breve" unicode="&#x2d8;" 
d="M259 568c-97 0 -148 65 -151 156h71c4 -47 24 -90 80 -90s76 43 80 90h71c-3 -91 -54 -156 -151 -156z" />
    <glyph glyph-name="ring" unicode="&#x2da;" 
d="M198 665c0 -34 23 -62 61 -62s61 28 61 62s-23 62 -61 62s-61 -28 -61 -62zM383 665c0 -68 -53 -119 -124 -119s-124 51 -124 119s53 119 124 119s124 -51 124 -119z" />
    <glyph glyph-name="hungarumlaut" unicode="&#x2dd;" 
d="M269 563l78 164h95l-100 -164h-73zM118 563l78 164h95l-100 -164h-73z" />
    <glyph glyph-name="dotaccent" unicode="&#x2d9;" 
d="M193 647c0 36 30 66 66 66s66 -30 66 -66s-30 -66 -66 -66s-66 30 -66 66z" />
    <glyph glyph-name="cedilla" unicode="&#xb8;" 
d="M209 -88l39 125l50 -12l-20 -65c54 -12 88 -42 88 -91c0 -54 -43 -90 -109 -90c-32 0 -63 8 -84 18l18 57c22 -11 45 -19 65 -19c23 0 43 10 43 31c0 36 -58 44 -90 46z" />
    <glyph glyph-name="ogonek" unicode="&#x2db;" 
d="M174 -128c0 49 32 108 102 152l90 -16c-65 -41 -93 -83 -93 -117c0 -27 17 -45 48 -45c12 0 30 3 45 7v-74c-17 -5 -42 -10 -68 -10c-76 0 -124 43 -124 103z" />
    <glyph glyph-name="comma" unicode="," horiz-adv-x="300" 
d="M49 -147l56 292h115l-85 -292h-86z" />
    <glyph glyph-name="semicolon" unicode=";" horiz-adv-x="300" 
d="M49 -147l56 292h115l-85 -292h-86zM74 427c0 42 34 76 76 76s76 -34 76 -76s-34 -76 -76 -76s-76 34 -76 76z" />
    <glyph glyph-name="colon" unicode=":" horiz-adv-x="300" 
d="M75 64c0 41 34 75 75 75s75 -34 75 -75s-34 -75 -75 -75s-75 34 -75 75zM75 428c0 41 34 75 75 75s75 -34 75 -75s-34 -75 -75 -75s-75 34 -75 75z" />
    <glyph glyph-name="period" unicode="." horiz-adv-x="300" 
d="M72 67c0 43 35 78 78 78s78 -35 78 -78s-35 -78 -78 -78s-78 35 -78 78z" />
    <glyph glyph-name="ellipsis" unicode="&#x2026;" horiz-adv-x="836" 
d="M72 67c0 43 35 78 78 78s78 -35 78 -78s-35 -78 -78 -78s-78 35 -78 78zM340 67c0 43 35 78 78 78s78 -35 78 -78s-35 -78 -78 -78s-78 35 -78 78zM608 67c0 43 35 78 78 78s78 -35 78 -78s-35 -78 -78 -78s-78 35 -78 78z" />
    <glyph glyph-name="hyphen" unicode="-" horiz-adv-x="346" 
d="M52 226v102h242v-102h-242z" />
    <glyph glyph-name="hyphen.cap" horiz-adv-x="346" 
d="M52 310v102h242v-102h-242z" />
    <glyph glyph-name="exclam" unicode="!" horiz-adv-x="300" 
d="M111 232l-31 492h140l-31 -492h-78zM75 64c0 41 34 75 75 75s75 -34 75 -75s-34 -75 -75 -75s-75 34 -75 75z" />
    <glyph glyph-name="exclamdown" unicode="&#xa1;" horiz-adv-x="300" 
d="M189 260l31 -492h-140l31 492h78zM225 428c0 -41 -34 -75 -75 -75s-75 34 -75 75s34 75 75 75s75 -34 75 -75z" />
    <glyph glyph-name="exclamdown.cap" horiz-adv-x="300" 
d="M189 492l31 -492h-140l31 492h78zM225 660c0 -41 -34 -75 -75 -75s-75 34 -75 75s34 75 75 75s75 -34 75 -75z" />
    <glyph glyph-name="questiondown" unicode="&#xbf;" horiz-adv-x="491" 
d="M362 285l23 -179c-124 0 -212 -35 -212 -122c0 -64 49 -111 118 -111c41 0 93 17 135 46l15 -117c-39 -27 -100 -45 -158 -45c-136 0 -238 96 -238 218c0 120 98 205 207 218l-2 92h112zM369 428c0 -41 -34 -75 -75 -75s-75 34 -75 75s34 75 75 75s75 -34 75 -75z" />
    <glyph glyph-name="questiondown.cap" horiz-adv-x="491" 
d="M362 518l23 -179c-124 0 -212 -35 -212 -122c0 -64 49 -111 118 -111c41 0 93 17 135 46l15 -117c-39 -27 -100 -45 -158 -45c-136 0 -238 96 -238 218c0 120 98 205 207 218l-2 92h112zM369 661c0 -41 -34 -75 -75 -75s-75 34 -75 75s34 75 75 75s75 -34 75 -75z" />
    <glyph glyph-name="quoteleft" unicode="&#x2018;" horiz-adv-x="267" 
d="M48 467l88 275h78l-57 -275h-109z" />
    <glyph glyph-name="quoteright" unicode="&#x2019;" horiz-adv-x="267" 
d="M53 467l57 275h109l-88 -275h-78z" />
    <glyph glyph-name="quotedblright" unicode="&#x201d;" horiz-adv-x="442" 
d="M53 467l57 275h109l-88 -275h-78zM228 467l57 275h109l-88 -275h-78z" />
    <glyph glyph-name="guilsinglleft" unicode="&#x2039;" horiz-adv-x="345" 
d="M199 27l-165 219l165 219h100l-164 -219l164 -219h-100z" />
    <glyph glyph-name="guilsinglleft.cap" horiz-adv-x="345" 
d="M199 143l-165 219l165 219h100l-164 -219l164 -219h-100z" />
    <glyph glyph-name="guilsinglright" unicode="&#x203a;" horiz-adv-x="345" 
d="M46 27l164 219l-164 219h100l165 -219l-165 -219h-100z" />
    <glyph glyph-name="guilsinglright.cap" horiz-adv-x="345" 
d="M46 143l164 219l-164 219h100l165 -219l-165 -219h-100z" />
    <glyph glyph-name="guillemotleft" unicode="&#xab;" horiz-adv-x="563" 
d="M199 27l-165 219l165 219h100l-164 -219l164 -219h-100zM417 27l-165 219l165 219h100l-164 -219l164 -219h-100z" />
    <glyph glyph-name="guillemotleft.cap" horiz-adv-x="563" 
d="M199 143l-165 219l165 219h100l-164 -219l164 -219h-100zM417 143l-165 219l165 219h100l-164 -219l164 -219h-100z" />
    <glyph glyph-name="guillemotright" unicode="&#xbb;" horiz-adv-x="563" 
d="M46 27l164 219l-164 219h100l165 -219l-165 -219h-100zM264 27l164 219l-164 219h100l165 -219l-165 -219h-100z" />
    <glyph glyph-name="guillemotright.cap" horiz-adv-x="563" 
d="M46 143l164 219l-164 219h100l165 -219l-165 -219h-100zM264 143l164 219l-164 219h100l165 -219l-165 -219h-100z" />
    <glyph glyph-name="slash" unicode="/" horiz-adv-x="458" 
d="M13 -38l337 800h95l-337 -800h-95z" />
    <glyph glyph-name="bar" unicode="|" horiz-adv-x="322" 
d="M113 -220v1020h96v-1020h-96z" />
    <glyph glyph-name="endash" unicode="&#x2013;" horiz-adv-x="493" 
d="M50 232v91h393v-91h-393z" />
    <glyph glyph-name="endash.cap" horiz-adv-x="493" 
d="M50 316v91h393v-91h-393z" />
    <glyph glyph-name="emdash" unicode="&#x2014;" horiz-adv-x="786" 
d="M35 239v77h716v-77h-716z" />
    <glyph glyph-name="emdash.cap" horiz-adv-x="786" 
d="M35 323v77h716v-77h-716z" />
    <glyph glyph-name="bullet" unicode="&#x2022;" horiz-adv-x="380" 
d="M72 297c0 66 53 119 118 119c66 0 119 -53 119 -119c0 -65 -53 -118 -119 -118c-65 0 -118 53 -118 118z" />
    <glyph glyph-name="parenleft" unicode="(" horiz-adv-x="362" 
d="M70 265c0 214 66 376 146 478h115c-84 -109 -150 -276 -150 -478s66 -369 150 -478h-115c-80 102 -146 264 -146 478z" />
    <glyph glyph-name="parenright" unicode=")" horiz-adv-x="362" 
d="M292 265c0 -214 -66 -376 -146 -478h-115c84 109 150 276 150 478s-66 369 -150 478h115c80 -102 146 -264 146 -478z" />
    <glyph glyph-name="parenleft.cap" horiz-adv-x="362" 
d="M70 362c0 214 66 376 146 478h115c-84 -109 -150 -276 -150 -478s66 -369 150 -478h-115c-80 102 -146 264 -146 478z" />
    <glyph glyph-name="parenright.cap" horiz-adv-x="362" 
d="M292 362c0 -214 -66 -376 -146 -478h-115c84 109 150 276 150 478s-66 369 -150 478h115c80 -102 146 -264 146 -478z" />
    <glyph glyph-name="bracketleft" unicode="[" horiz-adv-x="361" 
d="M197 -123h120v-90h-231v956h231v-90h-120v-776z" />
    <glyph glyph-name="bracketright" unicode="]" horiz-adv-x="361" 
d="M44 -123h120v776h-120v90h231v-956h-231v90z" />
    <glyph glyph-name="bracketleft.cap" horiz-adv-x="361" 
d="M197 -26h120v-90h-231v956h231v-90h-120v-776z" />
    <glyph glyph-name="bracketright.cap" horiz-adv-x="361" 
d="M44 -26h120v776h-120v90h231v-956h-231v90z" />
    <glyph glyph-name="braceleft" unicode="{" horiz-adv-x="378" 
d="M26 220v90h27c61 0 73 23 73 78v206c0 98 49 160 160 160c23 0 49 -2 64 -5v-89c-12 3 -31 4 -43 4c-52 0 -70 -23 -70 -84v-187c0 -70 -14 -111 -65 -127v-2c51 -16 65 -57 65 -127v-187c0 -61 18 -84 70 -84c12 0 31 1 43 4v-89c-15 -3 -41 -5 -64 -5
c-111 0 -160 62 -160 160v206c0 55 -12 78 -73 78h-27z" />
    <glyph glyph-name="braceright" unicode="}" horiz-adv-x="378" 
d="M352 310v-90h-27c-61 0 -73 -23 -73 -78v-206c0 -98 -49 -160 -160 -160c-23 0 -49 2 -64 5v89c12 -3 31 -4 43 -4c52 0 70 23 70 84v187c0 70 14 111 65 127v2c-51 16 -65 57 -65 127v187c0 61 -18 84 -70 84c-12 0 -31 -1 -43 -4v89c15 3 41 5 64 5
c111 0 160 -62 160 -160v-206c0 -55 12 -78 73 -78h27z" />
    <glyph glyph-name="braceleft.cap" horiz-adv-x="378" 
d="M26 317v90h27c61 0 73 23 73 78v206c0 98 49 160 160 160c23 0 49 -2 64 -5v-89c-12 3 -31 4 -43 4c-52 0 -70 -23 -70 -84v-187c0 -70 -14 -111 -65 -127v-2c51 -16 65 -57 65 -127v-187c0 -61 18 -84 70 -84c12 0 31 1 43 4v-89c-15 -3 -41 -5 -64 -5
c-111 0 -160 62 -160 160v206c0 55 -12 78 -73 78h-27z" />
    <glyph glyph-name="braceright.cap" horiz-adv-x="378" 
d="M352 407v-90h-27c-61 0 -73 -23 -73 -78v-206c0 -98 -49 -160 -160 -160c-23 0 -49 2 -64 5v89c12 -3 31 -4 43 -4c52 0 70 23 70 84v187c0 70 14 111 65 127v2c-51 16 -65 57 -65 127v187c0 61 -18 84 -70 84c-12 0 -31 -1 -43 -4v89c15 3 41 5 64 5
c111 0 160 -62 160 -160v-206c0 -55 12 -78 73 -78h27z" />
    <glyph glyph-name="asterisk" unicode="*" horiz-adv-x="453" 
d="M202 580l-15 147h79l-15 -147h-49zM278 524l-14 47l137 60l24 -77zM175 524l-147 30l24 77l137 -60zM309 351l-74 129l40 28l99 -110zM144 351l-65 47l99 110l40 -28z" />
    <glyph glyph-name="dagger" unicode="&#x2020;" horiz-adv-x="609" 
d="M249 -220v615h-188v103h188v226h111v-226h188v-103h-188v-615h-111z" />
    <glyph glyph-name="daggerdbl" unicode="&#x2021;" horiz-adv-x="609" 
d="M61 7v103h188v285h-188v103h188v226h111v-226h188v-103h-188v-285h188v-103h-188v-227h-111v227h-188z" />
    <glyph glyph-name="section" unicode="&#xa7;" horiz-adv-x="574" 
d="M117 -7c43 -26 100 -47 150 -47c54 0 94 24 94 71c0 59 -67 76 -149 111c-80 34 -159 78 -159 174c0 70 42 119 100 140v2c-31 27 -53 64 -53 116c0 106 91 172 207 172c56 0 109 -15 143 -34v-110c-41 25 -92 43 -136 43c-53 0 -93 -25 -93 -69c0 -59 69 -77 144 -108
c83 -34 164 -77 164 -178c0 -72 -41 -120 -99 -140v-2c31 -26 52 -65 52 -116c0 -108 -92 -173 -214 -173c-63 0 -115 17 -151 36v112zM263 381l-12 4c-47 -11 -79 -34 -79 -75c0 -65 80 -83 141 -109l21 -9c46 11 76 36 76 77c0 60 -66 78 -147 112z" />
    <glyph glyph-name="paragraph" unicode="&#xb6;" horiz-adv-x="590" 
d="M232 -220v582c-101 0 -183 81 -183 181s82 181 183 181h269v-944h-95v860h-79v-860h-95z" />
    <glyph glyph-name="asciicircum" unicode="^" horiz-adv-x="567" 
d="M61 362l181 373h83l181 -373h-97l-125 248h-1l-125 -248h-97z" />
    <glyph glyph-name="asciitilde" unicode="~" horiz-adv-x="555" 
d="M267 315c-35 17 -63 32 -96 32c-46 0 -71 -29 -94 -57l-2 1v110c23 28 57 43 98 43c39 0 74 -14 115 -34c35 -17 63 -32 96 -32c46 0 71 29 94 57l2 -1v-110c-23 -28 -57 -43 -98 -43c-39 0 -74 14 -115 34z" />
    <glyph glyph-name="brokenbar" unicode="&#xa6;" horiz-adv-x="322" 
d="M113 408v392h96v-392h-96zM113 172h96v-392h-96v392z" />
    <glyph glyph-name="backslash" unicode="\" horiz-adv-x="457" 
d="M349 -38l-337 800h95l337 -800h-95z" />
    <glyph glyph-name="underscore" unicode="_" horiz-adv-x="490" 
d="M0 -87h490v-59h-490v59z" />
    <glyph glyph-name="quotesingle" unicode="'" horiz-adv-x="187" 
d="M58 467l-18 275h107l-18 -275h-71z" />
    <glyph glyph-name="quotedbl" unicode="&#x22;" horiz-adv-x="363" 
d="M58 467l-18 275h107l-18 -275h-71zM234 467l-18 275h107l-18 -275h-71z" />
    <glyph glyph-name="copyright" unicode="&#xa9;" horiz-adv-x="804" 
d="M206 366c0 118 91 205 213 205c42 0 84 -10 116 -29v-81c-32 22 -72 37 -112 37c-79 0 -134 -57 -134 -131s54 -130 136 -130c41 0 83 15 115 40v-82c-34 -22 -82 -32 -123 -32c-123 0 -211 87 -211 203zM85 362c0 -180 129 -320 317 -320s317 140 317 320
s-129 320 -317 320s-317 -140 -317 -320zM29 362c0 210 160 373 373 373s373 -163 373 -373s-160 -373 -373 -373s-373 163 -373 373z" />
    <glyph glyph-name="Euro" unicode="&#x20ac;" horiz-adv-x="605" 
d="M16 238v88h69c-1 12 -1 24 -1 37s1 30 2 40h-70v88h86c43 147 165 244 343 244c47 0 83 -7 117 -18v-119c-38 14 -75 22 -117 22c-100 0 -173 -49 -208 -129h181v-88h-204c-1 -10 -2 -26 -2 -39s1 -30 2 -38h204v-88h-182c35 -81 108 -132 212 -132c42 0 87 9 125 25
v-120c-38 -15 -87 -22 -134 -22c-177 0 -296 101 -338 249h-85z" />
    <glyph glyph-name="dollar" unicode="$" horiz-adv-x="586" 
d="M244 -76v126c-54 6 -111 21 -156 45v123c67 -44 148 -65 207 -65c62 0 105 24 105 76c0 64 -72 69 -154 91c-98 25 -178 66 -178 174c0 101 72 164 176 179v127h95v-126c53 -5 110 -21 155 -45v-121c-66 43 -145 63 -202 63c-58 0 -99 -22 -99 -70c0 -60 68 -64 149 -85
c101 -27 183 -69 183 -180c0 -107 -76 -173 -186 -187v-125h-95z" />
    <glyph glyph-name="sterling" unicode="&#xa3;" horiz-adv-x="582" 
d="M68 302v96h47c-14 38 -26 78 -26 120c0 137 107 217 246 217c72 0 135 -22 173 -47v-126c-51 37 -114 58 -165 58c-74 0 -127 -40 -127 -110c0 -32 13 -71 26 -112h178v-96h-150c3 -17 5 -35 5 -52c0 -50 -18 -100 -56 -135v-2h316v-113h-467v94c53 33 87 91 87 152
c0 19 -3 38 -7 56h-80z" />
    <glyph glyph-name="yen" unicode="&#xa5;" horiz-adv-x="682" 
d="M517 724h142l-167 -239h99v-88h-160l-26 -37v-60h186v-88h-186v-212h-127v212h-186v88h186v59l-27 38h-159v88h97l-169 239h148l83 -121c32 -47 63 -93 91 -136h2c28 43 60 91 92 138z" />
    <glyph glyph-name="numbersign" unicode="#" horiz-adv-x="626" 
d="M560 724l-61 -214h116l-22 -77h-116l-41 -142h116l-22 -77h-116l-61 -214h-82l61 214h-123l-61 -214h-82l61 214h-116l22 77h116l41 142h-116l22 77h116l61 214h82l-61 -214h123l61 214h82zM272 433l-41 -142h123l41 142h-123z" />
    <glyph glyph-name="fraction" unicode="&#x2044;" horiz-adv-x="379" 
d="M4 -13h-105l476 737h105z" />
    <glyph glyph-name="plus" unicode="+" horiz-adv-x="594" 
d="M249 116v201h-196v91h196v200h96v-200h196v-91h-196v-201h-96z" />
    <glyph glyph-name="plusminus" unicode="&#xb1;" horiz-adv-x="594" 
d="M249 238v171h-181v91h181v170h96v-170h181v-91h-181v-171h-96zM68 71v91h458v-91h-458z" />
    <glyph glyph-name="multiply" unicode="&#xd7;" horiz-adv-x="594" 
d="M511 512l-149 -149l149 -149l-65 -65l-149 149l-149 -149l-65 65l149 149l-149 149l65 65l149 -149l149 149z" />
    <glyph glyph-name="divide" unicode="&#xf7;" horiz-adv-x="594" 
d="M540 317h-486v91h486v-91zM230 571c0 37 30 67 67 67s67 -30 67 -67s-30 -67 -67 -67s-67 30 -67 67zM364 154c0 -37 -30 -67 -67 -67s-67 30 -67 67s30 67 67 67s67 -30 67 -67z" />
    <glyph glyph-name="equal" unicode="=" horiz-adv-x="594" 
d="M54 302h486v-91h-486v91zM540 423h-486v91h486v-91z" />
    <glyph glyph-name="notequal" unicode="&#x2260;" horiz-adv-x="594" 
d="M54 423v91h322l103 135l47 -37l-75 -98h89v-91h-159l-93 -121h252v-91h-322l-103 -135l-47 37l75 98h-89v91h159l93 121h-252z" />
    <glyph glyph-name="approxequal" unicode="&#x2248;" horiz-adv-x="594" 
d="M185 533c82 0 153 -54 226 -54c41 0 72 20 95 57l25 -71c-25 -45 -71 -76 -122 -76c-82 0 -153 54 -226 54c-41 0 -72 -20 -95 -57l-25 71c25 45 71 76 122 76zM185 335c82 0 153 -54 226 -54c41 0 72 20 95 57l25 -71c-25 -45 -71 -76 -122 -76c-82 0 -153 54 -226 54
c-41 0 -72 -20 -95 -57l-25 71c25 45 71 76 122 76z" />
    <glyph glyph-name="less" unicode="&#x3c;" horiz-adv-x="701" 
d="M86 329v66l530 214v-97l-369 -149v-2l369 -149v-97z" />
    <glyph glyph-name="greater" unicode="&#x3e;" horiz-adv-x="701" 
d="M616 395v-66l-530 -214v97l369 149v2l-369 149v97z" />
    <glyph glyph-name="logicalnot" unicode="&#xac;" horiz-adv-x="594" 
d="M54 317v91h487v-292h-96v201h-391z" />
    <glyph glyph-name="uni00AD" unicode="&#xad;" horiz-adv-x="346" 
d="M52 226v102h242v-102h-242z" />
    <glyph glyph-name="Delta" unicode="&#x2206;" horiz-adv-x="710" 
d="M31 0v80l261 644h127l261 -644v-80h-649zM537 113l-108 274c-26 66 -52 134 -74 195h-2c-22 -61 -48 -129 -74 -195l-108 -274h366z" />
    <glyph glyph-name="Omega" unicode="&#x2126;" horiz-adv-x="764" 
d="M382 620c-138 0 -214 -100 -214 -233c0 -117 60 -224 151 -303v-84h-297v113h139l1 2c-74 75 -121 179 -121 288c0 186 137 332 341 332s341 -146 341 -332c0 -109 -47 -213 -121 -288l1 -2h139v-113h-297v84c91 79 151 186 151 303c0 133 -76 233 -214 233z" />
    <glyph glyph-name="pi" unicode="&#x3c0;" horiz-adv-x="654" 
d="M114 0c26 127 33 252 34 382c-48 -7 -88 -22 -122 -40v103c47 29 126 47 208 47h408l-18 -103h-86v-389h-121v389h-148c-1 -131 -9 -262 -33 -389h-122z" />
    <glyph glyph-name="degree" unicode="&#xb0;" horiz-adv-x="366" 
d="M89 588c0 -50 40 -93 94 -93s94 43 94 93s-40 93 -94 93s-94 -43 -94 -93zM32 588c0 82 64 147 151 147s151 -65 151 -147s-64 -147 -151 -147s-151 65 -151 147z" />
    <glyph glyph-name="infinity" unicode="&#x221e;" horiz-adv-x="755" 
d="M210 154c58 0 91 45 119 95c-27 56 -59 102 -119 102c-56 0 -87 -42 -87 -98s30 -99 87 -99zM375 173h-2c-39 -65 -91 -109 -166 -109c-106 0 -176 84 -176 189c0 100 64 188 176 188c86 0 137 -55 172 -109h2c39 65 91 109 166 109c106 0 176 -84 176 -189
c0 -100 -64 -188 -176 -188c-86 0 -137 55 -172 109zM544 351c-58 0 -91 -45 -119 -95c27 -56 59 -102 119 -102c56 0 87 42 87 98s-30 99 -87 99z" />
    <glyph glyph-name="partialdiff" unicode="&#x2202;" horiz-adv-x="573" 
d="M26 219c0 132 92 244 236 244c61 0 114 -22 154 -50l1 1c-6 112 -37 261 -163 261c-40 0 -94 -16 -133 -40v105c38 22 94 41 156 41c192 0 263 -182 263 -394c0 -235 -88 -398 -278 -398c-152 0 -236 103 -236 230zM148 221c0 -74 46 -126 119 -126c94 0 137 87 148 207
c-32 31 -81 58 -137 58c-87 0 -130 -69 -130 -139z" />
    <glyph glyph-name="radical" unicode="&#x221a;" horiz-adv-x="676" 
d="M351 76h2c18 56 37 112 56 166l223 636h97l-352 -994h-46l-206 508l-97 -39l-31 76l185 75l104 -260c22 -55 44 -111 65 -168z" />
    <glyph glyph-name="summation" unicode="&#x2211;" horiz-adv-x="618" 
d="M50 -33l216 361l-207 313v83h491v-113h-333l185 -279l-201 -336h365v-112h-516v83z" />
    <glyph glyph-name="product" unicode="&#x220f;" horiz-adv-x="787" 
d="M136 -116v727h-109v113h733v-113h-109v-727h-127v727h-261v-727h-127z" />
    <glyph glyph-name="lozenge" unicode="&#x25ca;" horiz-adv-x="546" 
d="M234 -19l-185 379l185 378h78l185 -378l-185 -379h-78zM272 87h2l131 273l-131 272h-2l-131 -272z" />
    <glyph glyph-name="percent" unicode="%" horiz-adv-x="932" 
d="M187 0l472 724h86l-472 -724h-86zM133 548c0 -61 38 -110 93 -110s93 49 93 110s-38 110 -93 110s-93 -49 -93 -110zM49 548c0 107 70 187 177 187s177 -80 177 -187s-70 -187 -177 -187s-177 80 -177 187zM799 176c0 61 -38 110 -93 110s-93 -49 -93 -110
s38 -110 93 -110s93 49 93 110zM883 176c0 -107 -70 -187 -177 -187s-177 80 -177 187s70 187 177 187s177 -80 177 -187z" />
    <glyph glyph-name="o" unicode="o" horiz-adv-x="612" 
d="M160 246c0 -85 62 -151 146 -151s146 66 146 151s-62 151 -146 151s-146 -66 -146 -151zM39 246c0 145 114 257 267 257s267 -112 267 -257s-114 -257 -267 -257s-267 112 -267 257z" />
    <glyph glyph-name="iogonek" unicode="&#x12f;" horiz-adv-x="263" 
d="M19 -122c0 42 21 87 52 122v492h121v-492c-49 -35 -73 -76 -73 -109c0 -27 16 -45 48 -45c11 0 26 2 41 6v-74c-17 -5 -40 -9 -63 -9c-77 0 -126 45 -126 109zM56 655c0 41 34 75 76 75c41 0 75 -34 75 -75s-34 -75 -76 -75c-41 0 -75 34 -75 75z" />
    <glyph glyph-name="cacute" unicode="&#x107;" horiz-adv-x="512" 
d="M465 144v-118c-45 -25 -102 -37 -154 -37c-158 0 -272 108 -272 255c0 154 124 259 278 259c53 0 102 -13 140 -32v-118c-43 28 -91 45 -138 45c-95 0 -158 -67 -158 -153c0 -88 66 -150 160 -150c52 0 105 18 144 49zM458 727l-113 -164h-86l81 164h118z" />
    <glyph glyph-name="ccircumflex" unicode="&#x109;" horiz-adv-x="512" 
d="M465 144v-118c-45 -25 -102 -37 -154 -37c-158 0 -272 108 -272 255c0 154 124 259 278 259c53 0 102 -13 140 -32v-118c-43 28 -91 45 -138 45c-95 0 -158 -67 -158 -153c0 -88 66 -150 160 -150c52 0 105 18 144 49zM123 563l115 164h108l115 -164h-88l-81 98l-81 -98
h-88z" />
    <glyph glyph-name="ccaron" unicode="&#x10d;" horiz-adv-x="512" 
d="M465 144v-118c-45 -25 -102 -37 -154 -37c-158 0 -272 108 -272 255c0 154 124 259 278 259c53 0 102 -13 140 -32v-118c-43 28 -91 45 -138 45c-95 0 -158 -67 -158 -153c0 -88 66 -150 160 -150c52 0 105 18 144 49zM461 727l-115 -164h-108l-115 164h88l81 -98l81 98
h88z" />
    <glyph glyph-name="cdotaccent" unicode="&#x10b;" horiz-adv-x="512" 
d="M465 144v-118c-45 -25 -102 -37 -154 -37c-158 0 -272 108 -272 255c0 154 124 259 278 259c53 0 102 -13 140 -32v-118c-43 28 -91 45 -138 45c-95 0 -158 -67 -158 -153c0 -88 66 -150 160 -150c52 0 105 18 144 49zM226 647c0 36 30 66 66 66s66 -30 66 -66
s-30 -66 -66 -66s-66 30 -66 66z" />
    <glyph glyph-name="ccedilla" unicode="&#xe7;" horiz-adv-x="512" 
d="M465 144v-118c-44 -25 -99 -36 -150 -37l-9 -29c54 -12 88 -42 88 -91c0 -54 -43 -90 -109 -90c-32 0 -62 8 -83 18l17 57c22 -11 45 -19 65 -19c23 0 43 10 43 31c0 36 -58 44 -90 46l25 81c-132 19 -223 119 -223 251c0 154 124 259 278 259c53 0 102 -13 140 -32v-118
c-43 28 -91 45 -138 45c-95 0 -158 -67 -158 -153c0 -88 66 -150 160 -150c52 0 105 18 144 49z" />
    <glyph glyph-name="dcaron" unicode="&#x10f;" horiz-adv-x="718" 
d="M42 237c0 153 109 266 260 266c43 0 77 -9 106 -22l2 1v282h121v-764h-120v28l-2 1c-33 -23 -78 -40 -131 -40c-129 0 -236 97 -236 248zM164 243c0 -85 51 -152 139 -152c41 0 78 15 107 34v250c-28 14 -63 25 -100 25c-92 0 -146 -69 -146 -157zM635 764h110l-78 -218
h-84z" />
    <glyph glyph-name="egrave" unicode="&#xe8;" horiz-adv-x="566" 
d="M518 213h-355c15 -82 80 -124 163 -124c62 0 120 23 168 57v-111c-46 -29 -116 -46 -180 -46c-158 0 -274 102 -274 256c0 156 117 258 251 258c122 0 230 -83 230 -241c0 -16 -1 -36 -3 -49zM290 405c-56 0 -112 -34 -127 -108h245c-9 74 -63 108 -118 108zM269 563
l-113 164h118l81 -164h-86z" />
    <glyph glyph-name="eacute" unicode="&#xe9;" horiz-adv-x="566" 
d="M518 213h-355c15 -82 80 -124 163 -124c62 0 120 23 168 57v-111c-46 -29 -116 -46 -180 -46c-158 0 -274 102 -274 256c0 156 117 258 251 258c122 0 230 -83 230 -241c0 -16 -1 -36 -3 -49zM290 405c-56 0 -112 -34 -127 -108h245c-9 74 -63 108 -118 108zM415 727
l-113 -164h-86l81 164h118z" />
    <glyph glyph-name="ecircumflex" unicode="&#xea;" horiz-adv-x="566" 
d="M518 213h-355c15 -82 80 -124 163 -124c62 0 120 23 168 57v-111c-46 -29 -116 -46 -180 -46c-158 0 -274 102 -274 256c0 156 117 258 251 258c122 0 230 -83 230 -241c0 -16 -1 -36 -3 -49zM290 405c-56 0 -112 -34 -127 -108h245c-9 74 -63 108 -118 108zM116 563
l115 164h108l115 -164h-88l-81 98l-81 -98h-88z" />
    <glyph glyph-name="ecaron" unicode="&#x11b;" horiz-adv-x="566" 
d="M518 213h-355c15 -82 80 -124 163 -124c62 0 120 23 168 57v-111c-46 -29 -116 -46 -180 -46c-158 0 -274 102 -274 256c0 156 117 258 251 258c122 0 230 -83 230 -241c0 -16 -1 -36 -3 -49zM290 405c-56 0 -112 -34 -127 -108h245c-9 74 -63 108 -118 108zM454 727
l-115 -164h-108l-115 164h88l81 -98l81 98h88z" />
    <glyph glyph-name="edieresis" unicode="&#xeb;" horiz-adv-x="566" 
d="M518 213h-355c15 -82 80 -124 163 -124c62 0 120 23 168 57v-111c-46 -29 -116 -46 -180 -46c-158 0 -274 102 -274 256c0 156 117 258 251 258c122 0 230 -83 230 -241c0 -16 -1 -36 -3 -49zM290 405c-56 0 -112 -34 -127 -108h245c-9 74 -63 108 -118 108zM324 647
c0 36 30 66 66 66s66 -30 66 -66s-30 -66 -66 -66s-66 30 -66 66zM114 647c0 36 30 66 66 66s66 -30 66 -66s-30 -66 -66 -66s-66 30 -66 66z" />
    <glyph glyph-name="emacron" unicode="&#x113;" horiz-adv-x="566" 
d="M518 213h-355c15 -82 80 -124 163 -124c62 0 120 23 168 57v-111c-46 -29 -116 -46 -180 -46c-158 0 -274 102 -274 256c0 156 117 258 251 258c122 0 230 -83 230 -241c0 -16 -1 -36 -3 -49zM290 405c-56 0 -112 -34 -127 -108h245c-9 74 -63 108 -118 108zM140 603v84
h290v-84h-290z" />
    <glyph glyph-name="ebreve" unicode="&#x115;" horiz-adv-x="566" 
d="M518 213h-355c15 -82 80 -124 163 -124c62 0 120 23 168 57v-111c-46 -29 -116 -46 -180 -46c-158 0 -274 102 -274 256c0 156 117 258 251 258c122 0 230 -83 230 -241c0 -16 -1 -36 -3 -49zM290 405c-56 0 -112 -34 -127 -108h245c-9 74 -63 108 -118 108zM285 568
c-97 0 -148 65 -151 156h71c4 -47 24 -90 80 -90s76 43 80 90h71c-3 -91 -54 -156 -151 -156z" />
    <glyph glyph-name="edotaccent" unicode="&#x117;" horiz-adv-x="566" 
d="M518 213h-355c15 -82 80 -124 163 -124c62 0 120 23 168 57v-111c-46 -29 -116 -46 -180 -46c-158 0 -274 102 -274 256c0 156 117 258 251 258c122 0 230 -83 230 -241c0 -16 -1 -36 -3 -49zM290 405c-56 0 -112 -34 -127 -108h245c-9 74 -63 108 -118 108zM219 647
c0 36 30 66 66 66s66 -30 66 -66s-30 -66 -66 -66s-66 30 -66 66z" />
    <glyph glyph-name="eogonek" unicode="&#x119;" horiz-adv-x="566" 
d="M494 35c-106 -60 -129 -111 -129 -144c0 -28 17 -45 49 -45c12 0 28 2 43 6v-74c-17 -5 -41 -10 -66 -10c-76 0 -124 42 -124 103c0 37 18 80 54 116l-1 2h-6c-158 0 -274 102 -274 256c0 156 117 258 251 258c122 0 230 -83 230 -241c0 -16 -1 -36 -3 -49h-355
c15 -82 80 -124 163 -124c62 0 120 23 168 57v-111zM290 405c-56 0 -112 -34 -127 -108h245c-9 74 -63 108 -118 108z" />
    <glyph glyph-name="hcircumflex" unicode="&#x125;" horiz-adv-x="596" 
d="M71 0v764h121v-325l2 -1c40 37 96 65 161 65c53 0 99 -18 130 -52c29 -31 42 -72 42 -145v-306h-121v285c0 46 -6 68 -20 84c-16 19 -38 27 -64 27c-49 0 -98 -28 -130 -62v-334h-121zM-37 826l115 164h108l115 -164h-88l-81 98l-81 -98h-88z" />
    <glyph glyph-name="hbar" unicode="&#x127;" horiz-adv-x="596" 
d="M2 578v91h69v95h121v-95h154v-91h-154v-139l2 -1c40 37 96 65 161 65c53 0 99 -18 130 -52c29 -31 42 -72 42 -145v-306h-121v285c0 46 -6 68 -20 84c-16 19 -38 27 -64 27c-49 0 -98 -28 -130 -62v-334h-121v578h-69z" />
    <glyph glyph-name="igrave" unicode="&#xec;" horiz-adv-x="263" 
d="M71 0v492h121v-492h-121zM115 563l-113 164h118l81 -164h-86z" />
    <glyph glyph-name="iacute" unicode="&#xed;" horiz-adv-x="263" 
d="M71 0v492h121v-492h-121zM261 727l-113 -164h-86l81 164h118z" />
    <glyph glyph-name="icircumflex" unicode="&#xee;" horiz-adv-x="263" 
d="M71 0v492h121v-492h-121zM-38 563l115 164h108l115 -164h-88l-81 98l-81 -98h-88z" />
    <glyph glyph-name="itilde" unicode="&#x129;" horiz-adv-x="263" 
d="M71 0v492h121v-492h-121zM123 603c-27 13 -44 23 -68 23c-37 0 -62 -24 -83 -47l-2 1v92c19 25 48 42 85 42c27 0 53 -9 84 -24c27 -13 44 -23 68 -23c37 0 62 24 83 47l2 -1v-92c-19 -25 -48 -42 -85 -42c-27 0 -53 9 -84 24z" />
    <glyph glyph-name="idieresis" unicode="&#xef;" horiz-adv-x="263" 
d="M71 0v492h121v-492h-121zM170 647c0 36 30 66 66 66s66 -30 66 -66s-30 -66 -66 -66s-66 30 -66 66zM-40 647c0 36 30 66 66 66s66 -30 66 -66s-30 -66 -66 -66s-66 30 -66 66z" />
    <glyph glyph-name="imacron" unicode="&#x12b;" horiz-adv-x="263" 
d="M71 0v492h121v-492h-121zM-14 603v84h290v-84h-290z" />
    <glyph glyph-name="ibreve" unicode="&#x12d;" horiz-adv-x="263" 
d="M71 0v492h121v-492h-121zM131 568c-97 0 -148 65 -151 156h71c4 -47 24 -90 80 -90s76 43 80 90h71c-3 -91 -54 -156 -151 -156z" />
    <glyph glyph-name="perthousand" unicode="&#x2030;" horiz-adv-x="1349" 
d="M187 0l472 724h86l-472 -724h-86zM133 548c0 -61 38 -110 93 -110s93 49 93 110s-38 110 -93 110s-93 -49 -93 -110zM49 548c0 107 70 187 177 187s177 -80 177 -187s-70 -187 -177 -187s-177 80 -177 187zM799 176c0 61 -38 110 -93 110s-93 -49 -93 -110
s38 -110 93 -110s93 49 93 110zM883 176c0 -107 -70 -187 -177 -187s-177 80 -177 187s70 187 177 187s177 -80 177 -187zM1216 176c0 61 -38 110 -93 110s-93 -49 -93 -110s38 -110 93 -110s93 49 93 110zM1300 176c0 -107 -70 -187 -177 -187s-177 80 -177 187
s70 187 177 187s177 -80 177 -187z" />
    <glyph glyph-name="trademark" unicode="&#x2122;" horiz-adv-x="640" 
d="M109 434v231h-85v59h235v-59h-85v-231h-65zM492 563l-45 -62l-45 62c-14 20 -27 39 -38 57l-2 -1c1 -16 2 -44 2 -64v-121h-63v290h61l85 -118l85 118h62v-290h-64v121c0 20 1 48 2 64l-2 1c-11 -18 -24 -37 -38 -57z" />
    <glyph glyph-name="florin" unicode="&#x192;" horiz-adv-x="520" 
d="M117 389l17 103h84l18 101c22 124 105 173 211 173c21 0 45 -2 62 -7v-105c-21 5 -46 7 -62 7c-49 0 -83 -18 -94 -78l-16 -91h121l-17 -103h-122l-79 -450c-24 -138 -110 -170 -196 -170c-26 0 -47 3 -63 6v108c16 -4 41 -9 62 -9c44 0 71 22 80 74l77 441h-83z" />
    <glyph glyph-name="cent" unicode="&#xa2;" horiz-adv-x="517" 
d="M36 360c0 126 83 219 198 249v133h95v-123c48 -2 91 -15 126 -32v-118c-43 28 -91 45 -139 45c-95 0 -158 -67 -158 -153c0 -88 66 -150 160 -150c53 0 106 19 145 50v-118c-39 -23 -88 -34 -134 -37v-124h-95v132c-119 28 -198 123 -198 246z" />
    <glyph glyph-name="currency" unicode="&#xa4;" horiz-adv-x="602" 
d="M180 350c0 -70 50 -125 121 -125s121 55 121 125s-50 125 -121 125s-121 -55 -121 -125zM88 350c0 40 10 77 28 109l-77 77l75 75l76 -77c32 18 69 29 111 29s79 -11 111 -29l76 77l75 -75l-77 -77c18 -32 28 -69 28 -109s-10 -77 -28 -109l77 -77l-75 -75l-76 77
c-32 -18 -69 -29 -111 -29s-79 11 -111 29l-76 -77l-75 75l77 77c-18 32 -28 69 -28 109z" />
    <glyph glyph-name="ae" unicode="&#xe6;" horiz-adv-x="848" 
d="M412 438h2c42 42 99 65 162 65c120 0 227 -83 227 -241c0 -15 -1 -37 -3 -49h-352c16 -81 78 -124 161 -124c60 0 118 23 167 57v-111c-46 -29 -115 -46 -181 -46c-91 0 -158 32 -201 79c-51 -48 -111 -79 -185 -79c-42 0 -84 10 -117 34c-34 25 -55 63 -55 112
c0 54 26 94 63 119s87 34 136 34c33 0 63 -4 91 -10v28c0 30 -8 52 -24 67c-17 16 -44 24 -81 24c-57 0 -107 -20 -144 -44v110c38 22 94 40 163 40c61 0 129 -14 171 -65zM574 405c-56 0 -111 -34 -126 -108h241c-6 60 -49 108 -115 108zM353 133c-10 21 -17 43 -21 65
c-22 6 -51 10 -76 10c-50 0 -98 -16 -98 -64c0 -40 34 -59 78 -59c41 0 83 16 117 48z" />
    <glyph glyph-name="aeacute" unicode="&#x1fd;" horiz-adv-x="848" 
d="M412 438h2c42 42 99 65 162 65c120 0 227 -83 227 -241c0 -15 -1 -37 -3 -49h-352c16 -81 78 -124 161 -124c60 0 118 23 167 57v-111c-46 -29 -115 -46 -181 -46c-91 0 -158 32 -201 79c-51 -48 -111 -79 -185 -79c-42 0 -84 10 -117 34c-34 25 -55 63 -55 112
c0 54 26 94 63 119s87 34 136 34c33 0 63 -4 91 -10v28c0 30 -8 52 -24 67c-17 16 -44 24 -81 24c-57 0 -107 -20 -144 -44v110c38 22 94 40 163 40c61 0 129 -14 171 -65zM574 405c-56 0 -111 -34 -126 -108h241c-6 60 -49 108 -115 108zM353 133c-10 21 -17 43 -21 65
c-22 6 -51 10 -76 10c-50 0 -98 -16 -98 -64c0 -40 34 -59 78 -59c41 0 83 16 117 48zM584 727l-113 -164h-86l81 164h118z" />
    <glyph glyph-name="eng" unicode="&#x14b;" horiz-adv-x="596" 
d="M71 0v492h120v-53l2 -1c41 37 97 65 162 65c53 0 99 -18 130 -52c29 -31 42 -72 42 -145v-339c0 -82 -15 -122 -39 -148c-34 -37 -86 -50 -136 -50c-24 0 -47 3 -63 8v103c17 -4 38 -6 52 -6c56 0 65 32 65 86v325c0 44 -6 68 -20 84c-15 18 -37 27 -65 27
c-48 0 -98 -28 -129 -62v-334h-121z" />
    <glyph glyph-name="registered" unicode="&#xae;" horiz-adv-x="446" 
d="M35 549c0 107 80 186 188 186s188 -79 188 -186s-80 -186 -188 -186s-188 79 -188 186zM69 549c0 -88 63 -154 154 -154s154 66 154 154s-63 154 -154 154s-154 -66 -154 -154zM262 448l-41 72h-26v-72h-43v202h75c42 0 77 -23 77 -65c0 -29 -17 -49 -41 -58l48 -79h-49z
M195 554h28c23 0 37 9 37 29c0 19 -14 29 -37 29h-28v-58z" />
    <glyph glyph-name="periodcentered" unicode="&#xb7;" horiz-adv-x="300" 
d="M73 302c0 43 35 78 78 78s78 -35 78 -78s-35 -78 -78 -78s-78 35 -78 78z" />
    <glyph glyph-name="ordfeminine" unicode="&#xaa;" horiz-adv-x="370" 
d="M165 401c-27 0 -54 7 -75 22c-22 16 -38 41 -38 74c0 35 18 61 40 76c25 17 56 23 90 23c20 0 40 -2 59 -7v17c0 37 -22 55 -65 55c-38 0 -71 -14 -96 -28v77c25 14 63 26 109 26c37 0 77 -8 104 -30c24 -20 35 -49 35 -87v-118c0 -17 6 -28 21 -28c5 0 12 1 17 4v-66
c-10 -5 -26 -9 -43 -9c-25 0 -50 8 -66 28h-1c-21 -16 -53 -29 -91 -29zM185 466c21 0 42 7 56 19v49c-12 4 -31 6 -45 6c-30 0 -60 -10 -60 -38c0 -25 22 -36 49 -36z" />
    <glyph glyph-name="ordmasculine" unicode="&#xba;" horiz-adv-x="406" 
d="M203 478c51 0 86 39 86 90s-35 90 -86 90s-86 -39 -86 -90s35 -90 86 -90zM203 401c-103 0 -175 71 -175 167s72 167 175 167s175 -71 175 -167s-72 -167 -175 -167z" />
    <glyph glyph-name="integral" unicode="&#x222b;" horiz-adv-x="350" 
d="M155 92l-78 422c-9 50 -14 102 -14 134c0 134 88 178 193 178c23 0 45 -2 62 -6v-104c-20 3 -41 5 -56 5c-51 0 -79 -22 -79 -82c0 -23 4 -53 10 -88l78 -422c9 -50 14 -102 14 -134c0 -134 -88 -178 -193 -178c-23 0 -45 2 -62 6v104c20 -3 41 -5 56 -5
c51 0 79 22 79 82c0 23 -4 53 -10 88z" />
    <glyph glyph-name="mu" unicode="&#xb5;" horiz-adv-x="599" 
d="M72 492h121v-282c0 -44 7 -70 22 -87c18 -21 42 -27 65 -27c48 0 95 27 128 64v332h121v-492h-120v54l-2 1c-41 -38 -93 -66 -156 -66c-26 0 -47 5 -64 13l-2 -1l13 -221h-126v712z" />
    <glyph glyph-name="litre" unicode="&#x2113;" horiz-adv-x="419" 
d="M54 144l-33 57c28 26 55 51 80 77v258c0 141 64 214 143 214c71 0 116 -59 116 -155c0 -108 -57 -218 -159 -328v-66c0 -102 19 -136 61 -136c33 0 59 22 88 55l37 -48c-40 -57 -87 -86 -148 -86c-95 0 -137 71 -137 169v35c-12 -12 -36 -39 -48 -46zM201 363
c54 73 85 158 85 232c0 50 -14 81 -38 81c-28 0 -47 -40 -47 -132v-181z" />
    <glyph glyph-name="dotlessj" unicode="&#x237;" horiz-adv-x="265" 
d="M73 -40v532h121v-525c0 -82 -15 -122 -39 -148c-34 -37 -86 -50 -138 -50c-23 0 -43 2 -62 6v105c19 -4 38 -6 54 -6c55 0 64 33 64 86z" />
    <glyph glyph-name="jcircumflex" unicode="&#x135;" horiz-adv-x="265" 
d="M73 -40v532h121v-525c0 -82 -15 -122 -39 -148c-34 -37 -86 -50 -138 -50c-23 0 -43 2 -62 6v105c19 -4 38 -6 54 -6c55 0 64 33 64 86zM-34 563l115 164h108l115 -164h-88l-81 98l-81 -98h-88z" />
    <glyph glyph-name="kcommaaccent" unicode="&#x137;" horiz-adv-x="555" 
d="M71 0v764h121v-484l2 -1l196 213h144l-206 -220l225 -272h-149l-210 259l-2 -1v-258h-121zM247 -54h110l-78 -218h-84z" />
    <glyph glyph-name="lacute" unicode="&#x13a;" horiz-adv-x="263" 
d="M71 0v764h121v-764h-121zM271 990l-113 -164h-86l81 164h118z" />
    <glyph glyph-name="lcaron" unicode="&#x13e;" horiz-adv-x="379" 
d="M71 0v764h121v-764h-121zM296 764h110l-78 -218h-84z" />
    <glyph glyph-name="lcommaaccent" unicode="&#x13c;" horiz-adv-x="263" 
d="M71 0v764h121v-764h-121zM101 -54h110l-78 -218h-84z" />
    <glyph glyph-name="lslash" unicode="&#x142;" horiz-adv-x="279" 
d="M79 0v275l-82 -55v112l82 55v377h121v-296l82 55v-112l-82 -55v-356h-121z" />
    <glyph glyph-name="ldot" unicode="&#x140;" horiz-adv-x="389" 
d="M71 0v764h121v-764h-121zM259 325c0 36 30 66 66 66s66 -30 66 -66s-30 -66 -66 -66s-66 30 -66 66z" />
    <glyph glyph-name="nacute" unicode="&#x144;" horiz-adv-x="596" 
d="M71 0v492h120v-53l2 -1c41 37 97 65 162 65c53 0 99 -18 130 -52c29 -31 42 -72 42 -145v-306h-121v285c0 44 -6 68 -20 84c-15 18 -37 27 -65 27c-48 0 -98 -28 -129 -62v-334h-121zM428 727l-113 -164h-86l81 164h118z" />
    <glyph glyph-name="ncaron" unicode="&#x148;" horiz-adv-x="596" 
d="M71 0v492h120v-53l2 -1c41 37 97 65 162 65c53 0 99 -18 130 -52c29 -31 42 -72 42 -145v-306h-121v285c0 44 -6 68 -20 84c-15 18 -37 27 -65 27c-48 0 -98 -28 -129 -62v-334h-121zM467 727l-115 -164h-108l-115 164h88l81 -98l81 98h88z" />
    <glyph glyph-name="ntilde" unicode="&#xf1;" horiz-adv-x="596" 
d="M71 0v492h120v-53l2 -1c41 37 97 65 162 65c53 0 99 -18 130 -52c29 -31 42 -72 42 -145v-306h-121v285c0 44 -6 68 -20 84c-15 18 -37 27 -65 27c-48 0 -98 -28 -129 -62v-334h-121zM290 603c-27 13 -44 23 -68 23c-37 0 -62 -24 -83 -47l-2 1v92c19 25 48 42 85 42
c27 0 53 -9 84 -24c27 -13 44 -23 68 -23c37 0 62 24 83 47l2 -1v-92c-19 -25 -48 -42 -85 -42c-27 0 -53 9 -84 24z" />
    <glyph glyph-name="ncommaaccent" unicode="&#x146;" horiz-adv-x="596" 
d="M71 0v492h120v-53l2 -1c41 37 97 65 162 65c53 0 99 -18 130 -52c29 -31 42 -72 42 -145v-306h-121v285c0 44 -6 68 -20 84c-15 18 -37 27 -65 27c-48 0 -98 -28 -129 -62v-334h-121zM268 -54h110l-78 -218h-84z" />
    <glyph glyph-name="napostrophe" unicode="&#x149;" horiz-adv-x="596" 
d="M71 0v492h120v-53l2 -1c41 37 97 65 162 65c53 0 99 -18 130 -52c29 -31 42 -72 42 -145v-306h-121v285c0 44 -6 68 -20 84c-15 18 -37 27 -65 27c-48 0 -98 -28 -129 -62v-334h-121zM111 772h110l-78 -218h-84z" />
    <glyph glyph-name="ograve" unicode="&#xf2;" horiz-adv-x="612" 
d="M160 246c0 -85 62 -151 146 -151s146 66 146 151s-62 151 -146 151s-146 -66 -146 -151zM39 246c0 145 114 257 267 257s267 -112 267 -257s-114 -257 -267 -257s-267 112 -267 257zM290 563l-113 164h118l81 -164h-86z" />
    <glyph glyph-name="oacute" unicode="&#xf3;" horiz-adv-x="612" 
d="M160 246c0 -85 62 -151 146 -151s146 66 146 151s-62 151 -146 151s-146 -66 -146 -151zM39 246c0 145 114 257 267 257s267 -112 267 -257s-114 -257 -267 -257s-267 112 -267 257zM436 727l-113 -164h-86l81 164h118z" />
    <glyph glyph-name="ocircumflex" unicode="&#xf4;" horiz-adv-x="612" 
d="M160 246c0 -85 62 -151 146 -151s146 66 146 151s-62 151 -146 151s-146 -66 -146 -151zM39 246c0 145 114 257 267 257s267 -112 267 -257s-114 -257 -267 -257s-267 112 -267 257zM137 563l115 164h108l115 -164h-88l-81 98l-81 -98h-88z" />
    <glyph glyph-name="otilde" unicode="&#xf5;" horiz-adv-x="612" 
d="M160 246c0 -85 62 -151 146 -151s146 66 146 151s-62 151 -146 151s-146 -66 -146 -151zM39 246c0 145 114 257 267 257s267 -112 267 -257s-114 -257 -267 -257s-267 112 -267 257zM298 603c-27 13 -44 23 -68 23c-37 0 -62 -24 -83 -47l-2 1v92c19 25 48 42 85 42
c27 0 53 -9 84 -24c27 -13 44 -23 68 -23c37 0 62 24 83 47l2 -1v-92c-19 -25 -48 -42 -85 -42c-27 0 -53 9 -84 24z" />
    <glyph glyph-name="odieresis" unicode="&#xf6;" horiz-adv-x="612" 
d="M160 246c0 -85 62 -151 146 -151s146 66 146 151s-62 151 -146 151s-146 -66 -146 -151zM39 246c0 145 114 257 267 257s267 -112 267 -257s-114 -257 -267 -257s-267 112 -267 257zM345 647c0 36 30 66 66 66s66 -30 66 -66s-30 -66 -66 -66s-66 30 -66 66zM135 647
c0 36 30 66 66 66s66 -30 66 -66s-30 -66 -66 -66s-66 30 -66 66z" />
    <glyph glyph-name="omacron" unicode="&#x14d;" horiz-adv-x="612" 
d="M160 246c0 -85 62 -151 146 -151s146 66 146 151s-62 151 -146 151s-146 -66 -146 -151zM39 246c0 145 114 257 267 257s267 -112 267 -257s-114 -257 -267 -257s-267 112 -267 257zM161 603v84h290v-84h-290z" />
    <glyph glyph-name="obreve" unicode="&#x14f;" horiz-adv-x="612" 
d="M160 246c0 -85 62 -151 146 -151s146 66 146 151s-62 151 -146 151s-146 -66 -146 -151zM39 246c0 145 114 257 267 257s267 -112 267 -257s-114 -257 -267 -257s-267 112 -267 257zM306 568c-97 0 -148 65 -151 156h71c4 -47 24 -90 80 -90s76 43 80 90h71
c-3 -91 -54 -156 -151 -156z" />
    <glyph glyph-name="ohungarumlaut" unicode="&#x151;" horiz-adv-x="612" 
d="M160 246c0 -85 62 -151 146 -151s146 66 146 151s-62 151 -146 151s-146 -66 -146 -151zM39 246c0 145 114 257 267 257s267 -112 267 -257s-114 -257 -267 -257s-267 112 -267 257zM316 563l78 164h95l-100 -164h-73zM165 563l78 164h95l-100 -164h-73z" />
    <glyph glyph-name="oslash" unicode="&#xf8;" horiz-adv-x="612" 
d="M160 246c0 -33 9 -63 25 -87l193 219c-20 12 -46 19 -72 19c-84 0 -146 -66 -146 -151zM39 246c0 145 114 257 267 257c55 0 107 -15 146 -40l48 55l51 -44l-46 -53c43 -46 68 -107 68 -175c0 -145 -114 -257 -267 -257c-55 0 -107 15 -146 40l-48 -55l-51 44l46 53
c-43 46 -68 107 -68 175zM452 246c0 33 -9 63 -25 87l-193 -219c20 -12 46 -19 72 -19c84 0 146 66 146 151z" />
    <glyph glyph-name="oslashacute" unicode="&#x1ff;" horiz-adv-x="612" 
d="M160 246c0 -33 9 -63 25 -87l193 219c-20 12 -46 19 -72 19c-84 0 -146 -66 -146 -151zM39 246c0 145 114 257 267 257c55 0 107 -15 146 -40l48 55l51 -44l-46 -53c43 -46 68 -107 68 -175c0 -145 -114 -257 -267 -257c-55 0 -107 15 -146 40l-48 -55l-51 44l46 53
c-43 46 -68 107 -68 175zM452 246c0 33 -9 63 -25 87l-193 -219c20 -12 46 -19 72 -19c84 0 146 66 146 151zM436 727l-113 -164h-86l81 164h118z" />
    <glyph glyph-name="oe" unicode="&#x153;" horiz-adv-x="970" 
d="M39 246c0 145 112 257 263 257c87 0 158 -37 203 -97h2c45 61 115 97 193 97c120 0 225 -83 225 -242c0 -15 -1 -36 -3 -48h-351c16 -81 78 -124 161 -124c60 0 117 23 166 57v-111c-46 -29 -114 -46 -177 -46c-92 0 -168 35 -214 97h-2c-46 -60 -117 -97 -203 -97
c-151 0 -263 111 -263 257zM160 247c0 -85 61 -152 144 -152c82 0 143 66 143 151s-62 151 -145 151c-82 0 -142 -65 -142 -150zM696 405c-56 0 -110 -34 -125 -108h241c-6 60 -50 108 -116 108z" />
    <glyph glyph-name="racute" unicode="&#x155;" horiz-adv-x="384" 
d="M71 0v492h120v-69l2 -1c34 48 85 75 143 75c11 0 22 -1 33 -4v-116c-12 3 -24 5 -40 5c-57 0 -103 -25 -137 -73v-309h-121zM322 727l-113 -164h-86l81 164h118z" />
    <glyph glyph-name="rcaron" unicode="&#x159;" horiz-adv-x="384" 
d="M71 0v492h120v-69l2 -1c34 48 85 75 143 75c11 0 22 -1 33 -4v-116c-12 3 -24 5 -40 5c-57 0 -103 -25 -137 -73v-309h-121zM361 727l-115 -164h-108l-115 164h88l81 -98l81 98h88z" />
    <glyph glyph-name="rcommaaccent" unicode="&#x157;" horiz-adv-x="384" 
d="M71 0v492h120v-69l2 -1c34 48 85 75 143 75c11 0 22 -1 33 -4v-116c-12 3 -24 5 -40 5c-57 0 -103 -25 -137 -73v-309h-121zM116 -54h110l-78 -218h-84z" />
    <glyph glyph-name="sacute" unicode="&#x15b;" horiz-adv-x="503" 
d="M61 27v115c60 -36 135 -54 189 -54c55 0 90 17 90 52c0 50 -63 48 -138 63c-94 20 -159 54 -159 143c1 103 91 157 209 157c59 0 129 -13 182 -39v-111c-60 35 -132 51 -183 51s-85 -15 -85 -48c0 -47 61 -45 135 -61c94 -19 162 -51 162 -145
c-1 -106 -93 -161 -215 -161c-61 0 -133 13 -187 38zM381 727l-113 -164h-86l81 164h118z" />
    <glyph glyph-name="scircumflex" unicode="&#x15d;" horiz-adv-x="503" 
d="M61 27v115c60 -36 135 -54 189 -54c55 0 90 17 90 52c0 50 -63 48 -138 63c-94 20 -159 54 -159 143c1 103 91 157 209 157c59 0 129 -13 182 -39v-111c-60 35 -132 51 -183 51s-85 -15 -85 -48c0 -47 61 -45 135 -61c94 -19 162 -51 162 -145
c-1 -106 -93 -161 -215 -161c-61 0 -133 13 -187 38zM82 563l115 164h108l115 -164h-88l-81 98l-81 -98h-88z" />
    <glyph glyph-name="scaron" unicode="&#x161;" horiz-adv-x="503" 
d="M61 27v115c60 -36 135 -54 189 -54c55 0 90 17 90 52c0 50 -63 48 -138 63c-94 20 -159 54 -159 143c1 103 91 157 209 157c59 0 129 -13 182 -39v-111c-60 35 -132 51 -183 51s-85 -15 -85 -48c0 -47 61 -45 135 -61c94 -19 162 -51 162 -145
c-1 -106 -93 -161 -215 -161c-61 0 -133 13 -187 38zM420 727l-115 -164h-108l-115 164h88l81 -98l81 98h88z" />
    <glyph glyph-name="scommaaccent" unicode="&#x219;" horiz-adv-x="503" 
d="M61 27v115c60 -36 135 -54 189 -54c55 0 90 17 90 52c0 50 -63 48 -138 63c-94 20 -159 54 -159 143c1 103 91 157 209 157c59 0 129 -13 182 -39v-111c-60 35 -132 51 -183 51s-85 -15 -85 -48c0 -47 61 -45 135 -61c94 -19 162 -51 162 -145
c-1 -106 -93 -161 -215 -161c-61 0 -133 13 -187 38zM221 -54h110l-78 -218h-84z" />
    <glyph glyph-name="germandbls" unicode="&#xdf;" horiz-adv-x="640" 
d="M71 0v566c0 72 20 125 62 159c38 31 95 50 173 50c76 0 134 -18 172 -47c42 -32 63 -77 63 -140c0 -43 -10 -86 -23 -116c-31 -4 -64 -11 -90 -21c-36 -14 -58 -31 -58 -63c0 -41 39 -53 100 -79s137 -60 137 -159c0 -108 -91 -161 -192 -161c-59 0 -119 15 -155 33v117
c43 -30 106 -51 153 -51c40 0 73 18 73 57c0 50 -55 60 -110 84c-75 32 -124 72 -124 150c0 54 24 94 62 122c22 16 58 34 102 44c2 9 4 23 4 35c0 21 -7 49 -29 67c-19 15 -47 22 -85 22s-67 -7 -86 -25c-19 -17 -28 -45 -28 -83v-561h-121z" />
    <glyph glyph-name="tcaron" unicode="&#x165;" horiz-adv-x="400" 
d="M149 37c-25 27 -40 68 -40 141v211h-86v103h86v131l121 21v-152h139v-103h-139v-194c0 -55 10 -101 65 -101c26 0 54 10 74 21v-103c-22 -13 -62 -23 -100 -23c-43 0 -89 13 -120 48zM348 772h110l-78 -218h-84z" />
    <glyph glyph-name="uni021B" unicode="&#x21b;" horiz-adv-x="400" 
d="M149 37c-25 27 -40 68 -40 141v211h-86v103h86v131l121 21v-152h139v-103h-139v-194c0 -55 10 -101 65 -101c26 0 54 10 74 21v-103c-22 -13 -62 -23 -100 -23c-43 0 -89 13 -120 48zM202 -54h110l-78 -218h-84z" />
    <glyph glyph-name="tbar" unicode="&#x167;" horiz-adv-x="409" 
d="M27 210v99h86v84h-86v99h86v131l121 21v-152h139v-99h-139v-84h139v-99h-139v-18c0 -54 10 -100 65 -100c26 0 54 9 74 20v-100c-22 -13 -62 -23 -100 -23c-43 0 -89 13 -120 48c-25 27 -40 68 -40 141v32h-86z" />
    <glyph glyph-name="ugrave" unicode="&#xf9;" horiz-adv-x="599" 
d="M114 41c-30 33 -44 78 -44 149v302h121v-282c0 -44 7 -70 22 -87c18 -21 42 -27 65 -27c48 0 95 27 128 64v332h121v-492h-120v54l-2 1c-41 -38 -94 -66 -160 -66c-54 0 -101 19 -131 52zM283 563l-113 164h118l81 -164h-86z" />
    <glyph glyph-name="uacute" unicode="&#xfa;" horiz-adv-x="599" 
d="M114 41c-30 33 -44 78 -44 149v302h121v-282c0 -44 7 -70 22 -87c18 -21 42 -27 65 -27c48 0 95 27 128 64v332h121v-492h-120v54l-2 1c-41 -38 -94 -66 -160 -66c-54 0 -101 19 -131 52zM429 727l-113 -164h-86l81 164h118z" />
    <glyph glyph-name="ucircumflex" unicode="&#xfb;" horiz-adv-x="599" 
d="M114 41c-30 33 -44 78 -44 149v302h121v-282c0 -44 7 -70 22 -87c18 -21 42 -27 65 -27c48 0 95 27 128 64v332h121v-492h-120v54l-2 1c-41 -38 -94 -66 -160 -66c-54 0 -101 19 -131 52zM130 563l115 164h108l115 -164h-88l-81 98l-81 -98h-88z" />
    <glyph glyph-name="utilde" unicode="&#x169;" horiz-adv-x="599" 
d="M114 41c-30 33 -44 78 -44 149v302h121v-282c0 -44 7 -70 22 -87c18 -21 42 -27 65 -27c48 0 95 27 128 64v332h121v-492h-120v54l-2 1c-41 -38 -94 -66 -160 -66c-54 0 -101 19 -131 52zM291 603c-27 13 -44 23 -68 23c-37 0 -62 -24 -83 -47l-2 1v92c19 25 48 42 85 42
c27 0 53 -9 84 -24c27 -13 44 -23 68 -23c37 0 62 24 83 47l2 -1v-92c-19 -25 -48 -42 -85 -42c-27 0 -53 9 -84 24z" />
    <glyph glyph-name="udieresis" unicode="&#xfc;" horiz-adv-x="599" 
d="M114 41c-30 33 -44 78 -44 149v302h121v-282c0 -44 7 -70 22 -87c18 -21 42 -27 65 -27c48 0 95 27 128 64v332h121v-492h-120v54l-2 1c-41 -38 -94 -66 -160 -66c-54 0 -101 19 -131 52zM338 647c0 36 30 66 66 66s66 -30 66 -66s-30 -66 -66 -66s-66 30 -66 66z
M128 647c0 36 30 66 66 66s66 -30 66 -66s-30 -66 -66 -66s-66 30 -66 66z" />
    <glyph glyph-name="umacron" unicode="&#x16b;" horiz-adv-x="599" 
d="M114 41c-30 33 -44 78 -44 149v302h121v-282c0 -44 7 -70 22 -87c18 -21 42 -27 65 -27c48 0 95 27 128 64v332h121v-492h-120v54l-2 1c-41 -38 -94 -66 -160 -66c-54 0 -101 19 -131 52zM154 603v84h290v-84h-290z" />
    <glyph glyph-name="ubreve" unicode="&#x16d;" horiz-adv-x="599" 
d="M114 41c-30 33 -44 78 -44 149v302h121v-282c0 -44 7 -70 22 -87c18 -21 42 -27 65 -27c48 0 95 27 128 64v332h121v-492h-120v54l-2 1c-41 -38 -94 -66 -160 -66c-54 0 -101 19 -131 52zM299 568c-97 0 -148 65 -151 156h71c4 -47 24 -90 80 -90s76 43 80 90h71
c-3 -91 -54 -156 -151 -156z" />
    <glyph glyph-name="uring" unicode="&#x16f;" horiz-adv-x="599" 
d="M114 41c-30 33 -44 78 -44 149v302h121v-282c0 -44 7 -70 22 -87c18 -21 42 -27 65 -27c48 0 95 27 128 64v332h121v-492h-120v54l-2 1c-41 -38 -94 -66 -160 -66c-54 0 -101 19 -131 52zM238 665c0 -34 23 -62 61 -62s61 28 61 62s-23 62 -61 62s-61 -28 -61 -62z
M423 665c0 -68 -53 -119 -124 -119s-124 51 -124 119s53 119 124 119s124 -51 124 -119z" />
    <glyph glyph-name="uhungarumlaut" unicode="&#x171;" horiz-adv-x="599" 
d="M114 41c-30 33 -44 78 -44 149v302h121v-282c0 -44 7 -70 22 -87c18 -21 42 -27 65 -27c48 0 95 27 128 64v332h121v-492h-120v54l-2 1c-41 -38 -94 -66 -160 -66c-54 0 -101 19 -131 52zM309 563l78 164h95l-100 -164h-73zM158 563l78 164h95l-100 -164h-73z" />
    <glyph glyph-name="uogonek" unicode="&#x173;" horiz-adv-x="599" 
d="M114 41c-30 33 -44 78 -44 149v302h121v-282c0 -44 7 -70 22 -87c18 -21 42 -27 65 -27c48 0 95 27 128 64v332h121v-492c-63 -35 -87 -75 -87 -108c0 -28 16 -46 48 -46c12 0 29 3 44 6v-73c-17 -6 -42 -10 -67 -10c-76 0 -125 42 -125 103c0 41 20 89 67 128v54l-2 1
c-41 -38 -94 -66 -160 -66c-54 0 -101 19 -131 52z" />
    <glyph glyph-name="wgrave" unicode="&#x1e81;" horiz-adv-x="825" 
d="M186 0l-169 492h128l62 -188c16 -48 31 -96 46 -147h2c15 46 34 102 50 147l66 188h88l67 -188c18 -51 35 -100 50 -147h2c14 48 30 98 46 147l62 188h122l-169 -492h-119l-61 171c-16 45 -32 93 -46 137h-2c-14 -44 -29 -89 -46 -137l-60 -171h-119zM400 563l-113 164
h118l81 -164h-86z" />
    <glyph glyph-name="wacute" unicode="&#x1e83;" horiz-adv-x="825" 
d="M186 0l-169 492h128l62 -188c16 -48 31 -96 46 -147h2c15 46 34 102 50 147l66 188h88l67 -188c18 -51 35 -100 50 -147h2c14 48 30 98 46 147l62 188h122l-169 -492h-119l-61 171c-16 45 -32 93 -46 137h-2c-14 -44 -29 -89 -46 -137l-60 -171h-119zM546 727l-113 -164
h-86l81 164h118z" />
    <glyph glyph-name="wcircumflex" unicode="&#x175;" horiz-adv-x="825" 
d="M186 0l-169 492h128l62 -188c16 -48 31 -96 46 -147h2c15 46 34 102 50 147l66 188h88l67 -188c18 -51 35 -100 50 -147h2c14 48 30 98 46 147l62 188h122l-169 -492h-119l-61 171c-16 45 -32 93 -46 137h-2c-14 -44 -29 -89 -46 -137l-60 -171h-119zM247 563l115 164
h108l115 -164h-88l-81 98l-81 -98h-88z" />
    <glyph glyph-name="wdieresis" unicode="&#x1e85;" horiz-adv-x="825" 
d="M186 0l-169 492h128l62 -188c16 -48 31 -96 46 -147h2c15 46 34 102 50 147l66 188h88l67 -188c18 -51 35 -100 50 -147h2c14 48 30 98 46 147l62 188h122l-169 -492h-119l-61 171c-16 45 -32 93 -46 137h-2c-14 -44 -29 -89 -46 -137l-60 -171h-119zM455 647
c0 36 30 66 66 66s66 -30 66 -66s-30 -66 -66 -66s-66 30 -66 66zM245 647c0 36 30 66 66 66s66 -30 66 -66s-30 -66 -66 -66s-66 30 -66 66z" />
    <glyph glyph-name="ygrave" unicode="&#x1ef3;" horiz-adv-x="553" 
d="M212 -220h-126l131 274l-203 438h131l67 -152c25 -57 45 -103 66 -155h2c23 55 48 111 72 165l64 142h123zM263 563l-113 164h118l81 -164h-86z" />
    <glyph glyph-name="yacute" unicode="&#xfd;" horiz-adv-x="553" 
d="M212 -220h-126l131 274l-203 438h131l67 -152c25 -57 45 -103 66 -155h2c23 55 48 111 72 165l64 142h123zM409 727l-113 -164h-86l81 164h118z" />
    <glyph glyph-name="ycircumflex" unicode="&#x177;" horiz-adv-x="553" 
d="M212 -220h-126l131 274l-203 438h131l67 -152c25 -57 45 -103 66 -155h2c23 55 48 111 72 165l64 142h123zM110 563l115 164h108l115 -164h-88l-81 98l-81 -98h-88z" />
    <glyph glyph-name="ydieresis" unicode="&#xff;" horiz-adv-x="553" 
d="M212 -220h-126l131 274l-203 438h131l67 -152c25 -57 45 -103 66 -155h2c23 55 48 111 72 165l64 142h123zM318 647c0 36 30 66 66 66s66 -30 66 -66s-30 -66 -66 -66s-66 30 -66 66zM108 647c0 36 30 66 66 66s66 -30 66 -66s-30 -66 -66 -66s-66 30 -66 66z" />
    <glyph glyph-name="zacute" unicode="&#x17a;" horiz-adv-x="483" 
d="M454 0h-436l-1 2l245 385l-1 2h-223v103h421l1 -2l-245 -385l1 -2h238v-103zM372 727l-113 -164h-86l81 164h118z" />
    <glyph glyph-name="zcaron" unicode="&#x17e;" horiz-adv-x="483" 
d="M454 0h-436l-1 2l245 385l-1 2h-223v103h421l1 -2l-245 -385l1 -2h238v-103zM411 727l-115 -164h-108l-115 164h88l81 -98l81 98h88z" />
    <glyph glyph-name="zdotaccent" unicode="&#x17c;" horiz-adv-x="483" 
d="M454 0h-436l-1 2l245 385l-1 2h-223v103h421l1 -2l-245 -385l1 -2h238v-103zM176 647c0 36 30 66 66 66s66 -30 66 -66s-30 -66 -66 -66s-66 30 -66 66z" />
    <glyph glyph-name="i.TRK" horiz-adv-x="263" 
d="M71 0v492h121v-492h-121z" />
    <glyph glyph-name="tilde.cap" 
d="M251 835c-27 13 -44 23 -68 23c-37 0 -62 -24 -83 -47l-2 1v92c19 25 48 42 85 42c27 0 53 -9 84 -24c27 -13 44 -23 68 -23c37 0 62 24 83 47l2 -1v-92c-19 -25 -48 -42 -85 -42c-27 0 -53 9 -84 24z" />
    <glyph glyph-name="dieresis.cap" 
d="M298 879c0 36 30 66 66 66s66 -30 66 -66s-30 -66 -66 -66s-66 30 -66 66zM88 879c0 36 30 66 66 66s66 -30 66 -66s-30 -66 -66 -66s-66 30 -66 66z" />
    <glyph glyph-name="macron.cap" 
d="M114 835v84h290v-84h-290z" />
    <glyph glyph-name="breve.cap" 
d="M259 800c-97 0 -148 65 -151 156h71c4 -47 24 -90 80 -90s76 43 80 90h71c-3 -91 -54 -156 -151 -156z" />
    <glyph glyph-name="ring.cap" 
d="M198 897c0 -34 23 -62 61 -62s61 28 61 62s-23 62 -61 62s-61 -28 -61 -62zM383 897c0 -68 -53 -119 -124 -119s-124 51 -124 119s53 119 124 119s124 -51 124 -119z" />
    <glyph glyph-name="hungarumlaut.cap" 
d="M269 795l78 164h95l-100 -164h-73zM118 795l78 164h95l-100 -164h-73z" />
    <glyph glyph-name="dotaccent.cap" 
d="M193 879c0 36 30 66 66 66s66 -30 66 -66s-30 -66 -66 -66s-66 30 -66 66z" />
    <glyph glyph-name="grave.cap" 
d="M243 795l-113 164h118l81 -164h-86z" />
    <glyph glyph-name="acute.cap" 
d="M389 959l-113 -164h-86l81 164h118z" />
    <glyph glyph-name="circumflex.cap" 
d="M90 795l115 164h108l115 -164h-88l-81 98l-81 -98h-88z" />
    <glyph glyph-name="caron.cap" 
d="M428 959l-115 -164h-108l-115 164h88l81 -98l81 98h88z" />
    <glyph glyph-name="question" unicode="?" horiz-adv-x="491" 
d="M134 207l-23 179c124 0 212 35 212 122c0 64 -49 111 -118 111c-41 0 -93 -17 -135 -46l-15 117c39 27 100 45 158 45c136 0 238 -96 238 -218c0 -120 -98 -205 -207 -218l2 -92h-112zM127 64c0 41 34 75 75 75s75 -34 75 -75s-34 -75 -75 -75s-75 34 -75 75z" />
    <glyph glyph-name="gbreve" unicode="&#x11f;" horiz-adv-x="597" 
d="M107 -195v120c48 -31 104 -50 158 -50c84 0 139 47 139 130v31l-2 2c-32 -23 -79 -36 -125 -36c-127 0 -235 97 -235 243c0 142 99 258 255 258c49 0 90 -11 124 -28l104 18v-487c0 -149 -102 -237 -256 -237c-62 0 -120 15 -162 36zM164 251c0 -85 55 -148 139 -148
c36 0 75 12 101 31v238c-26 15 -64 26 -101 26c-88 0 -139 -67 -139 -147zM306 568c-97 0 -148 65 -151 156h71c4 -47 24 -90 80 -90s76 43 80 90h71c-3 -91 -54 -156 -151 -156z" />
    <glyph glyph-name="gdotaccent" unicode="&#x121;" horiz-adv-x="597" 
d="M107 -195v120c48 -31 104 -50 158 -50c84 0 139 47 139 130v31l-2 2c-32 -23 -79 -36 -125 -36c-127 0 -235 97 -235 243c0 142 99 258 255 258c49 0 90 -11 124 -28l104 18v-487c0 -149 -102 -237 -256 -237c-62 0 -120 15 -162 36zM164 251c0 -85 55 -148 139 -148
c36 0 75 12 101 31v238c-26 15 -64 26 -101 26c-88 0 -139 -67 -139 -147zM240 647c0 36 30 66 66 66s66 -30 66 -66s-30 -66 -66 -66s-66 30 -66 66z" />
    <glyph glyph-name="gcommaaccent" unicode="&#x123;" horiz-adv-x="597" 
d="M107 -195v120c48 -31 104 -50 158 -50c84 0 139 47 139 130v31l-2 2c-32 -23 -79 -36 -125 -36c-127 0 -235 97 -235 243c0 142 99 258 255 258c49 0 90 -11 124 -28l104 18v-487c0 -149 -102 -237 -256 -237c-62 0 -120 15 -162 36zM164 251c0 -85 55 -148 139 -148
c36 0 75 12 101 31v238c-26 15 -64 26 -101 26c-88 0 -139 -67 -139 -147zM225 556l78 218h84l-52 -218h-110z" />
    <glyph glyph-name="dcroat" unicode="&#x111;" horiz-adv-x="602" 
d="M256 578v91h154v95h121v-95h69v-91h-69v-578h-120v28l-2 1c-33 -23 -78 -40 -131 -40c-129 0 -236 97 -236 248c0 153 109 266 260 266c43 0 77 -9 106 -22l2 1v96h-154zM164 243c0 -85 51 -152 139 -152c41 0 78 15 107 34v250c-28 14 -63 25 -100 25
c-92 0 -146 -69 -146 -157z" />
    <glyph glyph-name="quotedblleft" unicode="&#x201c;" horiz-adv-x="442" 
d="M48 467l88 275h78l-57 -275h-109zM223 467l88 275h78l-57 -275h-109z" />
    <glyph glyph-name="quotesinglbase" unicode="&#x201a;" horiz-adv-x="267" 
d="M53 -111l57 275h109l-88 -275h-78z" />
    <glyph glyph-name="quotedblbase" unicode="&#x201e;" horiz-adv-x="442" 
d="M53 -111l57 275h109l-88 -275h-78zM228 -111l57 275h109l-88 -275h-78z" />
    <glyph glyph-name="lessequal" unicode="&#x2264;" horiz-adv-x="701" 
d="M86 374v66l530 214v-97l-369 -149v-2l369 -149v-97zM86 0v80h530v-80h-530z" />
    <glyph glyph-name="greaterequal" unicode="&#x2265;" horiz-adv-x="701" 
d="M616 440v-66l-530 -214v97l369 149v2l-369 149v97zM616 80v-80h-530v80h530z" />
    <glyph glyph-name="gcircumflex" unicode="&#x11d;" horiz-adv-x="597" 
d="M107 -195v120c48 -31 104 -50 158 -50c84 0 139 47 139 130v31l-2 2c-32 -23 -79 -36 -125 -36c-127 0 -235 97 -235 243c0 142 99 258 255 258c49 0 90 -11 124 -28l104 18v-487c0 -149 -102 -237 -256 -237c-62 0 -120 15 -162 36zM164 251c0 -85 55 -148 139 -148
c36 0 75 12 101 31v238c-26 15 -64 26 -101 26c-88 0 -139 -67 -139 -147zM137 563l115 164h108l115 -164h-88l-81 98l-81 -98h-88z" />
    <glyph glyph-name="scedilla" unicode="&#x15f;" horiz-adv-x="503" 
d="M202 -88l24 78c-56 2 -118 15 -165 37v115c60 -36 135 -54 189 -54c55 0 90 17 90 52c0 50 -63 48 -138 63c-94 20 -159 54 -159 143c1 103 91 157 209 157c59 0 129 -13 182 -39v-111c-60 35 -132 51 -183 51s-85 -15 -85 -48c0 -47 61 -45 135 -61
c94 -19 162 -51 162 -145c-1 -97 -77 -150 -183 -159l-9 -31c54 -12 88 -42 88 -91c0 -54 -43 -90 -109 -90c-32 0 -63 8 -84 18l18 57c22 -11 45 -19 65 -19c23 0 43 10 43 31c0 36 -58 44 -90 46z" />
    <glyph glyph-name="tcommaaccent" unicode="&#x163;" horiz-adv-x="400" 
d="M190 -88l26 84c-25 7 -49 20 -67 41c-25 27 -40 68 -40 141v211h-86v103h86v131l121 21v-152h139v-103h-139v-194c0 -55 10 -101 65 -101c26 0 54 10 74 21v-103c-22 -13 -62 -23 -101 -23l-9 -29c54 -12 88 -42 88 -91c0 -54 -43 -90 -109 -90c-32 0 -62 8 -83 18l17 57
c22 -11 45 -19 65 -19c23 0 43 10 43 31c0 36 -58 44 -90 46z" />
    <glyph glyph-name="ampersand" unicode="&#x26;" horiz-adv-x="707" 
d="M542 434h124l-101 -267l164 -165l-1 -2h-151l-69 69c-41 -46 -109 -80 -208 -80c-171 0 -253 103 -253 209c0 80 49 144 133 188l10 5l-15 16c-42 43 -75 91 -75 152c0 102 85 177 200 177c118 0 198 -80 198 -177c0 -71 -43 -126 -101 -163l-35 -23l116 -117zM304 95
c60 0 98 24 121 59l-161 163l-27 -14c-49 -26 -69 -65 -69 -101c0 -53 43 -107 136 -107zM220 556c0 -28 14 -52 43 -83l26 -27l36 26c32 22 53 47 53 83c0 45 -34 74 -80 74c-49 0 -78 -33 -78 -73z" />
    <glyph glyph-name="at" unicode="@" horiz-adv-x="801" 
d="M615 54c-55 0 -94 22 -118 57h-2c-33 -38 -79 -58 -128 -58c-92 0 -158 71 -158 173c0 108 74 213 195 213c39 0 70 -11 100 -32l69 12l-17 -197c-1 -11 -1 -18 -1 -21c0 -52 23 -88 69 -88c50 0 89 41 89 135c0 167 -120 315 -311 315c-190 0 -313 -147 -313 -317
s121 -317 311 -317c85 0 156 29 208 73l32 -49c-64 -52 -148 -80 -238 -80c-216 0 -373 162 -373 372c0 213 158 374 372 374c216 0 372 -165 372 -366c0 -121 -57 -199 -158 -199zM381 124c33 0 69 15 93 48c-2 18 -1 37 1 60l9 104c-18 17 -48 33 -80 33
c-71 0 -112 -74 -112 -142c0 -60 32 -103 89 -103z" />
    <glyph glyph-name="onequarter" unicode="&#xbc;" horiz-adv-x="963" 
d="M287 -13h-105l476 737h105zM748 0v93h-225l-1 2l232 339h88v-268h67v-73h-67v-93h-94zM704 241l-50 -73l1 -2h93v46c0 37 1 78 2 97l-2 1c-14 -24 -29 -47 -44 -69zM157 294v323l-96 -33v85l190 66v-441h-94z" />
    <glyph glyph-name="four.superior" unicode="&#x2074;" horiz-adv-x="416" 
d="M229 422v93h-225l-1 2l232 339h88v-268h67v-73h-67v-93h-94zM185 663l-50 -73l1 -2h93v46c0 37 1 78 2 97l-2 1c-14 -24 -29 -47 -44 -69z" />
    <glyph glyph-name="one.superior" unicode="&#xb9;" horiz-adv-x="329" 
d="M139 422v323l-96 -33v85l190 66v-441h-94z" />
    <glyph glyph-name="agrave" unicode="&#xe0;" horiz-adv-x="533" 
d="M206 -11c-40 0 -81 9 -114 33c-34 25 -55 64 -55 113c0 54 26 94 63 119s87 34 138 34c34 0 65 -4 95 -11v29c0 30 -8 52 -24 67c-18 16 -46 24 -83 24c-59 0 -110 -20 -148 -44v110c39 22 96 40 166 40c64 0 121 -15 158 -46c33 -28 52 -70 52 -131v-189
c0 -27 10 -46 34 -46c9 0 19 3 27 7v-95c-15 -7 -36 -12 -60 -12c-40 0 -78 14 -101 45h-2c-30 -24 -81 -47 -146 -47zM236 85c37 0 73 13 97 30v83c-22 6 -52 10 -76 10c-50 0 -99 -16 -99 -64c0 -40 35 -59 78 -59zM249 563l-113 164h118l81 -164h-86z" />
    <glyph glyph-name="aacute" unicode="&#xe1;" horiz-adv-x="533" 
d="M206 -11c-40 0 -81 9 -114 33c-34 25 -55 64 -55 113c0 54 26 94 63 119s87 34 138 34c34 0 65 -4 95 -11v29c0 30 -8 52 -24 67c-18 16 -46 24 -83 24c-59 0 -110 -20 -148 -44v110c39 22 96 40 166 40c64 0 121 -15 158 -46c33 -28 52 -70 52 -131v-189
c0 -27 10 -46 34 -46c9 0 19 3 27 7v-95c-15 -7 -36 -12 -60 -12c-40 0 -78 14 -101 45h-2c-30 -24 -81 -47 -146 -47zM236 85c37 0 73 13 97 30v83c-22 6 -52 10 -76 10c-50 0 -99 -16 -99 -64c0 -40 35 -59 78 -59zM395 727l-113 -164h-86l81 164h118z" />
    <glyph glyph-name="acircumflex" unicode="&#xe2;" horiz-adv-x="533" 
d="M206 -11c-40 0 -81 9 -114 33c-34 25 -55 64 -55 113c0 54 26 94 63 119s87 34 138 34c34 0 65 -4 95 -11v29c0 30 -8 52 -24 67c-18 16 -46 24 -83 24c-59 0 -110 -20 -148 -44v110c39 22 96 40 166 40c64 0 121 -15 158 -46c33 -28 52 -70 52 -131v-189
c0 -27 10 -46 34 -46c9 0 19 3 27 7v-95c-15 -7 -36 -12 -60 -12c-40 0 -78 14 -101 45h-2c-30 -24 -81 -47 -146 -47zM236 85c37 0 73 13 97 30v83c-22 6 -52 10 -76 10c-50 0 -99 -16 -99 -64c0 -40 35 -59 78 -59zM96 563l115 164h108l115 -164h-88l-81 98l-81 -98h-88z
" />
    <glyph glyph-name="atilde" unicode="&#xe3;" horiz-adv-x="533" 
d="M206 -11c-40 0 -81 9 -114 33c-34 25 -55 64 -55 113c0 54 26 94 63 119s87 34 138 34c34 0 65 -4 95 -11v29c0 30 -8 52 -24 67c-18 16 -46 24 -83 24c-59 0 -110 -20 -148 -44v110c39 22 96 40 166 40c64 0 121 -15 158 -46c33 -28 52 -70 52 -131v-189
c0 -27 10 -46 34 -46c9 0 19 3 27 7v-95c-15 -7 -36 -12 -60 -12c-40 0 -78 14 -101 45h-2c-30 -24 -81 -47 -146 -47zM236 85c37 0 73 13 97 30v83c-22 6 -52 10 -76 10c-50 0 -99 -16 -99 -64c0 -40 35 -59 78 -59zM257 603c-27 13 -44 23 -68 23c-37 0 -62 -24 -83 -47
l-2 1v92c19 25 48 42 85 42c27 0 53 -9 84 -24c27 -13 44 -23 68 -23c37 0 62 24 83 47l2 -1v-92c-19 -25 -48 -42 -85 -42c-27 0 -53 9 -84 24z" />
    <glyph glyph-name="adieresis" unicode="&#xe4;" horiz-adv-x="533" 
d="M206 -11c-40 0 -81 9 -114 33c-34 25 -55 64 -55 113c0 54 26 94 63 119s87 34 138 34c34 0 65 -4 95 -11v29c0 30 -8 52 -24 67c-18 16 -46 24 -83 24c-59 0 -110 -20 -148 -44v110c39 22 96 40 166 40c64 0 121 -15 158 -46c33 -28 52 -70 52 -131v-189
c0 -27 10 -46 34 -46c9 0 19 3 27 7v-95c-15 -7 -36 -12 -60 -12c-40 0 -78 14 -101 45h-2c-30 -24 -81 -47 -146 -47zM236 85c37 0 73 13 97 30v83c-22 6 -52 10 -76 10c-50 0 -99 -16 -99 -64c0 -40 35 -59 78 -59zM304 647c0 36 30 66 66 66s66 -30 66 -66
s-30 -66 -66 -66s-66 30 -66 66zM94 647c0 36 30 66 66 66s66 -30 66 -66s-30 -66 -66 -66s-66 30 -66 66z" />
    <glyph glyph-name="amacron" unicode="&#x101;" horiz-adv-x="533" 
d="M206 -11c-40 0 -81 9 -114 33c-34 25 -55 64 -55 113c0 54 26 94 63 119s87 34 138 34c34 0 65 -4 95 -11v29c0 30 -8 52 -24 67c-18 16 -46 24 -83 24c-59 0 -110 -20 -148 -44v110c39 22 96 40 166 40c64 0 121 -15 158 -46c33 -28 52 -70 52 -131v-189
c0 -27 10 -46 34 -46c9 0 19 3 27 7v-95c-15 -7 -36 -12 -60 -12c-40 0 -78 14 -101 45h-2c-30 -24 -81 -47 -146 -47zM236 85c37 0 73 13 97 30v83c-22 6 -52 10 -76 10c-50 0 -99 -16 -99 -64c0 -40 35 -59 78 -59zM120 603v84h290v-84h-290z" />
    <glyph glyph-name="abreve" unicode="&#x103;" horiz-adv-x="533" 
d="M206 -11c-40 0 -81 9 -114 33c-34 25 -55 64 -55 113c0 54 26 94 63 119s87 34 138 34c34 0 65 -4 95 -11v29c0 30 -8 52 -24 67c-18 16 -46 24 -83 24c-59 0 -110 -20 -148 -44v110c39 22 96 40 166 40c64 0 121 -15 158 -46c33 -28 52 -70 52 -131v-189
c0 -27 10 -46 34 -46c9 0 19 3 27 7v-95c-15 -7 -36 -12 -60 -12c-40 0 -78 14 -101 45h-2c-30 -24 -81 -47 -146 -47zM236 85c37 0 73 13 97 30v83c-22 6 -52 10 -76 10c-50 0 -99 -16 -99 -64c0 -40 35 -59 78 -59zM265 568c-97 0 -148 65 -151 156h71
c4 -47 24 -90 80 -90s76 43 80 90h71c-3 -91 -54 -156 -151 -156z" />
    <glyph glyph-name="aring" unicode="&#xe5;" horiz-adv-x="533" 
d="M206 -11c-40 0 -81 9 -114 33c-34 25 -55 64 -55 113c0 54 26 94 63 119s87 34 138 34c34 0 65 -4 95 -11v29c0 30 -8 52 -24 67c-18 16 -46 24 -83 24c-59 0 -110 -20 -148 -44v110c39 22 96 40 166 40c64 0 121 -15 158 -46c33 -28 52 -70 52 -131v-189
c0 -27 10 -46 34 -46c9 0 19 3 27 7v-95c-15 -7 -36 -12 -60 -12c-40 0 -78 14 -101 45h-2c-30 -24 -81 -47 -146 -47zM236 85c37 0 73 13 97 30v83c-22 6 -52 10 -76 10c-50 0 -99 -16 -99 -64c0 -40 35 -59 78 -59zM204 665c0 -34 23 -62 61 -62s61 28 61 62
s-23 62 -61 62s-61 -28 -61 -62zM389 665c0 -68 -53 -119 -124 -119s-124 51 -124 119s53 119 124 119s124 -51 124 -119z" />
    <glyph glyph-name="a.alt" horiz-adv-x="602" 
d="M42 238c0 155 111 265 262 265c45 0 88 -11 126 -30l101 18v-491h-119v28l-2 1c-29 -22 -77 -40 -131 -40c-130 0 -237 98 -237 249zM164 245c0 -86 52 -154 141 -154c38 0 76 13 105 34v249c-27 14 -63 26 -101 26c-91 0 -145 -67 -145 -155z" />
    <glyph glyph-name="agrave.alt" horiz-adv-x="602" 
d="M42 238c0 155 111 265 262 265c45 0 88 -11 126 -30l101 18v-491h-119v28l-2 1c-29 -22 -77 -40 -131 -40c-130 0 -237 98 -237 249zM164 245c0 -86 52 -154 141 -154c38 0 76 13 105 34v249c-27 14 -63 26 -101 26c-91 0 -145 -67 -145 -155zM289 563l-113 164h118
l81 -164h-86z" />
    <glyph glyph-name="aacute.alt" horiz-adv-x="602" 
d="M435 727l-113 -164h-86l81 164h118zM42 238c0 155 111 265 262 265c45 0 88 -11 126 -30l101 18v-491h-119v28l-2 1c-29 -22 -77 -40 -131 -40c-130 0 -237 98 -237 249zM164 245c0 -86 52 -154 141 -154c38 0 76 13 105 34v249c-27 14 -63 26 -101 26
c-91 0 -145 -67 -145 -155z" />
    <glyph glyph-name="acircumflex.alt" horiz-adv-x="602" 
d="M136 563l115 164h108l115 -164h-88l-81 98l-81 -98h-88zM42 238c0 155 111 265 262 265c45 0 88 -11 126 -30l101 18v-491h-119v28l-2 1c-29 -22 -77 -40 -131 -40c-130 0 -237 98 -237 249zM164 245c0 -86 52 -154 141 -154c38 0 76 13 105 34v249
c-27 14 -63 26 -101 26c-91 0 -145 -67 -145 -155z" />
    <glyph glyph-name="atilde.alt" horiz-adv-x="602" 
d="M42 238c0 155 111 265 262 265c45 0 88 -11 126 -30l101 18v-491h-119v28l-2 1c-29 -22 -77 -40 -131 -40c-130 0 -237 98 -237 249zM164 245c0 -86 52 -154 141 -154c38 0 76 13 105 34v249c-27 14 -63 26 -101 26c-91 0 -145 -67 -145 -155zM297 603
c-27 13 -44 23 -68 23c-37 0 -62 -24 -83 -47l-2 1v92c19 25 48 42 85 42c27 0 53 -9 84 -24c27 -13 44 -23 68 -23c37 0 62 24 83 47l2 -1v-92c-19 -25 -48 -42 -85 -42c-27 0 -53 9 -84 24z" />
    <glyph glyph-name="adieresis.alt" horiz-adv-x="602" 
d="M344 647c0 36 30 66 66 66s66 -30 66 -66s-30 -66 -66 -66s-66 30 -66 66zM134 647c0 36 30 66 66 66s66 -30 66 -66s-30 -66 -66 -66s-66 30 -66 66zM42 238c0 155 111 265 262 265c45 0 88 -11 126 -30l101 18v-491h-119v28l-2 1c-29 -22 -77 -40 -131 -40
c-130 0 -237 98 -237 249zM164 245c0 -86 52 -154 141 -154c38 0 76 13 105 34v249c-27 14 -63 26 -101 26c-91 0 -145 -67 -145 -155z" />
    <glyph glyph-name="amacron.alt" horiz-adv-x="602" 
d="M42 238c0 155 111 265 262 265c45 0 88 -11 126 -30l101 18v-491h-119v28l-2 1c-29 -22 -77 -40 -131 -40c-130 0 -237 98 -237 249zM164 245c0 -86 52 -154 141 -154c38 0 76 13 105 34v249c-27 14 -63 26 -101 26c-91 0 -145 -67 -145 -155zM160 603v84h290v-84h-290z
" />
    <glyph glyph-name="abreve.alt" horiz-adv-x="602" 
d="M42 238c0 155 111 265 262 265c45 0 88 -11 126 -30l101 18v-491h-119v28l-2 1c-29 -22 -77 -40 -131 -40c-130 0 -237 98 -237 249zM164 245c0 -86 52 -154 141 -154c38 0 76 13 105 34v249c-27 14 -63 26 -101 26c-91 0 -145 -67 -145 -155zM305 568
c-97 0 -148 65 -151 156h71c4 -47 24 -90 80 -90s76 43 80 90h71c-3 -91 -54 -156 -151 -156z" />
    <glyph glyph-name="aring.alt" horiz-adv-x="602" 
d="M244 665c0 -34 23 -62 61 -62s61 28 61 62s-23 62 -61 62s-61 -28 -61 -62zM429 665c0 -68 -53 -119 -124 -119s-124 51 -124 119s53 119 124 119s124 -51 124 -119zM42 238c0 155 111 265 262 265c45 0 88 -11 126 -30l101 18v-491h-119v28l-2 1
c-29 -22 -77 -40 -131 -40c-130 0 -237 98 -237 249zM164 245c0 -86 52 -154 141 -154c38 0 76 13 105 34v249c-27 14 -63 26 -101 26c-91 0 -145 -67 -145 -155z" />
    <glyph glyph-name="ae.alt" horiz-adv-x="929" 
d="M42 238c0 155 111 265 259 265c42 0 82 -10 117 -26l104 19v-45l2 -1c33 35 82 53 136 53c117 0 224 -83 224 -241c0 -15 -1 -37 -3 -49h-352c16 -81 78 -124 161 -124c60 0 120 23 167 57v-111c-44 -28 -116 -46 -179 -46c-85 0 -158 30 -207 82
c-45 -46 -112 -82 -192 -82c-131 0 -237 98 -237 249zM302 91c41 0 90 16 123 51c-12 31 -19 65 -19 103v129c-26 14 -62 26 -100 26c-88 0 -142 -67 -142 -154s53 -155 138 -155zM655 405c-56 0 -111 -34 -126 -108h241c-6 60 -49 108 -115 108z" />
    <glyph glyph-name="aeacute.alt" horiz-adv-x="929" 
d="M624 727l-113 -164h-86l81 164h118zM42 238c0 155 111 265 259 265c42 0 82 -10 117 -26l104 19v-45l2 -1c33 35 82 53 136 53c117 0 224 -83 224 -241c0 -15 -1 -37 -3 -49h-352c16 -81 78 -124 161 -124c60 0 120 23 167 57v-111c-44 -28 -116 -46 -179 -46
c-85 0 -158 30 -207 82c-45 -46 -112 -82 -192 -82c-131 0 -237 98 -237 249zM302 91c41 0 90 16 123 51c-12 31 -19 65 -19 103v129c-26 14 -62 26 -100 26c-88 0 -142 -67 -142 -154s53 -155 138 -155zM655 405c-56 0 -111 -34 -126 -108h241c-6 60 -49 108 -115 108z" />
    <glyph glyph-name="thorn" unicode="&#xfe;" horiz-adv-x="601" 
d="M71 -220v984h121v-298l2 -1c32 21 77 38 130 38c128 0 236 -100 236 -252c0 -156 -114 -262 -260 -262c-43 0 -77 9 -106 21l-2 -1v-229h-121zM192 365v-249c26 -14 65 -26 102 -26c89 0 144 68 144 155s-54 154 -140 154c-40 0 -78 -15 -106 -34z" />
    <glyph glyph-name="aogonek.alt" horiz-adv-x="602" 
d="M42 238c0 155 112 265 261 265c47 0 89 -11 127 -30l101 18v-491c-61 -35 -86 -75 -86 -108c0 -28 17 -46 49 -46c11 0 27 2 43 6v-73c-16 -6 -41 -10 -65 -10c-78 0 -127 42 -127 105c0 40 20 87 67 126v28l-2 1c-29 -22 -77 -40 -132 -40c-129 0 -236 98 -236 249z
M164 245c0 -86 52 -154 141 -154c38 0 76 13 105 34v249c-27 14 -63 26 -101 26c-91 0 -145 -67 -145 -155z" />
    <glyph glyph-name="aogonek" unicode="&#x105;" horiz-adv-x="533" 
d="M515 3c-72 -18 -114 -73 -114 -113c0 -26 16 -44 47 -44c12 0 30 2 46 6v-72c-18 -6 -43 -11 -68 -11c-76 0 -125 43 -125 103c0 46 27 100 81 136v2c-11 6 -20 15 -28 26h-2c-30 -24 -81 -47 -146 -47c-40 0 -81 9 -114 33c-34 25 -55 64 -55 113c0 54 26 94 63 119
s87 34 138 34c34 0 65 -4 95 -11v29c0 30 -8 52 -24 67c-18 16 -46 24 -83 24c-59 0 -110 -20 -148 -44v110c39 22 96 40 166 40c64 0 121 -15 158 -46c33 -28 52 -70 52 -131v-189c0 -27 10 -46 34 -46c9 0 19 3 27 7v-95zM236 85c37 0 73 13 97 30v83c-22 6 -52 10 -76 10
c-50 0 -99 -16 -99 -64c0 -40 35 -59 78 -59z" />
    <glyph glyph-name="apple" unicode="&#xf8ff;" horiz-adv-x="1000" 
d="M481 674c-1 6 -2 17 -2 27c0 40 17 82 51 120s72 60 120 66c9 1 15 1 15 1c1 -7 2 -15 2 -25c0 -48 -21 -96 -56 -132c-37 -38 -81 -57 -130 -57zM206 96c-61 82 -106 200 -106 317c0 82 22 148 67 197s104 74 177 74c32 0 52 -5 94 -21c34 -13 43 -16 56 -16
c12 0 21 3 79 23c27 9 56 14 88 14c78 0 140 -29 187 -87c-67 -49 -101 -106 -101 -176c0 -77 42 -140 125 -183c-23 -65 -55 -122 -98 -171c-42 -48 -81 -72 -116 -72c-17 0 -35 5 -82 22c-30 11 -49 17 -77 17c-22 0 -41 -4 -65 -13c-50 -19 -69 -26 -87 -26
c-40 0 -91 34 -141 101z" />
    <glyph glyph-name="estimated" unicode="&#x212e;" horiz-adv-x="746" 
d="M171 137c0 -88 124 -126 208 -126s180 38 238 118l33 -7c-65 -89 -158 -139 -274 -139c-197 0 -337 143 -337 322c0 180 141 323 336 323c165 0 324 -102 333 -296c1 -31 -1 -32 -32 -32h-473c-34 0 -32 -2 -32 -32v-131zM203 328h342c34 0 32 2 32 32v125
c0 64 -91 115 -203 115s-203 -51 -203 -115v-125c0 -30 -2 -32 32 -32z" />
    <glyph glyph-name="zero" unicode="0" horiz-adv-x="624" 
d="M182 362c0 -89 10 -169 43 -214c20 -27 49 -44 87 -44s67 17 87 44c33 45 43 125 43 214s-10 169 -43 214c-20 27 -49 44 -87 44s-67 -17 -87 -44c-33 -45 -43 -125 -43 -214zM55 362c0 127 22 217 68 280c45 61 113 93 189 93s144 -32 189 -93c46 -63 68 -153 68 -280
s-22 -217 -68 -280c-45 -61 -113 -93 -189 -93s-144 32 -189 93c-46 63 -68 153 -68 280z" />
    <glyph glyph-name="one" unicode="1" horiz-adv-x="513" 
d="M228 0v568l-157 -58v119l284 106v-735h-127z" />
    <glyph glyph-name="two" unicode="2" horiz-adv-x="572" 
d="M21 2l230 290c77 97 114 155 114 216c0 73 -51 112 -125 112c-52 0 -113 -20 -166 -59v122c40 27 100 52 176 52c135 0 243 -80 243 -217c0 -90 -46 -169 -126 -270l-106 -133l1 -2h257v-113h-497z" />
    <glyph glyph-name="three" unicode="3" horiz-adv-x="563" 
d="M51 51v131c63 -50 133 -79 199 -79c77 0 131 39 131 106c0 61 -45 102 -140 102h-70v102h67c84 0 128 43 128 104c0 65 -50 104 -123 104c-52 0 -108 -19 -149 -45v119c41 25 98 40 157 40c140 0 242 -83 242 -200c0 -76 -43 -138 -111 -161v-2c85 -23 126 -93 126 -171
c0 -127 -110 -212 -254 -212c-80 0 -157 26 -203 62z" />
    <glyph glyph-name="four" unicode="4" horiz-adv-x="647" 
d="M10 165l-1 2l371 557h115v-456h119v-103h-119v-165h-125v165h-360zM287 408l-92 -138l1 -2h174v128c0 47 1 100 2 139l-2 1c-23 -37 -55 -86 -83 -128z" />
    <glyph glyph-name="five" unicode="5" horiz-adv-x="556" 
d="M51 35l9 121c56 -35 117 -53 176 -53c87 0 148 41 148 109c0 98 -129 121 -221 121c-27 0 -57 -2 -83 -6l30 397h377l-9 -113h-251l-13 -176c139 -2 297 -58 297 -221c0 -137 -112 -225 -271 -225c-73 0 -144 19 -189 46z" />
    <glyph glyph-name="six" unicode="6" horiz-adv-x="613" 
d="M295 724h147l-196 -301l2 -2c23 14 56 25 94 25c121 0 220 -92 220 -222c0 -135 -109 -235 -258 -235c-145 0 -257 95 -257 246c0 74 25 139 89 239zM176 225c0 -65 52 -127 130 -127c71 0 131 49 131 123c0 70 -54 124 -129 124c-73 0 -132 -50 -132 -120z" />
    <glyph glyph-name="seven" unicode="7" horiz-adv-x="563" 
d="M106 0l252 611h-313v113h491l1 -2l-298 -722h-133z" />
    <glyph glyph-name="eight" unicode="8" horiz-adv-x="624" 
d="M312 424c63 0 115 43 115 102s-50 102 -115 102s-115 -43 -115 -102s52 -102 115 -102zM312 97c73 0 130 47 130 115c0 69 -58 118 -130 118s-130 -49 -130 -118c0 -68 57 -115 130 -115zM312 -11c-152 0 -258 90 -258 217c0 81 44 148 123 177v2
c-65 27 -101 80 -101 150c0 115 99 200 236 200s236 -85 236 -200c0 -70 -36 -123 -101 -150v-2c79 -29 123 -96 123 -177c0 -127 -106 -217 -258 -217z" />
    <glyph glyph-name="nine" unicode="9" horiz-adv-x="600" 
d="M307 0h-147l183 294l-1 1c-21 -11 -49 -17 -81 -17c-114 0 -220 87 -220 220c0 137 111 237 259 237c143 0 255 -93 255 -240c0 -84 -37 -155 -87 -236zM296 381c77 0 129 54 129 120c0 65 -52 125 -129 125c-69 0 -130 -49 -130 -123c0 -68 52 -122 130 -122z" />
    <glyph glyph-name="two.superior" unicode="&#xb2;" horiz-adv-x="371" 
d="M15 422l-1 2l142 172c44 54 66 90 66 124c0 36 -25 56 -67 56c-37 0 -75 -15 -108 -38v91c30 18 69 34 119 34c95 0 153 -54 153 -135c0 -47 -20 -92 -70 -153l-54 -65l1 -2h137v-86h-318z" />
    <glyph glyph-name="three.superior" unicode="&#xb3;" horiz-adv-x="361" 
d="M36 451v93c38 -26 80 -44 123 -44c45 0 73 20 73 53c0 30 -25 50 -80 50h-45v72h42c51 0 73 22 73 51c0 32 -27 52 -71 52c-34 0 -68 -12 -95 -28v87c26 15 65 26 107 26c89 0 157 -50 157 -121c0 -41 -23 -79 -63 -93v-2c53 -18 73 -61 73 -102
c0 -79 -75 -130 -168 -130c-53 0 -97 17 -126 36z" />
    <glyph glyph-name="onehalf" unicode="&#xbd;" horiz-adv-x="992" 
d="M603 0l-1 2l142 172c44 54 66 90 66 124c0 36 -25 56 -67 56c-37 0 -75 -15 -108 -38v91c30 18 69 34 119 34c95 0 153 -54 153 -135c0 -47 -20 -92 -70 -153l-54 -65l1 -2h137v-86h-318zM287 -13h-105l476 737h105zM157 294v323l-96 -33v85l190 66v-441h-94z" />
    <glyph glyph-name="threequarters" unicode="&#xbe;" horiz-adv-x="1023" 
d="M69 323v93c38 -26 80 -44 123 -44c45 0 73 20 73 53c0 30 -25 50 -80 50h-45v72h42c51 0 73 22 73 51c0 32 -27 52 -71 52c-34 0 -68 -12 -95 -28v87c26 15 65 26 107 26c89 0 157 -50 157 -121c0 -41 -23 -79 -63 -93v-2c53 -18 73 -61 73 -102
c0 -79 -75 -130 -168 -130c-53 0 -97 17 -126 36zM347 -13h-105l476 737h105zM808 0v93h-225l-1 2l232 339h88v-268h67v-73h-67v-93h-94zM764 241l-50 -73l1 -2h93v46c0 37 1 78 2 97l-2 1c-14 -24 -29 -47 -44 -69z" />
    <glyph glyph-name="kgreenlandic" unicode="&#x138;" horiz-adv-x="555" 
d="M71 0v492h121v-212l2 -1l196 213h144l-206 -220l225 -272h-149l-210 259l-2 -1v-258h-121z" />
    <glyph glyph-name="ordfeminine.alt" horiz-adv-x="392" 
d="M28 563c0 101 73 172 171 172c29 0 57 -6 82 -19l71 13v-321h-86v17l-2 1c-23 -15 -50 -25 -83 -25c-83 0 -153 64 -153 162zM117 568c0 -52 31 -94 85 -94c22 0 44 8 62 19v153c-16 8 -37 15 -60 15c-55 0 -87 -41 -87 -93z" />
    <glyph glyph-name="longs" unicode="&#x17f;" horiz-adv-x="301" 
d="M97 0v389h-74v103h74v84c0 66 12 121 48 156c33 32 82 43 127 43c28 0 57 -4 79 -12v-102c-19 5 -50 9 -68 9c-54 0 -65 -36 -65 -83v-587h-121z" />
    <glyph glyph-name="ff" unicode="&#xfb00;" horiz-adv-x="690" 
d="M429 0v389h-211v-389h-121v389h-74v103h74v84c0 66 12 121 48 156c33 32 82 43 127 43c28 0 57 -4 79 -12v-102c-19 5 -50 9 -68 9c-54 0 -65 -36 -65 -83v-95h211v84c0 66 12 121 48 156c33 32 82 43 127 43c28 0 57 -4 79 -12v-102c-19 5 -50 9 -68 9
c-54 0 -65 -36 -65 -83v-95h120v-103h-120v-389h-121z" />
    <glyph glyph-name="ij" unicode="&#x133;" horiz-adv-x="528" 
d="M71 0v492h121v-492h-121zM56 655c0 41 34 75 76 75c41 0 75 -34 75 -75s-34 -75 -76 -75c-41 0 -75 34 -75 75zM336 -40v532h121v-525c0 -82 -15 -122 -39 -148c-34 -37 -87 -50 -135 -50c-26 0 -49 3 -65 8v103c18 -4 38 -6 54 -6c55 0 64 33 64 86zM321 655
c0 41 34 75 76 75c41 0 75 -34 75 -75s-34 -75 -76 -75c-41 0 -75 34 -75 75z" />
    <glyph glyph-name="periodcentered.cap" horiz-adv-x="300" 
d="M73 362c0 43 35 78 78 78s78 -35 78 -78s-35 -78 -78 -78s-78 35 -78 78z" />
    <glyph glyph-name="at.cap" horiz-adv-x="801" 
d="M615 170c-55 0 -94 22 -118 57h-2c-33 -38 -79 -58 -128 -58c-92 0 -158 71 -158 173c0 108 74 213 195 213c39 0 70 -11 100 -32l69 12l-17 -197c-1 -11 -1 -18 -1 -21c0 -52 23 -88 69 -88c50 0 89 41 89 135c0 167 -120 315 -311 315c-190 0 -313 -147 -313 -317
s121 -317 311 -317c85 0 156 29 208 73l32 -49c-64 -52 -148 -80 -238 -80c-216 0 -373 162 -373 372c0 213 158 374 372 374c216 0 372 -165 372 -366c0 -121 -57 -199 -158 -199zM381 240c33 0 69 15 93 48c-2 18 -1 37 1 60l9 104c-18 17 -48 33 -80 33
c-71 0 -112 -74 -112 -142c0 -60 32 -103 89 -103z" />
    <glyph glyph-name="A" unicode="A" horiz-adv-x="725" 
d="M425 724l296 -724h-135l-69 177h-312l-70 -177h-131l297 724h124zM288 390l-42 -109h230l-42 109c-25 65 -49 129 -72 194h-2c-24 -67 -47 -129 -72 -194z" />
    <glyph glyph-name="B" unicode="B" horiz-adv-x="637" 
d="M74 0v724h202c96 0 156 -10 205 -39c53 -31 85 -80 85 -146c0 -78 -46 -126 -109 -148v-2c89 -22 138 -83 138 -173c0 -68 -28 -129 -95 -170c-52 -32 -120 -46 -224 -46h-202zM201 416h113c70 0 125 30 125 98c0 38 -17 63 -45 79s-62 20 -126 20h-67v-197zM201 111h81
c75 0 116 8 144 26c23 15 42 40 42 82c0 70 -54 106 -150 106h-117v-214z" />
    <glyph glyph-name="C" unicode="C" horiz-adv-x="681" 
d="M38 360c0 208 156 375 386 375c74 0 145 -18 202 -48v-132c-53 38 -127 65 -202 65c-153 0 -259 -111 -259 -258c0 -145 105 -257 266 -257c77 0 148 26 206 70v-134c-60 -35 -138 -52 -212 -52c-227 0 -387 160 -387 371z" />
    <glyph glyph-name="D" unicode="D" horiz-adv-x="739" 
d="M74 0v724h201c112 0 206 -18 280 -66c96 -62 150 -169 150 -294c0 -118 -48 -220 -132 -283c-75 -57 -175 -81 -314 -81h-185zM201 113h69c95 0 163 14 215 52c56 41 93 111 93 198c0 90 -40 161 -100 202c-57 39 -130 46 -209 46h-68v-498z" />
    <glyph glyph-name="E" unicode="E" horiz-adv-x="556" 
d="M74 0v724h432v-113h-305v-180h265v-108h-265v-210h315v-113h-442z" />
    <glyph glyph-name="F" unicode="F" horiz-adv-x="561" 
d="M74 0v724h443v-113h-316v-194h275v-108h-275v-309h-127z" />
    <glyph glyph-name="G" unicode="G" horiz-adv-x="736" 
d="M38 360c0 213 161 375 389 375c92 0 168 -26 222 -58v-133c-59 45 -139 76 -221 76c-158 0 -263 -115 -263 -259c0 -140 99 -259 264 -259c44 0 86 9 118 25v139h-144v108h269v-318c-65 -40 -157 -67 -249 -67c-223 0 -385 156 -385 371z" />
    <glyph glyph-name="H" unicode="H" horiz-adv-x="755" 
d="M74 0v724h127v-292h353v292h127v-724h-127v319h-353v-319h-127z" />
    <glyph glyph-name="I" unicode="I" horiz-adv-x="274" 
d="M74 0v724h127v-724h-127z" />
    <glyph glyph-name="J" unicode="J" horiz-adv-x="397" 
d="M200 216v508h127v-503c0 -91 -16 -138 -44 -171c-37 -43 -95 -61 -156 -61c-44 0 -80 9 -106 20v114c33 -13 70 -21 98 -21c71 0 81 42 81 114z" />
    <glyph glyph-name="K" unicode="K" horiz-adv-x="651" 
d="M74 0v724h127v-324l2 -1l285 325h153l-299 -336l325 -388h-160l-304 368l-2 -1v-367h-127z" />
    <glyph glyph-name="L" unicode="L" horiz-adv-x="551" 
d="M74 0v724h127v-611h329v-113h-456z" />
    <glyph glyph-name="M" unicode="M" horiz-adv-x="864" 
d="M74 0v724h123l236 -337l236 337h121v-724h-127v358c0 55 0 107 1 157l-2 1c-30 -46 -62 -91 -96 -140l-136 -194l-136 194c-34 49 -66 94 -96 140l-2 -1c1 -50 1 -102 1 -157v-358h-123z" />
    <glyph glyph-name="N" unicode="N" horiz-adv-x="780" 
d="M196 0h-123v724h120l262 -349c45 -60 87 -117 129 -175l2 1c-2 68 -2 142 -2 219v304h123v-724h-120l-262 349c-45 60 -87 117 -129 175l-2 -1c2 -68 2 -142 2 -219v-304z" />
    <glyph glyph-name="O" unicode="O" horiz-adv-x="820" 
d="M410 105c141 0 246 113 246 257s-105 257 -246 257s-246 -113 -246 -257s105 -257 246 -257zM410 -11c-213 0 -373 162 -373 373s160 373 373 373s373 -162 373 -373s-160 -373 -373 -373z" />
    <glyph glyph-name="P" unicode="P" horiz-adv-x="631" 
d="M74 0v724h202c78 0 154 -5 215 -38c63 -34 110 -96 110 -187c0 -85 -41 -148 -101 -184c-59 -35 -137 -43 -237 -43h-62v-272h-127zM201 378h72c74 0 116 3 150 23c32 19 51 50 51 94c0 47 -22 79 -59 97c-36 18 -82 19 -144 19h-70v-233z" />
    <glyph glyph-name="Q" unicode="Q" horiz-adv-x="820" 
d="M552 15v-2c67 -43 140 -82 216 -111l-119 -70c-93 39 -177 97 -247 157c-209 4 -365 164 -365 373c0 211 160 373 373 373s373 -162 373 -373c0 -161 -93 -293 -231 -347zM410 105c141 0 246 113 246 257s-105 257 -246 257s-246 -113 -246 -257s105 -257 246 -257z" />
    <glyph glyph-name="R" unicode="R" horiz-adv-x="650" 
d="M74 0v724h211c74 0 146 -5 203 -36c59 -32 104 -90 104 -176c0 -98 -59 -174 -161 -199l218 -313h-149l-202 299h-97v-299h-127zM201 397h101c58 0 97 8 126 29c23 17 37 42 37 78c0 43 -20 70 -52 87s-72 20 -135 20h-77v-214z" />
    <glyph glyph-name="S" unicode="S" horiz-adv-x="569" 
d="M63 42v133c72 -50 161 -72 221 -72c73 0 124 31 124 97c0 80 -76 91 -170 119c-104 32 -196 78 -196 205c0 132 97 211 244 211c70 0 154 -18 215 -54v-128c-72 47 -157 68 -216 68c-68 0 -116 -27 -116 -88c0 -76 76 -86 163 -113c107 -33 203 -80 203 -213
c0 -136 -101 -218 -252 -218c-71 0 -156 18 -220 53z" />
    <glyph glyph-name="T" unicode="T" horiz-adv-x="639" 
d="M255 0v611h-237v113h603v-113h-239v-611h-127z" />
    <glyph glyph-name="U" unicode="U" horiz-adv-x="740" 
d="M117 106c-40 60 -51 140 -51 238v380h127v-372c0 -85 7 -134 28 -171c24 -42 69 -76 153 -76c76 0 122 28 148 73c23 39 29 93 29 172v374h123v-372c0 -107 -11 -187 -52 -248c-50 -74 -141 -115 -253 -115c-116 0 -204 44 -252 117z" />
    <glyph glyph-name="V" unicode="V" horiz-adv-x="686" 
d="M278 0l-277 724h136l134 -355c25 -67 49 -134 73 -203h2c23 66 49 135 75 204l134 354h130l-277 -724h-130z" />
    <glyph glyph-name="W" unicode="W" horiz-adv-x="1031" 
d="M231 0l-223 724h135l106 -352c19 -63 38 -129 55 -191h2c17 61 38 130 57 192l109 351h93l109 -352c22 -71 39 -127 57 -191h2c17 62 36 130 55 192l106 351h129l-224 -724h-135l-96 310c-18 59 -36 118 -52 174h-2c-16 -56 -33 -113 -51 -172l-97 -312h-135z" />
    <glyph glyph-name="X" unicode="X" horiz-adv-x="677" 
d="M-10 0l268 386l-232 338h149l83 -122c29 -43 56 -84 84 -127h2c27 42 56 86 85 129l81 120h142l-232 -338l268 -386h-152l-116 170c-30 44 -57 84 -84 126h-2c-27 -42 -57 -87 -85 -128l-114 -168h-145z" />
    <glyph glyph-name="Y" unicode="Y" horiz-adv-x="672" 
d="M274 0v327l-280 397h148l105 -153c32 -47 63 -93 91 -136h2c28 43 60 91 92 138l103 151h143l-277 -396v-328h-127z" />
    <glyph glyph-name="Z" unicode="Z" horiz-adv-x="645" 
d="M607 0h-580l-1 2l374 607l-1 2h-346v113h561l1 -2l-374 -607l1 -2h365v-113z" />
    <glyph glyph-name="Agrave" unicode="&#xc0;" horiz-adv-x="725" 
d="M425 724l296 -724h-135l-69 177h-312l-70 -177h-131l297 724h124zM288 390l-42 -109h230l-42 109c-25 65 -49 129 -72 194h-2c-24 -67 -47 -129 -72 -194zM346 795l-113 164h118l81 -164h-86z" />
    <glyph glyph-name="Aacute" unicode="&#xc1;" horiz-adv-x="725" 
d="M425 724l296 -724h-135l-69 177h-312l-70 -177h-131l297 724h124zM288 390l-42 -109h230l-42 109c-25 65 -49 129 -72 194h-2c-24 -67 -47 -129 -72 -194zM492 959l-113 -164h-86l81 164h118z" />
    <glyph glyph-name="Acircumflex" unicode="&#xc2;" horiz-adv-x="725" 
d="M425 724l296 -724h-135l-69 177h-312l-70 -177h-131l297 724h124zM288 390l-42 -109h230l-42 109c-25 65 -49 129 -72 194h-2c-24 -67 -47 -129 -72 -194zM193 795l115 164h108l115 -164h-88l-81 98l-81 -98h-88z" />
    <glyph glyph-name="Atilde" unicode="&#xc3;" horiz-adv-x="725" 
d="M425 724l296 -724h-135l-69 177h-312l-70 -177h-131l297 724h124zM288 390l-42 -109h230l-42 109c-25 65 -49 129 -72 194h-2c-24 -67 -47 -129 -72 -194zM354 835c-27 13 -44 23 -68 23c-37 0 -62 -24 -83 -47l-2 1v92c19 25 48 42 85 42c27 0 53 -9 84 -24
c27 -13 44 -23 68 -23c37 0 62 24 83 47l2 -1v-92c-19 -25 -48 -42 -85 -42c-27 0 -53 9 -84 24z" />
    <glyph glyph-name="Adieresis" unicode="&#xc4;" horiz-adv-x="725" 
d="M425 724l296 -724h-135l-69 177h-312l-70 -177h-131l297 724h124zM288 390l-42 -109h230l-42 109c-25 65 -49 129 -72 194h-2c-24 -67 -47 -129 -72 -194zM401 879c0 36 30 66 66 66s66 -30 66 -66s-30 -66 -66 -66s-66 30 -66 66zM191 879c0 36 30 66 66 66
s66 -30 66 -66s-30 -66 -66 -66s-66 30 -66 66z" />
    <glyph glyph-name="Amacron" unicode="&#x100;" horiz-adv-x="725" 
d="M425 724l296 -724h-135l-69 177h-312l-70 -177h-131l297 724h124zM288 390l-42 -109h230l-42 109c-25 65 -49 129 -72 194h-2c-24 -67 -47 -129 -72 -194zM217 835v84h290v-84h-290z" />
    <glyph glyph-name="Abreve" unicode="&#x102;" horiz-adv-x="725" 
d="M425 724l296 -724h-135l-69 177h-312l-70 -177h-131l297 724h124zM288 390l-42 -109h230l-42 109c-25 65 -49 129 -72 194h-2c-24 -67 -47 -129 -72 -194zM362 800c-97 0 -148 65 -151 156h71c4 -47 24 -90 80 -90s76 43 80 90h71c-3 -91 -54 -156 -151 -156z" />
    <glyph glyph-name="Aring" unicode="&#xc5;" horiz-adv-x="725" 
d="M425 724l296 -724h-135l-69 177h-312l-70 -177h-131l297 724h124zM288 390l-42 -109h230l-42 109c-25 65 -49 129 -72 194h-2c-24 -67 -47 -129 -72 -194zM301 897c0 -34 23 -62 61 -62s61 28 61 62s-23 62 -61 62s-61 -28 -61 -62zM486 897c0 -68 -53 -119 -124 -119
s-124 51 -124 119s53 119 124 119s124 -51 124 -119z" />
    <glyph glyph-name="Aogonek" unicode="&#x104;" horiz-adv-x="725" 
d="M425 724l296 -724c-78 -29 -107 -76 -107 -108c0 -28 17 -46 48 -46c12 0 30 3 45 7v-74c-17 -5 -42 -10 -67 -10c-77 0 -125 42 -125 103c0 46 26 94 71 128l-69 177h-312l-70 -177h-131l297 724h124zM288 390l-42 -109h230l-42 109c-25 65 -49 129 -72 194h-2
c-24 -67 -47 -129 -72 -194z" />
    <glyph glyph-name="AE" unicode="&#xc6;" horiz-adv-x="948" 
d="M-2 0l410 724h490v-113h-295v-180h255v-108h-255v-210h305v-113h-432v177h-245l-99 -177h-134zM364 414l-75 -133h187v127c0 69 0 136 2 210h-2c-37 -69 -75 -138 -112 -204z" />
    <glyph glyph-name="AEacute" unicode="&#x1fc;" horiz-adv-x="948" 
d="M-2 0l410 724h490v-113h-295v-180h255v-108h-255v-210h305v-113h-432v177h-245l-99 -177h-134zM364 414l-75 -133h187v127c0 69 0 136 2 210h-2c-37 -69 -75 -138 -112 -204zM768 959l-113 -164h-86l81 164h118z" />
    <glyph glyph-name="Cacute" unicode="&#x106;" horiz-adv-x="681" 
d="M38 360c0 208 156 375 386 375c74 0 145 -18 202 -48v-132c-53 38 -127 65 -202 65c-153 0 -259 -111 -259 -258c0 -145 105 -257 266 -257c77 0 148 26 206 70v-134c-60 -35 -138 -52 -212 -52c-227 0 -387 160 -387 371zM570 959l-113 -164h-86l81 164h118z" />
    <glyph glyph-name="Ccircumflex" unicode="&#x108;" horiz-adv-x="681" 
d="M38 360c0 208 156 375 386 375c74 0 145 -18 202 -48v-132c-53 38 -127 65 -202 65c-153 0 -259 -111 -259 -258c0 -145 105 -257 266 -257c77 0 148 26 206 70v-134c-60 -35 -138 -52 -212 -52c-227 0 -387 160 -387 371zM221 795l115 164h108l115 -164h-88l-81 98
l-81 -98h-88z" />
    <glyph glyph-name="Ccaron" unicode="&#x10c;" horiz-adv-x="681" 
d="M38 360c0 208 156 375 386 375c74 0 145 -18 202 -48v-132c-53 38 -127 65 -202 65c-153 0 -259 -111 -259 -258c0 -145 105 -257 266 -257c77 0 148 26 206 70v-134c-60 -35 -138 -52 -212 -52c-227 0 -387 160 -387 371zM559 959l-115 -164h-108l-115 164h88l81 -98
l81 98h88z" />
    <glyph glyph-name="Cdotaccent" unicode="&#x10a;" horiz-adv-x="681" 
d="M38 360c0 208 156 375 386 375c74 0 145 -18 202 -48v-132c-53 38 -127 65 -202 65c-153 0 -259 -111 -259 -258c0 -145 105 -257 266 -257c77 0 148 26 206 70v-134c-60 -35 -138 -52 -212 -52c-227 0 -387 160 -387 371zM324 879c0 36 30 66 66 66s66 -30 66 -66
s-30 -66 -66 -66s-66 30 -66 66z" />
    <glyph glyph-name="Ccedilla" unicode="&#xc7;" horiz-adv-x="681" 
d="M351 -88l25 80c-201 20 -338 172 -338 368c0 208 156 375 386 375c74 0 145 -18 202 -48v-132c-53 38 -127 65 -202 65c-153 0 -259 -111 -259 -258c0 -145 105 -257 266 -257c77 0 148 26 206 70v-134c-59 -35 -135 -51 -208 -52l-9 -29c54 -12 88 -42 88 -91
c0 -54 -43 -90 -109 -90c-32 0 -63 8 -84 18l18 57c22 -11 45 -19 65 -19c23 0 43 10 43 31c0 36 -58 44 -90 46z" />
    <glyph glyph-name="Dcaron" unicode="&#x10e;" horiz-adv-x="739" 
d="M74 0v724h201c112 0 206 -18 280 -66c96 -62 150 -169 150 -294c0 -118 -48 -220 -132 -283c-75 -57 -175 -81 -314 -81h-185zM201 113h69c95 0 163 14 215 52c56 41 93 111 93 198c0 90 -40 161 -100 202c-57 39 -130 46 -209 46h-68v-498zM508 959l-115 -164h-108
l-115 164h88l81 -98l81 98h88z" />
    <glyph glyph-name="Dcroat" unicode="&#x110;" horiz-adv-x="752" 
d="M3 322v94h84v308h201c112 0 206 -18 280 -66c96 -62 150 -169 150 -294c0 -118 -48 -220 -132 -283c-75 -57 -175 -81 -314 -81h-185v322h-84zM214 113h69c95 0 163 14 215 52c56 41 93 111 93 198c0 90 -40 161 -100 202c-57 39 -130 46 -209 46h-68v-195h143v-94h-143
v-209z" />
    <glyph glyph-name="Egrave" unicode="&#xc8;" horiz-adv-x="556" 
d="M74 0v724h432v-113h-305v-180h265v-108h-265v-210h315v-113h-442zM276 795l-113 164h118l81 -164h-86z" />
    <glyph glyph-name="Eacute" unicode="&#xc9;" horiz-adv-x="556" 
d="M74 0v724h432v-113h-305v-180h265v-108h-265v-210h315v-113h-442zM422 959l-113 -164h-86l81 164h118z" />
    <glyph glyph-name="Ecircumflex" unicode="&#xca;" horiz-adv-x="556" 
d="M74 0v724h432v-113h-305v-180h265v-108h-265v-210h315v-113h-442zM123 795l115 164h108l115 -164h-88l-81 98l-81 -98h-88z" />
    <glyph glyph-name="Ecaron" unicode="&#x11a;" horiz-adv-x="556" 
d="M74 0v724h432v-113h-305v-180h265v-108h-265v-210h315v-113h-442zM461 959l-115 -164h-108l-115 164h88l81 -98l81 98h88z" />
    <glyph glyph-name="Edieresis" unicode="&#xcb;" horiz-adv-x="556" 
d="M74 0v724h432v-113h-305v-180h265v-108h-265v-210h315v-113h-442zM331 879c0 36 30 66 66 66s66 -30 66 -66s-30 -66 -66 -66s-66 30 -66 66zM121 879c0 36 30 66 66 66s66 -30 66 -66s-30 -66 -66 -66s-66 30 -66 66z" />
    <glyph glyph-name="Emacron" unicode="&#x112;" horiz-adv-x="556" 
d="M74 0v724h432v-113h-305v-180h265v-108h-265v-210h315v-113h-442zM147 835v84h290v-84h-290z" />
    <glyph glyph-name="Ebreve" unicode="&#x114;" horiz-adv-x="556" 
d="M74 0v724h432v-113h-305v-180h265v-108h-265v-210h315v-113h-442zM292 800c-97 0 -148 65 -151 156h71c4 -47 24 -90 80 -90s76 43 80 90h71c-3 -91 -54 -156 -151 -156z" />
    <glyph glyph-name="Edotaccent" unicode="&#x116;" horiz-adv-x="556" 
d="M74 0v724h432v-113h-305v-180h265v-108h-265v-210h315v-113h-442zM226 879c0 36 30 66 66 66s66 -30 66 -66s-30 -66 -66 -66s-66 30 -66 66z" />
    <glyph glyph-name="Eogonek" unicode="&#x118;" horiz-adv-x="556" 
d="M74 0v724h432v-113h-305v-180h265v-108h-265v-210h315v-113c-68 -36 -93 -75 -93 -110c0 -26 17 -44 48 -44c12 0 30 3 45 7v-74c-17 -5 -42 -10 -67 -10c-77 0 -125 43 -125 103c0 44 22 88 70 126l-1 2h-319z" />
    <glyph glyph-name="Gcircumflex" unicode="&#x11c;" horiz-adv-x="736" 
d="M38 360c0 213 161 375 389 375c92 0 168 -26 222 -58v-133c-59 45 -139 76 -221 76c-158 0 -263 -115 -263 -259c0 -140 99 -259 264 -259c44 0 86 9 118 25v139h-144v108h269v-318c-65 -40 -157 -67 -249 -67c-223 0 -385 156 -385 371zM237 795l115 164h108l115 -164
h-88l-81 98l-81 -98h-88z" />
    <glyph glyph-name="Gbreve" unicode="&#x11e;" horiz-adv-x="736" 
d="M38 360c0 213 161 375 389 375c92 0 168 -26 222 -58v-133c-59 45 -139 76 -221 76c-158 0 -263 -115 -263 -259c0 -140 99 -259 264 -259c44 0 86 9 118 25v139h-144v108h269v-318c-65 -40 -157 -67 -249 -67c-223 0 -385 156 -385 371zM406 800c-97 0 -148 65 -151 156
h71c4 -47 24 -90 80 -90s76 43 80 90h71c-3 -91 -54 -156 -151 -156z" />
    <glyph glyph-name="Gdotaccent" unicode="&#x120;" horiz-adv-x="736" 
d="M38 360c0 213 161 375 389 375c92 0 168 -26 222 -58v-133c-59 45 -139 76 -221 76c-158 0 -263 -115 -263 -259c0 -140 99 -259 264 -259c44 0 86 9 118 25v139h-144v108h269v-318c-65 -40 -157 -67 -249 -67c-223 0 -385 156 -385 371zM340 879c0 36 30 66 66 66
s66 -30 66 -66s-30 -66 -66 -66s-66 30 -66 66z" />
    <glyph glyph-name="Gcommaaccent" unicode="&#x122;" horiz-adv-x="736" 
d="M38 360c0 213 161 375 389 375c92 0 168 -26 222 -58v-133c-59 45 -139 76 -221 76c-158 0 -263 -115 -263 -259c0 -140 99 -259 264 -259c44 0 86 9 118 25v139h-144v108h269v-318c-65 -40 -157 -67 -249 -67c-223 0 -385 156 -385 371zM376 -54h110l-78 -218h-84z" />
    <glyph glyph-name="Hcircumflex" unicode="&#x124;" horiz-adv-x="755" 
d="M74 0v724h127v-292h353v292h127v-724h-127v319h-353v-319h-127zM208 795l115 164h108l115 -164h-88l-81 98l-81 -98h-88z" />
    <glyph glyph-name="Hbar" unicode="&#x126;" horiz-adv-x="763" 
d="M4 530v94h74v100h127v-100h353v100h127v-100h74v-94h-74v-530h-127v319h-353v-319h-127v530h-74zM205 432h353v98h-353v-98z" />
    <glyph glyph-name="Igrave" unicode="&#xcc;" horiz-adv-x="274" 
d="M74 0v724h127v-724h-127zM121 795l-113 164h118l81 -164h-86z" />
    <glyph glyph-name="Iacute" unicode="&#xcd;" horiz-adv-x="274" 
d="M74 0v724h127v-724h-127zM267 959l-113 -164h-86l81 164h118z" />
    <glyph glyph-name="Icircumflex" unicode="&#xce;" horiz-adv-x="274" 
d="M74 0v724h127v-724h-127zM-32 795l115 164h108l115 -164h-88l-81 98l-81 -98h-88z" />
    <glyph glyph-name="Itilde" unicode="&#x128;" horiz-adv-x="274" 
d="M74 0v724h127v-724h-127zM129 835c-27 13 -44 23 -68 23c-37 0 -62 -24 -83 -47l-2 1v92c19 25 48 42 85 42c27 0 53 -9 84 -24c27 -13 44 -23 68 -23c37 0 62 24 83 47l2 -1v-92c-19 -25 -48 -42 -85 -42c-27 0 -53 9 -84 24z" />
    <glyph glyph-name="Idieresis" unicode="&#xcf;" horiz-adv-x="274" 
d="M74 0v724h127v-724h-127zM176 879c0 36 30 66 66 66s66 -30 66 -66s-30 -66 -66 -66s-66 30 -66 66zM-34 879c0 36 30 66 66 66s66 -30 66 -66s-30 -66 -66 -66s-66 30 -66 66z" />
    <glyph glyph-name="Imacron" unicode="&#x12a;" horiz-adv-x="274" 
d="M74 0v724h127v-724h-127zM-8 835v84h290v-84h-290z" />
    <glyph glyph-name="Ibreve" unicode="&#x12c;" horiz-adv-x="274" 
d="M74 0v724h127v-724h-127zM137 800c-97 0 -148 65 -151 156h71c4 -47 24 -90 80 -90s76 43 80 90h71c-3 -91 -54 -156 -151 -156z" />
    <glyph glyph-name="Idotaccent" unicode="&#x130;" horiz-adv-x="274" 
d="M74 0v724h127v-724h-127zM71 879c0 36 30 66 66 66s66 -30 66 -66s-30 -66 -66 -66s-66 30 -66 66z" />
    <glyph glyph-name="Iogonek" unicode="&#x12e;" horiz-adv-x="274" 
d="M74 0v724h127v-724c-55 -32 -79 -76 -79 -109c0 -27 16 -45 48 -45c11 0 28 2 43 6v-74c-17 -5 -42 -9 -66 -9c-76 0 -125 45 -125 109c0 43 22 87 52 122z" />
    <glyph glyph-name="IJ" unicode="&#x132;" horiz-adv-x="671" 
d="M74 0v724h127v-724h-127zM474 216v508h127v-503c0 -91 -16 -138 -44 -171c-37 -43 -95 -61 -156 -61c-44 0 -80 9 -106 20v114c33 -13 70 -21 98 -21c71 0 81 42 81 114z" />
    <glyph glyph-name="Jcircumflex" unicode="&#x134;" horiz-adv-x="274" 
d="M77 216v508h127v-503c0 -91 -16 -138 -44 -171c-37 -43 -95 -61 -156 -61c-44 0 -80 9 -106 20v114c33 -13 70 -21 98 -21c71 0 81 42 81 114zM-29 795l115 164h108l115 -164h-88l-81 98l-81 -98h-88z" />
    <glyph glyph-name="Kcommaaccent" unicode="&#x136;" horiz-adv-x="651" 
d="M74 0v724h127v-324l2 -1l285 325h153l-299 -336l325 -388h-160l-304 368l-2 -1v-367h-127zM295 -54h110l-78 -218h-84z" />
    <glyph glyph-name="Lacute" unicode="&#x139;" horiz-adv-x="551" 
d="M74 0v724h127v-611h329v-113h-456zM296 959l-113 -164h-86l81 164h118z" />
    <glyph glyph-name="Lcaron" unicode="&#x13d;" horiz-adv-x="551" 
d="M74 0v724h127v-611h329v-113h-456zM290 505l57 275h109l-88 -275h-78z" />
    <glyph glyph-name="Lcommaaccent" unicode="&#x13b;" horiz-adv-x="551" 
d="M74 0v724h127v-611h329v-113h-456zM265 -54h110l-78 -218h-84z" />
    <glyph glyph-name="Lslash" unicode="&#x141;" horiz-adv-x="557" 
d="M80 0v257l-90 -61v113l90 61v354h127v-269l125 84v-113l-125 -84v-229h329v-113h-456z" />
    <glyph glyph-name="Ldot" unicode="&#x13f;" horiz-adv-x="551" 
d="M74 0v724h127v-611h329v-113h-456zM334 398c0 43 35 78 78 78s78 -35 78 -78s-35 -78 -78 -78s-78 35 -78 78z" />
    <glyph glyph-name="Nacute" unicode="&#x143;" horiz-adv-x="780" 
d="M196 0h-123v724h120l262 -349c45 -60 87 -117 129 -175l2 1c-2 68 -2 142 -2 219v304h123v-724h-120l-262 349c-45 60 -87 117 -129 175l-2 -1c2 -68 2 -142 2 -219v-304zM520 959l-113 -164h-86l81 164h118z" />
    <glyph glyph-name="Ncaron" unicode="&#x147;" horiz-adv-x="780" 
d="M196 0h-123v724h120l262 -349c45 -60 87 -117 129 -175l2 1c-2 68 -2 142 -2 219v304h123v-724h-120l-262 349c-45 60 -87 117 -129 175l-2 -1c2 -68 2 -142 2 -219v-304zM559 959l-115 -164h-108l-115 164h88l81 -98l81 98h88z" />
    <glyph glyph-name="Ntilde" unicode="&#xd1;" horiz-adv-x="780" 
d="M196 0h-123v724h120l262 -349c45 -60 87 -117 129 -175l2 1c-2 68 -2 142 -2 219v304h123v-724h-120l-262 349c-45 60 -87 117 -129 175l-2 -1c2 -68 2 -142 2 -219v-304zM382 835c-27 13 -44 23 -68 23c-37 0 -62 -24 -83 -47l-2 1v92c19 25 48 42 85 42
c27 0 53 -9 84 -24c27 -13 44 -23 68 -23c37 0 62 24 83 47l2 -1v-92c-19 -25 -48 -42 -85 -42c-27 0 -53 9 -84 24z" />
    <glyph glyph-name="Ncommaaccent" unicode="&#x145;" horiz-adv-x="780" 
d="M196 0h-123v724h120l262 -349c45 -60 87 -117 129 -175l2 1c-2 68 -2 142 -2 219v304h123v-724h-120l-262 349c-45 60 -87 117 -129 175l-2 -1c2 -68 2 -142 2 -219v-304zM360 -54h110l-78 -218h-84z" />
    <glyph glyph-name="Ograve" unicode="&#xd2;" horiz-adv-x="820" 
d="M410 105c141 0 246 113 246 257s-105 257 -246 257s-246 -113 -246 -257s105 -257 246 -257zM410 -11c-213 0 -373 162 -373 373s160 373 373 373s373 -162 373 -373s-160 -373 -373 -373zM394 795l-113 164h118l81 -164h-86z" />
    <glyph glyph-name="Oacute" unicode="&#xd3;" horiz-adv-x="820" 
d="M410 105c141 0 246 113 246 257s-105 257 -246 257s-246 -113 -246 -257s105 -257 246 -257zM410 -11c-213 0 -373 162 -373 373s160 373 373 373s373 -162 373 -373s-160 -373 -373 -373zM540 959l-113 -164h-86l81 164h118z" />
    <glyph glyph-name="Ocircumflex" unicode="&#xd4;" horiz-adv-x="820" 
d="M410 105c141 0 246 113 246 257s-105 257 -246 257s-246 -113 -246 -257s105 -257 246 -257zM410 -11c-213 0 -373 162 -373 373s160 373 373 373s373 -162 373 -373s-160 -373 -373 -373zM241 795l115 164h108l115 -164h-88l-81 98l-81 -98h-88z" />
    <glyph glyph-name="Otilde" unicode="&#xd5;" horiz-adv-x="820" 
d="M410 105c141 0 246 113 246 257s-105 257 -246 257s-246 -113 -246 -257s105 -257 246 -257zM410 -11c-213 0 -373 162 -373 373s160 373 373 373s373 -162 373 -373s-160 -373 -373 -373zM402 835c-27 13 -44 23 -68 23c-37 0 -62 -24 -83 -47l-2 1v92
c19 25 48 42 85 42c27 0 53 -9 84 -24c27 -13 44 -23 68 -23c37 0 62 24 83 47l2 -1v-92c-19 -25 -48 -42 -85 -42c-27 0 -53 9 -84 24z" />
    <glyph glyph-name="Odieresis" unicode="&#xd6;" horiz-adv-x="820" 
d="M410 105c141 0 246 113 246 257s-105 257 -246 257s-246 -113 -246 -257s105 -257 246 -257zM410 -11c-213 0 -373 162 -373 373s160 373 373 373s373 -162 373 -373s-160 -373 -373 -373zM449 879c0 36 30 66 66 66s66 -30 66 -66s-30 -66 -66 -66s-66 30 -66 66z
M239 879c0 36 30 66 66 66s66 -30 66 -66s-30 -66 -66 -66s-66 30 -66 66z" />
    <glyph glyph-name="Omacron" unicode="&#x14c;" horiz-adv-x="820" 
d="M410 105c141 0 246 113 246 257s-105 257 -246 257s-246 -113 -246 -257s105 -257 246 -257zM410 -11c-213 0 -373 162 -373 373s160 373 373 373s373 -162 373 -373s-160 -373 -373 -373zM265 835v84h290v-84h-290z" />
    <glyph glyph-name="Obreve" unicode="&#x14e;" horiz-adv-x="820" 
d="M410 105c141 0 246 113 246 257s-105 257 -246 257s-246 -113 -246 -257s105 -257 246 -257zM410 -11c-213 0 -373 162 -373 373s160 373 373 373s373 -162 373 -373s-160 -373 -373 -373zM410 800c-97 0 -148 65 -151 156h71c4 -47 24 -90 80 -90s76 43 80 90h71
c-3 -91 -54 -156 -151 -156z" />
    <glyph glyph-name="Ohungarumlaut" unicode="&#x150;" horiz-adv-x="820" 
d="M410 105c141 0 246 113 246 257s-105 257 -246 257s-246 -113 -246 -257s105 -257 246 -257zM410 -11c-213 0 -373 162 -373 373s160 373 373 373s373 -162 373 -373s-160 -373 -373 -373zM420 795l78 164h95l-100 -164h-73zM269 795l78 164h95l-100 -164h-73z" />
    <glyph glyph-name="Oslash" unicode="&#xd8;" horiz-adv-x="820" 
d="M164 362c0 -62 19 -118 53 -162l326 380c-38 25 -83 39 -133 39c-141 0 -246 -113 -246 -257zM37 362c0 211 160 373 373 373c80 0 152 -23 212 -63l61 71l63 -53l-61 -71c61 -66 98 -156 98 -257c0 -211 -160 -373 -373 -373c-80 0 -152 23 -212 63l-61 -71l-63 53
l61 71c-61 66 -98 156 -98 257zM656 362c0 62 -19 118 -53 162l-326 -380c38 -25 83 -39 133 -39c141 0 246 113 246 257z" />
    <glyph glyph-name="Oslashacute" unicode="&#x1fe;" horiz-adv-x="820" 
d="M164 362c0 -62 19 -118 53 -162l326 380c-38 25 -83 39 -133 39c-141 0 -246 -113 -246 -257zM37 362c0 211 160 373 373 373c80 0 152 -23 212 -63l61 71l63 -53l-61 -71c61 -66 98 -156 98 -257c0 -211 -160 -373 -373 -373c-80 0 -152 23 -212 63l-61 -71l-63 53
l61 71c-61 66 -98 156 -98 257zM656 362c0 62 -19 118 -53 162l-326 -380c38 -25 83 -39 133 -39c141 0 246 113 246 257zM540 959l-113 -164h-86l81 164h118z" />
    <glyph glyph-name="OE" unicode="&#x152;" horiz-adv-x="933" 
d="M188 67c-97 63 -151 166 -151 295c0 115 43 214 131 281c77 59 176 81 302 81h413v-113h-295v-180h255v-108h-255v-210h305v-113h-425c-117 0 -206 19 -280 67zM265 160c54 -37 110 -45 196 -47v498c-93 -2 -153 -15 -203 -52c-59 -43 -94 -112 -94 -198
c0 -92 40 -159 101 -201z" />
    <glyph glyph-name="Racute" unicode="&#x154;" horiz-adv-x="650" 
d="M74 0v724h211c74 0 146 -5 203 -36c59 -32 104 -90 104 -176c0 -98 -59 -174 -161 -199l218 -313h-149l-202 299h-97v-299h-127zM201 397h101c58 0 97 8 126 29c23 17 37 42 37 78c0 43 -20 70 -52 87s-72 20 -135 20h-77v-214zM435 959l-113 -164h-86l81 164h118z" />
    <glyph glyph-name="Rcaron" unicode="&#x158;" horiz-adv-x="650" 
d="M74 0v724h211c74 0 146 -5 203 -36c59 -32 104 -90 104 -176c0 -98 -59 -174 -161 -199l218 -313h-149l-202 299h-97v-299h-127zM201 397h101c58 0 97 8 126 29c23 17 37 42 37 78c0 43 -20 70 -52 87s-72 20 -135 20h-77v-214zM474 959l-115 -164h-108l-115 164h88
l81 -98l81 98h88z" />
    <glyph glyph-name="Rcommaaccent" unicode="&#x156;" horiz-adv-x="650" 
d="M74 0v724h211c74 0 146 -5 203 -36c59 -32 104 -90 104 -176c0 -98 -59 -174 -161 -199l218 -313h-149l-202 299h-97v-299h-127zM201 397h101c58 0 97 8 126 29c23 17 37 42 37 78c0 43 -20 70 -52 87s-72 20 -135 20h-77v-214zM275 -54h110l-78 -218h-84z" />
    <glyph glyph-name="Sacute" unicode="&#x15a;" horiz-adv-x="569" 
d="M63 42v133c72 -50 161 -72 221 -72c73 0 124 31 124 97c0 80 -76 91 -170 119c-104 32 -196 78 -196 205c0 132 97 211 244 211c70 0 154 -18 215 -54v-128c-72 47 -157 68 -216 68c-68 0 -116 -27 -116 -88c0 -76 76 -86 163 -113c107 -33 203 -80 203 -213
c0 -136 -101 -218 -252 -218c-71 0 -156 18 -220 53zM414 959l-113 -164h-86l81 164h118z" />
    <glyph glyph-name="Scircumflex" unicode="&#x15c;" horiz-adv-x="569" 
d="M63 42v133c72 -50 161 -72 221 -72c73 0 124 31 124 97c0 80 -76 91 -170 119c-104 32 -196 78 -196 205c0 132 97 211 244 211c70 0 154 -18 215 -54v-128c-72 47 -157 68 -216 68c-68 0 -116 -27 -116 -88c0 -76 76 -86 163 -113c107 -33 203 -80 203 -213
c0 -136 -101 -218 -252 -218c-71 0 -156 18 -220 53zM115 795l115 164h108l115 -164h-88l-81 98l-81 -98h-88z" />
    <glyph glyph-name="Scaron" unicode="&#x160;" horiz-adv-x="569" 
d="M63 42v133c72 -50 161 -72 221 -72c73 0 124 31 124 97c0 80 -76 91 -170 119c-104 32 -196 78 -196 205c0 132 97 211 244 211c70 0 154 -18 215 -54v-128c-72 47 -157 68 -216 68c-68 0 -116 -27 -116 -88c0 -76 76 -86 163 -113c107 -33 203 -80 203 -213
c0 -136 -101 -218 -252 -218c-71 0 -156 18 -220 53zM453 959l-115 -164h-108l-115 164h88l81 -98l81 98h88z" />
    <glyph glyph-name="Scedilla" unicode="&#x15e;" horiz-adv-x="569" 
d="M239 -88l24 78c-67 3 -142 20 -200 52v133c72 -50 161 -72 221 -72c73 0 124 31 124 97c0 80 -76 91 -170 119c-104 32 -196 78 -196 205c0 132 97 211 244 211c70 0 154 -18 215 -54v-128c-72 47 -157 68 -216 68c-68 0 -116 -27 -116 -88c0 -76 76 -86 163 -113
c107 -33 203 -80 203 -213c0 -126 -86 -205 -218 -216l-9 -31c54 -12 88 -42 88 -91c0 -54 -43 -90 -109 -90c-32 0 -63 8 -84 18l18 57c22 -11 45 -19 65 -19c23 0 43 10 43 31c0 36 -58 44 -90 46z" />
    <glyph glyph-name="Scommaaccent" unicode="&#x218;" horiz-adv-x="569" 
d="M63 42v133c72 -50 161 -72 221 -72c73 0 124 31 124 97c0 80 -76 91 -170 119c-104 32 -196 78 -196 205c0 132 97 211 244 211c70 0 154 -18 215 -54v-128c-72 47 -157 68 -216 68c-68 0 -116 -27 -116 -88c0 -76 76 -86 163 -113c107 -33 203 -80 203 -213
c0 -136 -101 -218 -252 -218c-71 0 -156 18 -220 53zM254 -54h110l-78 -218h-84z" />
    <glyph glyph-name="Tcaron" unicode="&#x164;" horiz-adv-x="639" 
d="M255 0v611h-237v113h603v-113h-239v-611h-127zM488 959l-115 -164h-108l-115 164h88l81 -98l81 98h88z" />
    <glyph glyph-name="Tcommaaccent" unicode="&#x162;" horiz-adv-x="639" 
d="M255 0v611h-237v113h603v-113h-239v-611h-33l-12 -40c54 -12 88 -42 88 -91c0 -54 -43 -90 -109 -90c-32 0 -62 8 -83 18l17 57c22 -11 45 -19 65 -19c23 0 43 10 43 31c0 36 -58 44 -90 46l27 88h-40z" />
    <glyph glyph-name="uni021A" unicode="&#x21a;" horiz-adv-x="639" 
d="M255 0v611h-237v113h603v-113h-239v-611h-127zM289 -54h110l-78 -218h-84z" />
    <glyph glyph-name="Tbar" unicode="&#x166;" horiz-adv-x="639" 
d="M133 304v94h123v213h-237v113h603v-113h-239v-213h123v-94h-123v-304h-127v304h-123z" />
    <glyph glyph-name="Ugrave" unicode="&#xd9;" horiz-adv-x="740" 
d="M117 106c-40 60 -51 140 -51 238v380h127v-372c0 -85 7 -134 28 -171c24 -42 69 -76 153 -76c76 0 122 28 148 73c23 39 29 93 29 172v374h123v-372c0 -107 -11 -187 -52 -248c-50 -74 -141 -115 -253 -115c-116 0 -204 44 -252 117zM356 795l-113 164h118l81 -164h-86z
" />
    <glyph glyph-name="Uacute" unicode="&#xda;" horiz-adv-x="740" 
d="M117 106c-40 60 -51 140 -51 238v380h127v-372c0 -85 7 -134 28 -171c24 -42 69 -76 153 -76c76 0 122 28 148 73c23 39 29 93 29 172v374h123v-372c0 -107 -11 -187 -52 -248c-50 -74 -141 -115 -253 -115c-116 0 -204 44 -252 117zM502 959l-113 -164h-86l81 164h118z
" />
    <glyph glyph-name="Ucircumflex" unicode="&#xdb;" horiz-adv-x="740" 
d="M117 106c-40 60 -51 140 -51 238v380h127v-372c0 -85 7 -134 28 -171c24 -42 69 -76 153 -76c76 0 122 28 148 73c23 39 29 93 29 172v374h123v-372c0 -107 -11 -187 -52 -248c-50 -74 -141 -115 -253 -115c-116 0 -204 44 -252 117zM203 795l115 164h108l115 -164h-88
l-81 98l-81 -98h-88z" />
    <glyph glyph-name="Utilde" unicode="&#x168;" horiz-adv-x="740" 
d="M117 106c-40 60 -51 140 -51 238v380h127v-372c0 -85 7 -134 28 -171c24 -42 69 -76 153 -76c76 0 122 28 148 73c23 39 29 93 29 172v374h123v-372c0 -107 -11 -187 -52 -248c-50 -74 -141 -115 -253 -115c-116 0 -204 44 -252 117zM364 835c-27 13 -44 23 -68 23
c-37 0 -62 -24 -83 -47l-2 1v92c19 25 48 42 85 42c27 0 53 -9 84 -24c27 -13 44 -23 68 -23c37 0 62 24 83 47l2 -1v-92c-19 -25 -48 -42 -85 -42c-27 0 -53 9 -84 24z" />
    <glyph glyph-name="Udieresis" unicode="&#xdc;" horiz-adv-x="740" 
d="M117 106c-40 60 -51 140 -51 238v380h127v-372c0 -85 7 -134 28 -171c24 -42 69 -76 153 -76c76 0 122 28 148 73c23 39 29 93 29 172v374h123v-372c0 -107 -11 -187 -52 -248c-50 -74 -141 -115 -253 -115c-116 0 -204 44 -252 117zM411 879c0 36 30 66 66 66
s66 -30 66 -66s-30 -66 -66 -66s-66 30 -66 66zM201 879c0 36 30 66 66 66s66 -30 66 -66s-30 -66 -66 -66s-66 30 -66 66z" />
    <glyph glyph-name="Umacron" unicode="&#x16a;" horiz-adv-x="740" 
d="M117 106c-40 60 -51 140 -51 238v380h127v-372c0 -85 7 -134 28 -171c24 -42 69 -76 153 -76c76 0 122 28 148 73c23 39 29 93 29 172v374h123v-372c0 -107 -11 -187 -52 -248c-50 -74 -141 -115 -253 -115c-116 0 -204 44 -252 117zM227 835v84h290v-84h-290z" />
    <glyph glyph-name="Ubreve" unicode="&#x16c;" horiz-adv-x="740" 
d="M117 106c-40 60 -51 140 -51 238v380h127v-372c0 -85 7 -134 28 -171c24 -42 69 -76 153 -76c76 0 122 28 148 73c23 39 29 93 29 172v374h123v-372c0 -107 -11 -187 -52 -248c-50 -74 -141 -115 -253 -115c-116 0 -204 44 -252 117zM372 800c-97 0 -148 65 -151 156h71
c4 -47 24 -90 80 -90s76 43 80 90h71c-3 -91 -54 -156 -151 -156z" />
    <glyph glyph-name="Uring" unicode="&#x16e;" horiz-adv-x="740" 
d="M117 106c-40 60 -51 140 -51 238v380h127v-372c0 -85 7 -134 28 -171c24 -42 69 -76 153 -76c76 0 122 28 148 73c23 39 29 93 29 172v374h123v-372c0 -107 -11 -187 -52 -248c-50 -74 -141 -115 -253 -115c-116 0 -204 44 -252 117zM311 897c0 -34 23 -62 61 -62
s61 28 61 62s-23 62 -61 62s-61 -28 -61 -62zM496 897c0 -68 -53 -119 -124 -119s-124 51 -124 119s53 119 124 119s124 -51 124 -119z" />
    <glyph glyph-name="Uhungarumlaut" unicode="&#x170;" horiz-adv-x="740" 
d="M117 106c-40 60 -51 140 -51 238v380h127v-372c0 -85 7 -134 28 -171c24 -42 69 -76 153 -76c76 0 122 28 148 73c23 39 29 93 29 172v374h123v-372c0 -107 -11 -187 -52 -248c-50 -74 -141 -115 -253 -115c-116 0 -204 44 -252 117zM382 795l78 164h95l-100 -164h-73z
M231 795l78 164h95l-100 -164h-73z" />
    <glyph glyph-name="Uogonek" unicode="&#x172;" horiz-adv-x="740" 
d="M117 106c-40 60 -51 140 -51 238v380h127v-372c0 -85 7 -134 28 -171c24 -42 69 -76 153 -76c76 0 122 28 148 73c23 39 29 93 29 172v374h123v-372c0 -107 -11 -187 -52 -248c-38 -57 -101 -94 -178 -108c-51 -37 -74 -74 -74 -106c0 -26 17 -44 48 -44c12 0 30 3 45 7
v-74c-17 -5 -42 -10 -67 -10c-77 0 -125 43 -125 103c0 38 19 81 57 117v2c-94 9 -169 50 -211 115z" />
    <glyph glyph-name="Wgrave" unicode="&#x1e80;" horiz-adv-x="1031" 
d="M231 0l-223 724h135l106 -352c19 -63 38 -129 55 -191h2c17 61 38 130 57 192l109 351h93l109 -352c22 -71 39 -127 57 -191h2c17 62 36 130 55 192l106 351h129l-224 -724h-135l-96 310c-18 59 -36 118 -52 174h-2c-16 -56 -33 -113 -51 -172l-97 -312h-135zM501 795
l-113 164h118l81 -164h-86z" />
    <glyph glyph-name="Wacute" unicode="&#x1e82;" horiz-adv-x="1031" 
d="M231 0l-223 724h135l106 -352c19 -63 38 -129 55 -191h2c17 61 38 130 57 192l109 351h93l109 -352c22 -71 39 -127 57 -191h2c17 62 36 130 55 192l106 351h129l-224 -724h-135l-96 310c-18 59 -36 118 -52 174h-2c-16 -56 -33 -113 -51 -172l-97 -312h-135zM647 959
l-113 -164h-86l81 164h118z" />
    <glyph glyph-name="Wcircumflex" unicode="&#x174;" horiz-adv-x="1031" 
d="M231 0l-223 724h135l106 -352c19 -63 38 -129 55 -191h2c17 61 38 130 57 192l109 351h93l109 -352c22 -71 39 -127 57 -191h2c17 62 36 130 55 192l106 351h129l-224 -724h-135l-96 310c-18 59 -36 118 -52 174h-2c-16 -56 -33 -113 -51 -172l-97 -312h-135zM348 795
l115 164h108l115 -164h-88l-81 98l-81 -98h-88z" />
    <glyph glyph-name="Wdieresis" unicode="&#x1e84;" horiz-adv-x="1031" 
d="M231 0l-223 724h135l106 -352c19 -63 38 -129 55 -191h2c17 61 38 130 57 192l109 351h93l109 -352c22 -71 39 -127 57 -191h2c17 62 36 130 55 192l106 351h129l-224 -724h-135l-96 310c-18 59 -36 118 -52 174h-2c-16 -56 -33 -113 -51 -172l-97 -312h-135zM556 879
c0 36 30 66 66 66s66 -30 66 -66s-30 -66 -66 -66s-66 30 -66 66zM346 879c0 36 30 66 66 66s66 -30 66 -66s-30 -66 -66 -66s-66 30 -66 66z" />
    <glyph glyph-name="Ygrave" unicode="&#x1ef2;" horiz-adv-x="672" 
d="M274 0v327l-280 397h148l105 -153c32 -47 63 -93 91 -136h2c28 43 60 91 92 138l103 151h143l-277 -396v-328h-127zM323 795l-113 164h118l81 -164h-86z" />
    <glyph glyph-name="Yacute" unicode="&#xdd;" horiz-adv-x="672" 
d="M274 0v327l-280 397h148l105 -153c32 -47 63 -93 91 -136h2c28 43 60 91 92 138l103 151h143l-277 -396v-328h-127zM469 959l-113 -164h-86l81 164h118z" />
    <glyph glyph-name="Ycircumflex" unicode="&#x176;" horiz-adv-x="672" 
d="M274 0v327l-280 397h148l105 -153c32 -47 63 -93 91 -136h2c28 43 60 91 92 138l103 151h143l-277 -396v-328h-127zM170 795l115 164h108l115 -164h-88l-81 98l-81 -98h-88z" />
    <glyph glyph-name="Ydieresis" unicode="&#x178;" horiz-adv-x="672" 
d="M274 0v327l-280 397h148l105 -153c32 -47 63 -93 91 -136h2c28 43 60 91 92 138l103 151h143l-277 -396v-328h-127zM378 879c0 36 30 66 66 66s66 -30 66 -66s-30 -66 -66 -66s-66 30 -66 66zM168 879c0 36 30 66 66 66s66 -30 66 -66s-30 -66 -66 -66s-66 30 -66 66z
" />
    <glyph glyph-name="Zacute" unicode="&#x179;" horiz-adv-x="645" 
d="M607 0h-580l-1 2l374 607l-1 2h-346v113h561l1 -2l-374 -607l1 -2h365v-113zM456 959l-113 -164h-86l81 164h118z" />
    <glyph glyph-name="Zcaron" unicode="&#x17d;" horiz-adv-x="645" 
d="M607 0h-580l-1 2l374 607l-1 2h-346v113h561l1 -2l-374 -607l1 -2h365v-113zM495 959l-115 -164h-108l-115 164h88l81 -98l81 98h88z" />
    <glyph glyph-name="Zdotaccent" unicode="&#x17b;" horiz-adv-x="645" 
d="M607 0h-580l-1 2l374 607l-1 2h-346v113h561l1 -2l-374 -607l1 -2h365v-113zM260 879c0 36 30 66 66 66s66 -30 66 -66s-30 -66 -66 -66s-66 30 -66 66z" />
    <glyph glyph-name="Eng" unicode="&#x14a;" horiz-adv-x="780" 
d="M580 -4v13l-255 340c-45 60 -87 117 -129 175l-2 -1c2 -68 2 -142 2 -219v-304h-123v724h120l262 -349c45 -60 87 -117 129 -175l2 1c-2 68 -2 142 -2 219v304h123v-723c0 -91 -16 -138 -44 -171c-37 -43 -95 -61 -156 -61c-44 0 -80 9 -106 20v114c33 -13 70 -21 98 -21
c71 0 81 42 81 114z" />
    <glyph glyph-name="Thorn" unicode="&#xde;" horiz-adv-x="631" 
d="M74 0v724h127v-134h75c78 0 154 -5 215 -38c63 -34 110 -96 110 -187c0 -85 -41 -148 -101 -184c-59 -35 -137 -43 -237 -43h-62v-138h-127zM201 244h72c74 0 116 3 150 23c32 19 51 50 51 94c0 47 -22 79 -59 97c-36 18 -82 19 -144 19h-70v-233z" />
    <glyph glyph-name="Eth" unicode="&#xd0;" horiz-adv-x="752" 
d="M3 322v94h84v308h201c112 0 206 -18 280 -66c96 -62 150 -169 150 -294c0 -118 -48 -220 -132 -283c-75 -57 -175 -81 -314 -81h-185v322h-84zM214 113h69c95 0 163 14 215 52c56 41 93 111 93 198c0 90 -40 161 -100 202c-57 39 -130 46 -209 46h-68v-195h143v-94h-143
v-209z" />
    <glyph glyph-name="uni00A0" unicode="&#xa0;" horiz-adv-x="240" 
 />
    <glyph glyph-name="minus" unicode="&#x2212;" horiz-adv-x="594" 
d="M540 317h-486v91h486v-91z" />
    <glyph glyph-name="uni0394" unicode="&#x394;" horiz-adv-x="710" 
d="M31 0v80l261 644h127l261 -644v-80h-649zM537 113l-108 274c-26 66 -52 134 -74 195h-2c-22 -61 -48 -129 -74 -195l-108 -274h366z" />
    <glyph glyph-name="uni03A9" unicode="&#x3a9;" horiz-adv-x="764" 
d="M382 620c-138 0 -214 -100 -214 -233c0 -117 60 -224 151 -303v-84h-297v113h139l1 2c-74 75 -121 179 -121 288c0 186 137 332 341 332s341 -146 341 -332c0 -109 -47 -213 -121 -288l1 -2h139v-113h-297v84c91 79 151 186 151 303c0 133 -76 233 -214 233z" />
    <glyph glyph-name="uni03BC" unicode="&#x3bc;" horiz-adv-x="599" 
d="M72 492h121v-282c0 -44 7 -70 22 -87c18 -21 42 -27 65 -27c48 0 95 27 128 64v332h121v-492h-120v54l-2 1c-41 -38 -93 -66 -156 -66c-26 0 -47 5 -64 13l-2 -1l13 -221h-126v712z" />
    </font>
</defs>
</svg>
