<?xml version="1.0" standalone="no"?>
<!DOCTYPE svg PUBLIC "-//W3C//DTD SVG 1.1//EN" "http://www.w3.org/Graphics/SVG/1.1/DTD/svg11.dtd" >
<svg xmlns="http://www.w3.org/2000/svg" xmlns:xlink="http://www.w3.org/1999/xlink" version="1.1">
<metadata>
Created by FontForge 20190801 at Fri Jan  4 20:26:25 2013
 By Jimmy Wärting
Copyright (c) 2012 by Rui Abreu, Portugal. All rights reserved.
</metadata>
<defs>
<font id="AzoSans-ThinItalic" horiz-adv-x="464" >
  <font-face 
    font-family="Azo Sans Tn"
    font-weight="250"
    font-style="italic"
    font-stretch="normal"
    units-per-em="1000"
    panose-1="2 0 0 0 0 0 0 0 0 0"
    ascent="772"
    descent="-228"
    x-height="492"
    cap-height="724"
    bbox="-133 -272 1249 1004"
    underline-thickness="22"
    underline-position="-120"
    slope="-10"
    stemh="22"
    stemv="23"
    unicode-range="U+000D-FB02"
  />
<missing-glyph horiz-adv-x="644" 
d="M150 604l131 131l213 -212l-101 -101l101 -100l-101 -101l101 -100l-132 -132l-212 213l100 100l-100 101l100 100z" />
    <glyph glyph-name="fi" unicode="fi" horiz-adv-x="525" 
d="M71 0l83 471h-91l4 21h91l26 149c10 56 25 83 47 103c24 22 55 31 88 31c24 0 49 -5 75 -12l-4 -22c-21 6 -45 12 -71 12c-28 0 -54 -7 -73 -25c-20 -19 -31 -47 -39 -90l-26 -146h148l-4 -21h-148l-83 -471h-23zM464 665c0 15 13 27 28 27c14 0 25 -11 25 -25
c0 -15 -13 -27 -28 -27c-14 0 -25 11 -25 25zM362 0l87 492h23l-87 -492h-23z" />
    <glyph glyph-name="fl" unicode="fl" horiz-adv-x="525" 
d="M71 0l83 471h-91l4 21h91l26 149c10 56 25 83 47 103c24 22 55 31 88 31c24 0 49 -5 75 -12l-4 -22c-21 6 -45 12 -71 12c-28 0 -54 -7 -73 -25c-20 -19 -31 -47 -39 -90l-26 -146h148l-4 -21h-148l-83 -471h-23zM362 0l135 764h23l-135 -764h-23z" />
    <glyph glyph-name=".notdef" horiz-adv-x="644" 
d="M150 604l131 131l213 -212l-101 -101l101 -100l-101 -101l101 -100l-132 -132l-212 213l100 100l-100 101l100 100z" />
    <glyph glyph-name=".null" horiz-adv-x="1" 
 />
    <glyph glyph-name=".null" horiz-adv-x="1" 
 />
    <glyph glyph-name="CR" unicode="&#xd;" horiz-adv-x="336" 
 />
    <glyph glyph-name="space" unicode=" " horiz-adv-x="244" 
 />
    <glyph glyph-name="A" unicode="A" horiz-adv-x="661" 
d="M-25 0l428 724h23l173 -724h-24l-56 233h-380l-137 -233h-27zM409 690l-257 -435h362l-103 435h-2z" />
    <glyph glyph-name="C" unicode="C" horiz-adv-x="676" 
d="M76 304c0 110 41 229 128 316c69 69 166 115 286 115c73 0 134 -17 192 -43l-4 -24c-51 26 -114 45 -189 45c-111 0 -202 -41 -268 -107c-77 -77 -122 -190 -122 -301c0 -171 108 -294 315 -294c61 0 120 11 172 35l-5 -25c-44 -19 -104 -32 -170 -32
c-198 0 -335 116 -335 315z" />
    <glyph glyph-name="D" unicode="D" horiz-adv-x="727" 
d="M56 0l128 724h152c138 0 225 -42 282 -106c55 -62 81 -141 81 -221c0 -83 -29 -180 -96 -259c-74 -87 -181 -138 -334 -138h-213zM83 22h187c138 0 243 42 317 131c53 64 89 152 89 242c0 78 -27 155 -78 211c-53 58 -135 96 -262 96h-133z" />
    <glyph glyph-name="E" unicode="E" horiz-adv-x="554" 
d="M56 0l128 724h386l-4 -22h-363l-56 -315h318l-4 -22h-318l-60 -343h371l-4 -22h-394z" />
    <glyph glyph-name="F" unicode="F" horiz-adv-x="556" 
d="M56 0l128 724h389l-4 -22h-366l-58 -329h328l-4 -22h-328l-62 -351h-23z" />
    <glyph glyph-name="G" unicode="G" horiz-adv-x="722" 
d="M398 -11c-194 0 -324 122 -324 317c0 117 47 244 142 329c66 59 157 100 271 100c79 0 149 -20 215 -54l-4 -24c-49 28 -125 56 -214 56c-102 0 -189 -37 -252 -93c-91 -81 -135 -202 -135 -313c0 -175 110 -295 302 -295c69 0 137 17 187 38l45 258h-196l4 22h219
l-52 -295c-54 -26 -131 -46 -208 -46z" />
    <glyph glyph-name="I" unicode="I" horiz-adv-x="222" 
d="M56 0l128 724h23l-128 -724h-23z" />
    <glyph glyph-name="K" unicode="K" horiz-adv-x="588" 
d="M56 0l128 724h23l-59 -332h1l439 332h33l-445 -336l344 -388h-30l-342 387h-1l-68 -387h-23z" />
    <glyph glyph-name="O" unicode="O" horiz-adv-x="807" 
d="M76 323c0 93 30 192 93 272c67 85 168 140 284 140c183 0 319 -136 319 -334c0 -93 -30 -192 -93 -272c-67 -85 -168 -140 -284 -140c-183 0 -319 136 -319 334zM99 325c0 -178 117 -314 298 -314c108 0 200 49 263 129c57 72 89 166 89 259c0 178 -117 314 -298 314
c-108 0 -200 -49 -263 -129c-57 -72 -89 -166 -89 -259z" />
    <glyph glyph-name="Q" unicode="Q" horiz-adv-x="807" 
d="M76 323c0 93 30 192 93 272c67 85 168 140 284 140c183 0 319 -136 319 -334c0 -93 -30 -192 -93 -272c-67 -85 -168 -139 -280 -140l-1 -2c84 -61 174 -107 277 -140l-31 -15c-103 36 -196 87 -288 159c-162 17 -280 149 -280 332zM99 325c0 -178 117 -314 298 -314
c108 0 200 49 263 129c57 72 89 166 89 259c0 178 -117 314 -298 314c-108 0 -200 -49 -263 -129c-57 -72 -89 -166 -89 -259z" />
    <glyph glyph-name="S" unicode="S" horiz-adv-x="529" 
d="M26 67l5 26c54 -52 133 -82 208 -82c55 0 109 17 147 51c37 33 58 80 58 131c0 92 -70 126 -157 164c-89 39 -173 76 -173 180c0 54 23 106 62 142c39 37 94 56 155 56c69 0 138 -25 194 -67l-4 -24c-53 44 -125 69 -191 69c-53 0 -102 -17 -136 -47
c-35 -31 -57 -76 -57 -127c0 -92 72 -123 158 -161c88 -39 172 -75 172 -185c0 -57 -23 -110 -68 -149c-40 -35 -95 -55 -160 -55c-78 0 -157 29 -213 78z" />
    <glyph glyph-name="U" unicode="U" horiz-adv-x="702" 
d="M92 210c0 27 3 68 15 136l67 378h23l-67 -378c-10 -55 -15 -101 -15 -135c0 -121 62 -200 206 -200c98 0 166 36 211 101c31 45 55 111 74 221l69 391h22l-70 -397c-20 -113 -44 -180 -78 -229c-51 -73 -128 -109 -228 -109c-158 0 -229 90 -229 221z" />
    <glyph glyph-name="Eng" unicode="&#x14a;" horiz-adv-x="746" 
d="M56 0l128 724h22l379 -686h2l121 686h23l-138 -780c-11 -64 -24 -95 -38 -116c-27 -40 -71 -59 -118 -59c-40 0 -80 13 -109 27l4 24c33 -16 69 -29 107 -29c90 0 117 68 132 155l9 54l-378 686h-2l-121 -686h-23z" />
    <glyph glyph-name="Thorn" unicode="&#xde;" horiz-adv-x="602" 
d="M56 0l128 724h23l-28 -159h155c95 0 154 -21 195 -61c34 -33 50 -76 50 -124c0 -51 -18 -106 -60 -149c-43 -44 -106 -70 -217 -70h-195l-28 -161h-23zM112 183h193c94 0 155 18 198 62c34 35 53 82 53 132c0 46 -16 83 -44 111c-34 34 -86 55 -178 55h-159z" />
    <glyph glyph-name="a" unicode="a" horiz-adv-x="583" 
d="M520 434l-77 -434h-23l13 73l-2 1c-45 -43 -109 -85 -186 -85c-96 0 -190 65 -190 205c0 74 26 164 89 230c50 52 112 79 183 79c68 0 137 -25 193 -69zM439 108l56 316c-49 35 -105 57 -169 57c-58 0 -117 -19 -166 -72c-53 -57 -82 -140 -82 -214
c0 -121 77 -184 169 -184c75 0 138 42 192 97z" />
    <glyph glyph-name="b" unicode="b" horiz-adv-x="573" 
d="M153 441l1 -1c37 30 96 63 167 63c109 0 198 -78 198 -214c0 -73 -26 -156 -81 -216c-47 -51 -114 -84 -206 -84c-61 0 -124 15 -174 42l130 733h23zM319 481c-64 0 -123 -28 -171 -71l-65 -367c45 -20 94 -32 149 -32c75 0 140 22 189 76c51 56 75 133 75 201
c0 118 -72 193 -177 193z" />
    <glyph glyph-name="c" unicode="c" horiz-adv-x="505" 
d="M56 207c0 74 26 162 91 224c43 41 107 72 186 72c57 0 105 -16 144 -40l-4 -23c-43 26 -87 41 -142 41c-65 0 -124 -22 -168 -64c-53 -51 -84 -130 -84 -209c0 -120 73 -197 194 -197c50 0 107 13 144 36l-5 -26c-40 -22 -93 -32 -138 -32c-131 0 -218 83 -218 218z" />
    <glyph glyph-name="d" unicode="d" horiz-adv-x="583" 
d="M55 194c0 78 28 164 84 226c48 52 112 83 187 83c64 0 122 -23 170 -59l2 1l57 319h23l-135 -764h-23l13 73l-2 1c-45 -43 -109 -85 -186 -85c-96 0 -190 64 -190 205zM78 196c0 -123 77 -185 169 -185c75 0 138 42 192 97l55 310c-47 38 -104 63 -169 63
c-60 0 -120 -21 -169 -75c-50 -56 -78 -136 -78 -210z" />
    <glyph glyph-name="e" unicode="e" horiz-adv-x="550" 
d="M55 212c0 66 21 138 67 196c45 56 106 95 185 95c117 0 191 -82 191 -207c0 -14 -1 -30 -5 -53h-413c-1 -10 -2 -20 -2 -30c0 -128 90 -202 212 -202c53 0 97 14 138 36l-4 -25c-31 -18 -84 -33 -138 -33c-124 0 -231 78 -231 223zM139 395c-28 -36 -48 -82 -56 -130h390
c1 8 2 18 2 30c0 93 -47 186 -166 186c-68 0 -127 -30 -170 -86z" />
    <glyph glyph-name="f" unicode="f" horiz-adv-x="309" 
d="M71 0l83 471h-91l4 21h91l26 149c10 56 25 83 47 103c24 22 55 31 88 31c24 0 49 -5 75 -12l-4 -22c-21 6 -45 12 -71 12c-28 0 -54 -7 -73 -25c-20 -19 -31 -47 -39 -90l-26 -146h148l-4 -21h-148l-83 -471h-23z" />
    <glyph glyph-name="g" unicode="g" horiz-adv-x="575" 
d="M55 203c0 73 26 158 86 221c48 51 111 79 188 79c66 0 130 -22 184 -59l-83 -472c-28 -157 -131 -203 -230 -203c-58 0 -115 15 -169 47l4 23c45 -26 101 -48 166 -48c102 0 184 55 207 183l17 99l-2 1c-44 -39 -102 -75 -176 -75c-100 0 -192 68 -192 204zM78 204
c0 -118 74 -183 170 -183c71 0 131 36 183 86l57 326c-46 30 -99 48 -159 48c-63 0 -123 -19 -172 -71c-52 -56 -79 -135 -79 -206z" />
    <glyph glyph-name="h" unicode="h" horiz-adv-x="582" 
d="M53 0l135 764h23l-64 -362l2 -1c63 56 134 102 215 102c86 0 141 -52 141 -139c0 -24 -4 -48 -11 -90l-48 -274h-23l49 277c5 28 10 62 10 86c0 66 -38 118 -120 118c-77 0 -148 -46 -221 -113l-65 -368h-23z" />
    <glyph glyph-name="i" unicode="i" horiz-adv-x="216" 
d="M155 665c0 15 13 27 28 27c14 0 25 -11 25 -25c0 -15 -13 -27 -28 -27c-14 0 -25 11 -25 25zM53 0l87 492h23l-87 -492h-23z" />
    <glyph glyph-name="j" unicode="j" horiz-adv-x="217" 
d="M156 665c0 15 13 27 28 27c14 0 25 -11 25 -25c0 -15 -13 -27 -28 -27c-14 0 -25 11 -25 25zM36 -101l105 593h23l-105 -595c-9 -50 -20 -72 -31 -86c-23 -30 -59 -42 -90 -42c-20 0 -45 5 -61 11l4 23c17 -6 38 -12 60 -12c59 0 83 42 95 108z" />
    <glyph glyph-name="k" unicode="k" horiz-adv-x="478" 
d="M53 0l135 764h23l-86 -488h1l321 216h36l-328 -220l259 -272h-32l-257 271h-1l-48 -271h-23z" />
    <glyph glyph-name="l" unicode="l" horiz-adv-x="216" 
d="M53 0l135 764h23l-135 -764h-23z" />
    <glyph glyph-name="m" unicode="m" horiz-adv-x="930" 
d="M53 0l87 492h23l-16 -90l2 -1c63 58 131 102 209 102c77 0 128 -43 135 -115c74 72 146 115 223 115c84 0 136 -50 136 -133c0 -22 -3 -45 -10 -85l-50 -285h-23l51 287c5 28 9 60 9 82c0 64 -38 112 -115 112s-149 -49 -220 -119c-1 -20 -4 -42 -10 -77l-50 -285h-23
l51 287c5 28 9 60 9 82c0 64 -38 112 -115 112s-145 -46 -215 -113l-65 -368h-23z" />
    <glyph glyph-name="n" unicode="n" horiz-adv-x="584" 
d="M53 0l87 492h23l-16 -90l2 -1c63 56 134 102 215 102c86 0 141 -52 141 -139c0 -24 -4 -48 -11 -90l-48 -274h-23l49 277c5 28 10 62 10 86c0 66 -38 118 -120 118c-77 0 -148 -46 -221 -113l-65 -368h-23z" />
    <glyph glyph-name="p" unicode="p" horiz-adv-x="577" 
d="M523 286c0 -73 -26 -157 -82 -217c-46 -49 -110 -80 -190 -80c-68 0 -123 22 -166 54l-2 -1l-46 -262h-23l126 712h23l-9 -50l2 -1c42 33 97 62 165 62c113 0 202 -83 202 -217zM500 285c0 116 -73 196 -181 196c-66 0 -124 -30 -171 -73l-60 -340c43 -35 97 -57 163 -57
c68 0 128 23 173 72c47 51 76 129 76 202z" />
    <glyph glyph-name="q" unicode="q" horiz-adv-x="577" 
d="M517 453l-119 -673h-23l49 278l-2 1c-40 -35 -99 -70 -171 -70c-105 0 -196 74 -196 211c0 73 26 159 84 221c48 51 113 82 198 82c63 0 128 -17 180 -50zM430 91l62 351c-47 25 -97 39 -155 39c-70 0 -133 -21 -182 -75c-51 -56 -77 -135 -77 -205
c0 -119 74 -190 174 -190c68 0 128 33 178 80z" />
    <glyph glyph-name="r" unicode="r" horiz-adv-x="339" 
d="M76 0h-23l87 492h23l-15 -86l1 -1c38 42 106 91 178 91c10 0 23 -1 30 -2l-4 -22c-7 1 -19 2 -29 2c-70 0 -135 -50 -183 -106z" />
    <glyph glyph-name="s" unicode="s" horiz-adv-x="465" 
d="M17 52l4 25c50 -44 130 -66 199 -66c50 0 88 12 115 34c26 21 43 51 43 86c0 78 -84 97 -143 111c-72 17 -159 38 -159 124c0 39 18 78 55 104c30 21 71 33 122 33c62 0 130 -17 183 -51l-4 -23c-50 32 -113 52 -179 52c-46 0 -82 -10 -108 -28c-28 -20 -46 -51 -46 -87
c0 -67 63 -84 148 -104c55 -13 154 -37 154 -129c0 -38 -17 -77 -52 -105s-81 -39 -132 -39c-71 0 -145 21 -200 63z" />
    <glyph glyph-name="t" unicode="t" horiz-adv-x="351" 
d="M113 177l52 294h-106l4 21h106l25 143l24 3l-26 -146h172l-4 -21h-172l-52 -294c-6 -33 -9 -56 -9 -73c0 -64 40 -93 91 -93c19 0 44 4 63 13l-4 -24c-17 -6 -40 -10 -60 -10c-59 0 -113 34 -113 111c0 21 4 48 9 76z" />
    <glyph glyph-name="u" unicode="u" horiz-adv-x="584" 
d="M79 128c0 24 4 48 11 90l48 274h23l-49 -277c-5 -28 -10 -62 -10 -86c0 -66 38 -118 120 -118c77 0 148 46 221 113l65 368h23l-87 -492h-23l16 90l-2 1c-63 -56 -133 -102 -215 -102c-86 0 -141 52 -141 139z" />
    <glyph glyph-name="v" unicode="v" horiz-adv-x="522" 
d="M206 0l-122 492h23l114 -461h2l277 461h25l-296 -492h-23z" />
    <glyph glyph-name="w" unicode="w" horiz-adv-x="805" 
d="M177 0l-89 492h23l82 -455h2l242 455h16l82 -455h2l242 455h25l-262 -492h-23l-81 448h-1l-238 -448h-22z" />
    <glyph glyph-name="x" unicode="x" horiz-adv-x="470" 
d="M-21 0l242 251l-148 241h25l139 -227h1l219 227h29l-235 -243l153 -249h-25l-144 235h-2l-226 -235h-28z" />
    <glyph glyph-name="y" unicode="y" horiz-adv-x="522" 
d="M58 -220h-26l183 275l-134 437h23l126 -413h1l273 413h25z" />
    <glyph glyph-name="z" unicode="z" horiz-adv-x="478" 
d="M-11 0l-1 2l453 467l-1 2h-343l4 21h390l1 -2l-453 -467l1 -2h367l-4 -21h-414z" />
    <glyph glyph-name="dotlessi" unicode="&#x131;" horiz-adv-x="216" 
d="M53 0l87 492h23l-87 -492h-23z" />
    <glyph glyph-name="eth" unicode="&#xf0;" horiz-adv-x="614" 
d="M256 574l-2 22l142 50c-33 36 -72 68 -116 95l15 16c49 -32 90 -66 123 -103l108 38l2 -22l-95 -34c82 -101 110 -216 110 -324c0 -93 -21 -182 -81 -246c-42 -45 -104 -77 -179 -77c-126 0 -217 91 -217 226c0 73 27 148 80 200c45 44 107 71 172 71
c88 0 170 -48 199 -130l3 1c-12 109 -50 200 -109 272zM89 217c0 -115 73 -205 195 -205c63 0 119 24 161 68c48 51 70 120 70 182c0 111 -73 202 -196 202c-61 0 -114 -22 -156 -63c-50 -49 -74 -119 -74 -184z" />
    <glyph glyph-name="grave" unicode="`" 
d="M308 563l-71 164h24l67 -164h-20z" />
    <glyph glyph-name="acute" unicode="&#xb4;" 
d="M399 727l-129 -164h-22l125 164h26z" />
    <glyph glyph-name="circumflex" unicode="&#x2c6;" 
d="M156 563l149 164h24l91 -164h-20l-85 148l-135 -148h-24z" />
    <glyph glyph-name="caron" unicode="&#x2c7;" 
d="M449 727l-149 -164h-24l-91 164h20l85 -148l135 148h24z" />
    <glyph glyph-name="commaaccent" unicode="&#xf6c3;" 
d="M175 -54h25l-106 -218h-20z" />
    <glyph glyph-name="commaaccent.alt" 
d="M252 556l106 218h20l-101 -218h-25z" />
    <glyph glyph-name="tilde" unicode="&#x2dc;" 
d="M296 642c-24 16 -40 26 -62 26c-35 0 -60 -27 -76 -53h-2l5 30c17 24 43 43 75 43c28 0 49 -14 75 -32c22 -15 39 -26 61 -26c35 0 61 27 76 53h2l-5 -31c-17 -24 -43 -42 -75 -42c-28 0 -48 14 -74 32z" />
    <glyph glyph-name="dieresis" unicode="&#xa8;" 
d="M387 619c-14 0 -25 11 -25 25c0 15 13 27 28 27c14 0 25 -11 25 -25c0 -15 -13 -27 -28 -27zM215 619c-14 0 -25 11 -25 25c0 15 13 27 28 27c14 0 25 -11 25 -25c0 -15 -13 -27 -28 -27z" />
    <glyph glyph-name="macron" unicode="&#xaf;" 
d="M173 635l4 20h255l-4 -20h-255z" />
    <glyph glyph-name="breve" unicode="&#x2d8;" 
d="M292 575c-70 0 -100 48 -100 105c0 10 1 22 2 31h19c-1 -8 -2 -19 -2 -29c0 -45 21 -88 83 -88c71 0 105 56 121 117h19c-15 -71 -60 -136 -142 -136z" />
    <glyph glyph-name="ring" unicode="&#x2da;" 
d="M299 558c-58 0 -98 42 -98 99c0 61 47 115 112 115c58 0 98 -42 98 -99c0 -61 -47 -115 -112 -115zM299 577c51 0 92 41 92 94c0 44 -28 82 -78 82c-51 0 -92 -41 -92 -94c0 -44 28 -82 78 -82z" />
    <glyph glyph-name="hungarumlaut" unicode="&#x2dd;" 
d="M313 563l127 164h26l-132 -164h-21zM198 563l127 164h26l-132 -164h-21z" />
    <glyph glyph-name="dotaccent" unicode="&#x2d9;" 
d="M301 619c-14 0 -25 11 -25 25c0 15 13 27 28 27c14 0 25 -11 25 -25c0 -15 -13 -27 -28 -27z" />
    <glyph glyph-name="cedilla" unicode="&#xb8;" 
d="M154 -72l39 83l19 -6l-30 -63c45 -12 77 -37 77 -79c0 -48 -37 -84 -92 -84c-26 0 -50 8 -74 22l10 21c16 -10 39 -22 64 -22c32 0 69 20 69 61c0 44 -45 59 -82 67z" />
    <glyph glyph-name="ogonek" unicode="&#x2db;" 
d="M152 -152c0 63 52 120 104 161l23 -5c-51 -38 -104 -97 -104 -156c0 -32 16 -57 55 -57c8 0 19 1 25 2l-4 -22c-5 -1 -15 -2 -23 -2c-41 0 -76 27 -76 79z" />
    <glyph glyph-name="comma" unicode="," horiz-adv-x="300" 
d="M20 -147l106 261h28l-115 -261h-19z" />
    <glyph glyph-name="semicolon" unicode=";" horiz-adv-x="300" 
d="M190 439c-18 0 -32 14 -32 32s14 32 32 32s32 -14 32 -32s-14 -32 -32 -32zM20 -147l106 261h28l-115 -261h-19z" />
    <glyph glyph-name="colon" unicode=":" horiz-adv-x="300" 
d="M190 439c-18 0 -32 14 -32 32s14 32 32 32s32 -14 32 -32s-14 -32 -32 -32zM78 21c0 18 14 32 32 32s32 -14 32 -32s-14 -32 -32 -32s-32 14 -32 32z" />
    <glyph glyph-name="period" unicode="." horiz-adv-x="300" 
d="M78 21c0 18 14 32 32 32s32 -14 32 -32s-14 -32 -32 -32s-32 14 -32 32z" />
    <glyph glyph-name="ellipsis" unicode="&#x2026;" horiz-adv-x="840" 
d="M78 21c0 18 14 32 32 32s32 -14 32 -32s-14 -32 -32 -32s-32 14 -32 32zM348 21c0 18 14 32 32 32s32 -14 32 -32s-14 -32 -32 -32s-32 14 -32 32zM618 21c0 18 14 32 32 32s32 -14 32 -32s-14 -32 -32 -32s-32 14 -32 32z" />
    <glyph glyph-name="hyphen" unicode="-" horiz-adv-x="362" 
d="M73 266l4 22h223l-4 -22h-223z" />
    <glyph glyph-name="hyphen.cap" horiz-adv-x="362" 
d="M88 350l4 22h223l-4 -22h-223z" />
    <glyph glyph-name="exclam" unicode="!" horiz-adv-x="317" 
d="M140 196l90 528h24l-96 -528h-18zM86 21c0 18 14 32 32 32s32 -14 32 -32s-14 -32 -32 -32s-32 14 -32 32z" />
    <glyph glyph-name="exclamdown" unicode="&#xa1;" horiz-adv-x="317" 
d="M231 471c0 -18 -14 -32 -32 -32s-32 14 -32 32s14 32 32 32s32 -14 32 -32zM176 296l-90 -528h-24l96 528h18z" />
    <glyph glyph-name="exclamdown.cap" horiz-adv-x="317" 
d="M272 703c0 -18 -14 -32 -32 -32s-32 14 -32 32s14 32 32 32s32 -14 32 -32zM217 528l-90 -528h-24l96 528h18z" />
    <glyph glyph-name="questiondown" unicode="&#xbf;" horiz-adv-x="459" 
d="M260 308h21l-26 -150c-122 0 -236 -72 -236 -199c0 -106 79 -180 194 -180c38 0 74 8 110 25l-4 -25c-31 -13 -68 -22 -108 -22c-120 0 -215 79 -215 201c0 130 108 213 240 220zM268 471c0 18 14 32 32 32s32 -14 32 -32s-14 -32 -32 -32s-32 14 -32 32z" />
    <glyph glyph-name="questiondown.cap" horiz-adv-x="459" 
d="M301 541h21l-26 -150c-122 0 -236 -72 -236 -199c0 -106 79 -180 194 -180c38 0 74 8 110 25l-4 -25c-31 -13 -68 -22 -108 -22c-120 0 -215 79 -215 201c0 130 108 213 240 220zM309 704c0 18 14 32 32 32s32 -14 32 -32s-14 -32 -32 -32s-32 14 -32 32z" />
    <glyph glyph-name="quoteleft" unicode="&#x2018;" horiz-adv-x="266" 
d="M131 489l111 253h19l-103 -253h-27z" />
    <glyph glyph-name="quoteright" unicode="&#x2019;" horiz-adv-x="266" 
d="M135 489l103 253h27l-111 -253h-19z" />
    <glyph glyph-name="quotedblright" unicode="&#x201d;" horiz-adv-x="398" 
d="M135 489l103 253h27l-111 -253h-19zM267 489l103 253h27l-111 -253h-19z" />
    <glyph glyph-name="guilsinglleft" unicode="&#x2039;" horiz-adv-x="338" 
d="M180 27l-132 227l206 211h28l-208 -213l131 -225h-25z" />
    <glyph glyph-name="guilsinglleft.cap" horiz-adv-x="338" 
d="M200 143l-132 227l206 211h28l-208 -213l131 -225h-25z" />
    <glyph glyph-name="guilsinglright" unicode="&#x203a;" horiz-adv-x="338" 
d="M56 27l208 213l-131 225h25l132 -227l-206 -211h-28z" />
    <glyph glyph-name="guilsinglright.cap" horiz-adv-x="338" 
d="M76 143l208 213l-131 225h25l132 -227l-206 -211h-28z" />
    <glyph glyph-name="guillemotleft" unicode="&#xab;" horiz-adv-x="524" 
d="M180 27l-132 227l206 211h28l-208 -213l131 -225h-25zM366 27l-132 227l206 211h28l-208 -213l131 -225h-25z" />
    <glyph glyph-name="guillemotleft.cap" horiz-adv-x="524" 
d="M200 143l-132 227l206 211h28l-208 -213l131 -225h-25zM386 143l-132 227l206 211h28l-208 -213l131 -225h-25z" />
    <glyph glyph-name="guillemotright" unicode="&#xbb;" horiz-adv-x="524" 
d="M56 27l208 213l-131 225h25l132 -227l-206 -211h-28zM242 27l208 213l-131 225h25l132 -227l-206 -211h-28z" />
    <glyph glyph-name="guillemotright.cap" horiz-adv-x="524" 
d="M76 143l208 213l-131 225h25l132 -227l-206 -211h-28zM262 143l208 213l-131 225h25l132 -227l-206 -211h-28z" />
    <glyph glyph-name="slash" unicode="/" horiz-adv-x="420" 
d="M4 -38h-25l478 800h25z" />
    <glyph glyph-name="bar" unicode="|" horiz-adv-x="315" 
d="M64 -220l180 1020h22l-180 -1020h-22z" />
    <glyph glyph-name="endash" unicode="&#x2013;" horiz-adv-x="495" 
d="M60 267l4 21h382l-4 -21h-382z" />
    <glyph glyph-name="endash.cap" horiz-adv-x="495" 
d="M75 351l4 21h382l-4 -21h-382z" />
    <glyph glyph-name="emdash" unicode="&#x2014;" horiz-adv-x="781" 
d="M44 267l4 21h700l-4 -21h-700z" />
    <glyph glyph-name="emdash.cap" horiz-adv-x="781" 
d="M59 351l4 21h700l-4 -21h-700z" />
    <glyph glyph-name="bullet" unicode="&#x2022;" horiz-adv-x="388" 
d="M203 207c-50 0 -90 40 -90 90s40 90 90 90s90 -40 90 -90s-40 -90 -90 -90z" />
    <glyph glyph-name="parenleft" unicode="(" horiz-adv-x="296" 
d="M77 109c0 114 24 246 70 360c45 111 110 206 174 274h26c-72 -74 -136 -172 -180 -281s-68 -231 -68 -349c0 -122 25 -234 77 -326h-24c-48 87 -75 202 -75 322z" />
    <glyph glyph-name="parenright" unicode=")" horiz-adv-x="296" 
d="M150 68c44 109 68 231 68 349c0 122 -25 234 -77 326h24c48 -87 75 -202 75 -322c0 -114 -24 -246 -70 -360c-45 -111 -110 -206 -174 -274h-26c72 74 136 172 180 281z" />
    <glyph glyph-name="parenleft.cap" horiz-adv-x="296" 
d="M94 206c0 114 24 246 70 360c45 111 110 206 174 274h26c-72 -74 -136 -172 -180 -281s-68 -231 -68 -349c0 -122 25 -234 77 -326h-24c-48 87 -75 202 -75 322z" />
    <glyph glyph-name="parenright.cap" horiz-adv-x="296" 
d="M167 165c44 109 68 231 68 349c0 122 -25 234 -77 326h24c48 -87 75 -202 75 -322c0 -114 -24 -246 -70 -360c-45 -111 -110 -206 -174 -274h-26c72 74 136 172 180 281z" />
    <glyph glyph-name="bracketleft" unicode="[" horiz-adv-x="310" 
d="M45 -192h162l-4 -21h-184l169 956h184l-4 -21h-162z" />
    <glyph glyph-name="bracketright" unicode="]" horiz-adv-x="310" 
d="M-52 -192h162l161 914h-162l4 21h184l-169 -956h-184z" />
    <glyph glyph-name="bracketleft.cap" horiz-adv-x="310" 
d="M62 -95h162l-4 -21h-184l169 956h184l-4 -21h-162z" />
    <glyph glyph-name="bracketright.cap" horiz-adv-x="310" 
d="M-35 -95h162l161 914h-162l4 21h184l-169 -956h-184z" />
    <glyph glyph-name="braceleft" unicode="{" horiz-adv-x="332" 
d="M85 -63l38 215c3 18 5 30 5 45c0 35 -15 57 -70 57h-29l4 22h31c78 0 87 36 98 97l41 233c18 105 51 148 131 148c21 0 46 -4 63 -9l-4 -21c-16 5 -37 9 -60 9c-71 0 -94 -46 -108 -127l-42 -238c-10 -56 -24 -93 -73 -104v-1c31 -10 40 -35 40 -64c0 -15 -3 -36 -6 -53
l-37 -210c-5 -29 -7 -48 -7 -63c0 -56 28 -76 89 -76c12 0 31 1 42 3l-4 -21c-11 -2 -24 -3 -38 -3c-75 0 -111 27 -111 97c0 17 3 40 7 64z" />
    <glyph glyph-name="braceright" unicode="}" horiz-adv-x="332" 
d="M114 -76l42 238c10 56 24 93 73 104v1c-31 10 -40 35 -40 64c0 15 3 36 6 53l37 210c5 29 7 48 7 63c0 56 -28 76 -89 76c-12 0 -31 -1 -42 -3l4 21c11 2 24 3 38 3c75 0 111 -27 111 -97c0 -17 -3 -40 -7 -64l-38 -215c-3 -18 -5 -30 -5 -45c0 -35 15 -57 70 -57h29
l-4 -22h-31c-78 0 -87 -36 -98 -97l-41 -233c-18 -105 -51 -148 -131 -148c-21 0 -46 4 -63 9l4 21c16 -5 37 -9 60 -9c71 0 94 46 108 127z" />
    <glyph glyph-name="braceleft.cap" horiz-adv-x="332" 
d="M102 34l38 215c3 18 5 30 5 45c0 35 -15 57 -70 57h-29l4 22h31c78 0 87 36 98 97l41 233c18 105 51 148 131 148c21 0 46 -4 63 -9l-4 -21c-16 5 -37 9 -60 9c-71 0 -94 -46 -108 -127l-42 -238c-10 -56 -24 -93 -73 -104v-1c31 -10 40 -35 40 -64c0 -15 -3 -36 -6 -53
l-37 -210c-5 -29 -7 -48 -7 -63c0 -56 28 -76 89 -76c12 0 31 1 42 3l-4 -21c-11 -2 -24 -3 -38 -3c-75 0 -111 27 -111 97c0 17 3 40 7 64z" />
    <glyph glyph-name="braceright.cap" horiz-adv-x="332" 
d="M131 21l42 238c10 56 24 93 73 104v1c-31 10 -40 35 -40 64c0 15 3 36 6 53l37 210c5 29 7 48 7 63c0 56 -28 76 -89 76c-12 0 -31 -1 -42 -3l4 21c11 2 24 3 38 3c75 0 111 -27 111 -97c0 -17 -3 -40 -7 -64l-38 -215c-3 -18 -5 -30 -5 -45c0 -35 15 -57 70 -57h29
l-4 -22h-31c-78 0 -87 -36 -98 -97l-41 -233c-18 -105 -51 -148 -131 -148c-21 0 -46 4 -63 9l4 21c16 -5 37 -9 60 -9c71 0 94 46 108 127z" />
    <glyph glyph-name="asterisk" unicode="*" horiz-adv-x="458" 
d="M274 564l27 167h24l-33 -167h-18zM312 534l-2 17l168 55l3 -23zM93 583l11 23l148 -55l-8 -17zM139 364l-18 13l125 135l13 -11zM357 364l-72 137l17 10l77 -134z" />
    <glyph glyph-name="dagger" unicode="&#x2020;" horiz-adv-x="605" 
d="M209 -220l118 670h-219l4 21h219l45 253h22l-45 -253h219l-4 -21h-219l-118 -670h-22z" />
    <glyph glyph-name="daggerdbl" unicode="&#x2021;" horiz-adv-x="605" 
d="M35 33l4 21h218l70 396h-219l4 21h219l45 253h22l-45 -253h219l-4 -21h-219l-70 -396h220l-4 -21h-219l-45 -253h-22l45 253h-219z" />
    <glyph glyph-name="section" unicode="&#xa7;" horiz-adv-x="536" 
d="M62 -75c41 -31 99 -58 159 -58c83 0 144 49 144 131c0 74 -48 101 -140 149c-73 38 -150 79 -150 171c0 84 61 139 146 153v2c-31 25 -54 57 -54 106c0 83 64 149 165 149c46 0 96 -14 145 -46l-4 -24c-37 27 -92 48 -144 48c-74 0 -139 -43 -139 -127
c0 -63 42 -94 137 -142c85 -43 155 -86 155 -174c0 -80 -52 -141 -144 -156v-2c31 -26 50 -58 50 -106c0 -90 -69 -154 -169 -154c-52 0 -110 18 -161 55zM319 417c-25 12 -51 25 -74 39c-78 -7 -147 -52 -147 -137c0 -76 55 -110 132 -150c31 -16 59 -30 83 -46
c81 4 146 58 146 138c0 79 -64 118 -140 156z" />
    <glyph glyph-name="paragraph" unicode="&#xb6;" horiz-adv-x="523" 
d="M169 -220l103 582c-88 5 -150 72 -150 158c0 101 92 204 203 204h153l-166 -944h-22l162 920h-99l-162 -920h-22z" />
    <glyph glyph-name="asciicircum" unicode="^" horiz-adv-x="585" 
d="M109 362l258 373h22l128 -373h-25l-117 347h-1l-239 -347h-26z" />
    <glyph glyph-name="asciitilde" unicode="~" horiz-adv-x="541" 
d="M393 310c-46 0 -79 25 -112 46c-31 20 -58 37 -93 37c-48 0 -77 -34 -96 -70l-2 1l7 37c23 35 54 53 93 53c46 0 79 -25 112 -46c31 -20 58 -37 93 -37c48 0 77 34 96 70l2 -1l-7 -37c-23 -35 -54 -53 -93 -53z" />
    <glyph glyph-name="brokenbar" unicode="&#xa6;" horiz-adv-x="315" 
d="M175 408l69 392h22l-69 -392h-22zM133 172h22l-69 -392h-22z" />
    <glyph glyph-name="backslash" unicode="\" horiz-adv-x="423" 
d="M317 -38l-194 800h23l194 -800h-23z" />
    <glyph glyph-name="underscore" unicode="_" horiz-adv-x="439" 
d="M-62 -105h439l-4 -21h-439z" />
    <glyph glyph-name="quotesingle" unicode="'" horiz-adv-x="186" 
d="M127 489l40 253h27l-50 -253h-17z" />
    <glyph glyph-name="quotedbl" unicode="&#x22;" horiz-adv-x="323" 
d="M127 489l40 253h27l-50 -253h-17zM264 489l40 253h27l-50 -253h-17z" />
    <glyph glyph-name="copyright" unicode="&#xa9;" horiz-adv-x="825" 
d="M66 362c0 208 155 373 367 373s367 -165 367 -373s-155 -373 -367 -373s-367 165 -367 373zM89 362c0 -195 142 -351 344 -351s344 156 344 351s-142 351 -344 351s-344 -156 -344 -351zM246 366c0 115 82 205 204 205c40 0 74 -9 105 -25v-26c-34 20 -69 29 -106 29
c-107 0 -180 -78 -180 -183c0 -107 75 -181 179 -181c44 0 84 12 113 33v-26c-32 -18 -72 -29 -114 -29c-119 0 -201 88 -201 203z" />
    <glyph glyph-name="Euro" unicode="&#x20ac;" horiz-adv-x="579" 
d="M17 276l4 21h92v2c0 47 7 95 21 141h-88l4 21h91c20 59 52 114 95 159c72 76 164 115 262 115c41 0 84 -7 123 -21l-4 -21c-36 12 -77 20 -120 20c-97 0 -182 -41 -244 -106c-40 -42 -70 -92 -89 -146h246l-4 -21h-249c-14 -45 -21 -93 -21 -143h245l-4 -21h-241
c10 -162 109 -265 279 -265c24 0 64 2 93 11l-4 -23c-28 -6 -56 -10 -90 -10c-179 0 -292 112 -301 287h-96z" />
    <glyph glyph-name="dollar" unicode="$" horiz-adv-x="527" 
d="M55 107l4 24c53 -40 128 -62 194 -62c91 0 182 44 182 148c0 71 -51 105 -145 137c-94 33 -160 71 -160 157c0 103 86 165 196 166l22 123h22l-22 -124c56 -3 111 -23 155 -49l-4 -24c-50 32 -113 52 -171 52c-86 0 -175 -43 -175 -141c0 -72 49 -106 144 -139
c92 -33 161 -67 161 -158c0 -109 -92 -170 -205 -170h-15l-22 -123h-22l22 125c-62 7 -122 29 -161 58z" />
    <glyph glyph-name="sterling" unicode="&#xa3;" horiz-adv-x="530" 
d="M88 338l4 21h75c-7 52 -20 104 -20 153c0 132 95 223 216 223c69 0 131 -30 168 -60l-4 -25c-47 39 -101 63 -163 63c-111 0 -194 -78 -194 -200c0 -48 13 -101 21 -154h204l-4 -21h-197c1 -14 2 -28 2 -43c0 -112 -54 -199 -127 -271v-2h380l-4 -22h-417l3 17
c83 71 142 167 142 277c0 14 -1 29 -3 44h-82z" />
    <glyph glyph-name="yen" unicode="&#xa5;" horiz-adv-x="635" 
d="M123 434l4 21h155l-139 269h25l173 -335h2l290 335h28l-234 -269h157l-4 -21h-171l-58 -67l-18 -101h217l-4 -21h-217l-43 -245h-23l43 245h-217l4 21h217l18 101l-35 67h-170z" />
    <glyph glyph-name="numbersign" unicode="#" horiz-adv-x="590" 
d="M42 0l114 245h-142l10 21h142l89 192h-142l10 21h142l114 245h22l-114 -245h166l114 245h22l-114 -245h142l-10 -21h-142l-89 -192h142l-10 -21h-142l-114 -245h-22l114 245h-166l-114 -245h-22zM188 266h166l89 192h-166z" />
    <glyph glyph-name="zero" unicode="0" horiz-adv-x="544" 
d="M243 -11c-126 0 -185 98 -185 251c0 97 24 232 70 332c46 101 113 163 214 163c126 0 185 -98 185 -251c0 -97 -24 -232 -70 -332c-46 -101 -113 -163 -214 -163zM243 11c91 0 151 58 193 149c42 92 68 222 68 323c0 134 -46 230 -162 230c-91 0 -151 -58 -193 -149
c-42 -92 -68 -222 -68 -323c0 -134 46 -230 162 -230z" />
    <glyph glyph-name="fraction" unicode="&#x2044;" horiz-adv-x="412" 
d="M-67 -13h-27l612 737h27z" />
    <glyph glyph-name="plus" unicode="+" horiz-adv-x="570" 
d="M251 116l42 236h-220l4 21h220l41 235h22l-41 -235h220l-4 -21h-220l-42 -236h-22z" />
    <glyph glyph-name="minus" unicode="&#x2212;" horiz-adv-x="570" 
d="M73 352l4 21h462l-4 -21h-462z" />
    <glyph glyph-name="plusminus" unicode="&#xb1;" horiz-adv-x="570" 
d="M42 97l4 21h434l-4 -21h-434zM273 238l36 205h-206l4 21h206l36 205h22l-36 -205h206l-4 -21h-206l-36 -205h-22z" />
    <glyph glyph-name="multiply" unicode="&#xd7;" horiz-adv-x="570" 
d="M89 165l-13 15l215 182l-149 182l16 13l149 -182l215 182l13 -15l-215 -182l149 -182l-16 -13l-149 182z" />
    <glyph glyph-name="divide" unicode="&#xf7;" horiz-adv-x="570" 
d="M73 352l4 21h462l-4 -21h-462zM345 553c-18 0 -33 15 -33 33s15 33 33 33s33 -15 33 -33s-15 -33 -33 -33zM233 139c0 18 15 33 33 33s33 -15 33 -33s-15 -33 -33 -33s-33 15 -33 33z" />
    <glyph glyph-name="equal" unicode="=" horiz-adv-x="570" 
d="M89 445l4 21h462l-4 -21h-462zM56 258l4 21h462l-4 -21h-462z" />
    <glyph glyph-name="notequal" unicode="&#x2260;" horiz-adv-x="570" 
d="M89 445l4 21h298l165 170l15 -15l-150 -155h134l-4 -21h-150l-161 -166h282l-4 -21h-298l-165 -170l-15 15l150 155h-134l4 21h150l161 166h-282z" />
    <glyph glyph-name="approxequal" unicode="&#x2248;" horiz-adv-x="570" 
d="M118 405l-10 16c21 32 55 65 110 65c72 0 140 -58 209 -58c46 0 70 23 97 60l10 -16c-21 -32 -55 -65 -110 -65c-72 0 -140 58 -209 58c-46 0 -70 -23 -97 -60zM88 236l-10 16c21 32 55 65 110 65c72 0 140 -58 209 -58c46 0 70 23 97 60l10 -16
c-21 -32 -55 -65 -110 -65c-72 0 -140 58 -209 58c-46 0 -70 -23 -97 -60z" />
    <glyph glyph-name="less" unicode="&#x3c;" horiz-adv-x="646" 
d="M114 353l3 17l496 222l-5 -25l-460 -206v-1l387 -206l-4 -23z" />
    <glyph glyph-name="greater" unicode="&#x3e;" horiz-adv-x="646" 
d="M74 131l5 25l460 206v1l-387 206l4 23l417 -222l-3 -17z" />
    <glyph glyph-name="logicalnot" unicode="&#xac;" horiz-adv-x="570" 
d="M72 352l4 21h462l-45 -257h-22l42 236h-441z" />
    <glyph glyph-name="uni00AD" unicode="&#xad;" horiz-adv-x="362" 
d="M73 266l4 22h223l-4 -22h-223z" />
    <glyph glyph-name="Delta" unicode="&#x2206;" horiz-adv-x="668" 
d="M13 0v16l299 708h21l299 -708v-16h-619zM40 22h564l-281 669h-1z" />
    <glyph glyph-name="Omega" unicode="&#x2126;" horiz-adv-x="737" 
d="M27 0v22h218l1 2c-112 105 -180 238 -180 375c0 192 119 336 310 336s310 -144 310 -336c0 -137 -68 -270 -180 -375l1 -2h218v-22h-257v17c116 102 195 232 195 384c0 179 -109 312 -287 312s-287 -133 -287 -312c0 -152 79 -282 195 -384v-17h-257z" />
    <glyph glyph-name="pi" unicode="&#x3c0;" horiz-adv-x="634" 
d="M153 0c24 165 33 309 34 471c-54 -5 -97 -20 -141 -54v23c40 32 98 52 154 52h421l-4 -21h-119v-471h-23v471h-265c-1 -157 -14 -314 -34 -471h-23z" />
    <glyph glyph-name="degree" unicode="&#xb0;" horiz-adv-x="339" 
d="M230 441c-85 0 -147 65 -147 147s62 147 147 147s147 -65 147 -147s-62 -147 -147 -147zM230 460c73 0 127 55 127 128s-54 128 -127 128s-127 -55 -127 -128s54 -128 127 -128z" />
    <glyph glyph-name="infinity" unicode="&#x221e;" horiz-adv-x="762" 
d="M196 90c97 0 138 81 174 163c-35 86 -81 161 -174 161c-81 0 -136 -69 -136 -162c0 -89 52 -162 136 -162zM37 252c0 99 60 184 161 184c99 0 151 -79 184 -157h1c39 91 90 157 184 157c98 0 158 -86 158 -184c0 -99 -60 -184 -161 -184c-99 0 -151 79 -184 157h-1
c-39 -91 -90 -157 -184 -157c-98 0 -158 86 -158 184zM566 414c-97 0 -138 -81 -174 -163c35 -86 81 -161 174 -161c81 0 136 69 136 162c0 89 -52 162 -136 162z" />
    <glyph glyph-name="partialdiff" unicode="&#x2202;" horiz-adv-x="553" 
d="M70 194c0 121 77 246 223 246c80 0 149 -38 195 -84h1c0 142 -24 395 -210 395c-59 0 -100 -25 -125 -44v26c27 20 69 40 124 40c175 0 233 -198 233 -399c0 -193 -54 -385 -239 -385c-119 0 -202 80 -202 205zM93 196c0 -109 67 -185 178 -185c146 0 208 130 217 317
c-44 49 -111 90 -193 90c-137 0 -202 -115 -202 -222z" />
    <glyph glyph-name="radical" unicode="&#x221a;" horiz-adv-x="664" 
d="M397 -116h-16l-212 574l-118 -49l-8 19l139 58l206 -562h1l321 954h23z" />
    <glyph glyph-name="summation" unicode="&#x2211;" horiz-adv-x="609" 
d="M74 -100l259 426l-253 382v16h473v-22h-443l249 -376l-255 -420h466v-22h-496v16z" />
    <glyph glyph-name="product" unicode="&#x220f;" horiz-adv-x="778" 
d="M227 -116v818h-140v22h691v-22h-140v-818h-23v818h-365v-818h-23z" />
    <glyph glyph-name="lozenge" unicode="&#x25ca;" horiz-adv-x="517" 
d="M273 -18l-185 378l185 378h5l185 -378l-185 -378h-5zM275 27h1l163 333l-163 333h-1l-163 -333z" />
    <glyph glyph-name="percent" unicode="%" horiz-adv-x="917" 
d="M269 361c-91 0 -151 80 -151 167c0 98 75 207 184 207c91 0 151 -80 151 -167c0 -98 -75 -207 -184 -207zM167 0l598 724h26l-598 -724h-26zM271 382c90 0 160 92 160 184c0 75 -49 148 -131 148c-90 0 -160 -92 -160 -184c0 -75 49 -148 131 -148zM505 156
c0 98 75 207 184 207c91 0 151 -80 151 -167c0 -98 -75 -207 -184 -207c-91 0 -151 80 -151 167zM527 158c0 -75 49 -148 131 -148c90 0 160 92 160 184c0 75 -49 148 -131 148c-90 0 -160 -92 -160 -184z" />
    <glyph glyph-name="o" unicode="o" horiz-adv-x="587" 
d="M55 219c0 70 25 151 81 210c43 45 103 74 175 74c134 0 222 -99 222 -230c0 -70 -25 -151 -81 -210c-43 -45 -103 -74 -175 -74c-134 0 -222 99 -222 230zM78 220c0 -116 75 -209 199 -209c63 0 117 24 158 66c49 51 75 126 75 195c0 116 -75 209 -199 209
c-63 0 -117 -24 -158 -66c-49 -51 -75 -126 -75 -195z" />
    <glyph glyph-name="uni021A" unicode="&#x21a;" horiz-adv-x="630" 
d="M260 0l124 702h-251l4 22h525l-4 -22h-251l-124 -702h-23zM258 -54h25l-106 -218h-20z" />
    <glyph glyph-name="T" unicode="T" horiz-adv-x="630" 
d="M260 0l124 702h-251l4 22h525l-4 -22h-251l-124 -702h-23z" />
    <glyph glyph-name="B" unicode="B" horiz-adv-x="610" 
d="M56 0l128 724h170c79 0 133 -12 173 -43c43 -33 59 -80 59 -126c0 -100 -73 -167 -162 -185v-2c83 -24 133 -87 133 -165c0 -53 -23 -104 -57 -138c-45 -45 -112 -65 -207 -65h-237zM147 382h223c93 0 193 60 193 172c0 46 -17 84 -53 111c-33 25 -80 37 -161 37h-146z
M83 22h212c89 0 149 18 188 56c31 30 51 75 51 123c0 91 -79 159 -183 159h-208z" />
    <glyph glyph-name="Agrave" unicode="&#xc0;" horiz-adv-x="661" 
d="M-25 0l428 724h23l173 -724h-24l-56 233h-380l-137 -233h-27zM409 690l-257 -435h362l-103 435h-2zM447 795l-71 164h24l67 -164h-20z" />
    <glyph glyph-name="Aacute" unicode="&#xc1;" horiz-adv-x="661" 
d="M-25 0l428 724h23l173 -724h-24l-56 233h-380l-137 -233h-27zM409 690l-257 -435h362l-103 435h-2zM538 959l-129 -164h-22l125 164h26z" />
    <glyph glyph-name="Acircumflex" unicode="&#xc2;" horiz-adv-x="661" 
d="M-25 0l428 724h23l173 -724h-24l-56 233h-380l-137 -233h-27zM409 690l-257 -435h362l-103 435h-2zM295 795l149 164h24l91 -164h-20l-85 148l-135 -148h-24z" />
    <glyph glyph-name="Atilde" unicode="&#xc3;" horiz-adv-x="661" 
d="M-25 0l428 724h23l173 -724h-24l-56 233h-380l-137 -233h-27zM409 690l-257 -435h362l-103 435h-2zM435 874c-24 16 -40 26 -62 26c-35 0 -60 -27 -76 -53h-2l5 30c17 24 43 43 75 43c28 0 49 -14 75 -32c22 -15 39 -26 61 -26c35 0 61 27 76 53h2l-5 -31
c-17 -24 -43 -42 -75 -42c-28 0 -48 14 -74 32z" />
    <glyph glyph-name="Adieresis" unicode="&#xc4;" horiz-adv-x="661" 
d="M-25 0l428 724h23l173 -724h-24l-56 233h-380l-137 -233h-27zM409 690l-257 -435h362l-103 435h-2zM526 851c-14 0 -25 11 -25 25c0 15 13 27 28 27c14 0 25 -11 25 -25c0 -15 -13 -27 -28 -27zM354 851c-14 0 -25 11 -25 25c0 15 13 27 28 27c14 0 25 -11 25 -25
c0 -15 -13 -27 -28 -27z" />
    <glyph glyph-name="Amacron" unicode="&#x100;" horiz-adv-x="661" 
d="M-25 0l428 724h23l173 -724h-24l-56 233h-380l-137 -233h-27zM409 690l-257 -435h362l-103 435h-2zM312 867l4 20h255l-4 -20h-255z" />
    <glyph glyph-name="Abreve" unicode="&#x102;" horiz-adv-x="661" 
d="M-25 0l428 724h23l173 -724h-24l-56 233h-380l-137 -233h-27zM409 690l-257 -435h362l-103 435h-2zM431 807c-70 0 -100 48 -100 105c0 10 1 22 2 31h19c-1 -8 -2 -19 -2 -29c0 -45 21 -88 83 -88c71 0 105 56 121 117h19c-15 -71 -60 -136 -142 -136z" />
    <glyph glyph-name="Aring" unicode="&#xc5;" horiz-adv-x="661" 
d="M-25 0l428 724h23l173 -724h-24l-56 233h-380l-137 -233h-27zM409 690l-257 -435h362l-103 435h-2zM438 790c-58 0 -98 42 -98 99c0 61 47 115 112 115c58 0 98 -42 98 -99c0 -61 -47 -115 -112 -115zM438 809c51 0 92 41 92 94c0 44 -28 82 -78 82
c-51 0 -92 -41 -92 -94c0 -44 28 -82 78 -82z" />
    <glyph glyph-name="Aogonek" unicode="&#x104;" horiz-adv-x="661" 
d="M-25 0l428 724h23l173 -724c-50 -38 -99 -95 -99 -152c0 -32 16 -57 55 -57c8 0 19 1 25 2l-4 -22c-5 -1 -15 -2 -23 -2c-41 0 -76 27 -76 79c0 60 47 116 97 156l-55 229h-380l-137 -233h-27zM409 690l-257 -435h362l-103 435h-2z" />
    <glyph glyph-name="Cacute" unicode="&#x106;" horiz-adv-x="676" 
d="M76 304c0 110 41 229 128 316c69 69 166 115 286 115c73 0 134 -17 192 -43l-4 -24c-51 26 -114 45 -189 45c-111 0 -202 -41 -268 -107c-77 -77 -122 -190 -122 -301c0 -171 108 -294 315 -294c61 0 120 11 172 35l-5 -25c-44 -19 -104 -32 -170 -32
c-198 0 -335 116 -335 315zM646 959l-129 -164h-22l125 164h26z" />
    <glyph glyph-name="Ccircumflex" unicode="&#x108;" horiz-adv-x="676" 
d="M76 304c0 110 41 229 128 316c69 69 166 115 286 115c73 0 134 -17 192 -43l-4 -24c-51 26 -114 45 -189 45c-111 0 -202 -41 -268 -107c-77 -77 -122 -190 -122 -301c0 -171 108 -294 315 -294c61 0 120 11 172 35l-5 -25c-44 -19 -104 -32 -170 -32
c-198 0 -335 116 -335 315zM353 795l149 164h24l91 -164h-20l-85 148l-135 -148h-24z" />
    <glyph glyph-name="Ccaron" unicode="&#x10c;" horiz-adv-x="676" 
d="M76 304c0 110 41 229 128 316c69 69 166 115 286 115c73 0 134 -17 192 -43l-4 -24c-51 26 -114 45 -189 45c-111 0 -202 -41 -268 -107c-77 -77 -122 -190 -122 -301c0 -171 108 -294 315 -294c61 0 120 11 172 35l-5 -25c-44 -19 -104 -32 -170 -32
c-198 0 -335 116 -335 315zM646 959l-149 -164h-24l-91 164h20l85 -148l135 148h24z" />
    <glyph glyph-name="Cdotaccent" unicode="&#x10a;" horiz-adv-x="676" 
d="M76 304c0 110 41 229 128 316c69 69 166 115 286 115c73 0 134 -17 192 -43l-4 -24c-51 26 -114 45 -189 45c-111 0 -202 -41 -268 -107c-77 -77 -122 -190 -122 -301c0 -171 108 -294 315 -294c61 0 120 11 172 35l-5 -25c-44 -19 -104 -32 -170 -32
c-198 0 -335 116 -335 315zM498 851c-14 0 -25 11 -25 25c0 15 13 27 28 27c14 0 25 -11 25 -25c0 -15 -13 -27 -28 -27z" />
    <glyph glyph-name="Ccedilla" unicode="&#xc7;" horiz-adv-x="676" 
d="M325 -72l30 64c-168 21 -279 132 -279 312c0 110 41 229 128 316c69 69 166 115 286 115c73 0 134 -17 192 -43l-4 -24c-51 26 -114 45 -189 45c-111 0 -202 -41 -268 -107c-77 -77 -122 -190 -122 -301c0 -171 108 -294 315 -294c61 0 120 11 172 35l-5 -25
c-44 -19 -104 -32 -170 -32c-12 0 -19 0 -35 1l-23 -48c45 -12 77 -37 77 -79c0 -48 -37 -84 -92 -84c-26 0 -50 8 -74 22l10 21c16 -10 39 -22 64 -22c32 0 69 20 69 61c0 44 -45 59 -82 67z" />
    <glyph glyph-name="Dcaron" unicode="&#x10e;" horiz-adv-x="727" 
d="M56 0l128 724h152c138 0 225 -42 282 -106c55 -62 81 -141 81 -221c0 -83 -29 -180 -96 -259c-74 -87 -181 -138 -334 -138h-213zM83 22h187c138 0 243 42 317 131c53 64 89 152 89 242c0 78 -27 155 -78 211c-53 58 -135 96 -262 96h-133zM591 959l-149 -164h-24
l-91 164h20l85 -148l135 148h24z" />
    <glyph glyph-name="Dcroat" unicode="&#x110;" horiz-adv-x="739" 
d="M40 358l4 21h91l61 345h152c138 0 225 -42 282 -106c55 -62 81 -141 81 -221c0 -83 -29 -180 -96 -259c-74 -87 -181 -138 -334 -138h-213l63 358h-91zM95 22h187c138 0 243 42 317 131c53 64 89 152 89 242c0 78 -27 155 -78 211c-53 58 -135 96 -262 96h-133l-57 -323
h190l-4 -21h-190z" />
    <glyph glyph-name="Egrave" unicode="&#xc8;" horiz-adv-x="554" 
d="M56 0l128 724h386l-4 -22h-363l-56 -315h318l-4 -22h-318l-60 -343h371l-4 -22h-394zM408 795l-71 164h24l67 -164h-20z" />
    <glyph glyph-name="Eacute" unicode="&#xc9;" horiz-adv-x="554" 
d="M56 0l128 724h386l-4 -22h-363l-56 -315h318l-4 -22h-318l-60 -343h371l-4 -22h-394zM499 959l-129 -164h-22l125 164h26z" />
    <glyph glyph-name="Ecircumflex" unicode="&#xca;" horiz-adv-x="554" 
d="M56 0l128 724h386l-4 -22h-363l-56 -315h318l-4 -22h-318l-60 -343h371l-4 -22h-394zM256 795l149 164h24l91 -164h-20l-85 148l-135 -148h-24z" />
    <glyph glyph-name="Ecaron" unicode="&#x11a;" horiz-adv-x="554" 
d="M56 0l128 724h386l-4 -22h-363l-56 -315h318l-4 -22h-318l-60 -343h371l-4 -22h-394zM549 959l-149 -164h-24l-91 164h20l85 -148l135 148h24z" />
    <glyph glyph-name="Edieresis" unicode="&#xcb;" horiz-adv-x="554" 
d="M56 0l128 724h386l-4 -22h-363l-56 -315h318l-4 -22h-318l-60 -343h371l-4 -22h-394zM487 851c-14 0 -25 11 -25 25c0 15 13 27 28 27c14 0 25 -11 25 -25c0 -15 -13 -27 -28 -27zM315 851c-14 0 -25 11 -25 25c0 15 13 27 28 27c14 0 25 -11 25 -25
c0 -15 -13 -27 -28 -27z" />
    <glyph glyph-name="Emacron" unicode="&#x112;" horiz-adv-x="554" 
d="M56 0l128 724h386l-4 -22h-363l-56 -315h318l-4 -22h-318l-60 -343h371l-4 -22h-394zM273 867l4 20h255l-4 -20h-255z" />
    <glyph glyph-name="Ebreve" unicode="&#x114;" horiz-adv-x="554" 
d="M56 0l128 724h386l-4 -22h-363l-56 -315h318l-4 -22h-318l-60 -343h371l-4 -22h-394zM392 807c-70 0 -100 48 -100 105c0 10 1 22 2 31h19c-1 -8 -2 -19 -2 -29c0 -45 21 -88 83 -88c71 0 105 56 121 117h19c-15 -71 -60 -136 -142 -136z" />
    <glyph glyph-name="Edotaccent" unicode="&#x116;" horiz-adv-x="554" 
d="M56 0l128 724h386l-4 -22h-363l-56 -315h318l-4 -22h-318l-60 -343h371l-4 -22h-394zM401 851c-14 0 -25 11 -25 25c0 15 13 27 28 27c14 0 25 -11 25 -25c0 -15 -13 -27 -28 -27z" />
    <glyph glyph-name="Eogonek" unicode="&#x118;" horiz-adv-x="554" 
d="M56 0l128 724h386l-4 -22h-363l-56 -315h318l-4 -22h-318l-60 -343h371l-4 -22c-57 -37 -117 -93 -117 -152c0 -32 16 -57 55 -57c8 0 19 1 25 2l-4 -22c-5 -1 -15 -2 -23 -2c-41 0 -76 27 -76 79c0 60 56 116 104 150l-1 2h-357z" />
    <glyph glyph-name="Gcircumflex" unicode="&#x11c;" horiz-adv-x="722" 
d="M398 -11c-194 0 -324 122 -324 317c0 117 47 244 142 329c66 59 157 100 271 100c79 0 149 -20 215 -54l-4 -24c-49 28 -125 56 -214 56c-102 0 -189 -37 -252 -93c-91 -81 -135 -202 -135 -313c0 -175 110 -295 302 -295c69 0 137 17 187 38l45 258h-196l4 22h219
l-52 -295c-54 -26 -131 -46 -208 -46zM364 795l149 164h24l91 -164h-20l-85 148l-135 -148h-24z" />
    <glyph glyph-name="Gbreve" unicode="&#x11e;" horiz-adv-x="722" 
d="M398 -11c-194 0 -324 122 -324 317c0 117 47 244 142 329c66 59 157 100 271 100c79 0 149 -20 215 -54l-4 -24c-49 28 -125 56 -214 56c-102 0 -189 -37 -252 -93c-91 -81 -135 -202 -135 -313c0 -175 110 -295 302 -295c69 0 137 17 187 38l45 258h-196l4 22h219
l-52 -295c-54 -26 -131 -46 -208 -46zM500 807c-70 0 -100 48 -100 105c0 10 1 22 2 31h19c-1 -8 -2 -19 -2 -29c0 -45 21 -88 83 -88c71 0 105 56 121 117h19c-15 -71 -60 -136 -142 -136z" />
    <glyph glyph-name="Gdotaccent" unicode="&#x120;" horiz-adv-x="722" 
d="M398 -11c-194 0 -324 122 -324 317c0 117 47 244 142 329c66 59 157 100 271 100c79 0 149 -20 215 -54l-4 -24c-49 28 -125 56 -214 56c-102 0 -189 -37 -252 -93c-91 -81 -135 -202 -135 -313c0 -175 110 -295 302 -295c69 0 137 17 187 38l45 258h-196l4 22h219
l-52 -295c-54 -26 -131 -46 -208 -46zM509 851c-14 0 -25 11 -25 25c0 15 13 27 28 27c14 0 25 -11 25 -25c0 -15 -13 -27 -28 -27z" />
    <glyph glyph-name="Gcommaaccent" unicode="&#x122;" horiz-adv-x="722" 
d="M398 -11c-194 0 -324 122 -324 317c0 117 47 244 142 329c66 59 157 100 271 100c79 0 149 -20 215 -54l-4 -24c-49 28 -125 56 -214 56c-102 0 -189 -37 -252 -93c-91 -81 -135 -202 -135 -313c0 -175 110 -295 302 -295c69 0 137 17 187 38l45 258h-196l4 22h219
l-52 -295c-54 -26 -131 -46 -208 -46zM342 -54h25l-106 -218h-20z" />
    <glyph glyph-name="Hcircumflex" unicode="&#x124;" horiz-adv-x="723" 
d="M56 0l128 724h23l-59 -337h478l59 337h23l-128 -724h-23l64 365h-478l-64 -365h-23zM326 795l149 164h24l91 -164h-20l-85 148l-135 -148h-24z" />
    <glyph glyph-name="H" unicode="H" horiz-adv-x="723" 
d="M56 0l128 724h23l-59 -337h478l59 337h23l-128 -724h-23l64 365h-478l-64 -365h-23z" />
    <glyph glyph-name="Hbar" unicode="&#x126;" horiz-adv-x="735" 
d="M69 545l4 21h89l28 158h23l-28 -158h478l28 158h23l-28 -158h89l-4 -21h-89l-96 -545h-23l64 365h-478l-64 -365h-23l96 545h-89zM154 387h478l27 158h-478z" />
    <glyph glyph-name="Igrave" unicode="&#xcc;" horiz-adv-x="222" 
d="M56 0l128 724h23l-128 -724h-23zM228 795l-71 164h24l67 -164h-20z" />
    <glyph glyph-name="Iacute" unicode="&#xcd;" horiz-adv-x="222" 
d="M56 0l128 724h23l-128 -724h-23zM319 959l-129 -164h-22l125 164h26z" />
    <glyph glyph-name="Icircumflex" unicode="&#xce;" horiz-adv-x="222" 
d="M56 0l128 724h23l-128 -724h-23zM76 795l149 164h24l91 -164h-20l-85 148l-135 -148h-24z" />
    <glyph glyph-name="Itilde" unicode="&#x128;" horiz-adv-x="222" 
d="M56 0l128 724h23l-128 -724h-23zM216 874c-24 16 -40 26 -62 26c-35 0 -60 -27 -76 -53h-2l5 30c17 24 43 43 75 43c28 0 49 -14 75 -32c22 -15 39 -26 61 -26c35 0 61 27 76 53h2l-5 -31c-17 -24 -43 -42 -75 -42c-28 0 -48 14 -74 32z" />
    <glyph glyph-name="Idieresis" unicode="&#xcf;" horiz-adv-x="222" 
d="M56 0l128 724h23l-128 -724h-23zM307 851c-14 0 -25 11 -25 25c0 15 13 27 28 27c14 0 25 -11 25 -25c0 -15 -13 -27 -28 -27zM135 851c-14 0 -25 11 -25 25c0 15 13 27 28 27c14 0 25 -11 25 -25c0 -15 -13 -27 -28 -27z" />
    <glyph glyph-name="Imacron" unicode="&#x12a;" horiz-adv-x="222" 
d="M56 0l128 724h23l-128 -724h-23zM93 867l4 20h255l-4 -20h-255z" />
    <glyph glyph-name="Ibreve" unicode="&#x12c;" horiz-adv-x="222" 
d="M56 0l128 724h23l-128 -724h-23zM212 807c-70 0 -100 48 -100 105c0 10 1 22 2 31h19c-1 -8 -2 -19 -2 -29c0 -45 21 -88 83 -88c71 0 105 56 121 117h19c-15 -71 -60 -136 -142 -136z" />
    <glyph glyph-name="Idotaccent" unicode="&#x130;" horiz-adv-x="222" 
d="M56 0l128 724h23l-128 -724h-23zM221 851c-14 0 -25 11 -25 25c0 15 13 27 28 27c14 0 25 -11 25 -25c0 -15 -13 -27 -28 -27z" />
    <glyph glyph-name="Iogonek" unicode="&#x12e;" horiz-adv-x="222" 
d="M-43 -152c0 62 52 120 100 159l127 717h23l-128 -724c-50 -38 -99 -95 -99 -152c0 -32 16 -57 55 -57c8 0 19 1 25 2l-4 -22c-5 -1 -15 -2 -23 -2c-41 0 -76 27 -76 79z" />
    <glyph glyph-name="Jcircumflex" unicode="&#x134;" horiz-adv-x="369" 
d="M-10 16l4 24c33 -16 69 -29 108 -29c88 0 115 67 131 158l98 555h23l-99 -560c-11 -62 -23 -94 -38 -116c-27 -40 -71 -59 -118 -59c-40 0 -80 13 -109 27zM223 795l149 164h24l91 -164h-20l-85 148l-135 -148h-24z" />
    <glyph glyph-name="J" unicode="J" horiz-adv-x="369" 
d="M-10 16l4 24c33 -16 69 -29 108 -29c88 0 115 67 131 158l98 555h23l-99 -560c-11 -62 -23 -94 -38 -116c-27 -40 -71 -59 -118 -59c-40 0 -80 13 -109 27z" />
    <glyph glyph-name="Kcommaaccent" unicode="&#x136;" horiz-adv-x="588" 
d="M56 0l128 724h23l-59 -332h1l439 332h33l-445 -336l344 -388h-30l-342 387h-1l-68 -387h-23zM237 -54h25l-106 -218h-20z" />
    <glyph glyph-name="Lacute" unicode="&#x139;" horiz-adv-x="532" 
d="M56 0l128 724h23l-124 -702h379l-4 -22h-402zM343 959l-129 -164h-22l125 164h26z" />
    <glyph glyph-name="L" unicode="L" horiz-adv-x="532" 
d="M56 0l128 724h23l-124 -702h379l-4 -22h-402z" />
    <glyph glyph-name="Lcaron" unicode="&#x13d;" horiz-adv-x="532" 
d="M56 0l128 724h23l-124 -702h379l-4 -22h-402zM300 527l103 253h27l-111 -253h-19z" />
    <glyph glyph-name="Lcommaaccent" unicode="&#x13b;" horiz-adv-x="532" 
d="M56 0l128 724h23l-124 -702h379l-4 -22h-402zM229 -54h25l-106 -218h-20z" />
    <glyph glyph-name="Lslash" unicode="&#x141;" horiz-adv-x="539" 
d="M7 256l5 26l111 56l68 386h23l-66 -374l149 75l-5 -26l-149 -75l-53 -302h379l-4 -22h-402l55 312z" />
    <glyph glyph-name="Ldot" unicode="&#x13f;" horiz-adv-x="532" 
d="M56 0l128 724h23l-124 -702h379l-4 -22h-402zM366 365c0 18 14 32 32 32s32 -14 32 -32s-14 -32 -32 -32s-32 14 -32 32z" />
    <glyph glyph-name="Nacute" unicode="&#x143;" horiz-adv-x="746" 
d="M56 0l128 724h22l379 -686h2l121 686h23l-128 -724h-22l-379 686h-2l-121 -686h-23zM581 959l-129 -164h-22l125 164h26z" />
    <glyph glyph-name="N" unicode="N" horiz-adv-x="746" 
d="M56 0l128 724h22l379 -686h2l121 686h23l-128 -724h-22l-379 686h-2l-121 -686h-23z" />
    <glyph glyph-name="Ograve" unicode="&#xd2;" horiz-adv-x="807" 
d="M76 323c0 93 30 192 93 272c67 85 168 140 284 140c183 0 319 -136 319 -334c0 -93 -30 -192 -93 -272c-67 -85 -168 -140 -284 -140c-183 0 -319 136 -319 334zM99 325c0 -178 117 -314 298 -314c108 0 200 49 263 129c57 72 89 166 89 259c0 178 -117 314 -298 314
c-108 0 -200 -49 -263 -129c-57 -72 -89 -166 -89 -259zM520 795l-71 164h24l67 -164h-20z" />
    <glyph glyph-name="Oacute" unicode="&#xd3;" horiz-adv-x="807" 
d="M76 323c0 93 30 192 93 272c67 85 168 140 284 140c183 0 319 -136 319 -334c0 -93 -30 -192 -93 -272c-67 -85 -168 -140 -284 -140c-183 0 -319 136 -319 334zM99 325c0 -178 117 -314 298 -314c108 0 200 49 263 129c57 72 89 166 89 259c0 178 -117 314 -298 314
c-108 0 -200 -49 -263 -129c-57 -72 -89 -166 -89 -259zM611 959l-129 -164h-22l125 164h26z" />
    <glyph glyph-name="Ocircumflex" unicode="&#xd4;" horiz-adv-x="807" 
d="M76 323c0 93 30 192 93 272c67 85 168 140 284 140c183 0 319 -136 319 -334c0 -93 -30 -192 -93 -272c-67 -85 -168 -140 -284 -140c-183 0 -319 136 -319 334zM99 325c0 -178 117 -314 298 -314c108 0 200 49 263 129c57 72 89 166 89 259c0 178 -117 314 -298 314
c-108 0 -200 -49 -263 -129c-57 -72 -89 -166 -89 -259zM368 795l149 164h24l91 -164h-20l-85 148l-135 -148h-24z" />
    <glyph glyph-name="Otilde" unicode="&#xd5;" horiz-adv-x="807" 
d="M76 323c0 93 30 192 93 272c67 85 168 140 284 140c183 0 319 -136 319 -334c0 -93 -30 -192 -93 -272c-67 -85 -168 -140 -284 -140c-183 0 -319 136 -319 334zM99 325c0 -178 117 -314 298 -314c108 0 200 49 263 129c57 72 89 166 89 259c0 178 -117 314 -298 314
c-108 0 -200 -49 -263 -129c-57 -72 -89 -166 -89 -259zM508 874c-24 16 -40 26 -62 26c-35 0 -60 -27 -76 -53h-2l5 30c17 24 43 43 75 43c28 0 49 -14 75 -32c22 -15 39 -26 61 -26c35 0 61 27 76 53h2l-5 -31c-17 -24 -43 -42 -75 -42c-28 0 -48 14 -74 32z" />
    <glyph glyph-name="Odieresis" unicode="&#xd6;" horiz-adv-x="807" 
d="M76 323c0 93 30 192 93 272c67 85 168 140 284 140c183 0 319 -136 319 -334c0 -93 -30 -192 -93 -272c-67 -85 -168 -140 -284 -140c-183 0 -319 136 -319 334zM99 325c0 -178 117 -314 298 -314c108 0 200 49 263 129c57 72 89 166 89 259c0 178 -117 314 -298 314
c-108 0 -200 -49 -263 -129c-57 -72 -89 -166 -89 -259zM599 851c-14 0 -25 11 -25 25c0 15 13 27 28 27c14 0 25 -11 25 -25c0 -15 -13 -27 -28 -27zM427 851c-14 0 -25 11 -25 25c0 15 13 27 28 27c14 0 25 -11 25 -25c0 -15 -13 -27 -28 -27z" />
    <glyph glyph-name="Omacron" unicode="&#x14c;" horiz-adv-x="807" 
d="M76 323c0 93 30 192 93 272c67 85 168 140 284 140c183 0 319 -136 319 -334c0 -93 -30 -192 -93 -272c-67 -85 -168 -140 -284 -140c-183 0 -319 136 -319 334zM99 325c0 -178 117 -314 298 -314c108 0 200 49 263 129c57 72 89 166 89 259c0 178 -117 314 -298 314
c-108 0 -200 -49 -263 -129c-57 -72 -89 -166 -89 -259zM385 867l4 20h255l-4 -20h-255z" />
    <glyph glyph-name="Obreve" unicode="&#x14e;" horiz-adv-x="807" 
d="M76 323c0 93 30 192 93 272c67 85 168 140 284 140c183 0 319 -136 319 -334c0 -93 -30 -192 -93 -272c-67 -85 -168 -140 -284 -140c-183 0 -319 136 -319 334zM99 325c0 -178 117 -314 298 -314c108 0 200 49 263 129c57 72 89 166 89 259c0 178 -117 314 -298 314
c-108 0 -200 -49 -263 -129c-57 -72 -89 -166 -89 -259zM504 807c-70 0 -100 48 -100 105c0 10 1 22 2 31h19c-1 -8 -2 -19 -2 -29c0 -45 21 -88 83 -88c71 0 105 56 121 117h19c-15 -71 -60 -136 -142 -136z" />
    <glyph glyph-name="Ohungarumlaut" unicode="&#x150;" horiz-adv-x="807" 
d="M76 323c0 93 30 192 93 272c67 85 168 140 284 140c183 0 319 -136 319 -334c0 -93 -30 -192 -93 -272c-67 -85 -168 -140 -284 -140c-183 0 -319 136 -319 334zM99 325c0 -178 117 -314 298 -314c108 0 200 49 263 129c57 72 89 166 89 259c0 178 -117 314 -298 314
c-108 0 -200 -49 -263 -129c-57 -72 -89 -166 -89 -259zM525 795l127 164h26l-132 -164h-21zM410 795l127 164h26l-132 -164h-21z" />
    <glyph glyph-name="Racute" unicode="&#x154;" horiz-adv-x="615" 
d="M56 0l128 724h174c84 0 144 -15 185 -51c38 -33 54 -80 54 -127c0 -50 -18 -100 -57 -139c-33 -33 -84 -61 -178 -66l165 -341h-26l-165 340h-197l-60 -340h-23zM143 362h192c84 0 146 16 188 58c32 32 51 77 51 125c0 44 -16 84 -48 112c-34 29 -84 45 -170 45h-153z
M495 959l-129 -164h-22l125 164h26z" />
    <glyph glyph-name="R" unicode="R" horiz-adv-x="615" 
d="M56 0l128 724h174c84 0 144 -15 185 -51c38 -33 54 -80 54 -127c0 -50 -18 -100 -57 -139c-33 -33 -84 -61 -178 -66l165 -341h-26l-165 340h-197l-60 -340h-23zM143 362h192c84 0 146 16 188 58c32 32 51 77 51 125c0 44 -16 84 -48 112c-34 29 -84 45 -170 45h-153z
" />
    <glyph glyph-name="Rcaron" unicode="&#x158;" horiz-adv-x="615" 
d="M56 0l128 724h174c84 0 144 -15 185 -51c38 -33 54 -80 54 -127c0 -50 -18 -100 -57 -139c-33 -33 -84 -61 -178 -66l165 -341h-26l-165 340h-197l-60 -340h-23zM143 362h192c84 0 146 16 188 58c32 32 51 77 51 125c0 44 -16 84 -48 112c-34 29 -84 45 -170 45h-153z
M545 959l-149 -164h-24l-91 164h20l85 -148l135 148h24z" />
    <glyph glyph-name="Rcommaaccent" unicode="&#x156;" horiz-adv-x="615" 
d="M56 0l128 724h174c84 0 144 -15 185 -51c38 -33 54 -80 54 -127c0 -50 -18 -100 -57 -139c-33 -33 -84 -61 -178 -66l165 -341h-26l-165 340h-197l-60 -340h-23zM143 362h192c84 0 146 16 188 58c32 32 51 77 51 125c0 44 -16 84 -48 112c-34 29 -84 45 -170 45h-153z
M230 -54h25l-106 -218h-20z" />
    <glyph glyph-name="Sacute" unicode="&#x15a;" horiz-adv-x="529" 
d="M26 67l5 26c54 -52 133 -82 208 -82c55 0 109 17 147 51c37 33 58 80 58 131c0 92 -70 126 -157 164c-89 39 -173 76 -173 180c0 54 23 106 62 142c39 37 94 56 155 56c69 0 138 -25 194 -67l-4 -24c-53 44 -125 69 -191 69c-53 0 -102 -17 -136 -47
c-35 -31 -57 -76 -57 -127c0 -92 72 -123 158 -161c88 -39 172 -75 172 -185c0 -57 -23 -110 -68 -149c-40 -35 -95 -55 -160 -55c-78 0 -157 29 -213 78zM476 959l-129 -164h-22l125 164h26z" />
    <glyph glyph-name="Scircumflex" unicode="&#x15c;" horiz-adv-x="529" 
d="M26 67l5 26c54 -52 133 -82 208 -82c55 0 109 17 147 51c37 33 58 80 58 131c0 92 -70 126 -157 164c-89 39 -173 76 -173 180c0 54 23 106 62 142c39 37 94 56 155 56c69 0 138 -25 194 -67l-4 -24c-53 44 -125 69 -191 69c-53 0 -102 -17 -136 -47
c-35 -31 -57 -76 -57 -127c0 -92 72 -123 158 -161c88 -39 172 -75 172 -185c0 -57 -23 -110 -68 -149c-40 -35 -95 -55 -160 -55c-78 0 -157 29 -213 78zM233 795l149 164h24l91 -164h-20l-85 148l-135 -148h-24z" />
    <glyph glyph-name="Scaron" unicode="&#x160;" horiz-adv-x="529" 
d="M26 67l5 26c54 -52 133 -82 208 -82c55 0 109 17 147 51c37 33 58 80 58 131c0 92 -70 126 -157 164c-89 39 -173 76 -173 180c0 54 23 106 62 142c39 37 94 56 155 56c69 0 138 -25 194 -67l-4 -24c-53 44 -125 69 -191 69c-53 0 -102 -17 -136 -47
c-35 -31 -57 -76 -57 -127c0 -92 72 -123 158 -161c88 -39 172 -75 172 -185c0 -57 -23 -110 -68 -149c-40 -35 -95 -55 -160 -55c-78 0 -157 29 -213 78zM526 959l-149 -164h-24l-91 164h20l85 -148l135 148h24z" />
    <glyph glyph-name="Scedilla" unicode="&#x15e;" horiz-adv-x="529" 
d="M26 67l5 26c54 -52 133 -82 208 -82c55 0 109 17 147 51c37 33 58 80 58 131c0 92 -70 126 -157 164c-89 39 -173 76 -173 180c0 54 23 106 62 142c39 37 94 56 155 56c69 0 138 -25 194 -67l-4 -24c-53 44 -125 69 -191 69c-53 0 -102 -17 -136 -47
c-35 -31 -57 -76 -57 -127c0 -92 72 -123 158 -161c88 -39 172 -75 172 -185c0 -57 -23 -110 -68 -149c-40 -35 -95 -55 -160 -55h-8l-22 -47c45 -12 77 -37 77 -79c0 -48 -37 -84 -92 -84c-26 0 -50 8 -74 22l10 21c16 -10 39 -22 64 -22c32 0 69 20 69 61
c0 44 -45 59 -82 67l29 63c-69 6 -135 33 -184 76z" />
    <glyph glyph-name="Scommaaccent" unicode="&#x218;" horiz-adv-x="529" 
d="M26 67l5 26c54 -52 133 -82 208 -82c55 0 109 17 147 51c37 33 58 80 58 131c0 92 -70 126 -157 164c-89 39 -173 76 -173 180c0 54 23 106 62 142c39 37 94 56 155 56c69 0 138 -25 194 -67l-4 -24c-53 44 -125 69 -191 69c-53 0 -102 -17 -136 -47
c-35 -31 -57 -76 -57 -127c0 -92 72 -123 158 -161c88 -39 172 -75 172 -185c0 -57 -23 -110 -68 -149c-40 -35 -95 -55 -160 -55c-78 0 -157 29 -213 78zM211 -54h25l-106 -218h-20z" />
    <glyph glyph-name="Tcaron" unicode="&#x164;" horiz-adv-x="630" 
d="M260 0l124 702h-251l4 22h525l-4 -22h-251l-124 -702h-23zM573 959l-149 -164h-24l-91 164h20l85 -148l135 148h24z" />
    <glyph glyph-name="Tbar" unicode="&#x166;" horiz-adv-x="630" 
d="M179 363l4 21h145l56 318h-251l4 22h525l-4 -22h-251l-56 -318h145l-4 -21h-145l-64 -363h-23l64 363h-145z" />
    <glyph glyph-name="Ugrave" unicode="&#xd9;" horiz-adv-x="702" 
d="M92 210c0 27 3 68 15 136l67 378h23l-67 -378c-10 -55 -15 -101 -15 -135c0 -121 62 -200 206 -200c98 0 166 36 211 101c31 45 55 111 74 221l69 391h22l-70 -397c-20 -113 -44 -180 -78 -229c-51 -73 -128 -109 -228 -109c-158 0 -229 90 -229 221zM468 795l-71 164h24
l67 -164h-20z" />
    <glyph glyph-name="Uacute" unicode="&#xda;" horiz-adv-x="702" 
d="M92 210c0 27 3 68 15 136l67 378h23l-67 -378c-10 -55 -15 -101 -15 -135c0 -121 62 -200 206 -200c98 0 166 36 211 101c31 45 55 111 74 221l69 391h22l-70 -397c-20 -113 -44 -180 -78 -229c-51 -73 -128 -109 -228 -109c-158 0 -229 90 -229 221zM559 959l-129 -164
h-22l125 164h26z" />
    <glyph glyph-name="Ucircumflex" unicode="&#xdb;" horiz-adv-x="702" 
d="M92 210c0 27 3 68 15 136l67 378h23l-67 -378c-10 -55 -15 -101 -15 -135c0 -121 62 -200 206 -200c98 0 166 36 211 101c31 45 55 111 74 221l69 391h22l-70 -397c-20 -113 -44 -180 -78 -229c-51 -73 -128 -109 -228 -109c-158 0 -229 90 -229 221zM316 795l149 164h24
l91 -164h-20l-85 148l-135 -148h-24z" />
    <glyph glyph-name="Utilde" unicode="&#x168;" horiz-adv-x="702" 
d="M92 210c0 27 3 68 15 136l67 378h23l-67 -378c-10 -55 -15 -101 -15 -135c0 -121 62 -200 206 -200c98 0 166 36 211 101c31 45 55 111 74 221l69 391h22l-70 -397c-20 -113 -44 -180 -78 -229c-51 -73 -128 -109 -228 -109c-158 0 -229 90 -229 221zM456 874
c-24 16 -40 26 -62 26c-35 0 -60 -27 -76 -53h-2l5 30c17 24 43 43 75 43c28 0 49 -14 75 -32c22 -15 39 -26 61 -26c35 0 61 27 76 53h2l-5 -31c-17 -24 -43 -42 -75 -42c-28 0 -48 14 -74 32z" />
    <glyph glyph-name="Udieresis" unicode="&#xdc;" horiz-adv-x="702" 
d="M92 210c0 27 3 68 15 136l67 378h23l-67 -378c-10 -55 -15 -101 -15 -135c0 -121 62 -200 206 -200c98 0 166 36 211 101c31 45 55 111 74 221l69 391h22l-70 -397c-20 -113 -44 -180 -78 -229c-51 -73 -128 -109 -228 -109c-158 0 -229 90 -229 221zM547 851
c-14 0 -25 11 -25 25c0 15 13 27 28 27c14 0 25 -11 25 -25c0 -15 -13 -27 -28 -27zM375 851c-14 0 -25 11 -25 25c0 15 13 27 28 27c14 0 25 -11 25 -25c0 -15 -13 -27 -28 -27z" />
    <glyph glyph-name="Umacron" unicode="&#x16a;" horiz-adv-x="702" 
d="M92 210c0 27 3 68 15 136l67 378h23l-67 -378c-10 -55 -15 -101 -15 -135c0 -121 62 -200 206 -200c98 0 166 36 211 101c31 45 55 111 74 221l69 391h22l-70 -397c-20 -113 -44 -180 -78 -229c-51 -73 -128 -109 -228 -109c-158 0 -229 90 -229 221zM333 867l4 20h255
l-4 -20h-255z" />
    <glyph glyph-name="Ubreve" unicode="&#x16c;" horiz-adv-x="702" 
d="M92 210c0 27 3 68 15 136l67 378h23l-67 -378c-10 -55 -15 -101 -15 -135c0 -121 62 -200 206 -200c98 0 166 36 211 101c31 45 55 111 74 221l69 391h22l-70 -397c-20 -113 -44 -180 -78 -229c-51 -73 -128 -109 -228 -109c-158 0 -229 90 -229 221zM452 807
c-70 0 -100 48 -100 105c0 10 1 22 2 31h19c-1 -8 -2 -19 -2 -29c0 -45 21 -88 83 -88c71 0 105 56 121 117h19c-15 -71 -60 -136 -142 -136z" />
    <glyph glyph-name="Uring" unicode="&#x16e;" horiz-adv-x="702" 
d="M92 210c0 27 3 68 15 136l67 378h23l-67 -378c-10 -55 -15 -101 -15 -135c0 -121 62 -200 206 -200c98 0 166 36 211 101c31 45 55 111 74 221l69 391h22l-70 -397c-20 -113 -44 -180 -78 -229c-51 -73 -128 -109 -228 -109c-158 0 -229 90 -229 221zM459 790
c-58 0 -98 42 -98 99c0 61 47 115 112 115c58 0 98 -42 98 -99c0 -61 -47 -115 -112 -115zM459 809c51 0 92 41 92 94c0 44 -28 82 -78 82c-51 0 -92 -41 -92 -94c0 -44 28 -82 78 -82z" />
    <glyph glyph-name="Uhungarumlaut" unicode="&#x170;" horiz-adv-x="702" 
d="M92 210c0 27 3 68 15 136l67 378h23l-67 -378c-10 -55 -15 -101 -15 -135c0 -121 62 -200 206 -200c98 0 166 36 211 101c31 45 55 111 74 221l69 391h22l-70 -397c-20 -113 -44 -180 -78 -229c-51 -73 -128 -109 -228 -109c-158 0 -229 90 -229 221zM473 795l127 164h26
l-132 -164h-21zM358 795l127 164h26l-132 -164h-21z" />
    <glyph glyph-name="Uogonek" unicode="&#x172;" horiz-adv-x="702" 
d="M231 -152c0 54 37 102 79 140v1c-151 5 -218 93 -218 221c0 27 3 68 15 136l67 378h23l-67 -378c-10 -55 -15 -101 -15 -135c0 -121 62 -200 206 -200c98 0 166 36 211 101c31 45 55 111 74 221l69 391h22l-70 -397c-20 -113 -44 -180 -78 -229
c-48 -69 -119 -104 -210 -109c-44 -38 -85 -89 -85 -141c0 -32 16 -57 55 -57c8 0 19 1 25 2l-4 -22c-5 -1 -15 -2 -23 -2c-41 0 -76 27 -76 79z" />
    <glyph glyph-name="iogonek" unicode="&#x12f;" horiz-adv-x="216" 
d="M-46 -152c0 62 52 120 100 159l86 485h23l-87 -492c-50 -38 -99 -95 -99 -152c0 -32 16 -57 55 -57c8 0 19 1 25 2l-4 -22c-5 -1 -15 -2 -23 -2c-41 0 -76 27 -76 79zM155 665c0 15 13 27 28 27c14 0 25 -11 25 -25c0 -15 -13 -27 -28 -27c-14 0 -25 11 -25 25z" />
    <glyph glyph-name="cacute" unicode="&#x107;" horiz-adv-x="505" 
d="M56 207c0 74 26 162 91 224c43 41 107 72 186 72c57 0 105 -16 144 -40l-4 -23c-43 26 -87 41 -142 41c-65 0 -124 -22 -168 -64c-53 -51 -84 -130 -84 -209c0 -120 73 -197 194 -197c50 0 107 13 144 36l-5 -26c-40 -22 -93 -32 -138 -32c-131 0 -218 83 -218 218z
M479 727l-129 -164h-22l125 164h26z" />
    <glyph glyph-name="ccircumflex" unicode="&#x109;" horiz-adv-x="505" 
d="M56 207c0 74 26 162 91 224c43 41 107 72 186 72c57 0 105 -16 144 -40l-4 -23c-43 26 -87 41 -142 41c-65 0 -124 -22 -168 -64c-53 -51 -84 -130 -84 -209c0 -120 73 -197 194 -197c50 0 107 13 144 36l-5 -26c-40 -22 -93 -32 -138 -32c-131 0 -218 83 -218 218z
M206 563l149 164h24l91 -164h-20l-85 148l-135 -148h-24z" />
    <glyph glyph-name="ccaron" unicode="&#x10d;" horiz-adv-x="505" 
d="M56 207c0 74 26 162 91 224c43 41 107 72 186 72c57 0 105 -16 144 -40l-4 -23c-43 26 -87 41 -142 41c-65 0 -124 -22 -168 -64c-53 -51 -84 -130 -84 -209c0 -120 73 -197 194 -197c50 0 107 13 144 36l-5 -26c-40 -22 -93 -32 -138 -32c-131 0 -218 83 -218 218z
M499 727l-149 -164h-24l-91 164h20l85 -148l135 148h24z" />
    <glyph glyph-name="cdotaccent" unicode="&#x10b;" horiz-adv-x="505" 
d="M56 207c0 74 26 162 91 224c43 41 107 72 186 72c57 0 105 -16 144 -40l-4 -23c-43 26 -87 41 -142 41c-65 0 -124 -22 -168 -64c-53 -51 -84 -130 -84 -209c0 -120 73 -197 194 -197c50 0 107 13 144 36l-5 -26c-40 -22 -93 -32 -138 -32c-131 0 -218 83 -218 218z
M351 619c-14 0 -25 11 -25 25c0 15 13 27 28 27c14 0 25 -11 25 -25c0 -15 -13 -27 -28 -27z" />
    <glyph glyph-name="ccedilla" unicode="&#xe7;" horiz-adv-x="505" 
d="M203 -72l29 64c-107 16 -176 95 -176 215c0 74 26 162 91 224c43 41 107 72 186 72c57 0 105 -16 144 -40l-4 -23c-43 26 -87 41 -142 41c-65 0 -124 -22 -168 -64c-53 -51 -84 -130 -84 -209c0 -120 73 -197 194 -197c50 0 107 13 144 36l-5 -26
c-40 -22 -93 -32 -138 -32c-7 0 -14 0 -21 1l-22 -48c45 -12 77 -37 77 -79c0 -48 -37 -84 -92 -84c-26 0 -50 8 -74 22l10 21c16 -10 39 -22 64 -22c32 0 69 20 69 61c0 44 -45 59 -82 67z" />
    <glyph glyph-name="dcaron" unicode="&#x10f;" horiz-adv-x="642" 
d="M55 194c0 78 28 164 84 226c48 52 112 83 187 83c64 0 122 -23 170 -59l2 1l57 319h23l-135 -764h-23l13 73l-2 1c-45 -43 -109 -85 -186 -85c-96 0 -190 64 -190 205zM78 196c0 -123 77 -185 169 -185c75 0 138 42 192 97l55 310c-47 38 -104 63 -169 63
c-60 0 -120 -21 -169 -75c-50 -56 -78 -136 -78 -210zM716 764h25l-106 -218h-20z" />
    <glyph glyph-name="egrave" unicode="&#xe8;" horiz-adv-x="550" 
d="M55 212c0 66 21 138 67 196c45 56 106 95 185 95c117 0 191 -82 191 -207c0 -14 -1 -30 -5 -53h-413c-1 -10 -2 -20 -2 -30c0 -128 90 -202 212 -202c53 0 97 14 138 36l-4 -25c-31 -18 -84 -33 -138 -33c-124 0 -231 78 -231 223zM139 395c-28 -36 -48 -82 -56 -130h390
c1 8 2 18 2 30c0 93 -47 186 -166 186c-68 0 -127 -30 -170 -86zM357 563l-71 164h24l67 -164h-20z" />
    <glyph glyph-name="eacute" unicode="&#xe9;" horiz-adv-x="550" 
d="M55 212c0 66 21 138 67 196c45 56 106 95 185 95c117 0 191 -82 191 -207c0 -14 -1 -30 -5 -53h-413c-1 -10 -2 -20 -2 -30c0 -128 90 -202 212 -202c53 0 97 14 138 36l-4 -25c-31 -18 -84 -33 -138 -33c-124 0 -231 78 -231 223zM139 395c-28 -36 -48 -82 -56 -130h390
c1 8 2 18 2 30c0 93 -47 186 -166 186c-68 0 -127 -30 -170 -86zM448 727l-129 -164h-22l125 164h26z" />
    <glyph glyph-name="ecircumflex" unicode="&#xea;" horiz-adv-x="550" 
d="M55 212c0 66 21 138 67 196c45 56 106 95 185 95c117 0 191 -82 191 -207c0 -14 -1 -30 -5 -53h-413c-1 -10 -2 -20 -2 -30c0 -128 90 -202 212 -202c53 0 97 14 138 36l-4 -25c-31 -18 -84 -33 -138 -33c-124 0 -231 78 -231 223zM139 395c-28 -36 -48 -82 -56 -130h390
c1 8 2 18 2 30c0 93 -47 186 -166 186c-68 0 -127 -30 -170 -86zM205 563l149 164h24l91 -164h-20l-85 148l-135 -148h-24z" />
    <glyph glyph-name="ecaron" unicode="&#x11b;" horiz-adv-x="550" 
d="M55 212c0 66 21 138 67 196c45 56 106 95 185 95c117 0 191 -82 191 -207c0 -14 -1 -30 -5 -53h-413c-1 -10 -2 -20 -2 -30c0 -128 90 -202 212 -202c53 0 97 14 138 36l-4 -25c-31 -18 -84 -33 -138 -33c-124 0 -231 78 -231 223zM139 395c-28 -36 -48 -82 -56 -130h390
c1 8 2 18 2 30c0 93 -47 186 -166 186c-68 0 -127 -30 -170 -86zM498 727l-149 -164h-24l-91 164h20l85 -148l135 148h24z" />
    <glyph glyph-name="edieresis" unicode="&#xeb;" horiz-adv-x="550" 
d="M55 212c0 66 21 138 67 196c45 56 106 95 185 95c117 0 191 -82 191 -207c0 -14 -1 -30 -5 -53h-413c-1 -10 -2 -20 -2 -30c0 -128 90 -202 212 -202c53 0 97 14 138 36l-4 -25c-31 -18 -84 -33 -138 -33c-124 0 -231 78 -231 223zM139 395c-28 -36 -48 -82 -56 -130h390
c1 8 2 18 2 30c0 93 -47 186 -166 186c-68 0 -127 -30 -170 -86zM436 619c-14 0 -25 11 -25 25c0 15 13 27 28 27c14 0 25 -11 25 -25c0 -15 -13 -27 -28 -27zM264 619c-14 0 -25 11 -25 25c0 15 13 27 28 27c14 0 25 -11 25 -25c0 -15 -13 -27 -28 -27z" />
    <glyph glyph-name="emacron" unicode="&#x113;" horiz-adv-x="550" 
d="M55 212c0 66 21 138 67 196c45 56 106 95 185 95c117 0 191 -82 191 -207c0 -14 -1 -30 -5 -53h-413c-1 -10 -2 -20 -2 -30c0 -128 90 -202 212 -202c53 0 97 14 138 36l-4 -25c-31 -18 -84 -33 -138 -33c-124 0 -231 78 -231 223zM139 395c-28 -36 -48 -82 -56 -130h390
c1 8 2 18 2 30c0 93 -47 186 -166 186c-68 0 -127 -30 -170 -86zM222 635l4 20h255l-4 -20h-255z" />
    <glyph glyph-name="ebreve" unicode="&#x115;" horiz-adv-x="550" 
d="M55 212c0 66 21 138 67 196c45 56 106 95 185 95c117 0 191 -82 191 -207c0 -14 -1 -30 -5 -53h-413c-1 -10 -2 -20 -2 -30c0 -128 90 -202 212 -202c53 0 97 14 138 36l-4 -25c-31 -18 -84 -33 -138 -33c-124 0 -231 78 -231 223zM139 395c-28 -36 -48 -82 -56 -130h390
c1 8 2 18 2 30c0 93 -47 186 -166 186c-68 0 -127 -30 -170 -86zM341 575c-70 0 -100 48 -100 105c0 10 1 22 2 31h19c-1 -8 -2 -19 -2 -29c0 -45 21 -88 83 -88c71 0 105 56 121 117h19c-15 -71 -60 -136 -142 -136z" />
    <glyph glyph-name="edotaccent" unicode="&#x117;" horiz-adv-x="550" 
d="M55 212c0 66 21 138 67 196c45 56 106 95 185 95c117 0 191 -82 191 -207c0 -14 -1 -30 -5 -53h-413c-1 -10 -2 -20 -2 -30c0 -128 90 -202 212 -202c53 0 97 14 138 36l-4 -25c-31 -18 -84 -33 -138 -33c-124 0 -231 78 -231 223zM139 395c-28 -36 -48 -82 -56 -130h390
c1 8 2 18 2 30c0 93 -47 186 -166 186c-68 0 -127 -30 -170 -86zM350 619c-14 0 -25 11 -25 25c0 15 13 27 28 27c14 0 25 -11 25 -25c0 -15 -13 -27 -28 -27z" />
    <glyph glyph-name="eogonek" unicode="&#x119;" horiz-adv-x="550" 
d="M55 212c0 66 21 138 67 196c45 56 106 95 185 95c117 0 191 -82 191 -207c0 -14 -1 -30 -5 -53h-413c-1 -10 -2 -20 -2 -30c0 -128 90 -202 212 -202c53 0 97 14 138 36l-4 -25c-75 -54 -127 -115 -127 -174c0 -32 16 -57 55 -57c8 0 19 1 25 2l-4 -22
c-5 -1 -15 -2 -23 -2c-41 0 -76 27 -76 79c0 59 44 112 89 149l-1 2c-19 -6 -48 -10 -76 -10c-124 0 -231 78 -231 223zM139 395c-28 -36 -48 -82 -56 -130h390c1 8 2 18 2 30c0 93 -47 186 -166 186c-68 0 -127 -30 -170 -86z" />
    <glyph glyph-name="hcircumflex" unicode="&#x125;" horiz-adv-x="582" 
d="M53 0l135 764h23l-64 -362l2 -1c63 56 134 102 215 102c86 0 141 -52 141 -139c0 -24 -4 -48 -11 -90l-48 -274h-23l49 277c5 28 10 62 10 86c0 66 -38 118 -120 118c-77 0 -148 -46 -221 -113l-65 -368h-23zM72 826l149 164h24l91 -164h-20l-85 148l-135 -148h-24z" />
    <glyph glyph-name="hbar" unicode="&#x127;" horiz-adv-x="582" 
d="M71 611l4 21h90l23 132h23l-23 -132h190l-4 -21h-190l-37 -209l2 -1c63 56 134 102 215 102c86 0 141 -52 141 -139c0 -24 -4 -48 -11 -90l-48 -274h-23l49 277c5 28 10 62 10 86c0 66 -38 118 -120 118c-77 0 -148 -46 -221 -113l-65 -368h-23l108 611h-90z" />
    <glyph glyph-name="igrave" unicode="&#xec;" horiz-adv-x="216" 
d="M53 0l87 492h23l-87 -492h-23zM184 563l-71 164h24l67 -164h-20z" />
    <glyph glyph-name="iacute" unicode="&#xed;" horiz-adv-x="216" 
d="M53 0l87 492h23l-87 -492h-23zM275 727l-129 -164h-22l125 164h26z" />
    <glyph glyph-name="icircumflex" unicode="&#xee;" horiz-adv-x="216" 
d="M53 0l87 492h23l-87 -492h-23zM32 563l149 164h24l91 -164h-20l-85 148l-135 -148h-24z" />
    <glyph glyph-name="itilde" unicode="&#x129;" horiz-adv-x="216" 
d="M53 0l87 492h23l-87 -492h-23zM172 642c-24 16 -40 26 -62 26c-35 0 -60 -27 -76 -53h-2l5 30c17 24 43 43 75 43c28 0 49 -14 75 -32c22 -15 39 -26 61 -26c35 0 61 27 76 53h2l-5 -31c-17 -24 -43 -42 -75 -42c-28 0 -48 14 -74 32z" />
    <glyph glyph-name="idieresis" unicode="&#xef;" horiz-adv-x="216" 
d="M53 0l87 492h23l-87 -492h-23zM263 619c-14 0 -25 11 -25 25c0 15 13 27 28 27c14 0 25 -11 25 -25c0 -15 -13 -27 -28 -27zM91 619c-14 0 -25 11 -25 25c0 15 13 27 28 27c14 0 25 -11 25 -25c0 -15 -13 -27 -28 -27z" />
    <glyph glyph-name="imacron" unicode="&#x12b;" horiz-adv-x="216" 
d="M53 0l87 492h23l-87 -492h-23zM49 635l4 20h255l-4 -20h-255z" />
    <glyph glyph-name="ibreve" unicode="&#x12d;" horiz-adv-x="216" 
d="M53 0l87 492h23l-87 -492h-23zM168 575c-70 0 -100 48 -100 105c0 10 1 22 2 31h19c-1 -8 -2 -19 -2 -29c0 -45 21 -88 83 -88c71 0 105 56 121 117h19c-15 -71 -60 -136 -142 -136z" />
    <glyph glyph-name="perthousand" unicode="&#x2030;" horiz-adv-x="1326" 
d="M269 361c-91 0 -151 80 -151 167c0 98 75 207 184 207c91 0 151 -80 151 -167c0 -98 -75 -207 -184 -207zM167 0l598 724h26l-598 -724h-26zM271 382c90 0 160 92 160 184c0 75 -49 148 -131 148c-90 0 -160 -92 -160 -184c0 -75 49 -148 131 -148zM914 156
c0 98 75 207 184 207c91 0 151 -80 151 -167c0 -98 -75 -207 -184 -207c-91 0 -151 80 -151 167zM505 156c0 98 75 207 184 207c91 0 151 -80 151 -167c0 -98 -75 -207 -184 -207c-91 0 -151 80 -151 167zM936 158c0 -75 49 -148 131 -148c90 0 160 92 160 184
c0 75 -49 148 -131 148c-90 0 -160 -92 -160 -184zM527 158c0 -75 49 -148 131 -148c90 0 160 92 160 184c0 75 -49 148 -131 148c-90 0 -160 -92 -160 -184z" />
    <glyph glyph-name="trademark" unicode="&#x2122;" horiz-adv-x="617" 
d="M352 434v290h22l111 -164l114 164h21v-290h-20v257h-2l-113 -163l-112 166h-2v-260h-19zM180 434v271h-98v19h216v-19h-98v-271h-20z" />
    <glyph glyph-name="florin" unicode="&#x192;" horiz-adv-x="473" 
d="M171 470l4 22h84l55 158c29 82 81 116 149 116c27 0 53 -5 79 -12l-4 -22c-20 6 -52 12 -77 12c-59 0 -100 -27 -124 -95l-55 -157h140l-4 -22h-144l-208 -592c-24 -68 -68 -109 -135 -109c-20 0 -42 4 -64 11l4 20c17 -6 40 -11 62 -11c51 0 88 27 111 92l207 589h-80z
" />
    <glyph glyph-name="cent" unicode="&#xa2;" horiz-adv-x="512" 
d="M61 323c0 74 26 162 91 224c43 41 106 72 185 72l22 123h22l-22 -124c48 -3 89 -18 123 -39l-4 -23c-43 26 -87 41 -142 41c-65 0 -124 -22 -168 -64c-53 -51 -84 -130 -84 -209c0 -120 73 -197 194 -197c50 0 107 13 144 36l-5 -26c-40 -22 -93 -32 -138 -32h-10
l-22 -123h-22l22 125c-113 12 -186 92 -186 216z" />
    <glyph glyph-name="currency" unicode="&#xa4;" horiz-adv-x="586" 
d="M298 159c110 0 200 92 200 208c0 99 -71 174 -174 174c-110 0 -200 -92 -200 -208c0 -99 71 -174 174 -174zM298 137c-58 0 -110 22 -146 60l-92 -80l-14 16l92 80c-23 32 -37 72 -37 119c0 64 27 126 72 169l-54 68l18 14l53 -67c37 29 83 47 134 47
c58 0 110 -22 146 -60l92 80l14 -16l-92 -80c23 -32 37 -72 37 -119c0 -64 -27 -126 -72 -169l54 -68l-18 -14l-53 67c-37 -29 -83 -47 -134 -47z" />
    <glyph glyph-name="ae" unicode="&#xe6;" horiz-adv-x="924" 
d="M254 -11c-111 0 -199 80 -199 214c0 73 26 157 82 218c46 50 112 82 200 82c57 0 118 -16 166 -44l-13 -74l2 -1c40 66 108 119 198 119c110 0 182 -81 182 -207c0 -14 -1 -30 -5 -53h-401c-1 -10 -1 -20 -1 -30c0 -130 86 -202 204 -202c51 0 94 14 133 36l-4 -25
c-30 -18 -81 -33 -134 -33c-84 0 -160 36 -197 109c-55 -67 -133 -109 -213 -109zM255 11c83 0 154 46 203 107c-11 27 -16 58 -16 93c0 15 1 34 5 56l32 180c-42 21 -90 34 -142 34c-72 0 -136 -22 -184 -75c-50 -54 -75 -132 -75 -202c0 -117 71 -193 177 -193zM525 395
c-28 -36 -47 -82 -56 -130h378c1 8 2 18 2 29c0 97 -46 187 -160 187c-66 0 -122 -30 -164 -86z" />
    <glyph glyph-name="aeacute" unicode="&#x1fd;" horiz-adv-x="924" 
d="M254 -11c-111 0 -199 80 -199 214c0 73 26 157 82 218c46 50 112 82 200 82c57 0 118 -16 166 -44l-13 -74l2 -1c40 66 108 119 198 119c110 0 182 -81 182 -207c0 -14 -1 -30 -5 -53h-401c-1 -10 -1 -20 -1 -30c0 -130 86 -202 204 -202c51 0 94 14 133 36l-4 -25
c-30 -18 -81 -33 -134 -33c-84 0 -160 36 -197 109c-55 -67 -133 -109 -213 -109zM255 11c83 0 154 46 203 107c-11 27 -16 58 -16 93c0 15 1 34 5 56l32 180c-42 21 -90 34 -142 34c-72 0 -136 -22 -184 -75c-50 -54 -75 -132 -75 -202c0 -117 71 -193 177 -193zM525 395
c-28 -36 -47 -82 -56 -130h378c1 8 2 18 2 29c0 97 -46 187 -160 187c-66 0 -122 -30 -164 -86zM643 727l-129 -164h-22l125 164h26z" />
    <glyph glyph-name="AE" unicode="&#xc6;" horiz-adv-x="900" 
d="M-37 0l572 724h381l-4 -22h-342l-56 -315h297l-4 -22h-297l-60 -343h350l-4 -22h-373l41 233h-289l-184 -233h-28zM545 702l-353 -447h276l79 447h-2z" />
    <glyph glyph-name="AEacute" unicode="&#x1fc;" horiz-adv-x="900" 
d="M-37 0l572 724h381l-4 -22h-342l-56 -315h297l-4 -22h-297l-60 -343h350l-4 -22h-373l41 233h-289l-184 -233h-28zM545 702l-353 -447h276l79 447h-2zM783 959l-129 -164h-22l125 164h26z" />
    <glyph glyph-name="OE" unicode="&#x152;" horiz-adv-x="902" 
d="M76 327c0 83 29 180 96 259c74 87 181 138 334 138h412l-4 -22h-342l-56 -315h297l-4 -22h-297l-60 -343h350l-4 -22h-376c-176 0 -346 108 -346 327zM99 329c0 -200 149 -307 324 -307h6l120 680h-44c-138 0 -243 -42 -317 -131c-53 -64 -89 -152 -89 -242z" />
    <glyph glyph-name="eng" unicode="&#x14b;" horiz-adv-x="584" 
d="M53 0l87 492h23l-16 -90l2 -1c63 56 134 102 215 102c86 0 141 -52 141 -138c0 -24 -4 -50 -11 -91l-66 -377c-9 -50 -20 -72 -31 -86c-23 -30 -58 -42 -89 -42c-20 0 -46 5 -62 11l4 23c17 -6 38 -12 60 -12c59 0 83 42 95 108l67 378c5 28 10 62 10 86
c0 66 -38 118 -120 118c-77 0 -148 -46 -221 -113l-65 -368h-23z" />
    <glyph glyph-name="Oslash" unicode="&#xd8;" horiz-adv-x="807" 
d="M99 325c0 -80 23 -152 65 -206l506 502c-52 57 -128 92 -219 92c-108 0 -200 -49 -263 -129c-57 -72 -89 -166 -89 -259zM76 323c0 93 30 192 93 272c67 85 168 140 284 140c94 0 176 -36 233 -98l97 96l15 -15l-98 -97c45 -57 72 -133 72 -220c0 -93 -30 -192 -93 -272
c-67 -85 -168 -140 -284 -140c-94 0 -176 36 -233 98l-97 -96l-15 15l98 97c-45 57 -72 133 -72 220zM749 399c0 80 -23 152 -65 206l-506 -502c52 -57 128 -92 219 -92c108 0 200 49 263 129c57 72 89 166 89 259z" />
    <glyph glyph-name="Oslashacute" unicode="&#x1fe;" horiz-adv-x="807" 
d="M99 325c0 -80 23 -152 65 -206l506 502c-52 57 -128 92 -219 92c-108 0 -200 -49 -263 -129c-57 -72 -89 -166 -89 -259zM76 323c0 93 30 192 93 272c67 85 168 140 284 140c94 0 176 -36 233 -98l97 96l15 -15l-98 -97c45 -57 72 -133 72 -220c0 -93 -30 -192 -93 -272
c-67 -85 -168 -140 -284 -140c-94 0 -176 36 -233 98l-97 -96l-15 15l98 97c-45 57 -72 133 -72 220zM749 399c0 80 -23 152 -65 206l-506 -502c52 -57 128 -92 219 -92c108 0 200 49 263 129c57 72 89 166 89 259zM611 959l-129 -164h-22l125 164h26z" />
    <glyph glyph-name="registered" unicode="&#xae;" horiz-adv-x="369" 
d="M238 363c-108 0 -187 79 -187 186s79 186 187 186s187 -79 187 -186s-79 -186 -187 -186zM238 380c99 0 169 70 169 169s-70 169 -169 169s-169 -70 -169 -169s70 -169 169 -169zM301 448l-59 81h-49v-81h-18v202h62c48 0 74 -24 74 -60c0 -30 -19 -51 -49 -58l62 -84
h-23zM193 546h46c36 0 53 18 53 43s-18 44 -53 44h-46v-87z" />
    <glyph glyph-name="periodcentered" unicode="&#xb7;" horiz-adv-x="300" 
d="M128 302c0 18 14 32 32 32s32 -14 32 -32s-14 -32 -32 -32s-32 14 -32 32z" />
    <glyph glyph-name="ordfeminine" unicode="&#xaa;" horiz-adv-x="391" 
d="M235 401c-74 0 -130 52 -130 137c0 97 72 197 180 197c46 0 89 -19 122 -47l-49 -280h-22l6 34l-2 1c-22 -20 -57 -42 -105 -42zM236 422c45 0 82 22 111 52l36 205c-27 20 -63 35 -100 35c-92 0 -156 -88 -156 -175c0 -72 45 -117 109 -117z" />
    <glyph glyph-name="ordmasculine" unicode="&#xba;" horiz-adv-x="417" 
d="M252 401c-87 0 -147 62 -147 152c0 98 72 182 173 182c87 0 147 -62 147 -152c0 -98 -72 -182 -173 -182zM277 715c-84 0 -151 -71 -151 -159c0 -75 49 -135 127 -135c84 0 151 71 151 159c0 75 -49 135 -127 135z" />
    <glyph glyph-name="integral" unicode="&#x222b;" horiz-adv-x="345" 
d="M87 -156c16 -3 38 -5 55 -5c71 0 112 35 112 109c0 31 -7 60 -13 89l-124 576c-4 20 -11 53 -11 83c0 83 54 130 137 130c17 0 37 -2 54 -5v-23c-16 3 -37 6 -57 6c-67 0 -111 -34 -111 -110c0 -30 7 -60 13 -88l124 -577c5 -23 11 -53 11 -81c0 -83 -53 -131 -136 -131
c-17 0 -37 2 -54 5v22z" />
    <glyph glyph-name="mu" unicode="&#xb5;" horiz-adv-x="607" 
d="M283 -11c-59 0 -116 21 -145 79h-1l2 -288h-24v712h23v-288c0 -70 9 -121 39 -153c24 -26 62 -40 109 -40c81 0 147 42 206 98v383h23v-492h-23v79l-2 1c-51 -47 -121 -91 -207 -91z" />
    <glyph glyph-name="litre" unicode="&#x2113;" horiz-adv-x="436" 
d="M84 144l-33 57c28 26 55 51 80 77v258c0 141 64 214 143 214c71 0 116 -59 116 -155c0 -108 -57 -218 -159 -328v-66c0 -102 19 -136 61 -136c33 0 59 22 88 55l37 -48c-40 -57 -87 -86 -148 -86c-95 0 -137 71 -137 169v35c-12 -12 -36 -39 -48 -46zM231 363
c54 73 85 158 85 232c0 50 -14 81 -38 81c-28 0 -47 -40 -47 -132v-181z" />
    <glyph glyph-name="dotlessj" unicode="&#x237;" horiz-adv-x="217" 
d="M36 -101l105 593h23l-105 -595c-9 -50 -20 -72 -31 -86c-23 -30 -59 -42 -90 -42c-20 0 -45 5 -61 11l4 23c17 -6 38 -12 60 -12c59 0 83 42 95 108z" />
    <glyph glyph-name="jcircumflex" unicode="&#x135;" horiz-adv-x="217" 
d="M36 -101l105 593h23l-105 -595c-9 -50 -20 -72 -31 -86c-23 -30 -59 -42 -90 -42c-20 0 -45 5 -61 11l4 23c17 -6 38 -12 60 -12c59 0 83 42 95 108zM33 563l149 164h24l91 -164h-20l-85 148l-135 -148h-24z" />
    <glyph glyph-name="kcommaaccent" unicode="&#x137;" horiz-adv-x="478" 
d="M53 0l135 764h23l-86 -488h1l321 216h36l-328 -220l259 -272h-32l-257 271h-1l-48 -271h-23zM182 -54h25l-106 -218h-20z" />
    <glyph glyph-name="lacute" unicode="&#x13a;" horiz-adv-x="216" 
d="M53 0l135 764h23l-135 -764h-23zM324 990l-129 -164h-22l125 164h26z" />
    <glyph glyph-name="lcaron" unicode="&#x13e;" horiz-adv-x="275" 
d="M53 0l135 764h23l-135 -764h-23zM349 764h25l-106 -218h-20z" />
    <glyph glyph-name="lcommaaccent" unicode="&#x13c;" horiz-adv-x="216" 
d="M53 0l135 764h23l-135 -764h-23zM51 -54h25l-106 -218h-20z" />
    <glyph glyph-name="lslash" unicode="&#x142;" horiz-adv-x="222" 
d="M16 281l5 26l99 53l71 404h23l-69 -390l99 53l-5 -26l-99 -53l-61 -348h-23l59 334z" />
    <glyph glyph-name="ldot" unicode="&#x140;" horiz-adv-x="268" 
d="M53 0l135 764h23l-135 -764h-23zM256 306c-14 0 -25 11 -25 25c0 15 13 27 28 27c14 0 25 -11 25 -25c0 -15 -13 -27 -28 -27z" />
    <glyph glyph-name="nacute" unicode="&#x144;" horiz-adv-x="584" 
d="M53 0l87 492h23l-16 -90l2 -1c63 56 134 102 215 102c86 0 141 -52 141 -139c0 -24 -4 -48 -11 -90l-48 -274h-23l49 277c5 28 10 62 10 86c0 66 -38 118 -120 118c-77 0 -148 -46 -221 -113l-65 -368h-23zM459 727l-129 -164h-22l125 164h26z" />
    <glyph glyph-name="ncaron" unicode="&#x148;" horiz-adv-x="584" 
d="M53 0l87 492h23l-16 -90l2 -1c63 56 134 102 215 102c86 0 141 -52 141 -139c0 -24 -4 -48 -11 -90l-48 -274h-23l49 277c5 28 10 62 10 86c0 66 -38 118 -120 118c-77 0 -148 -46 -221 -113l-65 -368h-23zM509 727l-149 -164h-24l-91 164h20l85 -148l135 148h24z" />
    <glyph glyph-name="ntilde" unicode="&#xf1;" horiz-adv-x="584" 
d="M53 0l87 492h23l-16 -90l2 -1c63 56 134 102 215 102c86 0 141 -52 141 -139c0 -24 -4 -48 -11 -90l-48 -274h-23l49 277c5 28 10 62 10 86c0 66 -38 118 -120 118c-77 0 -148 -46 -221 -113l-65 -368h-23zM356 642c-24 16 -40 26 -62 26c-35 0 -60 -27 -76 -53h-2l5 30
c17 24 43 43 75 43c28 0 49 -14 75 -32c22 -15 39 -26 61 -26c35 0 61 27 76 53h2l-5 -31c-17 -24 -43 -42 -75 -42c-28 0 -48 14 -74 32z" />
    <glyph glyph-name="ncommaaccent" unicode="&#x146;" horiz-adv-x="584" 
d="M53 0l87 492h23l-16 -90l2 -1c63 56 134 102 215 102c86 0 141 -52 141 -139c0 -24 -4 -48 -11 -90l-48 -274h-23l49 277c5 28 10 62 10 86c0 66 -38 118 -120 118c-77 0 -148 -46 -221 -113l-65 -368h-23zM235 -54h25l-106 -218h-20z" />
    <glyph glyph-name="napostrophe" unicode="&#x149;" horiz-adv-x="584" 
d="M53 0l87 492h23l-16 -90l2 -1c63 56 134 102 215 102c86 0 141 -52 141 -139c0 -24 -4 -48 -11 -90l-48 -274h-23l49 277c5 28 10 62 10 86c0 66 -38 118 -120 118c-77 0 -148 -46 -221 -113l-65 -368h-23zM248 772h25l-106 -218h-20z" />
    <glyph glyph-name="ograve" unicode="&#xf2;" horiz-adv-x="587" 
d="M55 219c0 70 25 151 81 210c43 45 103 74 175 74c134 0 222 -99 222 -230c0 -70 -25 -151 -81 -210c-43 -45 -103 -74 -175 -74c-134 0 -222 99 -222 230zM78 220c0 -116 75 -209 199 -209c63 0 117 24 158 66c49 51 75 126 75 195c0 116 -75 209 -199 209
c-63 0 -117 -24 -158 -66c-49 -51 -75 -126 -75 -195zM369 563l-71 164h24l67 -164h-20z" />
    <glyph glyph-name="oacute" unicode="&#xf3;" horiz-adv-x="587" 
d="M55 219c0 70 25 151 81 210c43 45 103 74 175 74c134 0 222 -99 222 -230c0 -70 -25 -151 -81 -210c-43 -45 -103 -74 -175 -74c-134 0 -222 99 -222 230zM78 220c0 -116 75 -209 199 -209c63 0 117 24 158 66c49 51 75 126 75 195c0 116 -75 209 -199 209
c-63 0 -117 -24 -158 -66c-49 -51 -75 -126 -75 -195zM460 727l-129 -164h-22l125 164h26z" />
    <glyph glyph-name="ocircumflex" unicode="&#xf4;" horiz-adv-x="587" 
d="M55 219c0 70 25 151 81 210c43 45 103 74 175 74c134 0 222 -99 222 -230c0 -70 -25 -151 -81 -210c-43 -45 -103 -74 -175 -74c-134 0 -222 99 -222 230zM78 220c0 -116 75 -209 199 -209c63 0 117 24 158 66c49 51 75 126 75 195c0 116 -75 209 -199 209
c-63 0 -117 -24 -158 -66c-49 -51 -75 -126 -75 -195zM217 563l149 164h24l91 -164h-20l-85 148l-135 -148h-24z" />
    <glyph glyph-name="otilde" unicode="&#xf5;" horiz-adv-x="587" 
d="M55 219c0 70 25 151 81 210c43 45 103 74 175 74c134 0 222 -99 222 -230c0 -70 -25 -151 -81 -210c-43 -45 -103 -74 -175 -74c-134 0 -222 99 -222 230zM78 220c0 -116 75 -209 199 -209c63 0 117 24 158 66c49 51 75 126 75 195c0 116 -75 209 -199 209
c-63 0 -117 -24 -158 -66c-49 -51 -75 -126 -75 -195zM357 642c-24 16 -40 26 -62 26c-35 0 -60 -27 -76 -53h-2l5 30c17 24 43 43 75 43c28 0 49 -14 75 -32c22 -15 39 -26 61 -26c35 0 61 27 76 53h2l-5 -31c-17 -24 -43 -42 -75 -42c-28 0 -48 14 -74 32z" />
    <glyph glyph-name="odieresis" unicode="&#xf6;" horiz-adv-x="587" 
d="M55 219c0 70 25 151 81 210c43 45 103 74 175 74c134 0 222 -99 222 -230c0 -70 -25 -151 -81 -210c-43 -45 -103 -74 -175 -74c-134 0 -222 99 -222 230zM78 220c0 -116 75 -209 199 -209c63 0 117 24 158 66c49 51 75 126 75 195c0 116 -75 209 -199 209
c-63 0 -117 -24 -158 -66c-49 -51 -75 -126 -75 -195zM448 619c-14 0 -25 11 -25 25c0 15 13 27 28 27c14 0 25 -11 25 -25c0 -15 -13 -27 -28 -27zM276 619c-14 0 -25 11 -25 25c0 15 13 27 28 27c14 0 25 -11 25 -25c0 -15 -13 -27 -28 -27z" />
    <glyph glyph-name="omacron" unicode="&#x14d;" horiz-adv-x="587" 
d="M55 219c0 70 25 151 81 210c43 45 103 74 175 74c134 0 222 -99 222 -230c0 -70 -25 -151 -81 -210c-43 -45 -103 -74 -175 -74c-134 0 -222 99 -222 230zM78 220c0 -116 75 -209 199 -209c63 0 117 24 158 66c49 51 75 126 75 195c0 116 -75 209 -199 209
c-63 0 -117 -24 -158 -66c-49 -51 -75 -126 -75 -195zM234 635l4 20h255l-4 -20h-255z" />
    <glyph glyph-name="obreve" unicode="&#x14f;" horiz-adv-x="587" 
d="M55 219c0 70 25 151 81 210c43 45 103 74 175 74c134 0 222 -99 222 -230c0 -70 -25 -151 -81 -210c-43 -45 -103 -74 -175 -74c-134 0 -222 99 -222 230zM78 220c0 -116 75 -209 199 -209c63 0 117 24 158 66c49 51 75 126 75 195c0 116 -75 209 -199 209
c-63 0 -117 -24 -158 -66c-49 -51 -75 -126 -75 -195zM353 575c-70 0 -100 48 -100 105c0 10 1 22 2 31h19c-1 -8 -2 -19 -2 -29c0 -45 21 -88 83 -88c71 0 105 56 121 117h19c-15 -71 -60 -136 -142 -136z" />
    <glyph glyph-name="ohungarumlaut" unicode="&#x151;" horiz-adv-x="587" 
d="M55 219c0 70 25 151 81 210c43 45 103 74 175 74c134 0 222 -99 222 -230c0 -70 -25 -151 -81 -210c-43 -45 -103 -74 -175 -74c-134 0 -222 99 -222 230zM78 220c0 -116 75 -209 199 -209c63 0 117 24 158 66c49 51 75 126 75 195c0 116 -75 209 -199 209
c-63 0 -117 -24 -158 -66c-49 -51 -75 -126 -75 -195zM374 563l127 164h26l-132 -164h-21zM259 563l127 164h26l-132 -164h-21z" />
    <glyph glyph-name="oslash" unicode="&#xf8;" horiz-adv-x="587" 
d="M78 220c0 -51 14 -98 41 -134l337 335c-34 37 -84 60 -145 60c-63 0 -117 -24 -158 -66c-49 -51 -75 -126 -75 -195zM55 219c0 70 25 151 81 210c43 45 103 74 175 74c67 0 122 -25 161 -66l64 64l14 -14l-65 -65c31 -39 48 -91 48 -149c0 -70 -25 -151 -81 -210
c-43 -45 -103 -74 -175 -74c-67 0 -122 25 -161 66l-64 -64l-14 14l65 65c-31 39 -48 91 -48 149zM510 272c0 51 -14 98 -41 134l-337 -335c34 -37 84 -60 145 -60c63 0 117 24 158 66c49 51 75 126 75 195z" />
    <glyph glyph-name="oslashacute" unicode="&#x1ff;" horiz-adv-x="587" 
d="M78 220c0 -51 14 -98 41 -134l337 335c-34 37 -84 60 -145 60c-63 0 -117 -24 -158 -66c-49 -51 -75 -126 -75 -195zM55 219c0 70 25 151 81 210c43 45 103 74 175 74c67 0 122 -25 161 -66l64 64l14 -14l-65 -65c31 -39 48 -91 48 -149c0 -70 -25 -151 -81 -210
c-43 -45 -103 -74 -175 -74c-67 0 -122 25 -161 66l-64 -64l-14 14l65 65c-31 39 -48 91 -48 149zM510 272c0 51 -14 98 -41 134l-337 -335c34 -37 84 -60 145 -60c63 0 117 24 158 66c49 51 75 126 75 195zM460 727l-129 -164h-22l125 164h26z" />
    <glyph glyph-name="oe" unicode="&#x153;" horiz-adv-x="976" 
d="M742 503c110 0 182 -81 182 -207c0 -14 -1 -30 -5 -53h-401c-1 -10 -1 -20 -1 -30c0 -130 86 -202 204 -202c51 0 94 14 133 36l-4 -25c-30 -18 -81 -33 -134 -33c-107 0 -198 60 -217 168h-2c-36 -95 -117 -168 -229 -168c-128 0 -213 98 -213 229c0 71 25 151 80 210
c42 45 100 75 171 75c111 0 189 -73 207 -174h2c35 93 117 174 227 174zM78 219c0 -115 71 -208 191 -208c61 0 114 24 154 66c46 49 73 125 73 196c0 115 -71 208 -191 208c-61 0 -113 -24 -153 -66c-48 -51 -74 -126 -74 -196zM577 395c-28 -36 -47 -82 -56 -130h378
c1 8 2 18 2 29c0 97 -46 187 -160 187c-66 0 -122 -30 -164 -86z" />
    <glyph glyph-name="racute" unicode="&#x155;" horiz-adv-x="339" 
d="M76 0h-23l87 492h23l-15 -86l1 -1c38 42 106 91 178 91c10 0 23 -1 30 -2l-4 -22c-7 1 -19 2 -29 2c-70 0 -135 -50 -183 -106zM350 727l-129 -164h-22l125 164h26z" />
    <glyph glyph-name="rcaron" unicode="&#x159;" horiz-adv-x="339" 
d="M76 0h-23l87 492h23l-15 -86l1 -1c38 42 106 91 178 91c10 0 23 -1 30 -2l-4 -22c-7 1 -19 2 -29 2c-70 0 -135 -50 -183 -106zM400 727l-149 -164h-24l-91 164h20l85 -148l135 148h24z" />
    <glyph glyph-name="rcommaaccent" unicode="&#x157;" horiz-adv-x="339" 
d="M76 0h-23l87 492h23l-15 -86l1 -1c38 42 106 91 178 91c10 0 23 -1 30 -2l-4 -22c-7 1 -19 2 -29 2c-70 0 -135 -50 -183 -106zM93 -54h25l-106 -218h-20z" />
    <glyph glyph-name="sacute" unicode="&#x15b;" horiz-adv-x="465" 
d="M17 52l4 25c50 -44 130 -66 199 -66c50 0 88 12 115 34c26 21 43 51 43 86c0 78 -84 97 -143 111c-72 17 -159 38 -159 124c0 39 18 78 55 104c30 21 71 33 122 33c62 0 130 -17 183 -51l-4 -23c-50 32 -113 52 -179 52c-46 0 -82 -10 -108 -28c-28 -20 -46 -51 -46 -87
c0 -67 63 -84 148 -104c55 -13 154 -37 154 -129c0 -38 -17 -77 -52 -105s-81 -39 -132 -39c-71 0 -145 21 -200 63zM391 727l-129 -164h-22l125 164h26z" />
    <glyph glyph-name="scircumflex" unicode="&#x15d;" horiz-adv-x="465" 
d="M17 52l4 25c50 -44 130 -66 199 -66c50 0 88 12 115 34c26 21 43 51 43 86c0 78 -84 97 -143 111c-72 17 -159 38 -159 124c0 39 18 78 55 104c30 21 71 33 122 33c62 0 130 -17 183 -51l-4 -23c-50 32 -113 52 -179 52c-46 0 -82 -10 -108 -28c-28 -20 -46 -51 -46 -87
c0 -67 63 -84 148 -104c55 -13 154 -37 154 -129c0 -38 -17 -77 -52 -105s-81 -39 -132 -39c-71 0 -145 21 -200 63zM148 563l149 164h24l91 -164h-20l-85 148l-135 -148h-24z" />
    <glyph glyph-name="scaron" unicode="&#x161;" horiz-adv-x="465" 
d="M17 52l4 25c50 -44 130 -66 199 -66c50 0 88 12 115 34c26 21 43 51 43 86c0 78 -84 97 -143 111c-72 17 -159 38 -159 124c0 39 18 78 55 104c30 21 71 33 122 33c62 0 130 -17 183 -51l-4 -23c-50 32 -113 52 -179 52c-46 0 -82 -10 -108 -28c-28 -20 -46 -51 -46 -87
c0 -67 63 -84 148 -104c55 -13 154 -37 154 -129c0 -38 -17 -77 -52 -105s-81 -39 -132 -39c-71 0 -145 21 -200 63zM441 727l-149 -164h-24l-91 164h20l85 -148l135 148h24z" />
    <glyph glyph-name="scommaaccent" unicode="&#x219;" horiz-adv-x="465" 
d="M17 52l4 25c50 -44 130 -66 199 -66c50 0 88 12 115 34c26 21 43 51 43 86c0 78 -84 97 -143 111c-72 17 -159 38 -159 124c0 39 18 78 55 104c30 21 71 33 122 33c62 0 130 -17 183 -51l-4 -23c-50 32 -113 52 -179 52c-46 0 -82 -10 -108 -28c-28 -20 -46 -51 -46 -87
c0 -67 63 -84 148 -104c55 -13 154 -37 154 -129c0 -38 -17 -77 -52 -105s-81 -39 -132 -39c-71 0 -145 21 -200 63zM167 -54h25l-106 -218h-20z" />
    <glyph glyph-name="germandbls" unicode="&#xdf;" horiz-adv-x="529" 
d="M163 37l6 25c47 -33 108 -50 162 -50c50 0 88 12 115 34c26 21 43 51 43 91c0 71 -46 93 -120 124c-75 31 -133 56 -133 135c0 111 115 156 218 156c15 0 29 -1 39 -2c12 27 24 59 24 94c0 33 -10 57 -27 74c-24 24 -61 35 -115 35c-61 0 -105 -14 -136 -42
s-50 -71 -60 -127l-103 -584h-23l104 587c13 73 36 113 69 141c34 29 84 47 151 47c64 0 105 -16 130 -40c21 -20 33 -49 33 -87c0 -41 -14 -82 -33 -121c-16 2 -33 4 -53 4c-81 0 -195 -31 -195 -134c0 -63 42 -83 118 -115c77 -32 135 -57 135 -144
c0 -43 -17 -81 -52 -109s-81 -39 -132 -39c-57 0 -115 15 -165 47z" />
    <glyph glyph-name="tcaron" unicode="&#x165;" horiz-adv-x="351" 
d="M113 177l52 294h-106l4 21h106l25 143l24 3l-26 -146h172l-4 -21h-172l-52 -294c-6 -33 -9 -56 -9 -73c0 -64 40 -93 91 -93c19 0 44 4 63 13l-4 -24c-17 -6 -40 -10 -60 -10c-59 0 -113 34 -113 111c0 21 4 48 9 76zM433 772h25l-106 -218h-20z" />
    <glyph glyph-name="uni021B" unicode="&#x21b;" horiz-adv-x="351" 
d="M113 177l52 294h-106l4 21h106l25 143l24 3l-26 -146h172l-4 -21h-172l-52 -294c-6 -33 -9 -56 -9 -73c0 -64 40 -93 91 -93c19 0 44 4 63 13l-4 -24c-17 -6 -40 -10 -60 -10c-59 0 -113 34 -113 111c0 21 4 48 9 76zM179 -54h25l-106 -218h-20z" />
    <glyph glyph-name="tbar" unicode="&#x167;" horiz-adv-x="357" 
d="M116 177l16 91h-106l4 21h106l32 182h-106l4 21h106l25 143l24 3l-26 -146h172l-4 -21h-172l-32 -182h172l-4 -21h-172l-16 -91c-6 -33 -9 -56 -9 -74c0 -62 39 -92 90 -92c19 0 45 4 64 13l-4 -24c-17 -6 -41 -10 -61 -10c-59 0 -112 34 -112 111c0 21 4 48 9 76z" />
    <glyph glyph-name="ugrave" unicode="&#xf9;" horiz-adv-x="584" 
d="M79 128c0 24 4 48 11 90l48 274h23l-49 -277c-5 -28 -10 -62 -10 -86c0 -66 38 -118 120 -118c77 0 148 46 221 113l65 368h23l-87 -492h-23l16 90l-2 1c-63 -56 -133 -102 -215 -102c-86 0 -141 52 -141 139zM368 563l-71 164h24l67 -164h-20z" />
    <glyph glyph-name="uacute" unicode="&#xfa;" horiz-adv-x="584" 
d="M79 128c0 24 4 48 11 90l48 274h23l-49 -277c-5 -28 -10 -62 -10 -86c0 -66 38 -118 120 -118c77 0 148 46 221 113l65 368h23l-87 -492h-23l16 90l-2 1c-63 -56 -133 -102 -215 -102c-86 0 -141 52 -141 139zM459 727l-129 -164h-22l125 164h26z" />
    <glyph glyph-name="ucircumflex" unicode="&#xfb;" horiz-adv-x="584" 
d="M79 128c0 24 4 48 11 90l48 274h23l-49 -277c-5 -28 -10 -62 -10 -86c0 -66 38 -118 120 -118c77 0 148 46 221 113l65 368h23l-87 -492h-23l16 90l-2 1c-63 -56 -133 -102 -215 -102c-86 0 -141 52 -141 139zM216 563l149 164h24l91 -164h-20l-85 148l-135 -148h-24z
" />
    <glyph glyph-name="utilde" unicode="&#x169;" horiz-adv-x="584" 
d="M79 128c0 24 4 48 11 90l48 274h23l-49 -277c-5 -28 -10 -62 -10 -86c0 -66 38 -118 120 -118c77 0 148 46 221 113l65 368h23l-87 -492h-23l16 90l-2 1c-63 -56 -133 -102 -215 -102c-86 0 -141 52 -141 139zM356 642c-24 16 -40 26 -62 26c-35 0 -60 -27 -76 -53h-2
l5 30c17 24 43 43 75 43c28 0 49 -14 75 -32c22 -15 39 -26 61 -26c35 0 61 27 76 53h2l-5 -31c-17 -24 -43 -42 -75 -42c-28 0 -48 14 -74 32z" />
    <glyph glyph-name="udieresis" unicode="&#xfc;" horiz-adv-x="584" 
d="M79 128c0 24 4 48 11 90l48 274h23l-49 -277c-5 -28 -10 -62 -10 -86c0 -66 38 -118 120 -118c77 0 148 46 221 113l65 368h23l-87 -492h-23l16 90l-2 1c-63 -56 -133 -102 -215 -102c-86 0 -141 52 -141 139zM447 619c-14 0 -25 11 -25 25c0 15 13 27 28 27
c14 0 25 -11 25 -25c0 -15 -13 -27 -28 -27zM275 619c-14 0 -25 11 -25 25c0 15 13 27 28 27c14 0 25 -11 25 -25c0 -15 -13 -27 -28 -27z" />
    <glyph glyph-name="umacron" unicode="&#x16b;" horiz-adv-x="584" 
d="M79 128c0 24 4 48 11 90l48 274h23l-49 -277c-5 -28 -10 -62 -10 -86c0 -66 38 -118 120 -118c77 0 148 46 221 113l65 368h23l-87 -492h-23l16 90l-2 1c-63 -56 -133 -102 -215 -102c-86 0 -141 52 -141 139zM233 635l4 20h255l-4 -20h-255z" />
    <glyph glyph-name="ubreve" unicode="&#x16d;" horiz-adv-x="584" 
d="M79 128c0 24 4 48 11 90l48 274h23l-49 -277c-5 -28 -10 -62 -10 -86c0 -66 38 -118 120 -118c77 0 148 46 221 113l65 368h23l-87 -492h-23l16 90l-2 1c-63 -56 -133 -102 -215 -102c-86 0 -141 52 -141 139zM352 575c-70 0 -100 48 -100 105c0 10 1 22 2 31h19
c-1 -8 -2 -19 -2 -29c0 -45 21 -88 83 -88c71 0 105 56 121 117h19c-15 -71 -60 -136 -142 -136z" />
    <glyph glyph-name="uring" unicode="&#x16f;" horiz-adv-x="584" 
d="M79 128c0 24 4 48 11 90l48 274h23l-49 -277c-5 -28 -10 -62 -10 -86c0 -66 38 -118 120 -118c77 0 148 46 221 113l65 368h23l-87 -492h-23l16 90l-2 1c-63 -56 -133 -102 -215 -102c-86 0 -141 52 -141 139zM359 558c-58 0 -98 42 -98 99c0 61 47 115 112 115
c58 0 98 -42 98 -99c0 -61 -47 -115 -112 -115zM359 577c51 0 92 41 92 94c0 44 -28 82 -78 82c-51 0 -92 -41 -92 -94c0 -44 28 -82 78 -82z" />
    <glyph glyph-name="uhungarumlaut" unicode="&#x171;" horiz-adv-x="584" 
d="M79 128c0 24 4 48 11 90l48 274h23l-49 -277c-5 -28 -10 -62 -10 -86c0 -66 38 -118 120 -118c77 0 148 46 221 113l65 368h23l-87 -492h-23l16 90l-2 1c-63 -56 -133 -102 -215 -102c-86 0 -141 52 -141 139zM373 563l127 164h26l-132 -164h-21zM258 563l127 164h26
l-132 -164h-21z" />
    <glyph glyph-name="uogonek" unicode="&#x173;" horiz-adv-x="584" 
d="M422 7l15 83l-2 1c-63 -56 -133 -102 -215 -102c-86 0 -141 52 -141 139c0 24 4 48 11 90l48 274h23l-49 -277c-5 -28 -10 -62 -10 -86c0 -66 38 -118 120 -118c77 0 148 46 221 113l65 368h23l-87 -492c-57 -37 -117 -93 -117 -152c0 -32 16 -57 55 -57c8 0 19 1 25 2
l-4 -22c-5 -1 -15 -2 -23 -2c-41 0 -76 27 -76 79c0 60 56 118 118 159z" />
    <glyph glyph-name="wgrave" unicode="&#x1e81;" horiz-adv-x="805" 
d="M177 0l-89 492h23l82 -455h2l242 455h16l82 -455h2l242 455h25l-262 -492h-23l-81 448h-1l-238 -448h-22zM478 563l-71 164h24l67 -164h-20z" />
    <glyph glyph-name="wacute" unicode="&#x1e83;" horiz-adv-x="805" 
d="M177 0l-89 492h23l82 -455h2l242 455h16l82 -455h2l242 455h25l-262 -492h-23l-81 448h-1l-238 -448h-22zM569 727l-129 -164h-22l125 164h26z" />
    <glyph glyph-name="wcircumflex" unicode="&#x175;" horiz-adv-x="805" 
d="M177 0l-89 492h23l82 -455h2l242 455h16l82 -455h2l242 455h25l-262 -492h-23l-81 448h-1l-238 -448h-22zM326 563l149 164h24l91 -164h-20l-85 148l-135 -148h-24z" />
    <glyph glyph-name="wdieresis" unicode="&#x1e85;" horiz-adv-x="805" 
d="M177 0l-89 492h23l82 -455h2l242 455h16l82 -455h2l242 455h25l-262 -492h-23l-81 448h-1l-238 -448h-22zM557 619c-14 0 -25 11 -25 25c0 15 13 27 28 27c14 0 25 -11 25 -25c0 -15 -13 -27 -28 -27zM385 619c-14 0 -25 11 -25 25c0 15 13 27 28 27c14 0 25 -11 25 -25
c0 -15 -13 -27 -28 -27z" />
    <glyph glyph-name="ygrave" unicode="&#x1ef3;" horiz-adv-x="522" 
d="M58 -220h-26l183 275l-134 437h23l126 -413h1l273 413h25zM337 563l-71 164h24l67 -164h-20z" />
    <glyph glyph-name="yacute" unicode="&#xfd;" horiz-adv-x="522" 
d="M58 -220h-26l183 275l-134 437h23l126 -413h1l273 413h25zM428 727l-129 -164h-22l125 164h26z" />
    <glyph glyph-name="ycircumflex" unicode="&#x177;" horiz-adv-x="522" 
d="M58 -220h-26l183 275l-134 437h23l126 -413h1l273 413h25zM185 563l149 164h24l91 -164h-20l-85 148l-135 -148h-24z" />
    <glyph glyph-name="ydieresis" unicode="&#xff;" horiz-adv-x="522" 
d="M58 -220h-26l183 275l-134 437h23l126 -413h1l273 413h25zM416 619c-14 0 -25 11 -25 25c0 15 13 27 28 27c14 0 25 -11 25 -25c0 -15 -13 -27 -28 -27zM244 619c-14 0 -25 11 -25 25c0 15 13 27 28 27c14 0 25 -11 25 -25c0 -15 -13 -27 -28 -27z" />
    <glyph glyph-name="zacute" unicode="&#x17a;" horiz-adv-x="478" 
d="M-11 0l-1 2l453 467l-1 2h-343l4 21h390l1 -2l-453 -467l1 -2h367l-4 -21h-414zM407 727l-129 -164h-22l125 164h26z" />
    <glyph glyph-name="zcaron" unicode="&#x17e;" horiz-adv-x="478" 
d="M-11 0l-1 2l453 467l-1 2h-343l4 21h390l1 -2l-453 -467l1 -2h367l-4 -21h-414zM457 727l-149 -164h-24l-91 164h20l85 -148l135 148h24z" />
    <glyph glyph-name="zdotaccent" unicode="&#x17c;" horiz-adv-x="478" 
d="M-11 0l-1 2l453 467l-1 2h-343l4 21h390l1 -2l-453 -467l1 -2h367l-4 -21h-414zM309 619c-14 0 -25 11 -25 25c0 15 13 27 28 27c14 0 25 -11 25 -25c0 -15 -13 -27 -28 -27z" />
    <glyph glyph-name="i.TRK" horiz-adv-x="215" 
d="M53 0l87 492h23l-87 -492h-23z" />
    <glyph glyph-name="tilde.cap" 
d="M337 874c-24 16 -40 26 -62 26c-35 0 -60 -27 -76 -53h-2l5 30c17 24 43 43 75 43c28 0 49 -14 75 -32c22 -15 39 -26 61 -26c35 0 61 27 76 53h2l-5 -31c-17 -24 -43 -42 -75 -42c-28 0 -48 14 -74 32z" />
    <glyph glyph-name="dieresis.cap" 
d="M428 851c-14 0 -25 11 -25 25c0 15 13 27 28 27c14 0 25 -11 25 -25c0 -15 -13 -27 -28 -27zM256 851c-14 0 -25 11 -25 25c0 15 13 27 28 27c14 0 25 -11 25 -25c0 -15 -13 -27 -28 -27z" />
    <glyph glyph-name="macron.cap" 
d="M214 867l4 20h255l-4 -20h-255z" />
    <glyph glyph-name="breve.cap" 
d="M333 807c-70 0 -100 48 -100 105c0 10 1 22 2 31h19c-1 -8 -2 -19 -2 -29c0 -45 21 -88 83 -88c71 0 105 56 121 117h19c-15 -71 -60 -136 -142 -136z" />
    <glyph glyph-name="ring.cap" 
d="M340 790c-58 0 -98 42 -98 99c0 61 47 115 112 115c58 0 98 -42 98 -99c0 -61 -47 -115 -112 -115zM340 809c51 0 92 41 92 94c0 44 -28 82 -78 82c-51 0 -92 -41 -92 -94c0 -44 28 -82 78 -82z" />
    <glyph glyph-name="hungarumlaut.cap" 
d="M354 795l127 164h26l-132 -164h-21zM239 795l127 164h26l-132 -164h-21z" />
    <glyph glyph-name="dotaccent.cap" 
d="M342 851c-14 0 -25 11 -25 25c0 15 13 27 28 27c14 0 25 -11 25 -25c0 -15 -13 -27 -28 -27z" />
    <glyph glyph-name="grave.cap" 
d="M349 795l-71 164h24l67 -164h-20z" />
    <glyph glyph-name="acute.cap" 
d="M440 959l-129 -164h-22l125 164h26z" />
    <glyph glyph-name="circumflex.cap" 
d="M197 795l149 164h24l91 -164h-20l-85 148l-135 -148h-24z" />
    <glyph glyph-name="caron.cap" 
d="M490 959l-149 -164h-24l-91 164h20l85 -148l135 148h24z" />
    <glyph glyph-name="question" unicode="?" horiz-adv-x="459" 
d="M132 21c0 18 14 32 32 32s32 -14 32 -32s-14 -32 -32 -32s-32 14 -32 32zM183 184l26 150c122 0 236 72 236 199c0 106 -79 180 -194 180c-38 0 -74 -8 -110 -25l4 25c31 13 68 22 108 22c120 0 215 -79 215 -201c0 -130 -108 -213 -240 -220l-24 -130h-21z" />
    <glyph glyph-name="gbreve" unicode="&#x11f;" horiz-adv-x="575" 
d="M55 203c0 73 26 158 86 221c48 51 111 79 188 79c66 0 130 -22 184 -59l-83 -472c-28 -157 -131 -203 -230 -203c-58 0 -115 15 -169 47l4 23c45 -26 101 -48 166 -48c102 0 184 55 207 183l17 99l-2 1c-44 -39 -102 -75 -176 -75c-100 0 -192 68 -192 204zM78 204
c0 -118 74 -183 170 -183c71 0 131 36 183 86l57 326c-46 30 -99 48 -159 48c-63 0 -123 -19 -172 -71c-52 -56 -79 -135 -79 -206zM347 575c-70 0 -100 48 -100 105c0 10 1 22 2 31h19c-1 -8 -2 -19 -2 -29c0 -45 21 -88 83 -88c71 0 105 56 121 117h19
c-15 -71 -60 -136 -142 -136z" />
    <glyph glyph-name="gdotaccent" unicode="&#x121;" horiz-adv-x="575" 
d="M55 203c0 73 26 158 86 221c48 51 111 79 188 79c66 0 130 -22 184 -59l-83 -472c-28 -157 -131 -203 -230 -203c-58 0 -115 15 -169 47l4 23c45 -26 101 -48 166 -48c102 0 184 55 207 183l17 99l-2 1c-44 -39 -102 -75 -176 -75c-100 0 -192 68 -192 204zM78 204
c0 -118 74 -183 170 -183c71 0 131 36 183 86l57 326c-46 30 -99 48 -159 48c-63 0 -123 -19 -172 -71c-52 -56 -79 -135 -79 -206zM356 619c-14 0 -25 11 -25 25c0 15 13 27 28 27c14 0 25 -11 25 -25c0 -15 -13 -27 -28 -27z" />
    <glyph glyph-name="gcommaaccent" unicode="&#x123;" horiz-adv-x="575" 
d="M55 203c0 73 26 158 86 221c48 51 111 79 188 79c66 0 130 -22 184 -59l-83 -472c-28 -157 -131 -203 -230 -203c-58 0 -115 15 -169 47l4 23c45 -26 101 -48 166 -48c102 0 184 55 207 183l17 99l-2 1c-44 -39 -102 -75 -176 -75c-100 0 -192 68 -192 204zM78 204
c0 -118 74 -183 170 -183c71 0 131 36 183 86l57 326c-46 30 -99 48 -159 48c-63 0 -123 -19 -172 -71c-52 -56 -79 -135 -79 -206zM307 556l106 218h20l-101 -218h-25z" />
    <glyph glyph-name="dcroat" unicode="&#x111;" horiz-adv-x="583" 
d="M443 0h-23l13 73l-2 1c-45 -43 -109 -85 -186 -85c-96 0 -190 64 -190 205c0 78 28 164 84 226c48 52 112 83 187 83c64 0 122 -23 170 -59l2 1l30 166h-190l4 21h190l23 132h23l-23 -132h90l-4 -21h-90zM78 196c0 -123 77 -185 169 -185c75 0 138 42 192 97l55 310
c-47 38 -104 63 -169 63c-60 0 -120 -21 -169 -75c-50 -56 -78 -136 -78 -210z" />
    <glyph glyph-name="quotedblleft" unicode="&#x201c;" horiz-adv-x="398" 
d="M131 489l111 253h19l-103 -253h-27zM263 489l111 253h19l-103 -253h-27z" />
    <glyph glyph-name="quotesinglbase" unicode="&#x201a;" horiz-adv-x="266" 
d="M24 -89l103 253h27l-111 -253h-19z" />
    <glyph glyph-name="quotedblbase" unicode="&#x201e;" horiz-adv-x="398" 
d="M24 -89l103 253h27l-111 -253h-19zM156 -89l103 253h27l-111 -253h-19z" />
    <glyph glyph-name="lessequal" unicode="&#x2264;" horiz-adv-x="646" 
d="M114 353l3 17l496 222l-5 -25l-460 -206v-1l387 -206l-4 -23zM51 0l4 21h457l-4 -21h-457z" />
    <glyph glyph-name="Tcommaaccent" unicode="&#x162;" horiz-adv-x="630" 
d="M227 -72l33 72l124 702h-251l4 22h525l-4 -22h-251l-124 -702h-2l-26 -58c45 -12 77 -37 77 -79c0 -48 -37 -84 -92 -84c-26 0 -50 8 -74 22l10 21c16 -10 39 -22 64 -22c32 0 69 20 69 61c0 44 -45 59 -82 67z" />
    <glyph glyph-name="gcircumflex" unicode="&#x11d;" horiz-adv-x="575" 
d="M55 203c0 73 26 158 86 221c48 51 111 79 188 79c66 0 130 -22 184 -59l-83 -472c-28 -157 -131 -203 -230 -203c-58 0 -115 15 -169 47l4 23c45 -26 101 -48 166 -48c102 0 184 55 207 183l17 99l-2 1c-44 -39 -102 -75 -176 -75c-100 0 -192 68 -192 204zM78 204
c0 -118 74 -183 170 -183c71 0 131 36 183 86l57 326c-46 30 -99 48 -159 48c-63 0 -123 -19 -172 -71c-52 -56 -79 -135 -79 -206zM211 563l149 164h24l91 -164h-20l-85 148l-135 -148h-24z" />
    <glyph glyph-name="scedilla" unicode="&#x15f;" horiz-adv-x="465" 
d="M159 -72l29 62c-62 5 -124 25 -171 62l4 25c50 -44 130 -66 199 -66c50 0 88 12 115 34c26 21 43 51 43 86c0 78 -84 97 -143 111c-72 17 -159 38 -159 124c0 39 18 78 55 104c30 21 71 33 122 33c62 0 130 -17 183 -51l-4 -23c-50 32 -113 52 -179 52
c-46 0 -82 -10 -108 -28c-28 -20 -46 -51 -46 -87c0 -67 63 -84 148 -104c55 -13 154 -37 154 -129c0 -38 -17 -77 -52 -105s-81 -39 -132 -39h-8l-22 -47c45 -12 77 -37 77 -79c0 -48 -37 -84 -92 -84c-26 0 -50 8 -74 22l10 21c16 -10 39 -22 64 -22c32 0 69 20 69 61
c0 44 -45 59 -82 67z" />
    <glyph glyph-name="tcommaaccent" unicode="&#x163;" horiz-adv-x="351" 
d="M113 177l52 294h-106l4 21h106l25 143l24 3l-26 -146h172l-4 -21h-172l-52 -294c-6 -33 -9 -56 -9 -73c0 -64 40 -93 91 -93c19 0 44 4 63 13l-4 -24c-17 -6 -40 -10 -60 -10c-10 0 -21 1 -30 3l-24 -51c45 -12 77 -37 77 -79c0 -48 -37 -84 -92 -84c-26 0 -50 8 -74 22
l10 21c16 -10 39 -22 64 -22c32 0 69 20 69 61c0 44 -45 59 -82 67l33 71c-37 14 -64 47 -64 102c0 21 4 48 9 76z" />
    <glyph glyph-name="thorn" unicode="&#xfe;" horiz-adv-x="575" 
d="M14 -220l174 984h23l-58 -323l1 -1c40 32 97 63 166 63c112 0 201 -81 201 -216c0 -73 -26 -156 -82 -216c-46 -50 -111 -82 -195 -82c-63 0 -116 18 -160 45l-2 -1l-45 -253h-23zM148 409l-62 -351c43 -29 95 -47 158 -47c74 0 133 25 178 74c49 53 76 130 76 201
c0 117 -73 195 -180 195c-65 0 -123 -29 -170 -72z" />
    <glyph glyph-name="P" unicode="P" horiz-adv-x="602" 
d="M56 0l128 724h178c95 0 154 -21 195 -61c34 -33 50 -76 50 -124c0 -51 -18 -106 -60 -149c-43 -44 -106 -70 -217 -70h-195l-56 -320h-23zM140 342h193c94 0 155 18 198 62c34 35 53 82 53 132c0 46 -16 83 -44 111c-34 34 -86 55 -178 55h-159z" />
    <glyph glyph-name="ampersand" unicode="&#x26;" horiz-adv-x="691" 
d="M80 155c0 90 61 159 142 205l74 42l-32 40c-32 40 -51 79 -51 125c0 89 72 168 170 168c75 0 137 -46 137 -127c0 -72 -49 -130 -124 -173l-68 -39l183 -230l116 268h23l-124 -286l116 -146l-1 -2h-26l-100 125c-47 -87 -131 -136 -237 -136c-121 0 -198 65 -198 166z
M279 11c89 0 173 37 222 132l-192 242l-73 -41c-62 -35 -133 -96 -133 -188c0 -86 63 -145 176 -145zM236 567c0 -38 12 -71 46 -113l33 -41l71 40c60 34 111 84 111 152c0 66 -47 108 -114 108c-79 0 -147 -57 -147 -146z" />
    <glyph glyph-name="at" unicode="@" horiz-adv-x="807" 
d="M49 216c0 209 160 403 384 403c191 0 335 -141 335 -332c0 -122 -58 -233 -158 -233c-43 0 -85 20 -98 67h-2c-45 -47 -98 -68 -146 -68c-82 0 -140 62 -140 153c0 114 88 233 214 233c52 0 94 -16 134 -45l-37 -201c-4 -21 -5 -34 -5 -43c0 -50 35 -75 79 -75
c89 0 136 102 136 208c0 177 -128 314 -311 314c-205 0 -362 -173 -362 -380c0 -190 133 -322 312 -322c72 0 137 21 192 59l12 -19c-61 -41 -131 -62 -204 -62c-191 0 -335 144 -335 343zM367 75c53 0 108 31 141 74c0 12 1 23 5 44l35 190c-25 16 -59 34 -112 34
c-109 0 -189 -105 -189 -209c0 -80 47 -133 120 -133z" />
    <glyph glyph-name="onequarter" unicode="&#xbc;" horiz-adv-x="906" 
d="M156 -13h-27l612 737h27zM191 294l73 412l-127 -46l4 21l148 54l-78 -441h-20zM791 434l-52 -293h97l-3 -19h-97l-22 -122h-20l22 122h-237l-1 2l293 310h20zM521 141h198l45 254l-2 1z" />
    <glyph glyph-name="agrave" unicode="&#xe0;" horiz-adv-x="583" 
d="M520 434l-77 -434h-23l13 73l-2 1c-45 -43 -109 -85 -186 -85c-96 0 -190 65 -190 205c0 74 26 164 89 230c50 52 112 79 183 79c68 0 137 -25 193 -69zM439 108l56 316c-49 35 -105 57 -169 57c-58 0 -117 -19 -166 -72c-53 -57 -82 -140 -82 -214
c0 -121 77 -184 169 -184c75 0 138 42 192 97zM373 563l-71 164h24l67 -164h-20z" />
    <glyph glyph-name="aacute" unicode="&#xe1;" horiz-adv-x="583" 
d="M520 434l-77 -434h-23l13 73l-2 1c-45 -43 -109 -85 -186 -85c-96 0 -190 65 -190 205c0 74 26 164 89 230c50 52 112 79 183 79c68 0 137 -25 193 -69zM439 108l56 316c-49 35 -105 57 -169 57c-58 0 -117 -19 -166 -72c-53 -57 -82 -140 -82 -214
c0 -121 77 -184 169 -184c75 0 138 42 192 97zM464 727l-129 -164h-22l125 164h26z" />
    <glyph glyph-name="acircumflex" unicode="&#xe2;" horiz-adv-x="583" 
d="M520 434l-77 -434h-23l13 73l-2 1c-45 -43 -109 -85 -186 -85c-96 0 -190 65 -190 205c0 74 26 164 89 230c50 52 112 79 183 79c68 0 137 -25 193 -69zM439 108l56 316c-49 35 -105 57 -169 57c-58 0 -117 -19 -166 -72c-53 -57 -82 -140 -82 -214
c0 -121 77 -184 169 -184c75 0 138 42 192 97zM221 563l149 164h24l91 -164h-20l-85 148l-135 -148h-24z" />
    <glyph glyph-name="atilde" unicode="&#xe3;" horiz-adv-x="583" 
d="M520 434l-77 -434h-23l13 73l-2 1c-45 -43 -109 -85 -186 -85c-96 0 -190 65 -190 205c0 74 26 164 89 230c50 52 112 79 183 79c68 0 137 -25 193 -69zM439 108l56 316c-49 35 -105 57 -169 57c-58 0 -117 -19 -166 -72c-53 -57 -82 -140 -82 -214
c0 -121 77 -184 169 -184c75 0 138 42 192 97zM361 642c-24 16 -40 26 -62 26c-35 0 -60 -27 -76 -53h-2l5 30c17 24 43 43 75 43c28 0 49 -14 75 -32c22 -15 39 -26 61 -26c35 0 61 27 76 53h2l-5 -31c-17 -24 -43 -42 -75 -42c-28 0 -48 14 -74 32z" />
    <glyph glyph-name="adieresis" unicode="&#xe4;" horiz-adv-x="583" 
d="M520 434l-77 -434h-23l13 73l-2 1c-45 -43 -109 -85 -186 -85c-96 0 -190 65 -190 205c0 74 26 164 89 230c50 52 112 79 183 79c68 0 137 -25 193 -69zM439 108l56 316c-49 35 -105 57 -169 57c-58 0 -117 -19 -166 -72c-53 -57 -82 -140 -82 -214
c0 -121 77 -184 169 -184c75 0 138 42 192 97zM452 619c-14 0 -25 11 -25 25c0 15 13 27 28 27c14 0 25 -11 25 -25c0 -15 -13 -27 -28 -27zM280 619c-14 0 -25 11 -25 25c0 15 13 27 28 27c14 0 25 -11 25 -25c0 -15 -13 -27 -28 -27z" />
    <glyph glyph-name="amacron" unicode="&#x101;" horiz-adv-x="583" 
d="M520 434l-77 -434h-23l13 73l-2 1c-45 -43 -109 -85 -186 -85c-96 0 -190 65 -190 205c0 74 26 164 89 230c50 52 112 79 183 79c68 0 137 -25 193 -69zM439 108l56 316c-49 35 -105 57 -169 57c-58 0 -117 -19 -166 -72c-53 -57 -82 -140 -82 -214
c0 -121 77 -184 169 -184c75 0 138 42 192 97zM238 635l4 20h255l-4 -20h-255z" />
    <glyph glyph-name="abreve" unicode="&#x103;" horiz-adv-x="583" 
d="M520 434l-77 -434h-23l13 73l-2 1c-45 -43 -109 -85 -186 -85c-96 0 -190 65 -190 205c0 74 26 164 89 230c50 52 112 79 183 79c68 0 137 -25 193 -69zM439 108l56 316c-49 35 -105 57 -169 57c-58 0 -117 -19 -166 -72c-53 -57 -82 -140 -82 -214
c0 -121 77 -184 169 -184c75 0 138 42 192 97zM357 575c-70 0 -100 48 -100 105c0 10 1 22 2 31h19c-1 -8 -2 -19 -2 -29c0 -45 21 -88 83 -88c71 0 105 56 121 117h19c-15 -71 -60 -136 -142 -136z" />
    <glyph glyph-name="aring" unicode="&#xe5;" horiz-adv-x="583" 
d="M520 434l-77 -434h-23l13 73l-2 1c-45 -43 -109 -85 -186 -85c-96 0 -190 65 -190 205c0 74 26 164 89 230c50 52 112 79 183 79c68 0 137 -25 193 -69zM439 108l56 316c-49 35 -105 57 -169 57c-58 0 -117 -19 -166 -72c-53 -57 -82 -140 -82 -214
c0 -121 77 -184 169 -184c75 0 138 42 192 97zM364 558c-58 0 -98 42 -98 99c0 61 47 115 112 115c58 0 98 -42 98 -99c0 -61 -47 -115 -112 -115zM364 577c51 0 92 41 92 94c0 44 -28 82 -78 82c-51 0 -92 -41 -92 -94c0 -44 28 -82 78 -82z" />
    <glyph glyph-name="M" unicode="M" horiz-adv-x="849" 
d="M56 0l128 724h21l224 -444l380 444h25l-128 -724h-23l119 680h-2l-377 -440l-222 440h-2l-120 -680h-23z" />
    <glyph glyph-name="V" unicode="V" horiz-adv-x="617" 
d="M255 0l-152 724h24l144 -689h2l385 689h25l-405 -724h-23z" />
    <glyph glyph-name="W" unicode="W" horiz-adv-x="958" 
d="M198 0l-98 724h23l93 -689h2l335 689h20l91 -689h2l336 689h25l-354 -724h-27l-90 679h-1l-330 -679h-27z" />
    <glyph glyph-name="X" unicode="X" horiz-adv-x="624" 
d="M-7 0l329 376l-182 348h25l172 -330h2l287 330h27l-304 -349l195 -375h-25l-185 357h-2l-312 -357h-27z" />
    <glyph glyph-name="Y" unicode="Y" horiz-adv-x="614" 
d="M252 0l58 327l-205 397h25l193 -375h2l325 375h28l-345 -397l-58 -327h-23z" />
    <glyph glyph-name="Z" unicode="Z" horiz-adv-x="564" 
d="M-24 0l-1 2l598 698l-1 2h-448l4 22h493l1 -2l-598 -698l1 -2h471l-4 -22h-516z" />
    <glyph glyph-name="apple" unicode="&#xf8ff;" horiz-adv-x="1007" 
d="M516 674c-1 6 -2 17 -2 27c0 40 17 82 51 120s72 60 120 66c9 1 15 1 15 1c1 -7 2 -15 2 -25c0 -48 -21 -96 -56 -132c-37 -38 -81 -57 -130 -57zM241 96c-61 82 -106 200 -106 317c0 82 22 148 67 197s104 74 177 74c32 0 52 -5 94 -21c34 -13 43 -16 56 -16
c12 0 21 3 79 23c27 9 56 14 88 14c78 0 140 -29 187 -87c-67 -49 -101 -106 -101 -176c0 -77 42 -140 125 -183c-23 -65 -55 -122 -98 -171c-42 -48 -81 -72 -116 -72c-17 0 -35 5 -82 22c-30 11 -49 17 -77 17c-22 0 -41 -4 -65 -13c-50 -19 -69 -26 -87 -26
c-40 0 -91 34 -141 101z" />
    <glyph glyph-name="estimated" unicode="&#x212e;" horiz-adv-x="823" 
d="M213 137c0 -88 124 -126 208 -126s180 38 238 118l33 -7c-65 -89 -158 -139 -274 -139c-197 0 -337 143 -337 322c0 180 141 323 336 323c165 0 324 -102 333 -296c1 -31 -1 -32 -32 -32h-473c-34 0 -32 -2 -32 -32v-131zM245 328h342c34 0 32 2 32 32v125
c0 64 -91 115 -203 115s-203 -51 -203 -115v-125c0 -30 -2 -32 32 -32z" />
    <glyph glyph-name="Ncaron" unicode="&#x147;" horiz-adv-x="746" 
d="M56 0l128 724h22l379 -686h2l121 686h23l-128 -724h-22l-379 686h-2l-121 -686h-23zM631 959l-149 -164h-24l-91 164h20l85 -148l135 148h24z" />
    <glyph glyph-name="Ntilde" unicode="&#xd1;" horiz-adv-x="746" 
d="M56 0l128 724h22l379 -686h2l121 686h23l-128 -724h-22l-379 686h-2l-121 -686h-23zM478 874c-24 16 -40 26 -62 26c-35 0 -60 -27 -76 -53h-2l5 30c17 24 43 43 75 43c28 0 49 -14 75 -32c22 -15 39 -26 61 -26c35 0 61 27 76 53h2l-5 -31c-17 -24 -43 -42 -75 -42
c-28 0 -48 14 -74 32z" />
    <glyph glyph-name="Ncommaaccent" unicode="&#x145;" horiz-adv-x="746" 
d="M56 0l128 724h22l379 -686h2l121 686h23l-128 -724h-22l-379 686h-2l-121 -686h-23zM316 -54h25l-106 -218h-20z" />
    <glyph glyph-name="Wgrave" unicode="&#x1e80;" horiz-adv-x="958" 
d="M198 0l-98 724h23l93 -689h2l335 689h20l91 -689h2l336 689h25l-354 -724h-27l-90 679h-1l-330 -679h-27zM596 795l-71 164h24l67 -164h-20z" />
    <glyph glyph-name="Wacute" unicode="&#x1e82;" horiz-adv-x="958" 
d="M198 0l-98 724h23l93 -689h2l335 689h20l91 -689h2l336 689h25l-354 -724h-27l-90 679h-1l-330 -679h-27zM687 959l-129 -164h-22l125 164h26z" />
    <glyph glyph-name="Wcircumflex" unicode="&#x174;" horiz-adv-x="958" 
d="M198 0l-98 724h23l93 -689h2l335 689h20l91 -689h2l336 689h25l-354 -724h-27l-90 679h-1l-330 -679h-27zM444 795l149 164h24l91 -164h-20l-85 148l-135 -148h-24z" />
    <glyph glyph-name="Wdieresis" unicode="&#x1e84;" horiz-adv-x="958" 
d="M198 0l-98 724h23l93 -689h2l335 689h20l91 -689h2l336 689h25l-354 -724h-27l-90 679h-1l-330 -679h-27zM675 851c-14 0 -25 11 -25 25c0 15 13 27 28 27c14 0 25 -11 25 -25c0 -15 -13 -27 -28 -27zM503 851c-14 0 -25 11 -25 25c0 15 13 27 28 27c14 0 25 -11 25 -25
c0 -15 -13 -27 -28 -27z" />
    <glyph glyph-name="Ygrave" unicode="&#x1ef2;" horiz-adv-x="614" 
d="M252 0l58 327l-205 397h25l193 -375h2l325 375h28l-345 -397l-58 -327h-23zM425 795l-71 164h24l67 -164h-20z" />
    <glyph glyph-name="Yacute" unicode="&#xdd;" horiz-adv-x="614" 
d="M252 0l58 327l-205 397h25l193 -375h2l325 375h28l-345 -397l-58 -327h-23zM516 959l-129 -164h-22l125 164h26z" />
    <glyph glyph-name="Ycircumflex" unicode="&#x176;" horiz-adv-x="614" 
d="M252 0l58 327l-205 397h25l193 -375h2l325 375h28l-345 -397l-58 -327h-23zM273 795l149 164h24l91 -164h-20l-85 148l-135 -148h-24z" />
    <glyph glyph-name="Ydieresis" unicode="&#x178;" horiz-adv-x="614" 
d="M252 0l58 327l-205 397h25l193 -375h2l325 375h28l-345 -397l-58 -327h-23zM504 851c-14 0 -25 11 -25 25c0 15 13 27 28 27c14 0 25 -11 25 -25c0 -15 -13 -27 -28 -27zM332 851c-14 0 -25 11 -25 25c0 15 13 27 28 27c14 0 25 -11 25 -25c0 -15 -13 -27 -28 -27z" />
    <glyph glyph-name="Zacute" unicode="&#x179;" horiz-adv-x="564" 
d="M-24 0l-1 2l598 698l-1 2h-448l4 22h493l1 -2l-598 -698l1 -2h471l-4 -22h-516zM496 959l-129 -164h-22l125 164h26z" />
    <glyph glyph-name="Zcaron" unicode="&#x17d;" horiz-adv-x="564" 
d="M-24 0l-1 2l598 698l-1 2h-448l4 22h493l1 -2l-598 -698l1 -2h471l-4 -22h-516zM546 959l-149 -164h-24l-91 164h20l85 -148l135 148h24z" />
    <glyph glyph-name="Zdotaccent" unicode="&#x17b;" horiz-adv-x="564" 
d="M-24 0l-1 2l598 698l-1 2h-448l4 22h493l1 -2l-598 -698l1 -2h471l-4 -22h-516zM398 851c-14 0 -25 11 -25 25c0 15 13 27 28 27c14 0 25 -11 25 -25c0 -15 -13 -27 -28 -27z" />
    <glyph glyph-name="onehalf" unicode="&#xbd;" horiz-adv-x="948" 
d="M551 0l-1 2l193 172c53 47 107 99 107 162c0 58 -46 86 -99 86c-40 0 -76 -15 -101 -37l5 27c24 16 57 29 96 29c61 0 119 -32 119 -104c0 -69 -53 -122 -111 -174l-160 -142l1 -2h233l-3 -19h-279zM156 -13h-27l612 737h27zM191 294l73 412l-127 -46l4 21l148 54
l-78 -441h-20z" />
    <glyph glyph-name="aogonek" unicode="&#x105;" horiz-adv-x="583" 
d="M520 434l-77 -434c-57 -37 -117 -93 -117 -152c0 -32 16 -57 55 -57c8 0 19 1 25 2l-4 -22c-5 -1 -15 -2 -23 -2c-41 0 -76 27 -76 79c0 60 56 118 118 159l12 66l-2 1c-45 -43 -109 -85 -186 -85c-96 0 -190 65 -190 205c0 74 26 164 89 230c50 52 112 79 183 79
c68 0 137 -25 193 -69zM439 108l56 316c-49 35 -105 57 -169 57c-58 0 -117 -19 -166 -72c-53 -57 -82 -140 -82 -214c0 -121 77 -184 169 -184c75 0 138 42 192 97z" />
    <glyph glyph-name="IJ" unicode="&#x132;" horiz-adv-x="591" 
d="M56 0l128 724h23l-128 -724h-23zM212 16l4 24c33 -16 69 -29 108 -29c88 0 115 67 131 158l98 555h23l-99 -560c-11 -62 -23 -94 -38 -116c-27 -40 -71 -59 -118 -59c-40 0 -80 13 -109 27z" />
    <glyph glyph-name="ij" unicode="&#x133;" horiz-adv-x="433" 
d="M155 665c0 15 13 27 28 27c14 0 25 -11 25 -25c0 -15 -13 -27 -28 -27c-14 0 -25 11 -25 25zM53 0l87 492h23l-87 -492h-23zM372 665c0 15 13 27 28 27c14 0 25 -11 25 -25c0 -15 -13 -27 -28 -27c-14 0 -25 11 -25 25zM252 -101l105 593h23l-105 -595
c-9 -50 -20 -72 -31 -86c-23 -30 -59 -42 -90 -42c-20 0 -45 5 -61 11l4 23c17 -6 38 -12 60 -12c59 0 83 42 95 108z" />
    <glyph glyph-name="kgreenlandic" unicode="&#x138;" horiz-adv-x="478" 
d="M53 0l87 492h23l-38 -216h1l321 216h35l-328 -220l260 -272h-31l-258 271h-1l-48 -271h-23z" />
    <glyph glyph-name="greaterequal" unicode="&#x2265;" horiz-adv-x="646" 
d="M74 131l5 25l460 206v1l-387 206l4 23l417 -222l-3 -17zM51 0l4 21h457l-4 -21h-457z" />
    <glyph glyph-name="one" unicode="1" horiz-adv-x="489" 
d="M228 0l123 700l-204 -79l4 25l230 89l-130 -735h-23z" />
    <glyph glyph-name="two" unicode="2" horiz-adv-x="536" 
d="M-5 0l-1 2l315 289c81 74 168 166 168 275c0 97 -70 147 -164 147c-61 0 -119 -21 -159 -48l5 28c39 23 94 42 153 42c100 0 188 -53 188 -170c0 -110 -79 -201 -173 -287l-277 -254l1 -2h386l-4 -22h-438z" />
    <glyph glyph-name="three" unicode="3" horiz-adv-x="509" 
d="M18 53l4 25c55 -45 128 -67 193 -67c60 0 113 19 150 51c40 35 62 84 62 134c0 103 -92 158 -190 158h-64l4 21h65c75 0 133 31 167 70c27 31 44 71 44 117c0 94 -70 151 -171 151c-46 0 -93 -12 -127 -34l5 28c36 18 79 28 122 28c104 0 194 -58 194 -172
c0 -48 -16 -92 -48 -129s-72 -58 -115 -69v-2c80 -22 137 -83 137 -165c0 -55 -25 -112 -70 -151c-40 -35 -98 -58 -167 -58c-72 0 -145 25 -195 64z" />
    <glyph glyph-name="four" unicode="4" horiz-adv-x="610" 
d="M27 208l-1 2l469 514h24l-87 -494h161l-4 -22h-161l-37 -208h-23l37 208h-378zM73 230h336l80 454l-1 1z" />
    <glyph glyph-name="five" unicode="5" horiz-adv-x="526" 
d="M30 58l6 25c57 -48 122 -72 191 -72c62 0 118 19 157 57c32 31 55 78 55 134c0 78 -46 129 -111 158c-58 26 -126 32 -194 32h-17l87 332h299l-6 -22h-276l-76 -289c69 0 137 -9 196 -35c72 -33 121 -92 121 -175c0 -60 -25 -114 -62 -150c-43 -42 -105 -64 -174 -64
c-80 0 -146 29 -196 69z" />
    <glyph glyph-name="six" unicode="6" horiz-adv-x="555" 
d="M369 724h27l-215 -296c-28 -38 -54 -76 -66 -98l1 -1c38 44 104 77 175 77c115 0 206 -77 206 -194c0 -61 -25 -115 -66 -155c-41 -41 -100 -68 -170 -68c-120 0 -210 80 -210 197c0 93 54 173 111 252zM75 186c0 -95 69 -175 187 -175c59 0 111 21 151 60
c35 34 61 83 61 141c0 99 -76 171 -183 171c-65 0 -118 -26 -153 -58c-39 -36 -63 -84 -63 -139z" />
    <glyph glyph-name="seven" unicode="7" horiz-adv-x="525" 
d="M97 0l431 702h-397l4 22h430l1 -2l-443 -722h-26z" />
    <glyph glyph-name="eight" unicode="8" horiz-adv-x="580" 
d="M52 175c0 108 81 193 192 215v2c-56 22 -105 76 -105 150c0 52 25 104 68 139c36 29 87 54 151 54c102 0 191 -61 191 -168c0 -96 -72 -169 -165 -187v-2c70 -27 124 -89 124 -172c0 -59 -27 -115 -71 -154c-42 -38 -102 -62 -172 -62c-120 0 -213 69 -213 185zM333 394
c54 0 106 21 142 55c30 28 51 68 51 117c0 97 -81 147 -169 147c-51 0 -98 -17 -134 -47c-40 -33 -61 -75 -61 -123c0 -94 83 -149 171 -149zM75 175c0 -97 75 -163 189 -163c63 0 118 20 157 55s64 85 64 139c0 98 -85 168 -192 168c-67 0 -127 -27 -167 -70
c-32 -35 -51 -80 -51 -129z" />
    <glyph glyph-name="nine" unicode="9" horiz-adv-x="538" 
d="M396 296c29 39 55 77 69 103l-2 1c-38 -45 -106 -80 -179 -80c-108 0 -198 73 -198 190c0 59 23 116 67 159c41 39 99 66 166 66c113 0 207 -76 207 -197c0 -93 -49 -166 -111 -252l-207 -286h-27zM286 342c60 0 114 24 152 59c39 35 63 83 63 139c0 98 -75 173 -184 173
c-61 0 -111 -24 -145 -56c-43 -40 -63 -92 -63 -145c0 -103 76 -170 177 -170z" />
    <glyph glyph-name="one.superior" unicode="&#xb9;" horiz-adv-x="313" 
d="M206 422l73 412l-127 -46l4 21l148 54l-78 -441h-20z" />
    <glyph glyph-name="two.superior" unicode="&#xb2;" horiz-adv-x="343" 
d="M54 422l-1 2l193 172c53 47 107 99 107 162c0 58 -46 86 -99 86c-40 0 -76 -15 -101 -37l5 27c24 16 57 29 96 29c61 0 119 -32 119 -104c0 -69 -53 -122 -111 -174l-160 -142l1 -2h233l-3 -19h-279z" />
    <glyph glyph-name="three.superior" unicode="&#xb3;" horiz-adv-x="325" 
d="M79 455l4 23c30 -27 71 -43 116 -43c36 0 67 10 90 29c20 17 37 44 37 77c0 60 -57 90 -115 90h-40l3 19h41c46 0 79 16 101 40c16 17 27 40 27 67c0 54 -43 87 -103 87c-33 0 -61 -10 -81 -23l4 23c21 12 48 19 77 19c65 0 123 -35 123 -104c0 -30 -11 -57 -29 -77
c-21 -24 -47 -35 -67 -41v-2c46 -12 80 -48 80 -97c0 -35 -17 -69 -45 -92c-25 -21 -61 -35 -105 -35c-48 0 -88 16 -118 40z" />
    <glyph glyph-name="four.superior" unicode="&#x2074;" horiz-adv-x="389" 
d="M389 856l-52 -293h97l-3 -19h-97l-22 -122h-20l22 122h-237l-1 2l293 310h20zM119 563h198l45 254l-2 1z" />
    <glyph glyph-name="threequarters" unicode="&#xbe;" horiz-adv-x="957" 
d="M88 327l4 23c30 -27 71 -43 116 -43c36 0 67 10 90 29c20 17 37 44 37 77c0 60 -57 90 -115 90h-40l3 19h41c46 0 79 16 101 40c16 17 27 40 27 67c0 54 -43 87 -103 87c-33 0 -61 -10 -81 -23l4 23c21 12 48 19 77 19c65 0 123 -35 123 -104c0 -30 -11 -57 -29 -77
c-21 -24 -47 -35 -67 -41v-2c46 -12 80 -48 80 -97c0 -35 -17 -69 -45 -92c-25 -21 -61 -35 -105 -35c-48 0 -88 16 -118 40zM207 -13h-27l612 737h27zM842 434l-52 -293h97l-3 -19h-97l-22 -122h-20l22 122h-237l-1 2l293 310h20zM572 141h198l45 254l-2 1z" />
    <glyph glyph-name="longs" unicode="&#x17f;" horiz-adv-x="249" 
d="M71 0l83 471h-91l4 21h91l26 149c10 56 25 83 47 103c24 22 55 31 88 31c24 0 49 -5 75 -12l-4 -22c-21 6 -45 12 -71 12c-28 0 -54 -7 -73 -25c-20 -19 -31 -47 -39 -90l-113 -638h-23z" />
    <glyph glyph-name="ff" unicode="&#xfb00;" horiz-adv-x="600" 
d="M362 0l83 471h-268l-83 -471h-23l83 471h-91l4 21h91l26 149c10 56 25 83 47 103c24 22 55 31 88 31c24 0 49 -5 75 -12l-4 -22c-21 6 -45 12 -71 12c-28 0 -54 -7 -73 -25c-20 -19 -31 -47 -39 -90l-26 -146h268l26 149c10 56 25 83 47 103c24 22 55 31 88 31
c24 0 49 -5 75 -12l-4 -22c-21 6 -45 12 -71 12c-28 0 -54 -7 -73 -25c-20 -19 -31 -47 -39 -90l-26 -146h148l-4 -21h-148l-83 -471h-23z" />
    <glyph glyph-name="periodcentered.cap" horiz-adv-x="300" 
d="M139 362c0 18 14 32 32 32s32 -14 32 -32s-14 -32 -32 -32s-32 14 -32 32z" />
    <glyph glyph-name="at.cap" horiz-adv-x="807" 
d="M69 332c0 209 160 403 384 403c191 0 335 -141 335 -332c0 -122 -58 -233 -158 -233c-43 0 -85 20 -98 67h-2c-45 -47 -98 -68 -146 -68c-82 0 -140 62 -140 153c0 114 88 233 214 233c52 0 94 -16 134 -45l-37 -201c-4 -21 -5 -34 -5 -43c0 -50 35 -75 79 -75
c89 0 136 102 136 208c0 177 -128 314 -311 314c-205 0 -362 -173 -362 -380c0 -190 133 -322 312 -322c72 0 137 21 192 59l12 -19c-61 -41 -131 -62 -204 -62c-191 0 -335 144 -335 343zM387 191c53 0 108 31 141 74c0 12 1 23 5 44l35 190c-25 16 -59 34 -112 34
c-109 0 -189 -105 -189 -209c0 -80 47 -133 120 -133z" />
    <glyph glyph-name="uni00A0" unicode="&#xa0;" horiz-adv-x="244" 
 />
    <glyph glyph-name="Eth" unicode="&#xd0;" horiz-adv-x="739" 
d="M40 358l4 21h91l61 345h152c138 0 225 -42 282 -106c55 -62 81 -141 81 -221c0 -83 -29 -180 -96 -259c-74 -87 -181 -138 -334 -138h-213l63 358h-91zM95 22h187c138 0 243 42 317 131c53 64 89 152 89 242c0 78 -27 155 -78 211c-53 58 -135 96 -262 96h-133l-57 -323
h190l-4 -21h-190z" />
    <glyph glyph-name="uni0394" unicode="&#x394;" horiz-adv-x="668" 
d="M13 0v16l299 708h21l299 -708v-16h-619zM40 22h564l-281 669h-1z" />
    <glyph glyph-name="uni03A9" unicode="&#x3a9;" horiz-adv-x="737" 
d="M27 0v22h218l1 2c-112 105 -180 238 -180 375c0 192 119 336 310 336s310 -144 310 -336c0 -137 -68 -270 -180 -375l1 -2h218v-22h-257v17c116 102 195 232 195 384c0 179 -109 312 -287 312s-287 -133 -287 -312c0 -152 79 -282 195 -384v-17h-257z" />
    <glyph glyph-name="uni03BC" unicode="&#x3bc;" horiz-adv-x="607" 
d="M283 -11c-59 0 -116 21 -145 79h-1l2 -288h-24v712h23v-288c0 -70 9 -121 39 -153c24 -26 62 -40 109 -40c81 0 147 42 206 98v383h23v-492h-23v79l-2 1c-51 -47 -121 -91 -207 -91z" />
    </font>
</defs>
</svg>
