<?xml version="1.0" standalone="no"?>
<!DOCTYPE svg PUBLIC "-//W3C//DTD SVG 1.1//EN" "http://www.w3.org/Graphics/SVG/1.1/DTD/svg11.dtd" >
<svg xmlns="http://www.w3.org/2000/svg" xmlns:xlink="http://www.w3.org/1999/xlink" version="1.1">
<metadata>
Created by FontForge 20190801 at Fri Jan  4 20:25:57 2013
 By Jimmy Wärting
Copyright (c) 2012 by Rui Abreu, Portugal. All rights reserved.
</metadata>
<defs>
<font id="AzoSans-Italic" horiz-adv-x="496" >
  <font-face 
    font-family="Azo Sans"
    font-weight="400"
    font-style="italic"
    font-stretch="normal"
    units-per-em="1000"
    panose-1="2 0 0 0 0 0 0 0 0 0"
    ascent="772"
    descent="-228"
    x-height="492"
    cap-height="724"
    bbox="-154 -272 1271 1011"
    underline-thickness="50"
    underline-position="-120"
    slope="-10"
    stemh="86"
    stemv="90"
    unicode-range="U+000D-FB02"
  />
<missing-glyph horiz-adv-x="648" 
d="M152 604l131 131l213 -212l-101 -101l101 -100l-101 -101l101 -100l-132 -132l-212 213l100 100l-100 101l100 100z" />
    <glyph glyph-name="fi" unicode="fi" horiz-adv-x="584" 
d="M60 0l72 411h-77l14 81h77l21 120c11 62 34 102 62 125c32 27 75 38 120 38c26 0 53 -5 77 -13l-14 -82c-21 8 -43 13 -65 13c-24 0 -44 -6 -59 -19c-14 -12 -25 -30 -33 -76l-19 -106h123l-14 -81h-123l-72 -411h-90zM469 658c0 37 30 66 67 66c35 0 61 -27 61 -60
c0 -37 -31 -66 -68 -66c-35 0 -60 27 -60 60zM371 0l87 492h90l-87 -492h-90z" />
    <glyph glyph-name="fl" unicode="fl" horiz-adv-x="584" 
d="M60 0l72 411h-77l14 81h77l21 120c11 62 34 102 62 125c32 27 75 38 120 38c26 0 53 -5 77 -13l-14 -82c-21 8 -43 13 -65 13c-24 0 -44 -6 -59 -19c-14 -12 -25 -30 -33 -76l-19 -106h123l-14 -81h-123l-72 -411h-90zM371 0l135 764h90l-135 -764h-90z" />
    <glyph glyph-name=".notdef" horiz-adv-x="648" 
d="M152 604l131 131l213 -212l-101 -101l101 -100l-101 -101l101 -100l-132 -132l-212 213l100 100l-100 101l100 100z" />
    <glyph glyph-name="CR" unicode="&#xd;" horiz-adv-x="342" 
 />
    <glyph glyph-name="space" unicode=" " horiz-adv-x="237" 
 />
    <glyph glyph-name="A" unicode="A" horiz-adv-x="685" 
d="M-39 0l419 724h93l164 -724h-98l-44 202h-318l-115 -202h-101zM304 427l-80 -142h253l-29 131c-14 65 -28 132 -40 195h-2c-33 -61 -68 -123 -102 -184z" />
    <glyph glyph-name="C" unicode="C" horiz-adv-x="665" 
d="M62 306c0 108 41 227 127 313c77 77 179 116 287 116c81 0 154 -22 204 -51l-17 -95c-53 35 -119 58 -191 58c-86 0 -162 -32 -216 -86c-64 -63 -99 -158 -99 -246c0 -148 98 -238 259 -238c64 0 127 14 182 43l-18 -103c-51 -18 -112 -28 -171 -28
c-203 0 -347 115 -347 317z" />
    <glyph glyph-name="D" unicode="D" horiz-adv-x="727" 
d="M37 0l128 724h177c119 0 206 -34 266 -88c65 -58 101 -140 101 -236s-36 -203 -115 -282c-75 -74 -182 -118 -323 -118h-234zM147 86h131c121 0 202 40 254 96c53 57 82 137 82 211c0 66 -23 131 -72 176c-46 42 -114 69 -212 69h-85z" />
    <glyph glyph-name="E" unicode="E" horiz-adv-x="549" 
d="M37 0l128 724h413l-15 -86h-318l-39 -220h276l-15 -83h-276l-44 -249h327l-15 -86h-422z" />
    <glyph glyph-name="F" unicode="F" horiz-adv-x="552" 
d="M37 0l128 724h419l-15 -86h-324l-41 -234h286l-15 -83h-286l-57 -321h-95z" />
    <glyph glyph-name="G" unicode="G" horiz-adv-x="721" 
d="M61 307c0 114 45 235 135 320c75 71 173 108 277 108c88 0 171 -26 228 -63l-17 -95c-56 40 -132 70 -214 70c-86 0 -158 -33 -209 -81c-68 -64 -105 -157 -105 -249c0 -143 90 -242 247 -242c48 0 92 9 125 22l32 181h-159l15 83h254l-58 -327
c-58 -27 -138 -45 -215 -45c-196 0 -336 117 -336 318z" />
    <glyph glyph-name="I" unicode="I" horiz-adv-x="256" 
d="M37 0l128 724h95l-128 -724h-95z" />
    <glyph glyph-name="K" unicode="K" horiz-adv-x="626" 
d="M37 0l128 724h95l-57 -320l2 -1l364 321h121l-382 -336l270 -388h-114l-263 381h-2l-67 -381h-95z" />
    <glyph glyph-name="O" unicode="O" horiz-adv-x="798" 
d="M62 324c0 99 34 200 98 277c67 81 166 134 285 134c185 0 331 -130 331 -335c0 -99 -34 -200 -98 -277c-67 -81 -166 -134 -285 -134c-185 0 -331 130 -331 335zM157 331c0 -142 93 -254 240 -254c84 0 156 36 208 100c47 58 76 137 76 216c0 142 -93 254 -240 254
c-84 0 -156 -36 -208 -100c-47 -58 -76 -137 -76 -216z" />
    <glyph glyph-name="Q" unicode="Q" horiz-adv-x="798" 
d="M62 324c0 99 34 200 98 277c67 81 166 134 285 134c185 0 331 -130 331 -335c0 -99 -34 -200 -98 -277c-49 -60 -116 -104 -193 -122v-2c68 -45 146 -84 226 -113l-93 -54c-96 39 -184 94 -260 159c-168 15 -296 141 -296 333zM157 331c0 -142 93 -254 240 -254
c84 0 156 36 208 100c47 58 76 137 76 216c0 142 -93 254 -240 254c-84 0 -156 -36 -208 -100c-47 -58 -76 -137 -76 -216z" />
    <glyph glyph-name="S" unicode="S" horiz-adv-x="553" 
d="M415 198c0 70 -60 97 -142 133c-93 41 -170 81 -170 188c0 58 23 115 71 157c44 38 102 59 169 59c72 0 148 -24 210 -67l-18 -101c-57 47 -131 80 -200 80c-36 0 -71 -9 -97 -30s-40 -52 -40 -86c0 -68 57 -89 142 -128c97 -44 170 -84 170 -192
c0 -70 -31 -133 -84 -173c-44 -33 -100 -49 -162 -49c-84 0 -169 30 -231 80l18 104c59 -56 143 -97 219 -97c40 0 78 11 103 31c26 21 42 54 42 91z" />
    <glyph glyph-name="U" unicode="U" horiz-adv-x="718" 
d="M77 227c0 30 4 66 13 120l66 377h95l-66 -377c-8 -44 -11 -81 -11 -106c0 -102 51 -164 166 -164c77 0 131 28 166 74c31 40 50 97 65 185l68 388h92l-69 -394c-21 -120 -47 -184 -87 -234c-53 -66 -134 -107 -242 -107c-161 0 -256 91 -256 238z" />
    <glyph glyph-name="Eng" unicode="&#x14a;" horiz-adv-x="762" 
d="M540 -19l5 29l-204 369c-34 61 -78 142 -110 203l-2 -1c-11 -72 -24 -149 -37 -223l-63 -358h-92l128 724h87l210 -379c34 -61 78 -142 110 -203l2 1c11 72 24 149 37 223l63 358h92l-133 -755c-12 -70 -31 -109 -55 -138c-36 -43 -87 -62 -144 -62c-42 0 -83 11 -115 25
l16 92c31 -16 67 -29 100 -29c73 0 92 51 105 124z" />
    <glyph glyph-name="Thorn" unicode="&#xde;" horiz-adv-x="614" 
d="M37 0l128 724h95l-25 -141h97c93 0 159 -18 205 -59c39 -34 63 -83 63 -141s-24 -122 -76 -169c-50 -45 -119 -69 -225 -69h-141l-26 -145h-95zM173 228h138c76 0 120 15 151 45c26 25 43 61 43 102c0 35 -13 64 -37 84c-29 25 -72 38 -138 38h-110z" />
    <glyph glyph-name="a" unicode="a" horiz-adv-x="582" 
d="M538 449l-79 -449h-90l8 43l-2 1c-35 -29 -80 -55 -140 -55c-107 0 -191 83 -191 211c0 74 28 158 87 219c58 60 134 84 206 84s139 -25 201 -54zM394 139l45 258c-29 14 -70 26 -111 26c-61 0 -106 -25 -138 -62c-38 -44 -56 -102 -56 -154c0 -89 53 -139 119 -139
c49 0 99 27 141 71z" />
    <glyph glyph-name="b" unicode="b" horiz-adv-x="578" 
d="M206 463l2 -1c31 22 77 41 129 41c111 0 197 -85 197 -213c0 -71 -26 -154 -86 -214c-61 -61 -146 -87 -236 -87c-61 0 -128 12 -175 25l133 750h90zM317 422c-41 0 -87 -16 -126 -45l-53 -298c29 -7 56 -11 86 -11c76 0 128 26 163 64c33 36 57 93 57 151
c0 86 -52 139 -127 139z" />
    <glyph glyph-name="c" unicode="c" horiz-adv-x="499" 
d="M44 207c0 73 28 163 99 225c52 45 119 71 193 71c51 0 102 -13 141 -31l-15 -86c-44 22 -85 35 -129 35c-54 0 -98 -19 -131 -49c-41 -38 -68 -98 -68 -158c0 -85 55 -143 153 -143c47 0 96 13 136 33l-16 -93c-35 -13 -85 -22 -129 -22c-124 0 -234 73 -234 218z" />
    <glyph glyph-name="d" unicode="d" horiz-adv-x="582" 
d="M44 201c0 74 27 156 83 216c58 62 133 86 204 86c53 0 94 -14 120 -26l2 1l51 286h90l-135 -764h-90l8 43l-2 1c-36 -31 -80 -55 -139 -55c-110 0 -192 84 -192 212zM134 209c0 -87 50 -141 120 -141c52 0 101 30 139 69l45 257c-29 16 -71 30 -113 30
c-54 0 -103 -23 -138 -65c-34 -41 -53 -97 -53 -150z" />
    <glyph glyph-name="e" unicode="e" horiz-adv-x="550" 
d="M501 220h-368c0 -99 68 -150 159 -150c59 0 118 21 156 42l-17 -94c-42 -20 -99 -29 -145 -29c-133 0 -242 74 -242 225c0 72 25 145 70 198c55 65 130 91 197 91c117 0 201 -78 201 -198c0 -27 -4 -60 -11 -85zM307 422c-77 0 -138 -48 -163 -131h284v10
c0 70 -41 121 -121 121z" />
    <glyph glyph-name="f" unicode="f" horiz-adv-x="335" 
d="M60 0l72 411h-77l14 81h77l21 120c11 62 34 102 62 125c32 27 75 38 120 38c26 0 53 -5 77 -13l-14 -82c-21 8 -43 13 -65 13c-24 0 -44 -6 -59 -19c-14 -12 -25 -30 -33 -76l-19 -106h123l-14 -81h-123l-72 -411h-90z" />
    <glyph glyph-name="g" unicode="g" horiz-adv-x="574" 
d="M44 212c0 74 30 155 84 210c51 52 124 81 205 81c66 0 136 -19 198 -49l-80 -455c-30 -168 -132 -230 -265 -230c-59 0 -118 12 -175 43l17 94c43 -31 104 -55 163 -55c79 0 150 42 169 143l8 47l-1 1c-32 -22 -68 -40 -122 -40c-117 0 -201 85 -201 210zM134 219
c0 -84 52 -139 129 -139c44 0 85 18 120 44l49 278c-27 11 -71 21 -109 21c-59 0 -103 -24 -134 -58c-35 -39 -55 -94 -55 -146z" />
    <glyph glyph-name="h" unicode="h" horiz-adv-x="592" 
d="M36 0l135 764h90l-59 -332l2 -1c50 41 108 72 175 72c90 0 149 -56 149 -151c0 -17 -2 -37 -8 -69l-50 -283h-90l49 277c5 27 7 45 7 59c0 50 -23 83 -83 83c-59 0 -112 -33 -167 -77l-60 -342h-90z" />
    <glyph glyph-name="i" unicode="i" horiz-adv-x="249" 
d="M134 658c0 37 30 66 67 66c35 0 61 -27 61 -60c0 -37 -31 -66 -68 -66c-35 0 -60 27 -60 60zM36 0l87 492h90l-87 -492h-90z" />
    <glyph glyph-name="j" unicode="j" horiz-adv-x="252" 
d="M137 658c0 37 30 66 67 66c35 0 61 -27 61 -60c0 -37 -31 -66 -68 -66c-35 0 -60 27 -60 60zM29 -59l97 551h90l-99 -562c-10 -59 -26 -89 -47 -113c-32 -35 -75 -48 -120 -48c-24 0 -51 4 -73 11l14 82c18 -5 40 -11 59 -11c53 0 69 35 79 90z" />
    <glyph glyph-name="k" unicode="k" horiz-adv-x="536" 
d="M36 0l135 764h90l-84 -475h2l265 203h120l-288 -220l198 -272h-107l-192 266h-2l-47 -266h-90z" />
    <glyph glyph-name="l" unicode="l" horiz-adv-x="249" 
d="M36 0l135 764h90l-135 -764h-90z" />
    <glyph glyph-name="m" unicode="m" horiz-adv-x="918" 
d="M36 0l87 492h90l-11 -61l2 -1c45 39 106 73 172 73c65 0 116 -33 135 -89c68 59 134 89 198 89c87 0 146 -55 146 -144c0 -20 -3 -43 -8 -71l-51 -288h-90l50 282c5 27 7 45 7 58c0 48 -25 79 -80 79s-110 -31 -164 -80c-1 -15 -4 -34 -7 -51l-51 -288h-90l50 282
c5 27 7 45 7 58c0 48 -25 79 -80 79c-56 0 -109 -32 -162 -79l-60 -340h-90z" />
    <glyph glyph-name="n" unicode="n" horiz-adv-x="592" 
d="M36 0l87 492h90l-11 -60l2 -1c50 40 110 72 177 72c87 0 147 -56 147 -151c0 -17 -2 -37 -8 -69l-50 -283h-90l49 277c5 27 7 45 7 59c0 50 -23 83 -79 83c-57 0 -118 -35 -171 -77l-60 -342h-90z" />
    <glyph glyph-name="p" unicode="p" horiz-adv-x="578" 
d="M534 281c0 -76 -28 -156 -81 -211c-50 -52 -121 -81 -203 -81c-51 0 -92 11 -120 23l-2 -1l-41 -231h-90l126 712h90l-5 -29l2 -1c35 25 75 41 124 41c115 0 200 -89 200 -222zM444 275c0 92 -52 147 -128 147c-44 0 -90 -18 -123 -44l-50 -284c29 -14 69 -26 113 -26
c55 0 101 21 134 58c36 40 54 96 54 149z" />
    <glyph glyph-name="q" unicode="q" horiz-adv-x="584" 
d="M538 466l-121 -686h-90l44 250l-2 1c-33 -25 -76 -42 -126 -42c-112 0 -199 85 -199 214c0 75 30 160 88 217c59 58 139 83 222 83c67 0 129 -16 184 -37zM387 119l51 288c-29 10 -61 17 -96 17c-67 0 -117 -25 -150 -61c-35 -38 -58 -97 -58 -154
c0 -87 54 -140 126 -140c41 0 88 18 127 50z" />
    <glyph glyph-name="r" unicode="r" horiz-adv-x="400" 
d="M36 0l87 492h90l-15 -84l2 -1c42 53 118 89 181 89c11 0 21 -1 31 -3l-15 -87c-7 1 -19 2 -30 2c-70 0 -137 -39 -187 -102l-54 -306h-90z" />
    <glyph glyph-name="s" unicode="s" horiz-adv-x="494" 
d="M25 45l16 93c51 -42 126 -69 194 -69c33 0 60 7 78 22c14 11 24 31 24 51c0 47 -52 53 -126 73c-78 22 -140 51 -140 126c0 39 17 84 50 114c36 33 88 48 147 48c61 0 129 -15 185 -46l-16 -91c-49 35 -118 56 -178 56c-28 0 -51 -5 -67 -15c-17 -11 -30 -30 -30 -53
c0 -48 58 -52 127 -70c76 -20 139 -51 139 -129c0 -37 -14 -84 -52 -118c-37 -33 -88 -48 -150 -48c-66 0 -140 16 -201 56z" />
    <glyph glyph-name="t" unicode="t" horiz-adv-x="380" 
d="M99 128c0 17 2 42 7 70l38 213h-89l14 81h90l24 139l91 5l-25 -144h145l-14 -81h-146l-37 -210c-4 -24 -7 -43 -7 -60c0 -43 23 -70 74 -70c20 0 40 4 57 9l-15 -84c-16 -4 -36 -7 -57 -7c-82 0 -150 43 -150 139z" />
    <glyph glyph-name="u" unicode="u" horiz-adv-x="586" 
d="M59 136c0 20 3 48 8 78l49 278h90l-48 -272c-5 -30 -7 -54 -7 -68c0 -48 24 -80 81 -80c56 0 113 31 168 80l60 340h90l-87 -492h-90l10 57l-2 1c-47 -35 -103 -69 -170 -69c-85 0 -152 54 -152 147z" />
    <glyph glyph-name="v" unicode="v" horiz-adv-x="542" 
d="M183 0l-119 492h95l47 -202c14 -61 27 -120 39 -179h2c34 61 68 120 103 180l118 201h97l-293 -492h-89z" />
    <glyph glyph-name="w" unicode="w" horiz-adv-x="811" 
d="M147 0l-84 492h96l34 -219c8 -51 16 -105 22 -152h2c26 50 52 99 81 152l120 219h63l42 -219c10 -52 19 -102 27 -152h2c24 50 49 100 75 151l112 220h96l-258 -492h-88l-41 209c-9 47 -17 93 -23 136h-2c-21 -42 -48 -93 -71 -135l-116 -210h-89z" />
    <glyph glyph-name="x" unicode="x" horiz-adv-x="495" 
d="M-51 0l245 262l-133 230h101l38 -67c21 -37 40 -71 59 -107h2c31 36 62 71 96 109l59 65h105l-213 -229l152 -263h-103l-49 87c-21 37 -45 81 -64 118h-2c-31 -35 -69 -76 -103 -113l-85 -92h-105z" />
    <glyph glyph-name="y" unicode="y" horiz-adv-x="542" 
d="M110 -220h-101l183 276l-129 436h97l50 -173c16 -55 32 -113 45 -165h2c33 54 68 111 104 167l109 171h98z" />
    <glyph glyph-name="z" unicode="z" horiz-adv-x="483" 
d="M-18 0l-1 2l343 406l-1 2h-243l14 82h408l1 -2l-344 -406l1 -2h264l-14 -82h-428z" />
    <glyph glyph-name="dotlessi" unicode="&#x131;" horiz-adv-x="249" 
d="M36 0l87 492h90l-87 -492h-90z" />
    <glyph glyph-name="eth" unicode="&#xf0;" horiz-adv-x="608" 
d="M210 539v64l116 31c-26 25 -56 48 -89 69l64 54c45 -31 82 -64 114 -100l108 29v-64l-65 -18c68 -96 96 -201 96 -299c0 -86 -22 -173 -79 -234c-46 -49 -114 -82 -193 -82c-131 0 -231 90 -231 222c0 73 30 152 89 206c44 40 105 66 167 66c53 0 110 -19 141 -59l2 1
c-14 55 -40 108 -78 157zM141 221c0 -83 52 -150 146 -150c48 0 84 17 113 44c37 35 60 87 60 142c-1 87 -56 148 -148 148c-49 0 -84 -17 -111 -42c-40 -37 -60 -90 -60 -142z" />
    <glyph glyph-name="grave" unicode="`" 
d="M303 563l-81 164h100l48 -164h-67z" />
    <glyph glyph-name="acute" unicode="&#xb4;" 
d="M447 727l-139 -164h-69l106 164h102z" />
    <glyph glyph-name="circumflex" unicode="&#x2c6;" 
d="M143 563l142 164h96l84 -164h-71l-70 105l-102 -105h-79z" />
    <glyph glyph-name="caron" unicode="&#x2c7;" 
d="M494 727l-142 -164h-96l-84 164h71l70 -105l102 105h79z" />
    <glyph glyph-name="commaaccent" unicode="&#xf6c3;" 
d="M157 -54h90l-115 -218h-68z" />
    <glyph glyph-name="commaaccent.alt" 
d="M240 556l116 218h67l-92 -218h-91z" />
    <glyph glyph-name="tilde" unicode="&#x2dc;" 
d="M305 612c-26 13 -45 21 -68 21c-36 0 -62 -25 -80 -49l-2 1l15 85c18 20 47 37 83 37c26 0 50 -11 80 -26c26 -13 45 -21 68 -21c36 0 62 25 80 49l2 -1l-15 -85c-18 -20 -47 -37 -83 -37c-26 0 -50 11 -80 26z" />
    <glyph glyph-name="dieresis" unicode="&#xa8;" 
d="M413 590c-30 0 -53 23 -53 52c0 33 27 58 60 58c30 0 53 -23 53 -52c0 -33 -27 -58 -60 -58zM219 590c-30 0 -53 23 -53 52c0 33 27 58 60 58c30 0 53 -23 53 -52c0 -33 -27 -58 -60 -58z" />
    <glyph glyph-name="macron" unicode="&#xaf;" 
d="M176 611l12 68h273l-12 -68h-273z" />
    <glyph glyph-name="breve" unicode="&#x2d8;" 
d="M314 572c-72 0 -122 47 -122 119c0 10 1 20 3 29h57c-1 -6 -2 -13 -2 -21c0 -39 22 -71 71 -71c52 0 79 36 91 92h57c-15 -101 -82 -148 -155 -148z" />
    <glyph glyph-name="ring" unicode="&#x2da;" 
d="M316 551c-60 0 -109 41 -109 104c0 64 52 124 122 124c60 0 109 -41 109 -105s-52 -123 -122 -123zM318 601c35 0 67 29 67 70c0 29 -18 58 -58 58c-35 0 -67 -30 -67 -71c0 -28 18 -57 58 -57z" />
    <glyph glyph-name="hungarumlaut" unicode="&#x2dd;" 
d="M313 563l112 164h80l-132 -164h-60zM175 563l112 164h80l-132 -164h-60z" />
    <glyph glyph-name="dotaccent" unicode="&#x2d9;" 
d="M316 590c-30 0 -53 23 -53 52c0 33 27 58 60 58c30 0 53 -23 53 -52c0 -33 -27 -58 -60 -58z" />
    <glyph glyph-name="cedilla" unicode="&#xb8;" horiz-adv-x="497" 
d="M141 -81l57 114l42 -15l-31 -63c41 -13 72 -38 72 -83c0 -54 -44 -93 -105 -93c-30 0 -62 9 -90 28l24 48c17 -12 39 -25 66 -25c23 0 46 11 46 36c0 34 -50 48 -81 53z" />
    <glyph glyph-name="ogonek" unicode="&#x2db;" horiz-adv-x="497" 
d="M120 -139c0 68 58 128 125 165l65 -18c-50 -28 -113 -80 -113 -135c0 -26 18 -43 53 -43c9 0 21 1 30 3l-11 -61c-9 -1 -21 -3 -35 -3c-58 0 -114 28 -114 92z" />
    <glyph glyph-name="comma" unicode="," horiz-adv-x="292" 
d="M-12 -147l105 283h94l-133 -283h-66z" />
    <glyph glyph-name="semicolon" unicode=";" horiz-adv-x="292" 
d="M176 373c-36 0 -62 28 -62 62c0 38 31 68 69 68c36 0 63 -28 63 -62c0 -38 -32 -68 -70 -68zM-11 -147l105 283h93l-133 -283h-65z" />
    <glyph glyph-name="colon" unicode=":" horiz-adv-x="292" 
d="M176 373c-36 0 -62 28 -62 62c0 38 31 68 69 68c36 0 63 -28 63 -62c0 -38 -32 -68 -70 -68zM46 51c0 38 31 68 69 68c36 0 63 -28 63 -62c0 -38 -32 -68 -70 -68c-36 0 -62 28 -62 62z" />
    <glyph glyph-name="period" unicode="." horiz-adv-x="292" 
d="M45 52c0 38 32 69 70 69c37 0 63 -29 63 -63c0 -38 -32 -69 -70 -69c-37 0 -63 29 -63 63z" />
    <glyph glyph-name="ellipsis" unicode="&#x2026;" horiz-adv-x="810" 
d="M45 52c0 38 32 69 70 69c37 0 63 -29 63 -63c0 -38 -32 -69 -70 -69c-37 0 -63 29 -63 63zM304 52c0 38 32 69 70 69c37 0 63 -29 63 -63c0 -38 -32 -69 -70 -69c-37 0 -63 29 -63 63zM563 52c0 38 32 69 70 69c37 0 63 -29 63 -63c0 -38 -32 -69 -70 -69
c-37 0 -63 29 -63 63z" />
    <glyph glyph-name="hyphen" unicode="-" horiz-adv-x="346" 
d="M55 237l14 80h233l-14 -80h-233z" />
    <glyph glyph-name="hyphen.cap" horiz-adv-x="346" 
d="M70 321l14 80h233l-14 -80h-233z" />
    <glyph glyph-name="exclam" unicode="!" horiz-adv-x="304" 
d="M120 222l65 502h104l-113 -502h-56zM55 49c0 37 30 66 67 66c35 0 61 -27 61 -60c0 -37 -31 -66 -68 -66c-35 0 -60 27 -60 60z" />
    <glyph glyph-name="exclamdown" unicode="&#xa1;" horiz-adv-x="304" 
d="M251 443c0 -37 -30 -66 -67 -66c-35 0 -61 27 -61 60c0 37 31 66 68 66c35 0 60 -27 60 -60zM186 270l-65 -502h-104l113 502h56z" />
    <glyph glyph-name="exclamdown.cap" horiz-adv-x="304" 
d="M292 675c0 -37 -30 -66 -67 -66c-35 0 -61 27 -61 60c0 37 31 66 68 66c35 0 60 -27 60 -60zM227 502l-65 -502h-104l113 502h56z" />
    <glyph glyph-name="questiondown" unicode="&#xbf;" horiz-adv-x="476" 
d="M256 301h83l-32 -182c-115 0 -224 -42 -224 -146c0 -80 66 -128 146 -128c40 0 83 12 119 30l-17 -97c-31 -13 -69 -21 -107 -21c-127 0 -236 81 -236 210c0 128 104 214 241 228zM385 443c0 -37 -30 -66 -67 -66c-35 0 -61 27 -61 60c0 37 31 66 68 66
c35 0 60 -27 60 -60z" />
    <glyph glyph-name="questiondown.cap" horiz-adv-x="476" 
d="M297 534h83l-32 -182c-115 0 -224 -42 -224 -146c0 -80 66 -128 146 -128c40 0 83 12 119 30l-17 -97c-31 -13 -69 -21 -107 -21c-127 0 -236 81 -236 210c0 128 104 214 241 228zM426 676c0 -37 -30 -66 -67 -66c-35 0 -61 27 -61 60c0 37 31 66 68 66
c35 0 60 -27 60 -60z" />
    <glyph glyph-name="quoteleft" unicode="&#x2018;" horiz-adv-x="267" 
d="M94 473l130 269h61l-102 -269h-89z" />
    <glyph glyph-name="quoteright" unicode="&#x2019;" horiz-adv-x="267" 
d="M108 473l102 269h89l-130 -269h-61z" />
    <glyph glyph-name="quotedblright" unicode="&#x201d;" horiz-adv-x="428" 
d="M108 473l102 269h89l-130 -269h-61zM269 473l102 269h89l-130 -269h-61z" />
    <glyph glyph-name="guilsinglleft" unicode="&#x2039;" horiz-adv-x="341" 
d="M174 27l-129 232l197 206h83l-203 -213l126 -225h-74z" />
    <glyph glyph-name="guilsinglleft.cap" horiz-adv-x="341" 
d="M194 143l-129 232l197 206h83l-203 -213l126 -225h-74z" />
    <glyph glyph-name="guilsinglright" unicode="&#x203a;" horiz-adv-x="341" 
d="M16 27l203 213l-126 225h74l129 -232l-197 -206h-83z" />
    <glyph glyph-name="guilsinglright.cap" horiz-adv-x="341" 
d="M36 143l203 213l-126 225h74l129 -232l-197 -206h-83z" />
    <glyph glyph-name="guillemotleft" unicode="&#xab;" horiz-adv-x="543" 
d="M174 27l-129 232l197 206h83l-203 -213l126 -225h-74zM376 27l-129 232l197 206h83l-203 -213l126 -225h-74z" />
    <glyph glyph-name="guillemotleft.cap" horiz-adv-x="543" 
d="M194 143l-129 232l197 206h83l-203 -213l126 -225h-74zM397 143l-129 232l197 206h83l-203 -213l126 -225h-74z" />
    <glyph glyph-name="guillemotright" unicode="&#xbb;" horiz-adv-x="543" 
d="M16 27l203 213l-126 225h74l129 -232l-197 -206h-83zM218 27l203 213l-126 225h74l129 -232l-197 -206h-83z" />
    <glyph glyph-name="guillemotright.cap" horiz-adv-x="543" 
d="M36 143l203 213l-126 225h74l129 -232l-197 -206h-83zM239 143l203 213l-126 225h74l129 -232l-197 -206h-83z" />
    <glyph glyph-name="slash" unicode="/" horiz-adv-x="444" 
d="M38 -38h-78l487 800h78z" />
    <glyph glyph-name="bar" unicode="|" horiz-adv-x="317" 
d="M39 -220l180 1020h74l-180 -1020h-74z" />
    <glyph glyph-name="endash" unicode="&#x2013;" horiz-adv-x="489" 
d="M51 241l13 72h384l-13 -72h-384z" />
    <glyph glyph-name="endash.cap" horiz-adv-x="489" 
d="M66 325l13 72h384l-13 -72h-384z" />
    <glyph glyph-name="emdash" unicode="&#x2014;" horiz-adv-x="775" 
d="M37 246l11 62h700l-11 -62h-700z" />
    <glyph glyph-name="emdash.cap" horiz-adv-x="775" 
d="M52 330l11 62h700l-11 -62h-700z" />
    <glyph glyph-name="bullet" unicode="&#x2022;" horiz-adv-x="380" 
d="M199 188c-60 0 -109 49 -109 109s49 109 109 109s109 -49 109 -109s-49 -109 -109 -109z" />
    <glyph glyph-name="parenleft" unicode="(" horiz-adv-x="335" 
d="M73 116c0 117 22 244 70 365c45 113 104 198 165 262h96c-76 -74 -140 -174 -183 -282c-42 -106 -65 -222 -65 -340c0 -121 24 -237 74 -334h-82c-53 97 -75 211 -75 329z" />
    <glyph glyph-name="parenright" unicode=")" horiz-adv-x="335" 
d="M121 69c42 106 66 222 66 342c0 119 -24 235 -75 332h83c53 -97 75 -211 75 -327c0 -119 -22 -246 -70 -367c-43 -108 -101 -195 -165 -262h-97c76 74 140 174 183 282z" />
    <glyph glyph-name="parenleft.cap" horiz-adv-x="335" 
d="M90 213c0 117 22 244 70 365c45 113 104 198 165 262h96c-76 -74 -140 -174 -183 -282c-42 -106 -65 -222 -65 -340c0 -121 24 -237 74 -334h-82c-53 97 -75 211 -75 329z" />
    <glyph glyph-name="parenright.cap" horiz-adv-x="335" 
d="M138 166c42 106 66 222 66 342c0 119 -24 235 -75 332h83c53 -97 75 -211 75 -327c0 -119 -22 -246 -70 -367c-43 -108 -101 -195 -165 -262h-97c76 74 140 174 183 282z" />
    <glyph glyph-name="bracketleft" unicode="[" horiz-adv-x="328" 
d="M96 -141h132l-13 -72h-215l169 956h215l-13 -72h-132z" />
    <glyph glyph-name="bracketright" unicode="]" horiz-adv-x="328" 
d="M-36 -141h132l143 812h-132l13 72h215l-169 -956h-215z" />
    <glyph glyph-name="bracketleft.cap" horiz-adv-x="328" 
d="M113 -44h132l-13 -72h-215l169 956h215l-13 -72h-132z" />
    <glyph glyph-name="bracketright.cap" horiz-adv-x="328" 
d="M-19 -44h132l143 812h-132l13 72h215l-169 -956h-215z" />
    <glyph glyph-name="braceleft" unicode="{" horiz-adv-x="357" 
d="M82 -56l35 199c3 15 4 28 4 37c0 33 -14 49 -65 49h-28l13 72h34c61 0 74 26 84 81l39 220c17 97 65 152 159 152c25 0 49 -4 70 -10l-12 -69c-14 4 -34 7 -52 7c-48 0 -72 -22 -84 -93l-36 -205c-11 -61 -29 -104 -82 -118v-2c32 -13 44 -39 44 -74c0 -18 -3 -33 -6 -53
l-33 -189c-3 -16 -5 -31 -5 -43c0 -44 25 -57 66 -57c11 0 30 1 43 3l-13 -72c-11 -2 -27 -3 -42 -3c-86 0 -138 36 -138 117c0 16 2 33 5 51z" />
    <glyph glyph-name="braceright" unicode="}" horiz-adv-x="357" 
d="M85 -59l36 205c11 61 29 104 82 118v2c-32 13 -44 39 -44 74c0 18 3 33 6 53l33 189c3 16 5 31 5 43c0 44 -25 57 -66 57c-11 0 -30 -1 -43 -3l13 72c11 2 27 3 42 3c86 0 138 -36 138 -117c0 -16 -2 -33 -5 -51l-35 -199c-3 -15 -4 -28 -4 -37c0 -33 14 -49 65 -49h28
l-13 -72h-34c-61 0 -74 -26 -84 -81l-39 -220c-17 -97 -65 -152 -159 -152c-25 0 -49 4 -70 10l12 69c14 -4 34 -7 52 -7c48 0 72 22 84 93z" />
    <glyph glyph-name="braceleft.cap" horiz-adv-x="357" 
d="M99 41l35 199c3 15 4 28 4 37c0 33 -14 49 -65 49h-28l13 72h34c61 0 74 26 84 81l39 220c17 97 65 152 159 152c25 0 49 -4 70 -10l-12 -69c-14 4 -34 7 -52 7c-48 0 -72 -22 -84 -93l-36 -205c-11 -61 -29 -104 -82 -118v-2c32 -13 44 -39 44 -74c0 -18 -3 -33 -6 -53
l-33 -189c-3 -16 -5 -31 -5 -43c0 -44 25 -57 66 -57c11 0 30 1 43 3l-13 -72c-11 -2 -27 -3 -42 -3c-86 0 -138 36 -138 117c0 16 2 33 5 51z" />
    <glyph glyph-name="braceright.cap" horiz-adv-x="357" 
d="M102 38l36 205c11 61 29 104 82 118v2c-32 13 -44 39 -44 74c0 18 3 33 6 53l33 189c3 16 5 31 5 43c0 44 -25 57 -66 57c-11 0 -30 -1 -43 -3l13 72c11 2 27 3 42 3c86 0 138 -36 138 -117c0 -16 -2 -33 -5 -51l-35 -199c-3 -15 -4 -28 -4 -37c0 -33 14 -49 65 -49h28
l-13 -72h-34c-61 0 -74 -26 -84 -81l-39 -220c-17 -97 -65 -152 -159 -152c-25 0 -49 4 -70 10l12 69c14 -4 34 -7 52 -7c48 0 72 22 84 93z" />
    <glyph glyph-name="asterisk" unicode="*" horiz-adv-x="452" 
d="M264 576l14 152h67l-41 -152h-40zM322 524l-6 41l148 60l9 -66zM86 561l32 64l131 -56l-20 -40zM153 353l-46 43l124 116l29 -27zM331 353l-55 132l38 24l78 -118z" />
    <glyph glyph-name="dagger" unicode="&#x2020;" horiz-adv-x="600" 
d="M177 -220l111 630h-195l14 80h195l41 234h83l-41 -234h195l-14 -80h-195l-111 -630h-83z" />
    <glyph glyph-name="daggerdbl" unicode="&#x2021;" horiz-adv-x="600" 
d="M23 14l14 80h195l56 316h-195l14 80h195l41 234h83l-41 -234h195l-14 -80h-195l-56 -316h195l-14 -80h-194l-41 -234h-83l41 234h-196z" />
    <glyph glyph-name="section" unicode="&#xa7;" horiz-adv-x="558" 
d="M67 -19c43 -34 99 -56 152 -56c62 0 115 30 115 89c0 57 -49 79 -131 123c-77 41 -139 78 -139 165c0 78 50 132 126 158v2c-23 24 -40 55 -40 98c0 99 86 171 200 171c51 0 106 -15 152 -39l-15 -87c-40 26 -91 45 -137 45c-58 0 -110 -29 -110 -84s50 -77 129 -119
s143 -80 143 -170c0 -79 -49 -139 -122 -161v-2c22 -26 34 -54 34 -93c0 -108 -89 -177 -205 -177c-59 0 -120 18 -168 46zM340 368c-36 20 -47 24 -72 38c-55 -6 -117 -30 -117 -95c0 -44 29 -69 97 -104c19 -10 45 -23 73 -39c54 9 103 42 103 99c0 47 -32 72 -84 101z
" />
    <glyph glyph-name="paragraph" unicode="&#xb6;" horiz-adv-x="564" 
d="M152 -220l102 582c-88 5 -149 72 -149 158c0 102 93 204 203 204h238l-166 -944h-74l154 876h-80l-154 -876h-74z" />
    <glyph glyph-name="asciicircum" unicode="^" horiz-adv-x="567" 
d="M90 362l247 373h65l115 -373h-74l-88 275h-2l-187 -275h-76z" />
    <glyph glyph-name="asciitilde" unicode="~" horiz-adv-x="540" 
d="M273 325c-32 18 -56 33 -90 33c-47 0 -79 -31 -104 -64l-2 1l18 101c29 26 63 39 101 39c40 0 74 -15 111 -36c32 -18 56 -33 90 -33c47 0 79 31 104 64l2 -1l-18 -101c-29 -26 -63 -39 -101 -39c-40 0 -74 15 -111 36z" />
    <glyph glyph-name="brokenbar" unicode="&#xa6;" horiz-adv-x="317" 
d="M150 408l69 392h74l-69 -392h-74zM108 172h74l-69 -392h-74z" />
    <glyph glyph-name="backslash" unicode="\" horiz-adv-x="444" 
d="M299 -38l-184 800h71l184 -800h-71z" />
    <glyph glyph-name="underscore" unicode="_" horiz-adv-x="464" 
d="M-59 -90h464l-9 -52h-464z" />
    <glyph glyph-name="quotesingle" unicode="'" horiz-adv-x="188" 
d="M106 473l33 269h84l-62 -269h-55z" />
    <glyph glyph-name="quotedbl" unicode="&#x22;" horiz-adv-x="349" 
d="M106 473l33 269h84l-62 -269h-55zM267 473l33 269h84l-62 -269h-55z" />
    <glyph glyph-name="copyright" unicode="&#xa9;" horiz-adv-x="812" 
d="M57 362c0 209 158 373 370 373s370 -164 370 -373s-158 -373 -370 -373s-370 164 -370 373zM104 362c0 -183 133 -327 323 -327s323 144 323 327s-133 327 -323 327s-323 -144 -323 -327zM235 365c0 117 89 206 212 206c42 0 80 -11 110 -27v-66c-31 22 -71 36 -111 36
c-88 0 -148 -65 -148 -148c0 -84 61 -146 151 -146c44 0 84 16 114 41v-68c-32 -20 -77 -30 -117 -30c-123 0 -211 86 -211 202z" />
    <glyph glyph-name="Euro" unicode="&#x20ac;" horiz-adv-x="591" 
d="M40 411l13 73h85c61 146 189 251 357 251c47 0 93 -8 135 -23l-17 -95c-37 18 -78 30 -125 30c-105 0 -196 -61 -249 -163h199l-13 -73h-214c-8 -31 -14 -62 -14 -92h212l-13 -73h-193c23 -107 103 -169 219 -169c36 0 79 6 112 18l-17 -95c-28 -7 -68 -11 -102 -11
c-172 0 -288 100 -310 257h-94l13 73h78c1 30 5 61 13 92h-75z" />
    <glyph glyph-name="dollar" unicode="$" horiz-adv-x="561" 
d="M281 47l-22 -123h-74l22 128c-59 8 -116 31 -154 56l17 95c61 -42 137 -72 204 -72c64 0 127 24 127 91c0 57 -52 77 -130 110c-87 36 -159 70 -159 166c0 107 87 175 206 179l22 123h74l-23 -129c46 -8 92 -24 133 -46l-16 -92c-56 36 -126 59 -187 59
c-62 0 -116 -25 -116 -85c0 -57 55 -73 132 -105c90 -38 157 -76 157 -173c0 -114 -88 -177 -213 -182z" />
    <glyph glyph-name="sterling" unicode="&#xa3;" horiz-adv-x="564" 
d="M84 309l13 76h59c-4 36 -9 73 -9 106c0 152 102 244 253 244c61 0 120 -19 161 -46l-17 -94c-44 32 -97 51 -151 51c-98 0 -151 -60 -151 -153c0 -30 5 -69 10 -108h178l-13 -76h-160c0 -95 -36 -171 -95 -221v-2h330l-15 -86h-448l13 76c79 51 120 129 120 233h-78z" />
    <glyph glyph-name="yen" unicode="&#xa5;" horiz-adv-x="662" 
d="M121 405l13 73h110l-126 246h106l64 -128c26 -51 52 -104 76 -154h2c41 51 85 104 128 154l109 128h110l-212 -246h112l-13 -73h-162l-38 -44l-12 -69h192l-13 -73h-192l-38 -219h-95l38 219h-192l13 73h192l12 68l-23 45h-161z" />
    <glyph glyph-name="numbersign" unicode="#" horiz-adv-x="610" 
d="M29 0l103 223h-122l28 61h122l72 156h-122l28 61h122l103 223h65l-103 -223h129l103 223h65l-103 -223h122l-28 -61h-122l-72 -156h122l-28 -61h-122l-103 -223h-65l103 223h-129l-103 -223h-65zM225 284h129l72 156h-129z" />
    <glyph glyph-name="zero" unicode="0" horiz-adv-x="569" 
d="M256 -11c-127 0 -200 91 -200 248c0 88 23 226 71 330c43 93 110 167 225 167c128 0 201 -91 201 -249c0 -86 -22 -223 -71 -329c-43 -93 -111 -167 -226 -167zM262 75c68 0 109 50 138 116c35 80 58 194 58 284c0 100 -28 172 -111 172c-68 0 -109 -49 -138 -115
c-33 -75 -58 -190 -58 -284c0 -102 29 -173 111 -173z" />
    <glyph glyph-name="one" unicode="1" horiz-adv-x="499" 
d="M192 0l107 608l-177 -60l16 93l279 94l-130 -735h-95z" />
    <glyph glyph-name="two" unicode="2" horiz-adv-x="557" 
d="M-13 0l-1 2l277 278c101 101 166 176 166 258c0 71 -50 109 -124 109c-60 0 -119 -25 -166 -55l18 102c40 23 94 41 155 41c112 0 212 -60 212 -192c0 -105 -65 -191 -181 -307l-148 -148l1 -2h280l-15 -86h-474z" />
    <glyph glyph-name="three" unicode="3" horiz-adv-x="538" 
d="M13 59l18 102c58 -49 130 -84 200 -84c40 0 83 12 112 36c30 25 46 60 46 96c0 72 -68 112 -152 112h-69l15 84h72c58 0 104 20 131 49c20 21 33 50 33 84c0 70 -57 109 -129 109c-51 0 -109 -20 -150 -45l17 96c39 20 90 35 144 35c105 0 213 -57 213 -183
c0 -48 -16 -91 -41 -122c-23 -28 -54 -47 -95 -63v-2c60 -24 106 -73 106 -154c0 -69 -33 -125 -80 -162c-43 -34 -107 -58 -180 -58c-83 0 -159 31 -211 70z" />
    <glyph glyph-name="four" unicode="4" horiz-adv-x="631" 
d="M7 175l-1 2l463 547h93l-82 -465h130l-15 -84h-130l-31 -175h-95l31 175h-363zM181 259h204l28 159c9 51 19 103 29 153l-2 1c-34 -43 -70 -87 -105 -128l-155 -183z" />
    <glyph glyph-name="five" unicode="5" horiz-adv-x="549" 
d="M21 47l22 96c60 -40 127 -66 192 -66c45 0 89 12 119 38c27 24 42 57 42 94c0 61 -42 100 -109 124c-57 20 -122 26 -186 27l90 364h340l-21 -86h-246l-50 -205c56 -5 123 -20 172 -47c70 -38 105 -98 105 -173c0 -63 -25 -123 -78 -166c-46 -38 -110 -58 -182 -58
c-82 0 -156 25 -210 58z" />
    <glyph glyph-name="six" unicode="6" horiz-adv-x="588" 
d="M379 724h116l-228 -271c-10 -12 -23 -27 -30 -36l2 -2c23 14 53 22 84 22c119 0 215 -79 215 -203c0 -70 -30 -133 -78 -177c-47 -43 -112 -68 -183 -68c-120 0 -231 70 -231 223c0 103 61 185 130 268zM142 206c0 -73 52 -134 139 -134c42 0 85 15 117 46
c27 26 46 66 46 109c0 77 -58 130 -141 130c-44 0 -83 -16 -114 -44c-30 -28 -47 -66 -47 -107z" />
    <glyph glyph-name="seven" unicode="7" horiz-adv-x="535" 
d="M58 0l377 638h-324l15 86h461l1 -2l-427 -722h-103z" />
    <glyph glyph-name="eight" unicode="8" horiz-adv-x="614" 
d="M48 187c0 99 66 171 163 202v3c-50 30 -78 78 -78 138c0 61 29 114 79 152c42 32 99 53 164 53c113 0 213 -63 213 -179c0 -78 -45 -146 -133 -177v-2c63 -31 97 -91 97 -160s-34 -129 -85 -169c-48 -38 -111 -59 -182 -59c-131 0 -238 71 -238 198zM353 415
c41 0 80 15 107 40c23 22 39 51 39 87c0 70 -60 109 -128 109c-40 0 -76 -14 -102 -35c-27 -22 -45 -53 -45 -90c0 -69 61 -111 129 -111zM142 195c0 -74 59 -122 146 -122c52 0 94 17 121 40c30 26 49 63 49 103c0 74 -66 124 -148 124c-52 0 -98 -20 -127 -49
c-26 -26 -41 -59 -41 -96z" />
    <glyph glyph-name="nine" unicode="9" horiz-adv-x="577" 
d="M439 260l-216 -260h-117l242 287c5 6 9 11 12 15l-2 2c-19 -9 -43 -17 -75 -17c-101 0 -202 78 -202 205c0 67 28 131 79 177c48 43 112 66 178 66c119 0 231 -75 231 -210c0 -99 -61 -182 -130 -265zM312 368c46 0 85 18 113 45c35 33 48 72 48 107
c0 73 -57 130 -140 130c-43 0 -81 -15 -111 -43c-32 -30 -47 -68 -47 -108c0 -81 60 -131 137 -131z" />
    <glyph glyph-name="fraction" unicode="&#x2044;" horiz-adv-x="338" 
d="M-68 -13h-86l598 737h86z" />
    <glyph glyph-name="plus" unicode="+" horiz-adv-x="582" 
d="M231 116l37 210h-200l13 72h200l37 210h74l-37 -210h200l-13 -72h-200l-37 -210h-74z" />
    <glyph glyph-name="minus" unicode="&#x2212;" horiz-adv-x="582" 
d="M68 326l13 72h474l-13 -72h-474z" />
    <glyph glyph-name="plusminus" unicode="&#xb1;" horiz-adv-x="582" 
d="M252 238l32 180h-187l13 72h187l32 180h74l-32 -180h187l-13 -72h-187l-32 -180h-74zM37 78l13 72h448l-13 -72h-448z" />
    <glyph glyph-name="multiply" unicode="&#xd7;" horiz-adv-x="582" 
d="M121 152l-43 54l182 157l-126 157l58 52l127 -158l182 158l43 -54l-182 -157l126 -157l-58 -52l-127 158z" />
    <glyph glyph-name="divide" unicode="&#xf7;" horiz-adv-x="582" 
d="M345 520c-31 0 -53 24 -53 53c0 33 27 59 60 59c31 0 54 -24 54 -53c0 -33 -28 -59 -61 -59zM68 326l13 72h474l-13 -72h-474zM217 145c0 33 27 59 60 59c31 0 54 -24 54 -53c0 -33 -28 -59 -61 -59c-31 0 -53 24 -53 53z" />
    <glyph glyph-name="equal" unicode="=" horiz-adv-x="582" 
d="M86 428l13 72h474l-13 -72h-474zM50 224l13 72h474l-13 -72h-474z" />
    <glyph glyph-name="notequal" unicode="&#x2260;" horiz-adv-x="582" 
d="M86 428l13 72h309l136 142l37 -35l-102 -107h94l-13 -72h-150l-126 -132h253l-13 -72h-309l-136 -142l-37 35l102 107h-94l13 72h150l126 132h-253z" />
    <glyph glyph-name="approxequal" unicode="&#x2248;" horiz-adv-x="582" 
d="M116 390l-13 58c29 41 74 72 125 72c81 0 142 -55 208 -55c46 0 76 23 104 59l13 -58c-29 -41 -74 -72 -125 -72c-81 0 -142 55 -208 55c-46 0 -76 -23 -104 -59zM82 200l-13 58c29 41 74 72 125 72c81 0 142 -55 208 -55c46 0 76 23 104 59l13 -58
c-29 -41 -74 -72 -125 -72c-81 0 -142 55 -208 55c-46 0 -76 -23 -104 -59z" />
    <glyph glyph-name="less" unicode="&#x3c;" horiz-adv-x="677" 
d="M104 336l9 52l540 216l-14 -78l-411 -164v-2l353 -164l-13 -76z" />
    <glyph glyph-name="greater" unicode="&#x3e;" horiz-adv-x="677" 
d="M66 120l14 78l411 164v2l-353 164l13 76l464 -216l-9 -52z" />
    <glyph glyph-name="logicalnot" unicode="&#xac;" horiz-adv-x="581" 
d="M68 326l13 72h471l-50 -282h-74l37 210h-397z" />
    <glyph glyph-name="uni00AD" unicode="&#xad;" horiz-adv-x="346" 
d="M55 237l14 80h233l-14 -80h-233z" />
    <glyph glyph-name="Delta" unicode="&#x2206;" horiz-adv-x="699" 
d="M36 0v61l272 663h96l272 -663v-61h-640zM141 86h427l-133 329c-27 66 -54 134 -79 199h-2c-27 -69 -54 -137 -82 -206z" />
    <glyph glyph-name="Omega" unicode="&#x2126;" horiz-adv-x="754" 
d="M388 647c-149 0 -235 -109 -235 -256c0 -127 64 -240 164 -327v-64h-282v86h158l1 2c-84 85 -136 197 -136 315c0 187 132 332 330 332s330 -145 330 -332c0 -118 -52 -230 -136 -315l1 -2h158v-86h-282v64c100 87 164 200 164 327c0 147 -86 256 -235 256z" />
    <glyph glyph-name="pi" unicode="&#x3c0;" horiz-adv-x="650" 
d="M143 0c25 137 33 268 34 406c-50 -6 -90 -23 -128 -43v80c45 30 116 49 189 49h414l-14 -81h-97v-411h-90v411h-184c-1 -138 -10 -276 -33 -411h-91z" />
    <glyph glyph-name="degree" unicode="&#xb0;" horiz-adv-x="344" 
d="M232 441c-87 0 -150 65 -150 147s63 147 150 147s150 -65 150 -147s-63 -147 -150 -147zM232 488c59 0 102 46 102 100s-43 100 -102 100s-102 -46 -102 -100s43 -100 102 -100z" />
    <glyph glyph-name="infinity" unicode="&#x221e;" horiz-adv-x="761" 
d="M213 136c68 0 103 55 133 114c-29 64 -65 118 -133 118c-64 0 -101 -49 -101 -116c0 -65 36 -116 101 -116zM40 252c0 100 63 187 172 187c88 0 138 -60 173 -121h2c38 70 90 121 169 121c104 0 171 -85 171 -187c0 -100 -63 -187 -172 -187c-88 0 -138 60 -173 121h-2
c-38 -70 -90 -121 -169 -121c-104 0 -171 85 -171 187zM554 368c-68 0 -103 -55 -133 -114c29 -64 65 -118 133 -118c64 0 101 49 101 116c0 65 -36 116 -101 116z" />
    <glyph glyph-name="partialdiff" unicode="&#x2202;" horiz-adv-x="569" 
d="M54 212c0 129 86 244 233 244c66 0 121 -25 164 -58l2 1c-4 122 -33 298 -177 298c-44 0 -97 -17 -131 -37v83c34 17 91 36 149 36c186 0 250 -189 250 -395c0 -225 -77 -395 -265 -395c-142 0 -225 96 -225 223zM144 214c0 -84 53 -143 138 -143c110 0 159 99 169 237
c-35 36 -89 68 -155 68c-102 0 -152 -82 -152 -162z" />
    <glyph glyph-name="radical" unicode="&#x221a;" horiz-adv-x="674" 
d="M374 41h2c20 62 42 127 64 190l224 647h77l-346 -994h-37l-209 523l-100 -41l-25 62l170 71l107 -270c24 -62 49 -124 73 -188z" />
    <glyph glyph-name="summation" unicode="&#x2211;" horiz-adv-x="618" 
d="M79 -53l229 380l-221 334v63h484v-86h-364l204 -308l-217 -360h393v-86h-508v63z" />
    <glyph glyph-name="product" unicode="&#x220f;" horiz-adv-x="786" 
d="M184 -116v754h-118v86h718v-86h-118v-754h-95v754h-292v-754h-95z" />
    <glyph glyph-name="lozenge" unicode="&#x25ca;" horiz-adv-x="537" 
d="M258 -19l-185 379l185 378h56l185 -379l-185 -378h-56zM285 73h2l139 286l-139 287h-2l-139 -286z" />
    <glyph glyph-name="percent" unicode="%" horiz-adv-x="921" 
d="M260 361c-95 0 -160 71 -160 166c0 99 71 208 187 208c95 0 160 -71 160 -166c0 -99 -71 -208 -187 -208zM132 0l626 724h75l-626 -724h-75zM262 423c71 0 120 72 120 142c0 54 -34 108 -97 108c-71 0 -120 -72 -120 -142c0 -54 34 -108 97 -108zM518 155
c0 99 71 208 187 208c95 0 160 -71 160 -166c0 -99 -71 -208 -187 -208c-95 0 -160 71 -160 166zM583 159c0 -54 34 -108 97 -108c71 0 120 72 120 142c0 54 -34 108 -97 108c-71 0 -120 -72 -120 -142z" />
    <glyph glyph-name="o" unicode="o" horiz-adv-x="592" 
d="M44 216c0 73 28 151 81 207c48 50 114 80 191 80c134 0 232 -90 232 -227c0 -73 -28 -151 -81 -207c-48 -50 -114 -80 -191 -80c-134 0 -232 90 -232 227zM134 222c0 -85 53 -151 148 -151c48 0 89 18 120 51c35 37 56 94 56 148c0 85 -53 151 -148 151
c-48 0 -89 -18 -120 -51c-35 -37 -56 -94 -56 -148z" />
    <glyph glyph-name="uni021A" unicode="&#x21a;" horiz-adv-x="644" 
d="M232 0l112 638h-238l15 86h571l-15 -86h-238l-112 -638h-95zM231 -54h90l-115 -218h-68z" />
    <glyph glyph-name="T" unicode="T" horiz-adv-x="644" 
d="M232 0l112 638h-238l15 86h571l-15 -86h-238l-112 -638h-95z" />
    <glyph glyph-name="B" unicode="B" horiz-adv-x="626" 
d="M37 0l128 724h195c84 0 139 -14 178 -41c42 -29 67 -75 67 -131c0 -79 -49 -149 -140 -179v-2c65 -22 111 -75 111 -150c0 -61 -30 -122 -81 -162c-48 -37 -115 -59 -217 -59h-241zM204 408h153c73 0 153 34 153 122c0 35 -13 62 -40 81c-25 18 -60 27 -120 27h-105z
M147 86h149c68 0 114 13 145 41c25 23 40 56 40 93c0 72 -59 115 -154 115h-136z" />
    <glyph glyph-name="Agrave" unicode="&#xc0;" horiz-adv-x="685" 
d="M-39 0l419 724h93l164 -724h-98l-44 202h-318l-115 -202h-101zM304 427l-80 -142h253l-29 131c-14 65 -28 132 -40 195h-2c-33 -61 -68 -123 -102 -184zM438 795l-81 164h100l48 -164h-67z" />
    <glyph glyph-name="Aacute" unicode="&#xc1;" horiz-adv-x="685" 
d="M-39 0l419 724h93l164 -724h-98l-44 202h-318l-115 -202h-101zM304 427l-80 -142h253l-29 131c-14 65 -28 132 -40 195h-2c-33 -61 -68 -123 -102 -184zM582 959l-139 -164h-69l106 164h102z" />
    <glyph glyph-name="Acircumflex" unicode="&#xc2;" horiz-adv-x="685" 
d="M-39 0l419 724h93l164 -724h-98l-44 202h-318l-115 -202h-101zM304 427l-80 -142h253l-29 131c-14 65 -28 132 -40 195h-2c-33 -61 -68 -123 -102 -184zM278 795l142 164h96l84 -164h-71l-70 105l-102 -105h-79z" />
    <glyph glyph-name="Atilde" unicode="&#xc3;" horiz-adv-x="685" 
d="M-39 0l419 724h93l164 -724h-98l-44 202h-318l-115 -202h-101zM304 427l-80 -142h253l-29 131c-14 65 -28 132 -40 195h-2c-33 -61 -68 -123 -102 -184zM440 844c-26 13 -45 21 -68 21c-36 0 -62 -25 -80 -49l-2 1l15 85c18 20 47 37 83 37c26 0 50 -11 80 -26
c26 -13 45 -21 68 -21c36 0 62 25 80 49l2 -1l-15 -85c-18 -20 -47 -37 -83 -37c-26 0 -50 11 -80 26z" />
    <glyph glyph-name="Adieresis" unicode="&#xc4;" horiz-adv-x="685" 
d="M-39 0l419 724h93l164 -724h-98l-44 202h-318l-115 -202h-101zM304 427l-80 -142h253l-29 131c-14 65 -28 132 -40 195h-2c-33 -61 -68 -123 -102 -184zM548 822c-30 0 -53 23 -53 52c0 33 27 58 60 58c30 0 53 -23 53 -52c0 -33 -27 -58 -60 -58zM354 822
c-30 0 -53 23 -53 52c0 33 27 58 60 58c30 0 53 -23 53 -52c0 -33 -27 -58 -60 -58z" />
    <glyph glyph-name="Amacron" unicode="&#x100;" horiz-adv-x="685" 
d="M-39 0l419 724h93l164 -724h-98l-44 202h-318l-115 -202h-101zM304 427l-80 -142h253l-29 131c-14 65 -28 132 -40 195h-2c-33 -61 -68 -123 -102 -184zM311 843l12 68h273l-12 -68h-273z" />
    <glyph glyph-name="Abreve" unicode="&#x102;" horiz-adv-x="685" 
d="M-39 0l419 724h93l164 -724h-98l-44 202h-318l-115 -202h-101zM304 427l-80 -142h253l-29 131c-14 65 -28 132 -40 195h-2c-33 -61 -68 -123 -102 -184zM449 804c-72 0 -122 47 -122 119c0 10 1 20 3 29h57c-1 -6 -2 -13 -2 -21c0 -39 22 -71 71 -71c52 0 79 36 91 92h57
c-15 -101 -82 -148 -155 -148z" />
    <glyph glyph-name="Aring" unicode="&#xc5;" horiz-adv-x="685" 
d="M-39 0l419 724h93l164 -724h-98l-44 202h-318l-115 -202h-101zM304 427l-80 -142h253l-29 131c-14 65 -28 132 -40 195h-2c-33 -61 -68 -123 -102 -184zM451 783c-60 0 -109 41 -109 104c0 64 52 124 122 124c60 0 109 -41 109 -105s-52 -123 -122 -123zM453 833
c35 0 67 29 67 70c0 29 -18 58 -58 58c-35 0 -67 -30 -67 -71c0 -28 18 -57 58 -57z" />
    <glyph glyph-name="Aogonek" unicode="&#x104;" horiz-adv-x="685" 
d="M-39 0l419 724h93l164 -724c-63 -28 -117 -77 -117 -128c0 -26 17 -43 52 -43c10 0 21 1 30 3l-10 -60c-10 -2 -22 -3 -34 -3c-59 0 -115 28 -115 92c0 58 41 109 94 145l-42 196h-318l-115 -202h-101zM304 427l-80 -142h253l-29 131c-14 65 -28 132 -40 195h-2
c-33 -61 -68 -123 -102 -184z" />
    <glyph glyph-name="Cacute" unicode="&#x106;" horiz-adv-x="665" 
d="M62 306c0 108 41 227 127 313c77 77 179 116 287 116c81 0 154 -22 204 -51l-17 -95c-53 35 -119 58 -191 58c-86 0 -162 -32 -216 -86c-64 -63 -99 -158 -99 -246c0 -148 98 -238 259 -238c64 0 127 14 182 43l-18 -103c-51 -18 -112 -28 -171 -28
c-203 0 -347 115 -347 317zM672 959l-139 -164h-69l106 164h102z" />
    <glyph glyph-name="Ccircumflex" unicode="&#x108;" horiz-adv-x="665" 
d="M62 306c0 108 41 227 127 313c77 77 179 116 287 116c81 0 154 -22 204 -51l-17 -95c-53 35 -119 58 -191 58c-86 0 -162 -32 -216 -86c-64 -63 -99 -158 -99 -246c0 -148 98 -238 259 -238c64 0 127 14 182 43l-18 -103c-51 -18 -112 -28 -171 -28
c-203 0 -347 115 -347 317zM318 795l142 164h96l84 -164h-71l-70 105l-102 -105h-79z" />
    <glyph glyph-name="Ccaron" unicode="&#x10c;" horiz-adv-x="665" 
d="M62 306c0 108 41 227 127 313c77 77 179 116 287 116c81 0 154 -22 204 -51l-17 -95c-53 35 -119 58 -191 58c-86 0 -162 -32 -216 -86c-64 -63 -99 -158 -99 -246c0 -148 98 -238 259 -238c64 0 127 14 182 43l-18 -103c-51 -18 -112 -28 -171 -28
c-203 0 -347 115 -347 317zM669 959l-142 -164h-96l-84 164h71l70 -105l102 105h79z" />
    <glyph glyph-name="Cdotaccent" unicode="&#x10a;" horiz-adv-x="665" 
d="M62 306c0 108 41 227 127 313c77 77 179 116 287 116c81 0 154 -22 204 -51l-17 -95c-53 35 -119 58 -191 58c-86 0 -162 -32 -216 -86c-64 -63 -99 -158 -99 -246c0 -148 98 -238 259 -238c64 0 127 14 182 43l-18 -103c-51 -18 -112 -28 -171 -28
c-203 0 -347 115 -347 317zM491 822c-30 0 -53 23 -53 52c0 33 27 58 60 58c30 0 53 -23 53 -52c0 -33 -27 -58 -60 -58z" />
    <glyph glyph-name="Ccedilla" unicode="&#xc7;" horiz-adv-x="665" 
d="M291 -81l38 77c-160 26 -267 136 -267 310c0 108 41 227 127 313c77 77 179 116 287 116c81 0 154 -22 204 -51l-17 -95c-53 35 -119 58 -191 58c-86 0 -162 -32 -216 -86c-64 -63 -99 -158 -99 -246c0 -148 98 -238 259 -238c64 0 127 14 182 43l-18 -103
c-51 -18 -112 -28 -171 -28c-11 0 -22 0 -33 1l-17 -35c41 -13 72 -38 72 -83c0 -54 -44 -93 -105 -93c-30 0 -62 9 -90 28l24 48c17 -12 39 -25 66 -25c23 0 46 11 46 36c0 34 -50 48 -81 53z" />
    <glyph glyph-name="Dcaron" unicode="&#x10e;" horiz-adv-x="727" 
d="M37 0l128 724h177c119 0 206 -34 266 -88c65 -58 101 -140 101 -236s-36 -203 -115 -282c-75 -74 -182 -118 -323 -118h-234zM147 86h131c121 0 202 40 254 96c53 57 82 137 82 211c0 66 -23 131 -72 176c-46 42 -114 69 -212 69h-85zM620 959l-142 -164h-96l-84 164h71
l70 -105l102 105h79z" />
    <glyph glyph-name="Dcroat" unicode="&#x110;" horiz-adv-x="736" 
d="M23 330l14 78h81l56 316h177c119 0 206 -34 266 -88c65 -58 101 -140 101 -236s-36 -203 -115 -282c-75 -74 -182 -118 -323 -118h-234l58 330h-81zM156 86h131c121 0 202 40 254 96c53 57 82 137 82 211c0 66 -23 131 -72 176c-46 42 -114 69 -212 69h-85l-41 -230h160
l-14 -78h-160z" />
    <glyph glyph-name="Egrave" unicode="&#xc8;" horiz-adv-x="549" 
d="M37 0l128 724h413l-15 -86h-318l-39 -220h276l-15 -83h-276l-44 -249h327l-15 -86h-422zM384 795l-81 164h100l48 -164h-67z" />
    <glyph glyph-name="Eacute" unicode="&#xc9;" horiz-adv-x="549" 
d="M37 0l128 724h413l-15 -86h-318l-39 -220h276l-15 -83h-276l-44 -249h327l-15 -86h-422zM528 959l-139 -164h-69l106 164h102z" />
    <glyph glyph-name="Ecircumflex" unicode="&#xca;" horiz-adv-x="549" 
d="M37 0l128 724h413l-15 -86h-318l-39 -220h276l-15 -83h-276l-44 -249h327l-15 -86h-422zM224 795l142 164h96l84 -164h-71l-70 105l-102 -105h-79z" />
    <glyph glyph-name="Ecaron" unicode="&#x11a;" horiz-adv-x="549" 
d="M37 0l128 724h413l-15 -86h-318l-39 -220h276l-15 -83h-276l-44 -249h327l-15 -86h-422zM575 959l-142 -164h-96l-84 164h71l70 -105l102 105h79z" />
    <glyph glyph-name="Edieresis" unicode="&#xcb;" horiz-adv-x="549" 
d="M37 0l128 724h413l-15 -86h-318l-39 -220h276l-15 -83h-276l-44 -249h327l-15 -86h-422zM494 822c-30 0 -53 23 -53 52c0 33 27 58 60 58c30 0 53 -23 53 -52c0 -33 -27 -58 -60 -58zM300 822c-30 0 -53 23 -53 52c0 33 27 58 60 58c30 0 53 -23 53 -52
c0 -33 -27 -58 -60 -58z" />
    <glyph glyph-name="Emacron" unicode="&#x112;" horiz-adv-x="549" 
d="M37 0l128 724h413l-15 -86h-318l-39 -220h276l-15 -83h-276l-44 -249h327l-15 -86h-422zM257 843l12 68h273l-12 -68h-273z" />
    <glyph glyph-name="Ebreve" unicode="&#x114;" horiz-adv-x="549" 
d="M37 0l128 724h413l-15 -86h-318l-39 -220h276l-15 -83h-276l-44 -249h327l-15 -86h-422zM395 804c-72 0 -122 47 -122 119c0 10 1 20 3 29h57c-1 -6 -2 -13 -2 -21c0 -39 22 -71 71 -71c52 0 79 36 91 92h57c-15 -101 -82 -148 -155 -148z" />
    <glyph glyph-name="Edotaccent" unicode="&#x116;" horiz-adv-x="549" 
d="M37 0l128 724h413l-15 -86h-318l-39 -220h276l-15 -83h-276l-44 -249h327l-15 -86h-422zM397 822c-30 0 -53 23 -53 52c0 33 27 58 60 58c30 0 53 -23 53 -52c0 -33 -27 -58 -60 -58z" />
    <glyph glyph-name="Eogonek" unicode="&#x118;" horiz-adv-x="549" 
d="M37 0l128 724h413l-15 -86h-318l-39 -220h276l-15 -83h-276l-44 -249h327l-15 -86c-60 -29 -113 -77 -113 -127c0 -26 18 -43 53 -43c9 0 21 1 30 3l-11 -61c-9 -1 -21 -3 -35 -3c-58 0 -114 28 -114 92c0 54 36 103 85 137l-1 2h-316z" />
    <glyph glyph-name="Gcircumflex" unicode="&#x11c;" horiz-adv-x="721" 
d="M61 307c0 114 45 235 135 320c75 71 173 108 277 108c88 0 171 -26 228 -63l-17 -95c-56 40 -132 70 -214 70c-86 0 -158 -33 -209 -81c-68 -64 -105 -157 -105 -249c0 -143 90 -242 247 -242c48 0 92 9 125 22l32 181h-159l15 83h254l-58 -327
c-58 -27 -138 -45 -215 -45c-196 0 -336 117 -336 318zM334 795l142 164h96l84 -164h-71l-70 105l-102 -105h-79z" />
    <glyph glyph-name="Gbreve" unicode="&#x11e;" horiz-adv-x="721" 
d="M61 307c0 114 45 235 135 320c75 71 173 108 277 108c88 0 171 -26 228 -63l-17 -95c-56 40 -132 70 -214 70c-86 0 -158 -33 -209 -81c-68 -64 -105 -157 -105 -249c0 -143 90 -242 247 -242c48 0 92 9 125 22l32 181h-159l15 83h254l-58 -327
c-58 -27 -138 -45 -215 -45c-196 0 -336 117 -336 318zM505 804c-72 0 -122 47 -122 119c0 10 1 20 3 29h57c-1 -6 -2 -13 -2 -21c0 -39 22 -71 71 -71c52 0 79 36 91 92h57c-15 -101 -82 -148 -155 -148z" />
    <glyph glyph-name="Gdotaccent" unicode="&#x120;" horiz-adv-x="721" 
d="M61 307c0 114 45 235 135 320c75 71 173 108 277 108c88 0 171 -26 228 -63l-17 -95c-56 40 -132 70 -214 70c-86 0 -158 -33 -209 -81c-68 -64 -105 -157 -105 -249c0 -143 90 -242 247 -242c48 0 92 9 125 22l32 181h-159l15 83h254l-58 -327
c-58 -27 -138 -45 -215 -45c-196 0 -336 117 -336 318zM507 822c-30 0 -53 23 -53 52c0 33 27 58 60 58c30 0 53 -23 53 -52c0 -33 -27 -58 -60 -58z" />
    <glyph glyph-name="Gcommaaccent" unicode="&#x122;" horiz-adv-x="721" 
d="M61 307c0 114 45 235 135 320c75 71 173 108 277 108c88 0 171 -26 228 -63l-17 -95c-56 40 -132 70 -214 70c-86 0 -158 -33 -209 -81c-68 -64 -105 -157 -105 -249c0 -143 90 -242 247 -242c48 0 92 9 125 22l32 181h-159l15 83h254l-58 -327
c-58 -27 -138 -45 -215 -45c-196 0 -336 117 -336 318zM307 -54h90l-115 -218h-68z" />
    <glyph glyph-name="Hcircumflex" unicode="&#x124;" horiz-adv-x="735" 
d="M37 0l128 724h95l-54 -305h384l54 305h95l-128 -724h-95l59 333h-384l-59 -333h-95zM303 795l142 164h96l84 -164h-71l-70 105l-102 -105h-79z" />
    <glyph glyph-name="H" unicode="H" horiz-adv-x="735" 
d="M37 0l128 724h95l-54 -305h384l54 305h95l-128 -724h-95l59 333h-384l-59 -333h-95z" />
    <glyph glyph-name="Hbar" unicode="&#x126;" horiz-adv-x="747" 
d="M56 532l14 78h81l20 114h95l-20 -114h384l20 114h95l-20 -114h81l-14 -78h-81l-94 -532h-95l59 333h-384l-59 -333h-95l94 532h-81zM212 419h384l20 113h-384z" />
    <glyph glyph-name="Igrave" unicode="&#xcc;" horiz-adv-x="256" 
d="M37 0l128 724h95l-128 -724h-95zM224 795l-81 164h100l48 -164h-67z" />
    <glyph glyph-name="Iacute" unicode="&#xcd;" horiz-adv-x="256" 
d="M37 0l128 724h95l-128 -724h-95zM368 959l-139 -164h-69l106 164h102z" />
    <glyph glyph-name="Icircumflex" unicode="&#xce;" horiz-adv-x="256" 
d="M37 0l128 724h95l-128 -724h-95zM64 795l142 164h96l84 -164h-71l-70 105l-102 -105h-79z" />
    <glyph glyph-name="Itilde" unicode="&#x128;" horiz-adv-x="256" 
d="M37 0l128 724h95l-128 -724h-95zM226 844c-26 13 -45 21 -68 21c-36 0 -62 -25 -80 -49l-2 1l15 85c18 20 47 37 83 37c26 0 50 -11 80 -26c26 -13 45 -21 68 -21c36 0 62 25 80 49l2 -1l-15 -85c-18 -20 -47 -37 -83 -37c-26 0 -50 11 -80 26z" />
    <glyph glyph-name="Idieresis" unicode="&#xcf;" horiz-adv-x="256" 
d="M37 0l128 724h95l-128 -724h-95zM334 822c-30 0 -53 23 -53 52c0 33 27 58 60 58c30 0 53 -23 53 -52c0 -33 -27 -58 -60 -58zM140 822c-30 0 -53 23 -53 52c0 33 27 58 60 58c30 0 53 -23 53 -52c0 -33 -27 -58 -60 -58z" />
    <glyph glyph-name="Imacron" unicode="&#x12a;" horiz-adv-x="256" 
d="M37 0l128 724h95l-128 -724h-95zM97 843l12 68h273l-12 -68h-273z" />
    <glyph glyph-name="Ibreve" unicode="&#x12c;" horiz-adv-x="256" 
d="M37 0l128 724h95l-128 -724h-95zM235 804c-72 0 -122 47 -122 119c0 10 1 20 3 29h57c-1 -6 -2 -13 -2 -21c0 -39 22 -71 71 -71c52 0 79 36 91 92h57c-15 -101 -82 -148 -155 -148z" />
    <glyph glyph-name="Idotaccent" unicode="&#x130;" horiz-adv-x="256" 
d="M37 0l128 724h95l-128 -724h-95zM237 822c-30 0 -53 23 -53 52c0 33 27 58 60 58c30 0 53 -23 53 -52c0 -33 -27 -58 -60 -58z" />
    <glyph glyph-name="Iogonek" unicode="&#x12e;" horiz-adv-x="256" 
d="M37 0l128 724h95l-128 -724c-46 -32 -91 -77 -91 -124c0 -29 19 -47 54 -47c8 0 23 2 33 4l-11 -60c-11 -2 -24 -4 -38 -4c-61 0 -115 32 -115 95c0 51 32 100 73 136z" />
    <glyph glyph-name="Jcircumflex" unicode="&#x134;" horiz-adv-x="387" 
d="M204 201l92 523h95l-94 -535c-12 -70 -31 -109 -55 -138c-36 -43 -87 -62 -144 -62c-42 0 -83 11 -115 25l16 92c31 -16 67 -29 100 -29c73 0 92 51 105 124zM196 795l142 164h96l84 -164h-71l-70 105l-102 -105h-79z" />
    <glyph glyph-name="J" unicode="J" horiz-adv-x="387" 
d="M204 201l92 523h95l-94 -535c-12 -70 -31 -109 -55 -138c-36 -43 -87 -62 -144 -62c-42 0 -83 11 -115 25l16 92c31 -16 67 -29 100 -29c73 0 92 51 105 124z" />
    <glyph glyph-name="Kcommaaccent" unicode="&#x136;" horiz-adv-x="626" 
d="M37 0l128 724h95l-57 -320l2 -1l364 321h121l-382 -336l270 -388h-114l-263 381h-2l-67 -381h-95zM222 -54h90l-115 -218h-68z" />
    <glyph glyph-name="Lacute" unicode="&#x139;" horiz-adv-x="541" 
d="M37 0l128 724h95l-112 -638h341l-15 -86h-437zM391 959l-139 -164h-69l106 164h102z" />
    <glyph glyph-name="L" unicode="L" horiz-adv-x="541" 
d="M37 0l128 724h95l-112 -638h341l-15 -86h-437z" />
    <glyph glyph-name="Lcaron" unicode="&#x13d;" horiz-adv-x="541" 
d="M37 0l128 724h95l-112 -638h341l-15 -86h-437zM331 511l102 269h89l-130 -269h-61z" />
    <glyph glyph-name="Lcommaaccent" unicode="&#x13b;" horiz-adv-x="541" 
d="M37 0l128 724h95l-112 -638h341l-15 -86h-437zM199 -54h90l-115 -218h-68z" />
    <glyph glyph-name="Lslash" unicode="&#x141;" horiz-adv-x="548" 
d="M-7 218l15 86l100 57l64 363h95l-53 -302l132 76l-15 -86l-132 -76l-44 -250h341l-15 -86h-437l48 275z" />
    <glyph glyph-name="Ldot" unicode="&#x13f;" horiz-adv-x="541" 
d="M37 0l128 724h95l-112 -638h341l-15 -86h-437zM353 387c0 38 32 69 70 69c37 0 63 -29 63 -63c0 -38 -32 -69 -70 -69c-37 0 -63 29 -63 63z" />
    <glyph glyph-name="Nacute" unicode="&#x143;" horiz-adv-x="762" 
d="M129 0h-92l128 724h87l210 -379c34 -61 78 -142 110 -203l2 1c11 72 24 149 37 223l63 358h92l-128 -724h-87l-210 379c-34 61 -78 142 -110 203l-2 -1c-11 -72 -24 -149 -37 -223zM621 959l-139 -164h-69l106 164h102z" />
    <glyph glyph-name="N" unicode="N" horiz-adv-x="762" 
d="M129 0h-92l128 724h87l210 -379c34 -61 78 -142 110 -203l2 1c11 72 24 149 37 223l63 358h92l-128 -724h-87l-210 379c-34 61 -78 142 -110 203l-2 -1c-11 -72 -24 -149 -37 -223z" />
    <glyph glyph-name="Ograve" unicode="&#xd2;" horiz-adv-x="798" 
d="M62 324c0 99 34 200 98 277c67 81 166 134 285 134c185 0 331 -130 331 -335c0 -99 -34 -200 -98 -277c-67 -81 -166 -134 -285 -134c-185 0 -331 130 -331 335zM157 331c0 -142 93 -254 240 -254c84 0 156 36 208 100c47 58 76 137 76 216c0 142 -93 254 -240 254
c-84 0 -156 -36 -208 -100c-47 -58 -76 -137 -76 -216zM495 795l-81 164h100l48 -164h-67z" />
    <glyph glyph-name="Oacute" unicode="&#xd3;" horiz-adv-x="798" 
d="M62 324c0 99 34 200 98 277c67 81 166 134 285 134c185 0 331 -130 331 -335c0 -99 -34 -200 -98 -277c-67 -81 -166 -134 -285 -134c-185 0 -331 130 -331 335zM157 331c0 -142 93 -254 240 -254c84 0 156 36 208 100c47 58 76 137 76 216c0 142 -93 254 -240 254
c-84 0 -156 -36 -208 -100c-47 -58 -76 -137 -76 -216zM639 959l-139 -164h-69l106 164h102z" />
    <glyph glyph-name="Ocircumflex" unicode="&#xd4;" horiz-adv-x="798" 
d="M62 324c0 99 34 200 98 277c67 81 166 134 285 134c185 0 331 -130 331 -335c0 -99 -34 -200 -98 -277c-67 -81 -166 -134 -285 -134c-185 0 -331 130 -331 335zM157 331c0 -142 93 -254 240 -254c84 0 156 36 208 100c47 58 76 137 76 216c0 142 -93 254 -240 254
c-84 0 -156 -36 -208 -100c-47 -58 -76 -137 -76 -216zM335 795l142 164h96l84 -164h-71l-70 105l-102 -105h-79z" />
    <glyph glyph-name="Otilde" unicode="&#xd5;" horiz-adv-x="798" 
d="M62 324c0 99 34 200 98 277c67 81 166 134 285 134c185 0 331 -130 331 -335c0 -99 -34 -200 -98 -277c-67 -81 -166 -134 -285 -134c-185 0 -331 130 -331 335zM157 331c0 -142 93 -254 240 -254c84 0 156 36 208 100c47 58 76 137 76 216c0 142 -93 254 -240 254
c-84 0 -156 -36 -208 -100c-47 -58 -76 -137 -76 -216zM497 844c-26 13 -45 21 -68 21c-36 0 -62 -25 -80 -49l-2 1l15 85c18 20 47 37 83 37c26 0 50 -11 80 -26c26 -13 45 -21 68 -21c36 0 62 25 80 49l2 -1l-15 -85c-18 -20 -47 -37 -83 -37c-26 0 -50 11 -80 26z" />
    <glyph glyph-name="Odieresis" unicode="&#xd6;" horiz-adv-x="798" 
d="M62 324c0 99 34 200 98 277c67 81 166 134 285 134c185 0 331 -130 331 -335c0 -99 -34 -200 -98 -277c-67 -81 -166 -134 -285 -134c-185 0 -331 130 -331 335zM157 331c0 -142 93 -254 240 -254c84 0 156 36 208 100c47 58 76 137 76 216c0 142 -93 254 -240 254
c-84 0 -156 -36 -208 -100c-47 -58 -76 -137 -76 -216zM605 822c-30 0 -53 23 -53 52c0 33 27 58 60 58c30 0 53 -23 53 -52c0 -33 -27 -58 -60 -58zM411 822c-30 0 -53 23 -53 52c0 33 27 58 60 58c30 0 53 -23 53 -52c0 -33 -27 -58 -60 -58z" />
    <glyph glyph-name="Omacron" unicode="&#x14c;" horiz-adv-x="798" 
d="M62 324c0 99 34 200 98 277c67 81 166 134 285 134c185 0 331 -130 331 -335c0 -99 -34 -200 -98 -277c-67 -81 -166 -134 -285 -134c-185 0 -331 130 -331 335zM157 331c0 -142 93 -254 240 -254c84 0 156 36 208 100c47 58 76 137 76 216c0 142 -93 254 -240 254
c-84 0 -156 -36 -208 -100c-47 -58 -76 -137 -76 -216zM368 843l12 68h273l-12 -68h-273z" />
    <glyph glyph-name="Obreve" unicode="&#x14e;" horiz-adv-x="798" 
d="M62 324c0 99 34 200 98 277c67 81 166 134 285 134c185 0 331 -130 331 -335c0 -99 -34 -200 -98 -277c-67 -81 -166 -134 -285 -134c-185 0 -331 130 -331 335zM157 331c0 -142 93 -254 240 -254c84 0 156 36 208 100c47 58 76 137 76 216c0 142 -93 254 -240 254
c-84 0 -156 -36 -208 -100c-47 -58 -76 -137 -76 -216zM506 804c-72 0 -122 47 -122 119c0 10 1 20 3 29h57c-1 -6 -2 -13 -2 -21c0 -39 22 -71 71 -71c52 0 79 36 91 92h57c-15 -101 -82 -148 -155 -148z" />
    <glyph glyph-name="Ohungarumlaut" unicode="&#x150;" horiz-adv-x="798" 
d="M62 324c0 99 34 200 98 277c67 81 166 134 285 134c185 0 331 -130 331 -335c0 -99 -34 -200 -98 -277c-67 -81 -166 -134 -285 -134c-185 0 -331 130 -331 335zM157 331c0 -142 93 -254 240 -254c84 0 156 36 208 100c47 58 76 137 76 216c0 142 -93 254 -240 254
c-84 0 -156 -36 -208 -100c-47 -58 -76 -137 -76 -216zM505 795l112 164h80l-132 -164h-60zM367 795l112 164h80l-132 -164h-60z" />
    <glyph glyph-name="Racute" unicode="&#x154;" horiz-adv-x="625" 
d="M37 0l128 724h197c86 0 150 -17 194 -56c36 -32 59 -80 59 -135c0 -53 -22 -116 -70 -159c-30 -27 -74 -49 -131 -58l151 -316h-105l-143 310h-130l-55 -310h-95zM201 388h145c57 0 102 12 135 43c24 22 39 53 39 91c0 36 -13 64 -39 83c-27 22 -66 33 -129 33h-107z
M532 959l-139 -164h-69l106 164h102z" />
    <glyph glyph-name="R" unicode="R" horiz-adv-x="625" 
d="M37 0l128 724h197c86 0 150 -17 194 -56c36 -32 59 -80 59 -135c0 -53 -22 -116 -70 -159c-30 -27 -74 -49 -131 -58l151 -316h-105l-143 310h-130l-55 -310h-95zM201 388h145c57 0 102 12 135 43c24 22 39 53 39 91c0 36 -13 64 -39 83c-27 22 -66 33 -129 33h-107z" />
    <glyph glyph-name="Rcaron" unicode="&#x158;" horiz-adv-x="625" 
d="M37 0l128 724h197c86 0 150 -17 194 -56c36 -32 59 -80 59 -135c0 -53 -22 -116 -70 -159c-30 -27 -74 -49 -131 -58l151 -316h-105l-143 310h-130l-55 -310h-95zM201 388h145c57 0 102 12 135 43c24 22 39 53 39 91c0 36 -13 64 -39 83c-27 22 -66 33 -129 33h-107z
M579 959l-142 -164h-96l-84 164h71l70 -105l102 105h79z" />
    <glyph glyph-name="Rcommaaccent" unicode="&#x156;" horiz-adv-x="625" 
d="M37 0l128 724h197c86 0 150 -17 194 -56c36 -32 59 -80 59 -135c0 -53 -22 -116 -70 -159c-30 -27 -74 -49 -131 -58l151 -316h-105l-143 310h-130l-55 -310h-95zM201 388h145c57 0 102 12 135 43c24 22 39 53 39 91c0 36 -13 64 -39 83c-27 22 -66 33 -129 33h-107z
M201 -54h90l-115 -218h-68z" />
    <glyph glyph-name="Sacute" unicode="&#x15a;" horiz-adv-x="553" 
d="M415 198c0 70 -60 97 -142 133c-93 41 -170 81 -170 188c0 58 23 115 71 157c44 38 102 59 169 59c72 0 148 -24 210 -67l-18 -101c-57 47 -131 80 -200 80c-36 0 -71 -9 -97 -30s-40 -52 -40 -86c0 -68 57 -89 142 -128c97 -44 170 -84 170 -192
c0 -70 -31 -133 -84 -173c-44 -33 -100 -49 -162 -49c-84 0 -169 30 -231 80l18 104c59 -56 143 -97 219 -97c40 0 78 11 103 31c26 21 42 54 42 91zM516 959l-139 -164h-69l106 164h102z" />
    <glyph glyph-name="Scircumflex" unicode="&#x15c;" horiz-adv-x="553" 
d="M415 198c0 70 -60 97 -142 133c-93 41 -170 81 -170 188c0 58 23 115 71 157c44 38 102 59 169 59c72 0 148 -24 210 -67l-18 -101c-57 47 -131 80 -200 80c-36 0 -71 -9 -97 -30s-40 -52 -40 -86c0 -68 57 -89 142 -128c97 -44 170 -84 170 -192
c0 -70 -31 -133 -84 -173c-44 -33 -100 -49 -162 -49c-84 0 -169 30 -231 80l18 104c59 -56 143 -97 219 -97c40 0 78 11 103 31c26 21 42 54 42 91zM212 795l142 164h96l84 -164h-71l-70 105l-102 -105h-79z" />
    <glyph glyph-name="Scaron" unicode="&#x160;" horiz-adv-x="553" 
d="M415 198c0 70 -60 97 -142 133c-93 41 -170 81 -170 188c0 58 23 115 71 157c44 38 102 59 169 59c72 0 148 -24 210 -67l-18 -101c-57 47 -131 80 -200 80c-36 0 -71 -9 -97 -30s-40 -52 -40 -86c0 -68 57 -89 142 -128c97 -44 170 -84 170 -192
c0 -70 -31 -133 -84 -173c-44 -33 -100 -49 -162 -49c-84 0 -169 30 -231 80l18 104c59 -56 143 -97 219 -97c40 0 78 11 103 31c26 21 42 54 42 91zM563 959l-142 -164h-96l-84 164h71l70 -105l102 105h79z" />
    <glyph glyph-name="Scedilla" unicode="&#x15e;" horiz-adv-x="553" 
d="M33 69l18 104c59 -56 143 -97 219 -97c40 0 78 11 103 31c26 21 42 54 42 91c0 70 -60 97 -142 133c-93 41 -170 81 -170 188c0 58 23 115 71 157c44 38 102 59 169 59c72 0 148 -24 210 -67l-18 -101c-57 47 -131 80 -200 80c-36 0 -71 -9 -97 -30s-40 -52 -40 -86
c0 -68 57 -89 142 -128c97 -44 170 -84 170 -192c0 -70 -31 -133 -84 -173c-43 -32 -96 -48 -155 -49l-17 -34c41 -13 72 -38 72 -83c0 -54 -44 -93 -105 -93c-30 0 -62 9 -90 28l24 48c17 -12 39 -25 66 -25c23 0 46 11 46 36c0 34 -50 48 -81 53l36 73
c-70 8 -138 35 -189 77z" />
    <glyph glyph-name="Scommaaccent" unicode="&#x218;" horiz-adv-x="553" 
d="M415 198c0 70 -60 97 -142 133c-93 41 -170 81 -170 188c0 58 23 115 71 157c44 38 102 59 169 59c72 0 148 -24 210 -67l-18 -101c-57 47 -131 80 -200 80c-36 0 -71 -9 -97 -30s-40 -52 -40 -86c0 -68 57 -89 142 -128c97 -44 170 -84 170 -192
c0 -70 -31 -133 -84 -173c-44 -33 -100 -49 -162 -49c-84 0 -169 30 -231 80l18 104c59 -56 143 -97 219 -97c40 0 78 11 103 31c26 21 42 54 42 91zM185 -54h90l-115 -218h-68z" />
    <glyph glyph-name="Tcaron" unicode="&#x164;" horiz-adv-x="644" 
d="M232 0l112 638h-238l15 86h571l-15 -86h-238l-112 -638h-95zM609 959l-142 -164h-96l-84 164h71l70 -105l102 105h79z" />
    <glyph glyph-name="Tbar" unicode="&#x166;" horiz-adv-x="644" 
d="M160 318l14 78h127l43 242h-238l15 86h571l-15 -86h-238l-43 -242h129l-14 -78h-128l-56 -318h-95l56 318h-128z" />
    <glyph glyph-name="Ugrave" unicode="&#xd9;" horiz-adv-x="718" 
d="M77 227c0 30 4 66 13 120l66 377h95l-66 -377c-8 -44 -11 -81 -11 -106c0 -102 51 -164 166 -164c77 0 131 28 166 74c31 40 50 97 65 185l68 388h92l-69 -394c-21 -120 -47 -184 -87 -234c-53 -66 -134 -107 -242 -107c-161 0 -256 91 -256 238zM457 795l-81 164h100
l48 -164h-67z" />
    <glyph glyph-name="Uacute" unicode="&#xda;" horiz-adv-x="718" 
d="M77 227c0 30 4 66 13 120l66 377h95l-66 -377c-8 -44 -11 -81 -11 -106c0 -102 51 -164 166 -164c77 0 131 28 166 74c31 40 50 97 65 185l68 388h92l-69 -394c-21 -120 -47 -184 -87 -234c-53 -66 -134 -107 -242 -107c-161 0 -256 91 -256 238zM601 959l-139 -164h-69
l106 164h102z" />
    <glyph glyph-name="Ucircumflex" unicode="&#xdb;" horiz-adv-x="718" 
d="M77 227c0 30 4 66 13 120l66 377h95l-66 -377c-8 -44 -11 -81 -11 -106c0 -102 51 -164 166 -164c77 0 131 28 166 74c31 40 50 97 65 185l68 388h92l-69 -394c-21 -120 -47 -184 -87 -234c-53 -66 -134 -107 -242 -107c-161 0 -256 91 -256 238zM297 795l142 164h96
l84 -164h-71l-70 105l-102 -105h-79z" />
    <glyph glyph-name="Utilde" unicode="&#x168;" horiz-adv-x="718" 
d="M77 227c0 30 4 66 13 120l66 377h95l-66 -377c-8 -44 -11 -81 -11 -106c0 -102 51 -164 166 -164c77 0 131 28 166 74c31 40 50 97 65 185l68 388h92l-69 -394c-21 -120 -47 -184 -87 -234c-53 -66 -134 -107 -242 -107c-161 0 -256 91 -256 238zM459 844
c-26 13 -45 21 -68 21c-36 0 -62 -25 -80 -49l-2 1l15 85c18 20 47 37 83 37c26 0 50 -11 80 -26c26 -13 45 -21 68 -21c36 0 62 25 80 49l2 -1l-15 -85c-18 -20 -47 -37 -83 -37c-26 0 -50 11 -80 26z" />
    <glyph glyph-name="Udieresis" unicode="&#xdc;" horiz-adv-x="718" 
d="M77 227c0 30 4 66 13 120l66 377h95l-66 -377c-8 -44 -11 -81 -11 -106c0 -102 51 -164 166 -164c77 0 131 28 166 74c31 40 50 97 65 185l68 388h92l-69 -394c-21 -120 -47 -184 -87 -234c-53 -66 -134 -107 -242 -107c-161 0 -256 91 -256 238zM567 822
c-30 0 -53 23 -53 52c0 33 27 58 60 58c30 0 53 -23 53 -52c0 -33 -27 -58 -60 -58zM373 822c-30 0 -53 23 -53 52c0 33 27 58 60 58c30 0 53 -23 53 -52c0 -33 -27 -58 -60 -58z" />
    <glyph glyph-name="Umacron" unicode="&#x16a;" horiz-adv-x="718" 
d="M77 227c0 30 4 66 13 120l66 377h95l-66 -377c-8 -44 -11 -81 -11 -106c0 -102 51 -164 166 -164c77 0 131 28 166 74c31 40 50 97 65 185l68 388h92l-69 -394c-21 -120 -47 -184 -87 -234c-53 -66 -134 -107 -242 -107c-161 0 -256 91 -256 238zM330 843l12 68h273
l-12 -68h-273z" />
    <glyph glyph-name="Ubreve" unicode="&#x16c;" horiz-adv-x="718" 
d="M77 227c0 30 4 66 13 120l66 377h95l-66 -377c-8 -44 -11 -81 -11 -106c0 -102 51 -164 166 -164c77 0 131 28 166 74c31 40 50 97 65 185l68 388h92l-69 -394c-21 -120 -47 -184 -87 -234c-53 -66 -134 -107 -242 -107c-161 0 -256 91 -256 238zM468 804
c-72 0 -122 47 -122 119c0 10 1 20 3 29h57c-1 -6 -2 -13 -2 -21c0 -39 22 -71 71 -71c52 0 79 36 91 92h57c-15 -101 -82 -148 -155 -148z" />
    <glyph glyph-name="Uring" unicode="&#x16e;" horiz-adv-x="718" 
d="M77 227c0 30 4 66 13 120l66 377h95l-66 -377c-8 -44 -11 -81 -11 -106c0 -102 51 -164 166 -164c77 0 131 28 166 74c31 40 50 97 65 185l68 388h92l-69 -394c-21 -120 -47 -184 -87 -234c-53 -66 -134 -107 -242 -107c-161 0 -256 91 -256 238zM470 783
c-60 0 -109 41 -109 104c0 64 52 124 122 124c60 0 109 -41 109 -105s-52 -123 -122 -123zM472 833c35 0 67 29 67 70c0 29 -18 58 -58 58c-35 0 -67 -30 -67 -71c0 -28 18 -57 58 -57z" />
    <glyph glyph-name="Uhungarumlaut" unicode="&#x170;" horiz-adv-x="718" 
d="M77 227c0 30 4 66 13 120l66 377h95l-66 -377c-8 -44 -11 -81 -11 -106c0 -102 51 -164 166 -164c77 0 131 28 166 74c31 40 50 97 65 185l68 388h92l-69 -394c-21 -120 -47 -184 -87 -234c-53 -66 -134 -107 -242 -107c-161 0 -256 91 -256 238zM467 795l112 164h80
l-132 -164h-60zM329 795l112 164h80l-132 -164h-60z" />
    <glyph glyph-name="Uogonek" unicode="&#x172;" horiz-adv-x="718" 
d="M77 227c0 30 4 66 13 120l66 377h95l-66 -377c-8 -44 -11 -81 -11 -106c0 -102 51 -164 166 -164c77 0 131 28 166 74c31 40 50 97 65 185l68 388h92l-69 -394c-21 -120 -47 -184 -87 -234c-43 -54 -104 -91 -183 -102c-44 -30 -89 -74 -89 -121c0 -26 18 -43 53 -43
c9 0 21 1 30 3l-11 -61c-9 -1 -21 -3 -35 -3c-58 0 -114 28 -114 92c0 49 31 95 71 128l-1 2c-137 12 -219 100 -219 236z" />
    <glyph glyph-name="iogonek" unicode="&#x12f;" horiz-adv-x="249" 
d="M-39 -135c0 51 33 100 75 136l87 491h90l-87 -492c-43 -32 -87 -76 -87 -123c0 -29 18 -47 53 -47c9 0 24 2 33 4l-11 -61c-10 -2 -24 -4 -38 -4c-61 0 -115 32 -115 96zM134 658c0 37 30 66 67 66c35 0 61 -27 61 -60c0 -37 -31 -66 -68 -66c-35 0 -60 27 -60 60z" />
    <glyph glyph-name="cacute" unicode="&#x107;" horiz-adv-x="499" 
d="M44 207c0 73 28 163 99 225c52 45 119 71 193 71c51 0 102 -13 141 -31l-15 -86c-44 22 -85 35 -129 35c-54 0 -98 -19 -131 -49c-41 -38 -68 -98 -68 -158c0 -85 55 -143 153 -143c47 0 96 13 136 33l-16 -93c-35 -13 -85 -22 -129 -22c-124 0 -234 73 -234 218z
M520 727l-139 -164h-69l106 164h102z" />
    <glyph glyph-name="ccircumflex" unicode="&#x109;" horiz-adv-x="499" 
d="M44 207c0 73 28 163 99 225c52 45 119 71 193 71c51 0 102 -13 141 -31l-15 -86c-44 22 -85 35 -129 35c-54 0 -98 -19 -131 -49c-41 -38 -68 -98 -68 -158c0 -85 55 -143 153 -143c47 0 96 13 136 33l-16 -93c-35 -13 -85 -22 -129 -22c-124 0 -234 73 -234 218z
M180 563l142 164h96l84 -164h-71l-70 105l-102 -105h-79z" />
    <glyph glyph-name="ccaron" unicode="&#x10d;" horiz-adv-x="499" 
d="M44 207c0 73 28 163 99 225c52 45 119 71 193 71c51 0 102 -13 141 -31l-15 -86c-44 22 -85 35 -129 35c-54 0 -98 -19 -131 -49c-41 -38 -68 -98 -68 -158c0 -85 55 -143 153 -143c47 0 96 13 136 33l-16 -93c-35 -13 -85 -22 -129 -22c-124 0 -234 73 -234 218z
M531 727l-142 -164h-96l-84 164h71l70 -105l102 105h79z" />
    <glyph glyph-name="cdotaccent" unicode="&#x10b;" horiz-adv-x="499" 
d="M44 207c0 73 28 163 99 225c52 45 119 71 193 71c51 0 102 -13 141 -31l-15 -86c-44 22 -85 35 -129 35c-54 0 -98 -19 -131 -49c-41 -38 -68 -98 -68 -158c0 -85 55 -143 153 -143c47 0 96 13 136 33l-16 -93c-35 -13 -85 -22 -129 -22c-124 0 -234 73 -234 218z
M353 590c-30 0 -53 23 -53 52c0 33 27 58 60 58c30 0 53 -23 53 -52c0 -33 -27 -58 -60 -58z" />
    <glyph glyph-name="ccedilla" unicode="&#xe7;" horiz-adv-x="499" 
d="M190 -82l38 75c-102 17 -184 89 -184 214c0 73 28 163 99 225c52 45 119 71 193 71c51 0 102 -13 141 -31l-15 -86c-44 22 -85 35 -129 35c-54 0 -98 -19 -131 -49c-41 -38 -68 -98 -68 -158c0 -85 55 -143 153 -143c47 0 96 13 136 33l-16 -93c-35 -13 -85 -22 -129 -22
h-3l-17 -35c41 -13 72 -38 72 -83c0 -54 -44 -93 -105 -93c-30 0 -62 9 -90 28l24 48c17 -12 39 -25 66 -25c23 0 46 11 46 36c0 34 -50 48 -81 53z" />
    <glyph glyph-name="dcaron" unicode="&#x10f;" horiz-adv-x="695" 
d="M44 201c0 74 27 156 83 216c58 62 133 86 204 86c53 0 94 -14 120 -26l2 1l51 286h90l-135 -764h-90l8 43l-2 1c-36 -31 -80 -55 -139 -55c-110 0 -192 84 -192 212zM134 209c0 -87 50 -141 120 -141c52 0 101 30 139 69l45 257c-29 16 -71 30 -113 30
c-54 0 -103 -23 -138 -65c-34 -41 -53 -97 -53 -150zM708 764h90l-115 -218h-68z" />
    <glyph glyph-name="egrave" unicode="&#xe8;" horiz-adv-x="550" 
d="M501 220h-368c0 -99 68 -150 159 -150c59 0 118 21 156 42l-17 -94c-42 -20 -99 -29 -145 -29c-133 0 -242 74 -242 225c0 72 25 145 70 198c55 65 130 91 197 91c117 0 201 -78 201 -198c0 -27 -4 -60 -11 -85zM307 422c-77 0 -138 -48 -163 -131h284v10
c0 70 -41 121 -121 121zM334 563l-81 164h100l48 -164h-67z" />
    <glyph glyph-name="eacute" unicode="&#xe9;" horiz-adv-x="550" 
d="M501 220h-368c0 -99 68 -150 159 -150c59 0 118 21 156 42l-17 -94c-42 -20 -99 -29 -145 -29c-133 0 -242 74 -242 225c0 72 25 145 70 198c55 65 130 91 197 91c117 0 201 -78 201 -198c0 -27 -4 -60 -11 -85zM307 422c-77 0 -138 -48 -163 -131h284v10
c0 70 -41 121 -121 121zM478 727l-139 -164h-69l106 164h102z" />
    <glyph glyph-name="ecircumflex" unicode="&#xea;" horiz-adv-x="550" 
d="M501 220h-368c0 -99 68 -150 159 -150c59 0 118 21 156 42l-17 -94c-42 -20 -99 -29 -145 -29c-133 0 -242 74 -242 225c0 72 25 145 70 198c55 65 130 91 197 91c117 0 201 -78 201 -198c0 -27 -4 -60 -11 -85zM307 422c-77 0 -138 -48 -163 -131h284v10
c0 70 -41 121 -121 121zM174 563l142 164h96l84 -164h-71l-70 105l-102 -105h-79z" />
    <glyph glyph-name="ecaron" unicode="&#x11b;" horiz-adv-x="550" 
d="M501 220h-368c0 -99 68 -150 159 -150c59 0 118 21 156 42l-17 -94c-42 -20 -99 -29 -145 -29c-133 0 -242 74 -242 225c0 72 25 145 70 198c55 65 130 91 197 91c117 0 201 -78 201 -198c0 -27 -4 -60 -11 -85zM307 422c-77 0 -138 -48 -163 -131h284v10
c0 70 -41 121 -121 121zM525 727l-142 -164h-96l-84 164h71l70 -105l102 105h79z" />
    <glyph glyph-name="edieresis" unicode="&#xeb;" horiz-adv-x="550" 
d="M501 220h-368c0 -99 68 -150 159 -150c59 0 118 21 156 42l-17 -94c-42 -20 -99 -29 -145 -29c-133 0 -242 74 -242 225c0 72 25 145 70 198c55 65 130 91 197 91c117 0 201 -78 201 -198c0 -27 -4 -60 -11 -85zM307 422c-77 0 -138 -48 -163 -131h284v10
c0 70 -41 121 -121 121zM444 590c-30 0 -53 23 -53 52c0 33 27 58 60 58c30 0 53 -23 53 -52c0 -33 -27 -58 -60 -58zM250 590c-30 0 -53 23 -53 52c0 33 27 58 60 58c30 0 53 -23 53 -52c0 -33 -27 -58 -60 -58z" />
    <glyph glyph-name="emacron" unicode="&#x113;" horiz-adv-x="550" 
d="M501 220h-368c0 -99 68 -150 159 -150c59 0 118 21 156 42l-17 -94c-42 -20 -99 -29 -145 -29c-133 0 -242 74 -242 225c0 72 25 145 70 198c55 65 130 91 197 91c117 0 201 -78 201 -198c0 -27 -4 -60 -11 -85zM307 422c-77 0 -138 -48 -163 -131h284v10
c0 70 -41 121 -121 121zM207 611l12 68h273l-12 -68h-273z" />
    <glyph glyph-name="ebreve" unicode="&#x115;" horiz-adv-x="550" 
d="M501 220h-368c0 -99 68 -150 159 -150c59 0 118 21 156 42l-17 -94c-42 -20 -99 -29 -145 -29c-133 0 -242 74 -242 225c0 72 25 145 70 198c55 65 130 91 197 91c117 0 201 -78 201 -198c0 -27 -4 -60 -11 -85zM307 422c-77 0 -138 -48 -163 -131h284v10
c0 70 -41 121 -121 121zM345 572c-72 0 -122 47 -122 119c0 10 1 20 3 29h57c-1 -6 -2 -13 -2 -21c0 -39 22 -71 71 -71c52 0 79 36 91 92h57c-15 -101 -82 -148 -155 -148z" />
    <glyph glyph-name="edotaccent" unicode="&#x117;" horiz-adv-x="550" 
d="M501 220h-368c0 -99 68 -150 159 -150c59 0 118 21 156 42l-17 -94c-42 -20 -99 -29 -145 -29c-133 0 -242 74 -242 225c0 72 25 145 70 198c55 65 130 91 197 91c117 0 201 -78 201 -198c0 -27 -4 -60 -11 -85zM307 422c-77 0 -138 -48 -163 -131h284v10
c0 70 -41 121 -121 121zM347 590c-30 0 -53 23 -53 52c0 33 27 58 60 58c30 0 53 -23 53 -52c0 -33 -27 -58 -60 -58z" />
    <glyph glyph-name="eogonek" unicode="&#x119;" horiz-adv-x="550" 
d="M292 70c59 0 118 21 156 42l-17 -94c-62 -38 -125 -90 -125 -145c0 -26 18 -43 53 -43c9 0 21 1 30 3l-11 -61c-9 -1 -21 -3 -35 -3c-58 0 -114 28 -114 92c0 49 29 93 69 126l-1 2h-11c-133 0 -242 74 -242 225c0 72 25 145 70 198c55 65 130 91 197 91
c117 0 201 -78 201 -198c0 -27 -4 -61 -11 -86h-368c0 -98 68 -149 159 -149zM307 422c-77 0 -138 -48 -163 -131h284v10c0 70 -41 121 -121 121z" />
    <glyph glyph-name="hcircumflex" unicode="&#x125;" horiz-adv-x="592" 
d="M36 0l135 764h90l-59 -332l2 -1c50 41 108 72 175 72c90 0 149 -56 149 -151c0 -17 -2 -37 -8 -69l-50 -283h-90l49 277c5 27 7 45 7 59c0 50 -23 83 -83 83c-59 0 -112 -33 -167 -77l-60 -342h-90zM59 826l142 164h96l84 -164h-71l-70 105l-102 -105h-79z" />
    <glyph glyph-name="hbar" unicode="&#x127;" horiz-adv-x="592" 
d="M53 587l13 73h86l19 104h90l-19 -104h148l-13 -73h-148l-27 -155l2 -1c50 41 108 72 175 72c90 0 149 -56 149 -151c0 -17 -2 -37 -8 -69l-50 -283h-90l49 277c5 27 7 45 7 59c0 50 -23 83 -83 83c-59 0 -112 -33 -167 -77l-60 -342h-90l103 587h-86z" />
    <glyph glyph-name="igrave" unicode="&#xec;" horiz-adv-x="249" 
d="M36 0l87 492h90l-87 -492h-90zM179 563l-81 164h100l48 -164h-67z" />
    <glyph glyph-name="iacute" unicode="&#xed;" horiz-adv-x="249" 
d="M36 0l87 492h90l-87 -492h-90zM323 727l-139 -164h-69l106 164h102z" />
    <glyph glyph-name="icircumflex" unicode="&#xee;" horiz-adv-x="249" 
d="M36 0l87 492h90l-87 -492h-90zM19 563l142 164h96l84 -164h-71l-70 105l-102 -105h-79z" />
    <glyph glyph-name="itilde" unicode="&#x129;" horiz-adv-x="249" 
d="M36 0l87 492h90l-87 -492h-90zM181 612c-26 13 -45 21 -68 21c-36 0 -62 -25 -80 -49l-2 1l15 85c18 20 47 37 83 37c26 0 50 -11 80 -26c26 -13 45 -21 68 -21c36 0 62 25 80 49l2 -1l-15 -85c-18 -20 -47 -37 -83 -37c-26 0 -50 11 -80 26z" />
    <glyph glyph-name="idieresis" unicode="&#xef;" horiz-adv-x="249" 
d="M36 0l87 492h90l-87 -492h-90zM289 590c-30 0 -53 23 -53 52c0 33 27 58 60 58c30 0 53 -23 53 -52c0 -33 -27 -58 -60 -58zM95 590c-30 0 -53 23 -53 52c0 33 27 58 60 58c30 0 53 -23 53 -52c0 -33 -27 -58 -60 -58z" />
    <glyph glyph-name="imacron" unicode="&#x12b;" horiz-adv-x="249" 
d="M36 0l87 492h90l-87 -492h-90zM52 611l12 68h273l-12 -68h-273z" />
    <glyph glyph-name="ibreve" unicode="&#x12d;" horiz-adv-x="249" 
d="M36 0l87 492h90l-87 -492h-90zM190 572c-72 0 -122 47 -122 119c0 10 1 20 3 29h57c-1 -6 -2 -13 -2 -21c0 -39 22 -71 71 -71c52 0 79 36 91 92h57c-15 -101 -82 -148 -155 -148z" />
    <glyph glyph-name="perthousand" unicode="&#x2030;" horiz-adv-x="1327" 
d="M260 361c-95 0 -160 71 -160 166c0 99 71 208 187 208c95 0 160 -71 160 -166c0 -99 -71 -208 -187 -208zM132 0l626 724h75l-626 -724h-75zM262 423c71 0 120 72 120 142c0 54 -34 108 -97 108c-71 0 -120 -72 -120 -142c0 -54 34 -108 97 -108zM924 155
c0 99 71 208 187 208c95 0 160 -71 160 -166c0 -99 -71 -208 -187 -208c-95 0 -160 71 -160 166zM518 155c0 99 71 208 187 208c95 0 160 -71 160 -166c0 -99 -71 -208 -187 -208c-95 0 -160 71 -160 166zM989 159c0 -54 34 -108 97 -108c71 0 120 72 120 142
c0 54 -34 108 -97 108c-71 0 -120 -72 -120 -142zM583 159c0 -54 34 -108 97 -108c71 0 120 72 120 142c0 54 -34 108 -97 108c-71 0 -120 -72 -120 -142z" />
    <glyph glyph-name="trademark" unicode="&#x2122;" horiz-adv-x="634" 
d="M164 434v242h-88v48h228v-48h-88v-242h-52zM492 508l-46 64c-16 23 -32 46 -46 67l-2 -1c1 -21 2 -49 2 -74v-130h-51v290h49l94 -130l94 130h50v-290h-52v130c0 25 1 53 2 74l-2 1c-14 -21 -30 -44 -46 -67z" />
    <glyph glyph-name="florin" unicode="&#x192;" horiz-adv-x="497" 
d="M146 412l14 80h96l45 127c38 107 109 147 194 147c27 0 55 -4 81 -11l-15 -83c-21 7 -50 12 -72 12c-49 0 -83 -21 -103 -77l-41 -115h120l-14 -80h-134l-176 -499c-37 -106 -102 -144 -182 -144c-25 0 -49 4 -75 11l15 84c20 -7 44 -13 66 -13c43 0 72 21 91 74l172 487
h-82z" />
    <glyph glyph-name="cent" unicode="&#xa2;" horiz-adv-x="513" 
d="M59 323c0 73 28 163 99 225c42 36 94 61 152 68l22 126h74l-22 -125c40 -4 77 -15 108 -29l-15 -86c-44 22 -85 35 -129 35c-54 0 -98 -19 -131 -49c-41 -38 -68 -98 -68 -158c0 -85 55 -143 153 -143c47 0 96 13 136 33l-16 -93c-35 -13 -84 -22 -128 -22l-22 -123h-74
l23 132c-93 23 -162 93 -162 209z" />
    <glyph glyph-name="currency" unicode="&#xa4;" horiz-adv-x="579" 
d="M305 208c83 0 149 72 149 159c0 71 -52 125 -128 125c-83 0 -149 -72 -149 -159c0 -71 52 -125 128 -125zM299 137c-48 0 -92 14 -126 41l-95 -81l-47 61l94 80c-13 26 -20 56 -20 90c0 53 19 105 51 147l-55 69l67 59l55 -70c32 19 69 30 109 30c48 0 92 -14 126 -41
l95 81l47 -61l-94 -80c13 -26 20 -56 20 -90c0 -53 -19 -105 -51 -147l55 -69l-67 -59l-55 70c-32 -19 -69 -30 -109 -30z" />
    <glyph glyph-name="ae" unicode="&#xe6;" horiz-adv-x="881" 
d="M832 220h-361c0 -99 68 -150 157 -150c57 0 114 21 151 42l-17 -94c-41 -20 -96 -29 -140 -29c-79 0 -153 29 -197 87c-51 -63 -115 -87 -178 -87c-118 0 -203 86 -203 214c0 71 26 154 86 215c59 60 139 85 227 85c55 0 112 -10 151 -20l-8 -42l1 -1c38 40 90 63 149 63
c109 0 193 -79 193 -198c0 -29 -5 -60 -11 -85zM262 69c49 0 94 23 129 75c-5 20 -8 42 -8 66c0 19 2 38 5 55l27 152c-20 4 -43 7 -69 7c-68 0 -119 -21 -156 -62c-34 -38 -56 -95 -56 -151c0 -85 51 -142 128 -142zM641 422c-79 0 -135 -54 -159 -131h277v9
c0 67 -37 122 -118 122z" />
    <glyph glyph-name="aeacute" unicode="&#x1fd;" horiz-adv-x="881" 
d="M832 220h-361c0 -99 68 -150 157 -150c57 0 114 21 151 42l-17 -94c-41 -20 -96 -29 -140 -29c-79 0 -153 29 -197 87c-51 -63 -115 -87 -178 -87c-118 0 -203 86 -203 214c0 71 26 154 86 215c59 60 139 85 227 85c55 0 112 -10 151 -20l-8 -42l1 -1c38 40 90 63 149 63
c109 0 193 -79 193 -198c0 -29 -5 -60 -11 -85zM262 69c49 0 94 23 129 75c-5 20 -8 42 -8 66c0 19 2 38 5 55l27 152c-20 4 -43 7 -69 7c-68 0 -119 -21 -156 -62c-34 -38 -56 -95 -56 -151c0 -85 51 -142 128 -142zM641 422c-79 0 -135 -54 -159 -131h277v9
c0 67 -37 122 -118 122zM638 727l-139 -164h-69l106 164h102z" />
    <glyph glyph-name="AE" unicode="&#xc6;" horiz-adv-x="908" 
d="M-24 0l507 724h454l-15 -86h-298l-39 -220h256l-15 -83h-256l-44 -249h307l-15 -86h-402l36 202h-233l-142 -202h-101zM410 472l-132 -187h188l64 358h-2c-38 -56 -78 -114 -118 -171z" />
    <glyph glyph-name="AEacute" unicode="&#x1fc;" horiz-adv-x="908" 
d="M-24 0l507 724h454l-15 -86h-298l-39 -220h256l-15 -83h-256l-44 -249h307l-15 -86h-402l36 202h-233l-142 -202h-101zM410 472l-132 -187h188l64 358h-2c-38 -56 -78 -114 -118 -171zM818 959l-139 -164h-69l106 164h102z" />
    <glyph glyph-name="OE" unicode="&#x152;" horiz-adv-x="900" 
d="M62 324c0 98 36 203 116 282c74 74 180 118 304 118h447l-15 -86h-298l-39 -220h256l-15 -83h-256l-44 -249h307l-15 -86h-386c-219 0 -362 129 -362 324zM157 330c0 -136 93 -242 266 -244l98 552h-46c-98 0 -179 -34 -236 -96c-52 -57 -82 -134 -82 -212z" />
    <glyph glyph-name="eng" unicode="&#x14b;" horiz-adv-x="592" 
d="M36 0l86 492h90l-10 -60l2 -1c50 39 108 72 176 72c88 0 148 -56 148 -151c0 -17 -2 -37 -8 -69l-61 -348c-10 -59 -25 -90 -46 -114c-32 -35 -76 -48 -121 -48c-24 0 -51 4 -73 11l14 82c18 -5 40 -11 59 -11c53 0 69 36 79 91l58 331c5 27 7 45 7 59
c0 50 -26 83 -86 83c-56 0 -109 -33 -164 -77l-60 -342h-90z" />
    <glyph glyph-name="Oslash" unicode="&#xd8;" horiz-adv-x="798" 
d="M157 331c0 -54 13 -104 37 -144l409 400c-40 37 -96 60 -162 60c-84 0 -156 -36 -208 -100c-47 -58 -76 -137 -76 -216zM62 324c0 99 34 200 98 277c67 81 166 134 285 134c87 0 166 -29 225 -82l88 86l46 -45l-91 -89c40 -54 63 -124 63 -205c0 -99 -34 -200 -98 -277
c-67 -81 -166 -134 -285 -134c-87 0 -166 29 -225 82l-88 -86l-46 45l91 89c-40 54 -63 124 -63 205zM681 393c0 54 -13 104 -37 144l-409 -400c40 -37 96 -60 162 -60c84 0 156 36 208 100c47 58 76 137 76 216z" />
    <glyph glyph-name="Oslashacute" unicode="&#x1fe;" horiz-adv-x="798" 
d="M157 331c0 -54 13 -104 37 -144l409 400c-40 37 -96 60 -162 60c-84 0 -156 -36 -208 -100c-47 -58 -76 -137 -76 -216zM62 324c0 99 34 200 98 277c67 81 166 134 285 134c87 0 166 -29 225 -82l88 86l46 -45l-91 -89c40 -54 63 -124 63 -205c0 -99 -34 -200 -98 -277
c-67 -81 -166 -134 -285 -134c-87 0 -166 29 -225 82l-88 -86l-46 45l91 89c-40 54 -63 124 -63 205zM681 393c0 54 -13 104 -37 144l-409 -400c40 -37 96 -60 162 -60c84 0 156 36 208 100c47 58 76 137 76 216zM639 959l-139 -164h-69l106 164h102z" />
    <glyph glyph-name="registered" unicode="&#xae;" horiz-adv-x="462" 
d="M285 363c-108 0 -187 79 -187 186s79 186 187 186s187 -79 187 -186s-79 -186 -187 -186zM285 392c92 0 157 67 157 157s-65 157 -157 157s-157 -67 -157 -157s65 -157 157 -157zM329 448l-43 73h-33v-73h-36v202h72c41 0 76 -23 76 -65c0 -30 -19 -50 -44 -59l49 -78
h-41zM253 552h33c25 0 42 11 42 33c0 21 -17 32 -42 32h-33v-65z" />
    <glyph glyph-name="periodcentered" unicode="&#xb7;" horiz-adv-x="292" 
d="M89 299c0 38 32 69 70 69c37 0 63 -29 63 -63c0 -38 -32 -69 -70 -69c-37 0 -63 29 -63 63z" />
    <glyph glyph-name="ordfeminine" unicode="&#xaa;" horiz-adv-x="384" 
d="M218 401c-74 0 -130 55 -130 141c0 99 72 193 186 193c50 0 97 -18 142 -48l-49 -279h-67l4 22l-2 1c-19 -15 -48 -30 -84 -30zM238 462c28 0 55 11 77 31l28 159c-19 12 -47 22 -75 22c-68 0 -112 -63 -112 -126c0 -52 31 -86 82 -86z" />
    <glyph glyph-name="ordmasculine" unicode="&#xba;" horiz-adv-x="405" 
d="M249 401c-88 0 -157 56 -157 148c0 101 71 186 177 186c88 0 157 -56 157 -148c0 -101 -71 -186 -177 -186zM251 462c62 0 107 53 107 120c0 50 -31 92 -91 92c-62 0 -107 -53 -107 -120c0 -50 31 -92 91 -92z" />
    <glyph glyph-name="integral" unicode="&#x222b;" horiz-adv-x="351" 
d="M65 -96c19 -3 39 -5 55 -5c57 0 90 25 90 88c0 25 -5 58 -11 89l-93 467c-8 39 -13 87 -13 117c0 120 77 166 175 166c21 0 41 -2 58 -5v-82c-18 3 -38 5 -54 5c-57 0 -90 -25 -90 -88c0 -25 5 -58 11 -89l93 -467c8 -39 13 -87 13 -117c0 -120 -77 -166 -175 -166
c-21 0 -41 2 -59 5v82z" />
    <glyph glyph-name="mu" unicode="&#xb5;" horiz-adv-x="609" 
d="M195 -220h-94v712h90v-284c0 -54 7 -82 24 -102c20 -25 49 -34 78 -34c61 0 119 40 154 84v336h90v-492h-90v62l-2 1c-43 -43 -101 -74 -167 -74c-33 0 -66 8 -90 23l-2 -1z" />
    <glyph glyph-name="litre" unicode="&#x2113;" horiz-adv-x="431" 
d="M81 144l-33 57c28 25 55 51 80 77v258c0 141 64 214 143 214c70 0 115 -59 115 -155c0 -108 -56 -218 -158 -328v-66c0 -102 19 -136 61 -136c33 0 58 22 87 55l37 -48c-40 -57 -87 -86 -148 -86c-94 0 -136 71 -136 169v35c-12 -12 -36 -39 -48 -46zM228 363
c53 73 85 158 85 232c0 48 -17 81 -38 81c-28 0 -47 -40 -47 -132v-181z" />
    <glyph glyph-name="dotlessj" unicode="&#x237;" horiz-adv-x="252" 
d="M29 -59l97 551h90l-99 -562c-10 -59 -26 -89 -47 -113c-32 -35 -75 -48 -120 -48c-24 0 -51 4 -73 11l14 82c18 -5 40 -11 59 -11c53 0 69 35 79 90z" />
    <glyph glyph-name="jcircumflex" unicode="&#x135;" horiz-adv-x="252" 
d="M29 -59l97 551h90l-99 -562c-10 -59 -26 -89 -47 -113c-32 -35 -75 -48 -120 -48c-24 0 -51 4 -73 11l14 82c18 -5 40 -11 59 -11c53 0 69 35 79 90zM23 563l142 164h96l84 -164h-71l-70 105l-102 -105h-79z" />
    <glyph glyph-name="kcommaaccent" unicode="&#x137;" horiz-adv-x="536" 
d="M36 0l135 764h90l-84 -475h2l265 203h120l-288 -220l198 -272h-107l-192 266h-2l-47 -266h-90zM177 -54h90l-115 -218h-68z" />
    <glyph glyph-name="kgreenlandic" unicode="&#x138;" horiz-adv-x="536" 
d="M36 0l87 492h90l-36 -203h2l265 203h120l-288 -220l198 -272h-107l-192 266h-2l-47 -266h-90z" />
    <glyph glyph-name="lacute" unicode="&#x13a;" horiz-adv-x="249" 
d="M36 0l135 764h90l-135 -764h-90zM375 990l-139 -164h-69l106 164h102z" />
    <glyph glyph-name="lcaron" unicode="&#x13e;" horiz-adv-x="362" 
d="M36 0l135 764h90l-135 -764h-90zM375 764h90l-115 -218h-68z" />
    <glyph glyph-name="lcommaaccent" unicode="&#x13c;" horiz-adv-x="249" 
d="M36 0l135 764h90l-135 -764h-90zM33 -54h90l-115 -218h-68z" />
    <glyph glyph-name="lslash" unicode="&#x142;" horiz-adv-x="257" 
d="M91 291l-92 -54l16 88l92 54l68 385h90l-58 -327l92 54l-16 -88l-91 -54l-62 -349h-90z" />
    <glyph glyph-name="ldot" unicode="&#x140;" horiz-adv-x="357" 
d="M36 0l135 764h90l-135 -764h-90zM311 270c-30 0 -53 23 -53 52c0 33 27 58 60 58c30 0 53 -23 53 -52c0 -33 -27 -58 -60 -58z" />
    <glyph glyph-name="nacute" unicode="&#x144;" horiz-adv-x="592" 
d="M36 0l87 492h90l-11 -60l2 -1c50 40 110 72 177 72c87 0 147 -56 147 -151c0 -17 -2 -37 -8 -69l-50 -283h-90l49 277c5 27 7 45 7 59c0 50 -23 83 -79 83c-57 0 -118 -35 -171 -77l-60 -342h-90zM495 727l-139 -164h-69l106 164h102z" />
    <glyph glyph-name="ncaron" unicode="&#x148;" horiz-adv-x="592" 
d="M36 0l87 492h90l-11 -60l2 -1c50 40 110 72 177 72c87 0 147 -56 147 -151c0 -17 -2 -37 -8 -69l-50 -283h-90l49 277c5 27 7 45 7 59c0 50 -23 83 -79 83c-57 0 -118 -35 -171 -77l-60 -342h-90zM542 727l-142 -164h-96l-84 164h71l70 -105l102 105h79z" />
    <glyph glyph-name="ntilde" unicode="&#xf1;" horiz-adv-x="592" 
d="M36 0l87 492h90l-11 -60l2 -1c50 40 110 72 177 72c87 0 147 -56 147 -151c0 -17 -2 -37 -8 -69l-50 -283h-90l49 277c5 27 7 45 7 59c0 50 -23 83 -79 83c-57 0 -118 -35 -171 -77l-60 -342h-90zM353 612c-26 13 -45 21 -68 21c-36 0 -62 -25 -80 -49l-2 1l15 85
c18 20 47 37 83 37c26 0 50 -11 80 -26c26 -13 45 -21 68 -21c36 0 62 25 80 49l2 -1l-15 -85c-18 -20 -47 -37 -83 -37c-26 0 -50 11 -80 26z" />
    <glyph glyph-name="ncommaaccent" unicode="&#x146;" horiz-adv-x="592" 
d="M36 0l87 492h90l-11 -60l2 -1c50 40 110 72 177 72c87 0 147 -56 147 -151c0 -17 -2 -37 -8 -69l-50 -283h-90l49 277c5 27 7 45 7 59c0 50 -23 83 -79 83c-57 0 -118 -35 -171 -77l-60 -342h-90zM205 -54h90l-115 -218h-68z" />
    <glyph glyph-name="napostrophe" unicode="&#x149;" horiz-adv-x="592" 
d="M36 0l87 492h90l-11 -60l2 -1c50 40 110 72 177 72c87 0 147 -56 147 -151c0 -17 -2 -37 -8 -69l-50 -283h-90l49 277c5 27 7 45 7 59c0 50 -23 83 -79 83c-57 0 -118 -35 -171 -77l-60 -342h-90zM209 772h90l-115 -218h-68z" />
    <glyph glyph-name="ograve" unicode="&#xf2;" horiz-adv-x="592" 
d="M44 216c0 73 28 151 81 207c48 50 114 80 191 80c134 0 232 -90 232 -227c0 -73 -28 -151 -81 -207c-48 -50 -114 -80 -191 -80c-134 0 -232 90 -232 227zM134 222c0 -85 53 -151 148 -151c48 0 89 18 120 51c35 37 56 94 56 148c0 85 -53 151 -148 151
c-48 0 -89 -18 -120 -51c-35 -37 -56 -94 -56 -148zM351 563l-81 164h100l48 -164h-67z" />
    <glyph glyph-name="oacute" unicode="&#xf3;" horiz-adv-x="592" 
d="M44 216c0 73 28 151 81 207c48 50 114 80 191 80c134 0 232 -90 232 -227c0 -73 -28 -151 -81 -207c-48 -50 -114 -80 -191 -80c-134 0 -232 90 -232 227zM134 222c0 -85 53 -151 148 -151c48 0 89 18 120 51c35 37 56 94 56 148c0 85 -53 151 -148 151
c-48 0 -89 -18 -120 -51c-35 -37 -56 -94 -56 -148zM495 727l-139 -164h-69l106 164h102z" />
    <glyph glyph-name="ocircumflex" unicode="&#xf4;" horiz-adv-x="592" 
d="M44 216c0 73 28 151 81 207c48 50 114 80 191 80c134 0 232 -90 232 -227c0 -73 -28 -151 -81 -207c-48 -50 -114 -80 -191 -80c-134 0 -232 90 -232 227zM134 222c0 -85 53 -151 148 -151c48 0 89 18 120 51c35 37 56 94 56 148c0 85 -53 151 -148 151
c-48 0 -89 -18 -120 -51c-35 -37 -56 -94 -56 -148zM191 563l142 164h96l84 -164h-71l-70 105l-102 -105h-79z" />
    <glyph glyph-name="otilde" unicode="&#xf5;" horiz-adv-x="592" 
d="M44 216c0 73 28 151 81 207c48 50 114 80 191 80c134 0 232 -90 232 -227c0 -73 -28 -151 -81 -207c-48 -50 -114 -80 -191 -80c-134 0 -232 90 -232 227zM134 222c0 -85 53 -151 148 -151c48 0 89 18 120 51c35 37 56 94 56 148c0 85 -53 151 -148 151
c-48 0 -89 -18 -120 -51c-35 -37 -56 -94 -56 -148zM353 612c-26 13 -45 21 -68 21c-36 0 -62 -25 -80 -49l-2 1l15 85c18 20 47 37 83 37c26 0 50 -11 80 -26c26 -13 45 -21 68 -21c36 0 62 25 80 49l2 -1l-15 -85c-18 -20 -47 -37 -83 -37c-26 0 -50 11 -80 26z" />
    <glyph glyph-name="odieresis" unicode="&#xf6;" horiz-adv-x="592" 
d="M44 216c0 73 28 151 81 207c48 50 114 80 191 80c134 0 232 -90 232 -227c0 -73 -28 -151 -81 -207c-48 -50 -114 -80 -191 -80c-134 0 -232 90 -232 227zM134 222c0 -85 53 -151 148 -151c48 0 89 18 120 51c35 37 56 94 56 148c0 85 -53 151 -148 151
c-48 0 -89 -18 -120 -51c-35 -37 -56 -94 -56 -148zM461 590c-30 0 -53 23 -53 52c0 33 27 58 60 58c30 0 53 -23 53 -52c0 -33 -27 -58 -60 -58zM267 590c-30 0 -53 23 -53 52c0 33 27 58 60 58c30 0 53 -23 53 -52c0 -33 -27 -58 -60 -58z" />
    <glyph glyph-name="omacron" unicode="&#x14d;" horiz-adv-x="592" 
d="M44 216c0 73 28 151 81 207c48 50 114 80 191 80c134 0 232 -90 232 -227c0 -73 -28 -151 -81 -207c-48 -50 -114 -80 -191 -80c-134 0 -232 90 -232 227zM134 222c0 -85 53 -151 148 -151c48 0 89 18 120 51c35 37 56 94 56 148c0 85 -53 151 -148 151
c-48 0 -89 -18 -120 -51c-35 -37 -56 -94 -56 -148zM224 611l12 68h273l-12 -68h-273z" />
    <glyph glyph-name="obreve" unicode="&#x14f;" horiz-adv-x="592" 
d="M44 216c0 73 28 151 81 207c48 50 114 80 191 80c134 0 232 -90 232 -227c0 -73 -28 -151 -81 -207c-48 -50 -114 -80 -191 -80c-134 0 -232 90 -232 227zM134 222c0 -85 53 -151 148 -151c48 0 89 18 120 51c35 37 56 94 56 148c0 85 -53 151 -148 151
c-48 0 -89 -18 -120 -51c-35 -37 -56 -94 -56 -148zM362 572c-72 0 -122 47 -122 119c0 10 1 20 3 29h57c-1 -6 -2 -13 -2 -21c0 -39 22 -71 71 -71c52 0 79 36 91 92h57c-15 -101 -82 -148 -155 -148z" />
    <glyph glyph-name="ohungarumlaut" unicode="&#x151;" horiz-adv-x="592" 
d="M44 216c0 73 28 151 81 207c48 50 114 80 191 80c134 0 232 -90 232 -227c0 -73 -28 -151 -81 -207c-48 -50 -114 -80 -191 -80c-134 0 -232 90 -232 227zM134 222c0 -85 53 -151 148 -151c48 0 89 18 120 51c35 37 56 94 56 148c0 85 -53 151 -148 151
c-48 0 -89 -18 -120 -51c-35 -37 -56 -94 -56 -148zM361 563l112 164h80l-132 -164h-60zM223 563l112 164h80l-132 -164h-60z" />
    <glyph glyph-name="oslash" unicode="&#xf8;" horiz-adv-x="592" 
d="M134 222c0 -25 5 -49 14 -69l258 237c-24 19 -56 31 -96 31c-48 0 -89 -18 -120 -51c-35 -37 -56 -94 -56 -148zM44 216c0 73 28 151 81 207c48 50 114 80 191 80c61 0 115 -19 156 -53l60 55l44 -45l-63 -58c22 -35 35 -77 35 -126c0 -73 -28 -151 -81 -207
c-48 -50 -114 -80 -191 -80c-61 0 -115 19 -156 53l-60 -55l-44 45l63 58c-22 35 -35 77 -35 126zM458 270c0 25 -5 49 -14 69l-258 -237c24 -19 56 -31 96 -31c48 0 89 18 120 51c35 37 56 94 56 148z" />
    <glyph glyph-name="oslashacute" unicode="&#x1ff;" horiz-adv-x="592" 
d="M134 222c0 -25 5 -49 14 -69l258 237c-24 19 -56 31 -96 31c-48 0 -89 -18 -120 -51c-35 -37 -56 -94 -56 -148zM44 216c0 73 28 151 81 207c48 50 114 80 191 80c61 0 115 -19 156 -53l60 55l44 -45l-63 -58c22 -35 35 -77 35 -126c0 -73 -28 -151 -81 -207
c-48 -50 -114 -80 -191 -80c-61 0 -115 19 -156 53l-60 -55l-44 45l63 58c-22 35 -35 77 -35 126zM458 270c0 25 -5 49 -14 69l-258 -237c24 -19 56 -31 96 -31c48 0 89 18 120 51c35 37 56 94 56 148zM495 727l-139 -164h-69l106 164h102z" />
    <glyph glyph-name="oe" unicode="&#x153;" horiz-adv-x="938" 
d="M889 220h-361c0 -99 67 -150 157 -150c57 0 114 21 151 42l-17 -94c-41 -20 -95 -29 -139 -29c-88 0 -169 35 -209 107h-2c-49 -73 -123 -107 -202 -107c-128 0 -223 88 -223 226c0 66 22 140 68 196c45 55 112 92 195 92c96 0 166 -50 192 -111h2c42 67 114 111 201 111
c116 0 198 -78 198 -199c0 -27 -4 -59 -11 -84zM134 223c0 -85 51 -152 140 -152c52 0 96 22 127 64c27 37 42 87 42 134c0 81 -46 152 -139 152c-51 0 -96 -21 -128 -64c-27 -37 -42 -87 -42 -134zM698 422c-79 0 -135 -54 -159 -131h277v9c0 67 -37 122 -118 122z" />
    <glyph glyph-name="racute" unicode="&#x155;" horiz-adv-x="400" 
d="M36 0l87 492h90l-15 -84l2 -1c42 53 118 89 181 89c11 0 21 -1 31 -3l-15 -87c-7 1 -19 2 -30 2c-70 0 -137 -39 -187 -102l-54 -306h-90zM399 727l-139 -164h-69l106 164h102z" />
    <glyph glyph-name="rcaron" unicode="&#x159;" horiz-adv-x="400" 
d="M36 0l87 492h90l-15 -84l2 -1c42 53 118 89 181 89c11 0 21 -1 31 -3l-15 -87c-7 1 -19 2 -30 2c-70 0 -137 -39 -187 -102l-54 -306h-90zM446 727l-142 -164h-96l-84 164h71l70 -105l102 105h79z" />
    <glyph glyph-name="rcommaaccent" unicode="&#x157;" horiz-adv-x="400" 
d="M36 0l87 492h90l-15 -84l2 -1c42 53 118 89 181 89c11 0 21 -1 31 -3l-15 -87c-7 1 -19 2 -30 2c-70 0 -137 -39 -187 -102l-54 -306h-90zM65 -54h90l-115 -218h-68z" />
    <glyph glyph-name="sacute" unicode="&#x15b;" horiz-adv-x="494" 
d="M25 45l16 93c51 -42 126 -69 194 -69c33 0 60 7 78 22c14 11 24 31 24 51c0 47 -52 53 -126 73c-78 22 -140 51 -140 126c0 39 17 84 50 114c36 33 88 48 147 48c61 0 129 -15 185 -46l-16 -91c-49 35 -118 56 -178 56c-28 0 -51 -5 -67 -15c-17 -11 -30 -30 -30 -53
c0 -48 58 -52 127 -70c76 -20 139 -51 139 -129c0 -37 -14 -84 -52 -118c-37 -33 -88 -48 -150 -48c-66 0 -140 16 -201 56zM446 727l-139 -164h-69l106 164h102z" />
    <glyph glyph-name="scircumflex" unicode="&#x15d;" horiz-adv-x="494" 
d="M25 45l16 93c51 -42 126 -69 194 -69c33 0 60 7 78 22c14 11 24 31 24 51c0 47 -52 53 -126 73c-78 22 -140 51 -140 126c0 39 17 84 50 114c36 33 88 48 147 48c61 0 129 -15 185 -46l-16 -91c-49 35 -118 56 -178 56c-28 0 -51 -5 -67 -15c-17 -11 -30 -30 -30 -53
c0 -48 58 -52 127 -70c76 -20 139 -51 139 -129c0 -37 -14 -84 -52 -118c-37 -33 -88 -48 -150 -48c-66 0 -140 16 -201 56zM142 563l142 164h96l84 -164h-71l-70 105l-102 -105h-79z" />
    <glyph glyph-name="scaron" unicode="&#x161;" horiz-adv-x="494" 
d="M25 45l16 93c51 -42 126 -69 194 -69c33 0 60 7 78 22c14 11 24 31 24 51c0 47 -52 53 -126 73c-78 22 -140 51 -140 126c0 39 17 84 50 114c36 33 88 48 147 48c61 0 129 -15 185 -46l-16 -91c-49 35 -118 56 -178 56c-28 0 -51 -5 -67 -15c-17 -11 -30 -30 -30 -53
c0 -48 58 -52 127 -70c76 -20 139 -51 139 -129c0 -37 -14 -84 -52 -118c-37 -33 -88 -48 -150 -48c-66 0 -140 16 -201 56zM493 727l-142 -164h-96l-84 164h71l70 -105l102 105h79z" />
    <glyph glyph-name="scommaaccent" unicode="&#x219;" horiz-adv-x="494" 
d="M25 45l16 93c51 -42 126 -69 194 -69c33 0 60 7 78 22c14 11 24 31 24 51c0 47 -52 53 -126 73c-78 22 -140 51 -140 126c0 39 17 84 50 114c36 33 88 48 147 48c61 0 129 -15 185 -46l-16 -91c-49 35 -118 56 -178 56c-28 0 -51 -5 -67 -15c-17 -11 -30 -30 -30 -53
c0 -48 58 -52 127 -70c76 -20 139 -51 139 -129c0 -37 -14 -84 -52 -118c-37 -33 -88 -48 -150 -48c-66 0 -140 16 -201 56zM156 -54h90l-115 -218h-68z" />
    <glyph glyph-name="germandbls" unicode="&#xdf;" horiz-adv-x="627" 
d="M577 152c0 -34 -15 -82 -52 -115s-88 -48 -150 -48c-56 0 -118 15 -172 46l16 89c48 -32 109 -55 165 -55c33 0 60 7 78 22c14 11 24 31 24 50c0 47 -40 61 -105 93c-78 39 -122 73 -122 144c0 109 102 160 210 161c9 21 17 50 17 73c0 21 -6 43 -23 58
c-18 16 -48 23 -88 23c-37 0 -74 -6 -101 -27c-24 -19 -39 -50 -47 -94l-101 -572h-90l102 577c12 68 37 122 82 155c42 31 97 43 161 43c76 0 123 -17 153 -44c27 -24 43 -59 43 -108c0 -52 -18 -106 -56 -164c-12 1 -31 2 -45 2c-45 0 -123 -10 -123 -73
c0 -42 35 -58 100 -90c70 -35 124 -66 124 -146z" />
    <glyph glyph-name="tcaron" unicode="&#x165;" horiz-adv-x="380" 
d="M99 128c0 17 2 42 7 70l38 213h-89l14 81h90l24 139l91 5l-25 -144h145l-14 -81h-146l-37 -210c-4 -24 -7 -43 -7 -60c0 -43 23 -70 74 -70c20 0 40 4 57 9l-15 -84c-16 -4 -36 -7 -57 -7c-82 0 -150 43 -150 139zM418 772h90l-115 -218h-68z" />
    <glyph glyph-name="uni021B" unicode="&#x21b;" horiz-adv-x="380" 
d="M99 128c0 17 2 42 7 70l38 213h-89l14 81h90l24 139l91 5l-25 -144h145l-14 -81h-146l-37 -210c-4 -24 -7 -43 -7 -60c0 -43 23 -70 74 -70c20 0 40 4 57 9l-15 -84c-16 -4 -36 -7 -57 -7c-82 0 -150 43 -150 139zM166 -54h90l-115 -218h-68z" />
    <glyph glyph-name="tbar" unicode="&#x167;" horiz-adv-x="390" 
d="M104 128c0 17 2 42 7 70l5 30h-88l14 81h89l18 102h-89l14 81h90l24 139l91 5l-25 -144h145l-14 -81h-146l-18 -102h146l-14 -81h-146l-5 -27c-4 -24 -7 -43 -7 -60c0 -43 23 -70 74 -70c20 0 40 4 57 9l-15 -84c-16 -4 -36 -7 -57 -7c-82 0 -150 43 -150 139z" />
    <glyph glyph-name="ugrave" unicode="&#xf9;" horiz-adv-x="586" 
d="M59 136c0 20 3 48 8 78l49 278h90l-48 -272c-5 -30 -7 -54 -7 -68c0 -48 24 -80 81 -80c56 0 113 31 168 80l60 340h90l-87 -492h-90l10 57l-2 1c-47 -35 -103 -69 -170 -69c-85 0 -152 54 -152 147zM348 563l-81 164h100l48 -164h-67z" />
    <glyph glyph-name="uacute" unicode="&#xfa;" horiz-adv-x="586" 
d="M59 136c0 20 3 48 8 78l49 278h90l-48 -272c-5 -30 -7 -54 -7 -68c0 -48 24 -80 81 -80c56 0 113 31 168 80l60 340h90l-87 -492h-90l10 57l-2 1c-47 -35 -103 -69 -170 -69c-85 0 -152 54 -152 147zM492 727l-139 -164h-69l106 164h102z" />
    <glyph glyph-name="ucircumflex" unicode="&#xfb;" horiz-adv-x="586" 
d="M59 136c0 20 3 48 8 78l49 278h90l-48 -272c-5 -30 -7 -54 -7 -68c0 -48 24 -80 81 -80c56 0 113 31 168 80l60 340h90l-87 -492h-90l10 57l-2 1c-47 -35 -103 -69 -170 -69c-85 0 -152 54 -152 147zM188 563l142 164h96l84 -164h-71l-70 105l-102 -105h-79z" />
    <glyph glyph-name="utilde" unicode="&#x169;" horiz-adv-x="586" 
d="M59 136c0 20 3 48 8 78l49 278h90l-48 -272c-5 -30 -7 -54 -7 -68c0 -48 24 -80 81 -80c56 0 113 31 168 80l60 340h90l-87 -492h-90l10 57l-2 1c-47 -35 -103 -69 -170 -69c-85 0 -152 54 -152 147zM350 612c-26 13 -45 21 -68 21c-36 0 -62 -25 -80 -49l-2 1l15 85
c18 20 47 37 83 37c26 0 50 -11 80 -26c26 -13 45 -21 68 -21c36 0 62 25 80 49l2 -1l-15 -85c-18 -20 -47 -37 -83 -37c-26 0 -50 11 -80 26z" />
    <glyph glyph-name="udieresis" unicode="&#xfc;" horiz-adv-x="586" 
d="M59 136c0 20 3 48 8 78l49 278h90l-48 -272c-5 -30 -7 -54 -7 -68c0 -48 24 -80 81 -80c56 0 113 31 168 80l60 340h90l-87 -492h-90l10 57l-2 1c-47 -35 -103 -69 -170 -69c-85 0 -152 54 -152 147zM458 590c-30 0 -53 23 -53 52c0 33 27 58 60 58c30 0 53 -23 53 -52
c0 -33 -27 -58 -60 -58zM264 590c-30 0 -53 23 -53 52c0 33 27 58 60 58c30 0 53 -23 53 -52c0 -33 -27 -58 -60 -58z" />
    <glyph glyph-name="umacron" unicode="&#x16b;" horiz-adv-x="586" 
d="M59 136c0 20 3 48 8 78l49 278h90l-48 -272c-5 -30 -7 -54 -7 -68c0 -48 24 -80 81 -80c56 0 113 31 168 80l60 340h90l-87 -492h-90l10 57l-2 1c-47 -35 -103 -69 -170 -69c-85 0 -152 54 -152 147zM221 611l12 68h273l-12 -68h-273z" />
    <glyph glyph-name="ubreve" unicode="&#x16d;" horiz-adv-x="586" 
d="M59 136c0 20 3 48 8 78l49 278h90l-48 -272c-5 -30 -7 -54 -7 -68c0 -48 24 -80 81 -80c56 0 113 31 168 80l60 340h90l-87 -492h-90l10 57l-2 1c-47 -35 -103 -69 -170 -69c-85 0 -152 54 -152 147zM359 572c-72 0 -122 47 -122 119c0 10 1 20 3 29h57
c-1 -6 -2 -13 -2 -21c0 -39 22 -71 71 -71c52 0 79 36 91 92h57c-15 -101 -82 -148 -155 -148z" />
    <glyph glyph-name="uring" unicode="&#x16f;" horiz-adv-x="586" 
d="M59 136c0 20 3 48 8 78l49 278h90l-48 -272c-5 -30 -7 -54 -7 -68c0 -48 24 -80 81 -80c56 0 113 31 168 80l60 340h90l-87 -492h-90l10 57l-2 1c-47 -35 -103 -69 -170 -69c-85 0 -152 54 -152 147zM361 551c-60 0 -109 41 -109 104c0 64 52 124 122 124
c60 0 109 -41 109 -105s-52 -123 -122 -123zM363 601c35 0 67 29 67 70c0 29 -18 58 -58 58c-35 0 -67 -30 -67 -71c0 -28 18 -57 58 -57z" />
    <glyph glyph-name="uhungarumlaut" unicode="&#x171;" horiz-adv-x="586" 
d="M59 136c0 20 3 48 8 78l49 278h90l-48 -272c-5 -30 -7 -54 -7 -68c0 -48 24 -80 81 -80c56 0 113 31 168 80l60 340h90l-87 -492h-90l10 57l-2 1c-47 -35 -103 -69 -170 -69c-85 0 -152 54 -152 147zM358 563l112 164h80l-132 -164h-60zM220 563l112 164h80l-132 -164
h-60z" />
    <glyph glyph-name="uogonek" unicode="&#x173;" horiz-adv-x="586" 
d="M373 0l10 57l-2 1c-47 -35 -103 -69 -170 -69c-85 0 -152 54 -152 147c0 20 3 48 8 78l49 278h90l-48 -272c-5 -30 -7 -54 -7 -68c0 -48 24 -80 81 -80c56 0 113 31 168 80l60 340h90l-87 -492c-49 -27 -111 -73 -111 -127c0 -26 17 -43 53 -43c8 0 19 1 28 3l-10 -61
c-10 -1 -21 -3 -34 -3c-58 0 -114 28 -114 92c0 58 44 105 98 139z" />
    <glyph glyph-name="wgrave" unicode="&#x1e81;" horiz-adv-x="811" 
d="M147 0l-84 492h96l34 -219c8 -51 16 -105 22 -152h2c26 50 52 99 81 152l120 219h63l42 -219c10 -52 19 -102 27 -152h2c24 50 49 100 75 151l112 220h96l-258 -492h-88l-41 209c-9 47 -17 93 -23 136h-2c-21 -42 -48 -93 -71 -135l-116 -210h-89zM463 563l-81 164h100
l48 -164h-67z" />
    <glyph glyph-name="wacute" unicode="&#x1e83;" horiz-adv-x="811" 
d="M147 0l-84 492h96l34 -219c8 -51 16 -105 22 -152h2c26 50 52 99 81 152l120 219h63l42 -219c10 -52 19 -102 27 -152h2c24 50 49 100 75 151l112 220h96l-258 -492h-88l-41 209c-9 47 -17 93 -23 136h-2c-21 -42 -48 -93 -71 -135l-116 -210h-89zM607 727l-139 -164h-69
l106 164h102z" />
    <glyph glyph-name="wcircumflex" unicode="&#x175;" horiz-adv-x="811" 
d="M147 0l-84 492h96l34 -219c8 -51 16 -105 22 -152h2c26 50 52 99 81 152l120 219h63l42 -219c10 -52 19 -102 27 -152h2c24 50 49 100 75 151l112 220h96l-258 -492h-88l-41 209c-9 47 -17 93 -23 136h-2c-21 -42 -48 -93 -71 -135l-116 -210h-89zM303 563l142 164h96
l84 -164h-71l-70 105l-102 -105h-79z" />
    <glyph glyph-name="wdieresis" unicode="&#x1e85;" horiz-adv-x="811" 
d="M147 0l-84 492h96l34 -219c8 -51 16 -105 22 -152h2c26 50 52 99 81 152l120 219h63l42 -219c10 -52 19 -102 27 -152h2c24 50 49 100 75 151l112 220h96l-258 -492h-88l-41 209c-9 47 -17 93 -23 136h-2c-21 -42 -48 -93 -71 -135l-116 -210h-89zM573 590
c-30 0 -53 23 -53 52c0 33 27 58 60 58c30 0 53 -23 53 -52c0 -33 -27 -58 -60 -58zM379 590c-30 0 -53 23 -53 52c0 33 27 58 60 58c30 0 53 -23 53 -52c0 -33 -27 -58 -60 -58z" />
    <glyph glyph-name="ygrave" unicode="&#x1ef3;" horiz-adv-x="542" 
d="M110 -220h-101l183 276l-129 436h97l50 -173c16 -55 32 -113 45 -165h2c33 54 68 111 104 167l109 171h98zM327 563l-81 164h100l48 -164h-67z" />
    <glyph glyph-name="yacute" unicode="&#xfd;" horiz-adv-x="542" 
d="M110 -220h-101l183 276l-129 436h97l50 -173c16 -55 32 -113 45 -165h2c33 54 68 111 104 167l109 171h98zM471 727l-139 -164h-69l106 164h102z" />
    <glyph glyph-name="ycircumflex" unicode="&#x177;" horiz-adv-x="542" 
d="M110 -220h-101l183 276l-129 436h97l50 -173c16 -55 32 -113 45 -165h2c33 54 68 111 104 167l109 171h98zM167 563l142 164h96l84 -164h-71l-70 105l-102 -105h-79z" />
    <glyph glyph-name="ydieresis" unicode="&#xff;" horiz-adv-x="542" 
d="M110 -220h-101l183 276l-129 436h97l50 -173c16 -55 32 -113 45 -165h2c33 54 68 111 104 167l109 171h98zM437 590c-30 0 -53 23 -53 52c0 33 27 58 60 58c30 0 53 -23 53 -52c0 -33 -27 -58 -60 -58zM243 590c-30 0 -53 23 -53 52c0 33 27 58 60 58c30 0 53 -23 53 -52
c0 -33 -27 -58 -60 -58z" />
    <glyph glyph-name="zacute" unicode="&#x17a;" horiz-adv-x="483" 
d="M-18 0l-1 2l343 406l-1 2h-243l14 82h408l1 -2l-344 -406l1 -2h264l-14 -82h-428zM441 727l-139 -164h-69l106 164h102z" />
    <glyph glyph-name="zcaron" unicode="&#x17e;" horiz-adv-x="483" 
d="M-18 0l-1 2l343 406l-1 2h-243l14 82h408l1 -2l-344 -406l1 -2h264l-14 -82h-428zM488 727l-142 -164h-96l-84 164h71l70 -105l102 105h79z" />
    <glyph glyph-name="zdotaccent" unicode="&#x17c;" horiz-adv-x="483" 
d="M-18 0l-1 2l343 406l-1 2h-243l14 82h408l1 -2l-344 -406l1 -2h264l-14 -82h-428zM310 590c-30 0 -53 23 -53 52c0 33 27 58 60 58c30 0 53 -23 53 -52c0 -33 -27 -58 -60 -58z" />
    <glyph glyph-name="i.TRK" horiz-adv-x="249" 
d="M36 0l87 492h90l-87 -492h-90z" />
    <glyph glyph-name="tilde.cap" 
d="M346 844c-26 13 -45 21 -68 21c-36 0 -62 -25 -80 -49l-2 1l15 85c18 20 47 37 83 37c26 0 50 -11 80 -26c26 -13 45 -21 68 -21c36 0 62 25 80 49l2 -1l-15 -85c-18 -20 -47 -37 -83 -37c-26 0 -50 11 -80 26z" />
    <glyph glyph-name="dieresis.cap" 
d="M454 822c-30 0 -53 23 -53 52c0 33 27 58 60 58c30 0 53 -23 53 -52c0 -33 -27 -58 -60 -58zM260 822c-30 0 -53 23 -53 52c0 33 27 58 60 58c30 0 53 -23 53 -52c0 -33 -27 -58 -60 -58z" />
    <glyph glyph-name="macron.cap" 
d="M217 843l12 68h273l-12 -68h-273z" />
    <glyph glyph-name="breve.cap" 
d="M355 804c-72 0 -122 47 -122 119c0 10 1 20 3 29h57c-1 -6 -2 -13 -2 -21c0 -39 22 -71 71 -71c52 0 79 36 91 92h57c-15 -101 -82 -148 -155 -148z" />
    <glyph glyph-name="ring.cap" 
d="M357 783c-60 0 -109 41 -109 104c0 64 52 124 122 124c60 0 109 -41 109 -105s-52 -123 -122 -123zM359 833c35 0 67 29 67 70c0 29 -18 58 -58 58c-35 0 -67 -30 -67 -71c0 -28 18 -57 58 -57z" />
    <glyph glyph-name="hungarumlaut.cap" 
d="M354 795l112 164h80l-132 -164h-60zM216 795l112 164h80l-132 -164h-60z" />
    <glyph glyph-name="dotaccent.cap" 
d="M357 822c-30 0 -53 23 -53 52c0 33 27 58 60 58c30 0 53 -23 53 -52c0 -33 -27 -58 -60 -58z" />
    <glyph glyph-name="grave.cap" 
d="M344 795l-81 164h100l48 -164h-67z" />
    <glyph glyph-name="acute.cap" 
d="M488 959l-139 -164h-69l106 164h102z" />
    <glyph glyph-name="circumflex.cap" 
d="M184 795l142 164h96l84 -164h-71l-70 105l-102 -105h-79z" />
    <glyph glyph-name="caron.cap" 
d="M535 959l-142 -164h-96l-84 164h71l70 -105l102 105h79z" />
    <glyph glyph-name="question" unicode="?" horiz-adv-x="476" 
d="M142 191l32 182c115 0 224 42 224 146c0 80 -66 128 -146 128c-40 0 -83 -12 -119 -30l17 97c31 13 69 21 107 21c127 0 236 -81 236 -210c0 -128 -104 -214 -241 -228l-27 -106h-83zM96 49c0 37 30 66 67 66c35 0 61 -27 61 -60c0 -37 -31 -66 -68 -66
c-35 0 -60 27 -60 60z" />
    <glyph glyph-name="gbreve" unicode="&#x11f;" horiz-adv-x="574" 
d="M44 212c0 74 30 155 84 210c51 52 124 81 205 81c66 0 136 -19 198 -49l-80 -455c-30 -168 -132 -230 -265 -230c-59 0 -118 12 -175 43l17 94c43 -31 104 -55 163 -55c79 0 150 42 169 143l8 47l-1 1c-32 -22 -68 -40 -122 -40c-117 0 -201 85 -201 210zM134 219
c0 -84 52 -139 129 -139c44 0 85 18 120 44l49 278c-27 11 -71 21 -109 21c-59 0 -103 -24 -134 -58c-35 -39 -55 -94 -55 -146zM363 572c-72 0 -122 47 -122 119c0 10 1 20 3 29h57c-1 -6 -2 -13 -2 -21c0 -39 22 -71 71 -71c52 0 79 36 91 92h57
c-15 -101 -82 -148 -155 -148z" />
    <glyph glyph-name="gdotaccent" unicode="&#x121;" horiz-adv-x="574" 
d="M44 212c0 74 30 155 84 210c51 52 124 81 205 81c66 0 136 -19 198 -49l-80 -455c-30 -168 -132 -230 -265 -230c-59 0 -118 12 -175 43l17 94c43 -31 104 -55 163 -55c79 0 150 42 169 143l8 47l-1 1c-32 -22 -68 -40 -122 -40c-117 0 -201 85 -201 210zM134 219
c0 -84 52 -139 129 -139c44 0 85 18 120 44l49 278c-27 11 -71 21 -109 21c-59 0 -103 -24 -134 -58c-35 -39 -55 -94 -55 -146zM365 590c-30 0 -53 23 -53 52c0 33 27 58 60 58c30 0 53 -23 53 -52c0 -33 -27 -58 -60 -58z" />
    <glyph glyph-name="gcommaaccent" unicode="&#x123;" horiz-adv-x="574" 
d="M44 212c0 74 30 155 84 210c51 52 124 81 205 81c66 0 136 -19 198 -49l-80 -455c-30 -168 -132 -230 -265 -230c-59 0 -118 12 -175 43l17 94c43 -31 104 -55 163 -55c79 0 150 42 169 143l8 47l-1 1c-32 -22 -68 -40 -122 -40c-117 0 -201 85 -201 210zM134 219
c0 -84 52 -139 129 -139c44 0 85 18 120 44l49 278c-27 11 -71 21 -109 21c-59 0 -103 -24 -134 -58c-35 -39 -55 -94 -55 -146zM289 556l116 218h67l-92 -218h-91z" />
    <glyph glyph-name="dcroat" unicode="&#x111;" horiz-adv-x="582" 
d="M324 587l13 73h148l19 104h90l-19 -104h86l-13 -73h-86l-103 -587h-90l8 43l-2 1c-36 -31 -80 -55 -139 -55c-110 0 -192 84 -192 212c0 74 27 156 83 216c58 62 133 86 204 86c53 0 94 -14 120 -26l2 1l19 109h-148zM134 209c0 -87 50 -141 120 -141c52 0 101 30 139 69
l45 257c-29 16 -71 30 -113 30c-54 0 -103 -23 -138 -65c-34 -41 -53 -97 -53 -150z" />
    <glyph glyph-name="quotedblleft" unicode="&#x201c;" horiz-adv-x="428" 
d="M94 473l130 269h61l-102 -269h-89zM255 473l130 269h61l-102 -269h-89z" />
    <glyph glyph-name="quotesinglbase" unicode="&#x201a;" horiz-adv-x="267" 
d="M0 -105l102 269h89l-130 -269h-61z" />
    <glyph glyph-name="quotedblbase" unicode="&#x201e;" horiz-adv-x="428" 
d="M0 -105l102 269h89l-130 -269h-61zM161 -105l102 269h89l-130 -269h-61z" />
    <glyph glyph-name="lessequal" unicode="&#x2264;" horiz-adv-x="677" 
d="M111 375l9 52l540 216l-14 -78l-411 -164v-2l353 -164l-13 -76zM44 0l11 65h502l-11 -65h-502z" />
    <glyph glyph-name="Tcommaaccent" unicode="&#x162;" horiz-adv-x="644" 
d="M232 0l112 638h-238l15 86h571l-15 -86h-238l-112 -638h-18l-22 -45c41 -13 72 -38 72 -83c0 -54 -44 -93 -105 -93c-30 0 -62 9 -90 28l24 48c17 -12 39 -25 66 -25c23 0 46 11 46 36c0 34 -50 48 -81 53l40 81h-27z" />
    <glyph glyph-name="gcircumflex" unicode="&#x11d;" horiz-adv-x="574" 
d="M44 212c0 74 30 155 84 210c51 52 124 81 205 81c66 0 136 -19 198 -49l-80 -455c-30 -168 -132 -230 -265 -230c-59 0 -118 12 -175 43l17 94c43 -31 104 -55 163 -55c79 0 150 42 169 143l8 47l-1 1c-32 -22 -68 -40 -122 -40c-117 0 -201 85 -201 210zM134 219
c0 -84 52 -139 129 -139c44 0 85 18 120 44l49 278c-27 11 -71 21 -109 21c-59 0 -103 -24 -134 -58c-35 -39 -55 -94 -55 -146zM192 563l142 164h96l84 -164h-71l-70 105l-102 -105h-79z" />
    <glyph glyph-name="scedilla" unicode="&#x15f;" horiz-adv-x="494" 
d="M145 -81l36 73c-54 6 -109 22 -156 53l16 93c51 -42 126 -69 194 -69c33 0 60 7 78 22c14 11 24 31 24 51c0 47 -52 53 -126 73c-78 22 -140 51 -140 126c0 39 17 84 50 114c36 33 88 48 147 48c61 0 129 -15 185 -46l-16 -91c-49 35 -118 56 -178 56
c-28 0 -51 -5 -67 -15c-17 -11 -30 -30 -30 -53c0 -48 58 -52 127 -70c76 -20 139 -51 139 -129c0 -37 -14 -84 -52 -118c-37 -33 -86 -47 -147 -48l-16 -34c41 -13 72 -38 72 -83c0 -54 -44 -93 -105 -93c-30 0 -62 9 -90 28l24 48c17 -12 39 -25 66 -25c23 0 46 11 46 36
c0 34 -50 48 -81 53z" />
    <glyph glyph-name="tcommaaccent" unicode="&#x163;" horiz-adv-x="380" 
d="M127 -81l43 86c-42 20 -71 61 -71 123c0 17 2 42 7 70l38 213h-89l14 81h90l24 139l91 5l-25 -144h145l-14 -81h-146l-37 -210c-4 -24 -7 -43 -7 -60c0 -43 23 -70 74 -70c20 0 40 4 57 9l-15 -84c-16 -4 -36 -7 -57 -7c-13 0 -25 1 -36 3l-18 -37c41 -13 72 -38 72 -83
c0 -54 -44 -93 -105 -93c-30 0 -62 9 -90 28l24 48c17 -12 39 -25 66 -25c23 0 46 11 46 36c0 34 -50 48 -81 53z" />
    <glyph glyph-name="thorn" unicode="&#xfe;" horiz-adv-x="578" 
d="M-3 -220l174 984h90l-54 -301l2 -1c34 24 76 41 126 41c114 0 199 -87 199 -218c0 -74 -27 -156 -83 -213c-54 -55 -131 -83 -216 -83c-42 0 -78 8 -106 17l-2 -1l-40 -225h-90zM192 378l-51 -290c29 -11 64 -20 102 -20c64 0 112 23 146 60c35 39 55 95 55 150
c0 90 -52 144 -127 144c-43 0 -89 -17 -125 -44z" />
    <glyph glyph-name="P" unicode="P" horiz-adv-x="614" 
d="M37 0l128 724h192c93 0 159 -18 205 -59c39 -34 63 -83 63 -141s-24 -122 -76 -169c-50 -45 -119 -69 -225 -69h-142l-50 -286h-95zM197 369h139c76 0 120 15 151 45c26 25 43 61 43 102c0 35 -13 64 -37 84c-29 25 -72 38 -138 38h-110z" />
    <glyph glyph-name="ampersand" unicode="&#x26;" horiz-adv-x="699" 
d="M58 174c0 96 68 167 158 211l27 13l-18 24c-29 38 -50 78 -50 127c0 104 93 186 203 186c90 0 165 -56 165 -149c0 -81 -56 -144 -128 -183l-46 -25l122 -161l107 217h91l-145 -287l110 -145l-1 -2h-107l-58 75c-44 -49 -112 -86 -206 -86c-133 0 -224 75 -224 185z
M288 71c67 0 117 27 149 72l-147 193l-41 -20c-50 -25 -101 -68 -101 -132c0 -67 55 -113 140 -113zM265 551c0 -28 11 -51 33 -80l26 -34l47 28c40 24 82 59 82 110c0 45 -34 77 -83 77c-57 0 -105 -43 -105 -101z" />
    <glyph glyph-name="at" unicode="@" horiz-adv-x="794" 
d="M35 211c0 212 164 408 393 408c193 0 339 -140 339 -332c0 -119 -56 -233 -171 -233c-43 0 -85 16 -106 57h-2c-35 -36 -84 -58 -134 -58c-86 0 -144 65 -144 158c0 112 84 228 215 228c56 0 102 -21 151 -52l-32 -176c-3 -17 -4 -31 -4 -41c0 -42 20 -66 62 -66
c81 0 115 88 115 175c0 159 -114 292 -289 292c-194 0 -343 -164 -343 -356c0 -169 116 -294 290 -294c75 0 138 23 190 58l20 -43c-62 -42 -135 -63 -211 -63c-194 0 -339 138 -339 338zM368 111c39 0 80 19 109 55c0 21 2 36 5 53l25 136c-19 13 -53 26 -87 26
c-88 0 -144 -89 -144 -168c0 -60 33 -102 92 -102z" />
    <glyph glyph-name="onequarter" unicode="&#xbc;" horiz-adv-x="916" 
d="M208 -13h-86l598 737h86zM161 294l64 347l-107 -33l12 70l186 57l-81 -441h-74zM680 0l18 100h-226l-1 2l288 332h72l-48 -274h73l-10 -60h-74l-18 -100h-74zM597 160h112l13 74c6 35 12 64 19 96l-2 1c-20 -26 -43 -53 -65 -79l-78 -90z" />
    <glyph glyph-name="agrave" unicode="&#xe0;" horiz-adv-x="582" 
d="M538 449l-79 -449h-90l8 43l-2 1c-35 -29 -80 -55 -140 -55c-107 0 -191 83 -191 211c0 74 28 158 87 219c58 60 134 84 206 84s139 -25 201 -54zM394 139l45 258c-29 14 -70 26 -111 26c-61 0 -106 -25 -138 -62c-38 -44 -56 -102 -56 -154c0 -89 53 -139 119 -139
c49 0 99 27 141 71zM349 563l-81 164h100l48 -164h-67z" />
    <glyph glyph-name="aacute" unicode="&#xe1;" horiz-adv-x="582" 
d="M538 449l-79 -449h-90l8 43l-2 1c-35 -29 -80 -55 -140 -55c-107 0 -191 83 -191 211c0 74 28 158 87 219c58 60 134 84 206 84s139 -25 201 -54zM394 139l45 258c-29 14 -70 26 -111 26c-61 0 -106 -25 -138 -62c-38 -44 -56 -102 -56 -154c0 -89 53 -139 119 -139
c49 0 99 27 141 71zM493 727l-139 -164h-69l106 164h102z" />
    <glyph glyph-name="acircumflex" unicode="&#xe2;" horiz-adv-x="582" 
d="M538 449l-79 -449h-90l8 43l-2 1c-35 -29 -80 -55 -140 -55c-107 0 -191 83 -191 211c0 74 28 158 87 219c58 60 134 84 206 84s139 -25 201 -54zM394 139l45 258c-29 14 -70 26 -111 26c-61 0 -106 -25 -138 -62c-38 -44 -56 -102 -56 -154c0 -89 53 -139 119 -139
c49 0 99 27 141 71zM189 563l142 164h96l84 -164h-71l-70 105l-102 -105h-79z" />
    <glyph glyph-name="atilde" unicode="&#xe3;" horiz-adv-x="582" 
d="M538 449l-79 -449h-90l8 43l-2 1c-35 -29 -80 -55 -140 -55c-107 0 -191 83 -191 211c0 74 28 158 87 219c58 60 134 84 206 84s139 -25 201 -54zM394 139l45 258c-29 14 -70 26 -111 26c-61 0 -106 -25 -138 -62c-38 -44 -56 -102 -56 -154c0 -89 53 -139 119 -139
c49 0 99 27 141 71zM351 612c-26 13 -45 21 -68 21c-36 0 -62 -25 -80 -49l-2 1l15 85c18 20 47 37 83 37c26 0 50 -11 80 -26c26 -13 45 -21 68 -21c36 0 62 25 80 49l2 -1l-15 -85c-18 -20 -47 -37 -83 -37c-26 0 -50 11 -80 26z" />
    <glyph glyph-name="adieresis" unicode="&#xe4;" horiz-adv-x="582" 
d="M538 449l-79 -449h-90l8 43l-2 1c-35 -29 -80 -55 -140 -55c-107 0 -191 83 -191 211c0 74 28 158 87 219c58 60 134 84 206 84s139 -25 201 -54zM394 139l45 258c-29 14 -70 26 -111 26c-61 0 -106 -25 -138 -62c-38 -44 -56 -102 -56 -154c0 -89 53 -139 119 -139
c49 0 99 27 141 71zM459 590c-30 0 -53 23 -53 52c0 33 27 58 60 58c30 0 53 -23 53 -52c0 -33 -27 -58 -60 -58zM265 590c-30 0 -53 23 -53 52c0 33 27 58 60 58c30 0 53 -23 53 -52c0 -33 -27 -58 -60 -58z" />
    <glyph glyph-name="amacron" unicode="&#x101;" horiz-adv-x="582" 
d="M538 449l-79 -449h-90l8 43l-2 1c-35 -29 -80 -55 -140 -55c-107 0 -191 83 -191 211c0 74 28 158 87 219c58 60 134 84 206 84s139 -25 201 -54zM394 139l45 258c-29 14 -70 26 -111 26c-61 0 -106 -25 -138 -62c-38 -44 -56 -102 -56 -154c0 -89 53 -139 119 -139
c49 0 99 27 141 71zM222 611l12 68h273l-12 -68h-273z" />
    <glyph glyph-name="abreve" unicode="&#x103;" horiz-adv-x="582" 
d="M538 449l-79 -449h-90l8 43l-2 1c-35 -29 -80 -55 -140 -55c-107 0 -191 83 -191 211c0 74 28 158 87 219c58 60 134 84 206 84s139 -25 201 -54zM394 139l45 258c-29 14 -70 26 -111 26c-61 0 -106 -25 -138 -62c-38 -44 -56 -102 -56 -154c0 -89 53 -139 119 -139
c49 0 99 27 141 71zM360 572c-72 0 -122 47 -122 119c0 10 1 20 3 29h57c-1 -6 -2 -13 -2 -21c0 -39 22 -71 71 -71c52 0 79 36 91 92h57c-15 -101 -82 -148 -155 -148z" />
    <glyph glyph-name="aring" unicode="&#xe5;" horiz-adv-x="582" 
d="M538 449l-79 -449h-90l8 43l-2 1c-35 -29 -80 -55 -140 -55c-107 0 -191 83 -191 211c0 74 28 158 87 219c58 60 134 84 206 84s139 -25 201 -54zM394 139l45 258c-29 14 -70 26 -111 26c-61 0 -106 -25 -138 -62c-38 -44 -56 -102 -56 -154c0 -89 53 -139 119 -139
c49 0 99 27 141 71zM362 551c-60 0 -109 41 -109 104c0 64 52 124 122 124c60 0 109 -41 109 -105s-52 -123 -122 -123zM364 601c35 0 67 29 67 70c0 29 -18 58 -58 58c-35 0 -67 -30 -67 -71c0 -28 18 -57 58 -57z" />
    <glyph glyph-name="M" unicode="M" horiz-adv-x="844" 
d="M36 0l128 724h85l188 -369l317 369h96l-128 -724h-95l66 373c12 67 25 136 38 201l-2 1c-43 -52 -87 -104 -131 -156l-184 -214l-115 226c-24 47 -48 96 -70 143l-2 -1c-9 -58 -18 -114 -28 -171l-71 -402h-92z" />
    <glyph glyph-name="V" unicode="V" horiz-adv-x="656" 
d="M240 0l-147 724h99l74 -373c15 -75 29 -149 42 -222h2c38 73 75 142 117 219l205 376h100l-400 -724h-92z" />
    <glyph glyph-name="W" unicode="W" horiz-adv-x="1009" 
d="M194 0l-99 724h98l52 -392c8 -61 16 -127 23 -191h2c28 61 61 128 92 192l192 391h70l54 -392c9 -64 17 -128 24 -191h2c28 61 61 130 91 192l190 391h98l-353 -724h-100l-50 364c-8 57 -16 117 -22 172h-2c-25 -54 -54 -114 -83 -174l-178 -362h-101z" />
    <glyph glyph-name="X" unicode="X" horiz-adv-x="649" 
d="M-37 0l326 384l-168 340h105l59 -122c24 -50 48 -100 70 -150h2c39 49 80 98 121 147l105 125h114l-289 -340l193 -384h-107l-76 154c-26 53 -52 107 -77 161h-2c-40 -50 -83 -102 -126 -153l-136 -162h-114z" />
    <glyph glyph-name="Y" unicode="Y" horiz-adv-x="647" 
d="M234 0l58 327l-204 397h106l81 -161c26 -51 52 -104 76 -154h2c41 51 85 104 128 154l137 161h110l-341 -396l-58 -328h-95z" />
    <glyph glyph-name="Z" unicode="Z" horiz-adv-x="590" 
d="M-27 0l-1 2l499 634l-1 2h-362l15 86h530l1 -2l-499 -634l1 -2h380l-15 -86h-548z" />
    <glyph glyph-name="apple" unicode="&#xf8ff;" horiz-adv-x="1002" 
d="M512 674c-1 6 -2 17 -2 27c0 85 85 183 185 187c1 -7 2 -15 2 -25c0 -102 -90 -189 -185 -189zM238 96c-61 82 -106 200 -106 317c0 164 98 271 244 271c37 0 135 -37 149 -37c12 0 21 3 79 23c27 9 56 14 88 14c77 0 139 -29 186 -87c-67 -49 -101 -106 -101 -176
c0 -77 42 -140 125 -183c-44 -125 -143 -243 -213 -243c-17 0 -35 5 -82 22c-30 11 -49 17 -77 17c-22 0 -41 -4 -65 -13c-50 -19 -68 -26 -86 -26c-40 0 -91 34 -141 101z" />
    <glyph glyph-name="estimated" unicode="&#x212e;" horiz-adv-x="818" 
d="M218 268v-131c0 -88 124 -126 208 -126s180 38 238 118l33 -7c-65 -89 -158 -139 -274 -139c-197 0 -337 143 -337 322c0 180 141 323 336 323c165 0 324 -102 333 -296c1 -31 -1 -32 -32 -32h-473c-34 0 -32 -2 -32 -32zM250 328h342c34 0 32 2 32 32v125
c0 64 -91 115 -203 115s-203 -51 -203 -115v-125c0 -30 -2 -32 32 -32z" />
    <glyph glyph-name="Ncaron" unicode="&#x147;" horiz-adv-x="762" 
d="M129 0h-92l128 724h87l210 -379c34 -61 78 -142 110 -203l2 1c11 72 24 149 37 223l63 358h92l-128 -724h-87l-210 379c-34 61 -78 142 -110 203l-2 -1c-11 -72 -24 -149 -37 -223zM668 959l-142 -164h-96l-84 164h71l70 -105l102 105h79z" />
    <glyph glyph-name="Ntilde" unicode="&#xd1;" horiz-adv-x="762" 
d="M129 0h-92l128 724h87l210 -379c34 -61 78 -142 110 -203l2 1c11 72 24 149 37 223l63 358h92l-128 -724h-87l-210 379c-34 61 -78 142 -110 203l-2 -1c-11 -72 -24 -149 -37 -223zM479 844c-26 13 -45 21 -68 21c-36 0 -62 -25 -80 -49l-2 1l15 85c18 20 47 37 83 37
c26 0 50 -11 80 -26c26 -13 45 -21 68 -21c36 0 62 25 80 49l2 -1l-15 -85c-18 -20 -47 -37 -83 -37c-26 0 -50 11 -80 26z" />
    <glyph glyph-name="Ncommaaccent" unicode="&#x145;" horiz-adv-x="762" 
d="M129 0h-92l128 724h87l210 -379c34 -61 78 -142 110 -203l2 1c11 72 24 149 37 223l63 358h92l-128 -724h-87l-210 379c-34 61 -78 142 -110 203l-2 -1c-11 -72 -24 -149 -37 -223zM290 -54h90l-115 -218h-68z" />
    <glyph glyph-name="Wgrave" unicode="&#x1e80;" horiz-adv-x="1009" 
d="M194 0l-99 724h98l52 -392c8 -61 16 -127 23 -191h2c28 61 61 128 92 192l192 391h70l54 -392c9 -64 17 -128 24 -191h2c28 61 61 130 91 192l190 391h98l-353 -724h-100l-50 364c-8 57 -16 117 -22 172h-2c-25 -54 -54 -114 -83 -174l-178 -362h-101zM602 795l-81 164
h100l48 -164h-67z" />
    <glyph glyph-name="Wacute" unicode="&#x1e82;" horiz-adv-x="1009" 
d="M194 0l-99 724h98l52 -392c8 -61 16 -127 23 -191h2c28 61 61 128 92 192l192 391h70l54 -392c9 -64 17 -128 24 -191h2c28 61 61 130 91 192l190 391h98l-353 -724h-100l-50 364c-8 57 -16 117 -22 172h-2c-25 -54 -54 -114 -83 -174l-178 -362h-101zM746 959l-139 -164
h-69l106 164h102z" />
    <glyph glyph-name="Wcircumflex" unicode="&#x174;" horiz-adv-x="1009" 
d="M194 0l-99 724h98l52 -392c8 -61 16 -127 23 -191h2c28 61 61 128 92 192l192 391h70l54 -392c9 -64 17 -128 24 -191h2c28 61 61 130 91 192l190 391h98l-353 -724h-100l-50 364c-8 57 -16 117 -22 172h-2c-25 -54 -54 -114 -83 -174l-178 -362h-101zM442 795l142 164
h96l84 -164h-71l-70 105l-102 -105h-79z" />
    <glyph glyph-name="Wdieresis" unicode="&#x1e84;" horiz-adv-x="1009" 
d="M194 0l-99 724h98l52 -392c8 -61 16 -127 23 -191h2c28 61 61 128 92 192l192 391h70l54 -392c9 -64 17 -128 24 -191h2c28 61 61 130 91 192l190 391h98l-353 -724h-100l-50 364c-8 57 -16 117 -22 172h-2c-25 -54 -54 -114 -83 -174l-178 -362h-101zM712 822
c-30 0 -53 23 -53 52c0 33 27 58 60 58c30 0 53 -23 53 -52c0 -33 -27 -58 -60 -58zM518 822c-30 0 -53 23 -53 52c0 33 27 58 60 58c30 0 53 -23 53 -52c0 -33 -27 -58 -60 -58z" />
    <glyph glyph-name="Ygrave" unicode="&#x1ef2;" horiz-adv-x="647" 
d="M234 0l58 327l-204 397h106l81 -161c26 -51 52 -104 76 -154h2c41 51 85 104 128 154l137 161h110l-341 -396l-58 -328h-95zM422 795l-81 164h100l48 -164h-67z" />
    <glyph glyph-name="Yacute" unicode="&#xdd;" horiz-adv-x="647" 
d="M234 0l58 327l-204 397h106l81 -161c26 -51 52 -104 76 -154h2c41 51 85 104 128 154l137 161h110l-341 -396l-58 -328h-95zM566 959l-139 -164h-69l106 164h102z" />
    <glyph glyph-name="Ycircumflex" unicode="&#x176;" horiz-adv-x="647" 
d="M234 0l58 327l-204 397h106l81 -161c26 -51 52 -104 76 -154h2c41 51 85 104 128 154l137 161h110l-341 -396l-58 -328h-95zM262 795l142 164h96l84 -164h-71l-70 105l-102 -105h-79z" />
    <glyph glyph-name="Ydieresis" unicode="&#x178;" horiz-adv-x="647" 
d="M234 0l58 327l-204 397h106l81 -161c26 -51 52 -104 76 -154h2c41 51 85 104 128 154l137 161h110l-341 -396l-58 -328h-95zM532 822c-30 0 -53 23 -53 52c0 33 27 58 60 58c30 0 53 -23 53 -52c0 -33 -27 -58 -60 -58zM338 822c-30 0 -53 23 -53 52c0 33 27 58 60 58
c30 0 53 -23 53 -52c0 -33 -27 -58 -60 -58z" />
    <glyph glyph-name="Zacute" unicode="&#x179;" horiz-adv-x="590" 
d="M-27 0l-1 2l499 634l-1 2h-362l15 86h530l1 -2l-499 -634l1 -2h380l-15 -86h-548zM539 959l-139 -164h-69l106 164h102z" />
    <glyph glyph-name="Zcaron" unicode="&#x17d;" horiz-adv-x="590" 
d="M-27 0l-1 2l499 634l-1 2h-362l15 86h530l1 -2l-499 -634l1 -2h380l-15 -86h-548zM586 959l-142 -164h-96l-84 164h71l70 -105l102 105h79z" />
    <glyph glyph-name="Zdotaccent" unicode="&#x17b;" horiz-adv-x="590" 
d="M-27 0l-1 2l499 634l-1 2h-362l15 86h530l1 -2l-499 -634l1 -2h380l-15 -86h-548zM408 822c-30 0 -53 23 -53 52c0 33 27 58 60 58c30 0 53 -23 53 -52c0 -33 -27 -58 -60 -58z" />
    <glyph glyph-name="onehalf" unicode="&#xbd;" horiz-adv-x="965" 
d="M560 0l-1 2l182 180c59 58 88 91 88 132c0 39 -28 58 -75 58c-33 0 -74 -16 -104 -38l15 81c28 17 65 26 100 26c76 0 140 -42 140 -119c0 -61 -38 -111 -98 -171l-82 -81l1 -2h152l-12 -68h-306zM208 -13h-86l598 737h86zM161 294l64 347l-107 -33l12 70l186 57
l-81 -441h-74z" />
    <glyph glyph-name="aogonek" unicode="&#x105;" horiz-adv-x="582" 
d="M538 449l-79 -449c-49 -27 -111 -73 -111 -127c0 -26 17 -43 53 -43c8 0 19 1 28 3l-10 -61c-10 -1 -21 -3 -34 -3c-58 0 -114 28 -114 92c0 58 44 105 98 139l8 43l-2 1c-35 -29 -80 -55 -140 -55c-107 0 -191 83 -191 211c0 74 28 158 87 219c58 60 134 84 206 84
s139 -25 201 -54zM394 139l45 258c-29 14 -70 26 -111 26c-61 0 -106 -25 -138 -62c-38 -44 -56 -102 -56 -154c0 -89 53 -139 119 -139c49 0 99 27 141 71z" />
    <glyph glyph-name="IJ" unicode="&#x132;" horiz-adv-x="643" 
d="M37 0l128 724h95l-128 -724h-95zM460 201l92 523h95l-94 -535c-12 -70 -31 -109 -55 -138c-36 -43 -87 -62 -144 -62c-42 0 -83 11 -115 25l16 92c31 -16 67 -29 100 -29c73 0 92 51 105 124z" />
    <glyph glyph-name="ij" unicode="&#x133;" horiz-adv-x="501" 
d="M134 658c0 37 30 66 67 66c35 0 61 -27 61 -60c0 -37 -31 -66 -68 -66c-35 0 -60 27 -60 60zM36 0l87 492h90l-87 -492h-90zM386 658c0 37 30 66 67 66c35 0 61 -27 61 -60c0 -37 -31 -66 -68 -66c-35 0 -60 27 -60 60zM278 -59l97 551h90l-99 -562
c-10 -59 -26 -89 -47 -113c-32 -35 -75 -48 -120 -48c-24 0 -51 4 -73 11l14 82c18 -5 40 -11 59 -11c53 0 69 35 79 90z" />
    <glyph glyph-name="greaterequal" unicode="&#x2265;" horiz-adv-x="677" 
d="M72 159l14 78l411 164v2l-353 164l13 76l464 -216l-9 -52zM44 0l11 65h502l-11 -65h-502z" />
    <glyph glyph-name="one.superior" unicode="&#xb9;" horiz-adv-x="317" 
d="M175 422l64 347l-107 -33l12 70l186 57l-81 -441h-74z" />
    <glyph glyph-name="two.superior" unicode="&#xb2;" horiz-adv-x="360" 
d="M51 422l-1 2l182 180c59 58 88 91 88 132c0 39 -28 58 -75 58c-33 0 -74 -16 -104 -38l15 81c28 17 65 26 100 26c76 0 140 -42 140 -119c0 -61 -38 -111 -98 -171l-82 -81l1 -2h152l-12 -68h-306z" />
    <glyph glyph-name="three.superior" unicode="&#xb3;" horiz-adv-x="346" 
d="M71 460l14 81c33 -36 81 -58 123 -58c24 0 48 7 64 19s25 30 25 48c0 38 -38 59 -87 59h-43l11 60h45c33 0 59 10 75 26c11 11 18 24 18 42c0 39 -34 58 -76 58c-30 0 -64 -10 -91 -25l13 73c25 12 57 19 88 19c65 0 142 -32 142 -110c0 -31 -12 -56 -26 -72
c-15 -17 -37 -30 -63 -37v-2c39 -15 70 -44 70 -93c0 -40 -21 -75 -53 -98c-30 -22 -71 -35 -115 -35c-50 0 -101 17 -134 45z" />
    <glyph glyph-name="four.superior" unicode="&#x2074;" horiz-adv-x="405" 
d="M271 422l18 100h-226l-1 2l288 332h72l-48 -274h73l-10 -60h-74l-18 -100h-74zM188 582h112l13 74c6 35 12 64 19 96l-2 1c-20 -26 -43 -53 -65 -79l-78 -90z" />
    <glyph glyph-name="threequarters" unicode="&#xbe;" horiz-adv-x="987" 
d="M70 332l14 81c33 -36 81 -58 123 -58c24 0 48 7 64 19s25 30 25 48c0 38 -38 59 -87 59h-43l11 60h45c33 0 59 10 75 26c11 11 18 24 18 42c0 39 -34 58 -76 58c-30 0 -64 -10 -91 -25l13 73c25 12 57 19 88 19c65 0 142 -32 142 -110c0 -31 -12 -56 -26 -72
c-15 -17 -37 -30 -63 -37v-2c39 -15 70 -44 70 -93c0 -40 -21 -75 -53 -98c-30 -22 -71 -35 -115 -35c-50 0 -101 17 -134 45zM279 -13h-86l598 737h86zM751 0l18 100h-226l-1 2l288 332h72l-48 -274h73l-10 -60h-74l-18 -100h-74zM668 160h112l13 74c6 35 12 64 19 96l-2 1
c-20 -26 -43 -53 -65 -79l-78 -90z" />
    <glyph glyph-name="longs" unicode="&#x17f;" horiz-adv-x="282" 
d="M60 0l72 411h-77l14 81h77l21 120c11 62 34 102 62 125c32 27 75 38 120 38c26 0 53 -5 77 -13l-14 -82c-21 8 -43 13 -65 13c-24 0 -44 -6 -59 -19c-14 -12 -25 -30 -33 -76l-105 -598h-90z" />
    <glyph glyph-name="ff" unicode="&#xfb00;" horiz-adv-x="643" 
d="M60 0l72 411h-77l14 81h77l21 120c11 62 34 102 62 125c32 27 75 38 120 38c26 0 53 -5 77 -13l-14 -82c-21 8 -43 13 -65 13c-24 0 -44 -6 -59 -19c-14 -12 -25 -30 -33 -76l-19 -106h218l21 120c11 62 34 102 62 125c32 27 75 38 120 38c26 0 53 -5 77 -13l-14 -82
c-21 8 -43 13 -65 13c-24 0 -44 -6 -59 -19c-14 -12 -25 -30 -33 -76l-19 -106h123l-14 -81h-123l-72 -411h-90l72 411h-218l-72 -411h-90z" />
    <glyph glyph-name="periodcentered.cap" horiz-adv-x="292" 
d="M100 359c0 38 32 69 70 69c37 0 63 -29 63 -63c0 -38 -32 -69 -70 -69c-37 0 -63 29 -63 63z" />
    <glyph glyph-name=".null" horiz-adv-x="1" 
 />
    <glyph glyph-name=".null" horiz-adv-x="1" 
 />
    <glyph glyph-name="Eth" unicode="&#xd0;" horiz-adv-x="736" 
d="M23 330l14 78h81l56 316h177c119 0 206 -34 266 -88c65 -58 101 -140 101 -236s-36 -203 -115 -282c-75 -74 -182 -118 -323 -118h-234l58 330h-81zM156 86h131c121 0 202 40 254 96c53 57 82 137 82 211c0 66 -23 131 -72 176c-46 42 -114 69 -212 69h-85l-41 -230h160
l-14 -78h-160z" />
    <glyph glyph-name="uni0394" unicode="&#x394;" horiz-adv-x="699" 
d="M36 0v61l272 663h96l272 -663v-61h-640zM141 86h427l-133 329c-27 66 -54 134 -79 199h-2c-27 -69 -54 -137 -82 -206z" />
    <glyph glyph-name="uni03A9" unicode="&#x3a9;" horiz-adv-x="754" 
d="M388 647c-149 0 -235 -109 -235 -256c0 -127 64 -240 164 -327v-64h-282v86h158l1 2c-84 85 -136 197 -136 315c0 187 132 332 330 332s330 -145 330 -332c0 -118 -52 -230 -136 -315l1 -2h158v-86h-282v64c100 87 164 200 164 327c0 147 -86 256 -235 256z" />
    <glyph glyph-name="uni03BC" unicode="&#x3bc;" horiz-adv-x="609" 
d="M195 -220h-94v712h90v-284c0 -54 7 -82 24 -102c20 -25 49 -34 78 -34c61 0 119 40 154 84v336h90v-492h-90v62l-2 1c-43 -43 -101 -74 -167 -74c-33 0 -66 8 -90 23l-2 -1z" />
    <glyph glyph-name="at.cap" horiz-adv-x="794" 
d="M55 327c0 212 164 408 393 408c193 0 339 -140 339 -332c0 -119 -56 -233 -171 -233c-43 0 -85 16 -106 57h-2c-35 -36 -84 -58 -134 -58c-86 0 -144 65 -144 158c0 112 84 228 215 228c56 0 102 -21 151 -52l-32 -176c-3 -17 -4 -31 -4 -41c0 -42 20 -66 62 -66
c81 0 115 88 115 175c0 159 -114 292 -289 292c-194 0 -343 -164 -343 -356c0 -169 116 -294 290 -294c75 0 138 23 190 58l20 -43c-62 -42 -135 -63 -211 -63c-194 0 -339 138 -339 338zM388 227c39 0 80 19 109 55c0 21 2 36 5 53l25 136c-19 13 -53 26 -87 26
c-88 0 -144 -89 -144 -168c0 -60 33 -102 92 -102z" />
    <glyph glyph-name="uni00A0" unicode="&#xa0;" horiz-adv-x="237" 
 />
    <glyph glyph-name="q.superior" horiz-adv-x="584" 
d="M538 466l-121 -686h-90l44 250l-2 1c-33 -25 -76 -42 -126 -42c-112 0 -199 85 -199 214c0 75 30 160 88 217c59 58 139 83 222 83c67 0 129 -16 184 -37zM387 119l51 288c-29 10 -61 17 -96 17c-67 0 -117 -25 -150 -61c-35 -38 -58 -97 -58 -154
c0 -87 54 -140 126 -140c41 0 88 18 127 50z" />
    </font>
</defs>
</svg>
